<?xml version="1.0" encoding="UTF-8"?>
<!DOCTYPE svg PUBLIC "-//W3C//DTD SVG 1.1//EN" "http://www.w3.org/Graphics/SVG/1.1/DTD/svg11.dtd">
<svg version="1.1" xmlns="http://www.w3.org/2000/svg" xmlns:xlink="http://www.w3.org/1999/xlink" width="100%" height="100%" viewBox="0 0 775 170" xml:space="preserve">
<g id="logo_alex">
  <defs>
    <mask id="aab">
      <path fill="#fff" d="M647 123s-7.83 11.78-11.4 17.95h90.3c-3.9-6.4-7.2-12-11-18.2L647 123zm0 0"/>
    </mask>
    <mask id="aaa">
      <path fill="#fff"
            d="M773.4 141.05c-22.8-39.9-46-79.7-68.6-119.1-23.1 39.8-46.3 79.5-69.2 119l22.4.05 13.79-24.09c10.77-18.57 21.14-36.4 32.01-55.06 15.6 27.3 30.6 53.3 45.5 79.2h24.1zm0 0"/>
    </mask>
    <mask id="aac">
      <path fill="#fff"
            d="M494.6 50.4c23 39 45.5 78.3 68.5 117.9 22.7-39.7 44.8-78.9 67.3-117.9H494.6zm33.4 19h69.3c-11.8 21-21.95 39.94-34.05 61.24-12.2-21.2-23.35-40.24-35.25-61.24zm0 0"/>
    </mask>
    <mask id="aae">
      <path fill="#fff" d="M672.4 47.8h-26.2c-17.6 31-35 61.9-52.7 93.2h26.2c17.3-30.7 34.8-61.6 52.7-93.2zm0 0"/>
    </mask>
    <mask id="aad">
      <path fill="#fff" d="M687.1 21.6h-26.2c-1.9 3.7-4.7 9-6.8 13H680c1.8-3.3 4.7-8.7 7.1-13zm0 0"/>
    </mask>
    <mask id="aaf">
      <path fill="#fff"
            d="M532.1 140.95c-22.9-40-45.3-79.2-67.5-118.1h-26.2c22.7 39.8 45.1 79 67.5 118.1h26.2zm0 0"/>
    </mask>
    <mask id="aah">
      <path fill="#fff"
            d="M409 1s-40.52 71-68.6 120.08l-.91 1.6L350 141h7c15.18-26.48 43.01-74.71 50.57-87.82L423 26 409 1zm0 0"/>
    </mask>
    <mask id="aag">
      <path fill="#fff"
            d="M383.1 140.85c36.1.1 71 .1 107.2.1-27.2-46.8-53.8-92.7-80.9-139.4-23.51 41.02-69.73 122.37-69.73 122.37L350 141l5.8-.05c17.7-30.8 35.4-61.6 53.7-93.5 14.2 24.6 27.6 47.6 41.5 71.6h-54.9c-4.3 7.2-8.5 14.2-13 21.8zm0 0"/>
    </mask>
    <mask id="aaj">
      <path fill="#fff"
            d="M316.81 89.8s25.89-44.95 39.29-68.05h-25.9c-9 15.1-26.37 45.57-26.37 45.57l-13 22.46s-28.63 50.47-43.13 76.07h25.5c10-17.2 30.63-53.6 30.63-53.6l12.98-22.45zm0 0"/>
    </mask>
    <mask id="aal">
      <path fill="#fff"
            d="M222.92 105.96c-.59 1.06-2.32 4.98-2.92 6.04l-12-18c.44-.8 2.7-4.06 3.13-4.83 3.63-6.6 6.82-12.43 10.24-18.57L176 71c.22.37-12-20-12-20l90.07-.4c-10.48 19.47-20.7 36.97-31.15 55.36zm0 0"/>
    </mask>
    <mask id="aak">
      <path fill="#fff"
            d="M255.17 92.6c-7 13-14.1 24.6-21.8 37.9-4.4-7.5-11.9-20.2-11.9-20.2L186 51l-21.03-.4c22.9 40 45.4 78.2 68.4 117.7 14.7-25.7 29.16-49.7 43.66-75.7h-21.86zm0 0"/>
    </mask>
    <mask id="aam">
      <path fill="#fff"
            d="M109.15 22.75c22.8 39.8 45.2 79.2 67.5 118.2h26.2c-22.8-39.8-45.2-79.2-67.5-118.2h-26.2zm0 0"/>
    </mask>
    <mask id="aan">
      <path fill="#fff"
            d="M68.48 118.42c-4.3 7.2-9.28 15.08-13.68 22.48h107c-27-46.6-53.6-92.4-80.7-139.2-26.9 46.9-53.3 92.9-80 139.5h27.2c17.6-30.7 34.85-60.37 53.15-92.27 14.2 24.5 26.68 45.56 40.58 69.46-19 0-35.55.03-53.55.03zm0 0"/>
    </mask>
  </defs>

  <g id="letters">
    <g>
      <g>
        <g mask="url(#aaa)" fill="">
          <path d="M704 21s-45.6 80.45-68.5 119.95l32.8-18.2C680.3 102.05 716 42 716 42l-12-21zm0 0"/>
          <path d="M773.4 141.05c-22.8-39.9-68.6-119.1-68.6-119.1l-1 39.9s30.6 53.3 45.5 79.2h24.1zm0 0"/>
        </g>
        <path d="M635 141l91.9-.05c-3.9-6.4-7.2-12-11-18.2l-46.71.24L646 123l-11 18zm0 0"
              mask="url(#aab)"/>
      </g>
      <g>
        <g mask="url(#aac)">
          <path
            d="M563.1 169.3c-3.56-6.13-7.11-13.26-10.65-19.37l10.75-19.39.05.1c12.1-21.3 22.25-40.24 34.05-61.24h-.2l10.53-19h23.77c-22.5 39-45.6 79.2-68.3 118.9zm0 0"/>
          <path d="M620 69H505c-3.73-6.38-7.25-12.64-11-19h138c-3.67 6.36-12 19-12 19zm0 0"/>
          <path
            d="M529.53 72.38c11.48 20.22 22.3 38.73 34.12 59.26l.11-.2 10.76 18.55c-3.66 6.43-7.33 12.86-11.02 19.31-23-39.6-45.5-78.9-68.5-117.9h22.36l12.17 20.98zm0 0"/>
        </g>
      </g>
      <g>
        <path d="M687.1 21.6h-26.2c-1.9 3.7-4.7 9-6.8 13H680c1.8-3.3 4.7-8.7 7.1-13zm0 0"
              mask="url(#aad)"/>
        <path d="M672.4 47.8h-26.2c-17.6 31-35 61.9-52.7 93.2h26.2c17.3-30.7 34.8-61.6 52.7-93.2zm0 0"
              mask="url(#aae)"/>
      </g>
      <g>
        <path
          d="M532.1 140.95c-22.9-40-45.3-79.2-67.5-118.1h-26.2c22.7 39.8 45.1 79 67.5 118.1h26.2zm0 0"
          mask="url(#aaf)"/>
      </g>
      <g>

        <g mask="url(#aag)">
          <path d="M490.8 140.9C463.8 94.3 409 1 409 1v46l40.05 68.96L464 141l26.8-.1zm0 0"/>
          <path d="M396 119c-4.3 7.2-8.8 14.5-13.2 21.9l108.2.1-39-22h-56zm0 0"/>
        </g>
        <path
          d="M409 1s-40.52 71-68.6 120.08l-.91 1.6L350 141h7c15.18-26.48 43.01-74.71 50.57-87.82L423 26 409 1zm0 0"
          mask="url(#aah)"/>
      </g>
    </g>
    <g>
      <g>
        <clipPath id="aai">
          <path fill="#fff"
                d="M316.81 89.8l-12.98-22.48S296.4 54.75 293 48.95h-25.8c8 14 23.63 40.83 23.63 40.83l13 22.47s11.87 19.8 16.97 28.7h18l7.2.05c-7.7-13.1-29.19-51.2-29.19-51.2zm0 0"/>
        </clipPath>
        <path
          d="M316.81 89.8l-12.98-22.48S296.4 54.75 293 48.95h-25.8c8 14 23.63 40.83 23.63 40.83l13 22.47s11.87 19.8 16.97 28.7h18l7.2.05c-7.7-13.1-29.19-51.2-29.19-51.2zm0 0"
          clip-path="url(#aai)"/>
        <path
          d="M316.81 89.8s25.89-44.95 39.29-68.05h-25.9c-9 15.1-26.37 45.57-26.37 45.57l-13 22.46s-28.63 50.47-43.13 76.07h25.5c10-17.2 30.63-53.6 30.63-53.6l12.98-22.45zm0 0"
          mask="url(#aaj)"/>
      </g>
      <g>
        <g mask="url(#aak)">
          <path d="M255.17 92.6c-7 13-25.17 42.4-25.17 42.4v39s33.5-55 48-81l-22.83-.4zm0 0"/>
          <path d="M233.37 130.5l-11.9-20.2L197 69l-34-20c22.9 40 70.37 119.3 70.37 119.3v-37.8zm0 0"/>
        </g>
        <g mask="url(#aal)">
          <path d="M219 114l36.83-63.83-23.15.13L208 94l11 20zm0 0"/>
          <path d="M221 71s-23.18-.31-23 0l-35-21h93l-35 21zm0 0"/>
        </g>
      </g>
      <g>
        <path
          d="M109.15 22.75c22.8 39.8 45.2 79.2 67.5 118.2h26.2c-22.8-39.8-45.2-79.2-67.5-118.2h-26.2zm0 0"
          mask="url(#aam)"/>
      </g>
      <g>
        <g mask="url(#aan)">
          <path
            d="M81.1 1.7s-53.3 92.9-80 139.5h27.2C42.9 115.73 69.86 69 78.62 53.83 80.42 50.71 95 25 95 25L81.1 1.7zm0 0"/>
          <path d="M161.8 140.9C134.8 94.3 81 1 81 1v47l54 93 26.8-.1zm0 0"/>
          <path d="M68 118c-4.3 7.2-8.8 15.5-13.2 22.9l108.2.1-39-23H68zm0 0"/>
        </g>
      </g>
    </g>
  </g>
  </g>
</svg>
