<?xml version="1.0" encoding="utf-8"?>
<!-- Generator: Adobe Illustrator 17.0.0, SVG Export Plug-In . SVG Version: 6.00 Build 0)  -->
<!DOCTYPE svg PUBLIC "-//W3C//DTD SVG 1.1//EN" "http://www.w3.org/Graphics/SVG/1.1/DTD/svg11.dtd">
<svg version="1.1" id="arrow_x5F_rev" xmlns="http://www.w3.org/2000/svg" xmlns:xlink="http://www.w3.org/1999/xlink" x="0px"
	 y="0px" width="374.9693px" height="120.2949px" viewBox="0 0 374.9693 120.2949" enable-background="new 0 0 374.9693 120.2949"
	 xml:space="preserve">
<defs>
	<filter id="Adobe_OpacityMaskFilter" filterUnits="userSpaceOnUse" x="0" y="0" width="374.9693" height="120.2949">
		<feColorMatrix  type="matrix" values="1 0 0 0 0  0 1 0 0 0  0 0 1 0 0  0 0 0 1 0"/>
	</filter>
</defs>
<mask maskUnits="userSpaceOnUse" x="0" y="0" width="374.9693" height="120.2949" id="SVGID_1_">
	<g filter="url(#Adobe_OpacityMaskFilter)">
		<g>
			<path fill="#F7F7F9" d="M99.3155,67.2805c0.0043,0.0026,0.0088,0.0053,0.0132,0.0079v-0.0079h182.8694l69.0205,0.0449
				l-30.6892-17.7112H99.3287V2.5865C67.0571,21.2124,35.3359,39.5631,2.9281,58.2585
				c32.479,18.5579,64.3362,36.7709,96.608,55.1896V94.6845C78.2762,82.5406,57.7263,70.6408,35.6344,58.0173
				c16.9679-9.7962,31.5525-18.4048,48.1044-27.9939c-0.0016,13.1061,0.0217,15.4112,0.0217,27.8274
				c4.9646,2.9546,10.3984,6.3749,15.5059,9.4004v0.0293H99.3155z"/>
		</g>
	</g>
</mask>
<polyline mask="url(#SVGID_1_)" fill="none" stroke="#AAFF00" stroke-width="19" stroke-miterlimit="10" points="112.9693,112.0558 
	19.0693,58.1558 91.6359,16.4225 91.6359,58.4225 374.9693,58.4225 "/>
</svg>
