<svg version="1.1" xmlns="http://www.w3.org/2000/svg" width="330.2783" height="272.2437" viewBox="0 0 330.2783 272.2437" enable-background="new 0 0 330.2783 272.2437">
 <defs>
  <filter id="Adobe_OpacityMaskFilter_1_" filterUnits="userSpaceOnUse" x="73.3214" y="118.0616" width="185.4738" height="119.6823">
   <feColorMatrix type="matrix" values="1 0 0 0 0  0 1 0 0 0  0 0 1 0 0  0 0 0 1 0"/>
  </filter>
  <filter id="Adobe_OpacityMaskFilter_2_" filterUnits="userSpaceOnUse" x="73.7214" y="162.6213" width="68.6762" height="68.6763">
   <feColorMatrix type="matrix" values="1 0 0 0 0  0 1 0 0 0  0 0 1 0 0  0 0 0 1 0"/>
  </filter>
  <filter id="Adobe_OpacityMaskFilter_3_" filterUnits="userSpaceOnUse" x="204.2383" y="118.4616" width="54.1569" height="54.1569">
   <feColorMatrix type="matrix" values="1 0 0 0 0  0 1 0 0 0  0 0 1 0 0  0 0 0 1 0"/>
  </filter>
  <filter id="Adobe_OpacityMaskFilter" filterUnits="userSpaceOnUse" x="0" y="0" width="330.2783" height="272.2437">
   <feColorMatrix type="matrix" values="1 0 0 0 0  0 1 0 0 0  0 0 1 0 0  0 0 0 1 0"/>
  </filter>
  <linearGradient id="SVGID_4_" gradientUnits="userSpaceOnUse" x1="86.7591" y1="223.2606" x2="130.2591" y2="168.7606">
   <stop offset="0.2049" stop-color="#fff"/>
   <stop offset="1"/>
  </linearGradient>
  <linearGradient id="SVGID_6_" gradientUnits="userSpaceOnUse" x1="246.6766" y1="156.5146" x2="207.6766" y2="126.2646">
   <stop offset="0.2049" stop-color="#fff"/>
   <stop offset="1"/>
  </linearGradient>
  <linearGradient id="SVGID_2_" gradientUnits="userSpaceOnUse" y1="35.4469" x2="0" y2="164.4749">
   <stop stop-color="#fff"/>
   <stop offset="1"/>
  </linearGradient>
  <mask maskUnits="userSpaceOnUse" x="0" y="0" width="330.2783" height="272.2437" id="SVGID_1_">
   <g filter="url(#Adobe_OpacityMaskFilter)">
    <circle fill="url(#SVGID_2_)" cx="148.8347" cy="127.7896" r="98.934"/>
   </g>
  </mask>
  <mask maskUnits="userSpaceOnUse" x="73.3214" y="118.0616" width="185.4738" height="119.6823" id="SVGID_3_">
   <g filter="url(#Adobe_OpacityMaskFilter_1_)">
    <circle id="center_7_" fill="url(#center_1_)" stroke="#000" stroke-miterlimit="10" cx="148.9001" cy="127.6454" r="101.9949"/>
   </g>
  </mask>
  <mask maskUnits="userSpaceOnUse" x="204.2383" y="118.4616" width="54.1569" height="54.1569" id="SVGID_5_">
   <g filter="url(#Adobe_OpacityMaskFilter_3_)">
    <path fill="url(#SVGID_6_)" stroke="#000" stroke-miterlimit="10" d="m 191.682 111.047 l 83 0 l 0 70 l -83 0 z"/>
   </g>
  </mask>
  <mask maskUnits="userSpaceOnUse" x="73.7214" y="162.6213" width="68.6762" height="68.6763" id="SVGID_3_">
   <g filter="url(#Adobe_OpacityMaskFilter_2_)">
    <path fill="url(#SVGID_4_)" d="M 68.1816,158.547 H147.182 V235.547 H68.1816 z"/>
   </g>
  </mask>
  <radialGradient id="center_1_" cx="148.6816" cy="127.0474" r="101.9657" gradientUnits="userSpaceOnUse">
   <stop stop-color="#fff"/>
   <stop offset="0.8524" stop-color="#fff"/>
   <stop offset="0.8529" stop-color="#fefefe"/>
   <stop offset="0.894" stop-color="#b4b2b3"/>
   <stop offset="0.9307" stop-color="#797777"/>
   <stop offset="0.9617" stop-color="#4f4b4c"/>
   <stop offset="0.9858" stop-color="#353132"/>
   <stop offset="1" stop-color="#2b2728"/>
  </radialGradient>
 </defs>
 <g mask="url(#SVGID_1_)">
  <text transform="matrix(1 0 0 1 0.0002 10.0437)"><tspan x="0" y="0" fill="#1b1f77" font-family="&apos;MyriadPro-Regular&apos;" font-size="12">0101101010101110111010101001010101010110010</tspan><tspan x="0" y="14.3999" fill="#1b1f77" font-family="&apos;MyriadPro-Regular&apos;" font-size="12">10101001001010101001010101011101011101010101</tspan><tspan x="0" y="28.7998" fill="#1b1f77" font-family="&apos;MyriadPro-Regular&apos;" font-size="12">101010101010001001010101001010100101000111010110101</tspan><tspan x="0" y="43.2002" fill="#1b1f77" font-family="&apos;MyriadPro-Regular&apos;" font-size="12">10101010100100101 00110101010 10 010010100101010</tspan><tspan x="0" y="57.6001" fill="#1b1f77" font-family="&apos;MyriadPro-Regular&apos;" font-size="12">010010101010010 1010101110101101010010010101010010101</tspan><tspan x="0" y="72" fill="#1b1f77" font-family="&apos;MyriadPro-Regular&apos;" font-size="12">010100100101010100 101010 011101011 0101001001010101001</tspan><tspan x="0" y="86.3999" fill="#1b1f77" font-family="&apos;MyriadPro-Regular&apos;" font-size="12">101010101001001010 01101 0101010010 010100101010</tspan><tspan x="0" y="100.7998" fill="#1b1f77" font-family="&apos;MyriadPro-Regular&apos;" font-size="12">01001010101 001010 10101 11010110101 0010010101010010101</tspan><tspan x="0" y="115.2002" fill="#1b1f77" font-family="&apos;MyriadPro-Regular&apos;" font-size="12">01010010010101010010101010111010110101001001010101001</tspan><tspan x="0" y="129.6001" fill="#1b1f77" font-family="&apos;MyriadPro-Regular&apos;" font-size="12">101010101001 001010011010101010010010100101010</tspan><tspan x="0" y="144" fill="#1b1f77" font-family="&apos;MyriadPro-Regular&apos;" font-size="12">010010101010010101010111 0101101010010010101010010101</tspan><tspan x="0" y="158.3999" fill="#1b1f77" font-family="&apos;MyriadPro-Regular&apos;" font-size="12">01010010010101010010101010111010110101001001010101001</tspan><tspan x="0" y="172.7998" fill="#1b1f77" font-family="&apos;MyriadPro-Regular&apos;" font-size="12">101010101001001010011010101010010010100101010</tspan><tspan x="0" y="187.2002" fill="#1b1f77" font-family="&apos;MyriadPro-Regular&apos;" font-size="12">0100101010100101010101110101101010010010101010010101</tspan><tspan x="0" y="201.6001" fill="#1b1f77" font-family="&apos;MyriadPro-Regular&apos;" font-size="12">01010010010101010010101010111010110101001001010101001</tspan><tspan x="0" y="216" fill="#1b1f77" font-family="&apos;MyriadPro-Regular&apos;" font-size="12">101010101001001010011010101010010010100101010</tspan><tspan x="0" y="230.3999" fill="#1b1f77" font-family="&apos;MyriadPro-Regular&apos;" font-size="12">0100101010100101010101110101101010010010101010010101</tspan><tspan x="0" y="244.7998" fill="#1b1f77" font-family="&apos;MyriadPro-Regular&apos;" font-size="12">01010010010101010010101010111010110101001001010101001</tspan><tspan x="0" y="259.1997" fill="#1b1f77" font-family="&apos;MyriadPro-Regular&apos;" font-size="12">010101011101011</tspan>
  </text>
 </g>
 <g mask="url(#SVGID_3_)">
  <g opacity="0.7">
   <g opacity="0.3">
    <path opacity="0.8" fill="#93f" d="M215.4595,194.1349c-0.0069-0.3152-0.0222-0.6291-0.0384-0.9429
				c-0.0109-0.2153-0.0201-0.4303-0.0354-0.6456c-0.0204-0.2837-0.0482-0.5658-0.0761-0.8481
				c-0.0242-0.2473-0.0475-0.4945-0.0775-0.7416c-0.0303-0.2477-0.0672-0.4939-0.1032-0.7404
				c-0.0407-0.2801-0.0814-0.5601-0.1296-0.8397c-0.037-0.213-0.0797-0.4243-0.1209-0.6363
				c-0.0597-0.3084-0.1201-0.6165-0.1892-0.9239c-0.0417-0.1853-0.0889-0.3689-0.1339-0.5533
				c-0.0795-0.3266-0.16-0.6528-0.2501-0.9781c-0.0099-0.0357-0.0175-0.072-0.0275-0.1077l9.0785-6.5454
				c-0.7468-1.9441-1.6436-3.8581-2.6982-5.726c-1.0586-1.8748-2.2389-3.6374-3.5234-5.2863l-10.5453,4.0529
				c-0.2063-0.2166-0.4191-0.4247-0.6307-0.6346c-0.1345-0.1335-0.2672-0.2686-0.4041-0.3999
				c-0.2278-0.2181-0.4607-0.4292-0.6941-0.6397c-0.1599-0.1446-0.3186-0.2901-0.4817-0.4316
				c-0.2148-0.186-0.4337-0.3656-0.6528-0.5454c-0.1922-0.158-0.3837-0.3164-0.58-0.4702c-0.1964-0.1536-0.3963-0.3014-0.5958-0.45
				c-0.2271-0.1695-0.454-0.3388-0.6861-0.5026c-0.1767-0.1245-0.3565-0.2438-0.5355-0.3645
				c-0.2601-0.1757-0.5205-0.3508-0.7866-0.5192c-0.1606-0.1016-0.3238-0.1981-0.4861-0.2968
				c-0.2873-0.1748-0.5752-0.3487-0.8691-0.515c-0.0321-0.0181-0.063-0.0384-0.0951-0.0564l1.7736-10.9396
				c-3.8815-1.7253-8.0033-2.8651-12.22-3.3804l-4.5394,10.2072c-0.2986-0.0072-0.5958-0.0039-0.8934-0.0027
				c-0.1902,0.0006-0.3802-0.001-0.5706,0.003c-0.3145,0.0068-0.6275,0.0222-0.9406,0.0383
				c-0.216,0.0109-0.4319,0.0202-0.648,0.0356c-0.2829,0.0203-0.5643,0.048-0.8458,0.0758c-0.248,0.0242-0.496,0.0477-0.744,0.0778
				c-0.2469,0.0302-0.4922,0.0669-0.7378,0.1028c-0.2811,0.0408-0.5619,0.0816-0.8425,0.1301
				c-0.2119,0.0368-0.4222,0.0793-0.633,0.1203c-0.3094,0.0599-0.6187,0.1205-0.9272,0.1898
				c-0.1842,0.0415-0.3667,0.0883-0.55,0.133c-0.3276,0.0797-0.6549,0.1605-0.9811,0.251c-0.0439,0.0121-0.125-0.0427-0.1688-0.0304
				l-6.3588-8.8328c-1.9494,0.748-3.8683,1.6468-5.741,2.7042c-1.8814,1.0623-3.6501,2.2471-5.3039,3.5368l3.9502,10.2495
				c-0.2257,0.2145-0.425,0.4678-0.6435,0.6881c-0.133,0.1339-0.2582,0.2821-0.3889,0.4184c-0.2187,0.2284-0.4258,0.47-0.6369,0.704
				c-0.144,0.1594-0.2867,0.3215-0.4277,0.4839c-0.1864,0.2153-0.3653,0.4367-0.5454,0.6563
				c-0.1576,0.1918-0.3152,0.3839-0.4686,0.5797c-0.1538,0.1967-0.3017,0.3975-0.4506,0.5974
				c-0.1692,0.2267-0.3382,0.4536-0.5017,0.6853c-0.1248,0.1771-0.2442,0.3573-0.3651,0.5366
				c-0.1755,0.2598-0.3503,0.5199-0.5186,0.7857c-0.1018,0.1609-0.1985,0.3245-0.2973,0.4871
				c-0.1747,0.287-0.3484,0.5746-0.5145,0.8681c-0.0225,0.0397-0.0471,0.0784-0.0694,0.1182l-10.7529-1.7434
				c-1.737,3.87-2.8928,7.9808-3.4244,12.1888l10.0789,4.4825c-0.0079,0.3105-0.0055,0.6197-0.0043,0.9292
				c0.0006,0.1898-0.001,0.3794,0.003,0.5695c0.0068,0.3148,0.0222,0.6283,0.0383,0.9417c0.0109,0.2157,0.0202,0.4312,0.0355,0.6468
				c0.0203,0.2834,0.0481,0.5651,0.076,0.8471c0.0242,0.2477,0.0475,0.4951,0.0776,0.7426c0.0303,0.2474,0.0671,0.4933,0.103,0.7395
				c0.0408,0.2804,0.0815,0.5607,0.1298,0.8406c0.0369,0.2127,0.0795,0.4238,0.1207,0.6354
				c0.0597,0.3086,0.1202,0.617,0.1893,0.9248c0.0417,0.1851,0.0888,0.3684,0.1337,0.5526
				c0.0796,0.3268,0.1602,0.6533,0.2504,0.9788c0.0122,0.0441,0.0221,0.0888,0.0345,0.1328l-8.8647,6.3912
				c0.7627,2.0175,1.6877,4.0029,2.781,5.9391c1.0199,1.8063,2.1538,3.5073,3.3839,5.104l10.3574-3.9807
				c0.214,0.2251,0.4344,0.4421,0.6541,0.6601c0.1347,0.1337,0.2675,0.2689,0.4046,0.4004
				c0.2276,0.2179,0.4602,0.4288,0.6934,0.6392c0.1602,0.1447,0.3191,0.2905,0.4824,0.4322
				c0.2146,0.1858,0.4333,0.3652,0.6521,0.5447c0.1925,0.1582,0.3842,0.3169,0.5807,0.4708c0.1961,0.1533,0.3958,0.301,0.595,0.4494
				c0.2274,0.1697,0.4545,0.3393,0.6869,0.5033c0.1765,0.1243,0.3559,0.2433,0.5346,0.3638
				c0.2604,0.176,0.5212,0.3512,0.7876,0.5199c0.1602,0.1014,0.3231,0.1976,0.4849,0.296c0.2877,0.1751,0.576,0.3492,0.8702,0.5157
				c0.0396,0.0224,0.078,0.0469,0.1177,0.0691l-1.7651,10.8871c3.8515,1.7444,7.9438,2.9125,12.1348,3.4606l4.5582-10.2493
				c0.3108,0.0079,0.6204,0.0055,0.9302,0.0043c0.1894-0.0006,0.3786,0.001,0.5681-0.003c0.3153-0.0069,0.6291-0.0222,0.943-0.0384
				c0.2152-0.0109,0.4303-0.0202,0.6456-0.0355c0.2837-0.0203,0.5658-0.0482,0.8482-0.076
				c0.2473-0.0242,0.4944-0.0475,0.7415-0.0775c0.2477-0.0303,0.4938-0.0671,0.7403-0.1032
				c0.2802-0.0407,0.5603-0.0814,0.8402-0.1297c0.2128-0.0369,0.4238-0.0795,0.6354-0.1207
				c0.3086-0.0598,0.617-0.1202,0.9247-0.1893c0.1852-0.0417,0.3686-0.0888,0.5527-0.1337
				c0.3267-0.0795,0.6531-0.1601,0.9785-0.2503c0.0356-0.0099,0.0355-0.0823,0.0711-0.0923l6.5782,9.1106
				c2.0122-0.7616,3.9923-1.6849,5.9236-2.7754c1.7995-1.0161,3.4946-2.1455,5.0861-3.3702l-4.0833-10.6534
				c0.2165-0.2063,0.4429-0.3867,0.6528-0.5982c0.1336-0.1345,0.2778-0.251,0.4091-0.3881
				c0.2181-0.2278,0.4337-0.4525,0.6443-0.6859c0.1446-0.16,0.2924-0.3146,0.4339-0.4777c0.1859-0.2146,0.3666-0.4314,0.5462-0.6504
				c0.1582-0.1924,0.3173-0.3831,0.4713-0.5796c0.1533-0.1961,0.3013-0.3952,0.4497-0.5944
				c0.1697-0.2274,0.3394-0.4543,0.5033-0.6867c0.1243-0.1765,0.2435-0.3557,0.3639-0.5344
				c0.1759-0.2604,0.3513-0.5211,0.5199-0.7876c0.1014-0.1602,0.1976-0.323,0.296-0.4849c0.1751-0.2877,0.3493-0.576,0.5157-0.8702
				c0.0181-0.032,0.0382-0.0628,0.0562-0.0948l11.0738,1.7954c1.7327-3.8629,2.8865-7.9655,3.4185-12.1651l-10.3794-4.616
				c0.0072-0.2992,0.0039-0.597,0.0027-0.8952C215.4618,194.5136,215.4635,194.3244,215.4595,194.1349z M195.4175,215.9872
				c-11.6544,6.5805-26.4367,2.4672-33.0172-9.1872c-6.5805-11.6544-2.4673-26.4367,9.1871-33.0172
				c11.6544-6.5805,26.4367-2.4672,33.0172,9.1872C211.1851,194.6244,207.0719,209.4067,195.4175,215.9872z"/>
   </g>
   <g opacity="0.7">
    <path fill="none" stroke="#93f" stroke-miterlimit="10" d="M215.4595,194.1349c-0.0069-0.3152-0.0222-0.6291-0.0384-0.9429
				c-0.0109-0.2153-0.0201-0.4303-0.0354-0.6456c-0.0204-0.2837-0.0482-0.5658-0.0761-0.8481
				c-0.0242-0.2473-0.0475-0.4945-0.0775-0.7416c-0.0303-0.2477-0.0672-0.4939-0.1032-0.7404
				c-0.0407-0.2801-0.0814-0.5601-0.1296-0.8397c-0.037-0.213-0.0797-0.4243-0.1209-0.6363
				c-0.0597-0.3084-0.1201-0.6165-0.1892-0.9239c-0.0417-0.1853-0.0889-0.3689-0.1339-0.5533
				c-0.0795-0.3266-0.16-0.6528-0.2501-0.9781c-0.0099-0.0357-0.0175-0.072-0.0275-0.1077l9.0785-6.5454
				c-0.7468-1.9441-1.6436-3.8581-2.6982-5.726c-1.0586-1.8748-2.2389-3.6374-3.5234-5.2863l-10.5453,4.0529
				c-0.2063-0.2166-0.4191-0.4247-0.6307-0.6346c-0.1345-0.1335-0.2672-0.2686-0.4041-0.3999
				c-0.2278-0.2181-0.4607-0.4292-0.6941-0.6397c-0.1599-0.1446-0.3186-0.2901-0.4817-0.4316
				c-0.2148-0.186-0.4337-0.3656-0.6528-0.5454c-0.1922-0.158-0.3837-0.3164-0.58-0.4702c-0.1964-0.1536-0.3963-0.3014-0.5958-0.45
				c-0.2271-0.1695-0.454-0.3388-0.6861-0.5026c-0.1767-0.1245-0.3565-0.2438-0.5355-0.3645
				c-0.2601-0.1757-0.5205-0.3508-0.7866-0.5192c-0.1606-0.1016-0.3238-0.1981-0.4861-0.2968
				c-0.2873-0.1748-0.5752-0.3487-0.8691-0.515c-0.0321-0.0181-0.063-0.0384-0.0951-0.0564l1.7736-10.9396
				c-3.8815-1.7253-8.0033-2.8651-12.22-3.3804l-4.5394,10.2072c-0.2986-0.0072-0.5958-0.0039-0.8934-0.0027
				c-0.1902,0.0006-0.3802-0.001-0.5706,0.003c-0.3145,0.0068-0.6275,0.0222-0.9406,0.0383
				c-0.216,0.0109-0.4319,0.0202-0.648,0.0356c-0.2829,0.0203-0.5643,0.048-0.8458,0.0758c-0.248,0.0242-0.496,0.0477-0.744,0.0778
				c-0.2469,0.0302-0.4922,0.0669-0.7378,0.1028c-0.2811,0.0408-0.5619,0.0816-0.8425,0.1301
				c-0.2119,0.0368-0.4222,0.0793-0.633,0.1203c-0.3094,0.0599-0.6187,0.1205-0.9272,0.1898
				c-0.1842,0.0415-0.3667,0.0883-0.55,0.133c-0.3276,0.0797-0.6549,0.1605-0.9811,0.251c-0.0439,0.0121-0.125-0.0427-0.1688-0.0304
				l-6.3588-8.8328c-1.9494,0.748-3.8683,1.6468-5.741,2.7042c-1.8814,1.0623-3.6501,2.2471-5.3039,3.5368l3.9502,10.2495
				c-0.2257,0.2145-0.425,0.4678-0.6435,0.6881c-0.133,0.1339-0.2582,0.2821-0.3889,0.4184c-0.2187,0.2284-0.4258,0.47-0.6369,0.704
				c-0.144,0.1594-0.2867,0.3215-0.4277,0.4839c-0.1864,0.2153-0.3653,0.4367-0.5454,0.6563
				c-0.1576,0.1918-0.3152,0.3839-0.4686,0.5797c-0.1538,0.1967-0.3017,0.3975-0.4506,0.5974
				c-0.1692,0.2267-0.3382,0.4536-0.5017,0.6853c-0.1248,0.1771-0.2442,0.3573-0.3651,0.5366
				c-0.1755,0.2598-0.3503,0.5199-0.5186,0.7857c-0.1018,0.1609-0.1985,0.3245-0.2973,0.4871
				c-0.1747,0.287-0.3484,0.5746-0.5145,0.8681c-0.0225,0.0397-0.0471,0.0784-0.0694,0.1182l-10.7529-1.7434
				c-1.737,3.87-2.8928,7.9808-3.4244,12.1888l10.0789,4.4825c-0.0079,0.3105-0.0055,0.6197-0.0043,0.9292
				c0.0006,0.1898-0.001,0.3794,0.003,0.5695c0.0068,0.3148,0.0222,0.6283,0.0383,0.9417c0.0109,0.2157,0.0202,0.4312,0.0355,0.6468
				c0.0203,0.2834,0.0481,0.5651,0.076,0.8471c0.0242,0.2477,0.0475,0.4951,0.0776,0.7426c0.0303,0.2474,0.0671,0.4933,0.103,0.7395
				c0.0408,0.2804,0.0815,0.5607,0.1298,0.8406c0.0369,0.2127,0.0795,0.4238,0.1207,0.6354
				c0.0597,0.3086,0.1202,0.617,0.1893,0.9248c0.0417,0.1851,0.0888,0.3684,0.1337,0.5526
				c0.0796,0.3268,0.1602,0.6533,0.2504,0.9788c0.0122,0.0441,0.0221,0.0888,0.0345,0.1328l-8.8647,6.3912
				c0.7627,2.0175,1.6877,4.0029,2.781,5.9391c1.0199,1.8063,2.1538,3.5073,3.3839,5.104l10.3574-3.9807
				c0.214,0.2251,0.4344,0.4421,0.6541,0.6601c0.1347,0.1337,0.2675,0.2689,0.4046,0.4004
				c0.2276,0.2179,0.4602,0.4288,0.6934,0.6392c0.1602,0.1447,0.3191,0.2905,0.4824,0.4322
				c0.2146,0.1858,0.4333,0.3652,0.6521,0.5447c0.1925,0.1582,0.3842,0.3169,0.5807,0.4708c0.1961,0.1533,0.3958,0.301,0.595,0.4494
				c0.2274,0.1697,0.4545,0.3393,0.6869,0.5033c0.1765,0.1243,0.3559,0.2433,0.5346,0.3638
				c0.2604,0.176,0.5212,0.3512,0.7876,0.5199c0.1602,0.1014,0.3231,0.1976,0.4849,0.296c0.2877,0.1751,0.576,0.3492,0.8702,0.5157
				c0.0396,0.0224,0.078,0.0469,0.1177,0.0691l-1.7651,10.8871c3.8515,1.7444,7.9438,2.9125,12.1348,3.4606l4.5582-10.2493
				c0.3108,0.0079,0.6204,0.0055,0.9302,0.0043c0.1894-0.0006,0.3786,0.001,0.5681-0.003c0.3153-0.0069,0.6291-0.0222,0.943-0.0384
				c0.2152-0.0109,0.4303-0.0202,0.6456-0.0355c0.2837-0.0203,0.5658-0.0482,0.8482-0.076
				c0.2473-0.0242,0.4944-0.0475,0.7415-0.0775c0.2477-0.0303,0.4938-0.0671,0.7403-0.1032
				c0.2802-0.0407,0.5603-0.0814,0.8402-0.1297c0.2128-0.0369,0.4238-0.0795,0.6354-0.1207
				c0.3086-0.0598,0.617-0.1202,0.9247-0.1893c0.1852-0.0417,0.3686-0.0888,0.5527-0.1337
				c0.3267-0.0795,0.6531-0.1601,0.9785-0.2503c0.0356-0.0099,0.0355-0.0823,0.0711-0.0923l6.5782,9.1106
				c2.0122-0.7616,3.9923-1.6849,5.9236-2.7754c1.7995-1.0161,3.4946-2.1455,5.0861-3.3702l-4.0833-10.6534
				c0.2165-0.2063,0.4429-0.3867,0.6528-0.5982c0.1336-0.1345,0.2778-0.251,0.4091-0.3881
				c0.2181-0.2278,0.4337-0.4525,0.6443-0.6859c0.1446-0.16,0.2924-0.3146,0.4339-0.4777c0.1859-0.2146,0.3666-0.4314,0.5462-0.6504
				c0.1582-0.1924,0.3173-0.3831,0.4713-0.5796c0.1533-0.1961,0.3013-0.3952,0.4497-0.5944
				c0.1697-0.2274,0.3394-0.4543,0.5033-0.6867c0.1243-0.1765,0.2435-0.3557,0.3639-0.5344
				c0.1759-0.2604,0.3513-0.5211,0.5199-0.7876c0.1014-0.1602,0.1976-0.323,0.296-0.4849c0.1751-0.2877,0.3493-0.576,0.5157-0.8702
				c0.0181-0.032,0.0382-0.0628,0.0562-0.0948l11.0738,1.7954c1.7327-3.8629,2.8865-7.9655,3.4185-12.1651l-10.3794-4.616
				c0.0072-0.2992,0.0039-0.597,0.0027-0.8952C215.4618,194.5136,215.4635,194.3244,215.4595,194.1349z M195.4175,215.9872
				c-11.6544,6.5805-26.4367,2.4672-33.0172-9.1872c-6.5805-11.6544-2.4673-26.4367,9.1871-33.0172
				c11.6544-6.5805,26.4367-2.4672,33.0172,9.1872C211.1851,194.6244,207.0719,209.4067,195.4175,215.9872z"/>
   </g>
  </g>
  <g>
   <g opacity="0.3">
    <path fill="#93f" d="M128.8404,212.119c0.1499-0.2047,0.2936-0.4127,0.4369-0.6211c0.0984-0.1428,0.1977-0.2848,0.2933-0.4298
				c0.1258-0.1912,0.2461-0.3851,0.3664-0.579c0.1055-0.1698,0.2116-0.3391,0.3134-0.5117
				c0.1019-0.1731,0.1988-0.3484,0.2964-0.5235c0.1111-0.1989,0.2221-0.3976,0.3281-0.5999
				c0.0806-0.1542,0.1567-0.3101,0.2341-0.4656c0.1128-0.2262,0.2249-0.4526,0.3313-0.6828
				c0.064-0.1388,0.1237-0.2792,0.1853-0.4189c0.109-0.2475,0.2172-0.4954,0.3188-0.7472c0.0111-0.0276,0.024-0.0546,0.0351-0.0823
				l9.0024,0.2613c0.4743-1.6074,0.838-3.2688,1.0783-4.9782c0.2412-1.7157,0.3497-3.4192,0.3361-5.1011l-8.7197-2.5713
				c-0.0258-0.2393-0.0599-0.4764-0.0923-0.714c-0.0206-0.1511-0.0392-0.3023-0.0625-0.4532
				c-0.0388-0.2508-0.0843-0.4996-0.1304-0.7483c-0.0314-0.1706-0.0616-0.3412-0.0965-0.5114
				c-0.0462-0.2239-0.0982-0.4458-0.1501-0.6678c-0.0455-0.195-0.0903-0.3899-0.1404-0.5842
				c-0.0503-0.1942-0.1057-0.3864-0.1604-0.5791c-0.0621-0.2194-0.1242-0.4386-0.1924-0.6568
				c-0.052-0.166-0.1084-0.3302-0.1637-0.4949c-0.0802-0.2395-0.1608-0.4788-0.2484-0.7166
				c-0.0529-0.1435-0.1099-0.285-0.1653-0.4274c-0.098-0.2523-0.1968-0.5042-0.3032-0.7542
				c-0.0116-0.0273-0.0215-0.0553-0.0332-0.0826l6.4863-6.1204c-1.6353-3.0016-3.7105-5.7466-6.152-8.1393l-7.8947,4.299
				c-0.1872-0.1507-0.3787-0.294-0.5694-0.4389c-0.1218-0.0927-0.2424-0.1867-0.366-0.2773
				c-0.2042-0.1495-0.4117-0.2929-0.6196-0.4358c-0.1434-0.0987-0.2858-0.1984-0.4314-0.2944
				c-0.1907-0.1255-0.3839-0.2454-0.5774-0.3655c-0.1703-0.1059-0.3402-0.2123-0.5133-0.3144
				c-0.1725-0.1015-0.3472-0.1981-0.5216-0.2954c-0.1995-0.1115-0.3989-0.2228-0.6019-0.3292
				c-0.1534-0.0802-0.3085-0.1559-0.4632-0.2329c-0.227-0.1132-0.4542-0.2257-0.6852-0.3325
				c-0.138-0.0636-0.2775-0.123-0.4165-0.1842c-0.2483-0.1094-0.4969-0.2179-0.7496-0.3198c-0.034-0.0137-0.0589-0.0885-0.093-0.102
				l0.2603-8.7542c-1.6113-0.4761-3.277-0.841-4.9907-1.0819c-1.7217-0.2421-3.4313-0.3507-5.1189-0.3361l-2.4922,8.4805
				c-0.2492,0.0266-0.5004,0.0909-0.7478,0.1246c-0.1505,0.0204-0.303,0.0539-0.4532,0.077
				c-0.2515,0.0389-0.502,0.0919-0.7514,0.1381c-0.17,0.0313-0.3404,0.0651-0.51,0.0999c-0.2244,0.0463-0.4471,0.1002-0.6696,0.1523
				c-0.1945,0.0454-0.3892,0.091-0.583,0.141c-0.1945,0.0504-0.3872,0.1063-0.5802,0.1611c-0.219,0.062-0.438,0.1243-0.6558,0.1923
				c-0.1664,0.0521-0.3308,0.1088-0.4959,0.1641c-0.2392,0.0801-0.4782,0.1607-0.7157,0.2481
				c-0.1438,0.053-0.2856,0.1102-0.4283,0.1657c-0.252,0.0979-0.5037,0.1966-0.7535,0.3028
				c-0.0338,0.0144-0.0684,0.027-0.1022,0.0415l-6.0159-6.3756c-3.0034,1.6222-5.7534,3.6826-8.1521,6.1106l4.245,7.7956
				c-0.157,0.1945-0.3068,0.3932-0.4575,0.5915c-0.0925,0.1216-0.1863,0.2419-0.2767,0.3653
				c-0.1497,0.2045-0.2932,0.4122-0.4363,0.6203c-0.0986,0.1431-0.1981,0.2853-0.2938,0.4306
				c-0.1257,0.1909-0.2458,0.3846-0.366,0.5783c-0.1057,0.1701-0.2119,0.3396-0.3138,0.5124
				c-0.1017,0.1729-0.1985,0.3479-0.296,0.5228c-0.1112,0.1991-0.2223,0.398-0.3284,0.6005
				c-0.0805,0.154-0.1566,0.3096-0.2338,0.465c-0.1129,0.2264-0.2252,0.453-0.3316,0.6834
				c-0.0639,0.1386-0.1236,0.2788-0.185,0.4184c-0.1091,0.2477-0.2174,0.4957-0.319,0.7478
				c-0.0138,0.0341-0.0293,0.0676-0.0429,0.1017l-8.7904-0.2551c-0.5,1.662-0.8807,3.383-1.1298,5.1548
				c-0.2324,1.6529-0.3404,3.2945-0.336,4.9164l8.5644,2.5255c0.0266,0.2486,0.0611,0.4949,0.0948,0.7417
				c0.0206,0.1513,0.0393,0.3027,0.0626,0.4538c0.0387,0.2506,0.0841,0.4991,0.1302,0.7477
				c0.0315,0.1709,0.0617,0.3417,0.0966,0.5121c0.0462,0.2237,0.0981,0.4453,0.15,0.6671c0.0455,0.1952,0.0904,0.3905,0.1406,0.5849
				c0.0502,0.1939,0.1055,0.3859,0.1602,0.5782c0.0622,0.2197,0.1244,0.4391,0.1926,0.6576
				c0.0519,0.1658,0.1083,0.3296,0.1634,0.494c0.0803,0.2398,0.1611,0.4794,0.2487,0.7175
				c0.0527,0.1431,0.1097,0.2843,0.1649,0.4264c0.0981,0.2526,0.197,0.5049,0.3035,0.7553
				c0.0143,0.0336,0.0269,0.0681,0.0414,0.1017l-6.4551,6.091c1.6068,2.9991,3.6493,5.7478,6.0584,8.1488l7.9273-4.3168
				c0.1947,0.1572,0.3936,0.3071,0.5921,0.4579c0.1213,0.0923,0.2413,0.1859,0.3644,0.2761
				c0.2047,0.1499,0.4127,0.2936,0.6212,0.4369c0.1428,0.0984,0.2847,0.1977,0.4298,0.2933c0.1912,0.1258,0.385,0.2461,0.579,0.3665
				c0.1698,0.1055,0.3391,0.2116,0.5116,0.3134c0.1731,0.1019,0.3483,0.1988,0.5234,0.2963
				c0.199,0.1111,0.3978,0.2222,0.6002,0.3283c0.154,0.0805,0.3096,0.1566,0.465,0.2338c0.2264,0.1128,0.4529,0.2251,0.6834,0.3316
				c0.1387,0.064,0.2789,0.1236,0.4185,0.1851c0.2476,0.1091,0.4955,0.2173,0.7475,0.3189c0.0276,0.0111,0.063-0.0352,0.0906-0.0241
				l-0.256,9.039c1.6581,0.4982,3.3748,0.8773,5.1421,1.1258c1.6468,0.2315,3.2823,0.3395,4.8983,0.336l2.6048-8.8036
				c0.2393-0.0258,0.4722-0.0303,0.7097-0.0627c0.1512-0.0205,0.3003-0.0244,0.4513-0.0477
				c0.2508-0.0388,0.4985-0.0768,0.7472-0.1229c0.1706-0.0314,0.3407-0.0579,0.5109-0.0929
				c0.2238-0.0461,0.4453-0.0962,0.6672-0.1482c0.1952-0.0455,0.3902-0.0894,0.5847-0.1396
				c0.1939-0.0503,0.3858-0.105,0.5781-0.1597c0.2197-0.0622,0.4391-0.1242,0.6576-0.1924c0.1658-0.0519,0.3296-0.1081,0.494-0.1633
				c0.2398-0.0803,0.4794-0.161,0.7175-0.2487c0.1432-0.0528,0.2843-0.1096,0.4264-0.1649c0.2526-0.0981,0.505-0.197,0.7553-0.3035
				c0.0272-0.0116,0.0551-0.0214,0.0823-0.0331l6.1955,6.5658c2.9972-1.6197,5.7418-3.6759,8.1367-6.0983l-4.3716-8.0279
				c0.1511-0.1876,0.2946-0.3795,0.4398-0.5706C128.6566,212.3621,128.7502,212.2421,128.8404,212.119z M105.344,216.271
				c-10.6651-1.4994-18.0953-11.3607-16.5959-22.0258c1.4994-10.6651,11.3607-18.0954,22.0258-16.596
				s18.0953,11.3607,16.5959,22.0258C125.8703,210.3401,116.0091,217.7704,105.344,216.271z"/>
   </g>
   <g opacity="0.5">
    <path fill="none" stroke="#93f" stroke-width="0.8" stroke-miterlimit="10" d="M128.8404,212.119
				c0.1499-0.2047,0.2936-0.4127,0.4369-0.6211c0.0984-0.1428,0.1977-0.2848,0.2933-0.4298
				c0.1258-0.1912,0.2461-0.3851,0.3664-0.579c0.1055-0.1698,0.2116-0.3391,0.3134-0.5117
				c0.1019-0.1731,0.1988-0.3484,0.2964-0.5235c0.1111-0.1989,0.2221-0.3976,0.3281-0.5999
				c0.0806-0.1542,0.1567-0.3101,0.2341-0.4656c0.1128-0.2262,0.2249-0.4526,0.3313-0.6828
				c0.064-0.1388,0.1237-0.2792,0.1853-0.4189c0.109-0.2475,0.2172-0.4954,0.3188-0.7472c0.0111-0.0276,0.024-0.0546,0.0351-0.0823
				l9.0024,0.2613c0.4743-1.6074,0.838-3.2688,1.0783-4.9782c0.2412-1.7157,0.3497-3.4192,0.3361-5.1011l-8.7197-2.5713
				c-0.0258-0.2393-0.0599-0.4764-0.0923-0.714c-0.0206-0.1511-0.0392-0.3023-0.0625-0.4532
				c-0.0388-0.2508-0.0843-0.4996-0.1304-0.7483c-0.0314-0.1706-0.0616-0.3412-0.0965-0.5114
				c-0.0462-0.2239-0.0982-0.4458-0.1501-0.6678c-0.0455-0.195-0.0903-0.3899-0.1404-0.5842
				c-0.0503-0.1942-0.1057-0.3864-0.1604-0.5791c-0.0621-0.2194-0.1242-0.4386-0.1924-0.6568
				c-0.052-0.166-0.1084-0.3302-0.1637-0.4949c-0.0802-0.2395-0.1608-0.4788-0.2484-0.7166
				c-0.0529-0.1435-0.1099-0.285-0.1653-0.4274c-0.098-0.2523-0.1968-0.5042-0.3032-0.7542
				c-0.0116-0.0273-0.0215-0.0553-0.0332-0.0826l6.4863-6.1204c-1.6353-3.0016-3.7105-5.7466-6.152-8.1393l-7.8947,4.299
				c-0.1872-0.1507-0.3787-0.294-0.5694-0.4389c-0.1218-0.0927-0.2424-0.1867-0.366-0.2773
				c-0.2042-0.1495-0.4117-0.2929-0.6196-0.4358c-0.1434-0.0987-0.2858-0.1984-0.4314-0.2944
				c-0.1907-0.1255-0.3839-0.2454-0.5774-0.3655c-0.1703-0.1059-0.3402-0.2123-0.5133-0.3144
				c-0.1725-0.1015-0.3472-0.1981-0.5216-0.2954c-0.1995-0.1115-0.3989-0.2228-0.6019-0.3292
				c-0.1534-0.0802-0.3085-0.1559-0.4632-0.2329c-0.227-0.1132-0.4542-0.2257-0.6852-0.3325
				c-0.138-0.0636-0.2775-0.123-0.4165-0.1842c-0.2483-0.1094-0.4969-0.2179-0.7496-0.3198c-0.034-0.0137-0.0589-0.0885-0.093-0.102
				l0.2603-8.7542c-1.6113-0.4761-3.277-0.841-4.9907-1.0819c-1.7217-0.2421-3.4313-0.3507-5.1189-0.3361l-2.4922,8.4805
				c-0.2492,0.0266-0.5004,0.0909-0.7478,0.1246c-0.1505,0.0204-0.303,0.0539-0.4532,0.077
				c-0.2515,0.0389-0.502,0.0919-0.7514,0.1381c-0.17,0.0313-0.3404,0.0651-0.51,0.0999c-0.2244,0.0463-0.4471,0.1002-0.6696,0.1523
				c-0.1945,0.0454-0.3892,0.091-0.583,0.141c-0.1945,0.0504-0.3872,0.1063-0.5802,0.1611c-0.219,0.062-0.438,0.1243-0.6558,0.1923
				c-0.1664,0.0521-0.3308,0.1088-0.4959,0.1641c-0.2392,0.0801-0.4782,0.1607-0.7157,0.2481
				c-0.1438,0.053-0.2856,0.1102-0.4283,0.1657c-0.252,0.0979-0.5037,0.1966-0.7535,0.3028
				c-0.0338,0.0144-0.0684,0.027-0.1022,0.0415l-6.0159-6.3756c-3.0034,1.6222-5.7534,3.6826-8.1521,6.1106l4.245,7.7956
				c-0.157,0.1945-0.3068,0.3932-0.4575,0.5915c-0.0925,0.1216-0.1863,0.2419-0.2767,0.3653
				c-0.1497,0.2045-0.2932,0.4122-0.4363,0.6203c-0.0986,0.1431-0.1981,0.2853-0.2938,0.4306
				c-0.1257,0.1909-0.2458,0.3846-0.366,0.5783c-0.1057,0.1701-0.2119,0.3396-0.3138,0.5124
				c-0.1017,0.1729-0.1985,0.3479-0.296,0.5228c-0.1112,0.1991-0.2223,0.398-0.3284,0.6005
				c-0.0805,0.154-0.1566,0.3096-0.2338,0.465c-0.1129,0.2264-0.2252,0.453-0.3316,0.6834
				c-0.0639,0.1386-0.1236,0.2788-0.185,0.4184c-0.1091,0.2477-0.2174,0.4957-0.319,0.7478
				c-0.0138,0.0341-0.0293,0.0676-0.0429,0.1017l-8.7904-0.2551c-0.5,1.662-0.8807,3.383-1.1298,5.1548
				c-0.2324,1.6529-0.3404,3.2945-0.336,4.9164l8.5644,2.5255c0.0266,0.2486,0.0611,0.4949,0.0948,0.7417
				c0.0206,0.1513,0.0393,0.3027,0.0626,0.4538c0.0387,0.2506,0.0841,0.4991,0.1302,0.7477
				c0.0315,0.1709,0.0617,0.3417,0.0966,0.5121c0.0462,0.2237,0.0981,0.4453,0.15,0.6671c0.0455,0.1952,0.0904,0.3905,0.1406,0.5849
				c0.0502,0.1939,0.1055,0.3859,0.1602,0.5782c0.0622,0.2197,0.1244,0.4391,0.1926,0.6576
				c0.0519,0.1658,0.1083,0.3296,0.1634,0.494c0.0803,0.2398,0.1611,0.4794,0.2487,0.7175
				c0.0527,0.1431,0.1097,0.2843,0.1649,0.4264c0.0981,0.2526,0.197,0.5049,0.3035,0.7553
				c0.0143,0.0336,0.0269,0.0681,0.0414,0.1017l-6.4551,6.091c1.6068,2.9991,3.6493,5.7478,6.0584,8.1488l7.9273-4.3168
				c0.1947,0.1572,0.3936,0.3071,0.5921,0.4579c0.1213,0.0923,0.2413,0.1859,0.3644,0.2761
				c0.2047,0.1499,0.4127,0.2936,0.6212,0.4369c0.1428,0.0984,0.2847,0.1977,0.4298,0.2933c0.1912,0.1258,0.385,0.2461,0.579,0.3665
				c0.1698,0.1055,0.3391,0.2116,0.5116,0.3134c0.1731,0.1019,0.3483,0.1988,0.5234,0.2963
				c0.199,0.1111,0.3978,0.2222,0.6002,0.3283c0.154,0.0805,0.3096,0.1566,0.465,0.2338c0.2264,0.1128,0.4529,0.2251,0.6834,0.3316
				c0.1387,0.064,0.2789,0.1236,0.4185,0.1851c0.2476,0.1091,0.4955,0.2173,0.7475,0.3189c0.0276,0.0111,0.063-0.0352,0.0906-0.0241
				l-0.256,9.039c1.6581,0.4982,3.3748,0.8773,5.1421,1.1258c1.6468,0.2315,3.2823,0.3395,4.8983,0.336l2.6048-8.8036
				c0.2393-0.0258,0.4722-0.0303,0.7097-0.0627c0.1512-0.0205,0.3003-0.0244,0.4513-0.0477
				c0.2508-0.0388,0.4985-0.0768,0.7472-0.1229c0.1706-0.0314,0.3407-0.0579,0.5109-0.0929
				c0.2238-0.0461,0.4453-0.0962,0.6672-0.1482c0.1952-0.0455,0.3902-0.0894,0.5847-0.1396
				c0.1939-0.0503,0.3858-0.105,0.5781-0.1597c0.2197-0.0622,0.4391-0.1242,0.6576-0.1924c0.1658-0.0519,0.3296-0.1081,0.494-0.1633
				c0.2398-0.0803,0.4794-0.161,0.7175-0.2487c0.1432-0.0528,0.2843-0.1096,0.4264-0.1649c0.2526-0.0981,0.505-0.197,0.7553-0.3035
				c0.0272-0.0116,0.0551-0.0214,0.0823-0.0331l6.1955,6.5658c2.9972-1.6197,5.7418-3.6759,8.1367-6.0983l-4.3716-8.0279
				c0.1511-0.1876,0.2946-0.3795,0.4398-0.5706C128.6566,212.3621,128.7502,212.2421,128.8404,212.119z M105.344,216.271
				c-10.6651-1.4994-18.0953-11.3607-16.5959-22.0258c1.4994-10.6651,11.3607-18.0954,22.0258-16.596
				s18.0953,11.3607,16.5959,22.0258C125.8703,210.3401,116.0091,217.7704,105.344,216.271z"/>
   </g>
  </g>
  <g>
   <g opacity="0.2" mask="url(#SVGID_5_)">
    <path fill="#93f" d="M248.1285,156.8913c0.1122-0.1656,0.2196-0.3337,0.3265-0.502c0.0734-0.1154,0.1477-0.2301,0.2188-0.3471
				c0.0937-0.1543,0.1829-0.3105,0.2722-0.4668c0.0783-0.1369,0.1571-0.2733,0.2323-0.4122
				c0.0753-0.1393,0.1467-0.2803,0.2186-0.4211c0.0818-0.1599,0.1636-0.3197,0.2414-0.4821
				c0.0591-0.1238,0.1146-0.2489,0.1712-0.3737c0.0824-0.1815,0.1643-0.3631,0.2415-0.5476
				c0.0465-0.1112,0.0895-0.2236,0.134-0.3355c0.0788-0.1982,0.157-0.3966,0.2298-0.598c0.0079-0.0221,0.0174-0.0437,0.0253-0.0658
				l7.1022-0.0521c0.3277-1.2804,0.5667-2.6002,0.7071-3.9542c0.1409-1.359,0.1776-2.7047,0.1187-4.0298l-6.9456-1.7764
				c-0.0272-0.1879-0.0609-0.3737-0.0932-0.56c-0.0205-0.1185-0.0396-0.2371-0.0622-0.3554
				c-0.0378-0.1966-0.0807-0.3913-0.1242-0.586c-0.0296-0.1336-0.0583-0.2672-0.0907-0.4003
				c-0.0428-0.1751-0.0901-0.3485-0.1374-0.522c-0.0415-0.1524-0.0824-0.3047-0.1274-0.4563
				c-0.0452-0.1516-0.0943-0.3015-0.143-0.4518c-0.0552-0.1711-0.1105-0.3421-0.1704-0.5121
				c-0.0457-0.1294-0.0949-0.2571-0.1432-0.3853c-0.07-0.1865-0.1405-0.3727-0.2163-0.5576
				c-0.0458-0.1116-0.0948-0.2215-0.1425-0.3321c-0.0845-0.196-0.1695-0.3917-0.2605-0.5857
				c-0.0099-0.0211-0.0185-0.043-0.0285-0.0641l4.9363-5.0093c-1.3748-2.3186-3.089-4.4225-5.0816-6.2381l-6.0985,3.6143
				c-0.1518-0.1134-0.3069-0.2209-0.4613-0.3296c-0.0987-0.0695-0.1964-0.1402-0.2964-0.208
				c-0.1652-0.112-0.3328-0.219-0.5008-0.3257c-0.1158-0.0737-0.231-0.1482-0.3484-0.2196
				c-0.1539-0.0934-0.3096-0.1824-0.4655-0.2715c-0.1373-0.0786-0.2742-0.1576-0.4135-0.233
				c-0.1388-0.0751-0.2793-0.1462-0.4196-0.2178c-0.1604-0.0821-0.3208-0.1642-0.4838-0.2422
				c-0.1232-0.0588-0.2476-0.1141-0.3717-0.1703c-0.1821-0.0827-0.3644-0.1649-0.5495-0.2424
				c-0.1106-0.0462-0.2222-0.089-0.3335-0.1332c-0.1988-0.0791-0.3979-0.1575-0.5999-0.2305
				c-0.0271-0.0098-0.049-0.068-0.0762-0.0777l-0.0458-6.9065c-1.2835-0.329-2.6067-0.5688-3.9641-0.7096
				c-1.3638-0.1414-2.7142-0.178-4.0438-0.1182l-1.721,6.7548c-0.1956,0.0281-0.3917,0.086-0.5857,0.1197
				c-0.118,0.0204-0.2372,0.0511-0.3549,0.0737c-0.1971,0.0378-0.393,0.0868-0.5882,0.1303
				c-0.133,0.0296-0.2664,0.061-0.3991,0.0933c-0.1756,0.0429-0.3495,0.0918-0.5233,0.1393
				c-0.152,0.0413-0.3041,0.0828-0.4554,0.1278c-0.1519,0.0453-0.3021,0.0949-0.4526,0.1436
				c-0.1709,0.0552-0.3416,0.1105-0.5113,0.1703c-0.1296,0.0458-0.2576,0.0952-0.3861,0.1436
				c-0.1862,0.07-0.3723,0.1404-0.557,0.2161c-0.1118,0.0459-0.2219,0.095-0.3327,0.1428
				c-0.1958,0.0844-0.3913,0.1693-0.5851,0.2603c-0.0262,0.0123-0.0532,0.0233-0.0793,0.0357l-4.9239-4.8521
				c-2.3205,1.3645-4.4286,3.0672-6.2494,5.0493l3.5689,6.0219c-0.1181,0.1578-0.2305,0.3187-0.3436,0.4793
				c-0.0694,0.0985-0.1399,0.196-0.2076,0.2958c-0.1121,0.1654-0.2193,0.3333-0.3261,0.5014
				c-0.0736,0.1156-0.1479,0.2305-0.2192,0.3478c-0.0936,0.1541-0.1827,0.3101-0.2719,0.4662
				c-0.0784,0.137-0.1573,0.2737-0.2326,0.4128c-0.0752,0.1392-0.1465,0.2799-0.2183,0.4205
				c-0.0819,0.1601-0.1638,0.32-0.2416,0.4827c-0.0591,0.1236-0.1145,0.2485-0.1709,0.3732
				c-0.0825,0.1816-0.1645,0.3634-0.2418,0.548c-0.0464,0.1111-0.0894,0.2233-0.1338,0.335
				c-0.0789,0.1983-0.1571,0.3969-0.23,0.5984c-0.0099,0.0273-0.0212,0.0541-0.0309,0.0814l-6.9349,0.0509
				c-0.3465,1.3242-0.5971,2.6913-0.7426,4.0948c-0.1358,1.3093-0.1739,2.6061-0.1239,3.8842l6.8219,1.7448
				c0.028,0.1951,0.0624,0.3883,0.096,0.5818c0.0206,0.1187,0.0396,0.2374,0.0623,0.3558c0.0377,0.1964,0.0806,0.3909,0.124,0.5855
				c0.0297,0.1337,0.0584,0.2675,0.0909,0.4008c0.0428,0.1749,0.0901,0.3481,0.1373,0.5214
				c0.0415,0.1526,0.0824,0.3051,0.1275,0.4569c0.0452,0.1514,0.0943,0.3011,0.1428,0.4511
				c0.0553,0.1713,0.1106,0.3425,0.1706,0.5127c0.0457,0.1292,0.0948,0.2566,0.143,0.3846
				c0.0701,0.1867,0.1407,0.3732,0.2166,0.5583c0.0457,0.1113,0.0946,0.2209,0.1422,0.3313
				c0.0845,0.1963,0.1698,0.3923,0.2608,0.5865c0.0123,0.0261,0.0232,0.0529,0.0355,0.079l-4.9126,4.9853
				c1.3522,2.3175,3.0408,4.4252,5.0081,6.2483l6.1237-3.6293c0.1579,0.1183,0.319,0.2307,0.4798,0.3439
				c0.0983,0.0692,0.1955,0.1396,0.2951,0.2071c0.1656,0.1123,0.3337,0.2196,0.5021,0.3265
				c0.1153,0.0734,0.2301,0.1476,0.3471,0.2188c0.1543,0.0937,0.3105,0.1829,0.4668,0.2722
				c0.1368,0.0783,0.2733,0.157,0.4122,0.2323c0.1393,0.0753,0.2802,0.1467,0.421,0.2185c0.16,0.0819,0.3199,0.1637,0.4824,0.2415
				c0.1236,0.0591,0.2485,0.1145,0.3732,0.1709c0.1816,0.0824,0.3634,0.1645,0.548,0.2417
				c0.1111,0.0464,0.2233,0.0894,0.3351,0.1339c0.1983,0.0789,0.3968,0.1571,0.5983,0.2299
				c0.0221,0.008,0.0486-0.0295,0.0707-0.0216l0.0573,7.1309c1.321,0.3451,2.6848,0.5947,4.0847,0.7398
				c1.3045,0.1353,2.5965,0.1735,3.8699,0.1244l1.8005-7.0127c0.1878-0.0272,0.3712-0.0374,0.5575-0.0698
				c0.1186-0.0205,0.236-0.0279,0.3543-0.0505c0.1966-0.0378,0.3907-0.0748,0.5854-0.1183c0.1336-0.0297,0.2669-0.0554,0.4-0.0878
				c0.1751-0.0428,0.3482-0.0886,0.5215-0.1359c0.1525-0.0415,0.3049-0.0817,0.4568-0.1268
				c0.1514-0.0452,0.3011-0.0938,0.451-0.1424c0.1714-0.0553,0.3425-0.1104,0.5127-0.1705
				c0.1292-0.0456,0.2567-0.0946,0.3846-0.1428c0.1867-0.0701,0.3732-0.1407,0.5584-0.2165
				c0.1113-0.0457,0.2209-0.0946,0.3313-0.1422c0.1963-0.0846,0.3923-0.1698,0.5865-0.2609
				c0.0211-0.0099,0.0428-0.0184,0.0639-0.0284l5.0708,4.9969c2.3156-1.3624,4.4197-3.0616,6.2377-5.0393l-3.6753-6.2014
				c0.1137-0.1522,0.2213-0.3075,0.3302-0.4623C247.9906,157.0882,248.061,156.9909,248.1285,156.8913z M229.7303,160.837
				c-8.448-0.8759-14.5864-8.4345-13.7104-16.8825c0.876-8.448,8.4345-14.5864,16.8825-13.7105
				c8.448,0.8759,14.5864,8.4345,13.7104,16.8826C245.7369,155.5745,238.1783,161.7129,229.7303,160.837z"/>
   </g>
   <g opacity="0.5">
    <path fill="none" stroke="#93f" stroke-width="0.8" stroke-miterlimit="10" d="M248.1285,156.8913
				c0.1122-0.1656,0.2196-0.3337,0.3265-0.502c0.0734-0.1154,0.1477-0.2301,0.2188-0.3471
				c0.0937-0.1543,0.1829-0.3105,0.2722-0.4668c0.0783-0.1369,0.1571-0.2733,0.2323-0.4122
				c0.0753-0.1393,0.1467-0.2803,0.2186-0.4211c0.0818-0.1599,0.1636-0.3197,0.2414-0.4821
				c0.0591-0.1238,0.1146-0.2489,0.1712-0.3737c0.0824-0.1815,0.1643-0.3631,0.2415-0.5476
				c0.0465-0.1112,0.0895-0.2236,0.134-0.3355c0.0788-0.1982,0.157-0.3966,0.2298-0.598c0.0079-0.0221,0.0174-0.0437,0.0253-0.0658
				l7.1022-0.0521c0.3277-1.2804,0.5667-2.6002,0.7071-3.9542c0.1409-1.359,0.1776-2.7047,0.1187-4.0298l-6.9456-1.7764
				c-0.0272-0.1879-0.0609-0.3737-0.0932-0.56c-0.0205-0.1185-0.0396-0.2371-0.0622-0.3554
				c-0.0378-0.1966-0.0807-0.3913-0.1242-0.586c-0.0296-0.1336-0.0583-0.2672-0.0907-0.4003
				c-0.0428-0.1751-0.0901-0.3485-0.1374-0.522c-0.0415-0.1524-0.0824-0.3047-0.1274-0.4563
				c-0.0452-0.1516-0.0943-0.3015-0.143-0.4518c-0.0552-0.1711-0.1105-0.3421-0.1704-0.5121
				c-0.0457-0.1294-0.0949-0.2571-0.1432-0.3853c-0.07-0.1865-0.1405-0.3727-0.2163-0.5576
				c-0.0458-0.1116-0.0948-0.2215-0.1425-0.3321c-0.0845-0.196-0.1695-0.3917-0.2605-0.5857
				c-0.0099-0.0211-0.0185-0.043-0.0285-0.0641l4.9363-5.0093c-1.3748-2.3186-3.089-4.4225-5.0816-6.2381l-6.0985,3.6143
				c-0.1518-0.1134-0.3069-0.2209-0.4613-0.3296c-0.0987-0.0695-0.1964-0.1402-0.2964-0.208
				c-0.1652-0.112-0.3328-0.219-0.5008-0.3257c-0.1158-0.0737-0.231-0.1482-0.3484-0.2196
				c-0.1539-0.0934-0.3096-0.1824-0.4655-0.2715c-0.1373-0.0786-0.2742-0.1576-0.4135-0.233
				c-0.1388-0.0751-0.2793-0.1462-0.4196-0.2178c-0.1604-0.0821-0.3208-0.1642-0.4838-0.2422
				c-0.1232-0.0588-0.2476-0.1141-0.3717-0.1703c-0.1821-0.0827-0.3644-0.1649-0.5495-0.2424
				c-0.1106-0.0462-0.2222-0.089-0.3335-0.1332c-0.1988-0.0791-0.3979-0.1575-0.5999-0.2305
				c-0.0271-0.0098-0.049-0.068-0.0762-0.0777l-0.0458-6.9065c-1.2835-0.329-2.6067-0.5688-3.9641-0.7096
				c-1.3638-0.1414-2.7142-0.178-4.0438-0.1182l-1.721,6.7548c-0.1956,0.0281-0.3917,0.086-0.5857,0.1197
				c-0.118,0.0204-0.2372,0.0511-0.3549,0.0737c-0.1971,0.0378-0.393,0.0868-0.5882,0.1303
				c-0.133,0.0296-0.2664,0.061-0.3991,0.0933c-0.1756,0.0429-0.3495,0.0918-0.5233,0.1393
				c-0.152,0.0413-0.3041,0.0828-0.4554,0.1278c-0.1519,0.0453-0.3021,0.0949-0.4526,0.1436
				c-0.1709,0.0552-0.3416,0.1105-0.5113,0.1703c-0.1296,0.0458-0.2576,0.0952-0.3861,0.1436
				c-0.1862,0.07-0.3723,0.1404-0.557,0.2161c-0.1118,0.0459-0.2219,0.095-0.3327,0.1428
				c-0.1958,0.0844-0.3913,0.1693-0.5851,0.2603c-0.0262,0.0123-0.0532,0.0233-0.0793,0.0357l-4.9239-4.8521
				c-2.3205,1.3645-4.4286,3.0672-6.2494,5.0493l3.5689,6.0219c-0.1181,0.1578-0.2305,0.3187-0.3436,0.4793
				c-0.0694,0.0985-0.1399,0.196-0.2076,0.2958c-0.1121,0.1654-0.2193,0.3333-0.3261,0.5014
				c-0.0736,0.1156-0.1479,0.2305-0.2192,0.3478c-0.0936,0.1541-0.1827,0.3101-0.2719,0.4662
				c-0.0784,0.137-0.1573,0.2737-0.2326,0.4128c-0.0752,0.1392-0.1465,0.2799-0.2183,0.4205
				c-0.0819,0.1601-0.1638,0.32-0.2416,0.4827c-0.0591,0.1236-0.1145,0.2485-0.1709,0.3732
				c-0.0825,0.1816-0.1645,0.3634-0.2418,0.548c-0.0464,0.1111-0.0894,0.2233-0.1338,0.335
				c-0.0789,0.1983-0.1571,0.3969-0.23,0.5984c-0.0099,0.0273-0.0212,0.0541-0.0309,0.0814l-6.9349,0.0509
				c-0.3465,1.3242-0.5971,2.6913-0.7426,4.0948c-0.1358,1.3093-0.1739,2.6061-0.1239,3.8842l6.8219,1.7448
				c0.028,0.1951,0.0624,0.3883,0.096,0.5818c0.0206,0.1187,0.0396,0.2374,0.0623,0.3558c0.0377,0.1964,0.0806,0.3909,0.124,0.5855
				c0.0297,0.1337,0.0584,0.2675,0.0909,0.4008c0.0428,0.1749,0.0901,0.3481,0.1373,0.5214
				c0.0415,0.1526,0.0824,0.3051,0.1275,0.4569c0.0452,0.1514,0.0943,0.3011,0.1428,0.4511
				c0.0553,0.1713,0.1106,0.3425,0.1706,0.5127c0.0457,0.1292,0.0948,0.2566,0.143,0.3846
				c0.0701,0.1867,0.1407,0.3732,0.2166,0.5583c0.0457,0.1113,0.0946,0.2209,0.1422,0.3313
				c0.0845,0.1963,0.1698,0.3923,0.2608,0.5865c0.0123,0.0261,0.0232,0.0529,0.0355,0.079l-4.9126,4.9853
				c1.3522,2.3175,3.0408,4.4252,5.0081,6.2483l6.1237-3.6293c0.1579,0.1183,0.319,0.2307,0.4798,0.3439
				c0.0983,0.0692,0.1955,0.1396,0.2951,0.2071c0.1656,0.1123,0.3337,0.2196,0.5021,0.3265
				c0.1153,0.0734,0.2301,0.1476,0.3471,0.2188c0.1543,0.0937,0.3105,0.1829,0.4668,0.2722
				c0.1368,0.0783,0.2733,0.157,0.4122,0.2323c0.1393,0.0753,0.2802,0.1467,0.421,0.2185c0.16,0.0819,0.3199,0.1637,0.4824,0.2415
				c0.1236,0.0591,0.2485,0.1145,0.3732,0.1709c0.1816,0.0824,0.3634,0.1645,0.548,0.2417
				c0.1111,0.0464,0.2233,0.0894,0.3351,0.1339c0.1983,0.0789,0.3968,0.1571,0.5983,0.2299
				c0.0221,0.008,0.0486-0.0295,0.0707-0.0216l0.0573,7.1309c1.321,0.3451,2.6848,0.5947,4.0847,0.7398
				c1.3045,0.1353,2.5965,0.1735,3.8699,0.1244l1.8005-7.0127c0.1878-0.0272,0.3712-0.0374,0.5575-0.0698
				c0.1186-0.0205,0.236-0.0279,0.3543-0.0505c0.1966-0.0378,0.3907-0.0748,0.5854-0.1183c0.1336-0.0297,0.2669-0.0554,0.4-0.0878
				c0.1751-0.0428,0.3482-0.0886,0.5215-0.1359c0.1525-0.0415,0.3049-0.0817,0.4568-0.1268
				c0.1514-0.0452,0.3011-0.0938,0.451-0.1424c0.1714-0.0553,0.3425-0.1104,0.5127-0.1705
				c0.1292-0.0456,0.2567-0.0946,0.3846-0.1428c0.1867-0.0701,0.3732-0.1407,0.5584-0.2165
				c0.1113-0.0457,0.2209-0.0946,0.3313-0.1422c0.1963-0.0846,0.3923-0.1698,0.5865-0.2609
				c0.0211-0.0099,0.0428-0.0184,0.0639-0.0284l5.0708,4.9969c2.3156-1.3624,4.4197-3.0616,6.2377-5.0393l-3.6753-6.2014
				c0.1137-0.1522,0.2213-0.3075,0.3302-0.4623C247.9906,157.0882,248.061,156.9909,248.1285,156.8913z M229.7303,160.837
				c-8.448-0.8759-14.5864-8.4345-13.7104-16.8825c0.876-8.448,8.4345-14.5864,16.8825-13.7105
				c8.448,0.8759,14.5864,8.4345,13.7104,16.8826C245.7369,155.5745,238.1783,161.7129,229.7303,160.837z"/>
   </g>
  </g>
 </g>
</svg>
