<?xml version="1.0" encoding="utf-8"?>
<!-- Generator: Adobe Illustrator 17.0.0, SVG Export Plug-In . SVG Version: 6.00 Build 0)  -->
<!DOCTYPE svg PUBLIC "-//W3C//DTD SVG 1.1//EN" "http://www.w3.org/Graphics/SVG/1.1/DTD/svg11.dtd">
<svg version="1.1" id="hud1" xmlns="http://www.w3.org/2000/svg" xmlns:xlink="http://www.w3.org/1999/xlink" x="0px" y="0px"
	 width="344.9488px" height="344.9463px" viewBox="0 0 344.9488 344.9463" enable-background="new 0 0 344.9488 344.9463"
	 xml:space="preserve">
<g id="hud1-wrap">
	<g id="hud1-center">
		<circle fill="none" cx="173.2244" cy="172.4733" r="101.9949"/>
	</g>
	<g id="hud1-ring1" opacity="0.9">
		<path fill="none" stroke="#00FF00" stroke-miterlimit="10" d="M116.1972,265.7833c-6.718-4.0668-12.9628-8.839-18.6332-14.212
			l-8.4863,8.4863c6.4126,6.1088,13.495,11.5189,21.1208,16.1157L116.1972,265.7833z"/>
		<path fill="none" stroke="#00FF00" stroke-miterlimit="10" d="M268.3039,120.5792c3.7136,6.8303,6.7146,14.1012,8.9106,21.7098
			l11.5959-3.1071c-2.4738-8.6321-5.8853-16.8715-10.1156-24.602L268.3039,120.5792z"/>
		<path fill="none" stroke="#00FF00" stroke-miterlimit="10" d="M54.8985,144.142c-2.07,8.5146-3.2368,16.7332-3.3925,26.7332
			h11.9999c0.1526-9,1.1788-15.9796,2.9869-23.5015L54.8985,144.142z"/>
		<path fill="none" stroke="#00FF00" stroke-miterlimit="10" d="M76.7667,120.3607l-10.3907-5.999
			c-4.2655,7.7568-7.7062,16.0276-10.2007,24.6961l11.596,3.1071C69.9878,134.5199,73.0182,127.2176,76.7667,120.3607z"/>
		<path fill="none" stroke="#00FF00" stroke-miterlimit="10" d="M142.1872,277.1823c-7.5893-2.1987-14.8419-5.1976-21.6555-8.9066
			l-5.9991,10.3907c7.7138,4.2257,15.9348,7.6353,24.5475,10.1119L142.1872,277.1823z"/>
		<path fill="none" stroke="#00FF00" stroke-miterlimit="10" d="M66.6774,198.9523c-1.8606-7.5027-2.9482-15.077-3.1589-23.077
			H51.5162c0.2151,9,1.4432,17.8136,3.5668,26.3087L66.6774,198.9523z"/>
		<path fill="none" stroke="#00FF00" stroke-miterlimit="10" d="M251.5725,97.5627c5.3858,5.6839,10.1673,11.9451,14.2404,18.6811
			l10.39-5.9987c-4.603-7.644-10.0226-14.7427-16.1442-21.1686L251.5725,97.5627z"/>
		<path fill="none" stroke="#00FF00" stroke-miterlimit="10" d="M259.6624,256.2776c6.1226-6.3674,11.5587-13.3991,16.1826-20.979
			l-10.3953-6.0017c-4.0931,6.6724-8.8823,12.8735-14.2686,18.4994L259.6624,256.2776z"/>
		<path fill="none" stroke="#00FF00" stroke-miterlimit="10" d="M288.5886,206.5091l-11.596-3.1071
			c-2.2425,7.5647-5.2832,14.7886-9.0284,21.5732l10.3907,5.999C282.6175,223.29,286.0671,215.0967,288.5886,206.5091z"/>
		<path fill="none" stroke="#00FF00" stroke-miterlimit="10" d="M278.3022,198.8265l11.5944,3.2317
			c2.1044-8.4567,3.322-17.183,3.5361-26.183h-12.0023C281.2208,182.8752,280.1439,191.3623,278.3022,198.8265z"/>
		<path fill="none" stroke="#00FF00" stroke-miterlimit="10" d="M235.1229,275.9527c7.5861-4.6099,14.6259-10.0319,21.0022-16.1413
			l-8.4814-8.4814c-5.6345,5.3735-11.8433,10.1492-18.5219,14.2285L235.1229,275.9527z"/>
		<path fill="none" stroke="#00FF00" stroke-miterlimit="10" d="M114.1817,66.4763l5.9991,10.3906
			c6.8562-3.7651,14.1591-6.812,21.8069-9.0436l-3.1071-11.5959C130.2095,58.7372,121.9377,62.1939,114.1817,66.4763z"/>
		<path fill="none" stroke="#00FF00" stroke-miterlimit="10" d="M146.5691,66.5359c7.53-1.8237,15.1553-2.8654,23.1553-3.0292v-12
			c-9,0.1672-17.8644,1.3488-26.387,3.4348L146.5691,66.5359z"/>
		<path fill="none" stroke="#00FF00" stroke-miterlimit="10" d="M198.1468,278.345c-7.4562,1.826-15.4224,2.8899-23.4224,3.0881v12
			c10-0.2026,17.9554-1.4053,26.4041-3.4938L198.1468,278.345z"/>
		<path fill="none" stroke="#00FF00" stroke-miterlimit="10" d="M206.3318,288.6403c8.585-2.5062,16.7773-5.9396,24.4623-10.1854
			l-5.999-10.3907c-6.7852,3.7286-14.0085,6.7527-21.5704,8.9802L206.3318,288.6403z"/>
		<path fill="none" stroke="#00FF00" stroke-miterlimit="10" d="M88.67,85.2852l8.4813,8.4813
			c5.6832-5.4411,11.9519-10.2748,18.702-14.3951l-6.0007-10.3935C102.1948,73.6286,95.0944,79.1077,88.67,85.2852z"/>
		<path fill="none" stroke="#00FF00" stroke-miterlimit="10" d="M143.6646,290.0541c8.4607,2.0553,17.0598,3.2194,26.0598,3.3853
			v-12c-7-0.1624-15.6102-1.1862-23.0781-2.9797L143.6646,290.0541z"/>
		<path fill="none" stroke="#00FF00" stroke-miterlimit="10" d="M203.4242,67.9614c7.6203,2.2606,14.8942,5.3322,21.7218,9.117
			l5.999-10.3906c-7.727-4.3026-15.9704-7.7828-24.6137-10.3223L203.4242,67.9614z"/>
		<path fill="none" stroke="#00FF00" stroke-miterlimit="10" d="M201.4557,55.0564c-8.5105-2.1194-16.7313-3.3391-26.7313-3.5433v12
			c9,0.2,15.9814,1.2811,23.4996,3.1376L201.4557,55.0564z"/>
		<path fill="none" stroke="#00FF00" stroke-miterlimit="10" d="M290.0811,144.2678l-11.5944,3.2318
			c1.7892,7.4833,2.8044,15.3757,2.9562,23.3757h11.9999C293.2879,160.8752,292.1321,152.7438,290.0811,144.2678z"/>
		<path fill="none" stroke="#00FF00" stroke-miterlimit="10" d="M68.8733,110.03l10.39,5.9987
			c4.1064-6.7561,8.9261-13.0329,14.3542-18.7247l-8.4813-8.4813C78.972,95.2559,73.5098,102.3661,68.8733,110.03z"/>
		<path fill="none" stroke="#00FF00" stroke-miterlimit="10" d="M77.1068,225.1933c-3.7802-6.8109-6.8504-14.0663-9.1135-21.6672
			l-11.596,3.1071c2.5422,8.6239,6.0209,16.8489,10.3189,24.5592L77.1068,225.1933z"/>
		<path fill="none" stroke="#00FF00" stroke-miterlimit="10" d="M94.0148,248.0493c-5.4285-5.6336-10.2567-11.848-14.3831-18.5403
			l-10.3953,6.0018c4.6575,7.5995,10.1318,14.6452,16.2971,21.0198L94.0148,248.0493z"/>
		<path fill="none" stroke="#00FF00" stroke-miterlimit="10" d="M229.463,79.601c6.7103,4.1328,12.9406,8.9712,18.5875,14.4125
			l8.4813-8.4813c-6.3879-6.178-13.4495-11.6627-21.0672-16.3265L229.463,79.601z"/>
	</g>
	<g id="hud1-ring2" opacity="0.7">
		<path fill="none" stroke="#00FF00" stroke-miterlimit="10" d="M305.237,134.7804c-2.8665-10.0823-6.8588-19.6941-11.822-28.6992
			l-10.3906,5.999c4.4457,8.1055,8.0283,16.7484,10.6177,25.807L305.237,134.7804z"/>
		<path fill="none" stroke="#00FF00" stroke-miterlimit="10" d="M237.9654,64.8744c7.9959,4.8848,15.4037,10.6388,22.1004,17.1239
			l8.4812-8.4812c-7.437-7.2224-15.6762-13.6228-24.58-19.0377L237.9654,64.8744z"/>
		<path fill="none" stroke="#00FF00" stroke-miterlimit="10" d="M50.252,203.3535c-2.2334-8.9084-3.519-18.4782-3.7358-27.4782h-12
			c0.2202,10,1.6445,20.8095,4.1415,30.7099L50.252,203.3535z"/>
		<path fill="none" stroke="#00FF00" stroke-miterlimit="10" d="M62.3866,233.692c-4.5139-8.0849-8.1627-16.714-10.821-25.7642
			l-11.5959,3.1071c2.9364,10.0735,6.994,19.6722,12.0262,28.6561L62.3866,233.692z"/>
		<path fill="none" stroke="#00FF00" stroke-miterlimit="10" d="M263.5936,85.5416c6.4282,6.7349,12.1149,14.1816,16.9385,22.204
			l10.3899-5.9986c-5.3527-8.9306-11.6824-17.2107-18.8471-24.6867L263.5936,85.5416z"/>
		<path fill="none" stroke="#00FF00" stroke-miterlimit="10" d="M34.506,170.8752h12c0.1569-10,1.3821-19.0996,3.5615-28.0276
			l-11.5942-2.9817C36.0309,149.7863,34.6653,159.8752,34.506,170.8752z"/>
		<path fill="none" stroke="#00FF00" stroke-miterlimit="10" d="M107.6991,280.5024c-8.0042-4.8174-15.4346-10.4947-22.1562-16.9101
			l-8.4813,8.4813c7.4627,7.1519,15.7264,13.472,24.6389,18.8187L107.6991,280.5024z"/>
		<path fill="none" stroke="#00FF00" stroke-miterlimit="10" d="M81.9996,260.0646c-6.4723-6.6832-12.2159-14.0753-17.0945-22.053
			l-10.3953,6.0017c5.4088,8.8856,11.799,17.1088,19.0085,24.5326L81.9996,260.0646z"/>
		<path fill="none" stroke="#00FF00" stroke-miterlimit="10" d="M39.7478,134.6561l11.5959,3.1071
			c2.61-9.0949,6.2218-17.7695,10.7029-25.9011l-10.3906-5.999C46.657,114.894,42.6349,124.5375,39.7478,134.6561z"/>
		<path fill="none" stroke="#00FF00" stroke-miterlimit="10" d="M305.0161,210.9109l-11.5959-3.1071
			c-2.6375,9.014-6.2575,17.6111-10.7359,25.67l10.3906,5.9991C298.0714,230.5149,302.1006,220.9482,305.0161,210.9109z"/>
		<path fill="none" stroke="#00FF00" stroke-miterlimit="10" d="M268.1402,271.8265l-8.4813-8.4813
			c-6.6851,6.4163-14.0723,12.1059-22.0366,16.9366l5.9987,10.3899C252.4932,285.3113,260.7142,278.9794,268.1402,271.8265z"/>
		<path fill="none" stroke="#00FF00" stroke-miterlimit="10" d="M105.683,51.7562l5.999,10.3906
			c8.1307-4.4981,16.8063-8.1255,25.9039-10.751l-3.1071-11.5959C124.3577,42.7027,114.713,46.7401,105.683,51.7562z"/>
		<path fill="none" stroke="#00FF00" stroke-miterlimit="10" d="M239.2928,293.175l-5.9991-10.3906
			c-8.0598,4.4614-16.6559,8.0654-25.6673,10.6876l3.1071,11.5959C220.7684,302.1679,230.3337,298.1544,239.2928,293.175z"/>
		<path fill="none" stroke="#00FF00" stroke-miterlimit="10" d="M290.5673,243.7986l-10.391-5.9993
			c-4.845,7.9582-10.5505,15.3361-16.98,22.0122l8.4813,8.4813C278.8439,260.876,285.1924,252.6646,290.5673,243.7986z"/>
		<path fill="none" stroke="#00FF00" stroke-miterlimit="10" d="M137.7854,293.6099c-9.0391-2.5923-17.6637-6.1729-25.7524-10.6141
			l-5.999,10.3906c8.9883,4.9587,18.5816,8.95,28.6443,11.8194L137.7854,293.6099z"/>
		<path fill="none" stroke="#00FF00" stroke-miterlimit="10" d="M202.5479,294.7703c-8.8621,2.198-17.8235,3.4586-27.8235,3.6627
			v12.0001c11-0.2075,20.9509-1.6072,30.8052-4.0685L202.5479,294.7703z"/>
		<path fill="none" stroke="#00FF00" stroke-miterlimit="10" d="M205.8568,38.6311c-9.9158-2.4927-20.1324-3.909-31.1324-4.1179
			v12.0001c10,0.2057,18.9769,1.4831,27.9007,3.7122L205.8568,38.6311z"/>
		<path fill="none" stroke="#00FF00" stroke-miterlimit="10" d="M142.168,50.1107c8.936-2.1955,18.5565-3.4353,27.5565-3.6038v-12
			c-10,0.1711-20.8599,1.551-30.7881,4.0095L142.168,50.1107z"/>
		<path fill="none" stroke="#00FF00" stroke-miterlimit="10" d="M310.4327,175.8752h-12c-0.2158,9-1.4911,18.4823-3.7051,27.3525
			l11.5943,3.2317C308.7994,196.5973,310.2134,185.8752,310.4327,175.8752z"/>
		<path fill="none" stroke="#00FF00" stroke-miterlimit="10" d="M54.1542,101.5319l10.3899,5.9986
			c4.8572-8.0422,10.587-15.4998,17.0582-22.2419l-8.4812-8.4812C65.9133,84.2903,59.5408,92.5816,54.1542,101.5319z"/>
		<path fill="none" stroke="#00FF00" stroke-miterlimit="10" d="M306.5064,139.8666l-11.5942,3.2317
			c2.1603,8.8896,3.3745,17.7769,3.5307,27.7769h12C310.2842,159.8752,308.9294,149.7487,306.5064,139.8666z"/>
		<path fill="none" stroke="#00FF00" stroke-miterlimit="10" d="M139.2635,306.4794c9.8666,2.4274,20.4609,3.7901,30.4609,3.96v-12
			c-9-0.1672-18.605-1.3898-27.4792-3.5543L139.2635,306.4794z"/>
		<path fill="none" stroke="#00FF00" stroke-miterlimit="10" d="M207.8259,51.5339c9.0696,2.6555,17.717,6.306,25.8187,10.8245
			l5.999-10.3906c-9.0006-5.0369-18.6176-9.0963-28.7106-12.0297L207.8259,51.5339z"/>
		<path fill="none" stroke="#00FF00" stroke-miterlimit="10" d="M76.6548,73.2701l8.4812,8.4812
			c6.7332-6.4844,14.1811-12.231,22.2171-17.1025l-5.9987-10.3899C92.4104,59.6599,84.1287,66.0488,76.6548,73.2701z"/>
	</g>
	<g id="hud1-ring3" opacity="0.5">
		<path fill="none" stroke="#00FF00" stroke-miterlimit="10" d="M212.2277,35.1063c10.5195,3.0491,20.5405,7.2791,29.9155,12.532
			l5.9991-10.3907c-10.2737-5.7717-21.2643-10.4109-32.8075-13.7372L212.2277,35.1063z"/>
		<path fill="none" stroke="#00FF00" stroke-miterlimit="10" d="M97.1844,37.0361l5.9991,10.3907
			c9.4046-5.232,19.4531-9.4402,30.0007-12.4585l-3.1071-11.596C118.5055,26.6674,107.4878,31.2856,97.1844,37.0361z"/>
		<path fill="none" stroke="#00FF00" stroke-miterlimit="10" d="M99.201,295.2214c-9.2909-5.5671-17.9019-12.1552-25.6733-19.614
			l-8.4813,8.4813c8.5121,8.1957,17.9567,15.4267,28.1561,21.5225L99.201,295.2214z"/>
		<path fill="none" stroke="#00FF00" stroke-miterlimit="10" d="M69.9844,272.0797c-7.5167-7.7322-14.1752-16.3027-19.8047-25.5665
			l-10.3899,5.9987c6.159,10.172,13.4591,19.577,21.7133,28.0492L69.9844,272.0797z"/>
		<path fill="none" stroke="#00FF00" stroke-miterlimit="10" d="M134.8623,322.9047c11.272,2.8005,22.8621,4.3616,34.8621,4.5347
			v-12c-11-0.1709-21.6003-1.592-31.8804-4.129L134.8623,322.9047z"/>
		<path fill="none" stroke="#00FF00" stroke-miterlimit="10" d="M64.6396,61.2549l8.4813,8.4813
			c7.7823-7.5284,16.4117-14.1848,25.7341-19.8065l-5.9987-10.39C82.6256,45.6905,73.1622,52.9892,64.6396,61.2549z"/>
		<path fill="none" stroke="#00FF00" stroke-miterlimit="10" d="M23.3243,130.2554l11.5919,3.106
			c3.0025-10.5452,7.1956-20.5922,12.4103-29.9979l-10.3907-5.9991C31.2028,107.6689,26.6035,118.6865,23.3243,130.2554z"/>
		<path fill="none" stroke="#00FF00" stroke-miterlimit="10" d="M206.9491,311.1956c-10.2676,2.5711-20.2247,4.0287-32.2247,4.2375
			v12c13-0.2114,23.9469-1.8082,35.2064-4.6431L206.9491,311.1956z"/>
		<path fill="none" stroke="#00FF00" stroke-miterlimit="10" d="M246.4664,50.1503c9.282,5.6356,17.8691,12.3034,25.6145,19.8329
			l8.4813-8.4813c-8.4854-8.267-17.9069-15.5765-28.0972-21.7415L246.4664,50.1503z"/>
		<path fill="none" stroke="#00FF00" stroke-miterlimit="10" d="M17.506,170.8752h12c0.1603-12,1.5842-22.095,4.1362-32.4288
			l-11.5944-2.9817C19.2323,146.7906,17.6682,157.8752,17.506,170.8752z"/>
		<path fill="none" stroke="#00FF00" stroke-miterlimit="10" d="M33.8267,207.7546c-2.6071-10.3137-4.0892-20.8793-4.3105-31.8793
			h-12c0.2241,12,1.845,23.8057,4.7162,35.111L33.8267,207.7546z"/>
		<path fill="none" stroke="#00FF00" stroke-miterlimit="10" d="M308.1351,97.5825l-10.3907,5.9991
			c5.179,9.3798,9.3405,19.3959,12.3223,29.9047l11.5916-3.106C318.4,118.8479,313.8321,107.8612,308.1351,97.5825z"/>
		<path fill="none" stroke="#00FF00" stroke-miterlimit="10" d="M275.6086,73.5266c7.4716,7.7847,14.0693,16.412,19.6424,25.7211
			l10.39-5.9987c-6.1018-10.2176-13.3425-19.6784-21.551-28.2038L275.6086,73.5266z"/>
		<path fill="none" stroke="#00FF00" stroke-miterlimit="10" d="M137.7668,33.6854c10.3416-2.5684,20.9576-4.0065,31.9576-4.1785
			v-12c-12,0.1741-23.8558,1.7521-35.1893,4.5842L137.7668,33.6854z"/>
		<path fill="none" stroke="#00FF00" stroke-miterlimit="10" d="M39.4352,93.0339l10.39,5.9987
			c5.607-9.3288,12.2472-17.9675,19.762-25.759l-8.4813-8.4813C52.8538,73.3241,45.571,82.7967,39.4352,93.0339z"/>
		<path fill="none" stroke="#00FF00" stroke-miterlimit="10" d="M305.2864,252.2966l-10.3899-5.9986
			c-5.5955,9.2443-12.2116,17.8032-19.6851,25.5287l8.4813,8.4813C291.9034,271.8423,299.1615,262.4492,305.2864,252.2966z"/>
		<path fill="none" stroke="#00FF00" stroke-miterlimit="10" d="M133.3837,310.0372c-10.4893-2.9849-20.4864-7.1469-29.8494-12.3213
			l-5.999,10.3907c10.262,5.6924,21.2296,10.2607,32.7425,13.5222L133.3837,310.0372z"/>
		<path fill="none" stroke="#00FF00" stroke-miterlimit="10" d="M280.1554,283.8417l-8.4813-8.4813
			c-7.7346,7.4599-16.3031,14.0594-25.5537,19.6404l5.9987,10.39C262.278,299.2806,271.6804,292.0388,280.1554,283.8417z"/>
		<path fill="none" stroke="#00FF00" stroke-miterlimit="10" d="M322.9318,135.4655l-11.5944,3.2317
			c2.5326,10.2954,3.9459,20.178,4.1055,32.178h12C327.2812,157.8752,325.7277,146.7531,322.9318,135.4655z"/>
		<path fill="none" stroke="#00FF00" stroke-miterlimit="10" d="M210.258,22.2058c-11.3208-2.8666-22.5336-4.48-35.5336-4.6926v12
			c12,0.2101,21.9728,1.6843,32.3019,4.2869L210.258,22.2058z"/>
		<path fill="none" stroke="#00FF00" stroke-miterlimit="10" d="M327.4327,175.8752h-12c-0.2205,11-1.6924,21.4781-4.2798,31.7536
			l11.5943,3.2317C325.5986,199.5933,327.2094,187.8752,327.4327,175.8752z"/>
		<path fill="none" stroke="#00FF00" stroke-miterlimit="10" d="M321.4437,215.3126l-11.5959-3.1071
			c-3.0312,10.4639-7.2309,20.4343-12.4434,29.767l10.3907,5.9991C313.5261,237.7401,318.1353,226.8001,321.4437,215.3126z"/>
		<path fill="none" stroke="#00FF00" stroke-miterlimit="10" d="M247.7915,307.8951l-5.9991-10.3907
			c-9.3337,5.1953-19.3029,9.3795-29.7642,12.395l3.1071,11.596C226.6203,318.2028,237.5588,313.6088,247.7915,307.8951z"/>
		<path fill="none" stroke="#00FF00" stroke-miterlimit="10" d="M47.6666,242.1907c-5.2484-9.3583-9.4764-19.3611-12.5285-29.8611
			l-11.5959,3.1071c3.3295,11.5236,7.9667,22.4961,13.7338,32.7531L47.6666,242.1907z"/>
	</g>
	<g id="hud1-ring4" opacity="0.3">
		<path fill="none" stroke="#00FF00" stroke-miterlimit="10" d="M24.7161,84.5358l10.39,5.9987
			c6.3561-10.6158,13.9067-20.4358,22.4659-29.2761l-8.4813-8.4813C39.7939,62.3574,31.6008,73.0114,24.7161,84.5358z"/>
		<path fill="none" stroke="#00FF00" stroke-miterlimit="10" d="M57.9692,284.0949c-8.5615-8.7805-16.129-18.5332-22.5085-29.0837
			l-10.39,5.9987c6.9086,11.4588,15.118,22.046,24.4172,31.5663L57.9692,284.0949z"/>
		<path fill="none" stroke="#00FF00" stroke-miterlimit="10" d="M52.6244,49.2397l8.4813,8.4813
			c8.8309-8.573,18.6419-16.1393,29.2513-22.5104l-5.9986-10.3899C72.8404,31.7203,62.1952,39.9291,52.6244,49.2397z"/>
		<path fill="none" stroke="#00FF00" stroke-miterlimit="10" d="M90.703,309.9405c-10.5779-6.3161-20.3699-13.815-29.1905-22.3178
			l-8.4813,8.4813c9.5609,9.2401,20.1865,17.382,31.6732,24.2265L90.703,309.9405z"/>
		<path fill="none" stroke="#00FF00" stroke-miterlimit="10" d="M339.3571,131.0643l-11.5944,3.2317
			c2.9058,11.7009,4.5178,23.5792,4.6801,36.5792h12.0001C344.279,156.8752,342.5267,143.7571,339.3571,131.0643z"/>
		<path fill="none" stroke="#00FF00" stroke-miterlimit="10" d="M88.6857,22.316l5.999,10.3906
			c10.6779-5.9666,22.1-10.7542,34.098-14.1645l-3.1059-11.5916C112.6551,10.6372,100.2621,15.8306,88.6857,22.316z"/>
		<path fill="none" stroke="#00FF00" stroke-miterlimit="10" d="M95.0356,312.436l-5.9991,10.3907
			c11.5352,6.4269,23.8779,11.5705,36.8411,15.2235l3.1059-11.5916C117.0441,323.0819,105.6722,318.3444,95.0356,312.436z"/>
		<path fill="none" stroke="#00FF00" stroke-miterlimit="10" d="M32.9465,250.6893c-5.9833-10.6314-10.7911-22.0078-14.236-33.958
			l-11.596,3.1071c3.7217,12.974,8.9389,25.3201,15.4413,36.8499L32.9465,250.6893z"/>
		<path fill="none" stroke="#00FF00" stroke-miterlimit="10" d="M287.6239,61.5113c8.5157,8.8339,16.0242,18.642,22.3463,29.2383
			l10.39-5.9987c-6.8505-11.505-15.0021-22.1467-24.2549-31.7209L287.6239,61.5113z"/>
		<path fill="none" stroke="#00FF00" stroke-miterlimit="10" d="M17.4014,212.1557c-2.9813-11.7186-4.6602-24.2805-4.8853-36.2805
			h-12c0.2272,13,2.0451,26.8019,5.2909,39.5121L17.4014,212.1557z"/>
		<path fill="none" stroke="#00FF00" stroke-miterlimit="10" d="M133.3656,17.26c11.7469-2.942,24.3588-4.5782,36.3588-4.7532v-12
			c-13,0.1765-26.8519,1.9528-39.5905,5.1589L133.3656,17.26z"/>
		<path fill="none" stroke="#00FF00" stroke-miterlimit="10" d="M254.9645,35.4312c10.5687,6.3855,20.3379,13.9625,29.1316,22.5368
			l8.4813-8.4813c-9.5334-9.312-20.1371-17.5309-31.6143-24.4454L254.9645,35.4312z"/>
		<path fill="none" stroke="#00FF00" stroke-miterlimit="10" d="M6.9029,125.8553l11.5916,3.106
			c3.3943-11.9954,8.1628-23.4175,14.1118-34.0965l-10.3906-5.999C15.748,100.4432,10.5734,112.8361,6.9029,125.8553z"/>
		<path fill="none" stroke="#00FF00" stroke-miterlimit="10" d="M322.8552,89.0839l-10.3906,5.9991
			c5.9128,10.6533,10.6501,22.0442,14.0236,34.0032l11.5916-3.106C334.4301,112.9974,329.2866,100.6358,322.8552,89.0839z"/>
		<path fill="none" stroke="#00FF00" stroke-miterlimit="10" d="M0.5059,170.8752H12.506c0.163-13,1.7855-25.0908,4.7109-36.83
			l-11.5944-2.9817C2.4331,143.7946,0.6704,156.8752,0.5059,170.8752z"/>
		<path fill="none" stroke="#00FF00" stroke-miterlimit="10" d="M344.4327,175.8752h-12c-0.2243,12-1.8931,24.4742-4.8545,36.1547
			l11.5944,3.2317C342.3984,202.5896,344.2062,188.8752,344.4327,175.8752z"/>
		<path fill="none" stroke="#00FF00" stroke-miterlimit="10" d="M250.2911,312.2245
			c-10.6071,5.9297-21.9496,10.6945-33.8611,14.1025l3.1071,11.5959c12.9354-3.6847,25.2473-8.8593,36.7531-15.3078
			L250.2911,312.2245z"/>
		<path fill="none" stroke="#00FF00" stroke-miterlimit="10" d="M214.6591,5.7805c-12.7257-3.2412-25.9347-5.0517-39.9347-5.2673v12
			c13,0.2136,24.9689,1.8849,36.703,4.8616L214.6591,5.7805z"/>
		<path fill="none" stroke="#00FF00" stroke-miterlimit="10" d="M211.3502,327.621c-11.6727,2.9449-23.6258,4.5997-36.6258,4.8121
			v12c14-0.2145,26.9431-2.0087,39.6075-5.2178L211.3502,327.621z"/>
		<path fill="none" stroke="#00FF00" stroke-miterlimit="10" d="M292.1706,295.8569l-8.4813-8.4813
			c-8.7835,8.5042-18.5334,16.0137-29.0708,22.3443l5.9987,10.39C272.063,313.2505,282.647,305.0985,292.1706,295.8569z"/>
		<path fill="none" stroke="#00FF00" stroke-miterlimit="10" d="M320.0054,260.7947l-10.39-5.9987
			c-6.3453,10.5309-13.8709,20.2717-22.3889,29.0458l8.4813,8.4813C304.9634,282.8091,313.1312,272.2342,320.0054,260.7947z"/>
		<path fill="none" stroke="#00FF00" stroke-miterlimit="10" d="M337.8713,219.7144l-11.596-3.1072
			c-3.4239,11.914-8.2037,23.258-14.1508,33.8639l10.3907,5.9991C328.9813,244.9658,334.1706,232.6523,337.8713,219.7144z"/>
		<path fill="none" stroke="#00FF00" stroke-miterlimit="10" d="M130.4612,339.3301c12.6772,3.1741,26.2632,4.9338,39.2632,5.1094
			v-12c-12-0.1739-24.5962-1.7935-36.2816-4.7037L130.4612,339.3301z"/>
		<path fill="none" stroke="#00FF00" stroke-miterlimit="10" d="M250.642,32.9182l5.999-10.3907
			c-11.5466-6.5069-23.9108-11.7263-36.9044-15.4447l-3.1071,11.5959C228.5992,22.1204,239.9938,26.9303,250.642,32.9182z"/>
	</g>
</g>
</svg>
