<?xml version="1.0" encoding="utf-8"?>
<!-- Generator: Adobe Illustrator 17.0.0, SVG Export Plug-In . SVG Version: 6.00 Build 0)  -->
<!DOCTYPE svg PUBLIC "-//W3C//DTD SVG 1.1//EN" "http://www.w3.org/Graphics/SVG/1.1/DTD/svg11.dtd">
<svg version="1.1" id="hud1" xmlns="http://www.w3.org/2000/svg" xmlns:xlink="http://www.w3.org/1999/xlink" x="0px" y="0px"
	 width="310.9494px" height="310.9472px" viewBox="0 0 310.9494 310.9472" enable-background="new 0 0 310.9494 310.9472"
	 xml:space="preserve">
<g id="hud1-wrap">
	<g id="hud1-bg">
		<g id="hud1-rings">
			<circle id="hud1-center1" fill="none" stroke="#AAFF00" stroke-miterlimit="10" cx="156.3396" cy="155.5424" r="96.5"/>
			<circle id="hud1-center2" fill="none" stroke="#AAFF00" stroke-miterlimit="10" cx="156.3396" cy="155.5424" r="104.5"/>
			<g id="hud1-ring1" opacity="0.9">
				<path fill="none" stroke="#9933FF" stroke-miterlimit="10" d="M99.1975,248.7837c-6.718-4.0668-12.9628-8.839-18.6332-14.212
					l-8.4863,8.4863c6.4126,6.1088,13.495,11.5189,21.1208,16.1157L99.1975,248.7837z"/>
				<path fill="none" stroke="#9933FF" stroke-miterlimit="10" d="M251.3042,103.5796c3.7136,6.8303,6.7146,14.1012,8.9107,21.7098
					l11.5959-3.1071c-2.4738-8.6321-5.8853-16.8715-10.1156-24.602L251.3042,103.5796z"/>
				<path fill="none" stroke="#9933FF" stroke-miterlimit="10" d="M37.8988,127.1425c-2.07,8.5146-3.2368,16.7332-3.3925,26.7332
					h11.9999c0.1526-9,1.1788-15.9796,2.9869-23.5015L37.8988,127.1425z"/>
				<path fill="none" stroke="#9933FF" stroke-miterlimit="10" d="M59.767,103.3612l-10.3907-5.999
					c-4.2655,7.7568-7.7062,16.0276-10.2007,24.6961l11.5959,3.1071C52.9881,117.5204,56.0185,110.2181,59.767,103.3612z"/>
				<path fill="none" stroke="#9933FF" stroke-miterlimit="10" d="M125.1875,260.1828c-7.5893-2.1987-14.8419-5.1976-21.6555-8.9066
					l-5.9991,10.3907c7.7138,4.2257,15.9348,7.6353,24.5475,10.1119L125.1875,260.1828z"/>
				<path fill="none" stroke="#9933FF" stroke-miterlimit="10" d="M49.6777,181.9527c-1.8606-7.5027-2.9482-15.077-3.1589-23.077
					H34.5165c0.2151,9,1.4432,17.8136,3.5668,26.3087L49.6777,181.9527z"/>
				<path fill="none" stroke="#9933FF" stroke-miterlimit="10" d="M234.5728,80.5632c5.3857,5.6839,10.1672,11.9451,14.2404,18.6811
					l10.39-5.9987c-4.603-7.644-10.0227-14.7427-16.1442-21.1686L234.5728,80.5632z"/>
				<path fill="none" stroke="#9933FF" stroke-miterlimit="10" d="M242.6626,239.2781c6.1226-6.3674,11.5587-13.3991,16.1826-20.979
					l-10.3953-6.0017c-4.0931,6.6724-8.8823,12.8735-14.2686,18.4994L242.6626,239.2781z"/>
				<path fill="none" stroke="#9933FF" stroke-miterlimit="10" d="M271.5889,189.5096l-11.596-3.1071
					c-2.2425,7.5647-5.2832,14.7886-9.0285,21.5732l10.3908,5.999C265.6178,206.2905,269.0674,198.0972,271.5889,189.5096z"/>
				<path fill="none" stroke="#9933FF" stroke-miterlimit="10" d="M261.3026,181.827l11.5944,3.2317
					c2.1044-8.4567,3.322-17.183,3.5361-26.183h-12.0023C264.2211,165.8757,263.1442,174.3628,261.3026,181.827z"/>
				<path fill="none" stroke="#9933FF" stroke-miterlimit="10" d="M218.1232,258.9532
					c7.5861-4.6098,14.6259-10.0318,21.0021-16.1413l-8.4814-8.4814c-5.6345,5.3735-11.8433,10.1492-18.5219,14.2285
					L218.1232,258.9532z"/>
				<path fill="none" stroke="#9933FF" stroke-miterlimit="10" d="M97.182,49.4768l5.9991,10.3906
					c6.8562-3.7651,14.1591-6.812,21.8069-9.0436l-3.1071-11.5959C113.2098,41.7377,104.938,45.1944,97.182,49.4768z"/>
				<path fill="none" stroke="#9933FF" stroke-miterlimit="10" d="M129.7101,49.5364c7.53-1.8237,15.2961-2.8654,23.2961-3.0292v-12
					c-9,0.1672-17.9348,1.3488-26.4574,3.4348L129.7101,49.5364z"/>
				<path fill="none" stroke="#9933FF" stroke-miterlimit="10" d="M181.2878,261.3454c-7.4562,1.826-15.2816,2.8899-23.2816,3.0881
					v12c10-0.2026,17.885-1.4053,26.3337-3.4938L181.2878,261.3454z"/>
				<path fill="none" stroke="#9933FF" stroke-miterlimit="10" d="M189.3321,271.6407c8.585-2.5062,16.7773-5.9396,24.4623-10.1854
					l-5.999-10.3907c-6.7852,3.7286-14.0085,6.7527-21.5704,8.9801L189.3321,271.6407z"/>
				<path fill="none" stroke="#9933FF" stroke-miterlimit="10" d="M71.6703,68.2857l8.4813,8.4813
					c5.6832-5.4411,11.9519-10.2748,18.702-14.3951l-6.0007-10.3935C85.1951,56.6291,78.0947,62.1082,71.6703,68.2857z"/>
				<path fill="none" stroke="#9933FF" stroke-miterlimit="10" d="M126.8057,273.0546c8.4607,2.0553,17.2006,3.2194,26.2006,3.3853
					v-12c-7-0.1624-15.6805-1.1862-23.1485-2.9797L126.8057,273.0546z"/>
				<path fill="none" stroke="#9933FF" stroke-miterlimit="10" d="M186.4245,50.9619c7.6203,2.2606,14.8942,5.3322,21.7218,9.117
					l5.999-10.3906c-7.727-4.3026-15.9704-7.7828-24.6137-10.3223L186.4245,50.9619z"/>
				<path fill="none" stroke="#9933FF" stroke-miterlimit="10" d="M184.5967,38.0569c-8.5105-2.1194-16.5905-3.3391-26.5905-3.5433
					v12c9,0.2,15.911,1.2811,23.4292,3.1376L184.5967,38.0569z"/>
				<path fill="none" stroke="#9933FF" stroke-miterlimit="10" d="M273.0814,127.2682L261.4871,130.5
					c1.7892,7.4833,2.8044,15.3757,2.9562,23.3757h11.9999C276.2882,143.8757,275.1324,135.7443,273.0814,127.2682z"/>
				<path fill="none" stroke="#9933FF" stroke-miterlimit="10" d="M51.8736,93.0304l10.39,5.9987
					c4.1064-6.7561,8.9261-13.0329,14.3542-18.7247l-8.4813-8.4813C61.9723,78.2563,56.5101,85.3666,51.8736,93.0304z"/>
				<path fill="none" stroke="#9933FF" stroke-miterlimit="10" d="M60.1071,208.1938c-3.7802-6.8109-6.8504-14.0663-9.1135-21.6672
					l-11.596,3.1071c2.5422,8.6239,6.0209,16.8489,10.3188,24.5592L60.1071,208.1938z"/>
				<path fill="none" stroke="#9933FF" stroke-miterlimit="10" d="M77.0151,231.0498c-5.4285-5.6336-10.2567-11.848-14.3831-18.5403
					l-10.3953,6.0018c4.6575,7.5995,10.1318,14.6452,16.2971,21.0198L77.0151,231.0498z"/>
				<path fill="none" stroke="#9933FF" stroke-miterlimit="10" d="M212.4633,62.6015c6.7103,4.1328,12.9406,8.9712,18.5875,14.4125
					l8.4813-8.4813c-6.3879-6.178-13.4495-11.6627-21.0671-16.3265L212.4633,62.6015z"/>
			</g>
			<g id="hud1-ring2" opacity="0.7">
				<path fill="none" stroke="#1B1F77" stroke-miterlimit="10" d="M288.2373,117.7809
					c-2.8665-10.0823-6.8588-19.6941-11.822-28.6992l-10.3906,5.999c4.4457,8.1055,8.0283,16.7484,10.6177,25.807L288.2373,117.7809
					z"/>
				<path fill="none" stroke="#1B1F77" stroke-miterlimit="10" d="M220.9657,47.8749c7.9959,4.8848,15.4037,10.6388,22.1003,17.1239
					l8.4812-8.4812c-7.437-7.2224-15.6762-13.6228-24.58-19.0377L220.9657,47.8749z"/>
				<path fill="none" stroke="#1B1F77" stroke-miterlimit="10" d="M33.2523,186.3539c-2.2334-8.9084-3.519-18.4782-3.7358-27.4782
					h-12c0.2202,10,1.6445,20.8095,4.1415,30.7099L33.2523,186.3539z"/>
				<path fill="none" stroke="#1B1F77" stroke-miterlimit="10" d="M45.387,216.6925c-4.5139-8.0849-8.1627-16.714-10.821-25.7642
					L22.97,194.0354c2.9364,10.0735,6.994,19.6722,12.0262,28.6561L45.387,216.6925z"/>
				<path fill="none" stroke="#1B1F77" stroke-miterlimit="10" d="M246.5939,68.5421c6.4282,6.7349,12.1149,14.1816,16.9385,22.204
					l10.3899-5.9986c-5.3527-8.9306-11.6824-17.2107-18.8471-24.6867L246.5939,68.5421z"/>
				<path fill="none" stroke="#1B1F77" stroke-miterlimit="10" d="M17.5063,153.8757h12c0.1569-10,1.3821-19.0996,3.5615-28.0276
					l-11.5942-2.9817C19.0312,132.7867,17.6656,142.8757,17.5063,153.8757z"/>
				<path fill="none" stroke="#1B1F77" stroke-miterlimit="10" d="M90.6994,263.5028
					c-8.0042-4.8174-15.4346-10.4947-22.1562-16.9101l-8.4813,8.4813c7.4627,7.1518,15.7264,13.472,24.6389,18.8187
					L90.6994,263.5028z"/>
				<path fill="none" stroke="#1B1F77" stroke-miterlimit="10" d="M64.9999,243.065c-6.4723-6.6832-12.2159-14.0753-17.0945-22.053
					l-10.3953,6.0017c5.4088,8.8856,11.799,17.1088,19.0085,24.5326L64.9999,243.065z"/>
				<path fill="none" stroke="#1B1F77" stroke-miterlimit="10" d="M22.7481,117.6565l11.5959,3.1071
					c2.61-9.0949,6.2218-17.7695,10.7029-25.9011l-10.3906-5.999C29.6573,97.8945,25.6352,107.5379,22.7481,117.6565z"/>
				<path fill="none" stroke="#1B1F77" stroke-miterlimit="10" d="M288.0164,193.9114l-11.5959-3.1071
					c-2.6375,9.014-6.2575,17.6111-10.7359,25.67l10.3906,5.9991C281.0717,213.5154,285.1009,203.9487,288.0164,193.9114z"/>
				<path fill="none" stroke="#1B1F77" stroke-miterlimit="10" d="M251.1405,254.827l-8.4813-8.4813
					c-6.6851,6.4163-14.0723,12.1059-22.0366,16.9366l5.9987,10.3899C235.4935,268.3118,243.7145,261.9799,251.1405,254.827z"/>
				<path fill="none" stroke="#1B1F77" stroke-miterlimit="10" d="M88.6833,34.7567l5.999,10.3906
					c8.1307-4.4981,16.8063-8.1255,25.9039-10.751l-3.1071-11.5959C107.358,25.7032,97.7133,29.7406,88.6833,34.7567z"/>
				<path fill="none" stroke="#1B1F77" stroke-miterlimit="10" d="M222.2931,276.1754l-5.9991-10.3906
					c-8.0598,4.4614-16.6559,8.0654-25.6673,10.6876l3.1071,11.5959C203.7687,285.1684,213.334,281.1548,222.2931,276.1754z"/>
				<path fill="none" stroke="#1B1F77" stroke-miterlimit="10" d="M273.5676,226.7991l-10.391-5.9993
					c-4.845,7.9582-10.5505,15.3361-16.9801,22.0122l8.4813,8.4813C261.8442,243.8764,268.1927,235.6651,273.5676,226.7991z"/>
				<path fill="none" stroke="#1B1F77" stroke-miterlimit="10" d="M120.7857,276.6104
					c-9.0391-2.5923-17.6637-6.1729-25.7524-10.6141l-5.999,10.3906c8.9883,4.9587,18.5816,8.95,28.6443,11.8194L120.7857,276.6104z
					"/>
				<path fill="none" stroke="#1B1F77" stroke-miterlimit="10" d="M185.6889,277.7708c-8.8621,2.198-17.6827,3.4586-27.6827,3.6627
					v12.0001c11-0.2075,20.8806-1.6072,30.7348-4.0685L185.6889,277.7708z"/>
				<path fill="none" stroke="#1B1F77" stroke-miterlimit="10" d="M188.9978,21.6316c-9.9158-2.4927-19.9916-3.909-30.9916-4.1179
					v12.0001c10,0.2057,18.9065,1.4831,27.8303,3.7122L188.9978,21.6316z"/>
				<path fill="none" stroke="#1B1F77" stroke-miterlimit="10" d="M125.309,33.1111c8.936-2.1955,18.6972-3.4353,27.6972-3.6038v-12
					c-10,0.1711-20.9303,1.551-30.8585,4.0095L125.309,33.1111z"/>
				<path fill="none" stroke="#1B1F77" stroke-miterlimit="10" d="M293.433,158.8757h-12c-0.2158,9-1.4911,18.4823-3.7051,27.3525
					l11.5943,3.2317C291.7997,179.5978,293.2137,168.8757,293.433,158.8757z"/>
				<path fill="none" stroke="#1B1F77" stroke-miterlimit="10" d="M37.1545,84.5324l10.3899,5.9986
					c4.8572-8.0422,10.587-15.4998,17.0582-22.2419l-8.4812-8.4812C48.9136,67.2908,42.5411,75.5821,37.1545,84.5324z"/>
				<path fill="none" stroke="#1B1F77" stroke-miterlimit="10" d="M289.5067,122.8671l-11.5942,3.2317
					c2.1603,8.8896,3.3745,17.7769,3.5307,27.7769h12C293.2845,142.8757,291.9297,132.7491,289.5067,122.8671z"/>
				<path fill="none" stroke="#1B1F77" stroke-miterlimit="10" d="M122.4045,289.4799c9.8666,2.4274,20.6017,3.7901,30.6017,3.96
					v-12c-9-0.1672-18.6754-1.3898-27.5496-3.5543L122.4045,289.4799z"/>
				<path fill="none" stroke="#1B1F77" stroke-miterlimit="10" d="M190.8262,34.5343c9.0696,2.6555,17.717,6.306,25.8187,10.8245
					l5.999-10.3906c-9.0006-5.0369-18.6176-9.0963-28.7106-12.0297L190.8262,34.5343z"/>
				<path fill="none" stroke="#1B1F77" stroke-miterlimit="10" d="M59.6551,56.2706l8.4812,8.4812
					c6.7332-6.4844,14.1811-12.231,22.2171-17.1025l-5.9987-10.3899C75.4107,42.6604,67.129,49.0492,59.6551,56.2706z"/>
			</g>
			<g id="hud1-ring3" opacity="0.4">
				<path fill="none" stroke="#1B1F77" stroke-miterlimit="10" d="M195.228,18.1068c10.5195,3.0491,20.5405,7.2791,29.9155,12.532
					l5.9991-10.3907c-10.2737-5.7717-21.2643-10.4109-32.8075-13.7372L195.228,18.1068z"/>
				<path fill="none" stroke="#1B1F77" stroke-miterlimit="10" d="M80.1847,20.0365l5.9991,10.3907
					c9.4046-5.232,19.4531-9.4402,30.0007-12.4585l-3.1071-11.596C101.5059,9.6678,90.4882,14.2861,80.1847,20.0365z"/>
				<path fill="none" stroke="#1B1F77" stroke-miterlimit="10" d="M82.2013,278.2219c-9.2909-5.5671-17.9019-12.1552-25.6733-19.614
					l-8.4813,8.4813c8.5121,8.1957,17.9567,15.4267,28.1561,21.5225L82.2013,278.2219z"/>
				<path fill="none" stroke="#1B1F77" stroke-miterlimit="10" d="M52.9847,255.0802
					c-7.5167-7.7322-14.1752-16.3027-19.8047-25.5665l-10.3899,5.9987c6.159,10.172,13.4591,19.577,21.7133,28.0492
					L52.9847,255.0802z"/>
				<path fill="none" stroke="#1B1F77" stroke-miterlimit="10" d="M118.0033,305.9052c11.272,2.8005,23.0029,4.3616,35.0029,4.5347
					v-12c-11-0.1709-21.6707-1.592-31.9507-4.129L118.0033,305.9052z"/>
				<path fill="none" stroke="#1B1F77" stroke-miterlimit="10" d="M47.6399,44.2554l8.4813,8.4813
					c7.7823-7.5284,16.4117-14.1848,25.7341-19.8065l-5.9987-10.39C65.6259,28.691,56.1625,35.9897,47.6399,44.2554z"/>
				<path fill="none" stroke="#1B1F77" stroke-miterlimit="10" d="M6.3246,113.2558l11.5919,3.106
					c3.0025-10.5452,7.1956-20.5922,12.4103-29.9979l-10.3907-5.9991C14.2031,90.6694,9.6038,101.687,6.3246,113.2558z"/>
				<path fill="none" stroke="#1B1F77" stroke-miterlimit="10" d="M190.0901,294.1961
					c-10.2676,2.5711-20.0839,4.0287-32.0839,4.2375v12c13-0.2114,23.8765-1.8082,35.136-4.6431L190.0901,294.1961z"/>
				<path fill="none" stroke="#1B1F77" stroke-miterlimit="10" d="M229.4667,33.1508c9.282,5.6356,17.8691,12.3034,25.6145,19.8329
					l8.4813-8.4813c-8.4854-8.267-17.9069-15.5765-28.0972-21.7415L229.4667,33.1508z"/>
				<path fill="none" stroke="#1B1F77" stroke-miterlimit="10" d="M0.5063,153.8757h12c0.1603-12,1.5842-22.095,4.1362-32.4288
					l-11.5944-2.9817C2.2327,129.7911,0.6685,140.8757,0.5063,153.8757z"/>
				<path fill="none" stroke="#1B1F77" stroke-miterlimit="10" d="M16.827,190.7551c-2.6071-10.3137-4.0892-20.8793-4.3105-31.8793
					h-12c0.2241,12,1.845,23.8057,4.7162,35.111L16.827,190.7551z"/>
				<path fill="none" stroke="#1B1F77" stroke-miterlimit="10" d="M291.1354,80.583l-10.3907,5.9991
					c5.179,9.3798,9.3405,19.3959,12.3223,29.9047l11.5916-3.106C301.4003,101.8484,296.8324,90.8617,291.1354,80.583z"/>
				<path fill="none" stroke="#1B1F77" stroke-miterlimit="10" d="M258.6089,56.527c7.4716,7.7847,14.0693,16.412,19.6424,25.7211
					l10.39-5.9987c-6.1018-10.2176-13.3425-19.6784-21.551-28.2038L258.6089,56.527z"/>
				<path fill="none" stroke="#1B1F77" stroke-miterlimit="10" d="M120.9078,16.6858c10.3416-2.5684,21.0984-4.0065,32.0984-4.1785
					v-12c-12,0.1741-23.9261,1.7521-35.2597,4.5842L120.9078,16.6858z"/>
				<path fill="none" stroke="#1B1F77" stroke-miterlimit="10" d="M22.4355,76.0343l10.39,5.9987
					c5.607-9.3288,12.2472-17.9675,19.762-25.759l-8.4813-8.4813C35.8541,56.3246,28.5713,65.7972,22.4355,76.0343z"/>
				<path fill="none" stroke="#1B1F77" stroke-miterlimit="10" d="M288.2867,235.2971l-10.3899-5.9986
					c-5.5955,9.2443-12.2116,17.8032-19.6851,25.5287l8.4813,8.4813C274.9037,254.8428,282.1618,245.4496,288.2867,235.2971z"/>
				<path fill="none" stroke="#1B1F77" stroke-miterlimit="10" d="M116.384,293.0377
					c-10.4893-2.9849-20.4865-7.1469-29.8494-12.3213l-5.999,10.3907c10.262,5.6924,21.2296,10.2607,32.7425,13.5222
					L116.384,293.0377z"/>
				<path fill="none" stroke="#1B1F77" stroke-miterlimit="10" d="M263.1557,266.8422l-8.4813-8.4813
					c-7.7346,7.4599-16.3031,14.0594-25.5537,19.6404l5.9987,10.39C245.2783,282.2811,254.6806,275.0392,263.1557,266.8422z"/>
				<path fill="none" stroke="#1B1F77" stroke-miterlimit="10" d="M305.9321,118.466l-11.5944,3.2317
					c2.5326,10.2954,3.9459,20.178,4.1055,32.178h12C310.2816,140.8757,308.728,129.7535,305.9321,118.466z"/>
				<path fill="none" stroke="#1B1F77" stroke-miterlimit="10" d="M193.399,5.2063c-11.3208-2.8666-22.3928-4.48-35.3928-4.6926v12
					c12,0.2101,21.9024,1.6843,32.2315,4.2869L193.399,5.2063z"/>
				<path fill="none" stroke="#1B1F77" stroke-miterlimit="10" d="M310.433,158.8757h-12c-0.2205,11-1.6924,21.4781-4.2798,31.7536
					l11.5943,3.2317C308.5989,182.5938,310.2097,170.8757,310.433,158.8757z"/>
				<path fill="none" stroke="#1B1F77" stroke-miterlimit="10" d="M304.444,198.3131l-11.5959-3.1071
					c-3.0312,10.4639-7.2309,20.4343-12.4434,29.767l10.3907,5.9991C296.5264,220.7406,301.1356,209.8006,304.444,198.3131z"/>
				<path fill="none" stroke="#1B1F77" stroke-miterlimit="10" d="M230.7918,290.8956l-5.9991-10.3907
					c-9.3337,5.1953-19.3029,9.3795-29.7642,12.395l3.1071,11.596C209.6207,301.2033,220.5591,296.6093,230.7918,290.8956z"/>
				<path fill="none" stroke="#1B1F77" stroke-miterlimit="10" d="M30.6669,225.1911c-5.2484-9.3583-9.4764-19.3611-12.5285-29.8611
					l-11.5959,3.1071c3.3295,11.5236,7.9667,22.4961,13.7338,32.7531L30.6669,225.1911z"/>
			</g>
		</g>
		<g id="hud1-sphere" transform="scale(200, -200) translate(1, -1)" opacity="0.5">
			<g id="hud1-sphere-front">
				<g id="hud1-sphere-half">
					<g id="hud1-meridians">
						<path id="hud1-meridian0" fill="#1B1F77" d="M-0.2342,0.7156c0.0094,0.0003,0.023-0.2205,0.0302-0.4931
							s0.0055-0.4938-0.004-0.494c0.0014,0,0.0029,0.0001,0.0043,0.0001c0.0094,0.0003,0.0112,0.2214,0.004,0.494
							S-0.2204,0.716-0.2298,0.7158C-0.2313,0.7157-0.2327,0.7157-0.2342,0.7156z"/>
						<path id="hud1-meridian1" fill="#1B1F77" d="M-0.2871,0.7111c0.0464,0.0064,0.1136-0.2075,0.1501-0.4778
							s0.0285-0.4945-0.0179-0.5009c0,0,0,0-0.0001,0c0.0014,0.0002,0.0029,0.0004,0.0043,0.0006
							c0.0464,0.0064,0.0544,0.2306,0.0179,0.5009c-0.0365,0.2701-0.1036,0.4839-0.15,0.4778
							C-0.2842,0.7115-0.2856,0.7114-0.2871,0.7111z"/>
						<path id="hud1-meridian2" fill="#1B1F77" d="M-0.3418,0.7003c0.0802,0.0205,0.1993-0.1772,0.2661-0.4416
							S-0.0198-0.2366-0.1-0.2571c-0.0001,0-0.0002-0.0001-0.0003-0.0001c0.0015,0.0004,0.0029,0.0007,0.0044,0.0011
							c0.0802,0.0205,0.0911,0.2515,0.0244,0.5159c-0.0667,0.264-0.1856,0.4616-0.2658,0.4417
							C-0.3389,0.7011-0.3403,0.7007-0.3418,0.7003z"/>
						<path id="hud1-meridian3" fill="#1B1F77" d="M-0.3996,0.6816c0.1082,0.0425,0.276-0.1291,0.3748-0.3833
							s0.0912-0.4947-0.017-0.5371C-0.0421-0.2389-0.0423-0.239-0.0426-0.2391c0.0015,0.0006,0.003,0.0011,0.0044,0.0017
							c0.1082,0.0425,0.1158,0.283,0.017,0.5371c-0.0985,0.2535-0.2658,0.425-0.3741,0.3836
							C-0.3967,0.6828-0.3982,0.6822-0.3996,0.6816z"/>
						<path id="hud1-meridian4" fill="#1B1F77" d="M-0.4616,0.6521C-0.3344,0.7239-0.1232,0.5892,0.01,0.3513
							s0.138-0.4891,0.0107-0.5609C0.0203-0.2099,0.0198-0.2101,0.0194-0.2103c0.0015,0.0008,0.003,0.0017,0.0045,0.0025
							c0.1273,0.0718,0.1225,0.323-0.0107,0.5609c-0.1327,0.2371-0.3429,0.3718-0.4704,0.3015
							C-0.4587,0.6537-0.4602,0.6529-0.4616,0.6521z"/>
						<path id="hud1-meridian5" fill="#1B1F77" d="M-0.5279,0.6072c0.1339,0.1074,0.3802,0.0216,0.5501-0.1917
							s0.1992-0.4732,0.0653-0.5806C0.0869-0.1655,0.0864-0.166,0.0858-0.1664C0.0873-0.1653,0.0887-0.1641,0.0902-0.163
							c0.1339,0.1074,0.1047,0.3674-0.0653,0.5806c-0.1691,0.2122-0.4141,0.2984-0.5485,0.193
							C-0.525,0.6095-0.5265,0.6084-0.5279,0.6072z"/>
						<path id="hud1-meridian6" fill="#1B1F77" d="M-0.5961,0.5407c0.1238,0.1466,0.3927,0.1223,0.6004-0.0543
							s0.2758-0.4386,0.152-0.5852C0.1557-0.0996,0.1551-0.1003,0.1544-0.1011C0.1557-0.0995,0.157-0.098,0.1584-0.0965
							c0.1238,0.1466,0.0558,0.4086-0.152,0.5852c-0.2065,0.1756-0.4737,0.2008-0.5985,0.0566
							C-0.5935,0.5438-0.5948,0.5423-0.5961,0.5407z"/>
						<path id="hud1-meridian7" fill="#1B1F77" d="M-0.6588,0.4463c0.0937,0.1838,0.3663,0.2319,0.6089,0.1074
							s0.3633-0.3745,0.2696-0.5583C0.2192-0.0057,0.2186-0.0068,0.218-0.0079c0.001,0.0019,0.002,0.0039,0.003,0.0059
							c0.0937,0.1838-0.027,0.4338-0.2696,0.5583c-0.2409,0.1236-0.5118,0.0772-0.6072-0.1041
							C-0.6568,0.4502-0.6578,0.4482-0.6588,0.4463z"/>
						<path id="hud1-meridian8" fill="#1B1F77" d="M-0.7022,0.3231c0.0439,0.21,0.2957,0.3344,0.5625,0.2779
							c0.2668-0.0565,0.4475-0.2725,0.4036-0.4825C0.2636,0.1171,0.2633,0.1157,0.263,0.1143
							c0.0005,0.0023,0.001,0.0045,0.0015,0.0068c0.0439,0.21-0.1368,0.426-0.4036,0.4825
							c-0.2647,0.0561-0.5152-0.066-0.5616-0.2737C-0.7012,0.3276-0.7017,0.3254-0.7022,0.3231z"/>
						<path id="hud1-meridian9" fill="#1B1F77" d="M-0.7111,0.1833c-0.017,0.2155,0.1896,0.4069,0.4615,0.4277
							c0.2719,0.0207,0.5061-0.1371,0.5231-0.3526c0.0001-0.0015,0.0002-0.0029,0.0003-0.0044
							C0.2737,0.2563,0.2735,0.2586,0.2734,0.261c-0.017,0.2155-0.2512,0.3733-0.5231,0.3526
							C-0.5195,0.593-0.7254,0.4043-0.7116,0.1903C-0.7115,0.188-0.7113,0.1856-0.7111,0.1833z"/>
						<path id="hud1-meridian10" fill="#1B1F77" d="M-0.6817,0.05c-0.0736,0.198,0.0741,0.4349,0.3299,0.5293
							s0.5229,0.0104,0.5966-0.1876c0.0005-0.0013,0.0009-0.0025,0.0014-0.0038C0.2455,0.39,0.2447,0.3921,0.2439,0.3943
							c-0.0736,0.198-0.3407,0.2819-0.5966,0.1876c-0.2539-0.0937-0.4017-0.328-0.3313-0.5255
							C-0.6832,0.0542-0.6824,0.0521-0.6817,0.05z"/>
						<path id="hud1-meridian11" fill="#1B1F77" d="M-0.6253-0.0583c-0.1135,0.1645-0.0231,0.4229,0.2018,0.5771
							S0.0758,0.6645,0.1893,0.5c0.0006-0.0009,0.0012-0.0018,0.0019-0.0027C0.1899,0.499,0.1888,0.5008,0.1876,0.5025
							C0.0741,0.667-0.2002,0.6755-0.4252,0.5213C-0.6487,0.3681-0.7396,0.1119-0.6289-0.053
							C-0.6277-0.0548-0.6265-0.0565-0.6253-0.0583z"/>
						<path id="hud1-meridian12" fill="#1B1F77" d="M-0.5579-0.1369c-0.1326,0.1253-0.0879,0.3871,0.1,0.5847
							s0.4477,0.2563,0.5804,0.131c0.0006-0.0006,0.0012-0.0012,0.0018-0.0018c-0.0014,0.0013-0.0028,0.0027-0.0042,0.004
							c-0.1326,0.1253-0.3925,0.0667-0.5804-0.131c-0.1869-0.1966-0.2323-0.4568-0.1019-0.583
							C-0.5607-0.1342-0.5593-0.1355-0.5579-0.1369z"/>
						<path id="hud1-meridian13" fill="#1B1F77" d="M-0.4899-0.1906C-0.6232-0.103-0.6093,0.1523-0.4588,0.3797
							s0.3806,0.3408,0.5139,0.2532c0.0005-0.0003,0.001-0.0006,0.0015-0.001c-0.0015,0.001-0.0029,0.002-0.0044,0.0029
							c-0.1333,0.0876-0.3634-0.0258-0.5139-0.2532c-0.1499-0.2264-0.1644-0.4808-0.0326-0.5694
							C-0.4928-0.1887-0.4914-0.1896-0.4899-0.1906z"/>
						<path id="hud1-meridian14" fill="#1B1F77" d="M-0.4256-0.2263c-0.1196,0.0552-0.1232,0.3004-0.008,0.5475
							s0.3054,0.4028,0.425,0.3476c0.0003-0.0001,0.0006-0.0003,0.0009-0.0004c-0.0015,0.0007-0.003,0.0014-0.0045,0.0021
							c-0.1196,0.0552-0.3099-0.1004-0.425-0.3476c-0.1148-0.2464-0.1116-0.491,0.0071-0.5471
							C-0.4286-0.2249-0.4271-0.2256-0.4256-0.2263z"/>
						<path id="hud1-meridian15" fill="#1B1F77" d="M-0.3658-0.2493c-0.0953,0.0298-0.1059,0.2648-0.0237,0.5248
							s0.2262,0.4466,0.3216,0.4167c0.0002,0,0.0003-0.0001,0.0005-0.0001C-0.069,0.6926-0.0704,0.693-0.0719,0.6935
							c-0.0953,0.0298-0.2393-0.1567-0.3216-0.4167c-0.0821-0.2595-0.0717-0.4942,0.0232-0.5246
							C-0.3688-0.2483-0.3673-0.2488-0.3658-0.2493z"/>
						<path id="hud1-meridian16" fill="#1B1F77" d="M-0.3098-0.2632c-0.0639,0.0121-0.0741,0.2389-0.0228,0.5068
							s0.1448,0.4751,0.2087,0.4631c0.0001,0,0.0001,0,0.0002,0C-0.1251,0.7069-0.1265,0.7072-0.128,0.7074
							c-0.0639,0.0121-0.1574-0.1953-0.2087-0.4631C-0.388-0.0232-0.3779-0.2499-0.3141-0.2624
							C-0.3127-0.2627-0.3112-0.2629-0.3098-0.2632z"/>
						<path id="hud1-meridian17" fill="#1B1F77" d="M-0.2562-0.2702C-0.2843-0.268-0.2895-0.0458-0.2677,0.226
							s0.0623,0.4904,0.0904,0.4881c-0.0014,0.0001-0.0029,0.0002-0.0043,0.0003C-0.2097,0.7167-0.2502,0.4982-0.272,0.2264
							s-0.0166-0.494,0.0115-0.4963C-0.259-0.27-0.2576-0.2701-0.2562-0.2702z"/>
					</g>
					<g id="hud1-circles-of-latitude">
						<path id="hud1-circle-of-latitude4" fill="#1B1F77" d="M-0.3536-0.2529c0.0854-0.0242,0.1841-0.0242,0.2695,0
							c-0.0043-0.0012-0.0086-0.0024-0.013-0.0035c-0.0779-0.0198-0.1657-0.0198-0.2436,0
							C-0.345-0.2553-0.3493-0.2541-0.3536-0.2529z"/>
						<path id="hud1-circle-of-latitude5" fill="#1B1F77" d="M-0.5111-0.1758c0.1338-0.0983,0.3731-0.1119,0.5345-0.0304
							c0.0182,0.0092,0.0349,0.0194,0.05,0.0304C0.0715-0.1772,0.0696-0.1786,0.0676-0.18
							c-0.1352-0.0963-0.3731-0.1077-0.5313-0.0254C-0.4787-0.1976-0.4926-0.1891-0.5054-0.18
							C-0.5073-0.1786-0.5092-0.1772-0.5111-0.1758z"/>
						<path id="hud1-circle-of-latitude6" fill="#1B1F77" d="M-0.6041-0.0867C-0.5003-0.2162-0.2436-0.27-0.0309-0.2068
							C0.055-0.1813,0.1245-0.139,0.1664-0.0867C0.1651-0.0883,0.1638-0.0899,0.1626-0.0914
							c-0.1054-0.1282-0.3616-0.1802-0.5723-0.116c-0.0825,0.0251-0.1493,0.0658-0.1906,0.116
							C-0.6016-0.0899-0.6029-0.0883-0.6041-0.0867z"/>
						<path id="hud1-circle-of-latitude7" fill="#1B1F77" d="M-0.6656,0.0118c0.0707-0.1502,0.328-0.2371,0.5748-0.194
							c0.1541,0.0269,0.2745,0.1002,0.3187,0.194C0.2271,0.0101,0.2262,0.0084,0.2254,0.0067C0.153-0.1427-0.1046-0.228-0.35-0.1839
							c-0.1508,0.0271-0.2687,0.0989-0.3132,0.1906C-0.664,0.0084-0.6648,0.0101-0.6656,0.0118z"/>
						<path id="hud1-circle-of-latitude8" fill="#1B1F77" d="M-0.7013,0.1167c0.0354-0.1622,0.2801-0.2762,0.5465-0.2546
							c0.2179,0.0176,0.3892,0.122,0.4182,0.2546C0.2631,0.1149,0.2627,0.1132,0.2623,0.1114
							C0.2251-0.0504-0.0205-0.1632-0.2863-0.1405C-0.5011-0.1222-0.67-0.0194-0.7001,0.1114
							C-0.7005,0.1132-0.7009,0.1149-0.7013,0.1167z"/>
						<path id="hud1-circle-of-latitude9" fill="#1B1F77" d="M-0.7126,0.2248c-0.0009-0.166,0.2195-0.301,0.4922-0.3015
							S0.274,0.0569,0.2749,0.2229c0,0.0006,0,0.0013,0,0.0019c0-0.0018,0-0.0036,0-0.0054
							C0.274,0.0534,0.0523-0.0807-0.2204-0.0802c-0.2715,0.0005-0.4913,0.1344-0.4922,0.2996
							C-0.7126,0.2212-0.7126,0.223-0.7126,0.2248z"/>
						<path id="hud1-circle-of-latitude10" fill="#1B1F77" d="M-0.7001,0.3329c-0.0372-0.1618,0.148-0.3113,0.4138-0.334
							S0.2251,0.089,0.2623,0.2508c0.0063,0.0272,0.0063,0.0549,0,0.0821c0.0004-0.0018,0.0008-0.0036,0.0012-0.0053
							c0.0354-0.1622-0.1518-0.3111-0.4182-0.3327s-0.5111,0.0924-0.5465,0.2546c-0.0057,0.0259-0.0057,0.0522,0,0.0781
							C-0.7009,0.3293-0.7005,0.3311-0.7001,0.3329z"/>
						<path id="hud1-circle-of-latitude11" fill="#1B1F77" d="M-0.6632,0.4375C-0.7356,0.2882-0.5954,0.1313-0.35,0.0872
							s0.503,0.0413,0.5754,0.1906c0.0253,0.0521,0.0253,0.1076,0,0.1597c0.0008-0.0017,0.0016-0.0034,0.0024-0.0051
							c0.0707-0.1502-0.072-0.3068-0.3187-0.3499s-0.5041,0.0438-0.5748,0.194c-0.024,0.0509-0.024,0.1049,0,0.1559
							C-0.6648,0.4341-0.664,0.4358-0.6632,0.4375z"/>
						<path id="hud1-circle-of-latitude12" fill="#1B1F77" d="M-0.6003,0.5357c-0.1054-0.1282-0.0201-0.2842,0.1906-0.3484
							s0.4669-0.0122,0.5723,0.116c0.0601,0.0731,0.0601,0.1592,0,0.2324C0.1638,0.5341,0.1651,0.5325,0.1664,0.531
							c0.1038-0.1295,0.0155-0.2858-0.1973-0.349s-0.4694-0.0094-0.5733,0.1201c-0.0579,0.0722-0.0579,0.1567,0,0.2289
							C-0.6029,0.5325-0.6016,0.5341-0.6003,0.5357z"/>
						<path id="hud1-circle-of-latitude13" fill="#1B1F77" d="M-0.5054,0.6243c-0.1352-0.0963-0.1165-0.2411,0.0417-0.3234
							s0.3961-0.0709,0.5313,0.0254c0.1205,0.0858,0.1205,0.2122,0,0.2981c0.0019-0.0014,0.0038-0.0028,0.0058-0.0042
							c0.1338-0.0983,0.1114-0.244-0.05-0.3254s-0.4007-0.0678-0.5345,0.0304c-0.1165,0.0855-0.1165,0.2094,0,0.295
							C-0.5092,0.6215-0.5073,0.6229-0.5054,0.6243z"/>
						<path id="hud1-circle-of-latitude14" fill="#1B1F77" d="M-0.3407,0.7006c-0.1609-0.0409-0.2368-0.1535-0.1695-0.2515
							S-0.258,0.305-0.0971,0.346s0.2368,0.1535,0.1695,0.2515c-0.032,0.0466-0.0929,0.0837-0.1695,0.1032
							c0.0043-0.0011,0.0087-0.0023,0.013-0.0035c0.1597-0.0453,0.2288-0.1609,0.1544-0.2581s-0.2642-0.1393-0.4239-0.094
							S-0.5825,0.5059-0.508,0.6031c0.0317,0.0414,0.0864,0.0747,0.1544,0.094C-0.3493,0.6984-0.345,0.6995-0.3407,0.7006z"/>
						<path id="hud1-circle-of-latitude15" fill="#1B1F77" d="M-0.4639,0.5622c0,0.0824,0.1097,0.1492,0.245,0.1492
							s0.245-0.0668,0.245-0.1492s-0.1097-0.1492-0.245-0.1492S-0.4639,0.4798-0.4639,0.5622L-0.4639,0.5622z M-0.4676,0.5605
							c0-0.0836,0.1113-0.1514,0.2487-0.1514s0.2488,0.0678,0.2488,0.1514c0,0,0,0,0,0c0,0.0836-0.1113,0.1514-0.2487,0.1514
							S-0.4676,0.6442-0.4676,0.5605C-0.4676,0.5605-0.4676,0.5605-0.4676,0.5605z"/>
						<path id="hud1-circle-of-latitude16" fill="#1B1F77" d="M-0.3857,0.5908c0,0.0561,0.0747,0.1016,0.1669,0.1016
							S-0.052,0.6469-0.052,0.5908c0-0.0561-0.0747-0.1016-0.1669-0.1016S-0.3857,0.5347-0.3857,0.5908z M-0.3898,0.5896
							c0-0.0575,0.0765-0.104,0.1709-0.104s0.1709,0.0466,0.1709,0.104c0,0.0575-0.0765,0.104-0.1709,0.104
							S-0.3898,0.6471-0.3898,0.5896z"/>
						<path id="hud1-circle-of-latitude17" fill="#1B1F77" d="M-0.3025,0.6082c0,0.0281,0.0374,0.0509,0.0836,0.0509
							s0.0836-0.0228,0.0836-0.0509c0-0.0281-0.0374-0.0509-0.0836-0.0509S-0.3025,0.5801-0.3025,0.6082z M-0.3067,0.6076
							c0-0.0295,0.0393-0.0535,0.0878-0.0535S-0.131,0.578-0.131,0.6076c0,0,0,0,0,0c0,0.0295-0.0393,0.0535-0.0878,0.0535
							C-0.2674,0.6611-0.3067,0.6372-0.3067,0.6076C-0.3067,0.6076-0.3067,0.6076-0.3067,0.6076z"/>
					</g>
				</g>
			</g>
		</g>
		<defs>
			<filter id="Adobe_OpacityMaskFilter" filterUnits="userSpaceOnUse" x="56.3912" y="55.4961" width="198.713" height="199.0288">
				<feColorMatrix  type="matrix" values="1 0 0 0 0  0 1 0 0 0  0 0 1 0 0  0 0 0 1 0"/>
			</filter>
		</defs>
		<mask maskUnits="userSpaceOnUse" x="56.3912" y="55.4961" width="198.713" height="199.0288" id="hud1-countries_1_">
			<g filter="url(#Adobe_OpacityMaskFilter)">
				<radialGradient id="SVGID_1_" cx="156.3019" cy="155.1381" r="99.4255" gradientUnits="userSpaceOnUse">
					<stop  offset="0.6847" style="stop-color:#FFFFFF"/>
					<stop  offset="0.7516" style="stop-color:#CDCDCD"/>
					<stop  offset="0.9032" style="stop-color:#525252"/>
					<stop  offset="1" style="stop-color:#000000"/>
				</radialGradient>
				<circle fill="url(#SVGID_1_)" cx="156.3019" cy="155.1381" r="99.4255"/>
			</g>
		</mask>
		<g id="hud1-countries" opacity="0.4" mask="url(#hud1-countries_1_)">
			<path fill="none" d="M246.2801,114.2971c-0.1916-0.422-0.3904-0.8398-0.5877-1.2586v1.3401L246.2801,114.2971z"/>
			<path fill="none" d="M225.3352,92.797l0.4369,1.4518l6.9678,0.0637l0.6608-0.9836c-1.1907-1.4884-2.4221-2.9425-3.695-4.3589
				l-0.006,1.6106L225.3352,92.797z"/>
			<polygon fill="none" points="126.9259,106.0363 125.374,105.0714 124.4547,106.0363 125.6835,107.0603 			"/>
			<polygon fill="none" points="120.5062,105.3757 120.5062,101.3757 120.5062,101.3757 120.5062,101.3757 114.8427,101.3757 
				111.9254,102.5273 111.3565,104.3634 113.6321,105.3757 			"/>
			<polygon fill="none" points="117.05,105.3757 113.6958,105.3757 111.3565,107.9111 110.9742,110.4439 112.7492,111.3915 			"/>
			<polygon fill="none" points="109.8273,97.4119 110.6556,94.1851 108.2526,93.6117 105.5948,94.8769 107.2332,98.2356 			"/>
			<path fill="none" d="M231.5062,212.5057l-4-5.2156v-8.1192l-2.997-2.9446l-0.2742-3.3769l3.745-7.1726l-7.1319-12.5748
				l0.8441-8.5288l-6.4138-1.2522l-2.3632-2.9452h-4.3099l-2.1891,3h-7.5913H198.57h-4.2235l-9.6985-10.6176l0.082-8.3945
				l1.602-1.14l0.5962-3.8479h-2.2756l-0.1512-2.7979l12.0048-7.44v-5.739l4.7115-2.6477l1.4392,0.6246h4.5238l4.2351-2.2994
				l12.0904-1.289v5.8255l8.2942,2.3889l1.0715,1.374h1.6343v-3.3852l5.1949-0.3964l4.94,3.7816h6.4209
				c-0.8538-2-1.832-5.8482-2.9365-8.6278l-2.8655-0.0051l-2.6533-2.9399l-0.5097-4.6967l-2.717,1.4769l-1.4609,5.722
				l-3.9231-4.1796l-0.1593-3.9467l-3.7911-2.8367l-1.4017-0.9662h-4.3964l1.3927,3.4917l5.2884,2.7357l0.9193,0.8673
				l-1.1423,0.5201l0.0501,3.0772l-2.576,1.0607l-2.1982-0.4891l-1.3745-1.9512l3.5772,0.1895l0.9648-1.3025l-7.9281-5.348
				l-0.6008-2.2758l-3.2222,2.9126l-3.2677-0.6691l-4.9699,6.458l-0.9739,2.5305l-3.1813,0.2867l-4.7059,0.0273l-2.8126-1.3153
				l-0.8237-5.5888l1.0103-2.6624l4.7832-1.0468l5.2201,1.0468l0.6372-2.89l-2.2164-0.5234l0.76-4.4965l5.252-0.8238l3.6728-5.1883
				l3.7911-0.3878l3.4225,0.7546h1.2607l-0.6918-5.1191l-4.1643,1.5547l-1.4609-3.7033l-2.4166-0.368l-0.4506-2.5141l1.9706-2.1514
				l4.6831-1.838l0.0714-0.1297c-17.5241-15.5865-40.6057-25.6106-65.9034-25.6106c-16.7068,0-32.4453,4.8796-46.258,10.8796h5.6343
				l2.6988,4.2631l4.4783,0.5295l2.6988-2.4841l2.0298,1.0836l-3.7183,3.6662c0,0-5.1428,0.1036-4.8925,0.1036
				c0.2503,0,0.4233,3.5494,0.4233,3.5494l6.2396-0.1687l0.6736-1.6817l4.3008-0.2538l0.5052-2.5299l-2.5304-0.4275l0.8419-2.2754
				l1.9388-0.587l6.7493,0.3368l-3.7183,3.3769l0.6008,2.6124l3.8821,0.5916l-0.2549-4.7241l3.7137-1.9433l6.3108-0.76
				l9.2644,4.2234v3.6273l3.3104,0.3823l-1.2499,2.4895h-4.3008l-1.2743,3.6683l-9.8396-2.1322l7.7324-4.0243l-2.9492-2.4559
				l-6.6674,0.8656l-0.5825,0.6126l-0.0228-0.0032l-0.1047,0.1486l-1.916,1.9949l-3.1721,0.2693l0.2549,1.5842l1.1105,0.4598
				l-0.0455,0.5235l-2.5805,0.3687l-0.1911,1.4973l-2.4667,0.1275l-0.446-2.9764l-4.4283,1.3471l-9.0522,5.2975l1.0194,3.7273
				l2.6658,1.6475l5.1963,0.7009v5.7526l2.2039-0.3777l1.7847-4.4966l5.0114-1.7067v-6.8995l3.2995-2.2619l7.3887,1.9462
				l-0.3573,4.7952h1.9388l5.3157-2.8518l0.2549,5.865l3.8776,2.3021l-0.1639,3.52l-3.7091,1.2502l0.2549,1.1667l4.4692,2.0306
				l-0.0865,2.4421l-1.2971,0.1083c-0.0091-0.0455-0.0136-0.0687-0.0136-0.0687l-5.6389-1.8481l-0.2412-1.9163h-0.0045
				l1.7129-0.9146v-1.6475l-1.8076-0.446l-0.4578,1.5201l-2.269,0.4778l0.5344-0.1047v0.1547l-1.9262,0.1638l-1.3044-1.7663
				l-1.4409-0.4374h-2.2164l-2.112,0.8065v1.8205l2.451,0.6326l2.1471,0.2639l-0.2804,0.1866l-1.6375,1.8933l-0.7209-0.9466
				l-1.6302-0.4369l-4.4879,4.2326l0.5914,0.4824l-6.638,3.6773l-6.2431,6.499l-0.4273,2.8945l-6.2621,4.1143l-3.1038,3.1221
				l0.3414,6.2442l-4.3053-2.0025l0.0318-3.6545l-11.9786,0.0045l-6.2032,3.1403l-2.6943,4.9653l-1.065,3.9367l1.7431,3.8184
				l4.8879,0.5962l7.7688-5.1928l0.6781,2.5714l-2.3711,4.4783l5.9119,1.0103l0.5871,9.1296l8.101,1.3744l5.1473-5.9483
				l6.2487,1.2697l2.1936,3.0538l5.9893-0.355l0.1684-1.7749l3.2905,1.6066l3.7046,5.8209l6.4126,0.091l2.3666,4.137l0.3368,5.0563
				l7.0907,2.7034l8.943,0.0864l2.6169,4.2963l3.964,1.2698l-0.7601,3.5453l-4.3463,5.5251l-1.2652,12.2198l-3.9231,3.1039
				l-5.8209-0.1775l-1.9433,3.3724l1.4382,6.3352l-6.3306,8.101l-2.0253,3.7137l-6.0348,2.8991l-3.9686,0.6008l-0.1638,1.6839
				l2.7853,0.7964l-0.3368,1.8113l-2.494,2.403l1.5155,1.9024l3.0037,0.0865l-0.1684,2.3211l-0.7964,2.2756l-0.2549,1.8569
				l4.4419,3.741l-0.5916,1.9433l-6.0439-0.1138l-6.0121-5.2475l-4.6831-8.233l0.6553-7.9508l-3.5453-4.7286l1.7722-8.0146
				l-1.7686-0.5916v-17.3808c0,0-6.2459-4.4783-6.5827-4.4783c-0.3413,0-3.2959-0.7555-3.2959-0.7555l-0.6717-3.2905l-7.7246-9.6211
				l0.7389-3.4589l0.2397-5.6525l5.3059-3.7137l-0.7627-6.3307l-7.761-0.5825l-6.0764-6.9223l-4.3011-1.1742l-2.7854-0.5097
				l0.2797-2.5305l-3.6024-0.5052v1.4336l-8.8041-2.1936l-3.5396-5.4568l1.4661-2.6442l-5.6044-7.793l-0.9531-5.5948h-2.2756
				l0.76,5.4264l3.8821,5.792l-0.4233,2.268l-3.8764-0.5545l-4.6318-6.9534v-8.0328l-3.4683-1.9505
				c-3.8419,10.573-5.6467,21.983-5.6467,33.8836c0,54.7922,44.5643,99.2704,99.3565,99.2704
				c30.3999,0,57.7475-14.1492,75.9461-35.1492h-0.1876V212.5057z"/>
			<polygon fill="none" points="101.5062,78.9343 101.5062,77.3757 98.6315,77.3757 98.4403,78.3757 96.5062,78.3757 
				96.5062,78.3757 96.5062,78.3757 96.5062,81.3757 101.2165,81.3757 			"/>
			<polygon fill="none" points="101.5062,82.8574 99.434,83.2351 96.0563,84.2454 96.756,85.3833 101.5062,85.0692 			"/>
			<polygon fill="none" points="119.0843,110.5146 117.5597,110.4052 117.0545,112.3757 120.2813,112.3757 122.5062,111.4021 
				122.5062,109.4315 119.7849,109.7546 			"/>
			<path fill="none" d="M120.5062,108.7397l1.6866-0.3504l1.3134-0.9785v-2.035h-3
				C120.5062,106.3757,120.5062,108.7397,120.5062,108.7397z"/>
			<polygon fill="none" points="121.5062,102.1542 121.5062,104.5617 123.5952,104.0565 			"/>
			<path fill="none" d="M103.6378,74.3695l4.3008,0.9284l0.3322,1.6885l6.8404,0.2549l-0.9284-2.1936l-6.0757-0.1684l1.4245-1.1106
				l-0.5006-1.3928h-5.4887l5.7374-4.4993c-3.1137,1.6605-6.1304,3.3719-9.0351,5.3437l1.1132-0.0623L103.6378,74.3695z"/>
			<polygon fill="none" points="127.5062,110.3757 127.5062,108.7397 123.5763,107.3757 123.5062,107.3757 123.5062,109.4315 
				124.2044,110.3757 			"/>
			<path fill="#663399" d="M217.043,83.0667l-1.9706,2.1436l0.4506,2.4986l2.4166,0.3368l1.4609,3.6409l4.1643-1.43l0.6918,5.1191
				h-1.2607l-3.4225-0.7546l-3.7911,0.5125l-3.6728,5.1259l-5.252,0.7926l-0.76,4.4809l2.2164,0.5156l-0.6372,2.8861l-5.2201-1.0487
				l-4.7832,1.0458l-1.0103,2.6619l0.8237,5.5885l2.8126,1.3152l4.7059-0.0274l3.1813-0.2867l0.9739-2.5305l4.9699-6.4581
				l3.2677,0.669l3.2222-2.9127l0.6008,2.2756l7.9281,5.3476l-0.9648,1.3016l-3.5772-0.1912l1.3745,1.9479l2.1982,0.4824
				l2.576-1.0741l-0.0501-3.1039l1.1423-0.5734l-0.9193-0.974l-5.2884-2.5222l-1.3927-3.4917h4.3964l1.4017,0.9658l3.7911,3.0497
				l0.1593,3.8391l3.9231,4.1246l1.4609-5.752l2.717-1.497l0.5097,4.6765l2.6533,2.9094l2.8655-0.0509
				c-0.5819-1.4647-0.7899-2.9135-1.4386-4.3429l-0.1808,0.0806v-1.3401c-3-7.0664-7.8712-13.6755-12.6986-19.7095l-0.8642,0.9836
				l-7.0695-0.0637l-0.5911-1.4518l4.2235-2.2164V88.97c-2-2.7673-5.0282-5.3924-7.8084-7.8652l-0.0215,0.1278L217.043,83.0667z"/>
			<path fill="#663399" d="M251.062,127.3757h-6.4209l-4.94-3.7816l-5.1949,0.3964v3.3852h-1.6343l-1.0715-1.374l-8.2942-2.3889
				v-5.8255l-12.0904,1.289l-4.2351,2.2994h-4.5238l-1.4392-0.6246l-4.7115,2.6477v5.739l-12.0048,7.44l0.1512,2.7979h2.2756
				l-0.5962,3.9561l-1.602,0.9176l-0.082,8.3435l9.6985,10.7829h4.2235h0.2549h7.5913l2.1891-3h4.3099l2.362,2.9452l6.4126,0.9606
				l-0.8465,8.6746l7.1271,12.6477l-3.7547,7.209l0.2936,3.3951l2.997,2.9628v8.1192l4,5.2156v6.8701h0.1876
				c14.6022-18,23.4104-39.5598,23.4104-63.952C255.1042,145.664,253.6882,135.3757,251.062,127.3757z"/>
			<path fill="#663399" d="M65.5062,131.3543l4.6318,6.9041l3.5834,0.5052l0.5697-2.3666l-3.8089-5.5948l-0.6868-5.4264h2.2756
				l0.9603,5.5948l5.6116,7.9902l-1.4518,2.5456l3.5111,5.4075l8.8041,2.1443v-1.4336l3.6023,0.5052l-0.3083,2.5305l2.7995,0.5097
				l4.3079,1.1742l6.0794,6.9223l7.7615,0.5825l0.7609,6.3307l-5.3107,3.7137l-0.2501,5.6525l-0.7599,3.4589l7.6824,9.6211
				l0.5871,3.2905c0,0,3.1239,0.7555,3.4652,0.7555c0.3368,0,6.5827,4.4783,6.5827,4.4783v17.3808l1.7686,0.5916l-1.6029,8.0146
				l3.4607,4.7286l-0.6976,7.9508l4.6619,8.233l6.0015,5.2475l6.0386,0.1138l0.589-1.9433l-4.4433-3.741l0.2542-1.8569
				l0.7961-2.2756l0.1682-2.3211l-3.0038-0.0865l-1.5156-1.9024l2.494-2.403l0.3368-1.8113l-2.7853-0.7964l0.1638-1.6839
				l3.9686-0.6008l6.0348-2.8991l2.0253-3.7137l6.3306-8.101l-1.4382-6.3352l1.9433-3.3724l5.8209,0.1775l3.9231-3.1039
				l1.2652-12.2198l4.3463-5.5251l0.7601-3.5453l-3.964-1.2698l-2.6169-4.2963l-8.943-0.0864l-7.0907-2.7034l-0.3368-5.0563
				l-2.3666-4.137l-6.4126-0.091l-3.7046-5.8209l-3.2905-1.6066l-0.1684,1.7749l-5.9893,0.355l-2.1936-3.0538l-6.2487-1.2697
				l-5.1473,5.9483l-8.101-1.3744l-0.5871-9.1296l-5.9119-1.0103l2.3711-4.4783l-0.6781-2.5714l-7.7688,5.1928l-4.8879-0.5962
				l-1.7431-3.8184l1.065-3.9367l2.6943-4.9653l6.2032-3.1403l11.9786-0.0045l-0.0318,3.6545l4.3054,2.0025l-0.3414-6.2442
				l3.1039-3.1221l6.2624-4.1143l0.4278-2.8945l6.2442-6.499l6.6401-3.6773l-0.5871-0.4824l4.4965-4.2326l1.6475,0.4369
				l0.7555,0.9466l1.7067-1.8933l0.4187-0.1866l-2.4236-0.2639l-2.451-0.6326v-1.8205l2.112-0.8065h2.2164l1.0149,0.4374
				l1.7305,1.7706l1.9262-0.1681v-0.1547l-0.5426,0.1047l2.6869-0.4778l0.2611-1.5201l1.5946,0.446v1.6475l-1.7129,0.9146h0.0045
				l0.2412,1.9161l5.6389,1.7932c0,0,0.0045,0.0501,0.0136,0.0956l1.2971-0.0955l0.0865-2.4371l-4.4692-2.031l-0.2549-1.1725
				l3.7091-1.2644l0.1639-3.5495l-3.8776-2.3618l-0.2549-5.7451l-5.3157,2.852h-1.9388l0.5097-4.7952l-7.5412-1.8264l-3.2995,2.1421
				v6.8995l-5.0791,1.7067l-1.8694,4.4966l-2.0514,0.3777v-5.7526l-5.1963-0.7009l-2.5981-1.6475l-1.0533-3.7273l9.0353-5.2975
				l4.4198-1.3471l0.4418,2.9764l2.4646-0.1275l0.1901-1.4973l2.58-0.3686l0.0452-0.5234l-1.1106-0.4596l-0.2549-1.5838
				l3.1721-0.2685l1.916-1.9934l0.1046-0.1457l0.0228,0.0091l0.5826-0.6008l6.6674-0.8419l2.9492,2.5031l-7.7324,4.1188
				l9.8396,1.9434l1.2743-3.6683h4.3008l1.2499-2.4895l-3.3104-0.3823v-3.6273l-9.2644-4.2234l-6.4459,0.76l-3.6462,1.9433
				l0.2886,4.7241l-3.8652-0.5916l-0.5923-2.6124l3.7225-3.3769l-6.7472-0.3368l-1.9377,0.5871l-0.8414,2.2756l2.5307,0.4278
				l-0.5051,2.5305l-4.3007,0.2549l-0.6735,1.6839l-6.2396,0.173c0,0-0.1729-3.5408-0.4233-3.5408s4.8925-0.0865,4.8925-0.0865
				l3.7183-3.6318l-2.0298-1.0149l-2.6988,2.6214l-4.4783-0.8042l-2.6988-4.2631h-5.6343c-0.1188,0-0.238,0.888-0.3566,0.9513
				l-5.7374,5.0487h5.4887l0.5006,1.3928l-1.4245,1.2175l6.0757,0.115l0.9284,2.1669l-6.8404-0.2682l-0.3322-1.6952l-4.3008-0.9318
				l-2.2801-1.2669l-1.1132,0.0081c-17.1314,11.629-31.0183,28.4755-38.2065,48.2574l3.4683,1.9501V131.3543z"/>
			<polygon fill="#663399" points="122.5062,111.4021 120.2813,112.3757 117.0545,112.3757 117.5597,110.4052 119.0843,110.3939 
				119.7849,109.6942 122.5062,109.4315 			"/>
			<path fill="#663399" d="M123.5062,107.4108l-1.3134,0.9785l-1.6866,0.3504c0,0,0-2.364,0-3.364h3V107.4108z"/>
			<polygon fill="#663399" points="125.374,105.0714 126.9259,106.0363 125.6835,107.0603 124.4547,106.0363 			"/>
			<polygon fill="#663399" points="123.5062,107.3757 123.5763,107.3757 127.5062,108.7397 127.5062,110.3757 124.2044,110.3757 
				123.5062,109.4315 			"/>
			<polygon fill="#663399" points="121.5062,102.1542 123.5952,104.0565 121.5062,104.5617 			"/>
			<polygon fill="#663399" points="111.9254,102.5273 114.8427,101.3757 120.5062,101.3757 120.5062,101.3757 120.5062,101.3757 
				120.5062,105.3757 113.6321,105.3757 111.3565,104.3634 			"/>
			<polygon fill="#663399" points="111.3565,107.9111 113.6958,105.3757 117.05,105.3757 112.7492,111.3927 110.9742,110.4415 			
				"/>
			<polygon fill="#663399" points="108.2526,93.6117 110.6556,94.1851 109.8273,97.4119 107.2332,98.2356 105.5948,94.8769 			"/>
			<polygon fill="#663399" points="101.5062,85.0692 96.8398,85.3833 96.0563,84.2454 99.3502,83.2351 101.5062,82.8574 			"/>
			<polygon fill="#663399" points="96.5062,78.3757 96.5062,78.3757 96.5062,78.3757 98.4403,78.3757 98.6315,77.3757 
				101.5062,77.3757 101.5062,78.9343 101.2165,81.3757 96.5062,81.3757 			"/>
		</g>
	</g>
	<g id="hud1-buttons">
		<g id="hud1-btn-linked">
			<circle fill="#FFFFFF" cx="95.7396" cy="160.159" r="38.7"/>
			<g>
				<path fill="#9933FF" d="M81.2219,175.7059h4.6395c0.6401,0,1.1589-0.5188,1.1589-1.1589v-20.2789
					c0-0.6401-0.5188-1.1589-1.1589-1.1589h-4.6395c-0.6401,0-1.1589,0.5188-1.1589,1.1589v20.2789
					C80.063,175.1871,80.5818,175.7059,81.2219,175.7059z"/>
				<path fill="#9933FF" d="M81.2219,149.5441h4.6395c0.6401,0,1.1589-0.5188,1.1589-1.1589v-4.1199
					c0-0.6401-0.5188-1.1589-1.1589-1.1589h-4.6395c-0.6401,0-1.1589,0.5188-1.1589,1.1589v4.1199
					C80.063,149.0253,80.5818,149.5441,81.2219,149.5441z"/>
				<path fill="#9933FF" d="M114.0051,155.4614c-0.6519-0.8582-1.6133-1.5639-2.8843-2.117
					c-1.2711-0.5528-2.6741-0.8293-4.2092-0.8293c-3.1163,0-5.7568,1.1893-7.9217,3.5683c-0.4307,0.4733-0.744,0.3698-0.744-0.2703
					v-1.5449c0-0.6401-0.5188-1.1589-1.1589-1.1589h-4.1444c-0.6401,0-1.1589,0.5188-1.1589,1.1589v20.2789
					c0,0.6401,0.5188,1.1589,1.1589,1.1589h4.6395c0.6401,0,1.1589-0.5188,1.1589-1.1589v-7.0524
					c0-2.9381,0.1774-4.952,0.5322-6.0413c0.3548-1.0893,1.0111-1.9641,1.9685-2.6244c0.9574-0.6602,2.0384-0.9906,3.2435-0.9906
					c0.9408,0,1.7456,0.2312,2.4142,0.6934c0.6685,0.4623,1.1514,1.1099,1.4485,1.9436s0.4457,2.6698,0.4457,5.5091v8.5626
					c0,0.6401,0.5188,1.1589,1.1589,1.1589h4.6395c0.6401,0,1.1589-0.5188,1.1589-1.1589v-11.4845
					c0-2.0301-0.128-3.59-0.3837-4.6794C115.1114,157.2939,114.6574,156.3199,114.0051,155.4614z"/>
			</g>
			<path fill="#1B1F77" d="M137.5062,158.3757h-9.3965c-1.1264-16-13.6035-28.6637-29.6035-29.6233v-13.3767h-4v13.3652
				c-16,0.8522-28.5683,13.6348-29.7001,29.6348H52.5062v3h12.2555c0.6967,16,13.7445,29.85,29.7445,30.7184v12.2816h4v-12.2931
				c16-0.9779,28.9544-14.7069,29.6478-30.7069h9.3522V158.3757z M98.3862,188.4526c-0.64,0.0437-1.2775,0.0977-1.9285,0.0977
				c-0.5744,0-1.1356-0.0521-1.7016-0.0862c-14.7192-0.8871-26.4312-13.1082-26.4312-28.0466
				c0-14.9383,11.712-27.1595,26.4312-28.0466c0.566-0.0341,1.1272-0.0862,1.7016-0.0862c0.6509,0,1.2885,0.054,1.9285,0.0977
				c14.6129,0.9981,26.2043,13.1733,26.2043,28.035S112.999,187.4545,98.3862,188.4526z"/>
		</g>
		<g id="hud1-btn-gplus">
			<circle fill="#FFFFFF" cx="96.1562" cy="160.1757" r="38.45"/>
			<g>
				<path fill="#9933FF" d="M105.2952,140.0484h-9.5096c-4.2375,0-7.1709,0.929-9.811,3.11
					c-2.0763,1.7914-3.3155,4.3949-3.3155,6.9646c0,3.9592,3.0186,8.1666,8.6122,8.1666c0.5378,0,1.1333-0.0552,1.6588-0.1042
					l-0.0774,0.1882c-0.2248,0.5386-0.4378,1.0468-0.4378,1.84c0,1.5443,0.745,2.4968,1.4652,3.4176l0.0906,0.1165l-0.161,0.0111
					c-2.3098,0.1581-6.6092,0.4526-9.7496,2.3831c-3.7092,2.2057-3.9975,5.4133-3.9975,6.3435c0,3.7018,3.4493,7.4373,11.156,7.4373
					c8.961,0,13.6499-4.9438,13.6499-9.827c0.0012-3.612-2.1167-5.3951-4.3648-7.2882l-1.8964-1.4751
					c-0.586-0.4855-1.3157-1.0897-1.3157-2.2094c0-1.1004,0.7297-1.8268,1.3738-2.4676l0.0671-0.0679
					c2.0479-1.6131,4.3693-3.4419,4.3693-7.3978c0-3.9773-2.4857-6.0326-3.6804-7.0206h3.1557c0.0387,0,0.077-0.0107,0.1095-0.0317
					l2.7179-1.709c0.0774-0.049,0.1137-0.1433,0.0881-0.2314C105.4678,140.1089,105.387,140.0484,105.2952,140.0484z
					 M93.7633,177.7435c-5.4623,0-9.1323-2.5512-9.1323-6.3485c0-2.4795,1.5011-4.2812,4.4574-5.3523
					c2.3675-0.7968,5.4236-0.8364,5.454-0.8364c0.5176,0,0.7779,0,1.1914,0.0519c3.822,2.72,5.6595,4.1482,5.6595,6.8682
					C101.3929,175.5914,98.469,177.7435,93.7633,177.7435z M93.7118,156.8322c-4.5843,0-6.4869-6.026-6.4869-9.2526
					c0-1.6407,0.3731-2.9,1.1407-3.8508c0.8331-1.0423,2.2596-1.7156,3.6342-1.7156c4.2091,0,6.5367,5.6575,6.5367,9.5676
					c0,0.6169,0,2.4935-1.2964,3.7969C96.3684,156.2478,94.9505,156.8322,93.7118,156.8322z"/>
				<path fill="#9933FF" d="M118.6235,158.6717h-5.0109v-4.9932c0-0.1137-0.0922-0.2059-0.2059-0.2059h-2.1558
					c-0.1137,0-0.2059,0.0922-0.2059,0.2059v4.9932h-4.9854c-0.1137,0-0.2059,0.0923-0.2059,0.2059v2.1842
					c0,0.1137,0.0922,0.2059,0.2059,0.2059h4.9854v5.0253c0,0.1136,0.0922,0.2059,0.2059,0.2059h2.1558
					c0.1137,0,0.2059-0.0923,0.2059-0.2059v-5.0258h5.0109c0.1137,0,0.2059-0.0922,0.2059-0.2059v-2.1838
					C118.8294,158.7636,118.7375,158.6717,118.6235,158.6717z"/>
			</g>
			<path fill="#1B1F77" d="M137.5062,158.3757h-9.3965c-1.1264-16-13.6035-28.6637-29.6035-29.6233v-13.3767h-4v13.3652
				c-16,0.8522-28.5683,13.6348-29.7001,29.6348H52.5062v3h12.2555c0.6967,16,13.7445,29.85,29.7445,30.7184v12.2816h4v-12.2931
				c16-0.9779,28.9544-14.7069,29.6478-30.7069h9.3522V158.3757z M98.3862,188.4526c-0.64,0.0437-1.2775,0.0977-1.9285,0.0977
				c-0.5744,0-1.1356-0.0521-1.7016-0.0862c-14.7192-0.8871-26.4312-13.1082-26.4312-28.0466
				c0-14.9383,11.712-27.1595,26.4312-28.0466c0.566-0.0341,1.1272-0.0862,1.7016-0.0862c0.6509,0,1.2885,0.054,1.9285,0.0977
				c14.6129,0.9981,26.2043,13.1733,26.2043,28.035S112.999,187.4545,98.3862,188.4526z"/>
		</g>
		<g id="hud1-btn-mail">
			<circle fill="#FFFFFF" cx="96.2145" cy="160.2924" r="39.25"/>
			<g>
				<path fill="#9933FF" d="M112.5099,146.4377h-31.945c-1.2595,0-2.2818,1.0222-2.2818,2.2818v3.8311l18.2543,7.3017
					l18.2543-7.3017v-3.8311C114.7917,147.4599,113.7695,146.4377,112.5099,146.4377z"/>
				<path fill="#9933FF" d="M78.2831,156.2767v15.2606c0,1.2596,1.0222,2.2818,2.2818,2.2818h31.945
					c1.2595,0,2.2818-1.0222,2.2818-2.2818v-15.2606l-18.2543,7.3017L78.2831,156.2767z"/>
			</g>
			<path fill="#1B1F77" d="M137.5062,158.3757h-9.3965c-1.1264-16-13.6035-28.6637-29.6035-29.6233v-13.3767h-4v13.3652
				c-16,0.8522-28.5683,13.6348-29.7001,29.6348H52.5062v3h12.2555c0.6967,16,13.7445,29.85,29.7445,30.7184v12.2816h4v-12.2931
				c16-0.9779,28.9544-14.7069,29.6478-30.7069h9.3522V158.3757z M98.3862,188.4526c-0.64,0.0437-1.2775,0.0977-1.9285,0.0977
				c-0.5744,0-1.1356-0.0521-1.7016-0.0862c-14.7192-0.8871-26.4312-13.1082-26.4312-28.0466
				c0-14.9383,11.712-27.1595,26.4312-28.0466c0.566-0.0341,1.1272-0.0862,1.7016-0.0862c0.6509,0,1.2885,0.054,1.9285,0.0977
				c14.6129,0.9981,26.2043,13.1733,26.2043,28.035S112.999,187.4545,98.3862,188.4526z"/>
		</g>
	</g>
</g>
</svg>
