<?xml version="1.0" encoding="utf-8"?>
<!-- Generator: Adobe Illustrator 17.0.0, SVG Export Plug-In . SVG Version: 6.00 Build 0)  -->
<!DOCTYPE svg PUBLIC "-//W3C//DTD SVG 1.1//EN" "http://www.w3.org/Graphics/SVG/1.1/DTD/svg11.dtd">
<svg version="1.1" id="hud1" xmlns="http://www.w3.org/2000/svg" xmlns:xlink="http://www.w3.org/1999/xlink" x="0px" y="0px"
	 width="372.4429px" height="344.9463px" viewBox="0 0 372.4429 344.9463" enable-background="new 0 0 372.4429 344.9463"
	 xml:space="preserve">
<g id="hud1-wrap">
	<g id="hud1-bg">
		<g id="hud1-rings">
			<circle id="hud1-center1" fill="none" stroke="#AAFF00" stroke-miterlimit="10" cx="200.8333" cy="172.5419" r="103.5"/>
			<circle id="hud1-center2" fill="none" stroke="#AAFF00" stroke-miterlimit="10" cx="200.8333" cy="172.5419" r="100"/>
			<g id="hud1-ring1" opacity="0.9">
				<path fill="none" stroke="#9933FF" stroke-miterlimit="10" d="M143.6913,265.7833c-6.718-4.0668-12.9628-8.839-18.6332-14.212
					l-8.4863,8.4863c6.4126,6.1088,13.495,11.5189,21.1208,16.1157L143.6913,265.7833z"/>
				<path fill="none" stroke="#9933FF" stroke-miterlimit="10" d="M295.798,120.5792c3.7136,6.8303,6.7146,14.1012,8.9106,21.7098
					l11.5959-3.1071c-2.4738-8.6321-5.8853-16.8715-10.1156-24.602L295.798,120.5792z"/>
				<path fill="none" stroke="#9933FF" stroke-miterlimit="10" d="M82.3926,144.142c-2.07,8.5146-3.2368,16.7332-3.3925,26.7332H91
					c0.1526-9,1.1788-15.9796,2.9869-23.5015L82.3926,144.142z"/>
				<path fill="none" stroke="#9933FF" stroke-miterlimit="10" d="M104.2608,120.3607l-10.3907-5.999
					c-4.2655,7.7568-7.7062,16.0276-10.2007,24.6961l11.5959,3.1071C97.4819,134.5199,100.5123,127.2176,104.2608,120.3607z"/>
				<path fill="none" stroke="#9933FF" stroke-miterlimit="10" d="M169.6813,277.1823c-7.5893-2.1987-14.8419-5.1976-21.6555-8.9066
					l-5.9991,10.3907c7.7138,4.2257,15.9348,7.6353,24.5475,10.1119L169.6813,277.1823z"/>
				<path fill="none" stroke="#9933FF" stroke-miterlimit="10" d="M94.1714,198.9523c-1.8606-7.5027-2.9482-15.077-3.1589-23.077
					H79.0103c0.2151,9,1.4432,17.8136,3.5668,26.3087L94.1714,198.9523z"/>
				<path fill="none" stroke="#9933FF" stroke-miterlimit="10" d="M279.0666,97.5627c5.3857,5.6839,10.1672,11.9451,14.2404,18.6811
					l10.39-5.9987c-4.603-7.644-10.0226-14.7427-16.1442-21.1686L279.0666,97.5627z"/>
				<path fill="none" stroke="#9933FF" stroke-miterlimit="10" d="M287.1564,256.2776c6.1226-6.3674,11.5587-13.3991,16.1826-20.979
					l-10.3953-6.0017c-4.0931,6.6724-8.8823,12.8735-14.2686,18.4994L287.1564,256.2776z"/>
				<path fill="none" stroke="#9933FF" stroke-miterlimit="10" d="M316.0826,206.5091l-11.596-3.1071
					c-2.2425,7.5647-5.2832,14.7886-9.0284,21.5732l10.3907,5.999C310.1116,223.29,313.5612,215.0967,316.0826,206.5091z"/>
				<path fill="none" stroke="#9933FF" stroke-miterlimit="10" d="M305.7963,198.8265l11.5944,3.2317
					c2.1044-8.4567,3.322-17.183,3.5361-26.183h-12.0023C308.7149,182.8752,307.6379,191.3623,305.7963,198.8265z"/>
				<path fill="none" stroke="#9933FF" stroke-miterlimit="10" d="M262.617,275.9527c7.5861-4.6099,14.6259-10.0319,21.0021-16.1413
					l-8.4814-8.4814c-5.6345,5.3735-11.8433,10.1492-18.5219,14.2285L262.617,275.9527z"/>
				<path fill="none" stroke="#9933FF" stroke-miterlimit="10" d="M141.6758,66.4763l5.9991,10.3906
					c6.8562-3.7651,14.1591-6.812,21.8069-9.0436l-3.1071-11.5959C157.7036,58.7372,149.4318,62.1939,141.6758,66.4763z"/>
				<path fill="none" stroke="#9933FF" stroke-miterlimit="10" d="M174.2039,66.5359c7.53-1.8237,15.2961-2.8654,23.2961-3.0292v-12
					c-9,0.1672-17.9348,1.3488-26.4574,3.4348L174.2039,66.5359z"/>
				<path fill="none" stroke="#9933FF" stroke-miterlimit="10" d="M225.7816,278.345c-7.4562,1.826-15.2816,2.8899-23.2816,3.0881
					v12c10-0.2026,17.885-1.4053,26.3337-3.4938L225.7816,278.345z"/>
				<path fill="none" stroke="#9933FF" stroke-miterlimit="10" d="M233.8259,288.6403c8.585-2.5062,16.7773-5.9396,24.4623-10.1854
					l-5.999-10.3907c-6.7852,3.7286-14.0085,6.7527-21.5704,8.9802L233.8259,288.6403z"/>
				<path fill="none" stroke="#9933FF" stroke-miterlimit="10" d="M116.1641,85.2852l8.4813,8.4813
					c5.6832-5.4411,11.9519-10.2748,18.702-14.3951l-6.0007-10.3935C129.6889,73.6286,122.5885,79.1077,116.1641,85.2852z"/>
				<path fill="none" stroke="#9933FF" stroke-miterlimit="10" d="M171.2994,290.0541c8.4607,2.0553,17.2006,3.2194,26.2006,3.3853
					v-12c-7-0.1624-15.6805-1.1862-23.1485-2.9797L171.2994,290.0541z"/>
				<path fill="none" stroke="#9933FF" stroke-miterlimit="10" d="M230.9183,67.9614c7.6203,2.2606,14.8942,5.3322,21.7218,9.117
					l5.999-10.3906c-7.727-4.3026-15.9704-7.7828-24.6137-10.3223L230.9183,67.9614z"/>
				<path fill="none" stroke="#9933FF" stroke-miterlimit="10" d="M229.0905,55.0564C220.58,52.937,212.5,51.7173,202.5,51.5131v12
					c9,0.2,15.911,1.2811,23.4292,3.1376L229.0905,55.0564z"/>
				<path fill="none" stroke="#9933FF" stroke-miterlimit="10" d="M317.5752,144.2678l-11.5944,3.2318
					c1.7892,7.4833,2.8044,15.3757,2.9562,23.3757h11.9999C320.782,160.8752,319.6262,152.7438,317.5752,144.2678z"/>
				<path fill="none" stroke="#9933FF" stroke-miterlimit="10" d="M96.3674,110.03l10.39,5.9987
					c4.1064-6.7561,8.9261-13.0329,14.3542-18.7247l-8.4813-8.4813C106.4661,95.2559,101.0039,102.3661,96.3674,110.03z"/>
				<path fill="none" stroke="#9933FF" stroke-miterlimit="10" d="M104.6009,225.1933c-3.7802-6.8109-6.8504-14.0663-9.1135-21.6672
					l-11.596,3.1071c2.5422,8.6239,6.0209,16.8489,10.3188,24.5592L104.6009,225.1933z"/>
				<path fill="none" stroke="#9933FF" stroke-miterlimit="10" d="M121.5089,248.0493
					c-5.4285-5.6336-10.2567-11.848-14.3831-18.5403l-10.3953,6.0018c4.6575,7.5995,10.1318,14.6452,16.2971,21.0198
					L121.5089,248.0493z"/>
				<path fill="none" stroke="#9933FF" stroke-miterlimit="10" d="M256.9571,79.601c6.7103,4.1328,12.9406,8.9712,18.5875,14.4125
					l8.4813-8.4813c-6.3879-6.178-13.4495-11.6627-21.0671-16.3265L256.9571,79.601z"/>
			</g>
			<g id="hud1-ring2" opacity="0.7">
				<path fill="none" stroke="#1B1F77" stroke-miterlimit="10" d="M332.7311,134.7804
					c-2.8665-10.0823-6.8588-19.6941-11.822-28.6992l-10.3906,5.999c4.4457,8.1055,8.0283,16.7484,10.6177,25.807L332.7311,134.7804
					z"/>
				<path fill="none" stroke="#1B1F77" stroke-miterlimit="10" d="M265.4595,64.8744c7.9959,4.8848,15.4037,10.6388,22.1003,17.1239
					l8.4812-8.4812c-7.437-7.2224-15.6762-13.6228-24.58-19.0377L265.4595,64.8744z"/>
				<path fill="none" stroke="#1B1F77" stroke-miterlimit="10" d="M77.7461,203.3535c-2.2334-8.9084-3.519-18.4782-3.7358-27.4782
					h-12c0.2202,10,1.6445,20.8095,4.1415,30.7099L77.7461,203.3535z"/>
				<path fill="none" stroke="#1B1F77" stroke-miterlimit="10" d="M89.8807,233.692c-4.5139-8.0849-8.1627-16.714-10.821-25.7642
					l-11.5959,3.1071c2.9364,10.0735,6.994,19.6722,12.0262,28.6561L89.8807,233.692z"/>
				<path fill="none" stroke="#1B1F77" stroke-miterlimit="10" d="M291.0876,85.5416c6.4282,6.7349,12.1149,14.1816,16.9385,22.204
					l10.3899-5.9986c-5.3527-8.9306-11.6824-17.2107-18.8471-24.6867L291.0876,85.5416z"/>
				<path fill="none" stroke="#1B1F77" stroke-miterlimit="10" d="M62.0001,170.8752h12c0.1569-10,1.3821-19.0996,3.5615-28.0276
					l-11.5942-2.9817C63.525,149.7863,62.1594,159.8752,62.0001,170.8752z"/>
				<path fill="none" stroke="#1B1F77" stroke-miterlimit="10" d="M135.1932,280.5024
					c-8.0042-4.8174-15.4346-10.4947-22.1562-16.9101l-8.4813,8.4813c7.4627,7.1519,15.7264,13.472,24.6389,18.8187
					L135.1932,280.5024z"/>
				<path fill="none" stroke="#1B1F77" stroke-miterlimit="10" d="M109.4937,260.0646
					c-6.4723-6.6832-12.2159-14.0753-17.0945-22.053l-10.3953,6.0017c5.4088,8.8856,11.799,17.1088,19.0085,24.5326
					L109.4937,260.0646z"/>
				<path fill="none" stroke="#1B1F77" stroke-miterlimit="10" d="M67.2419,134.6561l11.5959,3.1071
					c2.61-9.0949,6.2218-17.7695,10.7029-25.9011L79.15,105.863C74.1511,114.894,70.129,124.5375,67.2419,134.6561z"/>
				<path fill="none" stroke="#1B1F77" stroke-miterlimit="10" d="M332.5102,210.9109l-11.5959-3.1071
					c-2.6375,9.014-6.2575,17.6111-10.7359,25.67l10.3906,5.9991C325.5655,230.5149,329.5947,220.9482,332.5102,210.9109z"/>
				<path fill="none" stroke="#1B1F77" stroke-miterlimit="10" d="M295.6343,271.8265l-8.4813-8.4813
					c-6.6851,6.4163-14.0723,12.1059-22.0366,16.9366l5.9987,10.3899C279.9873,285.3113,288.2083,278.9794,295.6343,271.8265z"/>
				<path fill="none" stroke="#1B1F77" stroke-miterlimit="10" d="M133.1771,51.7562l5.999,10.3906
					c8.1307-4.4981,16.8063-8.1255,25.9039-10.751l-3.1071-11.5959C151.8517,42.7027,142.2071,46.7401,133.1771,51.7562z"/>
				<path fill="none" stroke="#1B1F77" stroke-miterlimit="10" d="M266.7869,293.175l-5.9991-10.3906
					c-8.0598,4.4614-16.6559,8.0654-25.6673,10.6876l3.1071,11.5959C248.2625,302.1679,257.8278,298.1544,266.7869,293.175z"/>
				<path fill="none" stroke="#1B1F77" stroke-miterlimit="10" d="M318.0614,243.7986l-10.391-5.9993
					c-4.845,7.9582-10.5505,15.3361-16.98,22.0122l8.4813,8.4813C306.338,260.876,312.6865,252.6646,318.0614,243.7986z"/>
				<path fill="none" stroke="#1B1F77" stroke-miterlimit="10" d="M165.2795,293.6099
					c-9.0391-2.5923-17.6637-6.1729-25.7524-10.6141l-5.999,10.3906c8.9883,4.9587,18.5816,8.95,28.6443,11.8194L165.2795,293.6099z
					"/>
				<path fill="none" stroke="#1B1F77" stroke-miterlimit="10" d="M230.1827,294.7703c-8.8621,2.198-17.6827,3.4586-27.6827,3.6627
					v12.0001c11-0.2075,20.8806-1.6072,30.7348-4.0685L230.1827,294.7703z"/>
				<path fill="none" stroke="#1B1F77" stroke-miterlimit="10" d="M233.4916,38.6311c-9.9158-2.4927-19.9916-3.909-30.9916-4.1179
					v12.0001c10,0.2057,18.9065,1.4831,27.8303,3.7122L233.4916,38.6311z"/>
				<path fill="none" stroke="#1B1F77" stroke-miterlimit="10" d="M169.8028,50.1107c8.936-2.1955,18.6972-3.4353,27.6972-3.6038
					v-12c-10,0.1711-20.9303,1.551-30.8585,4.0095L169.8028,50.1107z"/>
				<path fill="none" stroke="#1B1F77" stroke-miterlimit="10" d="M337.9268,175.8752h-12c-0.2158,9-1.4911,18.4823-3.7051,27.3525
					l11.5943,3.2317C336.2935,196.5973,337.7075,185.8752,337.9268,175.8752z"/>
				<path fill="none" stroke="#1B1F77" stroke-miterlimit="10" d="M81.6483,101.5319l10.3899,5.9986
					c4.8572-8.0422,10.587-15.4998,17.0582-22.2419l-8.4812-8.4812C93.4073,84.2903,87.0349,92.5816,81.6483,101.5319z"/>
				<path fill="none" stroke="#1B1F77" stroke-miterlimit="10" d="M334.0005,139.8666l-11.5942,3.2317
					c2.1603,8.8896,3.3745,17.7769,3.5307,27.7769h12C337.7783,159.8752,336.4235,149.7487,334.0005,139.8666z"/>
				<path fill="none" stroke="#1B1F77" stroke-miterlimit="10" d="M166.8983,306.4794c9.8666,2.4274,20.6017,3.7901,30.6017,3.96
					v-12c-9-0.1672-18.6754-1.3898-27.5496-3.5543L166.8983,306.4794z"/>
				<path fill="none" stroke="#1B1F77" stroke-miterlimit="10" d="M235.32,51.5339c9.0696,2.6555,17.717,6.306,25.8187,10.8245
					l5.999-10.3906c-9.0006-5.0369-18.6176-9.0963-28.7106-12.0297L235.32,51.5339z"/>
				<path fill="none" stroke="#1B1F77" stroke-miterlimit="10" d="M104.1489,73.2701l8.4812,8.4812
					c6.7332-6.4844,14.1811-12.231,22.2171-17.1025l-5.9987-10.3899C119.9045,59.6599,111.6228,66.0488,104.1489,73.2701z"/>
			</g>
			<g id="hud1-ring3" opacity="0.5">
				<path fill="none" stroke="#1B1F77" stroke-miterlimit="10" d="M239.7218,35.1063c10.5195,3.0491,20.5405,7.2791,29.9155,12.532
					l5.9991-10.3907c-10.2737-5.7717-21.2643-10.4109-32.8075-13.7372L239.7218,35.1063z"/>
				<path fill="none" stroke="#1B1F77" stroke-miterlimit="10" d="M124.6785,37.0361l5.9991,10.3907
					c9.4046-5.232,19.4531-9.4402,30.0007-12.4585l-3.1071-11.596C145.9996,26.6674,134.9819,31.2856,124.6785,37.0361z"/>
				<path fill="none" stroke="#1B1F77" stroke-miterlimit="10" d="M126.6951,295.2214
					c-9.2909-5.5671-17.9019-12.1552-25.6733-19.614l-8.4813,8.4813c8.5121,8.1957,17.9567,15.4267,28.1561,21.5225
					L126.6951,295.2214z"/>
				<path fill="none" stroke="#1B1F77" stroke-miterlimit="10" d="M97.4785,272.0797
					c-7.5167-7.7322-14.1752-16.3027-19.8047-25.5665l-10.3899,5.9987c6.159,10.172,13.4591,19.577,21.7133,28.0492
					L97.4785,272.0797z"/>
				<path fill="none" stroke="#1B1F77" stroke-miterlimit="10" d="M162.4971,322.9047c11.272,2.8005,23.0029,4.3616,35.0029,4.5347
					v-12c-11-0.1709-21.6707-1.592-31.9507-4.129L162.4971,322.9047z"/>
				<path fill="none" stroke="#1B1F77" stroke-miterlimit="10" d="M92.1337,61.2549l8.4813,8.4813
					c7.7823-7.5284,16.4117-14.1848,25.7341-19.8065l-5.9987-10.39C110.1197,45.6905,100.6563,52.9892,92.1337,61.2549z"/>
				<path fill="none" stroke="#1B1F77" stroke-miterlimit="10" d="M50.8184,130.2554l11.5919,3.106
					c3.0025-10.5452,7.1956-20.5922,12.4103-29.9979l-10.3907-5.9991C58.6969,107.6689,54.0976,118.6865,50.8184,130.2554z"/>
				<path fill="none" stroke="#1B1F77" stroke-miterlimit="10" d="M234.5839,311.1956
					c-10.2676,2.5711-20.0839,4.0287-32.0839,4.2375v12c13-0.2114,23.8765-1.8082,35.136-4.6431L234.5839,311.1956z"/>
				<path fill="none" stroke="#1B1F77" stroke-miterlimit="10" d="M273.9604,50.1503c9.282,5.6356,17.8691,12.3034,25.6145,19.8329
					l8.4813-8.4813c-8.4854-8.267-17.9069-15.5765-28.0972-21.7415L273.9604,50.1503z"/>
				<path fill="none" stroke="#1B1F77" stroke-miterlimit="10" d="M45.0001,170.8752h12c0.1603-12,1.5842-22.095,4.1362-32.4288
					l-11.5944-2.9817C46.7264,146.7906,45.1623,157.8752,45.0001,170.8752z"/>
				<path fill="none" stroke="#1B1F77" stroke-miterlimit="10" d="M61.3208,207.7546c-2.6071-10.3137-4.0892-20.8793-4.3105-31.8793
					h-12c0.2241,12,1.845,23.8057,4.7162,35.111L61.3208,207.7546z"/>
				<path fill="none" stroke="#1B1F77" stroke-miterlimit="10" d="M335.6292,97.5825l-10.3907,5.9991
					c5.179,9.3798,9.3405,19.3959,12.3223,29.9047l11.5916-3.106C345.8941,118.8479,341.3262,107.8612,335.6292,97.5825z"/>
				<path fill="none" stroke="#1B1F77" stroke-miterlimit="10" d="M303.1027,73.5266c7.4716,7.7847,14.0693,16.412,19.6424,25.7211
					l10.39-5.9987c-6.1018-10.2176-13.3425-19.6784-21.551-28.2038L303.1027,73.5266z"/>
				<path fill="none" stroke="#1B1F77" stroke-miterlimit="10" d="M165.4016,33.6854C175.7432,31.117,186.5,29.6789,197.5,29.5068
					v-12c-12,0.1741-23.9261,1.7521-35.2597,4.5842L165.4016,33.6854z"/>
				<path fill="none" stroke="#1B1F77" stroke-miterlimit="10" d="M66.9293,93.0339l10.39,5.9987
					c5.607-9.3288,12.2472-17.9675,19.762-25.759L88.6,64.7922C80.3479,73.3241,73.0651,82.7967,66.9293,93.0339z"/>
				<path fill="none" stroke="#1B1F77" stroke-miterlimit="10" d="M332.7805,252.2966l-10.3899-5.9986
					c-5.5955,9.2443-12.2116,17.8032-19.6851,25.5287l8.4813,8.4813C319.3975,271.8423,326.6556,262.4492,332.7805,252.2966z"/>
				<path fill="none" stroke="#1B1F77" stroke-miterlimit="10" d="M160.8778,310.0372
					c-10.4893-2.9849-20.4865-7.1469-29.8494-12.3213l-5.999,10.3907c10.262,5.6924,21.2296,10.2607,32.7425,13.5222
					L160.8778,310.0372z"/>
				<path fill="none" stroke="#1B1F77" stroke-miterlimit="10" d="M307.6495,283.8417l-8.4813-8.4813
					c-7.7346,7.4599-16.3031,14.0594-25.5537,19.6404l5.9987,10.39C289.7721,299.2806,299.1744,292.0388,307.6495,283.8417z"/>
				<path fill="none" stroke="#1B1F77" stroke-miterlimit="10" d="M350.4258,135.4655l-11.5944,3.2317
					c2.5326,10.2954,3.9459,20.178,4.1055,32.178h12C354.7753,157.8752,353.2218,146.7531,350.4258,135.4655z"/>
				<path fill="none" stroke="#1B1F77" stroke-miterlimit="10" d="M237.8928,22.2058c-11.3208-2.8666-22.3928-4.48-35.3928-4.6926
					v12c12,0.2101,21.9024,1.6843,32.2315,4.2869L237.8928,22.2058z"/>
				<path fill="none" stroke="#1B1F77" stroke-miterlimit="10" d="M354.9268,175.8752h-12c-0.2205,11-1.6924,21.4781-4.2798,31.7536
					l11.5943,3.2317C353.0927,199.5933,354.7035,187.8752,354.9268,175.8752z"/>
				<path fill="none" stroke="#1B1F77" stroke-miterlimit="10" d="M348.9378,215.3126l-11.5959-3.1071
					c-3.0312,10.4639-7.2309,20.4343-12.4434,29.767l10.3907,5.9991C341.0202,237.7401,345.6293,226.8001,348.9378,215.3126z"/>
				<path fill="none" stroke="#1B1F77" stroke-miterlimit="10" d="M275.2856,307.8951l-5.9991-10.3907
					c-9.3337,5.1953-19.3029,9.3795-29.7642,12.395l3.1071,11.596C254.1144,318.2028,265.0529,313.6088,275.2856,307.8951z"/>
				<path fill="none" stroke="#1B1F77" stroke-miterlimit="10" d="M75.1606,242.1907c-5.2484-9.3583-9.4764-19.3611-12.5285-29.8611
					l-11.5959,3.1071c3.3295,11.5236,7.9667,22.4961,13.7338,32.7531L75.1606,242.1907z"/>
			</g>
			<g id="hud1-ring4" opacity="0.3">
				<path fill="none" stroke="#1B1F77" stroke-miterlimit="10" d="M52.2101,84.5358l10.39,5.9987
					c6.3561-10.6158,13.9067-20.4358,22.4659-29.2761l-8.4813-8.4813C67.288,62.3574,59.0948,73.0114,52.2101,84.5358z"/>
				<path fill="none" stroke="#1B1F77" stroke-miterlimit="10" d="M85.4633,284.0949c-8.5615-8.7805-16.129-18.5332-22.5085-29.0837
					l-10.39,5.9987c6.9086,11.4588,15.118,22.046,24.4172,31.5663L85.4633,284.0949z"/>
				<path fill="none" stroke="#1B1F77" stroke-miterlimit="10" d="M80.1185,49.2397l8.4813,8.4813
					c8.8309-8.573,18.6419-16.1393,29.2513-22.5104l-5.9986-10.3899C100.3345,31.7203,89.6893,39.9291,80.1185,49.2397z"/>
				<path fill="none" stroke="#1B1F77" stroke-miterlimit="10" d="M118.1971,309.9405
					c-10.5779-6.3161-20.3699-13.815-29.1905-22.3178l-8.4813,8.4813c9.5609,9.2401,20.1865,17.382,31.6732,24.2265
					L118.1971,309.9405z"/>
				<path fill="none" stroke="#1B1F77" stroke-miterlimit="10" d="M366.8512,131.0643l-11.5944,3.2317
					c2.9058,11.7009,4.5178,23.5792,4.6801,36.5792h12.0001C371.7731,156.8752,370.0208,143.7571,366.8512,131.0643z"/>
				<path fill="none" stroke="#1B1F77" stroke-miterlimit="10" d="M116.1798,22.316l5.999,10.3906
					c10.6779-5.9666,22.1-10.7542,34.098-14.1645l-3.106-11.5916C140.1492,10.6372,127.7562,15.8306,116.1798,22.316z"/>
				<path fill="none" stroke="#1B1F77" stroke-miterlimit="10" d="M122.5297,312.436l-5.9991,10.3907
					c11.5352,6.4269,23.8779,11.5705,36.8411,15.2235l3.106-11.5916C144.5382,323.0819,133.1663,318.3444,122.5297,312.436z"/>
				<path fill="none" stroke="#1B1F77" stroke-miterlimit="10" d="M60.4406,250.6893c-5.9833-10.6314-10.7911-22.0078-14.236-33.958
					l-11.596,3.1071c3.7217,12.974,8.9389,25.3201,15.4413,36.8499L60.4406,250.6893z"/>
				<path fill="none" stroke="#1B1F77" stroke-miterlimit="10" d="M315.118,61.5113c8.5157,8.8339,16.0242,18.642,22.3463,29.2383
					l10.39-5.9987c-6.8505-11.505-15.0021-22.1467-24.2549-31.7209L315.118,61.5113z"/>
				<path fill="none" stroke="#1B1F77" stroke-miterlimit="10" d="M44.8955,212.1557c-2.9813-11.7186-4.6602-24.2805-4.8853-36.2805
					h-12c0.2272,13,2.0451,26.8019,5.2909,39.5121L44.8955,212.1557z"/>
				<path fill="none" stroke="#1B1F77" stroke-miterlimit="10" d="M161.0005,17.26c11.7469-2.942,24.4995-4.5782,36.4995-4.7532v-12
					c-13,0.1765-26.9222,1.9528-39.6608,5.1589L161.0005,17.26z"/>
				<path fill="none" stroke="#1B1F77" stroke-miterlimit="10" d="M282.4586,35.4312
					c10.5687,6.3855,20.3379,13.9625,29.1316,22.5368l8.4813-8.4813c-9.5334-9.312-20.1371-17.5309-31.6143-24.4454
					L282.4586,35.4312z"/>
				<path fill="none" stroke="#1B1F77" stroke-miterlimit="10" d="M34.397,125.8553l11.5916,3.106
					c3.3943-11.9954,8.1628-23.4175,14.1118-34.0965l-10.3906-5.999C43.2421,100.4432,38.0675,112.8361,34.397,125.8553z"/>
				<path fill="none" stroke="#1B1F77" stroke-miterlimit="10" d="M350.3493,89.0839l-10.3906,5.9991
					c5.9128,10.6533,10.6501,22.0442,14.0236,34.0032l11.5916-3.106C361.9242,112.9974,356.7806,100.6358,350.3493,89.0839z"/>
				<path fill="none" stroke="#1B1F77" stroke-miterlimit="10" d="M28,170.8752h12.0001c0.163-13,1.7855-25.0908,4.7109-36.83
					l-11.5944-2.9817C29.9272,143.7946,28.1645,156.8752,28,170.8752z"/>
				<path fill="none" stroke="#1B1F77" stroke-miterlimit="10" d="M371.9268,175.8752h-12c-0.2243,12-1.8931,24.4742-4.8545,36.1547
					l11.5944,3.2317C369.8925,202.5896,371.7003,188.8752,371.9268,175.8752z"/>
				<path fill="none" stroke="#1B1F77" stroke-miterlimit="10" d="M277.7852,312.2245
					c-10.6071,5.9297-21.9496,10.6945-33.8611,14.1025l3.1071,11.5959c12.9354-3.6847,25.2473-8.8593,36.7531-15.3078
					L277.7852,312.2245z"/>
				<path fill="none" stroke="#1B1F77" stroke-miterlimit="10" d="M242.2939,5.7805C229.5682,2.5392,216.5,0.7288,202.5,0.5132v12
					c13,0.2136,24.8986,1.8849,36.6326,4.8616L242.2939,5.7805z"/>
				<path fill="none" stroke="#1B1F77" stroke-miterlimit="10" d="M238.985,327.621c-11.6727,2.9449-23.485,4.5997-36.485,4.8121v12
					c14-0.2145,26.8727-2.0087,39.5371-5.2178L238.985,327.621z"/>
				<path fill="none" stroke="#1B1F77" stroke-miterlimit="10" d="M319.6647,295.8569l-8.4813-8.4813
					c-8.7835,8.5042-18.5334,16.0137-29.0708,22.3443l5.9987,10.39C299.5571,313.2505,310.1411,305.0985,319.6647,295.8569z"/>
				<path fill="none" stroke="#1B1F77" stroke-miterlimit="10" d="M347.4995,260.7947l-10.39-5.9987
					c-6.3453,10.5309-13.8709,20.2717-22.3889,29.0458l8.4813,8.4813C332.4575,282.8091,340.6253,272.2342,347.4995,260.7947z"/>
				<path fill="none" stroke="#1B1F77" stroke-miterlimit="10" d="M365.3654,219.7144l-11.596-3.1072
					c-3.4239,11.914-8.2037,23.258-14.1508,33.8639l10.3907,5.9991C356.4753,244.9658,361.6647,232.6523,365.3654,219.7144z"/>
				<path fill="none" stroke="#1B1F77" stroke-miterlimit="10" d="M158.096,339.3301c12.6772,3.1741,26.404,4.9338,39.404,5.1094
					v-12c-12-0.1739-24.6666-1.7935-36.3519-4.7037L158.096,339.3301z"/>
				<path fill="none" stroke="#1B1F77" stroke-miterlimit="10" d="M278.136,32.9182l5.999-10.3907
					c-11.5466-6.5069-23.9108-11.7263-36.9044-15.4447l-3.1071,11.5959C256.0933,22.1204,267.4879,26.9303,278.136,32.9182z"/>
			</g>
		</g>
		<g id="hud1-sphere" transform="scale(200, -200) translate(1, -1)" opacity="0.6">
			<g id="hud1-sphere-front">
				<g id="hud1-sphere-half">
					<g id="hud1-meridians">
						<path id="hud1-meridian0" fill="#1B1F77" d="M-0.0106,0.5992c0.0088,0.0002,0.0213-0.2049,0.0281-0.4582
							s0.0051-0.4588-0.0037-0.459c0.0013,0,0.0027,0.0001,0.004,0.0001c0.0088,0.0002,0.0104,0.2057,0.0037,0.459
							S0.0022,0.5995-0.0066,0.5993C-0.0079,0.5992-0.0093,0.5992-0.0106,0.5992z"/>
						<path id="hud1-meridian1" fill="#1B1F77" d="M-0.0598,0.595c0.0431,0.0059,0.1055-0.1928,0.1394-0.4439
							S0.1061-0.3083,0.063-0.3143c0,0,0,0-0.0001,0c0.0013,0.0002,0.0027,0.0004,0.004,0.0005
							c0.0431,0.0059,0.0506,0.2143,0.0166,0.4654C0.0497,0.4026-0.0126,0.6012-0.0558,0.5955
							C-0.0571,0.5954-0.0584,0.5952-0.0598,0.595z"/>
						<path id="hud1-meridian2" fill="#1B1F77" d="M-0.1106,0.5849c0.0745,0.0191,0.1852-0.1646,0.2472-0.4103
							S0.1885-0.2856,0.114-0.3046c-0.0001,0-0.0002,0-0.0003-0.0001c0.0014,0.0003,0.0027,0.0007,0.0041,0.001
							C0.1923-0.2846,0.2024-0.07,0.1404,0.1756C0.0785,0.4209-0.032,0.6045-0.1065,0.586
							C-0.1079,0.5856-0.1093,0.5853-0.1106,0.5849z"/>
						<path id="hud1-meridian3" fill="#1B1F77" d="M-0.1643,0.5675c0.1005,0.0395,0.2564-0.12,0.3482-0.3561
							s0.0847-0.4596-0.0158-0.4991C0.1678-0.2877,0.1676-0.2878,0.1674-0.2879c0.0014,0.0005,0.0028,0.0011,0.0041,0.0016
							c0.1005,0.0395,0.1076,0.2629,0.0158,0.4991c-0.0916,0.2355-0.247,0.3949-0.3476,0.3564
							C-0.1616,0.5686-0.163,0.5681-0.1643,0.5675z"/>
						<path id="hud1-meridian4" fill="#1B1F77" d="M-0.222,0.5401c0.1183,0.0667,0.3145-0.0584,0.4382-0.2795
							s0.1282-0.4544,0.0099-0.5212C0.2258-0.2607,0.2254-0.261,0.225-0.2612c0.0014,0.0008,0.0028,0.0015,0.0041,0.0023
							C0.3474-0.1921,0.343,0.0412,0.2192,0.2623C0.096,0.4826-0.0993,0.6077-0.2178,0.5424
							C-0.2192,0.5417-0.2206,0.5409-0.222,0.5401z"/>
						<path id="hud1-meridian5" fill="#1B1F77" d="M-0.2835,0.4984c0.1244,0.0998,0.3532,0.0201,0.5111-0.1781
							s0.1851-0.4397,0.0607-0.5395C0.2877-0.2196,0.2872-0.22,0.2867-0.2204c0.0014,0.0011,0.0027,0.0021,0.004,0.0032
							C0.4151-0.1174,0.388,0.1241,0.2301,0.3223C0.0729,0.5195-0.1547,0.5996-0.2795,0.5016
							C-0.2809,0.5006-0.2822,0.4995-0.2835,0.4984z"/>
						<path id="hud1-meridian6" fill="#1B1F77" d="M-0.3469,0.4366c0.1151,0.1362,0.3648,0.1136,0.5579-0.0505
							s0.2563-0.4075,0.1412-0.5437C0.3516-0.1583,0.351-0.159,0.3504-0.1597c0.0012,0.0014,0.0025,0.0028,0.0037,0.0043
							c0.1151,0.1362,0.0518,0.3796-0.1412,0.5437C0.021,0.5515-0.2272,0.5749-0.3432,0.4409
							C-0.3445,0.4395-0.3457,0.4381-0.3469,0.4366z"/>
						<path id="hud1-meridian7" fill="#1B1F77" d="M-0.4052,0.3489c0.0871,0.1708,0.3404,0.2155,0.5658,0.0998
							S0.4982,0.1008,0.4111-0.07c-0.0005-0.001-0.001-0.002-0.0016-0.003c0.001,0.0018,0.0019,0.0036,0.0028,0.0054
							c0.0871,0.1708-0.0251,0.403-0.2505,0.5187C-0.062,0.566-0.3137,0.5228-0.4024,0.3543
							C-0.4033,0.3525-0.4042,0.3507-0.4052,0.3489z"/>
						<path id="hud1-meridian8" fill="#1B1F77" d="M-0.4455,0.2344c0.0408,0.1951,0.2748,0.3107,0.5226,0.2582
							s0.4157-0.2532,0.375-0.4483C0.4519,0.043,0.4516,0.0418,0.4513,0.0405c0.0005,0.0021,0.0009,0.0042,0.0014,0.0063
							c0.0408,0.1951-0.1271,0.3958-0.375,0.4483c-0.246,0.0521-0.4787-0.0613-0.5218-0.2543
							C-0.4446,0.2387-0.445,0.2365-0.4455,0.2344z"/>
						<path id="hud1-meridian9" fill="#1B1F77" d="M-0.4537,0.1045c-0.0158,0.2002,0.1762,0.3781,0.4288,0.3974
							s0.4702-0.1274,0.486-0.3276c0.0001-0.0014,0.0002-0.0027,0.0003-0.0041C0.4613,0.1724,0.4611,0.1745,0.4609,0.1767
							c-0.0158,0.2002-0.2334,0.3469-0.486,0.3276c-0.2506-0.0191-0.442-0.1945-0.4291-0.3933
							C-0.4541,0.1089-0.4539,0.1067-0.4537,0.1045z"/>
						<path id="hud1-meridian10" fill="#1B1F77" d="M-0.4264-0.0193c-0.0684,0.1839,0.0688,0.4041,0.3065,0.4918
							S0.366,0.4821,0.4344,0.2982C0.4349,0.297,0.4353,0.2958,0.4357,0.2946c-0.0007,0.002-0.0014,0.004-0.0022,0.0059
							C0.3651,0.4845,0.117,0.5625-0.1207,0.4749c-0.2359-0.087-0.3732-0.3048-0.3078-0.4882
							C-0.4278-0.0154-0.4271-0.0174-0.4264-0.0193z"/>
						<path id="hud1-meridian11" fill="#1B1F77" d="M-0.374-0.1199C-0.4795,0.033-0.3955,0.273-0.1865,0.4163
							s0.4639,0.1354,0.5693-0.0175C0.3834,0.398,0.384,0.3971,0.3845,0.3963C0.3834,0.3979,0.3823,0.3995,0.3812,0.4011
							C0.2758,0.554,0.0209,0.5618-0.1881,0.4186C-0.3957,0.2763-0.4802,0.0382-0.3773-0.115
							C-0.3762-0.1166-0.3751-0.1183-0.374-0.1199z"/>
						<path id="hud1-meridian12" fill="#1B1F77" d="M-0.3114-0.1929C-0.4346-0.0765-0.393,0.1667-0.2185,0.3504
							s0.416,0.2381,0.5392,0.1217C0.3213,0.4715,0.3219,0.471,0.3225,0.4704C0.3212,0.4717,0.3199,0.4729,0.3186,0.4742
							C0.1953,0.5906-0.0461,0.5361-0.2206,0.3525C-0.3943,0.1698-0.4365-0.072-0.3153-0.1892
							C-0.314-0.1904-0.3127-0.1917-0.3114-0.1929z"/>
						<path id="hud1-meridian13" fill="#1B1F77" d="M-0.2482-0.2429C-0.3721-0.1615-0.3591,0.0758-0.2193,0.287
							s0.3536,0.3166,0.4775,0.2352C0.2586,0.522,0.2591,0.5217,0.2595,0.5214C0.2581,0.5223,0.2568,0.5232,0.2554,0.5241
							C0.1315,0.6055-0.0822,0.5002-0.2221,0.2889c-0.1392-0.2104-0.1527-0.4467-0.0303-0.529
							C-0.251-0.241-0.2496-0.242-0.2482-0.2429z"/>
						<path id="hud1-meridian14" fill="#1B1F77" d="M-0.1885-0.276c-0.1111,0.0513-0.1144,0.2791-0.0074,0.5087
							S0.0879,0.607,0.199,0.5557c0.0003-0.0001,0.0006-0.0003,0.0009-0.0004C0.1984,0.556,0.1971,0.5566,0.1957,0.5572
							c-0.1111,0.0513-0.2879-0.0933-0.3949-0.323c-0.1067-0.229-0.1037-0.4562,0.0066-0.5083
							C-0.1913-0.2747-0.1899-0.2753-0.1885-0.276z"/>
						<path id="hud1-meridian15" fill="#1B1F77" d="M-0.1329-0.2973c-0.0886,0.0277-0.0984,0.246-0.022,0.4876
							s0.2102,0.4149,0.2988,0.3872c0.0001,0,0.0003-0.0001,0.0004-0.0001C0.1429,0.5777,0.1415,0.5782,0.1401,0.5786
							C0.0516,0.6063-0.0822,0.433-0.1586,0.1914C-0.2349-0.0497-0.2253-0.2677-0.137-0.296
							C-0.1357-0.2965-0.1343-0.2969-0.1329-0.2973z"/>
						<path id="hud1-meridian16" fill="#1B1F77" d="M-0.0809-0.3103c-0.0594,0.0112-0.0689,0.222-0.0212,0.4708
							S0.0325,0.602,0.0919,0.5908c0.0001,0,0.0001,0,0.0002,0C0.0907,0.591,0.0894,0.5913,0.088,0.5915
							C0.0286,0.6027-0.0582,0.4101-0.1059,0.1613c-0.0477-0.2486-0.0383-0.4592,0.021-0.4708
							C-0.0836-0.3098-0.0822-0.31-0.0809-0.3103z"/>
						<path id="hud1-meridian17" fill="#1B1F77" d="M-0.0311-0.3168C-0.0572-0.3147-0.062-0.1083-0.0418,0.1443
							s0.0579,0.4556,0.084,0.4535C0.0409,0.5979,0.0396,0.598,0.0382,0.5981c-0.0262,0.0021-0.0638-0.2009-0.084-0.4535
							s-0.0154-0.459,0.0107-0.4611C-0.0337-0.3166-0.0324-0.3167-0.0311-0.3168z"/>
					</g>
					<g id="hud1-circles-of-latitude">
						<path id="hud1-circle-of-latitude4" fill="#1B1F77" d="M-0.1216-0.3007c0.0794-0.0225,0.171-0.0225,0.2504,0
							c-0.004-0.0011-0.008-0.0022-0.0121-0.0032c-0.0724-0.0184-0.1539-0.0184-0.2263,0
							C-0.1136-0.3029-0.1176-0.3019-0.1216-0.3007z"/>
						<path id="hud1-circle-of-latitude5" fill="#1B1F77" d="M-0.268-0.2291c0.1243-0.0913,0.3467-0.104,0.4966-0.0283
							c0.0169,0.0085,0.0324,0.018,0.0465,0.0283C0.2734-0.2304,0.2716-0.2317,0.2698-0.233
							C0.1442-0.3225-0.0768-0.3331-0.2239-0.2566C-0.2378-0.2494-0.2507-0.2415-0.2626-0.233
							C-0.2644-0.2317-0.2662-0.2304-0.268-0.2291z"/>
						<path id="hud1-circle-of-latitude6" fill="#1B1F77" d="M-0.3544-0.1463c0.0965-0.1203,0.3349-0.1703,0.5326-0.1116
							c0.0798,0.0237,0.1443,0.063,0.1833,0.1116C0.3604-0.1478,0.3592-0.1492,0.358-0.1507
							C0.2601-0.2698,0.022-0.3181-0.1737-0.2585c-0.0766,0.0233-0.1387,0.0612-0.1771,0.1078
							C-0.352-0.1492-0.3532-0.1478-0.3544-0.1463z"/>
						<path id="hud1-circle-of-latitude7" fill="#1B1F77" d="M-0.4115-0.0548c0.0657-0.1395,0.3048-0.2203,0.534-0.1803
							c0.1432,0.025,0.2551,0.0931,0.2961,0.1803C0.4179-0.0564,0.4172-0.0579,0.4164-0.0595
							C0.3491-0.1983,0.1097-0.2776-0.1182-0.2366c-0.1401,0.0252-0.2496,0.0919-0.291,0.1771
							C-0.41-0.0579-0.4107-0.0564-0.4115-0.0548z"/>
						<path id="hud1-circle-of-latitude8" fill="#1B1F77" d="M-0.4446,0.0427c0.0329-0.1507,0.2603-0.2566,0.5078-0.2365
							c0.2024,0.0164,0.3617,0.1133,0.3886,0.2365C0.4514,0.041,0.451,0.0394,0.4507,0.0377
							C0.4161-0.1126,0.1879-0.2174-0.059-0.1963c-0.1996,0.017-0.3565,0.1125-0.3844,0.234
							C-0.4439,0.0394-0.4442,0.041-0.4446,0.0427z"/>
						<path id="hud1-circle-of-latitude9" fill="#1B1F77" d="M-0.4552,0.1431C-0.456-0.0111-0.2512-0.1365,0.0021-0.137
							c0.2534-0.0005,0.4594,0.1242,0.4602,0.2784c0,0.0006,0,0.0012,0,0.0018c0-0.0017,0-0.0034,0-0.005
							C0.4615-0.0161,0.2555-0.1408,0.0021-0.1403c-0.2522,0.0005-0.4565,0.1248-0.4573,0.2784
							C-0.4552,0.1398-0.4552,0.1415-0.4552,0.1431z"/>
						<path id="hud1-circle-of-latitude10" fill="#1B1F77" d="M-0.4435,0.2435C-0.4781,0.0932-0.306-0.0457-0.059-0.0668
							s0.4751,0.0837,0.5097,0.234c0.0058,0.0253,0.0058,0.051,0,0.0763c0.0004-0.0017,0.0008-0.0033,0.0011-0.005
							c0.0329-0.1507-0.141-0.2891-0.3886-0.3091S-0.4117,0.0153-0.4446,0.166c-0.0053,0.0241-0.0053,0.0485,0,0.0726
							C-0.4442,0.2402-0.4439,0.2419-0.4435,0.2435z"/>
						<path id="hud1-circle-of-latitude11" fill="#1B1F77" d="M-0.4092,0.3408c-0.0673-0.1388,0.063-0.2845,0.291-0.3255
							s0.4673,0.0383,0.5346,0.1771c0.0235,0.0484,0.0235,0.0999,0,0.1483C0.4172,0.3392,0.4179,0.3376,0.4187,0.336
							c0.0657-0.1395-0.0669-0.2851-0.2961-0.3251s-0.4683,0.0407-0.534,0.1803c-0.0223,0.0473-0.0223,0.0975,0,0.1448
							C-0.4107,0.3376-0.41,0.3392-0.4092,0.3408z"/>
						<path id="hud1-circle-of-latitude12" fill="#1B1F77" d="M-0.3508,0.4319c-0.0979-0.1192-0.0187-0.2641,0.1771-0.3237
							S0.2601,0.0969,0.358,0.216c0.0559,0.068,0.0559,0.148,0,0.2159C0.3592,0.4305,0.3604,0.429,0.3615,0.4276
							C0.458,0.3072,0.376,0.162,0.1783,0.1033s-0.4362-0.0088-0.5326,0.1116c-0.0538,0.0671-0.0538,0.1456,0,0.2127
							C-0.3532,0.429-0.352,0.4305-0.3508,0.4319z"/>
						<path id="hud1-circle-of-latitude13" fill="#1B1F77" d="M-0.2626,0.5142c-0.1256-0.0895-0.1083-0.224,0.0388-0.3005
							s0.368-0.0659,0.4937,0.0236c0.1119,0.0797,0.1119,0.1972,0,0.2769C0.2716,0.513,0.2734,0.5117,0.2751,0.5104
							C0.3995,0.4191,0.3787,0.2837,0.2287,0.208S-0.1436,0.145-0.268,0.2363c-0.1082,0.0795-0.1082,0.1946,0,0.2741
							C-0.2662,0.5117-0.2644,0.513-0.2626,0.5142z"/>
						<path id="hud1-circle-of-latitude14" fill="#1B1F77" d="M-0.1096,0.5852c-0.1495-0.038-0.22-0.1426-0.1575-0.2336
							s0.2343-0.1339,0.3838-0.0959s0.22,0.1426,0.1575,0.2336C0.2445,0.5327,0.1879,0.5671,0.1167,0.5852
							c0.004-0.001,0.0081-0.0021,0.0121-0.0032c0.1484-0.0421,0.2126-0.1494,0.1435-0.2398S0.0268,0.2128-0.1216,0.2549
							s-0.2126,0.1494-0.1435,0.2398C-0.2356,0.5331-0.1848,0.564-0.1216,0.582C-0.1176,0.5831-0.1136,0.5842-0.1096,0.5852z"/>
						<path id="hud1-circle-of-latitude15" fill="#1B1F77" d="M-0.2241,0.4566c0,0.0765,0.1019,0.1386,0.2276,0.1386
							s0.2276-0.062,0.2276-0.1386S0.1293,0.318,0.0036,0.318S-0.2241,0.3801-0.2241,0.4566L-0.2241,0.4566z M-0.2275,0.455
							c0-0.0777,0.1034-0.1407,0.2311-0.1407c0.1276,0,0.2311,0.063,0.2311,0.1407c0,0,0,0,0,0
							c0,0.0777-0.1034,0.1407-0.2311,0.1407S-0.2275,0.5328-0.2275,0.455C-0.2275,0.455-0.2275,0.455-0.2275,0.455z"/>
						<path id="hud1-circle-of-latitude16" fill="#1B1F77" d="M-0.1514,0.4832c0,0.0521,0.0694,0.0944,0.155,0.0944
							s0.155-0.0423,0.155-0.0944s-0.0694-0.0944-0.155-0.0944S-0.1514,0.4311-0.1514,0.4832z M-0.1552,0.4821
							c0-0.0534,0.0711-0.0967,0.1588-0.0967s0.1588,0.0433,0.1588,0.0967S0.0913,0.5787,0.0036,0.5787
							S-0.1552,0.5355-0.1552,0.4821z"/>
						<path id="hud1-circle-of-latitude17" fill="#1B1F77" d="M-0.0741,0.4993c0,0.0261,0.0348,0.0473,0.0777,0.0473
							s0.0777-0.0212,0.0777-0.0473c0-0.0261-0.0348-0.0473-0.0777-0.0473S-0.0741,0.4732-0.0741,0.4993z M-0.078,0.4988
							c0-0.0274,0.0365-0.0497,0.0816-0.0497c0.0451,0,0.0816,0.0222,0.0816,0.0497c0,0,0,0,0,0
							c0,0.0274-0.0365,0.0497-0.0816,0.0497S-0.078,0.5262-0.078,0.4988C-0.078,0.4988-0.078,0.4988-0.078,0.4988z"/>
					</g>
				</g>
			</g>
		</g>
		<defs>
			<filter id="Adobe_OpacityMaskFilter" filterUnits="userSpaceOnUse" x="109.588" y="81.3109" width="181.3432" height="181.3378">
				<feColorMatrix  type="matrix" values="1 0 0 0 0  0 1 0 0 0  0 0 1 0 0  0 0 0 1 0"/>
			</filter>
		</defs>
		<mask maskUnits="userSpaceOnUse" x="109.588" y="81.3109" width="181.3432" height="181.3378" id="hud1-countries_1_">
			<g filter="url(#Adobe_OpacityMaskFilter)">
				<radialGradient id="SVGID_1_" cx="200.75" cy="172.1252" r="90.75" gradientUnits="userSpaceOnUse">
					<stop  offset="0.6847" style="stop-color:#FFFFFF"/>
					<stop  offset="0.7516" style="stop-color:#CDCDCD"/>
					<stop  offset="0.9032" style="stop-color:#525252"/>
					<stop  offset="1" style="stop-color:#000000"/>
				</radialGradient>
				<circle fill="url(#SVGID_1_)" cx="200.75" cy="172.1252" r="90.75"/>
			</g>
		</mask>
		<g id="hud1-countries" opacity="0.5" mask="url(#hud1-countries_1_)">
			<path fill="none" d="M282.877,134.8479c-0.1748-0.3852-0.3564-0.7666-0.5364-1.1488v1.2231L282.877,134.8479z"/>
			<path fill="none" d="M263.7597,115.2238l0.3988,1.3251l6.3598,0.0581l0.6031-0.8978c-1.0868-1.3585-2.2108-2.6857-3.3726-3.9786
				l-0.0054,1.4701L263.7597,115.2238z"/>
			<polygon fill="none" points="173.9373,127.3079 172.5208,126.4272 171.6817,127.3079 172.8033,128.2425 			"/>
			<polygon fill="none" points="168,126.3752 168,123.3752 168,123.3752 168,123.3752 162.9084,123.3752 160.2456,124.2657 
				159.7264,125.6964 161.8034,126.3752 			"/>
			<polygon fill="none" points="164.9231,126.3752 161.8616,126.3752 159.7264,128.8542 159.3774,131.2485 160.9975,131.9897 			"/>
			<polygon fill="none" points="158.3306,119.436 159.0867,116.4908 156.8933,115.9674 154.4674,117.1222 155.9629,120.1879 			"/>
			<path fill="none" d="M269,224.4871l-3-4.7605v-7.4107l-2.8648-2.6877l-0.315-3.0822l3.3859-6.5467l-6.5258-11.4776l0.7624-7.7847
				l-5.8582-0.9082l-2.1611-2.4535h-3.9339l-1.9981,3h-6.9289h-0.2326h-3.8549l-8.8522-10.0567l0.0748-7.8448l1.4622-0.8134
				l0.5442-3.2851h-2.077l-0.3612-2.8722L237,148.3937v-5.2382l4.5235-2.3835l1.5367,0.6033h4.1291l3.8204-2.132L262,138.0335
				v5.3172l7.6156,1.9754l1.0232,1.0491H272v-2.6797l4.8069-0.5668l4.5742,3.2466h5.8606c-0.7793-2-1.6721-5.1328-2.6802-7.6699
				l-2.6154,0.0978l-2.4218-2.6321l-0.4652-4.2613l-2.4799,1.3608l-1.3334,5.2291l-3.5808-3.8118l-0.1454-3.6007l-3.4603-2.7096
				l-1.2794-1.0023h-4.0128l1.2711,3.3082l4.827,2.5576l0.8391,0.8219l-1.0427,0.4898l0.0457,2.8163l-2.3512,0.972l-2.0064-0.4445
				l-1.2545-1.78l3.2651,0.1734l0.8807-1.1886l-7.2363-4.8812l-0.5483-2.0771l-2.941,2.6585l-2.9826-0.6107l-4.5362,5.8945
				l-0.889,2.3097l-2.9037,0.2617l-4.2953,0.0249l-2.5672-1.2005l-0.7519-5.1011l0.9222-2.4301l4.3659-0.9554l4.7646,0.9554
				l0.5816-2.6378l-2.023-0.4777l0.6937-4.1042l4.7937-0.7519l3.3523-4.7355l3.4603-0.4551l3.1238,0.5876h1.1507l-0.6314-4.5713
				l-3.8009,1.4696l-1.3334-3.3549l-2.2058-0.3232l-0.4112-2.2884l1.7987-1.9605l4.2745-1.676l0.0652-0.1176
				c-15.995-14.2265-37.0625-23.2419-60.1529-23.2419c-15.249,0-29.6142,4.0643-42.2217,10.0643h5.1427l2.4633,3.7575l4.0875,0.4165
				l2.4633-2.3007l1.8527,0.9723l-3.3938,3.3379c0,0-4.6941,0.0904-4.4656,0.0904c0.2285,0,0.3863,3.2376,0.3863,3.2376
				l5.6952-0.155l0.6148-1.5355l3.9255-0.2319l0.4611-2.3093l-2.3096-0.3903l0.7685-2.0769l1.7696-0.5358l6.1604,0.3074
				l-3.3938,3.0823l0.5483,2.3844l3.5434,0.54l-0.2326-4.3119l3.3897-1.7738l5.8355-0.6937L202,97.0417v3.3108l2.9462,0.5498
				l-1.2162,2.4731h-3.9256l-1.1631,3.1473l-8.981-2.0466l7.0577-3.7234l-2.6918-2.2667l-6.0856,0.7775l-0.5317,0.5528
				l-0.0208-0.0061l-0.0955,0.1341l-1.7489,1.82l-2.8954,0.2454l0.2326,1.4458l1.0136,0.4196l-0.0415,0.4778l-2.3553,0.3365
				l-0.1745,1.3667l-2.2515,0.1163l-0.4071-2.7167l-4.0419,1.2296l-8.2623,4.8353l0.9305,3.4021l2.1997,1.5038L174,115.066v5.2507
				l2.245-0.3448l1.9049-4.1042L183,114.3099v-6.2975l2.8524-2.0645l6.6644,1.9135l-0.4057,4.5139h1.7696l4.8519-2.7401
				l0.2326,5.2847l3.5392,2.067l-0.1496,3.1957l-3.3855,1.1326l0.2326,1.0606l4.0793,1.8513l-0.0789,2.2279l-1.1839,0.0983
				c-0.0083-0.0415-0.0124-0.063-0.0124-0.063l-5.1468-1.5264l-0.2202-1.5886h-0.0042L198,122.2192v-1.5037l-1.5507-0.4071
				l-0.3683,1.3874l-2.3199,0.4361l0.239-0.0955v0.1412l-1.4845,0.1495l-1.0538-1.5825l-1.1784-0.3695h-2.023L187,121.0519v1.6616
				l1.9034,0.5774l1.7929,0.2409l-0.3394,0.1703l-1.5364,1.7281l-0.6789-0.864l-1.4984-0.3988l-4.1015,3.8633l0.5372,0.4403
				l-6.0601,3.3564l-5.699,5.9319l-0.3903,2.642l-5.7159,3.7552l-2.833,2.8496l0.3116,5.6993l-3.9297-1.8278l0.0291-3.3356
				l-10.9334,0.0042l-5.6619,2.8663l-2.4592,4.5321l-0.972,3.5932l1.591,3.4852l4.4614,0.5442l7.0909-4.7397l0.619,2.347
				l-2.1642,4.0875l5.3961,0.9222l0.5359,8.333l7.3942,1.2545l4.6982-5.4293l5.7034,1.159l2.0023,2.7873l5.4667-0.324l0.1537-1.6201
				l3.0033,1.4664l3.3814,5.313l5.853,0.0831l2.1601,3.776l0.3074,4.6151l6.472,2.4675l8.1626,0.0789l2.3886,3.9214l3.6182,1.159
				l-0.6938,3.236l-3.9671,5.043l-1.1548,11.1536l-3.5808,2.8331l-5.313-0.162l-1.7737,3.0782l1.3127,5.7824l-5.7783,7.3941
				l-1.8485,3.3897l-5.5083,2.6461l-3.6223,0.5483l-0.1495,1.537l2.5423,0.727l-0.3074,1.6533l-2.2764,2.1933l1.3833,1.7364
				l2.7416,0.0789l-0.1537,2.1185l-0.727,2.077l-0.2326,1.6949l4.0543,3.4146l-0.54,1.7738l-5.5166-0.1039l-5.4875-4.7896
				l-4.2744-7.5146l0.5981-7.2571l-3.236-4.316l1.3404-7.3152l-1.8914-0.54v-15.8642c0,0-5.4238-4.0876-5.7312-4.0876
				c-0.3115,0-2.8698-0.6896-2.8698-0.6896l-0.5439-3.0034l-7.016-8.7816l0.6917-3.1571l0.2275-5.1593l4.8472-3.3897l-0.694-5.7782
				l-7.0827-0.5317l-5.5457-6.3183l-3.9256-1.0717l-2.5423-0.4652l0.364-2.3097L140,165.2673v1.3085l-8.1445-2.0022l-3.2851-4.9807
				l1.311-2.4135l-5.129-7.4053l-0.8836-5.3989h-2.077l0.6937,5.2452l3.5434,5.4328l-0.3863,2.1432l-3.4765-0.4696L118,150.4167
				v-7.3318l-3.2272-1.7803c-3.5067,9.6505-5.1848,20.0649-5.1848,30.927c0,50.0112,40.6604,90.4172,90.6716,90.4172
				c27.7473,0,52.6932-12.2734,69.3039-32.2734H269V224.4871z"/>
			<polygon fill="none" points="151,102.5707 151,101.3752 148.1117,101.3752 147.9373,102.3752 146,102.3752 146,102.3752 
				146,102.3752 146,104.3752 150.4712,104.3752 			"/>
			<polygon fill="none" points="151,106.1515 148.9764,106.4962 145.8273,107.4184 146.5651,108.4569 151,108.1703 			"/>
			<polygon fill="none" points="166.7799,131.3954 165.3883,131.4361 164.9272,133.3752 167.8724,133.3752 170,132.2055 
				170,130.4068 167.4678,130.7017 			"/>
			<path fill="none" d="M168,129.7754l1.6703-0.3199L171,128.5624v-2.1871h-3C168,127.3752,168,129.7754,168,129.7754z"/>
			<polygon fill="none" points="169,123.7645 169,125.962 170.9067,125.5009 			"/>
			<path fill="none" d="M152.6812,98.4042l3.9255,0.8474l0.3032,1.5412l6.2435,0.2326l-0.8474-2.0022l-5.5456-0.1537l1.3002-1.1183
				l-0.4569-1.3759h-5.0098l5.2368-4.0022c-2.842,1.5156-5.5955,3.13-8.2467,4.9297L150.6,97.272L152.6812,98.4042z"/>
			<polygon fill="none" points="174,131.3752 174,129.7754 170.88,128.3752 171,128.3752 171,130.4068 171.4532,131.3752 			"/>
			<path fill="#663399" d="M256.1911,106.3425l-1.7987,1.9566l0.4112,2.2805l2.2058,0.3074l1.3334,3.3232l3.8009-1.4063
				l0.6314,4.5713h-1.1507l-3.1238-0.5876l-3.4603,0.5183l-3.3523,4.7039l-4.7937,0.7361l-0.6937,4.0963l2.023,0.4738
				l-0.5816,2.6358l-4.7646-0.9564l-4.3659,0.9549l-0.9222,2.4299l0.7519,5.101l2.5672,1.2005l4.2953-0.025l2.9037-0.2617
				l0.889-2.3097l4.5362-5.8945l2.9826,0.6107l2.941-2.6586l0.5483,2.077l7.2363,4.881l-0.8807,1.188l-3.2651-0.1745l1.2545,1.7779
				l2.0064,0.4403l2.3512-0.9803l-0.0457-2.8331l1.0427-0.5234l-0.8391-0.889l-4.827-2.4234l-1.2711-3.3082h4.0128l1.2794,1.0027
				l3.4603,2.8442l0.1454,3.5344l3.5808,3.7798l1.3334-5.2426l2.4799-1.3626l0.4652,4.2703l2.4218,2.6564l2.6154-0.046
				c-0.5312-1.3369-0.7627-2.6591-1.3548-3.9637L283,134.9222v-1.2231c-3-6.4498-7.1427-12.4823-11.5489-17.9897l-0.768,0.8978
				l-6.4422-0.0581l-0.3177-1.3251l4.0768-2.023v-1.4701c-2-2.5259-4.8061-4.9219-7.3437-7.1789l-0.128,0.1166L256.1911,106.3425z"
				/>
			<path fill="#663399" d="M287.2417,146.3752h-5.8606l-4.5742-3.2466L272,143.6955v2.6797h-1.3612l-1.0232-1.0491L262,143.3507
				v-5.3172l-10.9902,1.2097l-3.8204,2.132h-4.1291l-1.5367-0.6033L237,143.1555v5.2382l-10.7342,7.1093l0.3612,2.8722h2.077
				l-0.5442,3.2924l-1.4622,0.6783l-0.0748,7.9014l8.8522,10.1279h3.8549h0.2326h6.9289l1.9981-3h3.9339l2.1559,2.4535l5.853,0.7594
				l-0.7727,7.859l6.5052,11.5148l-3.4271,6.5653l0.3973,3.0916l2.8648,2.697v7.4107l3,4.7605v5.8882h0.5635
				c13.328-16,21.3677-36.1217,21.3677-58.3856C290.9312,163.0815,289.6387,154.3752,287.2417,146.3752z"/>
			<path fill="#663399" d="M118,150.4167l4.1661,6.3017l3.2399,0.4611l0.5046-2.1601l-3.4842-5.3989l-0.6346-5.2452h2.077
				l0.8765,5.3989l5.1219,7.4392l-1.3251,2.3965l3.3134,4.9722L140,166.5758v-1.3085l3.1794,0.4611l-0.3357,2.3097l2.5281,0.4652
				l3.9185,1.0717l5.5421,6.3183l7.0808,0.5317l0.6928,5.7782l-4.8482,3.3897l-0.2287,5.1593l-0.6938,3.1571l7.0119,8.7816
				l0.5358,3.0034c0,0,2.5742,0.6896,2.8857,0.6896c0.3074,0,5.7312,4.0876,5.7312,4.0876v15.8642l1.8914,0.54l-1.3245,7.3152
				l3.228,4.316l-0.6021,7.2571l4.2725,7.5146l5.4865,4.7896l5.516,0.1039l0.5398-1.7738l-4.0545-3.4146l0.2326-1.6949l0.7269-2.077
				l0.1537-2.1185l-2.7416-0.0789l-1.3833-1.7364l2.2764-2.1933l0.3074-1.6533l-2.5423-0.727l0.1495-1.537l3.6223-0.5483
				l5.5083-2.6461l1.8485-3.3897l5.7783-7.3941l-1.3127-5.7824l1.7737-3.0782l5.313,0.162l3.5808-2.8331l1.1548-11.1536
				l3.9671-5.043l0.6938-3.236l-3.6182-1.159l-2.3886-3.9214l-8.1626-0.0789l-6.472-2.4675l-0.3074-4.6151l-2.1601-3.776
				l-5.853-0.0831l-3.3814-5.313l-3.0033-1.4664l-0.1537,1.6201l-5.4667,0.324l-2.0023-2.7873l-5.7034-1.159l-4.6982,5.4293
				l-7.3942-1.2545l-0.5359-8.333l-5.3961-0.9222l2.1642-4.0875l-0.619-2.347l-7.0909,4.7397l-4.4614-0.5442l-1.591-3.4852
				l0.972-3.5932l2.4592-4.5321l5.6619-2.8663l10.9334-0.0042l-0.0291,3.3356l3.9297,1.8278l-0.3116-5.6993l2.8331-2.8496
				l5.7159-3.7552l0.3905-2.642l5.6993-5.9319l6.0607-3.3564l-0.5359-0.4403l4.1042-3.8633l1.5038,0.3988l0.6896,0.864
				l1.5578-1.7281l0.3821-0.1703l-1.8784-0.2409L187,122.7135v-1.6616l1.2604-0.6767h2.023l0.9263,0.3695l1.3058,1.6013
				L194,122.1777v-0.1412l-0.2216,0.0955l2.5893-0.4361l0.2076-1.3874L198,120.7155v1.5037l-1.3651,1.1561h0.0042l0.2202,1.5883
				l5.1468,1.5564c0,0,0.0042,0.0056,0.0124,0.0471l1.1839-0.1073l0.0789-2.2345l-4.0793-1.8588l-0.2326-1.0727l3.3855-1.1553
				l0.1496-3.2404l-3.5392-2.156l-0.2326-5.1069l-4.8519,2.7401h-1.7696l0.4652-4.5139l-6.724-1.7356L183,108.0124v6.2975
				l-4.7951,1.5578l-2.0194,4.1042L174,120.3167v-5.2507l-4.5094-0.6397l-2.2547-1.5038l-0.903-3.4021l8.2761-4.8353l4.0487-1.2296
				l0.4105,2.7167l2.2532-0.1163l0.1753-1.3667l2.3558-0.3365l0.0417-0.4777l-1.0135-0.4195l-0.2326-1.4456l2.8954-0.2451
				l1.7489-1.8194l0.0955-0.1329l0.0208,0.0083l0.5317-0.5483l6.0856-0.7685l2.6918,2.2847l-7.0577,3.7594l8.981,1.9746
				l1.1631-3.1473h3.9256l1.2162-2.4731L202,100.3524v-3.3108l-8.5314-3.8549l-5.9211,0.6937l-3.3469,1.7738l0.254,4.3119
				l-3.5326-0.54l-0.543-2.3844l3.3965-3.0823l-6.1591-0.3074l-1.769,0.5359l-0.7681,2.077l2.3098,0.3905l-0.461,2.3097
				l-3.9255,0.2326l-0.6148,1.537l-5.6951,0.1579c0,0-0.1579-3.2318-0.3863-3.2318c-0.2285,0,4.4656-0.0789,4.4656-0.0789
				l3.3938-3.3149l-1.8527-0.9263l-2.4633,2.3927l-4.0875-0.6004l-2.4633-3.7575h-5.1427c-0.1084,0-0.2173,0.5723-0.3255,0.63
				l-5.2368,4.37h5.0098l0.4569,1.3759l-1.3002,1.1636l5.5456,0.1311l0.8474,1.9909l-6.2435-0.2383l-0.3032-1.544l-3.9255-0.8488
				L150.6,97.2501l-1.0161,0.0078c-15.6366,10.6143-28.2502,25.9911-34.8112,44.0468L118,143.0848V150.4167z"/>
			<polygon fill="#663399" points="170,132.2055 167.8724,133.3752 164.9272,133.3752 165.3883,131.4361 166.7799,131.3555 
				167.4678,130.6818 170,130.4068 			"/>
			<path fill="#663399" d="M171,128.5624l-1.3297,0.8931L168,129.7754c0,0,0-2.4001,0-3.4001h3V128.5624z"/>
			<polygon fill="#663399" points="172.5208,126.4272 173.9373,127.3079 172.8033,128.2425 171.6817,127.3079 			"/>
			<polygon fill="#663399" points="171,128.3752 170.88,128.3752 174,129.7754 174,131.3752 171.4532,131.3752 171,130.4068 			"/>
			<polygon fill="#663399" points="169,123.7645 170.9067,125.5009 169,125.962 			"/>
			<polygon fill="#663399" points="160.2456,124.2657 162.9084,123.3752 168,123.3752 168,123.3752 168,123.3752 168,126.3752 
				161.8034,126.3752 159.7264,125.6964 			"/>
			<polygon fill="#663399" points="159.7264,128.8542 161.8616,126.3752 164.9231,126.3752 160.9975,132.032 159.3774,131.1638 			
				"/>
			<polygon fill="#663399" points="156.8933,115.9674 159.0867,116.4908 158.3306,119.436 155.9629,120.1879 154.4674,117.1222 			
				"/>
			<polygon fill="#663399" points="151,108.1703 146.6086,108.4569 145.8273,107.4184 148.9329,106.4962 151,106.1515 			"/>
			<polygon fill="#663399" points="146,102.3752 146,102.3752 146,102.3752 147.9373,102.3752 148.1117,101.3752 151,101.3752 
				151,102.5707 150.4712,104.3752 146,104.3752 			"/>
		</g>
	</g>
	<g id="hud1-buttons">
		<g id="hud1-btn-linked">
			<g>
				<path fill="#9933FF" d="M50.7701,250.0417h2.08c0.287,0,0.5196-0.2326,0.5196-0.5196v-9.0917
					c0-0.287-0.2326-0.5196-0.5196-0.5196h-2.08c-0.287,0-0.5196,0.2326-0.5196,0.5196v9.0917
					C50.2506,249.8091,50.4832,250.0417,50.7701,250.0417z"/>
				<path fill="#9933FF" d="M50.7701,238.3125h2.08c0.287,0,0.5196-0.2326,0.5196-0.5196v-1.8471
					c0-0.287-0.2326-0.5196-0.5196-0.5196h-2.08c-0.287,0-0.5196,0.2326-0.5196,0.5196v1.8471
					C50.2506,238.0799,50.4832,238.3125,50.7701,238.3125z"/>
				<path fill="#9933FF" d="M65.4679,240.9654c-0.2923-0.3848-0.7233-0.7011-1.2932-0.9491
					c-0.5699-0.2478-1.1989-0.3718-1.8871-0.3718c-1.3971,0-2.581,0.5332-3.5516,1.5998c-0.1931,0.2122-0.3336,0.1658-0.3336-0.1212
					v-0.6926c0-0.287-0.2326-0.5196-0.5196-0.5196h-1.8581c-0.287,0-0.5196,0.2326-0.5196,0.5196v9.0917
					c0,0.287,0.2326,0.5196,0.5196,0.5196h2.08c0.287,0,0.5196-0.2326,0.5196-0.5196v-3.1618c0-1.3172,0.0795-2.2202,0.2386-2.7085
					c0.1591-0.4884,0.4533-0.8806,0.8825-1.1766c0.4292-0.296,0.9139-0.4441,1.4542-0.4441c0.4218,0,0.7826,0.1036,1.0824,0.3109
					s0.5162,0.4976,0.6494,0.8714c0.1332,0.3738,0.1998,1.197,0.1998,2.4699v3.8389c0,0.287,0.2326,0.5196,0.5196,0.5196h2.08
					c0.287,0,0.5196-0.2326,0.5196-0.5196v-5.1489c0-0.9102-0.0574-1.6095-0.172-2.0979
					C65.9639,241.787,65.7604,241.3503,65.4679,240.9654z"/>
			</g>
			<path fill="#1B1F77" d="M80,241.3752h-5.5585C73.841,233.3752,67,226.9517,59,226.44v-7.0648h-3v7.0586
				c-8,0.4544-14.7075,6.9414-15.311,14.9414H34v3h6.6654c0.3715,8,7.3346,15.3746,15.3346,15.8376v6.1624h3v-6.1685
				c8-0.5214,15.0955-7.8315,15.4652-15.8315H80V241.3752z M58.5934,258.2712c-0.3412,0.0233-0.6812,0.0521-1.0282,0.0521
				c-0.3063,0-0.6055-0.0277-0.9073-0.046c-7.8481-0.473-14.0927-6.9891-14.0927-14.954c0-7.9649,6.2446-14.481,14.0927-14.954
				c0.3018-0.0182,0.601-0.0459,0.9073-0.0459c0.3471,0,0.687,0.0288,1.0282,0.0521c7.7914,0.5322,13.9717,7.0238,13.9717,14.9479
				S66.3847,257.739,58.5934,258.2712z"/>
		</g>
		<g id="hud1-btn-gplus">
			<g>
				<path fill="#9933FF" d="M100.9991,287.3763h-4.4154c-1.9676,0-3.3296,0.4314-4.5554,1.444
					c-0.9641,0.8318-1.5394,2.0406-1.5394,3.2337c0,1.8383,1.4016,3.7919,3.9988,3.7919c0.2497,0,0.5262-0.0256,0.7702-0.0484
					l-0.0359,0.0874c-0.1044,0.2501-0.2033,0.4861-0.2033,0.8543c0,0.717,0.3459,1.1593,0.6803,1.5869l0.0421,0.0541l-0.0748,0.0052
					c-1.0725,0.0734-3.0687,0.2101-4.5269,1.1065c-1.7222,1.0241-1.8561,2.5135-1.8561,2.9454c0,1.7188,1.6016,3.4532,5.1799,3.4532
					c4.1607,0,6.3379-2.2955,6.3379-4.5629c0.0006-1.6771-0.9828-2.505-2.0266-3.384l-0.8805-0.6849
					c-0.2721-0.2254-0.6109-0.506-0.6109-1.0258c0-0.5109,0.3388-0.8482,0.6379-1.1458l0.0312-0.0315
					c0.9509-0.749,2.0287-1.5981,2.0287-3.4349c0-1.8467-1.1542-2.801-1.7089-3.2597h1.4652c0.018,0,0.0358-0.005,0.0509-0.0147
					l1.262-0.7935c0.0359-0.0228,0.0528-0.0665,0.0409-0.1075C101.0792,287.4044,101.0417,287.3763,100.9991,287.3763z
					 M95.6446,304.8788c-2.5362,0-4.2403-1.1846-4.2403-2.9477c0-1.1513,0.697-1.9878,2.0697-2.4851
					c1.0993-0.37,2.5182-0.3884,2.5324-0.3884c0.2404,0,0.3612,0,0.5532,0.0241c1.7746,1.2629,2.6278,1.9261,2.6278,3.189
					C99.1871,303.8795,97.8295,304.8788,95.6446,304.8788z M95.6207,295.1693c-2.1286,0-3.012-2.798-3.012-4.2961
					c0-0.7618,0.1732-1.3465,0.5297-1.788c0.3868-0.4839,1.0492-0.7966,1.6874-0.7966c1.9544,0,3.0351,2.6269,3.0351,4.4424
					c0,0.2864,0,1.1578-0.6019,1.763C96.8542,294.8979,96.1958,295.1693,95.6207,295.1693z"/>
				<path fill="#9933FF" d="M107.1876,296.0234h-2.3267v-2.3185c0-0.0528-0.0428-0.0956-0.0956-0.0956h-1.001
					c-0.0528,0-0.0956,0.0428-0.0956,0.0956v2.3185h-2.3148c-0.0528,0-0.0956,0.0428-0.0956,0.0956v1.0142
					c0,0.0528,0.0428,0.0956,0.0956,0.0956h2.3148v2.3333c0,0.0528,0.0428,0.0956,0.0956,0.0956h1.001
					c0.0528,0,0.0956-0.0428,0.0956-0.0956v-2.3335h2.3267c0.0528,0,0.0956-0.0428,0.0956-0.0956v-1.014
					C107.2832,296.0661,107.2406,296.0234,107.1876,296.0234z"/>
			</g>
			<path fill="#1B1F77" d="M119,295.3752h-5.2753c-0.6006-8-7.7247-14.9123-15.7247-15.424v-6.576h-3v6.5699
				c-8,0.4544-14.4243,7.4301-15.0278,15.4301H73v3h6.9485C80.32,306.3752,87,313.2611,95,313.7241v6.6511h3v-6.6573
				c8-0.5214,15.3787-7.3427,15.7484-15.3427H119V295.3752z M97.8766,311.7825c-0.3412,0.0233-0.6811,0.0521-1.0282,0.0521
				c-0.3063,0-0.6055-0.0278-0.9073-0.046c-7.8481-0.473-14.0927-6.9891-14.0927-14.954c0-7.9649,6.2446-14.481,14.0927-14.954
				c0.3018-0.0182,0.601-0.046,0.9073-0.046c0.3471,0,0.687,0.0287,1.0282,0.0521c7.7914,0.5322,13.9717,7.0238,13.9717,14.9478
				S105.6679,311.2503,97.8766,311.7825z"/>
		</g>
		<g id="hud1-btn-mail">
			<path fill="#1B1F77" d="M60,175.3752h-7.1905C52.0224,164.3752,43,155.7979,32,155.1274v-8.7522h-3v8.7441
				c-11,0.5955-19.6339,9.2559-20.4248,20.2559H0v3h8.5441C9.031,189.3752,18,198.7815,29,199.3883v7.9869h3v-7.995
				c11-0.6833,20.3559-10.005,20.8404-21.005H60V175.3752z M32.0397,196.8438c-0.4472,0.0306-0.8927,0.0683-1.3475,0.0683
				c-0.4014,0-0.7935-0.0364-1.189-0.0602c-10.2853-0.6199-18.4692-9.1596-18.4692-19.598c0-10.4384,8.1839-18.978,18.4692-19.5979
				c0.3955-0.0238,0.7876-0.0602,1.189-0.0602c0.4549,0,0.9003,0.0377,1.3475,0.0683c10.2109,0.6974,18.3106,9.205,18.3106,19.5899
				C50.3503,187.6387,42.2507,196.1463,32.0397,196.8438z"/>
			<g>
				<path fill="#9933FF" d="M41.3361,167.9362H20.0177c-0.8406,0-1.5227,0.6822-1.5227,1.5227v2.5567l12.1819,4.8728l12.1819-4.8728
					v-2.5567C42.8588,168.6184,42.1767,167.9362,41.3361,167.9362z"/>
				<path fill="#9933FF" d="M18.495,174.5023v10.1841c0,0.8406,0.6822,1.5228,1.5227,1.5228h21.3184
					c0.8406,0,1.5227-0.6822,1.5227-1.5228v-10.1841l-12.1819,4.8728L18.495,174.5023z"/>
			</g>
		</g>
	</g>
</g>
</svg>
