<?xml version="1.0" encoding="utf-8"?>
<!-- Generator: Adobe Illustrator 17.0.0, SVG Export Plug-In . SVG Version: 6.00 Build 0)  -->
<!DOCTYPE svg PUBLIC "-//W3C//DTD SVG 1.1//EN" "http://www.w3.org/Graphics/SVG/1.1/DTD/svg11.dtd">
<svg version="1.1" id="hud2" xmlns="http://www.w3.org/2000/svg" xmlns:xlink="http://www.w3.org/1999/xlink" x="0px" y="0px"
	 width="314.1306px" height="310.9472px" viewBox="0 0 314.1306 310.9472" enable-background="new 0 0 314.1306 310.9472"
	 xml:space="preserve">
<g id="hud2-wrap">
	<g id="hud2-rings">
		<circle id="hud2-center1" fill="none" stroke="#AAFF00" stroke-miterlimit="10" cx="159.5207" cy="155.5424" r="103.5"/>
		<circle id="hud2-center2" fill="none" stroke="#AAFF00" stroke-miterlimit="10" cx="159.5207" cy="155.5424" r="100"/>
		<g id="hud2-ring1" opacity="0.9">
			<path fill="none" stroke="#9933FF" stroke-miterlimit="10" d="M102.3787,248.7837c-6.718-4.0668-12.9628-8.839-18.6332-14.212
				l-8.4863,8.4863c6.4126,6.1088,13.495,11.5189,21.1208,16.1157L102.3787,248.7837z"/>
			<path fill="none" stroke="#9933FF" stroke-miterlimit="10" d="M254.4854,103.5796c3.7136,6.8303,6.7146,14.1012,8.9106,21.7098
				l11.5959-3.1071c-2.4738-8.6321-5.8853-16.8715-10.1156-24.602L254.4854,103.5796z"/>
			<path fill="none" stroke="#9933FF" stroke-miterlimit="10" d="M41.08,127.1425c-2.07,8.5146-3.2368,16.7332-3.3925,26.7332
				h11.9999c0.1526-9,1.1788-15.9796,2.9869-23.5015L41.08,127.1425z"/>
			<path fill="none" stroke="#9933FF" stroke-miterlimit="10" d="M62.9482,103.3612l-10.3907-5.999
				c-4.2655,7.7568-7.7062,16.0276-10.2007,24.6961l11.5959,3.1071C56.1693,117.5204,59.1997,110.2181,62.9482,103.3612z"/>
			<path fill="none" stroke="#9933FF" stroke-miterlimit="10" d="M128.3687,260.1828c-7.5893-2.1987-14.8419-5.1976-21.6555-8.9066
				l-5.9991,10.3907c7.7138,4.2257,15.9348,7.6353,24.5475,10.1119L128.3687,260.1828z"/>
			<path fill="none" stroke="#9933FF" stroke-miterlimit="10" d="M52.8589,181.9527c-1.8606-7.5027-2.9482-15.077-3.1589-23.077
				H37.6977c0.2151,9,1.4432,17.8136,3.5668,26.3087L52.8589,181.9527z"/>
			<path fill="none" stroke="#9933FF" stroke-miterlimit="10" d="M237.754,80.5632c5.3857,5.6839,10.1672,11.9451,14.2404,18.6811
				l10.39-5.9987c-4.603-7.644-10.0226-14.7427-16.1442-21.1686L237.754,80.5632z"/>
			<path fill="none" stroke="#9933FF" stroke-miterlimit="10" d="M245.8438,239.2781c6.1226-6.3674,11.5587-13.3991,16.1826-20.979
				l-10.3953-6.0017c-4.0931,6.6724-8.8823,12.8735-14.2686,18.4994L245.8438,239.2781z"/>
			<path fill="none" stroke="#9933FF" stroke-miterlimit="10" d="M274.7701,189.5096l-11.596-3.1071
				c-2.2425,7.5647-5.2832,14.7886-9.0284,21.5732l10.3907,5.999C268.799,206.2905,272.2486,198.0972,274.7701,189.5096z"/>
			<path fill="none" stroke="#9933FF" stroke-miterlimit="10" d="M264.4837,181.827l11.5944,3.2317
				c2.1044-8.4567,3.322-17.183,3.5361-26.183h-12.0023C267.4023,165.8757,266.3253,174.3628,264.4837,181.827z"/>
			<path fill="none" stroke="#9933FF" stroke-miterlimit="10" d="M221.3044,258.9532c7.5861-4.6098,14.6259-10.0318,21.0021-16.1413
				l-8.4814-8.4814c-5.6345,5.3735-11.8433,10.1492-18.5219,14.2285L221.3044,258.9532z"/>
			<path fill="none" stroke="#9933FF" stroke-miterlimit="10" d="M100.3632,49.4768l5.9991,10.3906
				c6.8562-3.7651,14.1591-6.812,21.8069-9.0436l-3.1071-11.5959C116.391,41.7377,108.1192,45.1944,100.3632,49.4768z"/>
			<path fill="none" stroke="#9933FF" stroke-miterlimit="10" d="M132.8913,49.5364c7.53-1.8237,15.2961-2.8654,23.2961-3.0292v-12
				c-9,0.1672-17.9348,1.3488-26.4574,3.4348L132.8913,49.5364z"/>
			<path fill="none" stroke="#9933FF" stroke-miterlimit="10" d="M184.469,261.3454c-7.4562,1.826-15.2816,2.8899-23.2816,3.0881v12
				c10-0.2026,17.885-1.4053,26.3337-3.4938L184.469,261.3454z"/>
			<path fill="none" stroke="#9933FF" stroke-miterlimit="10" d="M192.5133,271.6407c8.585-2.5062,16.7773-5.9396,24.4623-10.1854
				l-5.999-10.3907c-6.7852,3.7286-14.0085,6.7527-21.5704,8.9801L192.5133,271.6407z"/>
			<path fill="none" stroke="#9933FF" stroke-miterlimit="10" d="M74.8515,68.2857l8.4813,8.4813
				c5.6832-5.4411,11.9519-10.2748,18.702-14.3951L96.034,51.9784C88.3763,56.6291,81.2759,62.1082,74.8515,68.2857z"/>
			<path fill="none" stroke="#9933FF" stroke-miterlimit="10" d="M129.9868,273.0546c8.4607,2.0553,17.2006,3.2194,26.2006,3.3853
				v-12c-7-0.1624-15.6805-1.1862-23.1485-2.9797L129.9868,273.0546z"/>
			<path fill="none" stroke="#9933FF" stroke-miterlimit="10" d="M189.6057,50.9619c7.6203,2.2606,14.8942,5.3322,21.7218,9.117
				l5.999-10.3906c-7.727-4.3026-15.9704-7.7828-24.6137-10.3223L189.6057,50.9619z"/>
			<path fill="none" stroke="#9933FF" stroke-miterlimit="10" d="M187.7779,38.0569c-8.5105-2.1194-16.5905-3.3391-26.5905-3.5433
				v12c9,0.2,15.911,1.2811,23.4292,3.1376L187.7779,38.0569z"/>
			<path fill="none" stroke="#9933FF" stroke-miterlimit="10" d="M276.2626,127.2682L264.6682,130.5
				c1.7892,7.4833,2.8044,15.3757,2.9562,23.3757h11.9999C279.4694,143.8757,278.3136,135.7443,276.2626,127.2682z"/>
			<path fill="none" stroke="#9933FF" stroke-miterlimit="10" d="M55.0548,93.0304l10.39,5.9987
				c4.1064-6.7561,8.9261-13.0329,14.3542-18.7247l-8.4813-8.4813C65.1535,78.2563,59.6913,85.3666,55.0548,93.0304z"/>
			<path fill="none" stroke="#9933FF" stroke-miterlimit="10" d="M63.2883,208.1938c-3.7802-6.8109-6.8504-14.0663-9.1135-21.6672
				l-11.596,3.1071c2.5422,8.6239,6.0209,16.8489,10.3188,24.5592L63.2883,208.1938z"/>
			<path fill="none" stroke="#9933FF" stroke-miterlimit="10" d="M80.1963,231.0498c-5.4285-5.6336-10.2567-11.848-14.3831-18.5403
				l-10.3953,6.0018c4.6575,7.5995,10.1318,14.6452,16.2971,21.0198L80.1963,231.0498z"/>
			<path fill="none" stroke="#9933FF" stroke-miterlimit="10" d="M215.6445,62.6015c6.7103,4.1328,12.9406,8.9712,18.5875,14.4125
				l8.4813-8.4813c-6.3879-6.178-13.4495-11.6627-21.0671-16.3265L215.6445,62.6015z"/>
		</g>
		<g id="hud2-ring2" opacity="0.7">
			<path fill="none" stroke="#1B1F77" stroke-miterlimit="10" d="M291.4185,117.7809c-2.8665-10.0823-6.8588-19.6941-11.822-28.6992
				l-10.3906,5.999c4.4457,8.1055,8.0283,16.7484,10.6177,25.807L291.4185,117.7809z"/>
			<path fill="none" stroke="#1B1F77" stroke-miterlimit="10" d="M224.1469,47.8749c7.9959,4.8848,15.4037,10.6388,22.1003,17.1239
				l8.4812-8.4812c-7.437-7.2224-15.6762-13.6228-24.58-19.0377L224.1469,47.8749z"/>
			<path fill="none" stroke="#1B1F77" stroke-miterlimit="10" d="M36.4335,186.3539c-2.2334-8.9084-3.519-18.4782-3.7358-27.4782
				h-12c0.2202,10,1.6445,20.8095,4.1415,30.7099L36.4335,186.3539z"/>
			<path fill="none" stroke="#1B1F77" stroke-miterlimit="10" d="M48.5681,216.6925c-4.5139-8.0849-8.1627-16.714-10.821-25.7642
				l-11.5959,3.1071c2.9364,10.0735,6.994,19.6722,12.0262,28.6561L48.5681,216.6925z"/>
			<path fill="none" stroke="#1B1F77" stroke-miterlimit="10" d="M249.7751,68.5421c6.4282,6.7349,12.1149,14.1816,16.9385,22.204
				l10.3899-5.9986c-5.3527-8.9306-11.6824-17.2107-18.8471-24.6867L249.7751,68.5421z"/>
			<path fill="none" stroke="#1B1F77" stroke-miterlimit="10" d="M20.6875,153.8757h12c0.1569-10,1.3821-19.0996,3.5615-28.0276
				l-11.5942-2.9817C22.2124,132.7867,20.8468,142.8757,20.6875,153.8757z"/>
			<path fill="none" stroke="#1B1F77" stroke-miterlimit="10" d="M93.8806,263.5028c-8.0042-4.8174-15.4346-10.4947-22.1562-16.9101
				l-8.4813,8.4813c7.4627,7.1518,15.7264,13.472,24.6389,18.8187L93.8806,263.5028z"/>
			<path fill="none" stroke="#1B1F77" stroke-miterlimit="10" d="M68.1811,243.065c-6.4723-6.6832-12.2159-14.0753-17.0945-22.053
				l-10.3953,6.0017c5.4088,8.8856,11.799,17.1088,19.0085,24.5326L68.1811,243.065z"/>
			<path fill="none" stroke="#1B1F77" stroke-miterlimit="10" d="M25.9293,117.6565l11.5959,3.1071
				c2.61-9.0949,6.2218-17.7695,10.7029-25.9011l-10.3906-5.999C32.8385,97.8945,28.8164,107.5379,25.9293,117.6565z"/>
			<path fill="none" stroke="#1B1F77" stroke-miterlimit="10" d="M291.1976,193.9114l-11.5959-3.1071
				c-2.6375,9.014-6.2575,17.6111-10.7359,25.67l10.3906,5.9991C284.2529,213.5154,288.2821,203.9487,291.1976,193.9114z"/>
			<path fill="none" stroke="#1B1F77" stroke-miterlimit="10" d="M254.3217,254.827l-8.4813-8.4813
				c-6.6851,6.4163-14.0723,12.1059-22.0366,16.9366l5.9987,10.3899C238.6747,268.3118,246.8957,261.9799,254.3217,254.827z"/>
			<path fill="none" stroke="#1B1F77" stroke-miterlimit="10" d="M91.8645,34.7567l5.999,10.3906
				c8.1307-4.4981,16.8063-8.1255,25.9039-10.751l-3.1071-11.5959C110.5392,25.7032,100.8945,29.7406,91.8645,34.7567z"/>
			<path fill="none" stroke="#1B1F77" stroke-miterlimit="10" d="M225.4743,276.1754l-5.9991-10.3906
				c-8.0598,4.4614-16.6559,8.0654-25.6673,10.6876l3.1071,11.5959C206.9499,285.1684,216.5152,281.1548,225.4743,276.1754z"/>
			<path fill="none" stroke="#1B1F77" stroke-miterlimit="10" d="M276.7488,226.7991l-10.391-5.9993
				c-4.845,7.9582-10.5505,15.3361-16.98,22.0122l8.4813,8.4813C265.0254,243.8764,271.3739,235.6651,276.7488,226.7991z"/>
			<path fill="none" stroke="#1B1F77" stroke-miterlimit="10" d="M123.9669,276.6104c-9.0391-2.5923-17.6637-6.1729-25.7524-10.6141
				l-5.999,10.3906c8.9883,4.9587,18.5816,8.95,28.6443,11.8194L123.9669,276.6104z"/>
			<path fill="none" stroke="#1B1F77" stroke-miterlimit="10" d="M188.8701,277.7708c-8.8621,2.198-17.6827,3.4586-27.6827,3.6627
				v12.0001c11-0.2075,20.8806-1.6072,30.7348-4.0685L188.8701,277.7708z"/>
			<path fill="none" stroke="#1B1F77" stroke-miterlimit="10" d="M192.179,21.6316c-9.9158-2.4927-19.9916-3.909-30.9916-4.1179
				v12.0001c10,0.2057,18.9065,1.4831,27.8303,3.7122L192.179,21.6316z"/>
			<path fill="none" stroke="#1B1F77" stroke-miterlimit="10" d="M128.4902,33.1111c8.936-2.1955,18.6972-3.4353,27.6972-3.6038v-12
				c-10,0.1711-20.9303,1.551-30.8585,4.0095L128.4902,33.1111z"/>
			<path fill="none" stroke="#1B1F77" stroke-miterlimit="10" d="M296.6142,158.8757h-12c-0.2158,9-1.4911,18.4823-3.7051,27.3525
				l11.5943,3.2317C294.9809,179.5978,296.3949,168.8757,296.6142,158.8757z"/>
			<path fill="none" stroke="#1B1F77" stroke-miterlimit="10" d="M40.3357,84.5324l10.3899,5.9986
				c4.8572-8.0422,10.587-15.4998,17.0582-22.2419l-8.4812-8.4812C52.0948,67.2908,45.7223,75.5821,40.3357,84.5324z"/>
			<path fill="none" stroke="#1B1F77" stroke-miterlimit="10" d="M292.6879,122.8671l-11.5942,3.2317
				c2.1603,8.8896,3.3745,17.7769,3.5307,27.7769h12C296.4657,142.8757,295.1109,132.7491,292.6879,122.8671z"/>
			<path fill="none" stroke="#1B1F77" stroke-miterlimit="10" d="M125.5857,289.4799c9.8666,2.4274,20.6017,3.7901,30.6017,3.96v-12
				c-9-0.1672-18.6754-1.3898-27.5496-3.5543L125.5857,289.4799z"/>
			<path fill="none" stroke="#1B1F77" stroke-miterlimit="10" d="M194.0074,34.5343c9.0696,2.6555,17.717,6.306,25.8187,10.8245
				l5.999-10.3906c-9.0006-5.0369-18.6176-9.0963-28.7106-12.0297L194.0074,34.5343z"/>
			<path fill="none" stroke="#1B1F77" stroke-miterlimit="10" d="M62.8363,56.2706l8.4812,8.4812
				c6.7332-6.4844,14.1811-12.231,22.2171-17.1025L87.536,37.2593C78.5919,42.6604,70.3102,49.0492,62.8363,56.2706z"/>
		</g>
		<g id="hud2-ring3" opacity="0.5">
			<path fill="none" stroke="#1B1F77" stroke-miterlimit="10" d="M198.4092,18.1068c10.5195,3.0491,20.5405,7.2791,29.9155,12.532
				l5.9991-10.3907c-10.2737-5.7717-21.2643-10.4109-32.8075-13.7372L198.4092,18.1068z"/>
			<path fill="none" stroke="#1B1F77" stroke-miterlimit="10" d="M83.3659,20.0365l5.9991,10.3907
				c9.4046-5.232,19.4531-9.4402,30.0007-12.4585l-3.1071-11.596C104.687,9.6678,93.6693,14.2861,83.3659,20.0365z"/>
			<path fill="none" stroke="#1B1F77" stroke-miterlimit="10" d="M85.3825,278.2219c-9.2909-5.5671-17.9019-12.1552-25.6733-19.614
				l-8.4813,8.4813c8.5121,8.1957,17.9567,15.4267,28.1561,21.5225L85.3825,278.2219z"/>
			<path fill="none" stroke="#1B1F77" stroke-miterlimit="10" d="M56.1659,255.0802c-7.5167-7.7322-14.1752-16.3027-19.8047-25.5665
				l-10.3899,5.9987c6.159,10.172,13.4591,19.577,21.7133,28.0492L56.1659,255.0802z"/>
			<path fill="none" stroke="#1B1F77" stroke-miterlimit="10" d="M121.1845,305.9052c11.272,2.8005,23.0029,4.3616,35.0029,4.5347
				v-12c-11-0.1709-21.6707-1.592-31.9507-4.129L121.1845,305.9052z"/>
			<path fill="none" stroke="#1B1F77" stroke-miterlimit="10" d="M50.8211,44.2554l8.4813,8.4813
				c7.7823-7.5284,16.4117-14.1848,25.7341-19.8065l-5.9987-10.39C68.8071,28.691,59.3437,35.9897,50.8211,44.2554z"/>
			<path fill="none" stroke="#1B1F77" stroke-miterlimit="10" d="M9.5058,113.2558l11.5919,3.106
				c3.0025-10.5452,7.1956-20.5922,12.4103-29.9979l-10.3907-5.9991C17.3843,90.6694,12.785,101.687,9.5058,113.2558z"/>
			<path fill="none" stroke="#1B1F77" stroke-miterlimit="10" d="M193.2713,294.1961c-10.2676,2.5711-20.0839,4.0287-32.0839,4.2375
				v12c13-0.2114,23.8765-1.8082,35.136-4.6431L193.2713,294.1961z"/>
			<path fill="none" stroke="#1B1F77" stroke-miterlimit="10" d="M232.6479,33.1508c9.282,5.6356,17.8691,12.3034,25.6145,19.8329
				l8.4813-8.4813c-8.4854-8.267-17.9069-15.5765-28.0972-21.7415L232.6479,33.1508z"/>
			<path fill="none" stroke="#1B1F77" stroke-miterlimit="10" d="M3.6875,153.8757h12c0.1603-12,1.5842-22.095,4.1362-32.4288
				l-11.5944-2.9817C5.4138,129.7911,3.8497,140.8757,3.6875,153.8757z"/>
			<path fill="none" stroke="#1B1F77" stroke-miterlimit="10" d="M20.0082,190.7551c-2.6071-10.3137-4.0892-20.8793-4.3105-31.8793
				h-12c0.2241,12,1.845,23.8057,4.7162,35.111L20.0082,190.7551z"/>
			<path fill="none" stroke="#1B1F77" stroke-miterlimit="10" d="M294.3166,80.583l-10.3907,5.9991
				c5.179,9.3798,9.3405,19.3959,12.3223,29.9047l11.5916-3.106C304.5815,101.8484,300.0136,90.8617,294.3166,80.583z"/>
			<path fill="none" stroke="#1B1F77" stroke-miterlimit="10" d="M261.7901,56.527c7.4716,7.7847,14.0693,16.412,19.6424,25.7211
				l10.39-5.9987c-6.1018-10.2176-13.3425-19.6784-21.551-28.2038L261.7901,56.527z"/>
			<path fill="none" stroke="#1B1F77" stroke-miterlimit="10" d="M124.089,16.6858c10.3416-2.5684,21.0984-4.0065,32.0984-4.1785
				v-12c-12,0.1741-23.9261,1.7521-35.2597,4.5842L124.089,16.6858z"/>
			<path fill="none" stroke="#1B1F77" stroke-miterlimit="10" d="M25.6167,76.0343l10.39,5.9987
				c5.607-9.3288,12.2472-17.9675,19.762-25.759l-8.4813-8.4813C39.0353,56.3246,31.7525,65.7972,25.6167,76.0343z"/>
			<path fill="none" stroke="#1B1F77" stroke-miterlimit="10" d="M291.4679,235.2971l-10.3899-5.9986
				c-5.5955,9.2443-12.2116,17.8032-19.6851,25.5287l8.4813,8.4813C278.0849,254.8428,285.343,245.4496,291.4679,235.2971z"/>
			<path fill="none" stroke="#1B1F77" stroke-miterlimit="10" d="M119.5652,293.0377
				c-10.4893-2.9849-20.4865-7.1469-29.8494-12.3213l-5.999,10.3907c10.262,5.6924,21.2296,10.2607,32.7425,13.5222
				L119.5652,293.0377z"/>
			<path fill="none" stroke="#1B1F77" stroke-miterlimit="10" d="M266.3369,266.8422l-8.4813-8.4813
				c-7.7346,7.4599-16.3031,14.0594-25.5537,19.6404l5.9987,10.39C248.4595,282.2811,257.8618,275.0392,266.3369,266.8422z"/>
			<path fill="none" stroke="#1B1F77" stroke-miterlimit="10" d="M309.1133,118.466l-11.5944,3.2317
				c2.5326,10.2954,3.9459,20.178,4.1055,32.178h12C313.4627,140.8757,311.9092,129.7535,309.1133,118.466z"/>
			<path fill="none" stroke="#1B1F77" stroke-miterlimit="10" d="M196.5802,5.2063c-11.3208-2.8666-22.3928-4.48-35.3928-4.6926v12
				c12,0.2101,21.9024,1.6843,32.2315,4.2869L196.5802,5.2063z"/>
			<path fill="none" stroke="#1B1F77" stroke-miterlimit="10" d="M313.6142,158.8757h-12c-0.2205,11-1.6924,21.4781-4.2798,31.7536
				l11.5943,3.2317C311.7801,182.5938,313.3909,170.8757,313.6142,158.8757z"/>
			<path fill="none" stroke="#1B1F77" stroke-miterlimit="10" d="M307.6252,198.3131l-11.5959-3.1071
				c-3.0312,10.4639-7.2309,20.4343-12.4434,29.767l10.3907,5.9991C299.7076,220.7406,304.3167,209.8006,307.6252,198.3131z"/>
			<path fill="none" stroke="#1B1F77" stroke-miterlimit="10" d="M233.973,290.8956l-5.9991-10.3907
				c-9.3337,5.1953-19.3029,9.3795-29.7642,12.395l3.1071,11.596C212.8018,301.2033,223.7403,296.6093,233.973,290.8956z"/>
			<path fill="none" stroke="#1B1F77" stroke-miterlimit="10" d="M33.8481,225.1911c-5.2484-9.3583-9.4764-19.3611-12.5285-29.8611
				l-11.5959,3.1071c3.3295,11.5236,7.9667,22.4961,13.7338,32.7531L33.8481,225.1911z"/>
		</g>
	</g>
	<defs>
		<filter id="Adobe_OpacityMaskFilter" filterUnits="userSpaceOnUse" x="0" y="31.483" width="309.2202" height="238.3593">
			<feColorMatrix  type="matrix" values="1 0 0 0 0  0 1 0 0 0  0 0 1 0 0  0 0 0 1 0"/>
		</filter>
	</defs>
	<mask maskUnits="userSpaceOnUse" x="0" y="31.483" width="309.2202" height="238.3593" id="hud2-bg_1_">
		<g filter="url(#Adobe_OpacityMaskFilter)">
			<radialGradient id="SVGID_1_" cx="160.7012" cy="153.2409" r="108.0422" gradientUnits="userSpaceOnUse">
				<stop  offset="0.5305" style="stop-color:#FFFFFF"/>
				<stop  offset="0.6829" style="stop-color:#A7A7A7"/>
				<stop  offset="0.9594" style="stop-color:#000000"/>
			</radialGradient>
			<circle fill="url(#SVGID_1_)" stroke="#000000" stroke-miterlimit="10" cx="160.7011" cy="153.2409" r="108.0422"/>
		</g>
	</mask>
	<g id="hud2-bg" mask="url(#hud2-bg_1_)">
		<g opacity="0.5">
			<rect x="58.1874" y="55.8757" fill="none" stroke="#1B1F77" stroke-miterlimit="10" width="199" height="200"/>
			<line fill="none" stroke="#1B1F77" stroke-miterlimit="10" x1="57.6874" y1="245.8757" x2="257.6874" y2="245.8757"/>
			<line fill="none" stroke="#1B1F77" stroke-miterlimit="10" x1="57.6874" y1="236.8757" x2="257.6874" y2="236.8757"/>
			<line fill="none" stroke="#1B1F77" stroke-miterlimit="10" x1="57.6874" y1="226.8757" x2="257.6874" y2="226.8757"/>
			<line fill="none" stroke="#1B1F77" stroke-miterlimit="10" x1="57.6874" y1="217.8757" x2="257.6874" y2="217.8757"/>
			<line fill="none" stroke="#1B1F77" stroke-miterlimit="10" x1="57.6874" y1="207.8757" x2="257.6874" y2="207.8757"/>
			<line fill="none" stroke="#1B1F77" stroke-miterlimit="10" x1="57.6874" y1="198.8757" x2="257.6874" y2="198.8757"/>
			<line fill="none" stroke="#1B1F77" stroke-miterlimit="10" x1="57.6874" y1="188.8757" x2="257.6874" y2="188.8757"/>
			<line fill="none" stroke="#1B1F77" stroke-miterlimit="10" x1="57.6874" y1="179.8757" x2="257.6874" y2="179.8757"/>
			<line fill="none" stroke="#1B1F77" stroke-miterlimit="10" x1="57.6874" y1="169.8757" x2="257.6874" y2="169.8757"/>
			<line fill="none" stroke="#1B1F77" stroke-miterlimit="10" x1="57.6874" y1="159.8757" x2="257.6874" y2="159.8757"/>
			<line fill="none" stroke="#1B1F77" stroke-miterlimit="10" x1="57.6874" y1="150.8757" x2="257.6874" y2="150.8757"/>
			<line fill="none" stroke="#1B1F77" stroke-miterlimit="10" x1="57.6874" y1="140.8757" x2="257.6874" y2="140.8757"/>
			<line fill="none" stroke="#1B1F77" stroke-miterlimit="10" x1="57.6874" y1="131.8757" x2="257.6874" y2="131.8757"/>
			<line fill="none" stroke="#1B1F77" stroke-miterlimit="10" x1="57.6874" y1="121.8757" x2="257.6874" y2="121.8757"/>
			<line fill="none" stroke="#1B1F77" stroke-miterlimit="10" x1="57.6874" y1="112.8757" x2="257.6874" y2="112.8757"/>
			<line fill="none" stroke="#1B1F77" stroke-miterlimit="10" x1="57.6874" y1="102.8757" x2="257.6874" y2="102.8757"/>
			<line fill="none" stroke="#1B1F77" stroke-miterlimit="10" x1="57.6874" y1="93.8757" x2="257.6874" y2="93.8757"/>
			<line fill="none" stroke="#1B1F77" stroke-miterlimit="10" x1="57.6874" y1="83.8757" x2="257.6874" y2="83.8757"/>
			<line fill="none" stroke="#1B1F77" stroke-miterlimit="10" x1="57.6874" y1="74.8757" x2="257.6874" y2="74.8757"/>
			<line fill="none" stroke="#1B1F77" stroke-miterlimit="10" x1="57.6874" y1="64.8757" x2="257.6874" y2="64.8757"/>
			<line fill="none" stroke="#1B1F77" stroke-miterlimit="10" x1="248.1874" y1="55.3757" x2="248.1874" y2="255.3757"/>
			<line fill="none" stroke="#1B1F77" stroke-miterlimit="10" x1="238.1874" y1="55.3757" x2="238.1874" y2="255.3757"/>
			<line fill="none" stroke="#1B1F77" stroke-miterlimit="10" x1="229.1874" y1="55.3757" x2="229.1874" y2="255.3757"/>
			<line fill="none" stroke="#1B1F77" stroke-miterlimit="10" x1="219.1874" y1="55.3757" x2="219.1874" y2="255.3757"/>
			<line fill="none" stroke="#1B1F77" stroke-miterlimit="10" x1="210.1874" y1="55.3757" x2="210.1874" y2="255.3757"/>
			<line fill="none" stroke="#1B1F77" stroke-miterlimit="10" x1="200.1874" y1="55.3757" x2="200.1874" y2="255.3757"/>
			<line fill="none" stroke="#1B1F77" stroke-miterlimit="10" x1="191.1874" y1="55.3757" x2="191.1874" y2="255.3757"/>
			<line fill="none" stroke="#1B1F77" stroke-miterlimit="10" x1="181.1874" y1="55.3757" x2="181.1874" y2="255.3757"/>
			<line fill="none" stroke="#1B1F77" stroke-miterlimit="10" x1="172.1874" y1="55.3757" x2="172.1874" y2="255.3757"/>
			<line fill="none" stroke="#1B1F77" stroke-miterlimit="10" x1="162.1874" y1="55.3757" x2="162.1874" y2="255.3757"/>
			<line fill="none" stroke="#1B1F77" stroke-miterlimit="10" x1="153.1874" y1="55.3757" x2="153.1874" y2="255.3757"/>
			<line fill="none" stroke="#1B1F77" stroke-miterlimit="10" x1="143.1874" y1="55.3757" x2="143.1874" y2="255.3757"/>
			<line fill="none" stroke="#1B1F77" stroke-miterlimit="10" x1="134.1874" y1="55.3757" x2="134.1874" y2="255.3757"/>
			<line fill="none" stroke="#1B1F77" stroke-miterlimit="10" x1="124.1874" y1="55.3757" x2="124.1874" y2="255.3757"/>
			<line fill="none" stroke="#1B1F77" stroke-miterlimit="10" x1="115.1874" y1="55.3757" x2="115.1874" y2="255.3757"/>
			<line fill="none" stroke="#1B1F77" stroke-miterlimit="10" x1="105.1874" y1="55.3757" x2="105.1874" y2="255.3757"/>
			<line fill="none" stroke="#1B1F77" stroke-miterlimit="10" x1="96.1874" y1="55.3757" x2="96.1874" y2="255.3757"/>
			<line fill="none" stroke="#1B1F77" stroke-miterlimit="10" x1="86.1874" y1="55.3757" x2="86.1874" y2="255.3757"/>
			<line fill="none" stroke="#1B1F77" stroke-miterlimit="10" x1="77.1874" y1="55.3757" x2="77.1874" y2="255.3757"/>
			<line fill="none" stroke="#1B1F77" stroke-miterlimit="10" x1="67.1874" y1="55.3757" x2="67.1874" y2="255.3757"/>
		</g>
		<g id="hud2-dna" opacity="0.7">
			<g>
				<path d="M294.2174,195.4557v-0.01c0-0.03,0-0.05-0.01-0.08c0,0-0.22-1.34-1.15-2.86c-0.01-0.02-0.02-0.03-0.03-0.05
					c-1.9-3.74-6.43-9.18-15.95-6.26c0.9-0.67,9.49-6.87,14.71-3.53c5.51,3.53,3.91,4.22,6.57,5.52c2.67,1.3,7.88,4.32,9.02,8.14
					c1.14,3.82,2.74,14.86-0.96,30.21c0,0-0.34,3.15-2.41,3.37c-2.74,0.28-10.11-0.99-10.11-0.99s-0.11-0.03-0.29-0.11l0.83-1.18
					l-1.84-8.27l-0.5,0.73c0.64-5.27,1.54-13.46,1.95-19.02l0.01-0.02c0.02-0.31,0.05-0.61,0.06-0.9
					C294.2774,197.8757,294.3274,196.1557,294.2174,195.4557z"/>
				<path d="M292.5974,219.3557l1.84,8.27l-0.83,1.18c-0.73-0.31-2.57-1.38-2.14-3.94c0.12-0.72,0.35-2.46,0.63-4.78
					L292.5974,219.3557z"/>
				<path d="M294.2174,195.4557c0.11,0.7,0.06,2.42-0.1,4.69c0.16-2.35,0.21-4.1,0.08-4.76c0.01,0.02,0.02,0.04,0.02,0.06V195.4557z
					"/>
				<path d="M294.1974,195.3857c0.13,0.66,0.08,2.41-0.08,4.76c-0.02,0.3-0.05,0.6-0.07,0.92l-20.01,28.27l-0.02-0.01l-0.77-3.99
					l-4.14,0.7l21.21-29.78c2.38-0.59,3.88-0.89,3.88-0.89C294.1974,195.3757,294.1974,195.3857,294.1974,195.3857z"/>
				<path d="M294.2074,195.3657c0.01,0.03,0.01,0.05,0.01,0.08c0-0.02-0.01-0.04-0.02-0.06c0,0,0-0.01,0-0.02
					c-0.12-0.42-0.46-1.53-1.14-2.86C293.9874,194.0257,294.2074,195.3657,294.2074,195.3657z"/>
				<path d="M294.1174,200.1457c-0.01,0.29-0.04,0.59-0.06,0.9l-0.01,0.02C294.0674,200.7457,294.0974,200.4457,294.1174,200.1457z"
					/>
				<path d="M293.6074,228.8057l-6.54,9.27l-0.07-0.05c-0.28,0.21-0.56,0.36-0.85,0.46c-0.29,0.1-0.58,0.15-0.87,0.15
					s-0.57-0.05-0.84-0.13c-0.28-0.09-0.54-0.22-0.78-0.38c-0.25-0.16-0.48-0.35-0.68-0.59c-0.2-0.22-0.37-0.49-0.51-0.77
					c-0.14-0.29-0.24-0.6-0.31-0.93c-0.07-0.33-0.09-0.69-0.07-1.06l10.01-14.69c-0.28,2.32-0.51,4.06-0.63,4.78
					C291.0374,227.4257,292.8774,228.4957,293.6074,228.8057z"/>
				<path d="M293.0574,192.5057c0.68,1.33,1.02,2.44,1.14,2.86c0,0-1.5,0.3-3.88,0.89l2.71-3.8
					C293.0374,192.4757,293.0474,192.4857,293.0574,192.5057z"/>
				<path d="M293.0274,192.4557l-2.71,3.8c-3.36,0.83-8.47,2.26-13.59,4.26l4.73-6.25c0,0-0.42-2.09-1.67-2.93
					c-1.26-0.84-3.93,0.09-3.93,0.09l-11.89,15.53c-4.9,2.66-11.39,5.97-17.46,9.01l0.13-0.85l2.33-2.59l6.28-6.95
					c0,0,1-2.52-0.26-3.36c-1.25-0.84-3.5-0.53-3.5-0.53l-3.33,3.59l0.96-6.19c5.62-2.7,9.94-4.77,9.94-4.77l17.94-8.06
					c0,0,0.02-0.02,0.07-0.05l0.01-0.01C286.5974,183.2757,291.1274,188.7157,293.0274,192.4557z"/>
				<path d="M287.0674,238.0757l-4.29,6.09c-0.71,0.13-1.36,0.5-1.36,0.5s-4.66,2.73-9.94,5.68l10.61-15.57
					c-0.02,0.37,0,0.73,0.07,1.06c0.07,0.33,0.17,0.64,0.31,0.93c0.14,0.28,0.31,0.55,0.51,0.77c0.2,0.24,0.43,0.43,0.68,0.59
					c0.24,0.16,0.5,0.29,0.78,0.38c0.27,0.08,0.55,0.13,0.84,0.13s0.58-0.05,0.87-0.15c0.29-0.1,0.57-0.25,0.85-0.46
					L287.0674,238.0757z"/>
				<path fill="#1B1F77" d="M244.9974,262.7057c-0.3-0.09-5.07-1.66-7.87-3.54c-2.88-1.93-6.16-8.78-6.89-13.93
					c-0.39-2.77-0.35-10.22,0.02-17.92c0.06-1.14,0.12-2.29,0.18-3.42h0.01c0.02-0.34,0.04-0.68,0.06-1.02
					c0.09-1.39,0.19-2.77,0.3-4.1c0.05-0.57,0.1-1.14,0.15-1.69c0.12-1.28,0.25-2.5,0.39-3.64c0.02-0.23,0.05-0.46,0.08-0.68
					c0.02-0.15,0.04-0.29,0.06-0.43c0.04-0.32,0.08-0.63,0.13-0.94c0.02-0.19,0.05-0.39,0.09-0.58c0.06-0.39,0.12-0.77,0.18-1.12
					c0.06-0.35,0.13-0.74,0.2-1.17c0.07-0.42,0.15-0.89,0.23-1.38c-0.01,0-0.01,0.01-0.02,0.01c0.27-1.78,0.57-3.96,0.9-6.42
					l2.75-4.02l-0.24-9.48l-0.98,1.41c0.85-7.03,1.72-14.38,2.4-20.04c0.28-0.4,0.57-0.8,0.85-1.2c1.16-1.73,0.03-11.24,0.03-11.24
					l-0.42,0.62c-1.33-4.41-5.6-11.71-18.92-5.31l4.25-2.12c0,0,8.6-6.06,14.93-2.27c0,0,0.97,0.71,1.86,1.79
					c0.88,1.07,4.76,3.67,6.09,4.08s4.51,1.9,5.17,4.75c0.66,2.86,2.12,11.72,1.21,18.34c-0.8,5.88-6.91,47.71-8.28,57.12
					l-0.82,1.07l0.5,10.1l0.87-1.14c0.63,5.42,1.57,11.88,2.62,13.77c0,0,0,0,0,0.01c0.01,0.01,0.01,0.02,0.01,0.03
					c0.02,0.08,0.08,0.3,0.2,0.64c0.07,0.17,0.15,0.38,0.25,0.61c0.03,0.09,0.08,0.19,0.13,0.3c0.26,0.6,0.64,1.32,1.14,2.09
					c0.2,0.3,0.42,0.61,0.67,0.93c0.11,0.16,0.24,0.31,0.38,0.47c0.17,0.22,0.37,0.44,0.57,0.65l0.01-0.01l3.36-4.75
					c1.35-0.02,2.74-0.19,4.05-0.64c2.39-0.81,8.33-3.99,13.64-6.95l-6.58,9.65c0,0-0.18,1.8,1.15,2.7
					c1.33,0.89,3.15,0.74,3.15,0.74l13.58-19.27c0.8-0.15,1.67-0.02,1.86,1.2l0.19,12.67c0,0,0.44,2.69-2.79,4.39
					c-3.22,1.69-24.39,10.33-31.71,5.43c-4.76-3.19-5.32-5.14-5.32-5.14S245.0074,262.7157,244.9974,262.7057z"/>
				<path d="M282.7774,244.1657l-13.58,19.27c0,0-1.82,0.15-3.15-0.74c-1.33-0.9-1.15-2.7-1.15-2.7l6.58-9.65
					c5.28-2.95,9.94-5.68,9.94-5.68S282.0674,244.2957,282.7774,244.1657z"/>
				<path d="M281.4574,194.2657l-4.73,6.25c-2.92,1.15-5.84,2.48-8.43,4.01c-1.21,0.71-2.68,1.53-4.33,2.43l11.89-15.53
					c0,0,2.67-0.93,3.93-0.09C281.0374,192.1757,281.4574,194.2657,281.4574,194.2657z"/>
				<path d="M276.7274,200.5157l-15.38,20.32c-0.38,0.16-0.75,0.25-1.1,0.29s-0.67,0.04-0.98-0.02c-0.32-0.05-0.6-0.15-0.88-0.28
					c-0.27-0.13-0.52-0.29-0.75-0.48c-0.23-0.19-0.43-0.41-0.62-0.65c-0.18-0.23-0.34-0.48-0.48-0.74c-0.27-0.53-0.44-1.1-0.5-1.64
					l7.93-10.36c1.65-0.9,3.12-1.72,4.33-2.43C270.8874,202.9957,273.8074,201.6657,276.7274,200.5157z"/>
				<path d="M274.0374,229.3357l-20.25,28.6c-3.56,0.06-6.71-0.96-6.71-0.96s0-0.01-0.01-0.01l22.04-30.93l4.14-0.7l0.77,3.99
					L274.0374,229.3357z"/>
				<path d="M261.3474,220.8357l-16.9,22.36c-0.52-4.42-0.83-8.15-0.83-8.15s0.1-0.67,0.28-1.88l12.14-15.85
					c0.06,0.54,0.23,1.11,0.5,1.64c0.14,0.26,0.3,0.51,0.48,0.74c0.19,0.24,0.39,0.46,0.62,0.65c0.23,0.19,0.48,0.35,0.75,0.48
					c0.28,0.13,0.56,0.23,0.88,0.28c0.31,0.06,0.63,0.06,0.98,0.02S260.9674,220.9957,261.3474,220.8357z"/>
				<path d="M254.9874,202.2157c1.26,0.84,0.26,3.36,0.26,3.36l-6.28,6.95l-1.37-3.6l0.56-3.65l3.33-3.59
					C251.4874,201.6857,253.7374,201.3757,254.9874,202.2157z"/>
				<path d="M253.7874,257.9357l-3.36,4.75c-0.21-0.21-0.4-0.43-0.58-0.64c-0.13-0.16-0.26-0.32-0.38-0.47
					c-0.25-0.32-0.47-0.63-0.67-0.93c-0.5-0.77-0.88-1.49-1.14-2.09c-0.05-0.1-0.09-0.2-0.13-0.3c-0.1-0.23-0.18-0.44-0.25-0.61
					c-0.11-0.33-0.17-0.55-0.2-0.64c0-0.01,0-0.02-0.01-0.03c0-0.01,0-0.01,0-0.01c0.01,0,0.01,0.01,0.01,0.01
					S250.2274,257.9957,253.7874,257.9357z"/>
				<path d="M250.4274,262.6857l-0.01,0.01c-0.2-0.21-0.4-0.43-0.57-0.65C250.0274,262.2557,250.2174,262.4757,250.4274,262.6857z"
					/>
				<path d="M249.4674,261.5757c0.12,0.15,0.25,0.31,0.38,0.47C249.7074,261.8857,249.5774,261.7357,249.4674,261.5757z"/>
				<path d="M249.4674,261.5757c-0.25-0.32-0.47-0.63-0.67-0.93C248.9974,260.9457,249.2174,261.2557,249.4674,261.5757z"/>
				<polygon points="247.5974,208.9257 248.9674,212.5257 246.6374,215.1157 				"/>
				<polygon points="248.1574,205.2757 247.5974,208.9257 247.4874,208.6357 247.9374,205.5157 				"/>
				<path d="M247.5274,258.2557c0.04,0.1,0.08,0.2,0.13,0.3C247.6074,258.4457,247.5574,258.3457,247.5274,258.2557z"/>
				<polygon points="247.4874,208.6357 247.5974,208.9257 246.6374,215.1157 246.5274,215.2357 				"/>
				<path d="M247.0774,257.0057c0.03,0.09,0.09,0.31,0.2,0.64C247.1574,257.3057,247.0974,257.0857,247.0774,257.0057z"/>
				<path d="M244.4474,243.1957l-0.87,1.14l-0.5-10.1l0.82-1.07c-0.18,1.21-0.28,1.88-0.28,1.88
					S243.9274,238.7757,244.4474,243.1957z"/>
				<path d="M238.2574,159.6257c0,0-0.02,0-0.06,0c-0.04-0.49-0.16-1.49-0.58-2.72c0.01-0.01,0-0.01,0-0.01
					c-0.01-0.03-0.02-0.07-0.03-0.11l0.42-0.62c0,0,1.13,9.51-0.03,11.24c-0.28,0.4-0.57,0.8-0.85,1.2
					C237.6274,164.4057,238.0374,161.1457,238.2574,159.6257z"/>
				<path d="M238.1974,159.6257c0.04,0,0.06,0,0.06,0c-0.22,1.52-0.63,4.78-1.13,8.98c-5.79,8.18-11.64,16.33-17.45,24.5l-3.96,1.03
					l-0.68-4.29l19.84-29.1h0.01l3.32-0.8C238.2074,159.9457,238.2074,159.8357,238.1974,159.6257z"/>
				<path d="M238.1674,159.6257c0.01-0.01,0.02-0.01,0.03,0c0.01,0.21,0.01,0.32,0.01,0.32l-3.32,0.8l0.61-0.9
					C236.9874,159.6157,237.8874,159.6157,238.1674,159.6257z"/>
				<path d="M238.1974,159.6257c-0.01-0.01-0.02-0.01-0.03,0c-0.02-0.17-0.12-1.28-0.55-2.72
					C238.0374,158.1357,238.1574,159.1357,238.1974,159.6257z"/>
				<path d="M238.1674,159.6257c-0.28-0.01-1.18-0.01-2.67,0.22l2.08-3.06c0.02,0.03,0.03,0.07,0.04,0.11c0,0,0.01,0,0,0.01
					C238.0474,158.3457,238.1474,159.4557,238.1674,159.6257z"/>
				<path d="M237.5874,156.7857c0.01,0.04,0.02,0.08,0.03,0.11c-0.01-0.04-0.02-0.08-0.04-0.11H237.5874z"/>
				<path fill="#1B1F77" d="M237.5874,156.7857h-0.01c-0.02-0.08-0.05-0.17-0.08-0.25l-2.07,3.32c-2.66,0.41-7.17,1.54-13.46,4.56
					l4.67-6.21c0,0-0.18-1.93-1.43-2.77c-1.26-0.85-3.62-0.04-3.62-0.04l-11.93,15.64c-10.15,5.51-17.46,9.16-17.46,9.16
					s-0.58,0.33-0.96,0.55c0.02-0.15,0.04-0.3,0.07-0.45l0.17-0.97l3.1-3.18l6.24-6.37c0,0,0.67-2.18-0.51-3.65
					c-1.17-1.46-3.19-0.99-3.19-0.99l-3.83,3.9c0.36-1.92,0.7-3.76,1.02-5.51c2.85-1.35,5.7-2.71,5.7-2.71l18.63-9.32
					c0.01,0,0.02-0.01,0.03-0.02C231.9874,145.0757,236.2574,152.3757,237.5874,156.7857z"/>
				<path d="M237.4974,156.5357c0.03,0.08,0.06,0.17,0.08,0.25l-2.08,3.06c-0.02,0-0.05,0-0.07,0.01L237.4974,156.5357z"/>
				<path fill="#333333" d="M235.7074,187.2357l0.24,9.48l-2.75,4.02c0.48-3.6,1-7.78,1.53-12.09L235.7074,187.2357z"/>
				<path d="M235.4974,159.8457l-0.61,0.9h-0.01l0.55-0.89C235.4474,159.8457,235.4774,159.8457,235.4974,159.8457z"/>
				<path d="M227.9474,198.3957l6.78-9.75c-0.53,4.31-1.05,8.49-1.53,12.09l-0.58,0.84c-0.28,0.09-0.56,0.15-0.83,0.16
					c-0.27,0.01-0.54-0.02-0.8-0.08c-0.27-0.06-0.53-0.14-0.78-0.25c-0.24-0.12-0.48-0.26-0.7-0.42c-0.44-0.33-0.81-0.73-1.09-1.18
					c-0.13-0.22-0.24-0.45-0.32-0.69C228.0174,198.8757,227.9674,198.6357,227.9474,198.3957z"/>
				<path d="M232.6174,201.5757l-5.55,8.1c-3.75,1.81-7.35,3.56-10.5,5.09l11.38-16.37c0.02,0.24,0.07,0.48,0.15,0.72
					c0.08,0.24,0.19,0.47,0.32,0.69c0.28,0.45,0.65,0.85,1.09,1.18c0.22,0.16,0.46,0.3,0.7,0.42c0.25,0.11,0.51,0.19,0.78,0.25
					c0.26,0.06,0.53,0.09,0.8,0.08C232.0574,201.7257,232.3374,201.6657,232.6174,201.5757z"/>
				<path fill="#1B1F77" d="M232.2974,207.1557c0.01,0,0.01-0.01,0.02-0.01c-0.08,0.49-0.16,0.96-0.23,1.38
					C232.1474,208.1057,232.2274,207.6457,232.2974,207.1557z"/>
				<path fill="#1B1F77" d="M183.5974,124.2657c0-0.05-0.01-0.1,0-0.15c-0.09-2.12-1.3-15.13-16.36-10.37
					c3.93-1.71,11.75-5.37,15.09-3c4.03,2.86,4.87,4.23,7.65,5.12c2.77,0.9,5.66,2.83,7.17,8.98c1.37,5.63,1.37,15.33-2.84,38.68
					c-0.04,0.02-0.09,0.04-0.13,0.06l-0.95,5.51l-1.16,1.18l-0.27,2h0.01l-1.06,7.79l0.71-0.72c-0.06,0.32-0.11,0.64-0.15,0.95
					l-0.08,0.46c0,0,0.01,0,0.01-0.01c-0.95,6.31-1.51,11.86-1.72,16.69l-0.57,0.74c-0.5,0.92,0.13,9.98,0.13,9.98l0.49-0.66
					c0.42,6.19,1.59,10.6,3.2,13.48c0,0,0.08,0.4,0.31,1.05c0.01,0.02,0.01,0.04,0.02,0.06c0,0,0,0.01,0.01,0.02
					c0.01,0.03,0.02,0.07,0.04,0.11c0.14,0.38,0.33,0.82,0.58,1.31c0.03,0.06,0.06,0.13,0.11,0.2c0.1,0.21,0.23,0.44,0.37,0.67
					c0.04,0.08,0.1,0.17,0.16,0.26c0,0.01,0.01,0.02,0.02,0.03c0.01,0.02,0.03,0.05,0.05,0.08c0.01,0.02,0.03,0.05,0.05,0.08
					c0.05,0.08,0.1,0.15,0.15,0.23c0.02,0.03,0.04,0.06,0.07,0.09c0.02,0.05,0.06,0.1,0.1,0.15c0.02,0.03,0.04,0.06,0.07,0.1
					c0.01,0.01,0.02,0.03,0.04,0.05c0.01,0.02,0.03,0.05,0.05,0.08c0.08,0.1,0.16,0.2,0.24,0.3c0.02,0.04,0.05,0.08,0.08,0.11
					c0.11,0.13,0.22,0.26,0.33,0.39c0.06,0.07,0.12,0.14,0.19,0.21c0,0.01,0.01,0.02,0.03,0.03v0.01c0.05,0.05,0.1,0.11,0.16,0.16
					l-0.13-0.2c1.1-1.53,2.2-3.07,3.3-4.61c2.17-0.24,4.87-0.95,8.08-2.58c1.92-0.97,5.24-2.61,9.32-4.6l-6.19,8.91
					c0,0.07,0.01,2.05,1.09,2.78c1.1,0.73,3.45,0.95,3.45,0.95l12.15-17.73c1.72-0.83,3.48-1.67,5.23-2.52
					c-0.07,0.49-0.15,0.95-0.21,1.37c-0.07,0.43-0.14,0.82-0.2,1.17c-0.06,0.36-0.13,0.73-0.18,1.12c-0.03,0.19-0.06,0.38-0.09,0.58
					c-0.05,0.3-0.09,0.62-0.13,0.94c-0.02,0.14-0.04,0.28-0.06,0.43c-0.03,0.22-0.06,0.45-0.08,0.68c-0.14,1.14-0.27,2.36-0.39,3.64
					c-0.05,0.56-0.1,1.12-0.15,1.69c-0.11,1.33-0.21,2.71-0.3,4.1c-0.02,0.34-0.04,0.68-0.07,1.02c-0.4,0.2-1.6,0.78-1.6,0.78
					s-24.51,17.98-37.73,2.69c0,0-6.02-2.76-9.28-5.1c-3.25-2.34-6.85-12.79-6.93-24.89c-0.02-2.36,0.11-5.16,0.34-8.13
					c0.01,0,0.01-0.01,0.02-0.01c0.49-5.54,1.24-11.36,1.96-17.63c-0.03,0.02-0.07,0.03-0.1,0.05c0.39-2.96,0.75-5.5,1.01-7.27
					l3.45-5.23l-1.03-7.63l-0.67,0.98c0.92-6.41,2.11-14.84,2.89-20.82c0.01-0.03,0.01-0.05,0.01-0.08c0.4-2.39,0.63-4.03,0.74-5.28
					c0.02-0.22,0.04-0.43,0.05-0.63C183.6074,125.1557,183.6074,124.6957,183.5974,124.2657z"/>
				<path fill="#1B1F77" d="M231.8874,209.6957c-0.06,0.35-0.12,0.73-0.18,1.12
					C231.7574,210.4257,231.8274,210.0557,231.8874,209.6957z"/>
				<path fill="#1B1F77" d="M231.4274,212.7657c-0.03,0.22-0.06,0.45-0.08,0.68
					C231.3674,213.2157,231.3974,212.9857,231.4274,212.7657z"/>
				<path fill="#1B1F77" d="M230.8074,218.7757c0.05-0.57,0.1-1.13,0.15-1.69
					C230.9074,217.6357,230.8574,218.2057,230.8074,218.7757z"/>
				<path fill="#1B1F77" d="M230.5074,222.8757c-0.02,0.34-0.04,0.68-0.06,1.02h-0.01
					C230.4674,223.5557,230.4874,223.2157,230.5074,222.8757z"/>
				<path d="M226.6374,158.2057l-4.67,6.21c-1.49,0.71-3.09,1.53-4.79,2.48c-2.62,1.47-5.15,2.85-7.52,4.14l11.93-15.64
					c0,0,2.36-0.81,3.62,0.04C226.4574,156.2757,226.6374,158.2057,226.6374,158.2057z"/>
				<path d="M221.9674,164.4157l-15.05,20.02l-0.72-4.11l-4.18,0.72l7.64-10.01c2.37-1.29,4.9-2.67,7.52-4.14
					C218.8774,165.9457,220.4774,165.1257,221.9674,164.4157z"/>
				<path d="M215.7174,194.1357l3.96-1.03c-5.99,8.42-11.95,16.85-17.95,25.26l-3.86-3.36l17.17-25.16L215.7174,194.1357z"/>
				<path d="M206.1974,180.3257l0.72,4.11l-17.35,23.06c-0.2-2.94-0.22-6.28-0.05-10.06l12.5-16.39L206.1974,180.3257z"/>
				<path d="M201.7274,218.3657c-0.85,1.2-1.71,2.39-2.56,3.58c-2.83,0.32-4.75-0.18-5.67-0.53l4.37-6.41L201.7274,218.3657z"/>
				<path d="M200.3074,166.1257c1.18,1.47,0.51,3.65,0.51,3.65l-6.24,6.37c0.04-0.35,0.05-0.67,0.02-0.96
					c-0.02-0.28-0.07-0.53-0.14-0.75c-0.15-0.45-0.38-0.79-0.67-1.06c-0.28-0.28-0.61-0.48-0.96-0.65c-0.07-0.03-0.13-0.06-0.2-0.09
					l0.21-1.25c0.06-0.35,0.13-0.71,0.2-1.07c0.08-0.43,0.17-0.86,0.25-1.28l3.83-3.9
					C197.1174,165.1357,199.1374,164.6657,200.3074,166.1257z"/>
				<path fill="#1B1F77" d="M199.1674,221.9457c-1.1,1.54-2.2,3.08-3.3,4.61l-2.76-4.45c-0.01-0.01-0.01-0.02-0.01-0.02
					c-0.01-0.02-0.01-0.04-0.02-0.06l0.42-0.61C194.4174,221.7657,196.3374,222.2657,199.1674,221.9457z"/>
				<path fill="#1B1F77" d="M195.9974,226.7557c-0.06-0.05-0.11-0.11-0.16-0.16v-0.01c0.01-0.01,0.02-0.02,0.03-0.03
					L195.9974,226.7557z"/>
				<path fill="#1B1F77" d="M195.8674,226.5557c-0.01,0.01-0.02,0.02-0.03,0.03c-0.02-0.01-0.03-0.02-0.03-0.03
					c-0.07-0.07-0.13-0.14-0.19-0.21c-0.11-0.13-0.22-0.26-0.33-0.39c-0.03-0.04-0.05-0.07-0.08-0.11
					c-0.07-0.08-0.14-0.17-0.19-0.25c-0.04-0.04-0.07-0.08-0.1-0.13c-0.02-0.02-0.03-0.04-0.04-0.05c-0.02-0.03-0.05-0.07-0.07-0.1
					c-0.04-0.05-0.08-0.1-0.1-0.15c-0.05-0.06-0.09-0.12-0.12-0.18c-0.05-0.05-0.08-0.1-0.1-0.14c-0.02-0.03-0.04-0.06-0.05-0.08
					c-0.02-0.03-0.04-0.05-0.05-0.08c-0.01-0.01-0.02-0.02-0.02-0.03c-0.06-0.09-0.11-0.18-0.16-0.26
					c-0.14-0.23-0.27-0.46-0.37-0.67c-0.04-0.06-0.07-0.13-0.11-0.2c-0.25-0.49-0.44-0.93-0.58-1.31c-0.01-0.04-0.03-0.08-0.04-0.11
					L195.8674,226.5557z"/>
				<path fill="#1B1F77" d="M195.6174,226.3457c0.06,0.07,0.12,0.14,0.19,0.21
					C195.7374,226.4857,195.6774,226.4157,195.6174,226.3457z"/>
				<path fill="#1B1F77" d="M195.2074,225.8457c0.03,0.04,0.05,0.07,0.08,0.11
					C195.2574,225.9257,195.2274,225.8857,195.2074,225.8457z"/>
				<path fill="#1B1F77" d="M195.2074,225.8457c-0.08-0.1-0.16-0.2-0.24-0.3c0.01,0.01,0.03,0.03,0.05,0.05
					C195.0674,225.6757,195.1374,225.7657,195.2074,225.8457z"/>
				<path fill="#1B1F77" d="M194.9174,225.4657c0.03,0.05,0.06,0.09,0.1,0.13c-0.02-0.02-0.04-0.04-0.05-0.05
					C194.9474,225.5157,194.9274,225.4857,194.9174,225.4657z"/>
				<path fill="#1B1F77" d="M194.8074,225.3157c0.02,0.03,0.05,0.07,0.07,0.1
					C194.8474,225.3757,194.8274,225.3457,194.8074,225.3157z"/>
				<path fill="#1B1F77" d="M194.5874,224.9857c0.03,0.06,0.07,0.12,0.12,0.18c-0.03-0.03-0.05-0.06-0.07-0.09
					S194.5874,225.0157,194.5874,224.9857z"/>
				<path fill="#1B1F77" d="M194.5874,224.9857c0,0.03,0.03,0.06,0.05,0.09c-0.05-0.08-0.1-0.15-0.15-0.23
					C194.5074,224.8857,194.5374,224.9357,194.5874,224.9857z"/>
				<path d="M194.5974,175.1857c0.03,0.29,0.02,0.61-0.02,0.96l-3.1,3.18l1.15-6.69c0.07,0.03,0.13,0.06,0.2,0.09
					c0.35,0.17,0.68,0.37,0.96,0.65c0.29,0.27,0.52,0.61,0.67,1.06C194.5274,174.6557,194.5774,174.9057,194.5974,175.1857z"/>
				<path fill="#1B1F77" d="M194.3874,224.6857c0.01,0.03,0.03,0.05,0.05,0.08
					C194.4174,224.7357,194.3974,224.7057,194.3874,224.6857z"/>
				<path fill="#1B1F77" d="M194.2074,224.3957c0.05,0.08,0.1,0.17,0.16,0.26
					C194.3074,224.5657,194.2474,224.4757,194.2074,224.3957z"/>
				<path fill="#1B1F77" d="M194.1774,163.5857c0.04-0.02,0.09-0.04,0.13-0.06c-0.32,1.75-0.66,3.59-1.02,5.51l-0.06,0.06
					L194.1774,163.5857z"/>
				<path fill="#1B1F77" d="M193.7274,223.5257c0.04,0.07,0.07,0.14,0.11,0.2
					C193.7874,223.6557,193.7574,223.5857,193.7274,223.5257z"/>
				<path fill="#1B1F77" d="M193.4974,221.4157l-0.42,0.61c-0.23-0.65-0.31-1.05-0.31-1.05c0.04,0.06,0.07,0.11,0.1,0.17
					C192.8674,221.1457,193.0774,221.2657,193.4974,221.4157z"/>
				<path fill="#1B1F77" d="M193.2874,169.0357c-0.08,0.42-0.17,0.85-0.25,1.28c-0.07,0.36-0.14,0.72-0.2,1.07l0.39-2.29
					L193.2874,169.0357z"/>
				<path fill="#1B1F77" d="M193.2274,169.0957l-0.39,2.29c-0.08,0.42-0.16,0.83-0.23,1.24c-0.27-0.13-0.55-0.24-0.8-0.35h-0.01
					l0.27-2L193.2274,169.0957z"/>
				<path fill="#1B1F77" d="M193.1074,222.1057c0.01,0.03,0.03,0.07,0.04,0.11
					C193.1274,222.1757,193.1174,222.1357,193.1074,222.1057z"/>
				<path d="M192.6074,172.6257c0.07-0.41,0.15-0.82,0.23-1.24l-0.21,1.25C192.6274,172.6257,192.6174,172.6257,192.6074,172.6257z"
					/>
				<path d="M192.6274,172.6357l-1.15,6.69l-0.02,0.02c0.33-2.15,0.71-4.39,1.15-6.72
					C192.6174,172.6257,192.6274,172.6257,192.6274,172.6357z"/>
				<path fill="#1B1F77" d="M191.8074,172.2757c0.25,0.11,0.53,0.22,0.8,0.35c-0.44,2.33-0.82,4.57-1.15,6.72l-0.71,0.72
					L191.8074,172.2757z"/>
				<path fill="#1B1F77" d="M191.2274,180.7557l0.08-0.46c-0.03,0.15-0.05,0.3-0.07,0.45
					C191.2374,180.7557,191.2274,180.7557,191.2274,180.7557z"/>
				<path fill="#1B1F77" d="M189.5674,207.4957l-0.49,0.66c0,0-0.63-9.06-0.13-9.98l0.57-0.74
					C189.3474,201.2157,189.3674,204.5557,189.5674,207.4957z"/>
				<path fill="#1B1F77" d="M183.5974,124.2657c0.01,0.43,0.01,0.89-0.03,1.43c-0.01,0.2-0.03,0.41-0.05,0.63
					c-0.11,1.25-0.34,2.89-0.74,5.28c0.53-4.09,0.86-7.02,0.77-7.34c0,0-0.75-0.24-2.43-0.17l2.03-2.9
					c0.08,0.38,0.15,0.72,0.21,1.04c0.09,0.49,0.15,0.95,0.2,1.41c0.01,0.16,0.02,0.31,0.04,0.47
					C183.5874,124.1657,183.5974,124.2157,183.5974,124.2657z"/>
				<path fill="#1B1F77" d="M183.5974,124.1157c-0.02-0.16-0.03-0.31-0.04-0.47c-0.05-0.46-0.11-0.92-0.2-1.41
					c-0.06-0.32-0.13-0.66-0.21-1.04l-2.03,2.9c-2.41,0.08-6.75,0.79-13.57,3.72l4.54-6.05c0,0-0.44-1.89-1.93-2.89
					c-1.49-1-4.25,0.23-4.25,0.23l-11.96,15.83c-5.69,3.32-11.4,6.51-16.92,9.43c0.03-0.2,0.06-0.39,0.08-0.58
					c0.03-0.17,0.06-0.33,0.08-0.49l3.11-3.29l6.58-6.96c0,0-0.21-2.75-1.54-3.64c-1.34-0.9-3.01-0.43-3.01-0.43l-3.49,4.93
					c0.06-0.3,0.11-0.58,0.16-0.82c0.03-0.15,0.06-0.3,0.08-0.43c0.13-0.62,0.2-0.95,0.2-0.95s0.01-0.07,0.03-0.21
					c0.01-0.05,0.01-0.09,0.02-0.15c0.02-0.12,0.04-0.26,0.06-0.43c0.09-0.69,0.24-1.78,0.41-3.14c0.05-0.35,0.09-0.7,0.14-1.08
					c13.16-6.58,23.93-11.8,25.43-12.22c0.41-0.11,1.05-0.38,1.87-0.73C182.2974,108.9857,183.5074,121.9957,183.5974,124.1157z"/>
				<path d="M183.5474,124.2657c0.09,0.32-0.24,3.25-0.77,7.34c0,0.03,0,0.05-0.01,0.08c-0.02,0.1-0.03,0.21-0.05,0.31l-6.37,8.95
					l-6.38,8.95l-4.7,6.6l-0.01-0.01l-4.52,1.49l-0.04-4.73l7.19-10.26v-0.02l7.63-10.89l5.6-7.98
					C182.7974,124.0257,183.5474,124.2657,183.5474,124.2657z"/>
				<path fill="#1B1F77" d="M180.5474,151.5257l1.03,7.63l-3.45,5.23c0.25-1.68,0.41-2.67,0.41-2.67s0.58-3.91,1.34-9.21
					L180.5474,151.5257z"/>
				<path d="M173.4274,161.9157l6.45-9.41c-0.76,5.3-1.34,9.21-1.34,9.21s-0.16,0.99-0.41,2.67l-0.33,0.51
					C177.4874,163.9257,177.4574,160.6457,173.4274,161.9157z"/>
				<path d="M177.7974,164.8957l-6.15,9.32c-3.33,1.55-6.64,3.08-9.74,4.49l11.52-16.79c0.02,0.42,0.13,0.9,0.32,1.34
					c0.2,0.45,0.48,0.87,0.85,1.2c0.18,0.17,0.39,0.32,0.61,0.44c0.23,0.11,0.48,0.2,0.74,0.24c0.27,0.05,0.55,0.06,0.86,0.02
					S177.4474,165.0357,177.7974,164.8957z"/>
				<path fill="#1B1F77" d="M177.1174,171.6557c0.03-0.02,0.07-0.03,0.1-0.05c-0.72,6.27-1.47,12.09-1.96,17.63
					c-0.01,0-0.01,0.01-0.02,0.01C175.6574,183.4057,176.4274,176.8857,177.1174,171.6557z"/>
				<path d="M177.7974,164.8957c-0.35,0.14-0.68,0.22-0.99,0.26s-0.59,0.03-0.86-0.02c-0.26-0.04-0.51-0.13-0.74-0.24
					c-0.22-0.12-0.43-0.27-0.61-0.44c-0.37-0.33-0.65-0.75-0.85-1.2c-0.19-0.44-0.3-0.92-0.32-1.34
					C177.4574,160.6457,177.4874,163.9257,177.7974,164.8957z"/>
				<path fill="#1B1F77" d="M135.9174,190.5357c0,0-6.07-2.94-7.62-3.98c-1.55-1.04-7.11-8.31-7.82-21.64
					c-0.17-3.17,0.06-7.66,0.5-12.66c0.02-0.25,0.05-0.51,0.07-0.78c0.02-0.21,0.04-0.4,0.05-0.58c0.03-0.2,0.04-0.4,0.06-0.61
					c0.23-2.38,0.51-4.86,0.8-7.34c0.03-0.21,0.06-0.42,0.08-0.63c0.01-0.07,0.02-0.14,0.03-0.21h-0.01
					c1.34-10.92,3.1-21.81,3.75-25.74c0.17-0.99,0.26-1.54,0.26-1.54s0.84-6.72,1.57-13.96l2.67-4.15l-0.76-10.4l-0.91,1.45
					c0.06-1.78,0.03-3.17-0.12-3.92c0,0-1.33-0.16-5.71,1.44l1.96-2.51c0,0-0.49-1.81-1.82-2.7c-1.33-0.89-2.86-0.66-2.86-0.66
					l-8.6,10.93c-5.01,2.55-11.41,6.07-19.54,10.97l13.14-10.03c0,0,1.92-2.69,0.87-4.19c-1.04-1.49-3.64-0.83-3.64-0.83
					l-19.83,14.55l-2.2,1.62l-1.16-3.38l-1.54-4.52c2.01-1.04,4.11-2.14,6.34-3.34l31.51-16.83c0,0,6.29-4.65,11.73-1.23
					c5.44,3.42,6.85,5.05,9.57,6.41c2.72,1.37,5.5,4.36,6.37,10.86c0.67,4.95-1.91,26.41-3.17,36.29c-0.05,0.38-0.09,0.73-0.14,1.08
					c-0.18,1.39-0.33,2.47-0.41,3.14c-0.02,0.17-0.04,0.31-0.06,0.43c-0.01,0.06-0.02,0.11-0.02,0.15
					c-0.02,0.14-0.03,0.21-0.03,0.21s-0.07,0.33-0.2,0.95c-0.02,0.13-0.05,0.27-0.08,0.43c-0.05,0.24-0.1,0.52-0.16,0.82h-0.01
					l-0.49,0.7l-0.37,2.54l-0.89,6.27l0.11-0.12c-0.02,0.16-0.05,0.32-0.08,0.49c-0.72,4.7-1.44,10.28-1.84,15.85l-0.43,0.57
					c-1.23,2.02-0.13,11.4-0.13,11.4l0.31-0.41c0.22,5.12,1.01,9.56,2.67,12.41c0,0,0.17,0.37,0.59,0.84
					c0.03,0.08,0.08,0.26,0.17,0.51l-0.01,0.02c0.19,0.51,0.4,0.99,0.63,1.44c0.06,0.14,0.13,0.28,0.21,0.41
					c0.07,0.15,0.15,0.29,0.23,0.43c0.95,1.7,1.9,2.7,1.9,2.7l2.8-3.93c0.44-0.07,0.9-0.18,1.39-0.32c2.02-0.57,8.49-3.42,16.31-7
					l-5.97,8.71c0,0,0.43,2.23,1.52,2.96c1.1,0.74,3.28,0.38,3.28,0.38l10.91-16.54c1.83-0.86,3.66-1.71,5.47-2.56
					c-0.69,5.23-1.46,11.75-1.88,17.59c-11.42,5.51-25.3,10.91-30.48,7.53C136.1874,191.1857,135.9174,190.5357,135.9174,190.5357z"
					/>
				<path d="M172.0874,121.7657l-4.54,6.05c-3.39,1.46-7.39,3.47-12.08,6.23c-0.51,0.3-1.01,0.6-1.52,0.89l11.96-15.83
					c0,0,2.76-1.23,4.25-0.23C171.6474,119.8757,172.0874,121.7657,172.0874,121.7657z"/>
				<path d="M171.6474,174.2157l-10.91,16.54c0,0-2.18,0.36-3.28-0.38c-1.09-0.73-1.52-2.96-1.52-2.96l5.97-8.71
					C165.0074,177.2957,168.3174,175.7657,171.6474,174.2157z"/>
				<path d="M167.5474,127.8157l-14.97,19.97l-0.01-0.01l-0.56-4.98l-5.02,1.35l6.96-9.21c0.51-0.29,1.01-0.59,1.52-0.89
					C160.1574,131.2857,164.1574,129.2757,167.5474,127.8157z"/>
				<path d="M165.2674,156.4957l-8.06,11.3l-0.02-0.01l-6.11,8.58l-6.87,9.66c-2.43,0.42-4.04-0.12-5.04-0.8
					c-0.22-0.15-0.41-0.31-0.58-0.46l10.24-14.59l3.81-5.43l6.58-9.38l1.48-2.12l0.04,4.73l4.52-1.49L165.2674,156.4957z"/>
				<path d="M152.5774,147.7857l-17.56,23.41c-0.16-3.62-0.03-7.58,0.25-11.56l11.72-15.49l5.02-1.35l0.56,4.98L152.5774,147.7857z"
					/>
				<path fill="#1B1F77" d="M146.8774,133.0457l-6.58,6.96c0.04-0.23,0.04-0.45,0-0.66c-0.04-0.21-0.11-0.4-0.21-0.59
					c-0.2-0.37-0.5-0.7-0.81-0.96s-0.64-0.45-0.88-0.57c-0.06-0.03-0.12-0.05-0.17-0.07c0.03-0.17,0.06-0.34,0.09-0.5
					c0.03-0.17,0.06-0.32,0.09-0.48c0.05-0.31,0.11-0.6,0.16-0.88c0.03-0.14,0.05-0.28,0.08-0.41c0.06-0.32,0.12-0.62,0.17-0.89
					c0-0.03,0.01-0.06,0.02-0.09l3.49-4.93c0,0,1.67-0.47,3.01,0.43C146.6674,130.2957,146.8774,133.0457,146.8774,133.0457z"/>
				<path d="M144.2074,186.0257l-2.8,3.93c0,0-0.95-1-1.9-2.7c-0.08-0.14-0.16-0.29-0.23-0.43c-0.08-0.13-0.15-0.27-0.21-0.41
					c-0.29-0.6-0.49-1.1-0.62-1.46l0.14-0.19c0.17,0.15,0.36,0.31,0.58,0.46C140.1674,185.9057,141.7774,186.4457,144.2074,186.0257
					z"/>
				<path fill="#1B1F77" d="M140.2974,139.3457c0.04,0.21,0.04,0.43,0,0.66l-3.11,3.29c0.09-0.54,0.17-1.06,0.26-1.58
					c0.03-0.21,0.07-0.42,0.1-0.62c0.07-0.42,0.13-0.82,0.2-1.22c0.12-0.7,0.24-1.38,0.35-2.01c0.04-0.24,0.09-0.48,0.13-0.71
					c0.05,0.02,0.11,0.04,0.17,0.07c0.24,0.12,0.57,0.31,0.88,0.57s0.61,0.59,0.81,0.96
					C140.1874,138.9457,140.2574,139.1357,140.2974,139.3457z"/>
				<path d="M139.2774,186.8257c0.07,0.14,0.15,0.29,0.23,0.43C139.4274,187.1157,139.3474,186.9757,139.2774,186.8257z"/>
				<path fill="#1B1F77" d="M139.0774,132.6557c-0.02,0.13-0.05,0.28-0.08,0.43
					C139.0274,132.9257,139.0574,132.7857,139.0774,132.6557z"/>
				<path fill="#1B1F77" d="M138.8374,133.9057c-0.01,0.03-0.02,0.06-0.02,0.09c0-0.03,0.01-0.06,0.01-0.09H138.8374z"/>
				<path d="M138.3374,134.6057l0.49-0.7c0,0.03-0.01,0.06-0.01,0.09c-0.05,0.27-0.11,0.57-0.17,0.89
					c-0.03,0.13-0.06,0.27-0.08,0.41c-0.05,0.28-0.11,0.57-0.16,0.88c-0.04,0.15-0.06,0.32-0.09,0.48s-0.06,0.33-0.09,0.5
					c-0.15-0.05-0.25-0.06-0.26-0.01L138.3374,134.6057z"/>
				<path d="M139.0674,186.4157c-0.23-0.45-0.44-0.93-0.63-1.44l0.01-0.02C138.5774,185.3157,138.7774,185.8157,139.0674,186.4157z"
					/>
				<path d="M138.6474,134.8857c-0.03,0.13-0.05,0.27-0.08,0.41C138.5874,135.1557,138.6174,135.0157,138.6474,134.8857z"/>
				<path d="M138.5874,184.7657l-0.14,0.19c-0.09-0.25-0.14-0.43-0.17-0.51C138.3674,184.5457,138.4674,184.6557,138.5874,184.7657z
					"/>
				<path d="M138.4074,136.1757c-0.03,0.16-0.06,0.31-0.09,0.48C138.3474,136.4957,138.3674,136.3257,138.4074,136.1757z"/>
				<path d="M138.2274,137.1557c-0.04,0.23-0.09,0.47-0.13,0.71c-0.12,0.63-0.23,1.3-0.35,2.01c-0.07,0.4-0.13,0.8-0.2,1.22
					c-0.04,0.2-0.07,0.41-0.1,0.62c-0.09,0.52-0.17,1.04-0.26,1.58l-0.11,0.12l0.89-6.27
					C137.9774,137.0957,138.0774,137.1057,138.2274,137.1557z"/>
				<path d="M138.0974,137.8657c-0.11,0.63-0.23,1.31-0.35,2.01C137.8674,139.1657,137.9774,138.4957,138.0974,137.8657z"/>
				<path d="M137.5474,141.0957c-0.03,0.2-0.07,0.41-0.1,0.62C137.4774,141.5057,137.5074,141.2957,137.5474,141.0957z"/>
				<path d="M134.8374,160.2057l0.43-0.57c-0.28,3.98-0.41,7.94-0.25,11.56l-0.31,0.41
					C134.7074,171.6057,133.6074,162.2257,134.8374,160.2057z"/>
				<path fill="#1B1F77" d="M129.5474,86.3157l0.76,10.4l-2.67,4.15c0.47-4.71,0.9-9.65,1-13.1L129.5474,86.3157z"/>
				<path d="M109.1474,118.8857l19.49-31.12c-0.1,3.45-0.53,8.39-1,13.1l-5.94,9.23l-7.72,11.98c0-0.37-0.05-0.72-0.11-1.04
					c-0.07-0.32-0.17-0.6-0.29-0.86c-0.13-0.26-0.29-0.49-0.46-0.69c-0.18-0.2-0.37-0.36-0.58-0.5c-0.22-0.13-0.47-0.24-0.72-0.32
					c-0.26-0.07-0.52-0.11-0.81-0.12s-0.58,0.02-0.89,0.07C109.8074,118.6757,109.4774,118.7557,109.1474,118.8857z"/>
				<path d="M125.8074,116.3657l-2.8,15.16c-0.03-0.01-0.07-0.01-0.1-0.02l0.04-0.37c-0.66-0.12-1.14-0.27-1.5-0.46
					c-0.36-0.18-0.59-0.4-0.76-0.61c-0.28-0.37-0.33-0.46-0.48-0.69c-0.03-0.05-0.05-0.09-0.08-0.13L125.8074,116.3657z"/>
				<path d="M124.7674,82.7757l-1.96,2.51c-2.59,0.94-6.24,2.5-11.32,5.06l8.6-10.93c0,0,1.53-0.23,2.86,0.66
					C124.2774,80.9657,124.7674,82.7757,124.7674,82.7757z"/>
				<path d="M122.9474,131.1357l-0.04,0.37c-0.61-0.12-1.06-0.26-1.4-0.44c-0.36-0.18-0.59-0.4-0.76-0.61
					c-0.29-0.38-0.38-0.77-0.54-1.08c0.15,0.23,0.2,0.32,0.48,0.69c0.17,0.21,0.4,0.43,0.76,0.61
					C121.8074,130.8657,122.2874,131.0157,122.9474,131.1357z"/>
				<path d="M122.9074,131.5057l-0.88,7.99l-1.31,2.61c-1.66-0.8-2.98-4.18-4.82-3.24c-0.2,0.11-0.41,0.21-0.61,0.31l4.84-9.93
					c0.03,0.04,0.05,0.08,0.08,0.13c0.16,0.31,0.25,0.7,0.54,1.08c0.17,0.21,0.4,0.43,0.76,0.61
					C121.8474,131.2457,122.2974,131.3857,122.9074,131.5057z"/>
				<path d="M122.8074,85.2857l-21.87,28.02l-4.59,1.52l-0.06-5.14l15.2-19.34C116.5674,87.7857,120.2174,86.2257,122.8074,85.2857z
					"/>
				<path d="M122.0674,142.1057c-0.01,0.07-0.02,0.14-0.03,0.21c0.01-0.07,0.02-0.14,0.02-0.21H122.0674z"/>
				<path fill="#1B1F77" d="M68.2574,39.1257l-6.02,8.68l-4.68-4.12c0,0-3.02-3.39-0.82-6.56c0.32-0.45,0.74-0.9,1.29-1.33
					c4.41-3.47,9.7-4.42,11.15-3.46c1.44,0.97,2.21,3.42,4.73,4.94c2.51,1.53,4.99,1.42,6.32,2.31c1.33,0.9,2.81,3,2.39,7.22
					c-0.27,2.8-4.3,23.05-6.8,42.54l-0.73-2.13l-0.63,9.6l-0.27,4.06l-0.94,10.39c0.22-0.1,0.43-0.2,0.65-0.3
					c-0.05,1.86-0.05,3.61,0,5.22c0.27,8.02,1.27,14.27,2.41,18.92l-0.1,0.13c-0.35,2.04,1.96,7.22,1.96,7.22l0.32-0.41
					c1.06,2.69,1.88,3.94,1.88,3.94s4.19,1.2,11.54,0.45l-2.91,4.64c0,0,0.54,1.74,1.67,2.26c0.56,0.27,1.33,0.3,1.96,0.27
					c0.63-0.03,1.13-0.14,1.13-0.14l5.32-8.26c4.69-1.1,10.14-2.97,16.21-6.03l-3.38,6.94c0,0-0.52,2.49,1.23,3.44
					c1.75,0.94,3.82,0.05,3.82,0.05l3.76-7.5c0.42,0.21,0.86,0.25,1.34,0c0,0.07-0.01,0.14-0.02,0.21
					c-0.02,0.21-0.05,0.42-0.08,0.63c-0.54,3.97-0.53,4.22-0.8,7.34c-0.02,0.21-0.03,0.41-0.06,0.61c-0.02,0.2-0.03,0.39-0.05,0.58
					c-0.02,0.27-0.05,0.53-0.07,0.78c-7.32,3.26-13.53,5.45-17.71,5.95c-9.96,1.2-15.3,1.48-23.28-6.28c0,0-5.02-3.53-8.16-5.32
					c-3.15-1.78-9.1-7.53-10.56-13.98c-0.79-3.47-1.6-9.87-2.08-16.09c0.01-0.01,0.01-0.01,0.02-0.01c-0.1-1.65-0.22-3.27-0.33-4.93
					c0-0.09-0.01-0.17-0.01-0.26c-0.16-3.34-0.18-6.34,0-8.44c0.18-2.15,0.83-7.2,1.64-13.1c0.45-1.06,0.84-2.02,1.17-2.81
					c0.53-1.28,1.96-4.73,1.96-4.73l0.9-15.42l-1.13,2.63c0.82-5.55,1.41-9.52,1.41-9.52l1.9-6.8l0.6-0.84c0,0,0.01-0.06,0.02-0.16
					c0.03-0.14,0.06-0.37,0.1-0.67c0.03-0.15,0.05-0.32,0.07-0.51c0.02-0.09,0.03-0.19,0.04-0.29c0.04-0.3,0.09-0.64,0.13-1
					c0.07-0.49,0.13-1.02,0.19-1.59c0.02-0.15,0.03-0.29,0.05-0.44c0.03-0.29,0.06-0.59,0.09-0.9c0.02-0.15,0.03-0.31,0.04-0.46
					c0.05-0.47,0.09-0.95,0.12-1.43c0.03-0.32,0.05-0.65,0.07-0.97c0.02-0.32,0.03-0.65,0.05-0.97c0.01-0.32,0.02-0.64,0.03-0.96
					c0.01-0.31,0.01-0.62,0.01-0.93c0-0.59-0.01-1.16-0.05-1.69c0-0.05,0-0.1-0.01-0.14c0-0.03,0-0.05,0-0.08L68.2574,39.1257z"/>
				<path d="M121.0474,151.4757c0.02-0.19,0.03-0.38,0.05-0.58C121.0874,151.0757,121.0674,151.2657,121.0474,151.4757z"/>
				<path d="M120.7174,142.1057l-3.76,7.5c0,0-2.07,0.89-3.82-0.05c-1.75-0.95-1.23-3.44-1.23-3.44l3.38-6.94
					c0.2-0.1,0.41-0.2,0.61-0.31C117.7374,137.9257,119.0574,141.3057,120.7174,142.1057z"/>
				<path d="M113.9774,122.0757l-14.9,23.13c-2.64,0.62-5.04,1.01-7.17,1.23l17.24-27.55c0.33-0.13,0.66-0.21,0.97-0.27
					c0.31-0.05,0.6-0.08,0.89-0.07s0.55,0.05,0.81,0.12c0.25,0.08,0.5,0.19,0.72,0.32c0.21,0.14,0.4,0.3,0.58,0.5
					c0.17,0.2,0.33,0.43,0.46,0.69c0.12,0.26,0.22,0.54,0.29,0.86C113.9274,121.3557,113.9774,121.7057,113.9774,122.0757z"/>
				<path d="M105.9574,87.0957c1.05,1.5-0.87,4.19-0.87,4.19l-13.14,10.03c-0.2,0.11-0.4,0.24-0.61,0.36
					c-1.1,0.67-2.19,1.31-3.25,1.92l0.21-3.63l-5.81,0.85l19.83-14.55C102.3174,86.2657,104.9174,85.6057,105.9574,87.0957z"/>
				<path d="M100.9374,113.3057l-22.45,28.74c-0.69-1.72-1.46-4.01-2.18-6.94l19.98-25.42l0.06,5.14L100.9374,113.3057z"/>
				<path d="M99.0774,145.2057l-5.32,8.26c0,0-0.5,0.11-1.13,0.14c-0.63,0.03-1.4,0-1.96-0.27c-1.13-0.52-1.67-2.26-1.67-2.26
					l2.91-4.64C94.0374,146.2157,96.4374,145.8257,99.0774,145.2057z"/>
				<path d="M91.9474,101.3157l-3.9,2.97l0.04-0.69c1.06-0.61,2.15-1.25,3.25-1.92
					C91.5474,101.5557,91.7474,101.4257,91.9474,101.3157z"/>
				<path d="M88.2974,99.9657l-0.21,3.63c-5.09,2.95-9.81,5.38-14.17,7.36v-0.77c0.04-1.03,0.09-2.1,0.16-3.2l1.03-0.75l0.35,0.77
					l5.12-3.72l-0.29-0.85l2.2-1.62L88.2974,99.9657z"/>
				<path d="M88.0874,103.5957l-0.04,0.69l-0.01,0.01l-14.11,10.77l-0.01-4.11C78.2774,108.9757,82.9974,106.5457,88.0874,103.5957z
					"/>
				<polygon points="80.2874,102.4357 80.5774,103.2857 75.4574,107.0057 75.1074,106.2357 				"/>
				<path fill="#333333" d="M79.1274,99.0557l1.16,3.38l-5.18,3.8l-0.86-1.91c0.17-2.28,0.39-4.65,0.64-7.07
					c0.11,0.12,0.23,0.23,0.34,0.33c0.36,0.31,0.72,0.59,1.08,0.83c0.36,0.24,0.72,0.44,1.08,0.58c0.36,0.13,0.71,0.21,1.07,0.21
					C78.6774,99.2057,78.9074,99.1157,79.1274,99.0557z"/>
				<path d="M77.5874,94.5357l1.54,4.52c-0.22,0.06-0.45,0.15-0.67,0.15c-0.36,0-0.71-0.08-1.07-0.21
					c-0.36-0.14-0.72-0.34-1.08-0.58c-0.36-0.24-0.72-0.52-1.08-0.83c-0.11-0.1-0.23-0.21-0.34-0.33c0.05-0.48,0.1-0.96,0.16-1.44
					C75.8774,95.4057,76.7174,94.9757,77.5874,94.5357z"/>
				<path d="M78.4874,142.0457l-0.32,0.41c0,0-2.31-5.18-1.96-7.22l0.1-0.13C77.0274,138.0357,77.7974,140.3257,78.4874,142.0457z"
					/>
				<path d="M75.8174,89.3457l1.77,5.19c-0.87,0.44-1.71,0.87-2.54,1.28C75.2774,93.6857,75.5374,91.5157,75.8174,89.3457z"/>
				<path d="M75.0874,87.2157l0.73,2.13c-0.28,2.17-0.54,4.34-0.77,6.47c-0.14,0.07-0.28,0.14-0.42,0.21l-0.08,0.88
					c-0.03-0.03-0.06-0.06-0.09-0.09L75.0874,87.2157z"/>
				<path d="M74.2474,104.3257l0.86,1.91l-1.03,0.75C74.1274,106.1157,74.1874,105.2257,74.2474,104.3257z"/>
				<path d="M74.6274,96.0257c0.14-0.07,0.28-0.14,0.42-0.21c-0.06,0.48-0.11,0.96-0.16,1.44c-0.12-0.11-0.23-0.24-0.34-0.35
					L74.6274,96.0257z"/>
				<path d="M74.5474,96.9057c0.11,0.11,0.22,0.24,0.34,0.35c-0.25,2.42-0.47,4.79-0.64,7.07l-0.25-0.57l0.19-2.88L74.5474,96.9057z
					"/>
				<path d="M74.5474,96.9057l-0.36,3.97l0.27-4.06C74.4874,96.8457,74.5174,96.8757,74.5474,96.9057z"/>
				<path d="M73.9974,103.7557l0.25,0.57c-0.06,0.9-0.12,1.79-0.17,2.66l-0.16,0.12v3.08c0,0.27-0.01,0.53-0.02,0.78
					c-0.22,0.1-0.43,0.2-0.65,0.3l0.94-10.39L73.9974,103.7557z"/>
				<path d="M73.9174,107.1057l0.16-0.12c-0.07,1.1-0.12,2.17-0.16,3.2V107.1057z"/>
				<path d="M73.9174,110.1857v0.77c-0.01,0.01-0.01,0.01-0.02,0.01C73.9074,110.7157,73.9174,110.4557,73.9174,110.1857z"/>
				<path d="M67.3374,52.1457c-0.01,0.1-0.02,0.16-0.02,0.16l-0.6,0.84l0.32-1.13l-4.8-4.21l6.02-8.68
					c0.01,0.03,0.01,0.05,0.01,0.07c0.01,0.04,0.01,0.09,0.01,0.14c0.03,0.54,0.05,1.1,0.05,1.69c0,0.31,0,0.62-0.01,0.93
					c-0.01,0.32-0.02,0.64-0.03,0.96c-0.02,0.32-0.03,0.65-0.05,0.97c-0.02,0.32-0.05,0.65-0.07,0.97
					c-0.04,0.48-0.08,0.96-0.12,1.43c-0.01,0.15-0.02,0.31-0.04,0.46c-0.03,0.31-0.06,0.61-0.09,0.9c-0.02,0.15-0.03,0.29-0.05,0.44
					c-0.07,0.57-0.13,1.1-0.19,1.59c-0.05,0.36-0.09,0.7-0.13,1c-0.01,0.1-0.02,0.2-0.04,0.29c-0.03,0.19-0.05,0.36-0.07,0.51
					C67.3874,51.7757,67.3574,52.0057,67.3374,52.1457z"/>
				<path d="M68.3274,41.0257c0-0.59-0.02-1.15-0.05-1.69C68.3174,39.8657,68.3274,40.4357,68.3274,41.0257z"/>
				<path d="M68.3174,41.9557c-0.01,0.32-0.02,0.64-0.03,0.96C68.2974,42.5957,68.3074,42.2757,68.3174,41.9557z"/>
				<path d="M68.2674,39.1157c0,0.03,0,0.05,0,0.08c0-0.02,0-0.04-0.01-0.07L68.2674,39.1157z"/>
				<path d="M68.2374,43.8857c-0.02,0.32-0.04,0.65-0.07,0.97C68.1874,44.5357,68.2174,44.2057,68.2374,43.8857z"/>
				<path d="M68.1674,44.8557c-0.03,0.48-0.07,0.96-0.12,1.43C68.0874,45.8157,68.1274,45.3357,68.1674,44.8557z"/>
				<path d="M68.0074,46.7457c-0.03,0.31-0.06,0.61-0.09,0.9C67.9474,47.3557,67.9774,47.0557,68.0074,46.7457z"/>
				<path d="M67.8674,48.0857c-0.06,0.57-0.12,1.1-0.19,1.59C67.7374,49.1857,67.7974,48.6557,67.8674,48.0857z"/>
				<path d="M67.6774,49.6757c-0.04,0.36-0.09,0.7-0.13,1C67.5874,50.3757,67.6274,50.0357,67.6774,49.6757z"/>
				<path d="M67.5074,50.9657c-0.02,0.19-0.04,0.36-0.07,0.51C67.4574,51.3257,67.4774,51.1557,67.5074,50.9657z"/>
				<path d="M67.4374,51.4757c-0.04,0.3-0.07,0.53-0.1,0.67C67.3574,52.0057,67.3874,51.7757,67.4374,51.4757z"/>
				<polygon points="67.0374,52.0157 66.7174,53.1457 49.6874,77.1857 45.1174,78.4957 44.3374,73.6157 62.2374,47.8057 				"/>
				<path d="M64.5374,66.8357l-0.9,15.42c0,0-1.43,3.45-1.96,4.73c-0.29,0.07-0.55,0.12-0.8,0.14c0.84-5.99,1.79-12.51,2.53-17.66
					L64.5374,66.8357z"/>
				<path d="M57.1974,83.9757l6.21-14.51c-0.74,5.15-1.69,11.67-2.53,17.66c-0.11,0.02-0.22,0.03-0.33,0.04
					c-0.34,0.02-0.65,0.01-0.92-0.04c-0.28-0.04-0.52-0.11-0.73-0.22c-0.22-0.1-0.41-0.23-0.58-0.38c-0.33-0.3-0.57-0.69-0.75-1.13
					C57.3974,84.9657,57.2774,84.4757,57.1974,83.9757z"/>
				<path d="M60.8774,87.1257c0.25-0.02,0.51-0.07,0.8-0.14c-0.33,0.79-0.72,1.75-1.17,2.81
					C60.6374,88.9157,60.7574,88.0257,60.8774,87.1257z"/>
				<path d="M60.5474,87.1657c0.11-0.01,0.22-0.02,0.33-0.04c-0.12,0.9-0.24,1.79-0.37,2.67c-1.77,4.27-4.29,10.32-6.25,14.99
					c-2.44,0.8-4.68,1.41-6.78,1.86l9.72-22.67c0.08,0.5,0.2,0.99,0.37,1.42c0.18,0.44,0.42,0.83,0.75,1.13
					c0.17,0.15,0.36,0.28,0.58,0.38c0.21,0.11,0.45,0.18,0.73,0.22C59.8974,87.1757,60.2074,87.1857,60.5474,87.1657z"/>
				<path d="M59.2074,116.5257c-0.01,0-0.01,0-0.02,0.01c-0.13-1.68-0.24-3.35-0.31-4.94
					C58.9874,113.2557,59.1074,114.8757,59.2074,116.5257z"/>
				<path d="M23.2674,113.0257c-1.87-1.12-3.01-1.94-3.01-1.94s-16.27-9.78-19.58-19.23c0,0-0.47-1.43,0.12-2.43
					c0.28-0.44,0.77-0.81,1.63-0.9c1.79-0.18,8.74-0.08,10.08-2c0,0,0.88,14.1,9.41,19.41l-0.06,0.09c0,0,1.3,2.63,4.75,3.75
					l1.34-1.9c0.29,0.03,0.59,0.04,0.9,0.05c6.63,0.13,12,0.17,18.63-1.28l-1.48,3.45c0,0-0.26,2.73,1.54,2.96
					c1.88,0.24,3.38-0.79,3.75-1.34c0.13-0.18,1.35-3.08,2.97-6.93c1.43-0.48,2.94-1.02,4.53-1.63c-0.17,3.01-0.08,5.65,0.08,8.18
					c0,0.09,0.01,0.17,0.01,0.26c0.07,1.59,0.18,3.26,0.31,4.94c-11.8,3.43-19.65,2.98-24.13,1.74c-4.6-1.26-8.95-3.56-11.73-5.22
					C23.3074,113.0457,23.2874,113.0357,23.2674,113.0257z"/>
				<path d="M54.2574,104.7857c-1.62,3.85-2.84,6.75-2.97,6.93c-0.37,0.55-1.87,1.58-3.75,1.34c-1.8-0.23-1.54-2.96-1.54-2.96
					l1.48-3.45C49.5774,106.1957,51.8174,105.5857,54.2574,104.7857z"/>
				<path d="M49.6874,77.1857l-21.74,30.69c-2.35-0.18-4.34-0.89-6.03-1.94l22.42-32.32l0.78,4.88L49.6874,77.1857z"/>
				<path d="M27.9474,107.8757l-1.34,1.9c-3.45-1.12-4.75-3.75-4.75-3.75l0.06-0.09
					C23.6074,106.9857,25.5974,107.6957,27.9474,107.8757z"/>
			</g>
			<g>
				<path fill="none" stroke="#663399" stroke-linecap="round" d="M120.2074,129.3757c0.16,0.31,0.25,0.7,0.54,1.08
					c0.17,0.21,0.4,0.43,0.76,0.61c0.34,0.18,0.79,0.32,1.4,0.44c0.03,0.01,0.07,0.01,0.1,0.02l2.8-15.16l-5.68,12.88"/>
				<path fill="none" stroke="#663399" stroke-linecap="round" d="M120.2074,129.3757c-0.03-0.05-0.05-0.09-0.08-0.13l-4.84,9.93
					l-3.38,6.94c0,0-0.52,2.49,1.23,3.44c1.75,0.94,3.82,0.05,3.82,0.05l3.76-7.5l1.31-2.61l0.88-7.99"/>
				<line fill="none" stroke="#663399" stroke-linecap="round" x1="135.0174" y1="171.1957" x2="152.5774" y2="147.7857"/>
				<line fill="none" stroke="#663399" stroke-linecap="round" x1="146.9874" y1="144.1457" x2="135.2674" y2="159.6357"/>
				<line fill="none" stroke="#663399" stroke-linecap="round" x1="244.4474" y1="243.1957" x2="261.3474" y2="220.8357"/>
				<line fill="none" stroke="#663399" stroke-linecap="round" x1="256.0374" y1="217.3157" x2="243.8974" y2="233.1657"/>
				<line fill="none" stroke="#663399" stroke-linecap="round" x1="292.0974" y1="220.0857" x2="282.0874" y2="234.7757"/>
				<line fill="none" stroke="#663399" stroke-linecap="round" x1="287.0674" y1="238.0757" x2="293.6074" y2="228.8057"/>
				<line fill="none" stroke="#663399" stroke-linecap="round" x1="234.7274" y1="188.6457" x2="227.9474" y2="198.3957"/>
				<line fill="none" stroke="#663399" stroke-linecap="round" x1="232.6174" y1="201.5757" x2="233.1974" y2="200.7357"/>
				<line fill="none" stroke="#663399" stroke-linecap="round" x1="179.8774" y1="152.5057" x2="173.4274" y2="161.9157"/>
				<line fill="none" stroke="#663399" stroke-linecap="round" x1="177.7974" y1="164.8957" x2="178.1274" y2="164.3857"/>
				<line fill="none" stroke="#663399" stroke-linecap="round" x1="128.6374" y1="87.7657" x2="109.1474" y2="118.8857"/>
				<polyline fill="none" stroke="#663399" stroke-linecap="round" points="113.9774,122.0757 121.6974,110.0957 127.6374,100.8657 
									"/>
				<line fill="none" stroke="#663399" stroke-linecap="round" x1="63.4074" y1="69.4657" x2="57.1974" y2="83.9757"/>
				<line fill="none" stroke="#663399" stroke-linecap="round" x1="234.8774" y1="160.7457" x2="215.0374" y2="189.8457"/>
				<path fill="none" stroke="#663399" stroke-linecap="round" d="M219.6774,193.1057c5.81-8.17,11.66-16.32,17.45-24.5"/>
				<path fill="none" stroke="#666666" stroke-linecap="round" stroke-linejoin="round" d="M47.4774,106.6457
					c-6.63,1.45-12,1.41-18.63,1.28c-0.31-0.01-0.61-0.02-0.9-0.05"/>
				<path fill="none" stroke="#666666" stroke-linecap="round" stroke-linejoin="round" d="M58.8674,111.3357
					c-0.16-2.53-0.25-5.17-0.08-8.18c-1.59,0.61-3.1,1.15-4.53,1.63"/>
				<path fill="none" stroke="#666666" stroke-linecap="round" stroke-linejoin="round" d="M23.3274,113.0557
					c2.78,1.66,7.13,3.96,11.73,5.22c4.48,1.24,12.33,1.69,24.13-1.74"/>
				<path fill="none" stroke="#666666" stroke-linecap="round" stroke-linejoin="round" d="M21.9174,105.9357
					c-8.53-5.31-9.41-19.41-9.41-19.41c-1.34,1.92-8.29,1.82-10.08,2c-0.86,0.09-1.35,0.46-1.63,0.9c-0.59,1-0.12,2.43-0.12,2.43
					c3.31,9.45,19.58,19.23,19.58,19.23s1.14,0.82,3.01,1.94"/>
				<path fill="none" stroke="#663399" stroke-linecap="round" d="M139.9374,126.6957c1.26-9.88,3.84-31.34,3.17-36.29
					c-0.87-6.5-3.65-9.49-6.37-10.86c-2.72-1.36-4.13-2.99-9.57-6.41c-5.44-3.42-11.73,1.23-11.73,1.23l-31.51,16.83
					c-2.23,1.2-4.33,2.3-6.34,3.34"/>
				<path fill="none" stroke="#666666" stroke-linecap="round" stroke-linejoin="round" d="M139.3874,130.9157
					c0.08-0.67,0.23-1.75,0.41-3.14"/>
				<path fill="none" stroke="#666666" stroke-linecap="round" stroke-linejoin="round" d="M139.3074,131.4957
					c0-0.04,0.01-0.09,0.02-0.15"/>
				<path fill="none" stroke="#666666" stroke-linecap="round" stroke-linejoin="round" d="M138.5674,135.2957
					c0.02-0.14,0.05-0.28,0.08-0.41"/>
				<path fill="none" stroke="#666666" stroke-linecap="round" stroke-linejoin="round" d="M138.3174,136.6557
					c0.03-0.16,0.05-0.33,0.09-0.48"/>
				<path fill="none" stroke="#666666" stroke-linecap="round" stroke-linejoin="round" d="M137.7474,139.8757
					c0.12-0.71,0.23-1.38,0.35-2.01"/>
				<path fill="none" stroke="#666666" stroke-linecap="round" stroke-linejoin="round" d="M137.4474,141.7157
					c0.03-0.21,0.06-0.42,0.1-0.62"/>
				<path fill="none" stroke="#663399" stroke-linecap="round" d="M138.5874,184.7657c-0.12-0.11-0.22-0.22-0.31-0.32
					c-0.42-0.47-0.59-0.84-0.59-0.84c-1.66-2.85-2.45-7.29-2.67-12.41c-0.16-3.62-0.03-7.58,0.25-11.56
					c0.4-5.57,1.12-11.15,1.84-15.85"/>
				<path fill="none" stroke="#663399" stroke-linecap="round" d="M161.9074,178.7057c-7.82,3.58-14.29,6.43-16.31,7
					c-0.49,0.14-0.95,0.25-1.39,0.32"/>
				<path fill="none" stroke="#663399" stroke-linecap="round" d="M177.1174,171.6557c-1.81,0.85-3.64,1.7-5.47,2.56"/>
				<path fill="none" stroke="#663399" stroke-linecap="round" d="M120.9774,152.2557c-0.44,5-0.67,9.49-0.5,12.66
					c0.71,13.33,6.27,20.6,7.82,21.64c1.55,1.04,7.62,3.98,7.62,3.98s0.27,0.65,8.84,6.24c5.18,3.38,19.06-2.02,30.48-7.53"/>
				<path fill="none" stroke="#666666" stroke-linecap="round" d="M121.9574,142.9457c-0.29,2.48-0.57,4.96-0.8,7.34"/>
				<path fill="none" stroke="#663399" stroke-linecap="round" d="M122.8074,85.2857c4.38-1.6,5.71-1.44,5.71-1.44
					c0.15,0.75,0.18,2.14,0.12,3.92c-0.1,3.45-0.53,8.39-1,13.1c-0.73,7.24-1.57,13.96-1.57,13.96s-0.09,0.55-0.26,1.54
					c-0.65,3.93-2.41,14.82-3.75,25.74"/>
				<path fill="none" stroke="#663399" stroke-linecap="round" d="M91.9474,101.3157c8.13-4.9,14.53-8.42,19.54-10.97"/>
				<path fill="none" stroke="#666666" stroke-linecap="round" stroke-linejoin="round" d="M73.8974,110.9657
					c0.01,0,0.01,0,0.02-0.01"/>
				<path fill="none" stroke="#663399" stroke-linecap="round" d="M218.6374,151.4957l-18.63,9.32c0,0-2.85,1.36-5.7,2.71"/>
				<path fill="none" stroke="#663399" stroke-linecap="round" d="M247.0674,256.9657c-1.05-1.89-1.99-8.35-2.62-13.77
					c-0.52-4.42-0.83-8.15-0.83-8.15s0.1-0.67,0.28-1.88c1.37-9.41,7.48-51.24,8.28-57.12c0.91-6.62-0.55-15.48-1.21-18.34
					c-0.66-2.85-3.84-4.34-5.17-4.75s-5.21-3.01-6.09-4.08c-0.89-1.08-1.86-1.79-1.86-1.79c-6.33-3.79-14.93,2.27-14.93,2.27
					l-4.25,2.12"/>
				<path fill="none" stroke="#666666" stroke-linecap="round" stroke-linejoin="round" d="M271.4774,250.3457
					c-5.31,2.96-11.25,6.14-13.64,6.95c-1.31,0.45-2.7,0.62-4.05,0.64"/>
				<path fill="none" stroke="#666666" stroke-linecap="round" stroke-linejoin="round" d="M245.0074,262.7157
					c0,0,0.56,1.95,5.32,5.14c7.32,4.9,28.49-3.74,31.71-5.43c3.23-1.7,2.79-4.39,2.79-4.39l-0.19-12.67
					c-0.19-1.22-1.06-1.35-1.86-1.2"/>
				<path fill="none" stroke="#666666" stroke-linecap="round" stroke-linejoin="round" d="M230.4374,223.8957
					c-0.06,1.13-0.12,2.28-0.18,3.42c-0.37,7.7-0.41,15.15-0.02,17.92c0.73,5.15,4.01,12,6.89,13.93c2.8,1.88,7.57,3.45,7.87,3.54"
					/>
				<path fill="none" stroke="#666666" stroke-linecap="round" stroke-linejoin="round" d="M231.7074,210.8157
					c-0.04,0.19-0.07,0.39-0.09,0.58c-0.05,0.31-0.09,0.62-0.13,0.94"/>
				<path fill="none" stroke="#663399" stroke-linecap="round" d="M238.1974,159.6257c0.04,0,0.06,0,0.06,0
					c-0.22,1.52-0.63,4.78-1.13,8.98c-0.68,5.66-1.55,13.01-2.4,20.04c-0.53,4.31-1.05,8.49-1.53,12.09
					c-0.33,2.46-0.63,4.64-0.9,6.42"/>
				<path fill="none" stroke="#663399" stroke-linecap="round" d="M221.9674,164.4157c6.29-3.02,10.8-4.15,13.46-4.56"/>
				<path fill="none" stroke="#663399" stroke-linecap="round" d="M191.2374,180.7457c0.38-0.22,0.96-0.55,0.96-0.55
					s7.31-3.65,17.46-9.16"/>
				
					<line fill="none" stroke="#666666" stroke-linecap="round" stroke-linejoin="round" x1="191.4774" y1="179.3257" x2="191.3074" y2="180.2957"/>
				<polyline fill="none" stroke="#663399" stroke-linecap="round" points="191.4574,179.3457 191.4774,179.3257 194.5774,176.1457 
									"/>
				<line fill="none" stroke="#663399" stroke-linecap="round" x1="80.2874" y1="102.4357" x2="79.1274" y2="99.0557"/>
				<line fill="none" stroke="#663399" stroke-linecap="round" x1="74.2474" y1="104.3257" x2="75.1074" y2="106.2357"/>
				<path fill="none" stroke="#663399" stroke-linecap="round" d="M74.8874,97.2557c0.11,0.12,0.23,0.23,0.34,0.33
					c0.36,0.31,0.72,0.59,1.08,0.83c0.36,0.24,0.72,0.44,1.08,0.58c0.36,0.13,0.71,0.21,1.07,0.21c0.22,0,0.45-0.09,0.67-0.15
					l-1.54-4.52l-1.77-5.19"/>
				<path fill="none" stroke="#663399" stroke-linecap="round" d="M60.8774,87.1257c-0.11,0.02-0.22,0.03-0.33,0.04
					c-0.34,0.02-0.65,0.01-0.92-0.04c-0.28-0.04-0.52-0.11-0.73-0.22c-0.22-0.1-0.41-0.23-0.58-0.38c-0.33-0.3-0.57-0.69-0.75-1.13
					c-0.17-0.43-0.29-0.92-0.37-1.42l-9.72,22.67l-1.48,3.45c0,0-0.26,2.73,1.54,2.96c1.88,0.24,3.38-0.79,3.75-1.34
					c0.13-0.18,1.35-3.08,2.97-6.93c1.96-4.67,4.48-10.72,6.25-14.99"/>
				<path fill="none" stroke="#663399" stroke-linecap="round" d="M192.6074,172.6257c0.01,0,0.02,0,0.02,0.01
					c0.07,0.03,0.13,0.06,0.2,0.09c0.35,0.17,0.68,0.37,0.96,0.65c0.29,0.27,0.52,0.61,0.67,1.06c0.07,0.22,0.12,0.47,0.14,0.75
					c0.03,0.29,0.02,0.61-0.02,0.96l6.24-6.37c0,0,0.67-2.18-0.51-3.65c-1.17-1.46-3.19-0.99-3.19-0.99l-3.83,3.9"/>
				<path fill="none" stroke="#666666" stroke-linecap="round" d="M74.0774,106.9857c0.05-0.87,0.11-1.76,0.17-2.66
					c0.17-2.28,0.39-4.65,0.64-7.07c0.05-0.48,0.1-0.96,0.16-1.44c0.23-2.13,0.49-4.3,0.77-6.47c2.5-19.49,6.53-39.74,6.8-42.54
					c0.42-4.22-1.06-6.32-2.39-7.22c-1.33-0.89-3.81-0.78-6.32-2.31c-2.52-1.52-3.29-3.97-4.73-4.94
					c-1.45-0.96-6.74-0.01-11.15,3.46c-0.55,0.43-0.97,0.88-1.29,1.33c-2.2,3.17,0.82,6.56,0.82,6.56l4.68,4.12"/>
				<path fill="none" stroke="#666666" stroke-linecap="round" d="M76.3074,135.1057c-1.14-4.65-2.14-10.9-2.41-18.92
					c-0.05-1.61-0.05-3.36,0-5.22c0.01-0.25,0.02-0.51,0.02-0.78"/>
				<path fill="none" stroke="#663399" stroke-linecap="round" d="M91.9074,146.4357c-7.35,0.75-11.54-0.45-11.54-0.45
					s-0.82-1.25-1.88-3.94"/>
				<path fill="none" stroke="#663399" stroke-linecap="round" d="M115.2874,139.1757c-6.07,3.06-11.52,4.93-16.21,6.03"/>
				<path fill="none" stroke="#663399" stroke-linecap="round" d="M66.7174,53.1457l-1.9,6.8c0,0-0.59,3.97-1.41,9.52
					c-0.74,5.15-1.69,11.67-2.53,17.66c-0.12,0.9-0.24,1.79-0.37,2.67c-0.81,5.9-1.46,10.95-1.64,13.1c-0.18,2.1-0.16,5.1,0,8.44
					c0,0.09,0.01,0.17,0.01,0.26c0.07,1.59,0.18,3.26,0.31,4.94c0.48,6.22,1.29,12.62,2.08,16.09c1.46,6.45,7.41,12.2,10.56,13.98
					c3.14,1.79,8.16,5.32,8.16,5.32c7.98,7.76,13.32,7.48,23.28,6.28c4.18-0.5,10.39-2.69,17.71-5.95c0.02-0.25,0.05-0.51,0.07-0.78
					c0.02-0.21,0.04-0.4,0.05-0.58c0.03-0.2,0.04-0.4,0.06-0.61c0.27-3.12,0.26-3.37,0.8-7.34c0.03-0.21,0.06-0.42,0.08-0.63"/>
				<path fill="none" stroke="#663399" stroke-linecap="round" d="M189.5174,197.4357c0.21-4.83,0.77-10.38,1.72-16.69
					c0.02-0.15,0.04-0.3,0.07-0.45c0.04-0.31,0.09-0.63,0.15-0.95c0.33-2.15,0.71-4.39,1.15-6.72c0.07-0.41,0.15-0.82,0.23-1.24
					c0.06-0.35,0.13-0.71,0.2-1.07c0.08-0.43,0.17-0.86,0.25-1.28c0.36-1.92,0.7-3.76,1.02-5.51c4.21-23.35,4.21-33.05,2.84-38.68
					c-1.51-6.15-4.4-8.08-7.17-8.98c-2.78-0.89-3.62-2.26-7.65-5.12c-3.34-2.37-11.16,1.29-15.09,3c-0.82,0.35-1.46,0.62-1.87,0.73
					c-1.5,0.42-12.27,5.64-25.43,12.22c-0.05,0.38-0.09,0.73-0.14,1.08c-0.17,1.36-0.32,2.45-0.41,3.14
					c-0.02,0.17-0.04,0.31-0.06,0.43c-0.01,0.06-0.01,0.1-0.02,0.15c-0.02,0.14-0.03,0.21-0.03,0.21s-0.07,0.33-0.2,0.95
					c-0.02,0.13-0.05,0.27-0.08,0.43c-0.05,0.24-0.1,0.52-0.16,0.82h-0.01c0,0.03-0.01,0.06-0.01,0.09
					c-0.05,0.27-0.11,0.57-0.17,0.89c-0.03,0.13-0.05,0.27-0.08,0.41c-0.05,0.28-0.11,0.57-0.16,0.88
					c-0.03,0.16-0.06,0.31-0.09,0.48c-0.03,0.16-0.06,0.33-0.09,0.5c-0.04,0.23-0.09,0.47-0.13,0.71c-0.11,0.63-0.23,1.31-0.35,2.01
					c-0.07,0.4-0.13,0.8-0.2,1.22c-0.03,0.2-0.07,0.41-0.1,0.62c-0.09,0.52-0.17,1.04-0.26,1.58c-0.02,0.16-0.05,0.32-0.08,0.49
					c-0.02,0.19-0.05,0.38-0.08,0.58c5.52-2.92,11.23-6.11,16.92-9.43"/>
				<path fill="none" stroke="#663399" d="M193.4974,221.4157c-0.42-0.15-0.63-0.27-0.63-0.27c-0.03-0.06-0.06-0.11-0.1-0.17
					c-1.61-2.88-2.78-7.29-3.2-13.48"/>
				<path fill="none" stroke="#663399" stroke-linecap="round" d="M216.5674,214.7657c-4.08,1.99-7.4,3.63-9.32,4.6
					c-3.21,1.63-5.91,2.34-8.08,2.58"/>
				<path fill="none" stroke="#663399" stroke-linecap="round" d="M182.7674,131.6857c-0.78,5.98-1.97,14.41-2.89,20.82
					c-0.76,5.3-1.34,9.21-1.34,9.21s-0.16,0.99-0.41,2.67c-0.26,1.77-0.62,4.31-1.01,7.27c-0.69,5.23-1.46,11.75-1.88,17.59
					c-0.23,2.97-0.36,5.77-0.34,8.13c0.08,12.1,3.68,22.55,6.93,24.89c3.26,2.34,9.28,5.1,9.28,5.1
					c13.22,15.29,37.73-2.69,37.73-2.69s1.2-0.58,1.6-0.78h0.01c0.02-0.34,0.04-0.68,0.06-1.02c0.09-1.39,0.19-2.77,0.3-4.1
					c0.05-0.57,0.1-1.14,0.15-1.69c0.12-1.28,0.25-2.5,0.39-3.64c0.02-0.23,0.05-0.46,0.08-0.68c0.02-0.15,0.04-0.29,0.06-0.43
					c0.04-0.32,0.08-0.64,0.13-0.94c0.03-0.2,0.06-0.39,0.09-0.58c0.06-0.39,0.12-0.77,0.18-1.12c0.06-0.35,0.13-0.74,0.2-1.17
					c0.07-0.42,0.15-0.89,0.23-1.38c-0.01,0-0.01,0.01-0.02,0.01c-1.75,0.85-3.51,1.69-5.23,2.52"/>
				<path fill="none" stroke="#663399" stroke-linecap="round" d="M167.5474,127.8157c6.82-2.93,11.16-3.64,13.57-3.72"/>
				<path fill="none" stroke="#666666" stroke-linecap="round" d="M294.0474,201.0657c-0.41,5.56-1.31,13.75-1.95,19.02
					c-0.28,2.32-0.51,4.06-0.63,4.78c-0.43,2.56,1.41,3.63,2.14,3.94c0.18,0.08,0.29,0.11,0.29,0.11s7.37,1.27,10.11,0.99
					c2.07-0.22,2.41-3.37,2.41-3.37c3.7-15.35,2.1-26.39,0.96-30.21c-1.14-3.82-6.35-6.84-9.02-8.14c-2.66-1.3-1.06-1.99-6.57-5.52
					c-5.22-3.34-13.81,2.86-14.71,3.53"/>
				<path fill="none" stroke="#666666" stroke-linecap="round" d="M276.7274,200.5157c5.12-2,10.23-3.43,13.59-4.26"/>
				<path fill="none" stroke="#666666" stroke-linecap="round" d="M246.6374,215.1157l-0.13,0.85c6.07-3.04,12.56-6.35,17.46-9.01"
					/>
				<path fill="none" stroke="#666666" stroke-linecap="round" d="M277.0674,186.2057c-0.05,0.03-0.07,0.05-0.07,0.05l-17.94,8.06
					c0,0-4.32,2.07-9.94,4.77l-0.96,6.19"/>
				<path fill="none" stroke="#663399" d="M191.1074,227.3357c0,0-4.16-5.02-5.22-15.68"/>
				<path fill="none" stroke="#663399" stroke-linecap="round" d="M195.9974,226.7657c3.46,3.65,10.4,6.76,23.96,1.45"/>
				<path fill="none" stroke="#663399" stroke-linecap="round" d="M194.9674,225.5457c0.08,0.1,0.16,0.2,0.24,0.3"/>
				<path fill="none" stroke="#663399" stroke-linecap="round" d="M194.4874,224.8457c0.05,0.08,0.1,0.15,0.15,0.23"/>
				<path fill="none" stroke="#663399" stroke-linecap="round" d="M192.7674,220.9757c0,0,0.08,0.4,0.31,1.05"/>
				<path fill="none" stroke="#663399" stroke-linecap="round" d="M293.0274,192.4557c-1.9-3.74-6.43-9.18-15.95-6.26l-0.01,0.01
					c-0.01,0-0.01,0-0.02,0"/>
				<path fill="none" stroke="#663399" stroke-linecap="round" d="M294.2474,195.5557c0,0-0.01-0.03-0.03-0.1"/>
				<path fill="none" stroke="#663399" stroke-linecap="round" d="M244.9974,262.7057c-0.12-0.21-4.05-7.21-4.43-15.37"/>
				<path fill="none" stroke="#666666" stroke-linecap="round" stroke-linejoin="round" d="M245.0074,262.7157c0,0,0,0-0.01-0.01"/>
				<path fill="none" stroke="#663399" stroke-linecap="round" d="M250.4274,262.6857c3.53,3.72,10.48,6.96,23.61,1.61"/>
				<path fill="none" stroke="#663399" stroke-linecap="round" d="M247.0774,257.0057c0.02,0.08,0.08,0.3,0.2,0.64"/>
				<path fill="none" stroke="#663399" stroke-linecap="round" d="M131.4474,172.7557c0,0,1.41,14.74,4.47,17.78"/>
				<path fill="none" stroke="#663399" stroke-linecap="round" d="M141.4074,189.9557c3.51,4.06,10.61,7.87,24.06,1.58"/>
				<path fill="none" stroke="#666666" stroke-linecap="round" stroke-linejoin="round" d="M138.2674,184.3957c0,0,0,0.02,0.01,0.05
					c0.03,0.08,0.08,0.26,0.17,0.51"/>
				<path fill="none" stroke="#663399" stroke-linecap="round" d="M80.3974,152.1957c0,0-9.05-9.28-7.99-33.16"/>
				<path fill="none" stroke="#663399" stroke-linecap="round" d="M80.6274,146.0857c0,0,10.77,19.43,38.57,5.28"/>
				<path fill="none" stroke="#663399" stroke-linecap="round" d="M131.4974,87.4457c0,0,2.38-10.5-4.98-14.62"/>
				<path fill="none" stroke="#663399" stroke-linecap="round" d="M128.8474,84.2257c0,0-5.11-13.6-15.01-8.66"/>
				<path fill="none" stroke="#663399" stroke-linecap="round" d="M23.4174,113.1257c0,0-0.03-0.02-0.09-0.07
					c-0.02-0.01-0.04-0.02-0.06-0.03c-1.34-1.01-11.25-8.79-12.56-21.36"/>
				<path fill="none" stroke="#663399" stroke-linecap="round" d="M68.2574,39.1257c-0.11-1.68-0.43-2.98-1.06-3.45
					c-2.24-1.66-2.84-1.27-2.84-1.27"/>
				<path fill="none" stroke="#663399" stroke-linecap="round" d="M68.3274,41.0257c0-0.59-0.01-1.16-0.05-1.69"/>
				<path fill="none" stroke="#663399" stroke-linecap="round" d="M261.3474,220.8357l15.38-20.32l4.73-6.25
					c0,0-0.42-2.09-1.67-2.93c-1.26-0.84-3.93,0.09-3.93,0.09l-11.89,15.53l-7.93,10.36c0.06,0.54,0.23,1.11,0.5,1.64
					c0.14,0.26,0.3,0.51,0.48,0.74c0.19,0.24,0.39,0.46,0.62,0.65c0.23,0.19,0.48,0.35,0.75,0.48c0.28,0.13,0.56,0.23,0.88,0.28
					c0.31,0.06,0.63,0.06,0.98,0.02S260.9674,220.9957,261.3474,220.8357z"/>
				<path fill="none" stroke="#663399" stroke-linecap="round" d="M113.9774,122.0757c0-0.37-0.05-0.72-0.11-1.04
					c-0.07-0.32-0.17-0.6-0.29-0.86c-0.13-0.26-0.29-0.49-0.46-0.69c-0.18-0.2-0.37-0.36-0.58-0.5c-0.22-0.13-0.47-0.24-0.72-0.32
					c-0.26-0.07-0.52-0.11-0.81-0.12s-0.58,0.02-0.89,0.07c-0.31,0.06-0.64,0.14-0.97,0.27l-17.24,27.55l-2.91,4.64
					c0,0,0.54,1.74,1.67,2.26c0.56,0.27,1.33,0.3,1.96,0.27c0.63-0.03,1.13-0.14,1.13-0.14l5.32-8.26L113.9774,122.0757z"/>
				<path fill="none" stroke="#663399" stroke-linecap="round" d="M183.5974,124.1157c-0.09-2.12-1.3-15.13-16.36-10.37
					c-0.07,0.02-0.15,0.04-0.23,0.07"/>
				<path fill="none" stroke="#666666" stroke-linecap="round" d="M183.6074,124.4157c0,0,0-0.05-0.01-0.15"/>
				<path fill="none" stroke="#663399" stroke-linecap="round" d="M232.6174,201.5757c-0.28,0.09-0.56,0.15-0.83,0.16
					c-0.27,0.01-0.54-0.02-0.8-0.08c-0.27-0.06-0.53-0.14-0.78-0.25c-0.24-0.12-0.48-0.26-0.7-0.42c-0.44-0.33-0.81-0.73-1.09-1.18
					c-0.13-0.22-0.24-0.45-0.32-0.69c-0.08-0.24-0.13-0.48-0.15-0.72l-11.38,16.37l-6.19,8.91c0,0.07,0.01,2.05,1.09,2.78
					c1.1,0.73,3.45,0.95,3.45,0.95l12.15-17.73L232.6174,201.5757z"/>
				<path fill="none" stroke="#663399" stroke-linecap="round" d="M287.0674,238.0757l-0.07-0.05c-0.28,0.21-0.56,0.36-0.85,0.46
					c-0.29,0.1-0.58,0.15-0.87,0.15s-0.57-0.05-0.84-0.13c-0.28-0.09-0.54-0.22-0.78-0.38c-0.25-0.16-0.48-0.35-0.68-0.59
					c-0.2-0.22-0.37-0.49-0.51-0.77c-0.14-0.29-0.24-0.6-0.31-0.93c-0.07-0.33-0.09-0.69-0.07-1.06l-10.61,15.57l-6.58,9.65
					c0,0-0.18,1.8,1.15,2.7c1.33,0.89,3.15,0.74,3.15,0.74l13.58-19.27L287.0674,238.0757z"/>
				<path fill="none" stroke="#663399" stroke-linecap="round" d="M177.7974,164.8957c-0.31-0.97-0.34-4.25-4.37-2.98l-11.52,16.79
					l-5.97,8.71c0,0,0.43,2.23,1.52,2.96c1.1,0.74,3.28,0.38,3.28,0.38l10.91-16.54L177.7974,164.8957z"/>
				<path fill="none" stroke="#663399" stroke-linecap="round" d="M237.6174,156.8957c-0.01-0.03-0.02-0.07-0.03-0.11
					c-1.33-4.41-5.6-11.71-18.92-5.31c-0.01,0.01-0.02,0.02-0.03,0.02"/>
				<path fill="none" stroke="#663399" stroke-linecap="round" d="M237.6174,156.8957c-0.01-0.04-0.02-0.08-0.04-0.11
					c-0.02-0.08-0.05-0.17-0.08-0.25l-2.07,3.32l-0.55,0.89"/>
				<path fill="none" stroke="#666666" stroke-linecap="round" stroke-linejoin="round" d="M237.6174,156.9057
					c0.01-0.01,0-0.01,0-0.01"/>
				<path fill="none" stroke="#663399" stroke-linecap="round" d="M238.2074,159.9457c0,0,0-0.11-0.01-0.32
					c-0.04-0.49-0.16-1.49-0.58-2.72"/>
				<path fill="none" stroke="#663399" stroke-linecap="round" d="M44.3374,73.6157l-22.42,32.32l-0.06,0.09c0,0,1.3,2.63,4.75,3.75
					l1.34-1.9l21.74-30.69"/>
				<path fill="none" stroke="#663399" stroke-linecap="round" d="M96.2874,109.6857l-19.98,25.42l-0.1,0.13
					c-0.35,2.04,1.96,7.22,1.96,7.22l0.32-0.41l22.45-28.74"/>
				<path fill="none" stroke="#663399" stroke-linecap="round" d="M201.7274,218.3657c6-8.41,11.96-16.84,17.95-25.26l-3.96,1.03
					l-0.68-4.29l-17.17,25.16"/>
				<path fill="none" stroke="#663399" stroke-linecap="round" d="M193.1074,222.1057c0.01,0.03,0.02,0.07,0.04,0.11"/>
				<line fill="none" stroke="#663399" x1="195.9974" y1="226.7657" x2="195.9974" y2="226.7557"/>
				<path fill="none" stroke="#663399" d="M195.8374,226.5857c0.01-0.01,0.02-0.02,0.03-0.03c1.1-1.53,2.2-3.07,3.3-4.61
					c0.85-1.19,1.71-2.38,2.56-3.58"/>
				<path fill="none" stroke="#663399" d="M197.8674,215.0057l-4.37,6.41l-0.42,0.61c0.01,0.02,0.01,0.04,0.02,0.06
					c0,0,0,0.01,0.01,0.02c0.01,0.03,0.03,0.07,0.04,0.11c0.14,0.38,0.33,0.82,0.58,1.31c0.03,0.06,0.06,0.13,0.11,0.2
					c0.1,0.21,0.23,0.44,0.37,0.67c0.04,0.08,0.1,0.17,0.16,0.26c0,0.01,0.01,0.02,0.02,0.03c0.01,0.02,0.03,0.05,0.05,0.08
					c0.01,0.02,0.03,0.05,0.05,0.08c0.02,0.04,0.05,0.09,0.1,0.14c0,0.03,0.03,0.06,0.05,0.09s0.04,0.06,0.07,0.09
					c0.02,0.05,0.06,0.1,0.1,0.15c0.02,0.03,0.04,0.06,0.07,0.1c0.01,0.01,0.02,0.03,0.04,0.05c0.01,0.02,0.03,0.05,0.05,0.08
					c0.01,0.01,0.03,0.03,0.05,0.05c0.05,0.08,0.12,0.17,0.19,0.25c0.02,0.04,0.05,0.08,0.08,0.11c0.11,0.13,0.22,0.26,0.33,0.39
					c0.06,0.07,0.12,0.14,0.19,0.21c0,0.01,0.01,0.02,0.03,0.03v0.01c0.05,0.05,0.1,0.11,0.16,0.16"/>
				<path fill="none" stroke="#663399" stroke-linecap="round" d="M248.9674,212.5257l6.28-6.95c0,0,1-2.52-0.26-3.36
					c-1.25-0.84-3.5-0.53-3.5-0.53l-3.33,3.59l-0.22,0.24l-0.45,3.12"/>
				<path fill="none" stroke="#663399" stroke-linecap="round" d="M274.0374,229.3357l20.01-28.27l0.01-0.02
					c0.02-0.31,0.05-0.61,0.06-0.9c0.16-2.27,0.21-3.99,0.1-4.69v-0.01c0-0.03,0-0.05-0.01-0.08c0,0-0.22-1.34-1.15-2.86
					c-0.01-0.02-0.02-0.03-0.03-0.05l-2.71,3.8l-21.21,29.78"/>
				<path fill="none" stroke="#663399" stroke-linecap="round" d="M160.6974,153.2457l-1.48,2.12l-6.58,9.38l-3.81,5.43
					l-10.24,14.59l-0.14,0.19l-0.01,0.02c0.19,0.51,0.4,0.99,0.63,1.44"/>
				<polyline fill="none" stroke="#663399" stroke-linecap="round" points="141.4074,189.9557 144.2074,186.0257 151.0774,176.3657 
					157.1874,167.7857 157.2074,167.7957 165.2674,156.4957 				"/>
				<path fill="none" stroke="#666666" stroke-linecap="round" stroke-linejoin="round" d="M139.5074,187.2557
					c0.95,1.7,1.9,2.7,1.9,2.7"/>
				<path fill="none" stroke="#663399" stroke-linecap="round" d="M139.2774,186.8257c0.07,0.15,0.15,0.29,0.23,0.43"/>
				<path fill="none" stroke="#666666" stroke-linecap="round" stroke-linejoin="round" d="M139.0674,186.4157
					c0.06,0.14,0.13,0.28,0.21,0.41"/>
				<path fill="none" stroke="#663399" stroke-linecap="round" d="M88.0474,104.2857l3.9-2.97l13.14-10.03c0,0,1.92-2.69,0.87-4.19
					c-1.04-1.49-3.64-0.83-3.64-0.83l-19.83,14.55"/>
				<path fill="none" stroke="#663399" stroke-linecap="round" d="M152.5774,147.7857l14.97-19.97l4.54-6.05
					c0,0-0.44-1.89-1.93-2.89c-1.49-1-4.25,0.23-4.25,0.23l-11.96,15.83l-6.96,9.21l5.02-1.35l0.56,4.98L152.5774,147.7857z"/>
				<path fill="none" stroke="#663399" stroke-linecap="round" d="M206.9174,184.4357l15.05-20.02l4.67-6.21
					c0,0-0.18-1.93-1.43-2.77c-1.26-0.85-3.62-0.04-3.62-0.04l-11.93,15.64l-7.64,10.01"/>
				<path fill="none" stroke="#663399" stroke-linecap="round" d="M100.9374,113.3057l21.87-28.02l1.96-2.51c0,0-0.49-1.81-1.82-2.7
					c-1.33-0.89-2.86-0.66-2.86-0.66l-8.6,10.93l-15.2,19.34l0.06,5.14L100.9374,113.3057z"/>
				<path fill="none" stroke="#663399" stroke-linecap="round" d="M206.9174,184.4357l-0.72-4.11l-4.18,0.72l-12.5,16.39l-0.57,0.74
					c-0.5,0.92,0.13,9.98,0.13,9.98l0.49-0.66L206.9174,184.4357z"/>
				<polygon fill="none" stroke="#663399" stroke-linecap="round" points="248.9674,212.5257 247.5974,208.9257 247.4874,208.6357 
					246.5274,215.2357 246.6374,215.1157 				"/>
				<polygon fill="none" stroke="#663399" stroke-linecap="round" points="73.9174,110.9557 73.9274,115.0657 88.0374,104.2957 
					88.0474,104.2857 88.0874,103.5957 88.2974,99.9657 82.4874,100.8157 80.2874,102.4357 75.1074,106.2357 74.0774,106.9857 
					73.9174,107.1057 73.9174,110.1857 				"/>
				<path fill="none" stroke="#663399" stroke-linecap="round" d="M160.6974,153.2457l0.04,4.73l4.52-1.49l0.01,0.01l4.7-6.6
					l6.38-8.95l6.37-8.95c0.02-0.1,0.03-0.21,0.05-0.31c0.01-0.03,0.01-0.05,0.01-0.08c0.4-2.39,0.63-4.03,0.74-5.28
					c0.02-0.22,0.04-0.43,0.05-0.63c0.04-0.54,0.04-1,0.03-1.43c0-0.05-0.01-0.1,0-0.15c-0.02-0.16-0.03-0.31-0.04-0.47
					c-0.05-0.46-0.11-0.92-0.2-1.41c-0.06-0.32-0.13-0.66-0.21-1.04l-2.03,2.9l-5.6,7.98l-7.63,10.89v0.02L160.6974,153.2457z"/>
				<path fill="none" stroke="#663399" stroke-linecap="round" d="M274.0374,229.3357l-0.02-0.01l-0.77-3.99l-4.14,0.7l-22.04,30.93
					c0,0,0,0,0,0.01c0.01,0.01,0.01,0.02,0.01,0.03c0.03,0.09,0.09,0.31,0.2,0.64c0.07,0.17,0.15,0.38,0.25,0.61
					c0.03,0.09,0.08,0.19,0.13,0.3c0.26,0.6,0.64,1.32,1.14,2.09c0.2,0.3,0.42,0.61,0.67,0.93c0.11,0.16,0.24,0.31,0.38,0.47
					c0.17,0.22,0.37,0.44,0.57,0.65l0.01-0.01l3.36-4.75L274.0374,229.3357z"/>
				<path fill="none" stroke="#663399" stroke-linecap="round" d="M49.6874,77.1857l17.03-24.04l0.6-0.84c0,0,0.01-0.06,0.02-0.16
					c0.03-0.14,0.06-0.37,0.1-0.67c0.03-0.15,0.05-0.32,0.07-0.51c0.02-0.09,0.03-0.19,0.04-0.29c0.04-0.3,0.09-0.64,0.13-1
					c0.07-0.49,0.13-1.02,0.19-1.59c0.02-0.15,0.03-0.29,0.05-0.44c0.03-0.29,0.06-0.59,0.09-0.9c0.02-0.15,0.03-0.31,0.04-0.46
					c0.05-0.47,0.09-0.95,0.12-1.43c0.03-0.32,0.05-0.65,0.07-0.97c0.02-0.32,0.03-0.65,0.05-0.97c0.01-0.32,0.02-0.64,0.03-0.96
					c0.01-0.31,0.01-0.62,0.01-0.93c0-0.59-0.02-1.15-0.05-1.69c0-0.05,0-0.1-0.01-0.14c0-0.03,0-0.05,0-0.08l-0.01,0.01l-6.02,8.68
					l-17.9,25.81l0.78,4.88L49.6874,77.1857z"/>
			</g>
		</g>
	</g>
</g>
</svg>
