<?xml version="1.0" encoding="utf-8"?>
<!-- Generator: Adobe Illustrator 16.0.0, SVG Export Plug-In . SVG Version: 6.00 Build 0)  -->
<!DOCTYPE svg PUBLIC "-//W3C//DTD SVG 1.1//EN" "http://www.w3.org/Graphics/SVG/1.1/DTD/svg11.dtd">
<svg version="1.1" id="Layer_4" xmlns="http://www.w3.org/2000/svg" xmlns:xlink="http://www.w3.org/1999/xlink" x="0px" y="0px"
	 width="48.438px" height="43px" viewBox="0 0 48.438 43" enable-background="new 0 0 48.438 43" xml:space="preserve">
<g>
	<defs>
		<rect id="SVGID_1_" width="48.441" height="43.246"/>
	</defs>
	<clipPath id="SVGID_2_">
		<use xlink:href="#SVGID_1_"  overflow="visible"/>
	</clipPath>
	<g clip-path="url(#SVGID_2_)">
		<path id="a1_m_34_" d="M52.92,39.368c-0.541,0.909-1.168,1.906-1.72,2.841h13.464c-3.398-5.887-6.746-11.675-10.156-17.586
			c-3.385,5.926-6.707,11.735-10.066,17.623h3.422c2.214-3.878,4.386-7.626,6.689-11.657c1.786,3.096,3.355,5.755,5.105,8.774
			C57.268,39.363,55.186,39.368,52.92,39.368z"/>
		<path id="a1_m_30_" d="M56.186,3.878c0.541-0.909,1.168-1.906,1.72-2.841H44.441c3.398,5.887,6.746,11.675,10.156,17.586
			C57.982,12.697,61.305,6.888,64.664,1h-3.422c-2.214,3.878-4.386,7.626-6.689,11.657c-1.786-3.096-3.355-5.755-5.105-8.774
			C51.838,3.883,53.92,3.878,56.186,3.878z"/>
		<path id="a1_m_16_" d="M-7.744,17.745c-0.543,0.91-1.169,1.905-1.722,2.841H4C0.602,14.699-2.746,8.912-6.156,3
			c-3.387,5.925-6.709,11.735-10.062,17.623h3.416c2.216-3.878,4.388-7.627,6.69-11.657c1.786,3.096,3.357,5.756,5.107,8.775
			C-3.398,17.741-5.479,17.745-7.744,17.745z"/>
		<path id="a1_m_17_" d="M-7.744,25.501c-0.543-0.91-1.169-1.905-1.722-2.841H4C0.602,28.547-2.746,34.334-6.156,40.246
			c-3.387-5.925-6.709-11.735-10.062-17.623h3.416c2.216,3.878,4.388,7.627,6.69,11.657c1.786-3.096,3.357-5.756,5.107-8.775
			C-3.398,25.505-5.479,25.501-7.744,25.501z"/>
		<path id="a1_m_18_" d="M40.697,17.745c-0.543,0.91-1.169,1.905-1.722,2.841h13.466C49.043,14.699,45.695,8.912,42.285,3
			c-3.387,5.925-6.709,11.735-10.062,17.623h3.416c2.216-3.878,4.388-7.627,6.69-11.657c1.786,3.096,3.357,5.756,5.107,8.775
			C45.043,17.741,42.963,17.745,40.697,17.745z"/>
		<path id="a1_m_19_" d="M40.697,25.501c-0.543-0.91-1.169-1.905-1.722-2.841h13.466c-3.398,5.887-6.746,11.674-10.156,17.586
			c-3.387-5.925-6.709-11.735-10.062-17.623h3.416c2.216,3.878,4.388,7.627,6.69,11.657c1.786-3.096,3.357-5.756,5.107-8.775
			C45.043,25.505,42.963,25.501,40.697,25.501z"/>
		<path id="a1_m_20_" d="M7.744,3.878c0.541-0.909,1.168-1.906,1.72-2.841H-4c3.398,5.887,6.746,11.675,10.156,17.586
			C9.541,12.697,12.863,6.888,16.223,1h-3.422c-2.214,3.878-4.386,7.626-6.689,11.657C4.325,9.562,2.756,6.902,1.006,3.883
			C3.396,3.883,5.479,3.878,7.744,3.878z"/>
		<path id="a1_m_21_" d="M19.778,17.745c0.543,0.91,1.169,1.905,1.722,2.841H8.034C11.432,14.699,14.781,8.912,18.19,3
			c3.387,5.925,6.709,11.735,10.062,17.623h-3.416c-2.216-3.878-4.388-7.627-6.69-11.657c-1.786,3.096-3.357,5.756-5.107,8.775
			C15.432,17.741,17.512,17.745,19.778,17.745z"/>
		<path id="a1_m_22_" d="M28.697,3.877c-0.543-0.91-1.169-1.906-1.722-2.84H40.44c-3.398,5.886-6.747,11.673-10.157,17.586
			C26.898,12.697,23.576,6.888,20.223,1h3.416c2.214,3.877,4.387,7.626,6.688,11.656c1.788-3.095,3.357-5.755,5.108-8.775
			C33.044,3.881,30.963,3.877,28.697,3.877z"/>
		<path id="a1_m_23_" d="M4.479,39.368c-0.541,0.909-1.168,1.906-1.72,2.841h13.464c-3.398-5.887-6.746-11.675-10.156-17.586
			C2.682,30.549-0.641,36.358-4,42.246h3.422c2.214-3.878,4.386-7.626,6.689-11.657c1.786,3.096,3.355,5.755,5.105,8.774
			C8.826,39.363,6.744,39.368,4.479,39.368z"/>
		<path id="a1_m_25_" d="M19.778,25.501c0.543-0.91,1.169-1.905,1.722-2.841H8.034c3.397,5.887,6.747,11.674,10.156,17.586
			c3.387-5.925,6.709-11.735,10.062-17.623h-3.416c-2.216,3.878-4.388,7.627-6.69,11.657c-1.786-3.096-3.357-5.756-5.107-8.775
			C15.432,25.505,17.512,25.501,19.778,25.501z"/>
		<path id="a1_m_27_" d="M31.967,39.369c0.543,0.91,1.169,1.906,1.722,2.84H20.224c3.398-5.886,6.747-11.673,10.157-17.586
			c3.385,5.926,6.707,11.735,10.061,17.623h-3.416c-2.214-3.877-4.387-7.626-6.688-11.656c-1.788,3.095-3.357,5.755-5.108,8.775
			C27.62,39.365,29.701,39.369,31.967,39.369z"/>
	</g>
</g>
<g>
</g>
<g>
</g>
<g>
</g>
<g>
</g>
<g>
</g>
<g>
</g>
<g>
</g>
<g>
</g>
<g>
</g>
<g>
</g>
<g>
</g>
<g>
</g>
<g>
</g>
<g>
</g>
<g>
</g>
</svg>
