<?xml version="1.0" encoding="utf-8"?>
<!-- Generator: Adobe Illustrator 16.0.0, SVG Export Plug-In . SVG Version: 6.00 Build 0)  -->
<!DOCTYPE svg PUBLIC "-//W3C//DTD SVG 1.1//EN" "http://www.w3.org/Graphics/SVG/1.1/DTD/svg11.dtd">
<svg version="1.1" id="Layer_1" xmlns="http://www.w3.org/2000/svg" xmlns:xlink="http://www.w3.org/1999/xlink" x="0px" y="0px"
	 width="269.5px" height="160.5px" viewBox="0 0 269.5 160.5" style="enable-background:new 0 0 269.5 160.5;" xml:space="preserve"
	>
<g id="t3i_logo">
	
		<path id="bezier" style="fill:none;stroke:#AAFF00;stroke-width:3;stroke-linecap:round;stroke-linejoin:bevel;stroke-miterlimit:10;" d="
		M176.35,53.935l-23.82,34.68l-22.84,33.08c0,0-0.75,4.979-2.3,11.1c-1.54,6.04-3.85,13.181-7.25,21.921
		c-0.05,0.119-0.1,0.25-0.15,0.379L171.4,80.695c-1.9-12.2,1.25-23.99,10.83-34.35c18.039-19.49,48.459-20.68,67.959-2.64
		c19.49,18.03,20.681,48.46,2.641,67.95c0,0-20.41,27.58-57.52,14.38c-47.011-18.14-45.791-64.92-37.16-88.06l-41.581,59.32"/>
	
		<path id="bezier2" style="fill:none;stroke:#AAFF00;stroke-width:3;stroke-linecap:round;stroke-linejoin:bevel;stroke-miterlimit:10;" d="
		M93.149,106.556l23.83-34.681l22.831-33.08c0,0,0.75-4.98,2.31-11.1c1.53-6.04,3.84-13.18,7.239-21.92
		c0.051-0.12,0.101-0.25,0.15-0.37L98.1,79.805c1.9,12.19-1.25,23.98-10.83,34.341c-18.04,19.49-48.46,20.68-67.95,2.64
		c-19.5-18.03-20.69-48.46-2.65-67.95c0,0,20.41-27.58,57.52-14.38c47.02,18.14,45.79,64.931,37.16,88.069l41.58-59.319"/>
</g>
</svg>
