  <svg xmlns="http://www.w3.org/2000/svg" viewBox="0 0 960 234.375">
  <g id="intro_tripl3infLogo">
    <defs>
      <g id="infSymMasks">
        <mask id="infSymM1">
          <path d="M386.774 17.198c-11.938-7.211-23.178-5.796-23.178-5.796-1.751.021-8.021.334-15.266 3.572-7.566 3.383-17.651 10.698-22.736 26.317l-.159.576c-.985 4.314-1.43 8.62-1.354 12.902.011 1.436.472 3.3 2 4.5 1.3 1 4.7 1.5 6.2 1.1 2.028-.563 3.999-1.021 4.368-5.303-.017-3.597.734-6.066 1.65-9.994 1.547-4.636 4.442-9.702 7.011-12.522 8.817-9.685 20.676-8.541 20.819-8.536l1.962.085c.186.012 21.5 1.3 26.3 23.1 2.5 10.688.681 20.566-3.233 29.609-2.784 6.432-7.453 11.918-12.14 16.917-4.708 3.3 2.6 11.1 7.4 6.2 16.846-17.527 23.652-30.63 20.43-52.89-4.757-20.838-20.066-29.891-20.066-29.891z"/>
        </mask>
        <mask id="infSymM2">
          <path d="M364.892 116.737c10.634 8.5 20.6 19.3 25.6 32.7 3.6 9.9 5.8 20.2 3.4 32.307-1.497 5.004-4.421 10.512-7.07 13.609-9.097 10.64-21.8 9.812-21.954 9.814l-2.099-.025c-.197-.01-21.155-.082-28.402-24.178-2.932-11.312-2.424-20.385 1.454-30.175 2.76-6.963 8.055-12.929 12.895-18.427 3.913-6.057-2.894-12.864-7.008-5.709-17.361 17.188-24.497 34.988-21.073 55.3 5.8 22.1 22.4 31.3 22.4 31.3 13 7.3 24.9 5.4 24.9 5.4 1.871-.08 8.559-.623 16.188-4.326 7.968-3.864 18.497-12.014 23.407-28.869l.15-.621c9.576-39.146-31.817-74.006-61.151-92.613-2.878-1.825-7.473-1.573-8.453 2.292-1.07 4.2 4.1 6.2 6.7 8 6 4 14.6 9.9 20.1 14.272z"/>
        </mask>
      </g>
    </defs>

    <g class="logo">
      <g id="letters" fill="#000" stroke="#aaff00">
          <path d="M43.301,170.852c-7.764,0-14.379-2.563-18.628-7.219C20.186,158.581,18,150.326,18,138.406V84.572c0-0.552-0.448-1-1-1 H2.709V71.874h14.272c0.552,0,1-0.448,1-1V53.265l15.538-4.696v22.304c0,0.552,0.448,1,1,1h24.688v11.661H34.52 c-0.552,0-1,0.448-1,1v53.223c0,18.112,8.26,20.207,14.474,20.207c4.08,0,6.873-0.266,9.475-0.926l0.697,11.661 C55.414,169.598,50.315,170.852,43.301,170.852z"/>
          <path d="M78.002,168.566v-66.902C78,89.318,77.767,80.065,77.25,71.875h13.675l0.777,18.617 c0.022,0.536,0.463,0.958,0.999,0.958h0.609c0.429,0,0.81-0.273,0.947-0.679c4.306-12.717,14.739-20.934,26.58-20.934 c1.426,0,2.601,0.129,3.895,0.291v14.847c-1.554-0.214-3.174-0.214-5.117-0.214c-12.599,0-22.429,9.287-25.043,23.659 c-0.399,2.384-0.627,5.492-0.627,8.541v51.606H78.002z"/>
          <path d="M142.439,168.566V71.874h15.943v96.693H142.439z M150.005,53.157c-5.682,0-9.806-4.21-9.806-10.011 c0-5.919,4.296-10.215,10.215-10.215c5.772,0,9.961,4.296,9.961,10.215c0,0.104,0.016,0.204,0.045,0.298 C160.283,49.267,156.132,53.157,150.005,53.157z"/>
          <path d="M177.944,208.963l0.001-105.853c0-0.085-0.011-0.168-0.031-0.249c-0.005-11.804-0.362-21.436-0.771-30.988h13.917 l0.962,15.985c0.032,0.528,0.469,0.94,0.998,0.94h0.409c0.353,0,0.68-0.186,0.86-0.49c7.169-12.084,19-18.472,34.212-18.472 c11.441,0,21.836,4.786,29.269,13.477c7.586,8.87,11.764,21.478,11.764,35.502c0,35.932-22.129,52.016-44.061,52.016 c-12.808,0-23.846-5.613-29.526-15.016c-0.181-0.299-0.506-0.482-0.856-0.482h-0.409c-0.552,0-1,0.447-1,1v52.629H177.944z M193.688,129.146c-0.023,0.081-0.035,0.165-0.035,0.251c0,3.061,0.271,5.478,0.851,7.604 c3.356,13.006,14.575,21.753,27.914,21.753c19.106,0,30.975-14.994,30.975-39.131c0-22.081-12.485-37.502-30.362-37.502 c-13.287,0-24.839,9.37-28.092,22.785c-0.533,1.958-1.25,4.884-1.25,7.374V129.146z"/>
          <path d="M283.053 25.794H298.996V168.566H283.053z"/>
          <path d="M426.01,168.566V71.874h15.943v96.693H426.01z M433.575,53.157c-5.682,0-9.806-4.21-9.806-10.011 c0-5.919,4.296-10.215,10.216-10.215c5.772,0,9.961,4.296,9.961,10.215c0,0.104,0.016,0.204,0.045,0.298 C443.854,49.267,439.704,53.157,433.575,53.157z"/>
          <path d="M527.918,168.57v-55.896c0-19.448-8.465-30.158-23.836-30.158c-12.982,0-21.918,9.563-25.014,19.041 c-0.816,2.243-1.272,5.333-1.272,8.67v58.336h-15.943c0,0,0.001-70.958,0.001-70.976c0-0.075-0.008-0.148-0.024-0.219 c-0.003-10.495-0.226-18.215-0.741-25.494h13.886l0.963,15.376c0.033,0.527,0.47,0.938,0.998,0.938h0.41 c0.369,0,0.708-0.204,0.882-0.529c4.384-8.222,15.327-17.822,31.74-17.822c16.385,0,33.893,10.772,33.893,41.005v57.728 H527.918z"/>
          <path d="M625.392,168.566V84.537c0-0.552-0.447-1-1-1h-39.355c-0.553,0-1,0.448-1,1v84.029h-15.7V84.534c0-0.552-0.447-1-1-1 h-12.657V71.874h12.657c0.553,0,1-0.448,1-1v-5.505c0-26.187,15.71-41.821,42.025-41.821c8.537,0,18.768,2.561,23.831,5.904 l-4.392,11.771c-5.354-3.27-12.828-5.197-20.294-5.197c-16.901,0-25.471,10.079-25.471,29.956v4.892c0,0.552,0.447,1,1,1 h56.296v96.693H625.392z"/>
          <path d="M727.342,168.57v-55.896c0-19.448-8.467-30.158-23.84-30.158c-12.981,0-21.914,9.563-25.008,19.041 c-0.814,2.232-1.27,5.323-1.27,8.67v58.336h-15.945l0.003-70.976c0-0.076-0.009-0.151-0.025-0.224 c-0.003-10.479-0.229-18.196-0.747-25.488h13.894l0.959,15.376c0.033,0.527,0.47,0.938,0.998,0.938h0.41 c0.369,0,0.708-0.204,0.882-0.529c4.387-8.222,15.331-17.822,31.739-17.822c16.385,0,33.894,10.772,33.894,41.005v57.728 H727.342z"/>
          <path d="M762.53,168.566V71.874h15.942v96.693H762.53z M770.097,53.157c-5.685,0-9.811-4.21-9.811-10.011 c0-5.919,4.295-10.215,10.213-10.215c5.771,0,9.96,4.296,9.96,10.215c0,0.106,0.017,0.208,0.047,0.304 C780.366,49.27,776.219,53.157,770.097,53.157z"/>
          <path d="M836.25,170.852c-7.768,0-14.384-2.563-18.63-7.219c-4.489-5.05-6.675-13.305-6.675-25.227V84.572c0-0.552-0.447-1-1-1 h-14.291V71.914h14.291c0.553,0,1-0.448,1-1v-17.61l15.515-4.689v22.259c0,0.552,0.447,1,1,1h24.689v11.661H827.46 c-0.553,0-1,0.448-1,1v53.223c0,18.112,8.262,20.207,14.476,20.207c4.078,0,6.872-0.266,9.478-0.927l0.697,11.662 C848.36,169.598,843.264,170.852,836.25,170.852z"/>
          <path d="M872.275,200.183c5.259-1.816,10.715-4.933,15.106-8.644c2.779-2.201,9.89-8.63,15.35-20.328 c0.922-2.069,1.521-3.505,1.521-4.702c0-1.227-0.468-2.8-1.518-5.104l-35.729-89.53l17.391-0.001l21.172,57.667 c2.348,6.276,4.842,13.977,6.51,20.102c0.118,0.436,0.514,0.737,0.965,0.737h0.409c0.438,0,0.826-0.286,0.955-0.705 c0.617-1.994,1.258-4.174,1.931-6.46c1.295-4.402,2.763-9.393,4.376-14.104l19.349-57.238h16.791l-26.397,68.991 c-11.754,30.969-20.585,49.924-33.576,61.394c-7.671,6.449-15.53,9.866-20.662,11.006L872.275,200.183z"/>
      </g>

      <g id="infSym">
        <g id="infSymPaths">
          <path id="infSymPaths_1" style="mask: url(#infSymM1)" fill="none" stroke-width="15" stroke-miterlimit="10" d="M374 103.688c0 0 31.5-22.035 26.5-57.018 c0 0 0.538-27.482-34.655-28.982c-39.655-1-37.345 50.478-37.345 50.5"/>
          <path id="infSymPaths_2" style="mask: url(#infSymM2)" fill="none" stroke-width="16" stroke-miterlimit="10" d="M326.588 86.688c0 0 11.7 5.7 40.4 27 c31.911 23.7 35 42 35 62.5c0.036 24-21.706 36.366-37.193 36.754c0 0-22.098 1.973-34.37-20.754 c-11.605-23.852-3.799-36.889-3.887-37.194c0 0 6.7-20.245 24.412-32.306"/>
        </g>

        <g id="infSymWhole"><path d="M386.774 17.198c-11.938-7.211-23.178-5.796-23.178-5.796-1.751.021-8.021.334-15.266 3.572-7.566 3.383-17.651 10.698-22.736 26.317l-.159.576c-.985 4.314-1.43 8.62-1.354 12.902.011 1.436.472 3.3 2 4.5 1.3 1 4.7 1.5 6.2 1.1 2.028-.563 3.999-1.021 4.368-5.303-.017-3.597.734-6.066 1.65-9.994 1.547-4.636 4.442-9.702 7.011-12.522 8.817-9.685 20.676-8.541 20.819-8.536l1.962.085c.186.012 21.5 1.3 26.3 23.1 2.5 10.688.681 20.566-3.233 29.609-2.784 6.432-7.453 11.918-12.14 16.917-4.708 3.3 2.6 11.1 7.4 6.2 16.846-17.527 23.652-30.63 20.43-52.89-4.757-20.838-20.066-29.891-20.066-29.891z"/>
          <path d="M364.892 116.737c10.634 8.5 20.6 19.3 25.6 32.7 3.6 9.9 5.8 20.2 3.4 32.307-1.497 5.004-4.421 10.512-7.07 13.609-9.097 10.64-21.8 9.812-21.954 9.814l-2.099-.025c-.197-.01-21.155-.082-28.402-24.178-2.932-11.312-2.424-20.385 1.454-30.175 2.76-6.963 8.055-12.929 12.895-18.427 3.913-6.057-2.894-12.864-7.008-5.709-17.361 17.188-24.497 34.988-21.073 55.3 5.8 22.1 22.4 31.3 22.4 31.3 13 7.3 24.9 5.4 24.9 5.4 1.871-.08 8.559-.623 16.188-4.326 7.968-3.864 18.497-12.014 23.407-28.869l.15-.621c9.576-39.146-31.817-74.006-61.151-92.613-2.878-1.825-7.473-1.573-8.453 2.292-1.07 4.2 4.1 6.2 6.7 8 6 4 14.6 9.9 20.1 14.272z"/>
        </g>
      </g>

      <g id="desanddev">
          <path d="M425.911,187.332c2.333-0.352,5.105-0.615,8.142-0.615c5.5,0,9.417,1.275,12.014,3.696 c2.64,2.42,4.181,5.853,4.181,10.649c0,4.841-1.497,8.801-4.269,11.529c-2.772,2.772-7.349,4.269-13.114,4.269 c-2.729,0-5.017-0.132-6.953-0.352V187.332z M429.739,213.561c0.968,0.176,2.376,0.22,3.873,0.22 c8.186,0,12.63-4.576,12.63-12.586c0.044-6.997-3.917-11.441-12.014-11.441c-1.98,0-3.477,0.176-4.489,0.396V213.561z"/>
          <path d="M457.502,206.651c0.088,5.236,3.433,7.393,7.305,7.393c2.772,0,4.445-0.483,5.897-1.1l0.66,2.772 c-1.364,0.616-3.697,1.32-7.085,1.32c-6.557,0-10.474-4.313-10.474-10.738s3.784-11.485,9.989-11.485 c6.953,0,8.801,6.117,8.801,10.033c0,0.792-0.088,1.408-0.132,1.805H457.502z M468.856,203.879 c0.044-2.465-1.012-6.293-5.369-6.293c-3.917,0-5.633,3.608-5.941,6.293H468.856z"/>
          <path d="M476.95,212.636c1.144,0.748,3.168,1.541,5.105,1.541c2.816,0,4.137-1.408,4.137-3.169 c0-1.849-1.101-2.86-3.961-3.917c-3.829-1.363-5.633-3.476-5.633-6.028c0-3.433,2.772-6.249,7.35-6.249 c2.156,0,4.049,0.616,5.236,1.32l-0.968,2.816c-0.836-0.528-2.377-1.232-4.357-1.232c-2.288,0-3.564,1.32-3.564,2.904 c0,1.761,1.276,2.553,4.049,3.608c3.697,1.408,5.589,3.257,5.589,6.426c0,3.74-2.904,6.381-7.965,6.381 c-2.333,0-4.489-0.572-5.985-1.452L476.95,212.636z"/>
          <path d="M499.303,189.312c0.044,1.32-0.925,2.377-2.465,2.377c-1.364,0-2.332-1.057-2.332-2.377 c0-1.364,1.012-2.42,2.42-2.42C498.378,186.893,499.303,187.948,499.303,189.312z M494.99,216.597v-21.299h3.872v21.299H494.99z"/>
          <path d="M523.725,195.298c-0.088,1.54-0.177,3.256-0.177,5.853v12.366c0,4.885-0.968,7.877-3.036,9.725 c-2.068,1.937-5.061,2.553-7.745,2.553c-2.553,0-5.369-0.616-7.085-1.76l0.968-2.949c1.408,0.881,3.608,1.673,6.249,1.673 c3.961,0,6.865-2.068,6.865-7.438v-2.376h-0.088c-1.188,1.98-3.477,3.564-6.777,3.564c-5.28,0-9.065-4.488-9.065-10.386 c0-7.217,4.709-11.31,9.594-11.31c3.696,0,5.721,1.937,6.645,3.696h0.089l0.176-3.212H523.725z M519.72,203.703 c0-0.66-0.044-1.232-0.22-1.761c-0.704-2.244-2.597-4.093-5.413-4.093c-3.696,0-6.337,3.125-6.337,8.054 c0,4.181,2.112,7.657,6.293,7.657c2.376,0,4.532-1.496,5.369-3.961c0.22-0.66,0.308-1.408,0.308-2.068V203.703z"/>
          <path d="M529.794,201.062c0-2.2-0.044-4.005-0.177-5.765h3.433l0.22,3.521h0.089 c1.056-2.024,3.521-4.005,7.041-4.005c2.948,0,7.524,1.761,7.524,9.065v12.718h-3.872v-12.277c0-3.433-1.276-6.293-4.929-6.293 c-2.553,0-4.533,1.804-5.193,3.96c-0.176,0.484-0.264,1.145-0.264,1.805v12.806h-3.872V201.062z"/>
          <path d="M584.844,216.597c-0.836-0.836-1.628-1.672-2.772-2.904c-2.552,2.376-5.413,3.389-8.669,3.389 c-5.765,0-9.109-3.873-9.109-8.317c0-4.049,2.42-6.821,5.809-8.669v-0.133c-1.54-1.936-2.464-4.092-2.464-6.204 c0-3.609,2.596-7.306,7.524-7.306c3.697,0,6.558,2.465,6.558,6.293c0,3.125-1.805,5.589-6.514,7.921v0.133 c2.509,2.904,5.325,6.16,7.218,8.272c1.364-2.068,2.288-4.929,2.86-8.669h3.521c-0.792,4.665-2.068,8.361-4.269,10.958 c1.584,1.672,3.124,3.344,4.885,5.236H584.844z M580.18,211.492c-1.761-1.937-5.062-5.545-8.361-9.329 c-1.585,1.012-3.829,2.904-3.829,6.028c0,3.389,2.509,5.985,6.073,5.985C576.614,214.177,578.771,213.032,580.18,211.492z M571.158,193.405c0,2.112,0.968,3.74,2.244,5.325c2.992-1.717,4.929-3.301,4.929-5.81c0-1.804-1.013-3.828-3.433-3.828 C572.434,189.093,571.158,191.117,571.158,193.405z"/>
          <path d="M604.821,187.332c2.332-0.352,5.104-0.615,8.141-0.615c5.501,0,9.418,1.275,12.014,3.696 c2.641,2.42,4.181,5.853,4.181,10.649c0,4.841-1.496,8.801-4.269,11.529c-2.772,2.772-7.349,4.269-13.113,4.269 c-2.729,0-5.017-0.132-6.953-0.352V187.332z M608.649,213.561c0.969,0.176,2.377,0.22,3.873,0.22 c8.185,0,12.63-4.576,12.63-12.586c0.044-6.997-3.917-11.441-12.014-11.441c-1.98,0-3.477,0.176-4.489,0.396V213.561z"/>
          <path d="M636.413,206.651c0.088,5.236,3.433,7.393,7.305,7.393c2.772,0,4.444-0.483,5.896-1.1l0.66,2.772 c-1.364,0.616-3.696,1.32-7.085,1.32c-6.557,0-10.474-4.313-10.474-10.738s3.785-11.485,9.99-11.485 c6.952,0,8.801,6.117,8.801,10.033c0,0.792-0.088,1.408-0.132,1.805H636.413z M647.767,203.879 c0.044-2.465-1.013-6.293-5.369-6.293c-3.916,0-5.633,3.608-5.94,6.293H647.767z"/>
          <path d="M657.885,195.298l4.181,11.97c0.704,1.937,1.275,3.696,1.716,5.456h0.132 c0.484-1.76,1.101-3.52,1.805-5.456l4.137-11.97h4.048l-8.36,21.299h-3.697l-8.097-21.299H657.885z"/>
          <path d="M679.356,206.651c0.088,5.236,3.433,7.393,7.305,7.393c2.772,0,4.444-0.483,5.896-1.1l0.66,2.772 c-1.364,0.616-3.696,1.32-7.085,1.32c-6.557,0-10.474-4.313-10.474-10.738s3.785-11.485,9.99-11.485 c6.952,0,8.801,6.117,8.801,10.033c0,0.792-0.088,1.408-0.132,1.805H679.356z M690.71,203.879 c0.044-2.465-1.013-6.293-5.369-6.293c-3.916,0-5.633,3.608-5.94,6.293H690.71z"/>
          <path d="M699.332,185.353h3.872v31.244h-3.872V185.353z"/>
          <path d="M729.077,205.771c0,7.877-5.457,11.31-10.605,11.31c-5.765,0-10.21-4.225-10.21-10.958 c0-7.129,4.665-11.31,10.562-11.31C724.94,194.813,729.077,199.258,729.077,205.771z M712.179,205.991 c0,4.665,2.685,8.186,6.469,8.186c3.696,0,6.469-3.477,6.469-8.273c0-3.608-1.804-8.186-6.381-8.186 C714.159,197.718,712.179,201.942,712.179,205.991z"/>
          <path d="M734.047,202.251c0-2.729-0.089-4.929-0.177-6.953h3.477l0.177,3.652h0.088 c1.584-2.597,4.092-4.137,7.568-4.137c5.149,0,9.021,4.356,9.021,10.825c0,7.657-4.664,11.442-9.682,11.442 c-2.816,0-5.28-1.232-6.557-3.345h-0.088v11.573h-3.828V202.251z M737.875,207.928c0,0.571,0.088,1.1,0.176,1.584 c0.704,2.685,3.037,4.532,5.809,4.532c4.093,0,6.47-3.344,6.47-8.229c0-4.269-2.245-7.922-6.337-7.922 c-2.641,0-5.105,1.893-5.854,4.797c-0.132,0.484-0.264,1.057-0.264,1.584V207.928z"/>
          <path d="M759.17,201.062c0-2.2-0.045-4.005-0.177-5.765h3.389l0.176,3.433h0.133 c1.188-2.024,3.168-3.917,6.688-3.917c2.904,0,5.104,1.761,6.029,4.269h0.088c0.66-1.188,1.496-2.112,2.376-2.772 c1.276-0.968,2.685-1.496,4.709-1.496c2.816,0,6.997,1.849,6.997,9.241v12.542h-3.785v-12.058c0-4.093-1.496-6.557-4.62-6.557 c-2.2,0-3.917,1.628-4.577,3.521c-0.176,0.527-0.308,1.231-0.308,1.936v13.158h-3.784v-12.762c0-3.389-1.497-5.853-4.445-5.853 c-2.42,0-4.181,1.936-4.797,3.872c-0.22,0.572-0.308,1.232-0.308,1.893v12.85h-3.784V201.062z"/>
          <path d="M798.11,206.651c0.088,5.236,3.433,7.393,7.305,7.393c2.772,0,4.444-0.483,5.896-1.1l0.66,2.772 c-1.364,0.616-3.696,1.32-7.085,1.32c-6.557,0-10.474-4.313-10.474-10.738s3.785-11.485,9.99-11.485 c6.952,0,8.801,6.117,8.801,10.033c0,0.792-0.088,1.408-0.132,1.805H798.11z M809.464,203.879 c0.044-2.465-1.013-6.293-5.369-6.293c-3.916,0-5.633,3.608-5.94,6.293H809.464z"/>
          <path d="M818.086,201.062c0-2.2-0.045-4.005-0.177-5.765h3.433l0.221,3.521h0.088 c1.056-2.024,3.521-4.005,7.041-4.005c2.948,0,7.524,1.761,7.524,9.065v12.718h-3.872v-12.277c0-3.433-1.276-6.293-4.929-6.293 c-2.553,0-4.533,1.804-5.193,3.96c-0.176,0.484-0.264,1.145-0.264,1.805v12.806h-3.872V201.062z"/>
          <path d="M847.082,189.181v6.117h5.545v2.948h-5.545v11.485c0,2.641,0.748,4.137,2.904,4.137 c1.013,0,1.761-0.132,2.244-0.264l0.177,2.904c-0.748,0.308-1.937,0.528-3.433,0.528c-1.805,0-3.257-0.572-4.181-1.629 c-1.101-1.144-1.496-3.036-1.496-5.545v-11.617h-3.301v-2.948h3.301v-5.105L847.082,189.181z"/>
      </g>
    </g>
  </g>
</svg>

