<?xml version="1.0" encoding="utf-8"?>
<!-- Generator: Adobe Illustrator 16.0.0, SVG Export Plug-In . SVG Version: 6.00 Build 0)  -->
<!DOCTYPE svg PUBLIC "-//W3C//DTD SVG 1.1//EN" "http://www.w3.org/Graphics/SVG/1.1/DTD/svg11.dtd">
<svg version="1.1" xmlns="http://www.w3.org/2000/svg" xmlns:xlink="http://www.w3.org/1999/xlink" x="0px" y="0px" width="960px"
	 height="234.375px" viewBox="0 0 960 234.375" style="enable-background:new 0 0 960 234.375;" xml:space="preserve">
<g id="Layer_1" style="display:none;">
	<path id="t1_2_" style="display:inline;" d="M4.82,70.191h15.205v-18.25l17.44-5.271v23.521h25.548v13.584H37.466v52.924
		c0,12.167,3.446,19.062,13.382,19.062c4.867,0,7.704-0.405,10.34-1.215l0.813,13.587c-3.45,1.218-8.924,2.434-15.82,2.434
		c-8.312,0-15.002-2.839-19.26-7.503c-4.867-5.476-6.896-14.195-6.896-25.755V83.775H4.82"/>
	<path id="r1_2_" style="display:inline;" d="M79.711,100.811c0-11.558-0.201-21.494-0.812-30.619h15.613l0.813,19.467h0.607
		c4.461-13.18,15.413-21.493,27.374-21.493c1.826,0,3.244,0.202,4.868,0.406V85.4c-1.826-0.404-3.65-0.404-6.083-0.404
		c-12.573,0-21.493,9.327-23.927,22.71c-0.408,2.433-0.608,5.474-0.608,8.313v52.316H79.713v-67.524H79.711z"/>
	<path id="i1_2_" style="display:inline;" d="M164.125,42.777c-0.085,6.082-4.41,10.888-11.507,10.788
		c-6.487-0.09-10.674-5.017-10.589-11.098c0.085-6.086,4.617-11.09,11.309-10.997C159.823,31.562,164.214,36.49,164.125,42.777z
		 M142.492,168.204l1.378-98.134l17.842,0.251l-1.378,98.133L142.492,168.204z"/>
	<path id="fi1_2_" style="display:inline;" d="M567.333,168.335v-84.56h-13.584V70.191h13.584v-5.476
		c0-25.752,15.209-42.583,42.786-42.583c9.125,0,19.871,2.84,24.94,6.491l-5.069,13.586c-4.46-3.043-11.964-5.679-20.682-5.679
		c-18.859,0-24.334,13.18-24.334,28.795v4.866h56.979v98.144H624.11V83.778h-39.136v84.557H567.333L567.333,168.335z"/>
	<path id="n2_2_" style="display:inline;" d="M659.736,96.756c0-10.342-0.205-18.453-0.815-26.564h15.819l1.013,16.223h0.407
		c4.868-9.124,16.22-18.249,32.44-18.249c13.588,0,34.674,8.11,34.674,41.771v58.399h-17.844V111.76
		c0-15.816-5.879-28.998-22.709-28.998c-11.558,0-20.684,8.314-23.927,18.25c-0.812,2.23-1.215,5.272-1.215,8.314v59.005h-17.844
		V96.756z"/>
	<path id="i3_2_" style="display:inline;" d="M780.321,42.616c0,6.082-4.259,10.949-11.354,10.949
		c-6.489,0-10.748-4.867-10.748-10.949c0-6.086,4.463-11.154,11.152-11.154C775.858,31.462,780.321,36.328,780.321,42.616z
		 M760.45,168.335V70.191h17.843v98.144H760.45z"/>
	<path id="t2_2_" style="display:inline;" d="M826.016,46.67v23.521h25.546v13.584h-25.546v52.924
		c0,12.167,3.445,19.062,13.379,19.062c4.868,0,7.705-0.405,10.343-1.215l0.812,13.587c-3.449,1.218-8.924,2.434-15.818,2.434
		c-8.313,0-15.006-2.839-19.261-7.503c-4.87-5.476-6.896-14.195-6.896-25.755V83.775h-15.206V70.191h15.206v-18.25L826.016,46.67z"
		/>
	<path id="y1_2_" style="display:inline;" d="M883.332,70.191l21.292,57.995c2.431,6.49,4.866,14.192,6.487,20.074h0.407
		c1.821-5.882,3.853-13.383,6.282-20.479l19.469-57.591h18.856l-26.767,69.957c-12.775,33.661-21.491,50.696-33.661,61.443
		c-8.921,7.5-17.437,10.542-21.898,11.352l-4.461-14.801c4.461-1.419,10.34-4.259,15.612-8.718
		c4.868-3.854,10.747-10.747,15.007-19.872c0.813-1.825,1.42-3.244,1.42-4.259c0-1.012-0.404-2.432-1.42-4.662l-36.092-90.438
		h19.466V70.191z"/>
	<path id="p1_3_" style="display:inline;" d="M179.072,102.23c0-12.572-0.408-22.709-0.811-32.039h15.814l1.013,16.831h0.407
		c7.099-11.964,18.856-18.857,34.879-18.857c23.927,0,41.769,20.074,41.769,49.681c0,35.283-21.696,52.721-44.812,52.721
		c-12.979,0-24.333-5.676-30.214-15.412h-0.406v53.332h-17.641L179.072,102.23L179.072,102.23z M196.713,128.388
		c0,2.636,0.202,5.071,0.811,7.299c3.244,12.369,13.994,20.888,26.767,20.888c18.856,0,29.809-15.412,29.809-37.92
		c0-19.467-10.34-36.299-29.2-36.299c-12.167,0-23.725,8.519-26.971,21.899c-0.606,2.229-1.214,4.867-1.214,7.098v17.035H196.713z"
		/>
	<path id="n1_2_" style="display:inline;" d="M461.415,96.756c0-10.342-0.202-18.453-0.811-26.564h15.814l1.016,16.223h0.407
		c4.867-9.124,16.22-18.249,32.442-18.249c13.587,0,34.675,8.11,34.675,41.771v58.399h-17.845V111.76
		c0-15.816-5.878-28.998-22.709-28.998c-11.558,0-20.683,8.314-23.93,18.25c-0.811,2.23-1.215,5.272-1.215,8.314v59.005h-17.844
		V96.756L461.415,96.756z"/>
	<path id="i2_2_" style="display:inline;" d="M445.667,42.616c0,6.082-4.26,10.949-11.356,10.949
		c-6.489,0-10.747-4.867-10.747-10.949c0-6.086,4.461-11.154,11.154-11.154C441.205,31.462,445.667,36.328,445.667,42.616z
		 M425.794,168.335V70.191h17.844v98.144H425.794z"/>
	<path id="l1_3_" style="display:inline;" d="M283.628,24.366h17.844v143.969h-17.844V24.366z"/>
	<text transform="matrix(1 0 0 1 433.3706 218.1748)" style="display:inline; font-family:'Optima-Bold'; font-size:38.1173;"> Design &amp; Development</text>
	<g style="display:inline;">
		<path style="stroke:#000000;stroke-width:5;stroke-miterlimit:10;" d="M364.892,116.737c10.633,8.451,20.609,19.257,25.551,32.747
			c3.622,9.888,5.796,20.177,3.367,32.307c-1.498,5.004-4.421,10.512-7.071,13.61c-9.096,10.639-21.8,9.812-21.954,9.814
			l-2.098-0.026c-0.198-0.009-21.156-0.082-28.403-24.178c-2.931-11.312-2.424-20.384,1.454-30.174
			c2.76-6.963,8.055-12.929,12.895-18.427c3.913-6.057-2.894-12.864-7.008-5.709c-17.361,17.188-24.497,34.989-21.073,55.271
			c5.771,22.099,22.426,31.259,22.426,31.259c12.993,7.301,24.95,5.416,24.95,5.416c1.871-0.08,8.558-0.624,16.188-4.326
			c7.968-3.865,18.497-12.014,23.407-28.87c0,0,0.151-0.618,0.151-0.621c9.576-39.146-31.818-74.006-61.152-92.613
			c-2.877-1.825-7.472-1.573-8.453,2.292c-1.07,4.214,4.072,6.166,6.744,7.956C350.846,106.508,359.443,112.407,364.892,116.737z"/>
		<path style="stroke:#000000;stroke-width:5;stroke-miterlimit:10;" d="M386.774,17.198c-11.938-7.211-23.177-5.796-23.177-5.796
			c-1.751,0.021-8.021,0.334-15.266,3.572c-7.566,3.383-17.651,10.698-22.736,26.317l-0.159,0.576
			c-0.986,4.314-1.43,8.62-1.355,12.902c0.011,1.436,0.472,3.349,2.004,4.54c1.292,1.004,4.679,1.531,6.211,1.106
			c2.028-0.563,3.999-1.021,4.368-5.303c-0.017-3.597,0.734-6.066,1.65-9.994c1.547-4.636,4.443-9.702,7.011-12.522
			c8.818-9.685,20.676-8.541,20.82-8.536l1.961,0.085c0.186,0.012,21.47,1.256,26.303,23.069
			c2.484,10.688,0.681,20.566-3.233,29.609c-2.784,6.432-7.453,11.918-12.14,16.917c-4.708,3.346,2.552,11.061,7.374,6.239
			c16.846-17.527,23.653-30.63,20.43-52.89C402.083,26.251,386.774,17.198,386.774,17.198z"/>
	</g>
</g>
<g id="Layer_2">
	<path id="t1_1_" d="M4.82,70.191h15.205v-18.25l17.44-5.271v23.521h25.548v13.584H37.466v52.924
		c0,12.167,3.446,19.062,13.382,19.062c4.867,0,7.704-0.405,10.34-1.215l0.813,13.587c-3.45,1.218-8.924,2.434-15.82,2.434
		c-8.312,0-15.002-2.839-19.26-7.503c-4.867-5.476-6.896-14.195-6.896-25.755V83.775H4.82"/>
	<path id="r1_1_" d="M79.711,100.811c0-11.558-0.201-21.494-0.812-30.619h15.613l0.813,19.467h0.607
		c4.461-13.18,15.413-21.493,27.374-21.493c1.826,0,3.244,0.202,4.868,0.406V85.4c-1.826-0.404-3.65-0.404-6.083-0.404
		c-12.573,0-21.493,9.327-23.927,22.71c-0.408,2.433-0.608,5.474-0.608,8.313v52.316H79.713v-67.524H79.711z"/>
	<path id="i1_1_" d="M164.125,42.777c-0.085,6.082-4.41,10.888-11.507,10.788c-6.487-0.09-10.674-5.017-10.589-11.098
		c0.085-6.086,4.617-11.09,11.309-10.997C159.823,31.562,164.214,36.49,164.125,42.777z M142.492,168.204l1.378-98.134l17.842,0.251
		l-1.378,98.133L142.492,168.204z"/>
	<path id="fi1_1_" d="M567.333,168.335v-84.56h-13.584V70.191h13.584v-5.476c0-25.752,15.209-42.583,42.786-42.583
		c9.125,0,19.871,2.84,24.94,6.491l-5.069,13.586c-4.46-3.043-11.964-5.679-20.682-5.679c-18.859,0-24.334,13.18-24.334,28.795
		v4.866h56.979v98.144H624.11V83.778h-39.136v84.557H567.333L567.333,168.335z"/>
	<path id="n2_1_" d="M659.736,96.756c0-10.342-0.205-18.453-0.815-26.564h15.819l1.013,16.223h0.407
		c4.868-9.124,16.22-18.249,32.44-18.249c13.588,0,34.674,8.11,34.674,41.771v58.399h-17.844V111.76
		c0-15.816-5.879-28.998-22.709-28.998c-11.558,0-20.684,8.314-23.927,18.25c-0.812,2.23-1.215,5.272-1.215,8.314v59.005h-17.844
		V96.756z"/>
	<path id="i3_1_" d="M780.321,42.616c0,6.082-4.259,10.949-11.354,10.949c-6.489,0-10.748-4.867-10.748-10.949
		c0-6.086,4.463-11.154,11.152-11.154C775.858,31.462,780.321,36.328,780.321,42.616z M760.45,168.335V70.191h17.843v98.144H760.45z
		"/>
	<path id="t2_1_" d="M826.016,46.67v23.521h25.546v13.584h-25.546v52.924c0,12.167,3.445,19.062,13.379,19.062
		c4.868,0,7.705-0.405,10.343-1.215l0.812,13.587c-3.449,1.218-8.924,2.434-15.818,2.434c-8.313,0-15.006-2.839-19.261-7.503
		c-4.87-5.476-6.896-14.195-6.896-25.755V83.775h-15.206V70.191h15.206v-18.25L826.016,46.67z"/>
	<path id="y1_1_" d="M883.332,70.191l21.292,57.995c2.431,6.49,4.866,14.192,6.487,20.074h0.407
		c1.821-5.882,3.853-13.383,6.282-20.479l19.469-57.591h18.856l-26.767,69.957c-12.775,33.661-21.491,50.696-33.661,61.443
		c-8.921,7.5-17.437,10.542-21.898,11.352l-4.461-14.801c4.461-1.419,10.34-4.259,15.612-8.718
		c4.868-3.854,10.747-10.747,15.007-19.872c0.813-1.825,1.42-3.244,1.42-4.259c0-1.012-0.404-2.432-1.42-4.662l-36.092-90.438
		h19.466V70.191z"/>
	<path id="p1_1_" d="M179.072,102.23c0-12.572-0.408-22.709-0.811-32.039h15.814l1.013,16.831h0.407
		c7.099-11.964,18.856-18.857,34.879-18.857c23.927,0,41.769,20.074,41.769,49.681c0,35.283-21.696,52.721-44.812,52.721
		c-12.979,0-24.333-5.676-30.214-15.412h-0.406v53.332h-17.641L179.072,102.23L179.072,102.23z M196.713,128.388
		c0,2.636,0.202,5.071,0.811,7.299c3.244,12.369,13.994,20.888,26.767,20.888c18.856,0,29.809-15.412,29.809-37.92
		c0-19.467-10.34-36.299-29.2-36.299c-12.167,0-23.725,8.519-26.971,21.899c-0.606,2.229-1.214,4.867-1.214,7.098v17.035H196.713z"
		/>
	<path id="n1_1_" d="M461.415,96.756c0-10.342-0.202-18.453-0.811-26.564h15.814l1.016,16.223h0.407
		c4.867-9.124,16.22-18.249,32.442-18.249c13.587,0,34.675,8.11,34.675,41.771v58.399h-17.845V111.76
		c0-15.816-5.878-28.998-22.709-28.998c-11.558,0-20.683,8.314-23.93,18.25c-0.811,2.23-1.215,5.272-1.215,8.314v59.005h-17.844
		V96.756L461.415,96.756z"/>
	<path id="i2_1_" d="M445.667,42.616c0,6.082-4.26,10.949-11.356,10.949c-6.489,0-10.747-4.867-10.747-10.949
		c0-6.086,4.461-11.154,11.154-11.154C441.205,31.462,445.667,36.328,445.667,42.616z M425.794,168.335V70.191h17.844v98.144
		H425.794z"/>
	<path id="l1_1_" d="M283.628,24.366h17.844v143.969h-17.844V24.366z"/>
	<text transform="matrix(1 0 0 1 433.3706 218.1748)" style="font-family:'Optima-Bold'; font-size:38.1173;"> Design &amp; Development</text>
	<g style="display:none;">
		<path style="display:inline;fill:#666866;" d="M352.25,116.375c-3.375,3.25-8.75,8.25-10.626,10.327
			c-17.361,17.188-24.497,34.989-21.073,55.271c5.771,22.099,22.426,31.259,22.426,31.259c12.993,7.301,24.95,5.416,24.95,5.416
			c1.871-0.08,8.558-0.624,16.188-4.326c7.968-3.865,18.497-12.014,23.407-28.87c0,0,0.151-0.618,0.151-0.621
			c9.363-38.273-36.422-74.54-65.006-93.123l-0.583,7.667c0,0,2.917-0.167,4.979,1.125s13.562,10.812,18.688,15.438
			c10.083,9.1,19.751,20.057,24.692,33.547c3.622,9.888,5.796,20.177,3.367,32.307c-1.498,5.004-4.421,10.512-7.071,13.61
			c-9.096,10.639-21.8,9.812-21.954,9.814l-2.098-0.026c-0.198-0.009-21.156-0.082-28.403-24.178
			c-2.931-11.312-2.424-20.384,1.454-30.174c2.76-6.963,8.055-12.929,12.895-18.427c1.618-1.786,7.618-7.661,9.993-9.786"/>
		<path style="display:inline;fill:#666866;" d="M372.083,101.208c2.625-2.625,6.049-5.614,7.583-7.25
			c4.688-4.999,8.724-10.705,11.507-17.136c3.914-9.042,5.718-18.92,3.233-29.609c-4.833-21.813-26.117-23.058-26.303-23.069
			l-1.961-0.085c-0.145-0.004-12.002-1.149-20.82,8.536c-2.568,2.82-5.464,7.886-7.011,12.522c-1.25,3.883-1.562,6.133-1.65,9.994
			c0,0-0.038,2.889,0.962,6.639c-2.229,0.75-8.812,2.792-11.875,3.75c-1.75-5.5-1.833-10.542-1.833-10.542
			c-0.125-5.875,0.646-9.271,1.769-12.904l0.159-0.576c5.085-15.62,15.17-22.934,22.736-26.317
			c7.245-3.238,13.514-3.551,15.266-3.572c0,0,11.239-1.415,23.177,5.796c0,0,15.31,9.053,20.064,29.891
			c3.223,22.26-3.254,35.599-20.43,52.89c-5.741,5.375-6.783,5.959-8.658,7.459"/>
	</g>
	<path d="M364.199,220.367c-4.327,0-12.934-0.757-21.957-5.827c-0.691-0.38-17.276-9.723-23.142-32.188l-0.028-0.129
		c-3.436-20.355,3.595-38.865,21.497-56.588c1.051-1.165,3.257-3.297,5.27-5.22l1.033-0.987l8.634,8.2l-1.111,1.088
		c-2.145,2.101-3.927,3.902-4.651,4.702l-0.172,0.196c-4.823,5.479-9.811,11.146-12.439,17.776
		c-3.803,9.601-4.221,18.347-1.396,29.245c6.624,22.018,24.898,23.013,26.96,23.054l2.107,0.026
		c0.162,0.006,0.365,0.015,0.676,0.015c2.854,0,12.739-0.671,20.119-9.304c2.582-3.02,5.353-8.355,6.754-12.999
		c2.541-12.772-0.25-23.053-3.318-31.428c-4.104-11.205-11.933-21.528-24.639-32.489c-0.891-0.769-1.771-1.533-2.647-2.294
		c-5.423-4.71-10.546-9.159-16.927-13.52l-1.123-0.767l4.73-8.632l1.333,0.784c0.777,0.458,1.979,1.325,3.039,2.09l0.327,0.236
		c43.981,31.691,62.823,61.898,56.002,89.779l-0.003-0.001c-0.047,0.2-0.148,0.621-0.148,0.621
		c-5.081,17.451-15.968,25.866-24.209,29.864c-7.778,3.773-14.654,4.377-16.7,4.472
		C367.708,220.194,366.319,220.367,364.199,220.367z"/>
	<path d="M383.098,105.655l-8.907-7.394l1.09-1.162c1.367-1.458,5.987-7.165,7.214-8.732c3.04-3.884,5.497-7.968,7.303-12.14
		c4.296-9.926,5.326-19.305,3.149-28.673c-4.524-20.419-24.101-21.86-24.932-21.912l-1.936-0.083
		c-0.186-0.013-0.586-0.042-1.214-0.042c-3.327,0-11.784,0.788-18.432,8.09c-2.506,2.752-5.261,7.681-6.697,11.987
		c-1.145,3.556-1.484,5.613-1.573,9.553c0,0.011-0.016,2.737,0.912,6.218l0.363,1.36l-1.334,0.449
		c-1.826,0.614-6.47,2.063-9.86,3.121l-3.47,1.084l-0.453-1.423c-1.796-5.645-1.9-10.756-1.904-10.971
		c-0.124-5.816,0.58-9.309,1.835-13.372l0.146-0.533c5.276-16.21,15.728-23.78,23.57-27.287c7.387-3.302,13.855-3.671,15.783-3.702
		c0.28-0.03,1.177-0.113,2.537-0.113c4.247,0,12.689,0.796,21.511,6.125c0.636,0.376,15.909,9.619,20.751,30.841l0.022,0.119
		c2.772,19.15-1.439,32.599-15.022,47.97c-1.399,1.584-5,5.174-7.63,7.796c-0.74,0.738-1.387,1.383-1.855,1.854L383.098,105.655z"/>
</g>
</svg>
