  <svg xmlns="http://www.w3.org/2000/svg" viewBox="0 0 960 234.375"><g id="intro_tripl3infLogo"><defs><g id="infSymMasks"><mask id="infSymM1"><path d="M386.774 17.198c-11.938-7.211-23.178-5.796-23.178-5.796-1.751.021-8.021.334-15.266 3.572-7.566 3.383-17.651 10.698-22.736 26.317l-.159.576c-.985 4.314-1.43 8.62-1.354 12.902.011 1.436.472 3.3 2 4.5 1.3 1 4.7 1.5 6.2 1.1 2.028-.563 3.999-1.021 4.368-5.303-.017-3.597.734-6.066 1.65-9.994 1.547-4.636 4.442-9.702 7.011-12.522 8.817-9.685 20.676-8.541 20.819-8.536l1.962.085c.186.012 21.5 1.3 26.3 23.1 2.5 10.688.681 20.566-3.233 29.609-2.784 6.432-7.453 11.918-12.14 16.917-4.708 3.3 2.6 11.1 7.4 6.2 16.846-17.527 23.652-30.63 20.43-52.89-4.757-20.838-20.066-29.891-20.066-29.891z"/></mask><mask id="infSymM2"><path d="M364.892 116.737c10.634 8.5 20.6 19.3 25.6 32.7 3.6 9.9 5.8 20.2 3.4 32.307-1.497 5.004-4.421 10.512-7.07 13.609-9.097 10.64-21.8 9.812-21.954 9.814l-2.099-.025c-.197-.01-21.155-.082-28.402-24.178-2.932-11.312-2.424-20.385 1.454-30.175 2.76-6.963 8.055-12.929 12.895-18.427 3.913-6.057-2.894-12.864-7.008-5.709-17.361 17.188-24.497 34.988-21.073 55.3 5.8 22.1 22.4 31.3 22.4 31.3 13 7.3 24.9 5.4 24.9 5.4 1.871-.08 8.559-.623 16.188-4.326 7.968-3.864 18.497-12.014 23.407-28.869l.15-.621c9.576-39.146-31.817-74.006-61.151-92.613-2.878-1.825-7.473-1.573-8.453 2.292-1.07 4.2 4.1 6.2 6.7 8 6 4 14.6 9.9 20.1 14.272z"/></mask></g></defs><g class="logo"><g id="letters" fill="#000" stroke="#aaff00"><path d="M4.82 70.191h15.205v-18.25l17.44-5.271v23.521h25.548v13.584h-25.547v52.924c0 12.2 3.4 19.1 13.4 19.1 4.9 0 7.704-.405 10.34-1.215l.813 13.587c-3.45 1.219-8.924 2.434-15.82 2.434-8.312 0-15.002-2.838-19.26-7.502-4.867-5.477-6.896-14.195-6.896-25.756v-53.534h-15.205v-13.584z"/><path d="M79.711 100.811c0-11.558-.201-21.494-.812-30.619h15.613l.813 19.467h.607c4.461-13.18 15.413-21.493 27.374-21.493 1.8 0 3.244.202 4.868.406v16.828c-1.826-.404-3.65-.404-6.083-.404-12.573 0-21.493 9.327-23.927 22.71-.408 2.433-.608 5.474-.608 8.313v52.316h-17.843v-67.524h-.002z"/><path d="M163.667 42.616c0 6.082-4.26 10.949-11.356 10.949-6.488 0-10.746-4.867-10.746-10.949 0-6.086 4.461-11.154 11.153-11.154 6.5 0 10.9 4.9 10.9 11.154zm-19.873 125.719v-98.144h17.844v98.144h-17.844z"/><path d="M179.072 102.23c0-12.572-.408-22.709-.811-32.039h15.814l1.013 16.831h.407c7.099-11.964 18.856-18.857 34.879-18.857 23.9 0 41.8 20.1 41.8 49.7 0 35.283-21.696 52.721-44.812 52.721-12.979 0-24.333-5.676-30.214-15.412h-.406v53.332h-17.641l.002-106.257zm17.641 26.159c0 2.635.202 5.07.811 7.3 3.2 12.4 14 20.9 26.8 20.9 18.9 0 29.809-15.412 29.809-37.921 0-19.466-10.34-36.298-29.2-36.298-12.167 0-23.725 8.519-26.971 21.899-.606 2.229-1.214 4.867-1.214 7.098v17.036h-.002z"/><path d="M283.628 24.366h17.844v143.969h-17.844v-143.969z"/><path d="M445.667 42.616c0 6.082-4.26 10.949-11.356 10.949-6.488 0-10.746-4.867-10.746-10.949 0-6.086 4.461-11.154 11.153-11.154 6.5 0 10.9 4.9 10.9 11.154zm-19.873 125.719v-98.144h17.844v98.144h-17.844z"/><path d="M461.415 96.756c0-10.342-.202-18.453-.812-26.564h15.814l1.016 16.223h.407c4.867-9.124 16.22-18.249 32.442-18.249 13.6 0 34.7 8.1 34.7 41.771v58.399h-17.845v-56.576c0-15.816-5.878-28.998-22.709-28.998-11.559 0-20.684 8.314-23.931 18.25-.811 2.23-1.215 5.272-1.215 8.314v59.005h-17.844v-71.575h.002z"/><path d="M567.333 168.335v-84.56h-13.584v-13.584h13.584v-5.476c0-25.752 15.209-42.583 42.786-42.583 9.1 0 19.9 2.8 24.9 6.491l-5.068 13.586c-4.46-3.043-11.964-5.679-20.683-5.679-18.858 0-24.334 13.18-24.334 28.795v4.866h56.979v98.144h-17.842v-84.557h-39.137v84.557h-17.64z"/><path d="M659.736 96.756c0-10.342-.205-18.453-.815-26.564h15.819l1.013 16.223h.407c4.868-9.124 16.22-18.249 32.439-18.249 13.6 0 34.7 8.1 34.7 41.771v58.399h-17.844v-56.576c0-15.816-5.879-28.998-22.709-28.998-11.558 0-20.684 8.314-23.927 18.25-.812 2.23-1.215 5.272-1.215 8.314v59.005h-17.844l.001-71.575z"/><path d="M780.321 42.616c0 6.082-4.259 10.949-11.354 10.949-6.489 0-10.748-4.867-10.748-10.949 0-6.086 4.463-11.154 11.152-11.154 6.5 0 10.9 4.9 10.9 11.154zm-19.871 125.719v-98.144h17.843v98.144h-17.843z"/><path d="M826.016 46.67v23.521h25.547v13.584h-25.547v52.924c0 12.2 3.4 19.1 13.4 19.1 4.9 0 7.705-.405 10.344-1.215l.812 13.587c-3.448 1.219-8.924 2.434-15.817 2.434-8.313 0-15.006-2.838-19.262-7.502-4.869-5.477-6.896-14.195-6.896-25.756v-53.534h-15.206v-13.584h15.206v-18.25l17.44-5.271z"/><path d="M883.332 70.191l21.292 57.995c2.431 6.5 4.9 14.2 6.5 20.074h.406c1.821-5.882 3.854-13.383 6.282-20.479l19.469-57.591h18.856l-26.768 69.957c-12.774 33.662-21.49 50.696-33.66 61.443-8.922 7.5-17.438 10.542-21.898 11.352l-4.461-14.801c4.461-1.418 10.34-4.259 15.612-8.718 4.868-3.854 10.747-10.747 15.007-19.872.812-1.824 1.42-3.244 1.42-4.259 0-1.012-.404-2.433-1.42-4.662l-36.092-90.438 19.468-.001z"/></g><g id="infSym"><g id="infSymPaths"><path style="mask: url(#infSymM1)" fill="none" stroke-width="15" stroke-miterlimit="10" d="M374 103.688c0 0 31.5-22.035 26.5-57.018 c0 0 0.538-27.482-34.655-28.982c-39.655-1-37.345 50.478-37.345 50.5"/><path style="mask: url(#infSymM2)" fill="none" stroke-width="16" stroke-miterlimit="10" d="M326.588 86.688c0 0 11.7 5.7 40.4 27 c31.911 23.7 35 42 35 62.5c0.036 24-21.706 36.366-37.193 36.754c0 0-22.098 1.973-34.37-20.754 c-11.605-23.852-3.799-36.889-3.887-37.194c0 0 6.7-20.245 24.412-32.306"/></g><g id="infSymWhole"><path d="M386.774 17.198c-11.938-7.211-23.178-5.796-23.178-5.796-1.751.021-8.021.334-15.266 3.572-7.566 3.383-17.651 10.698-22.736 26.317l-.159.576c-.985 4.314-1.43 8.62-1.354 12.902.011 1.436.472 3.3 2 4.5 1.3 1 4.7 1.5 6.2 1.1 2.028-.563 3.999-1.021 4.368-5.303-.017-3.597.734-6.066 1.65-9.994 1.547-4.636 4.442-9.702 7.011-12.522 8.817-9.685 20.676-8.541 20.819-8.536l1.962.085c.186.012 21.5 1.3 26.3 23.1 2.5 10.688.681 20.566-3.233 29.609-2.784 6.432-7.453 11.918-12.14 16.917-4.708 3.3 2.6 11.1 7.4 6.2 16.846-17.527 23.652-30.63 20.43-52.89-4.757-20.838-20.066-29.891-20.066-29.891z"/><path d="M364.892 116.737c10.634 8.5 20.6 19.3 25.6 32.7 3.6 9.9 5.8 20.2 3.4 32.307-1.497 5.004-4.421 10.512-7.07 13.609-9.097 10.64-21.8 9.812-21.954 9.814l-2.099-.025c-.197-.01-21.155-.082-28.402-24.178-2.932-11.312-2.424-20.385 1.454-30.175 2.76-6.963 8.055-12.929 12.895-18.427 3.913-6.057-2.894-12.864-7.008-5.709-17.361 17.188-24.497 34.988-21.073 55.3 5.8 22.1 22.4 31.3 22.4 31.3 13 7.3 24.9 5.4 24.9 5.4 1.871-.08 8.559-.623 16.188-4.326 7.968-3.864 18.497-12.014 23.407-28.869l.15-.621c9.576-39.146-31.817-74.006-61.151-92.613-2.878-1.825-7.473-1.573-8.453 2.292-1.07 4.2 4.1 6.2 6.7 8 6 4 14.6 9.9 20.1 14.272z"/></g></g><g id="desanddev"><path d="M427.089 192.854c-0.055-1.753-0.136-3.51-0.245-5.276c0.462 0.1 1 0.1 1.5 0.1 c0.543 0 1.2 0.1 1.8 0.06c0.896 0 1.901-0.032 3.015-0.101c1.113-0.068 2.567-0.103 4.359-0.103 c2.335 0 4.5 0.2 6.4 0.631c1.914 0.4 3.6 1.1 4.9 2.14c1.385 1 2.5 2.4 3.2 4.1 c0.76 1.7 1.1 3.8 1.1 6.416c0 2.255-0.374 4.291-1.119 6.111c-0.748 1.819-1.766 3.374-3.056 4.7 c-1.291 1.29-2.784 2.274-4.481 2.952c-1.698 0.681-3.511 1.02-5.438 1.02c-2.037 0-3.775-0.014-5.215-0.041 c-1.439-0.026-2.688-0.041-3.748-0.041c-0.679 0-1.29 0-1.833 0c-0.544 0-1.046 0.027-1.508 0.1 c0.108-1.684 0.19-3.402 0.245-5.153c0.054-1.752 0.082-3.754 0.082-6.009v-5.539C427.171 196.6 427.1 194.6 427.1 192.9 z M433.2 207.375v2.444c0 0.8 0 1.5 0 2.16c0.014 0.7 0 1.1 0 1.263c0.407 0 0.9 0.1 1.5 0.1 c0.571 0 1.3 0 2.1 0.041c3.068 0 5.5-1.046 7.292-3.137c1.792-2.091 2.688-5.255 2.688-9.491 c0-1.684-0.224-3.19-0.672-4.522c-0.448-1.33-1.08-2.464-1.894-3.401c-0.815-0.937-1.792-1.655-2.934-2.158 c-1.14-0.502-2.417-0.754-3.829-0.754c-0.978 0-1.772 0.02-2.383 0.061c-0.611 0.042-1.229 0.089-1.854 0.1 c0 0.19-0.007 0.611-0.021 1.264c-0.014 0.651-0.02 1.385-0.02 2.199v2.444v2.036v7.252V207.375z"/><path d="M462.937 208.883c0.217 0.9 0.6 1.8 1 2.465c0.448 0.7 1 1.2 1.7 1.63s1.5 0.6 2.4 0.6 c1.874 0 3.544-0.611 5.01-1.833l0.489 0.366l-0.896 2.281c-0.679 0.517-1.494 0.931-2.444 1.2 c-0.951 0.312-2.201 0.469-3.749 0.469c-1.33 0-2.594-0.184-3.788-0.55c-1.195-0.368-2.248-0.973-3.158-1.813 c-0.909-0.842-1.629-1.907-2.159-3.198c-0.53-1.289-0.794-2.83-0.794-4.623c0-1.766 0.238-3.301 0.713-4.604 c0.475-1.304 1.133-2.39 1.976-3.26c0.841-0.868 1.839-1.52 2.994-1.955c1.153-0.434 2.409-0.651 3.768-0.651 c2.688 0 4.7 0.8 6.2 2.362c1.426 1.6 2.1 3.8 2.1 6.682v0.854c0 0.245-0.014 0.408-0.04 0.489h-11.691 C462.612 206.9 462.7 207.9 462.9 208.883z M468.131 199.105c-0.448-1.222-1.202-1.832-2.261-1.832 c-0.597 0-1.099 0.203-1.507 0.61c-0.407 0.407-0.733 0.931-0.977 1.568c-0.245 0.639-0.429 1.357-0.55 2.2 c-0.122 0.802-0.198 1.597-0.224 2.384h6.273C468.831 202 468.6 200.3 468.1 199.105z"/><path d="M479.049 211.795c0.258 0.4 0.6 0.7 1 1.06c0.38 0.3 0.8 0.6 1.4 0.8 c0.529 0.2 1.1 0.3 1.9 0.285c0.95 0 1.684-0.244 2.199-0.733s0.774-1.019 0.774-1.589c0-0.624-0.23-1.127-0.692-1.507 s-1.039-0.728-1.731-1.04c-0.691-0.312-1.446-0.631-2.261-0.957c-0.814-0.325-1.568-0.739-2.261-1.242 c-0.692-0.502-1.27-1.134-1.73-1.895c-0.463-0.76-0.693-1.737-0.693-2.933c0-1.141 0.21-2.125 0.631-2.954 c0.42-0.827 0.971-1.507 1.65-2.036c0.678-0.529 1.445-0.923 2.302-1.182c0.854-0.257 1.704-0.387 2.545-0.387 c1.142 0 2.2 0.2 3 0.489c0.882 0.3 1.8 0.8 2.7 1.426c-0.244 0.544-0.448 1.127-0.61 1.8 c-0.163 0.626-0.285 1.236-0.367 1.833h-1.141c-0.081-0.325-0.217-0.686-0.407-1.079s-0.447-0.767-0.773-1.12 c-0.326-0.353-0.72-0.645-1.181-0.875c-0.464-0.231-1.021-0.348-1.671-0.348c-0.815 0-1.501 0.218-2.058 0.7 s-0.835 1.006-0.835 1.711c0 0.7 0.2 1.2 0.7 1.568s1.066 0.7 1.8 1.038c0.705 0.3 1.5 0.6 2.3 0.9 c0.842 0.3 1.6 0.7 2.3 1.16c0.706 0.5 1.3 1.1 1.8 1.854c0.474 0.8 0.7 1.7 0.7 2.9 s-0.218 2.22-0.652 3.075c-0.434 0.855-1.019 1.562-1.751 2.118c-0.734 0.557-1.569 0.957-2.506 1.201s-1.922 0.368-2.953 0.4 c-1.223 0-2.322-0.178-3.3-0.53c-0.978-0.353-1.752-0.72-2.322-1.1c0.326-1.304 0.53-2.607 0.611-3.91h1.018 C478.58 211 478.8 211.4 479 211.795z"/><path d="M494.834 185.988c0.625-0.624 1.386-0.936 2.281-0.936c0.896 0 1.7 0.3 2.3 0.9 c0.624 0.6 0.9 1.4 0.9 2.281c0 0.896-0.313 1.657-0.938 2.281c-0.625 0.625-1.385 0.938-2.281 0.9 c-0.896 0-1.656-0.312-2.281-0.938c-0.625-0.624-0.937-1.385-0.937-2.281C493.897 187.4 494.2 186.6 494.8 185.988z M494.325 200.349c-0.04-1.452-0.129-2.912-0.265-4.379c0.38 0.1 0.8 0.1 1.3 0.142c0.516 0 1.1 0.1 1.7 0.1 c1.276 0 2.295-0.067 3.056-0.202c-0.137 1.467-0.225 2.927-0.266 4.379c-0.04 1.453-0.061 3.008-0.061 4.663v1.63 c0 1.7 0 3.2 0.1 4.685c0.041 1.5 0.1 2.9 0.3 4.237c-0.354-0.055-0.794-0.082-1.324-0.082s-1.107 0-1.731 0 c-0.625 0-1.195 0-1.711 0c-0.517 0-0.964 0.027-1.344 0.082c0.136-1.357 0.225-2.771 0.265-4.237 c0.041-1.466 0.061-3.027 0.061-4.685v-1.63C494.386 203.4 494.4 201.8 494.3 200.349z"/><path d="M518.787 197.517c0.68 0.5 1.2 1.1 1.6 1.854c0.394 0.7 0.6 1.6 0.6 2.667c0 1.006-0.19 1.923-0.57 2.8 c-0.381 0.828-0.917 1.54-1.609 2.139c-0.692 0.598-1.521 1.059-2.485 1.384c-0.964 0.327-2.043 0.489-3.238 0.5 c-0.299 0-0.59-0.006-0.875-0.021c-0.286-0.013-0.605-0.02-0.958-0.02c-0.326 0-0.604 0.148-0.835 0.4 c-0.23 0.299-0.346 0.638-0.346 1.018c0 0.7 0.2 1.2 0.8 1.549c0.502 0.4 1.3 0.6 2.4 0.61l3.014 0 c2.281 0 4 0.5 5 1.283c1.071 0.8 1.6 2.2 1.6 3.973c0 1.628-0.332 2.992-0.998 4.1 c-0.665 1.099-1.521 1.995-2.566 2.688c-1.045 0.691-2.206 1.188-3.482 1.486c-1.277 0.299-2.512 0.448-3.707 0.4 c-2.553 0-4.542-0.496-5.968-1.486c-1.426-0.992-2.139-2.302-2.139-3.932c0-1.304 0.359-2.356 1.08-3.158 c0.719-0.8 1.69-1.432 2.912-1.894v-0.081c-0.706-0.245-1.271-0.616-1.69-1.121c-0.421-0.501-0.632-1.133-0.632-1.894 c0-0.896 0.347-1.765 1.04-2.607c0.691-0.842 1.607-1.411 2.748-1.711v-0.081c-1.655-0.408-2.933-1.141-3.828-2.199 c-0.924-1.087-1.386-2.499-1.386-4.237c0-1.032 0.211-1.955 0.632-2.771c0.42-0.814 1.012-1.499 1.771-2.057 c0.76-0.557 1.67-0.984 2.729-1.283s2.227-0.448 3.504-0.448c0.489 0 1 0 1.5 0.062c0.516 0 1 0.1 1.5 0.1 c0.353 0 0.7 0 1.1 0.061c0.365 0 0.8 0 1.2 0.021c0.678 0 1.385-0.005 2.118-0.021 c0.733-0.013 1.467-0.02 2.2-0.02c-0.028 0.163-0.048 0.326-0.062 0.488c-0.015 0.163-0.021 0.326-0.021 0.5 c0 0.2 0 0.3 0 0.489c0.014 0.2 0 0.3 0.1 0.488l-3.585-0.161L518.787 197.517z M517.729 217.9 c-0.271-0.503-0.66-0.89-1.161-1.16c-0.503-0.272-1.121-0.456-1.854-0.551c-0.733-0.095-1.562-0.142-2.485-0.142 c-1.412 0-2.39 0.135-2.934 0.407c-0.325 0.162-0.671 0.556-1.038 1.182c-0.366 0.624-0.55 1.41-0.55 2.4 c0 0.8 0.1 1.5 0.4 2.057c0.284 0.6 0.7 1.1 1.2 1.447c0.49 0.4 1.1 0.7 1.7 0.9 c0.637 0.2 1.3 0.3 2.1 0.305c0.788 0 1.493-0.129 2.119-0.387c0.624-0.258 1.16-0.611 1.609-1.059 c0.448-0.448 0.786-0.965 1.018-1.548c0.23-0.585 0.347-1.202 0.347-1.854C518.136 219.1 518 218.4 517.7 217.946z M509.947 202.486c0 0.9 0.1 1.6 0.2 2.261c0.164 0.6 0.4 1.1 0.6 1.488c0.258 0.4 0.5 0.7 0.9 0.8 c0.312 0.2 0.6 0.2 1 0.245c0.896 0 1.562-0.393 1.997-1.182c0.434-0.787 0.651-2.118 0.651-3.993 c0-1.846-0.244-3.142-0.733-3.89c-0.489-0.746-1.1-1.12-1.833-1.12C510.871 197.1 509.9 198.9 509.9 202.486z"/><path d="M531.09 199.023c0.761-1.14 1.649-2.022 2.668-2.647c1.019-0.624 2.18-0.937 3.484-0.937c2.035 0 3.6 0.6 4.7 1.8 c1.1 1.2 1.6 3.1 1.6 5.724c0 1.385-0.027 2.606-0.081 3.665c-0.055 1.061-0.082 2.119-0.082 3.2 c0 0.9 0 1.8 0.1 2.832c0.041 1 0.1 2 0.1 2.953c-0.353-0.055-0.801-0.082-1.344-0.082s-1.113 0-1.711 0 s-1.167 0-1.711 0c-0.543 0-0.991 0.027-1.345 0.082c0.19-1.412 0.313-3.075 0.367-4.99c0.055-1.915 0.082-4.107 0.082-6.579 c0-1.711-0.292-2.967-0.876-3.769c-0.585-0.801-1.405-1.202-2.465-1.202c-1.222 0-2.118 0.531-2.689 1.6 c-0.569 1.059-0.854 2.525-0.854 4.398v1.63c0 1.7 0 3.2 0.1 4.685c0.041 1.5 0.1 2.9 0.3 4.2 c-0.354-0.055-0.794-0.082-1.324-0.082s-1.107 0-1.731 0c-0.626 0-1.195 0-1.711 0c-0.517 0-0.964 0.027-1.344 0.1 c0.135-1.357 0.224-2.771 0.265-4.237c0.041-1.466 0.061-3.027 0.061-4.685v-1.63c0-1.655-0.02-3.21-0.061-4.663 c-0.041-1.452-0.13-2.912-0.265-4.379c0.488 0.1 1 0.1 1.4 0.142c0.474 0 1 0.1 1.4 0.1 c0.488 0 0.97-0.02 1.445-0.061c0.474-0.04 0.984-0.088 1.527-0.142l-0.163 3.054H531.09z"/><path d="M571.316 215.299c-1.615 0.53-3.237 0.795-4.867 0.795c-1.277 0-2.397-0.178-3.36-0.53 c-0.965-0.353-1.773-0.836-2.424-1.445c-0.652-0.612-1.141-1.304-1.467-2.078c-0.326-0.773-0.488-1.569-0.488-2.384 c0-1.059 0.176-2.002 0.529-2.831c0.353-0.828 0.848-1.581 1.486-2.261c0.638-0.679 1.413-1.304 2.322-1.874 c0.91-0.571 1.908-1.141 2.993-1.71c-0.869-1.223-1.582-2.356-2.139-3.402s-0.834-2.139-0.834-3.278 c0-1.195 0.225-2.201 0.672-3.016s1.024-1.486 1.731-2.017c0.706-0.529 1.508-0.91 2.403-1.14c0.896-0.23 1.792-0.348 2.688-0.348 c0.951 0 1.8 0.1 2.6 0.327c0.801 0.2 1.5 0.5 2.1 0.937c0.597 0.4 1.1 0.9 1.4 1.5 c0.325 0.6 0.5 1.3 0.5 2.159c0 1.33-0.422 2.532-1.262 3.605c-0.844 1.073-2.16 2.179-3.953 3.3 c1.032 1.4 2.1 2.7 3.1 3.973c1.06 1.3 2.2 2.5 3.3 3.85c0.706-0.842 1.48-1.915 2.322-3.219 s1.684-2.852 2.526-4.644c0.379 0.4 0.8 0.8 1.1 1.242c0.367 0.4 0.7 0.8 1.1 1.1 c-0.896 1.386-1.813 2.635-2.751 3.748c-0.937 1.114-1.907 2.24-2.912 3.382c0.434 0.5 0.9 1.1 1.4 1.6 c0.517 0.6 1 1.1 1.6 1.731c0.53 0.6 1.1 1.1 1.6 1.689c0.529 0.5 1 1 1.5 1.4 c-1.005-0.027-1.901-0.047-2.688-0.062c-0.788-0.014-1.562-0.021-2.323-0.021c-0.542 0-1.093 0.007-1.649 0 c-0.557 0.015-1.119 0.034-1.69 0.062l-1.955-2.566C574.353 214 572.9 214.8 571.3 215.299z M564.556 209.5 c0.256 0.7 0.6 1.3 1.2 1.812c0.516 0.5 1.1 1 1.9 1.324c0.733 0.3 1.6 0.5 2.5 0.5 c0.815 0 1.61-0.143 2.383-0.428c0.774-0.285 1.433-0.672 1.977-1.161c-1.223-1.493-2.438-2.98-3.646-4.461 c-1.209-1.479-2.396-2.994-3.564-4.542c-0.95 0.707-1.698 1.446-2.24 2.221c-0.543 0.773-0.815 1.677-0.815 2.7 C564.167 208.2 564.3 208.8 564.6 209.514z M569.077 195.297c0.501 1 1.1 2 1.8 2.9 c0.327-0.245 0.679-0.557 1.06-0.937c0.38-0.381 0.733-0.815 1.059-1.304c0.326-0.488 0.597-1.02 0.815-1.589 c0.217-0.57 0.326-1.168 0.326-1.793c0-0.896-0.3-1.615-0.897-2.159c-0.598-0.543-1.263-0.814-1.995-0.814 c-0.788 0-1.467 0.251-2.038 0.754c-0.569 0.503-0.854 1.229-0.854 2.179C568.323 193.4 568.6 194.3 569.1 195.297z"/><path d="M601.4 192.854c-0.054-1.753-0.136-3.51-0.244-5.276c0.462 0.1 1 0.1 1.5 0.1 c0.542 0 1.2 0.1 1.8 0.06c0.897 0 1.901-0.032 3.015-0.101s2.567-0.103 4.358-0.103c2.336 0 4.5 0.2 6.4 0.6 c1.914 0.4 3.6 1.1 4.9 2.14c1.386 1 2.5 2.4 3.2 4.053c0.76 1.7 1.1 3.8 1.1 6.4 c0 2.255-0.374 4.291-1.12 6.111c-0.747 1.819-1.765 3.374-3.055 4.664c-1.291 1.29-2.785 2.274-4.481 3 c-1.698 0.681-3.511 1.02-5.438 1.02c-2.037 0-3.775-0.014-5.214-0.041c-1.44-0.026-2.688-0.041-3.749-0.041 c-0.679 0-1.29 0-1.832 0c-0.545 0-1.046 0.027-1.508 0.082c0.108-1.684 0.19-3.402 0.244-5.153 c0.055-1.752 0.082-3.754 0.082-6.009v-5.539C601.482 196.6 601.5 194.6 601.4 192.854z M607.511 207.375v2.444 c0 0.8 0 1.5 0 2.16c0.013 0.7 0 1.1 0 1.263c0.407 0 0.9 0.1 1.5 0.1 c0.571 0 1.3 0 2.1 0.041c3.068 0 5.499-1.046 7.292-3.137c1.792-2.091 2.688-5.255 2.688-9.491 c0-1.684-0.224-3.19-0.672-4.522c-0.449-1.33-1.079-2.464-1.895-3.401c-0.814-0.937-1.792-1.655-2.933-2.158 c-1.141-0.502-2.417-0.754-3.83-0.754c-0.978 0-1.771 0.02-2.382 0.061c-0.612 0.042-1.229 0.089-1.854 0.1 c0 0.19-0.007 0.611-0.02 1.264c-0.015 0.651-0.021 1.385-0.021 2.199v2.444v2.036v7.252V207.375z"/><path d="M637.249 208.883c0.218 0.9 0.6 1.8 1 2.465c0.448 0.7 1 1.2 1.7 1.6 c0.692 0.4 1.5 0.6 2.4 0.59c1.874 0 3.544-0.611 5.011-1.833l0.488 0.366l-0.896 2.3 c-0.678 0.517-1.493 0.931-2.444 1.243c-0.95 0.312-2.199 0.469-3.747 0.469c-1.331 0-2.594-0.184-3.788-0.55 c-1.195-0.368-2.248-0.973-3.158-1.813c-0.909-0.842-1.628-1.907-2.158-3.198c-0.529-1.289-0.794-2.83-0.794-4.623 c0-1.766 0.237-3.301 0.713-4.604c0.476-1.304 1.133-2.39 1.975-3.26c0.842-0.868 1.84-1.52 2.995-1.955 c1.153-0.434 2.41-0.651 3.768-0.651c2.688 0 4.7 0.8 6.2 2.362c1.426 1.6 2.1 3.8 2.1 6.682v0.854 c0 0.245-0.015 0.408-0.04 0.489h-11.692C636.923 206.9 637 207.9 637.2 208.883z M642.442 199.1 c-0.446-1.222-1.201-1.832-2.261-1.832c-0.598 0-1.1 0.203-1.507 0.61c-0.406 0.407-0.732 0.931-0.978 1.6 c-0.244 0.639-0.428 1.357-0.551 2.158c-0.121 0.802-0.196 1.597-0.224 2.384h6.273 C643.142 202 642.9 200.3 642.4 199.105z"/><path d="M663.911 203.098c0.801-2.362 1.596-4.739 2.383-7.128c0.299 0.1 0.6 0.1 0.9 0.1 c0.271 0 0.5 0.1 0.8 0.061c0.271 0 0.542-0.02 0.814-0.061c0.271-0.04 0.57-0.088 0.896-0.142 c-0.436 1.059-0.965 2.288-1.589 3.687c-0.626 1.398-1.284 2.933-1.976 4.603c-0.692 1.67-1.399 3.463-2.118 5.4 c-0.721 1.914-1.393 3.89-2.017 5.927c-0.382-0.055-0.747-0.082-1.101-0.082s-0.719 0-1.1 0s-0.747 0-1.101 0 c-0.353 0-0.719 0.027-1.099 0.082c-0.545-1.549-1.148-3.259-1.814-5.133c-0.665-1.874-1.322-3.714-1.975-5.52 c-0.652-1.807-1.263-3.497-1.834-5.072c-0.569-1.574-1.045-2.865-1.426-3.869c0.571 0.1 1.1 0.1 1.6 0.1 c0.529 0 1.1 0.1 1.6 0.061c0.516 0 1.024-0.02 1.528-0.061c0.502-0.04 1.011-0.088 1.527-0.142 c0.734 2.4 1.5 4.8 2.2 7.128c0.746 2.4 1.5 4.7 2.3 7.129h0.082C662.274 207.8 663.1 205.5 663.9 203.098z"/><path d="M677.497 208.883c0.218 0.9 0.6 1.8 1 2.465c0.448 0.7 1 1.2 1.7 1.6 c0.691 0.4 1.5 0.6 2.4 0.59c1.873 0 3.543-0.611 5.01-1.833l0.489 0.366l-0.896 2.3 c-0.679 0.517-1.494 0.931-2.444 1.243c-0.951 0.312-2.198 0.469-3.747 0.469c-1.332 0-2.595-0.184-3.789-0.55 c-1.195-0.368-2.248-0.973-3.157-1.813c-0.91-0.842-1.63-1.907-2.159-3.198c-0.528-1.289-0.794-2.83-0.794-4.623 c0-1.766 0.237-3.301 0.713-4.604c0.475-1.304 1.134-2.39 1.976-3.26c0.841-0.868 1.839-1.52 2.994-1.955 c1.154-0.434 2.409-0.651 3.769-0.651c2.688 0 4.7 0.8 6.2 2.362c1.426 1.6 2.1 3.8 2.1 6.682v0.854 c0 0.245-0.014 0.408-0.041 0.489h-11.691C677.171 206.9 677.3 207.9 677.5 208.883z M682.691 199.1 c-0.448-1.222-1.202-1.832-2.261-1.832c-0.599 0-1.1 0.203-1.508 0.61c-0.407 0.407-0.732 0.931-0.978 1.6 c-0.244 0.639-0.428 1.357-0.55 2.158c-0.122 0.802-0.196 1.597-0.225 2.384h6.274C683.391 202 683.1 200.3 682.7 199.1 z"/><path d="M693.018 191.609c-0.055-2.226-0.137-4.479-0.244-6.762c0.352 0.1 0.8 0.1 1.3 0.1 c0.543 0 1.1 0.1 1.7 0.062c0.597 0 1.167-0.021 1.71-0.062c0.544-0.042 0.992-0.088 1.346-0.144 c-0.109 2.282-0.191 4.536-0.245 6.762c-0.056 2.228-0.081 4.673-0.081 7.334v2.647c0 2.7 0 5.1 0.1 7.3 c0.054 2.2 0.1 4.4 0.2 6.64c-0.354-0.055-0.802-0.082-1.346-0.082c-0.543 0-1.113 0-1.71 0c-0.598 0-1.168 0-1.711 0 c-0.544 0-0.993 0.027-1.345 0.082c0.107-2.2 0.189-4.412 0.244-6.64c0.054-2.227 0.082-4.671 0.082-7.333v-2.647 C693.1 196.3 693.1 193.8 693 191.609z"/><path d="M703.671 201.55c0.557-1.357 1.296-2.49 2.22-3.4s1.989-1.589 3.198-2.038c1.207-0.448 2.451-0.672 3.727-0.672 c3.178 0 5.6 0.9 7.4 2.689c1.737 1.8 2.6 4.2 2.6 7.291c0 1.657-0.245 3.151-0.733 4.5 c-0.489 1.332-1.175 2.465-2.058 3.401c-0.883 0.938-1.935 1.638-3.156 2.099c-1.223 0.461-2.567 0.693-4.034 0.7 c-1.222 0-2.424-0.164-3.605-0.49c-1.181-0.325-2.247-0.876-3.196-1.649c-0.952-0.773-1.719-1.785-2.303-3.035 c-0.584-1.249-0.876-2.783-0.876-4.603S703.113 202.9 703.7 201.55z M715.871 199.248c-0.598-1.316-1.589-1.975-2.974-1.975 c-1.249 0-2.233 0.732-2.953 2.198c-0.72 1.467-1.079 3.762-1.079 6.886c0 1.1 0.1 2.2 0.2 3.2 c0.135 1 0.4 1.8 0.7 2.547c0.312 0.7 0.7 1.3 1.2 1.691c0.502 0.4 1.1 0.6 1.9 0.6 c2.607 0 3.911-3.19 3.911-9.572C716.768 202.4 716.5 200.6 715.9 199.248z"/><path d="M726.544 202.731c-0.055-2.227-0.136-4.481-0.244-6.762c0.461 0.1 0.9 0.1 1.4 0.1 c0.489 0 1 0.1 1.4 0.061c0.461 0 0.93-0.02 1.406-0.061c0.474-0.04 0.941-0.088 1.403-0.142 c-0.054 0.462-0.115 1.011-0.182 1.649c-0.068 0.639-0.103 1.256-0.103 1.853h0.082c0.38-1.14 1.072-2.098 2.076-2.871 c1.006-0.774 2.242-1.161 3.708-1.161c1.032 0 2 0.2 3 0.57c0.951 0.4 1.8 1 2.5 1.8 c0.733 0.8 1.3 1.9 1.8 3.137c0.435 1.3 0.7 2.8 0.7 4.563c0 1.928-0.231 3.57-0.691 4.9 c-0.462 1.357-1.066 2.465-1.813 3.319c-0.747 0.856-1.603 1.461-2.566 1.813s-1.949 0.53-2.953 0.5 c-1.222 0-2.281-0.232-3.178-0.693s-1.589-1.182-2.078-2.158h-0.081v3.3c0 0.9 0 1.9 0 2.911s0.034 1.9 0.1 2.8 c0.027 0.9 0.1 1.7 0.1 2.403c0.041 0.7 0.1 1.2 0.1 1.589c-0.353-0.055-0.801-0.102-1.343-0.143 c-0.544-0.04-1.114-0.062-1.711-0.062c-0.599 0-1.169 0.021-1.712 0.062c-0.543 0.041-0.991 0.088-1.344 0.1 c0.054-1.141 0.102-2.269 0.143-3.382s0.074-2.24 0.102-3.381c0.027-1.142 0.047-2.295 0.062-3.462 c0.013-1.168 0.021-2.417 0.021-3.748v-2.24C726.626 207.4 726.6 205 726.5 202.731z M738.42 199.8 c-0.668-1.208-1.543-1.813-2.629-1.813c-0.516 0-1.005 0.149-1.467 0.448s-0.875 0.774-1.242 1.4 c-0.366 0.652-0.658 1.508-0.875 2.567c-0.218 1.059-0.326 2.349-0.326 3.87c0 2.5 0.3 4.3 1 5.5 c0.639 1.2 1.6 1.8 2.8 1.772c1.166 0 2.09-0.638 2.769-1.914c0.68-1.277 1.019-3.272 1.019-5.989 C739.416 202.9 739.1 201 738.4 199.778z"/><path d="M754.611 199.023c0.76-1.14 1.65-2.022 2.669-2.647c1.019-0.624 2.18-0.937 3.482-0.937c1.223 0 2.3 0.3 3.2 1 c0.883 0.7 1.6 1.6 2.1 2.871c0.814-1.248 1.766-2.205 2.852-2.871c1.085-0.667 2.24-0.999 3.462-0.999 c2.037 0 3.6 0.6 4.7 1.772c1.101 1.2 1.6 3.1 1.6 5.724c0 1.385-0.027 2.606-0.081 3.7 c-0.056 1.061-0.083 2.119-0.083 3.178c0 0.9 0 1.8 0.1 2.832c0.04 1 0.1 2 0.1 3 c-0.353-0.055-0.802-0.082-1.343-0.082c-0.544 0-1.114 0-1.712 0s-1.168 0-1.711 0s-0.991 0.027-1.344 0.1 c0.188-1.412 0.312-3.075 0.366-4.99c0.054-1.915 0.082-4.107 0.082-6.579c0-1.711-0.286-2.967-0.856-3.769 c-0.569-0.801-1.37-1.202-2.402-1.202c-0.653 0-1.189 0.151-1.61 0.448c-0.421 0.301-0.753 0.687-0.997 1.2 s-0.408 0.984-0.489 1.527c-0.081 0.544-0.123 1.06-0.123 1.548v2.933c0 1.7 0 3.2 0.1 4.7 c0.04 1.5 0.1 2.9 0.3 4.237c-0.353-0.055-0.795-0.082-1.325-0.082c-0.528 0-1.106 0-1.73 0c-0.625 0-1.195 0-1.711 0 c-0.517 0-0.965 0.027-1.345 0.082c0.136-1.357 0.225-2.771 0.265-4.237c0.04-1.466 0.062-3.027 0.062-4.685v-2.484 c0-1.63-0.203-2.892-0.611-3.788c-0.407-0.897-1.181-1.346-2.321-1.346c-1.222 0-2.119 0.531-2.688 1.6 c-0.57 1.059-0.856 2.525-0.856 4.398v1.63c0 1.7 0 3.2 0.1 4.685c0.04 1.5 0.1 2.9 0.3 4.2 c-0.353-0.055-0.795-0.082-1.324-0.082s-1.106 0-1.731 0c-0.624 0-1.194 0-1.71 0c-0.517 0-0.965 0.027-1.345 0.1 c0.136-1.357 0.224-2.771 0.265-4.237c0.04-1.466 0.062-3.027 0.062-4.685v-1.63c0-1.655-0.021-3.21-0.062-4.663 c-0.041-1.452-0.129-2.912-0.265-4.379c0.489 0.1 1 0.1 1.4 0.142c0.476 0 1 0.1 1.4 0.1 c0.489 0 0.972-0.02 1.447-0.061c0.475-0.04 0.983-0.088 1.527-0.142l-0.163 3.054H754.611z"/><path d="M788.423 208.883c0.217 0.9 0.6 1.8 1 2.465c0.449 0.7 1 1.2 1.7 1.63s1.5 0.6 2.4 0.6 c1.873 0 3.543-0.611 5.011-1.833l0.488 0.366l-0.896 2.281c-0.68 0.517-1.494 0.931-2.444 1.2 c-0.951 0.312-2.2 0.469-3.747 0.469c-1.331 0-2.595-0.184-3.789-0.55c-1.195-0.368-2.248-0.973-3.157-1.813 c-0.91-0.842-1.63-1.907-2.158-3.198c-0.53-1.289-0.796-2.83-0.796-4.623c0-1.766 0.238-3.301 0.714-4.604 c0.475-1.304 1.133-2.39 1.976-3.26c0.842-0.868 1.84-1.52 2.993-1.955c1.154-0.434 2.411-0.651 3.769-0.651 c2.688 0 4.7 0.8 6.2 2.362c1.426 1.6 2.1 3.8 2.1 6.682v0.854c0 0.245-0.015 0.408-0.04 0.489h-11.691 C788.098 206.9 788.2 207.9 788.4 208.883z M793.617 199.105c-0.448-1.222-1.201-1.832-2.262-1.832 c-0.598 0-1.1 0.203-1.507 0.61s-0.732 0.931-0.978 1.568c-0.245 0.639-0.428 1.357-0.55 2.2 c-0.123 0.802-0.198 1.597-0.224 2.384h6.272C794.315 202 794.1 200.3 793.6 199.105z"/><path d="M809.035 199.023c0.76-1.14 1.65-2.022 2.669-2.647c1.019-0.624 2.18-0.937 3.482-0.937c2.037 0 3.6 0.6 4.7 1.8 c1.1 1.2 1.6 3.1 1.6 5.724c0 1.385-0.027 2.606-0.081 3.665c-0.055 1.061-0.082 2.119-0.082 3.2 c0 0.9 0 1.8 0.1 2.832s0.087 2 0.1 2.953c-0.354-0.055-0.802-0.082-1.345-0.082s-1.114 0-1.711 0 c-0.598 0-1.167 0-1.711 0s-0.992 0.027-1.345 0.082c0.189-1.412 0.312-3.075 0.367-4.99c0.054-1.915 0.081-4.107 0.081-6.579 c0-1.711-0.293-2.967-0.875-3.769c-0.584-0.801-1.406-1.202-2.466-1.202c-1.222 0-2.118 0.531-2.688 1.6 c-0.57 1.059-0.856 2.525-0.856 4.398v1.63c0 1.7 0 3.2 0.1 4.685c0.04 1.5 0.1 2.9 0.3 4.2 c-0.353-0.055-0.795-0.082-1.323-0.082c-0.53 0-1.106 0-1.731 0s-1.195 0-1.711 0c-0.517 0-0.964 0.027-1.345 0.1 c0.136-1.357 0.225-2.771 0.265-4.237c0.041-1.466 0.062-3.027 0.062-4.685v-1.63c0-1.655-0.021-3.21-0.062-4.663 c-0.04-1.452-0.129-2.912-0.265-4.379c0.488 0.1 1 0.1 1.4 0.142c0.475 0 1 0.1 1.4 0.1 c0.489 0 0.972-0.02 1.446-0.061c0.476-0.04 0.984-0.088 1.528-0.142l-0.163 3.054H809.035z"/><path d="M836.492 197.273c0 0.4 0 0.7 0.1 1.018l-3.585-0.081c-0.055 0.624-0.102 1.345-0.143 2.2 s-0.068 1.643-0.081 2.484c-0.014 0.843-0.027 1.656-0.041 2.444c-0.015 0.787-0.02 1.453-0.02 2 c0 1.4 0 2.6 0.1 3.422s0.184 1.5 0.3 1.996s0.394 0.8 0.7 0.938c0.298 0.2 0.7 0.2 1.1 0.2 c0.516 0 0.896-0.034 1.141-0.103c0.244-0.067 0.489-0.169 0.733-0.305v1.67c-0.543 0.244-1.222 0.461-2.037 0.7 c-0.814 0.189-1.616 0.286-2.402 0.286c-3.45 0-5.175-2.063-5.175-6.193c0-0.787 0.014-1.677 0.041-2.668s0.061-2.009 0.102-3.055 c0.042-1.045 0.075-2.078 0.103-3.096c0.026-1.019 0.04-1.962 0.04-2.832l-2.852 0.041c0.082-0.326 0.123-0.665 0.123-1.018 c0-0.326-0.041-0.693-0.123-1.102l2.852 0.123c0-0.842-0.014-1.63-0.04-2.362c-0.027-0.734-0.068-1.615-0.123-2.648 c0.951-0.38 1.889-0.78 2.811-1.202c0.924-0.42 1.847-0.86 2.771-1.324l0.408 0.286c-0.055 0.435-0.103 0.943-0.143 1.5 c-0.041 0.584-0.081 1.194-0.123 1.832c-0.041 0.639-0.068 1.291-0.081 1.955c-0.014 0.666-0.021 1.298-0.021 1.895l3.585-0.082 C836.533 196.6 836.5 196.9 836.5 197.273z"/></g></g></g></svg>


