<?xml version="1.0" encoding="UTF-8"?>
<!DOCTYPE svg PUBLIC "-//W3C//DTD SVG 1.1//EN" "http://www.w3.org/Graphics/SVG/1.1/DTD/svg11.dtd">
<svg version="1.1" xmlns="http://www.w3.org/2000/svg" xmlns:xlink="http://www.w3.org/1999/xlink" width="1000" height="60"  xml:space="preserve">
    <defs>
        <filter id="shadow2-outer" filterUnits="userSpaceOnUse">
            <feGaussianBlur stdDeviation="3" />
            <feOffset dx="0.1" dy="-0.1" result="blur" />
            <feFlood flood-color="#fff" flood-opacity="1" />
            <feComposite in2="blur" operator="in" result="colorShadow" />
            <feComposite in="SourceGraphic" in2="colorShadow" operator="over" />
        </filter>
    </defs>
    <g id="group">
        <path id="bezier37" d="M 1007,51 L -6,51 -6,49 707,49 712,43 915,43 922,37 1007,37 1007,51 Z M 1007,51" />
        <path id="bezier" stroke="rgb(85, 85, 85)" stroke-width="1" stroke-miterlimit="10" fill="none" filter="url(#shadow2-outer)" d="M -4,48 L 705.95,48 710.95,43 913.95,43 920.95,37 1005.95,37" />
    </g>
    <g id="group2">
        <path id="bezier2" d="M -6,23 L 1007,23 1007,21 294,21 289,15 86,15 79,9 -6,9 -6,23 Z M -6,23" />
        <path id="bezier3" stroke="rgb(85, 85, 85)" stroke-width="1" stroke-miterlimit="10" fill="none" filter="url(#shadow2-outer)" d="M 1005,20 L 295.05,20 290.05,15 87.05,15 80.05,9 -4.95,9" />
    </g>
</svg>
