<svg xmlns="http://www.w3.org/2000/svg" xmlns:xlink="http://www.w3.org/1999/xlink" width="600" height="600" viewBox="0 0 600 600"><svg width="600" height="600" viewBox="0 0 600 600" id="github" y="0"><path d="M299.438 10.576c-159.59 0-288.986 129.386-288.986 288.986 0 159.592 129.395 288.986 288.986 288.986 159.592 0 288.986-129.395 288.986-288.986 0-159.6-129.395-288.986-288.986-288.986zm171.62 460.608c-22.31 22.295-48.257 39.81-77.167 52.033-7.337 3.104-14.798 5.82-22.347 8.184v-43.318c0-22.753-7.813-39.51-23.424-50.233 9.77-.954 18.767-2.26 26.95-3.952 8.185-1.693 16.828-4.128 25.964-7.338 9.12-3.21 17.304-7.02 24.553-11.43 7.23-4.41 14.198-10.16 20.884-17.215 6.67-7.056 12.277-15.063 16.792-23.988 4.516-8.925 8.08-19.648 10.725-32.172 2.63-12.523 3.95-26.28 3.95-41.345 0-29.165-9.507-54-28.503-74.504 8.643-22.577 7.71-47.13-2.822-73.657l-7.055-.848c-4.904-.564-13.688 1.508-26.387 6.208-12.7 4.7-26.95 12.417-42.756 23.142-22.4-6.21-45.63-9.313-69.707-9.313-24.27 0-47.41 3.103-69.424 9.312-9.983-6.773-19.438-12.374-28.362-16.792-8.942-4.418-16.085-7.435-21.447-9.03-5.362-1.597-10.354-2.585-14.958-2.964-4.62-.38-7.584-.468-8.89-.282-1.323.185-2.258.38-2.822.564-10.547 26.713-11.482 51.266-2.822 73.657-19.013 20.505-28.503 45.34-28.503 74.504 0 15.062 1.305 28.82 3.95 41.344 2.63 12.523 6.21 23.247 10.725 32.172 4.515 8.925 10.107 16.933 16.792 23.988 6.667 7.055 13.635 12.805 20.884 17.215 7.232 4.41 15.416 8.22 24.553 11.43 9.12 3.21 17.78 5.644 25.964 7.337 8.185 1.693 17.162 2.998 26.952 3.95-15.434 10.548-23.142 27.27-23.142 50.234v44.168c-8.52-2.54-16.933-5.54-25.17-9.03-28.91-12.225-54.873-29.74-77.167-52.034-22.295-22.312-39.81-48.258-52.033-77.168-12.63-29.896-19.05-61.664-19.05-94.453 0-32.79 6.42-64.565 19.05-94.453 12.223-28.9 29.738-54.855 52.033-77.167 22.294-22.304 48.258-39.81 77.167-52.033 29.897-12.638 61.664-19.05 94.453-19.05 32.79 0 64.557 6.413 94.453 19.05 28.91 12.223 54.855 29.73 77.168 52.033 22.295 22.304 39.81 48.267 52.033 77.167 12.63 29.888 19.05 61.664 19.05 94.453 0 32.79-6.42 64.557-19.05 94.453-12.222 28.91-29.736 54.855-52.03 77.168z"/></svg>
</svg>