<svg xmlns="http://www.w3.org/2000/svg" id="hud2" width="344.9488px" height="344.9463px" x="0px" y="0px" version="1.1" viewBox="0 0 344.9488 344.9463" enable-background="new 0 0 344.9488 344.9463" xml:space="preserve">
    <g class="wrap">
        <g class="rings">
            <g class="center">
                <g>
                    <path fill="#1B1F77" d="M173.2244,72.4785c55.1374,0,99.9949,44.8575,99.9949,99.9949 c0,55.1374-44.8575,99.9949-99.9949,99.9949s-99.9949-44.8575-99.9949-99.9949 C73.2295,117.336,118.087,72.4785,173.2244,72.4785 M173.2244,70.4785c-56.3302,0-101.9949,45.6647-101.9949,101.9949 s45.6647,101.9949,101.9949,101.9949s101.9949-45.6647,101.9949-101.9949S229.5547,70.4785,173.2244,70.4785L173.2244,70.4785z"/>
                </g>
            </g>
            <g class="ring1" fill="none" stroke="#9933FF" stroke-miterlimit="10" opacity="0.9">
                <path d="M116.1972,265.7833c-6.718-4.0668-12.9628-8.839-18.6332-14.212 l-8.4863,8.4863c6.4126,6.1088,13.495,11.5189,21.1208,16.1157L116.1972,265.7833z"/>
                <path d="M268.3039,120.5792c3.7136,6.8303,6.7146,14.1012,8.9106,21.7098 l11.5959-3.1071c-2.4738-8.6321-5.8853-16.8715-10.1156-24.602L268.3039,120.5792z"/>
                <path d="M54.8985,144.142c-2.07,8.5146-3.2368,16.7332-3.3925,26.7332 h11.9999c0.1526-9,1.1788-15.9796,2.9869-23.5015L54.8985,144.142z"/>
                <path d="M76.7667,120.3607l-10.3907-5.999 c-4.2655,7.7568-7.7062,16.0276-10.2007,24.6961l11.596,3.1071C69.9878,134.5199,73.0182,127.2176,76.7667,120.3607z"/>
                <path d="M142.1872,277.1823c-7.5893-2.1987-14.8419-5.1976-21.6555-8.9066 l-5.9991,10.3907c7.7138,4.2257,15.9348,7.6353,24.5475,10.1119L142.1872,277.1823z"/>
                <path d="M66.6774,198.9523c-1.8606-7.5027-2.9482-15.077-3.1589-23.077 H51.5162c0.2151,9,1.4432,17.8136,3.5668,26.3087L66.6774,198.9523z"/>
                <path d="M251.5725,97.5627c5.3858,5.6839,10.1673,11.9451,14.2404,18.6811 l10.39-5.9987c-4.603-7.644-10.0226-14.7427-16.1442-21.1686L251.5725,97.5627z"/>
                <path d="M259.6624,256.2776c6.1226-6.3674,11.5587-13.3991,16.1826-20.979 l-10.3953-6.0017c-4.0931,6.6724-8.8823,12.8735-14.2686,18.4994L259.6624,256.2776z"/>
                <path d="M288.5886,206.5091l-11.596-3.1071 c-2.2425,7.5647-5.2832,14.7886-9.0284,21.5732l10.3907,5.999C282.6175,223.29,286.0671,215.0967,288.5886,206.5091z"/>
                <path d="M278.3022,198.8265l11.5944,3.2317 c2.1044-8.4567,3.322-17.183,3.5361-26.183h-12.0023C281.2208,182.8752,280.1439,191.3623,278.3022,198.8265z"/>
                <path d="M235.1229,275.9527c7.5861-4.6099,14.6259-10.0319,21.0022-16.1413 l-8.4814-8.4814c-5.6345,5.3735-11.8433,10.1492-18.5219,14.2285L235.1229,275.9527z"/>
                <path d="M114.1817,66.4763l5.9991,10.3906 c6.8562-3.7651,14.1591-6.812,21.8069-9.0436l-3.1071-11.5959C130.2095,58.7372,121.9377,62.1939,114.1817,66.4763z"/>
                <path d="M146.7098,66.5359c7.53-1.8237,15.2961-2.8654,23.2961-3.0292v-12 c-9,0.1672-17.9348,1.3488-26.4574,3.4348L146.7098,66.5359z"/>
                <path d="M198.2875,278.345c-7.4562,1.826-15.2816,2.8899-23.2816,3.0881v12 c10-0.2026,17.885-1.4053,26.3337-3.4938L198.2875,278.345z"/>
                <path d="M206.3318,288.6403c8.585-2.5062,16.7773-5.9396,24.4623-10.1854 l-5.999-10.3907c-6.7852,3.7286-14.0085,6.7527-21.5704,8.9802L206.3318,288.6403z"/>
                <path d="M88.67,85.2852l8.4813,8.4813 c5.6832-5.4411,11.9519-10.2748,18.702-14.3951l-6.0007-10.3935C102.1948,73.6286,95.0944,79.1077,88.67,85.2852z"/>
                <path d="M143.8053,290.0541c8.4607,2.0553,17.2006,3.2194,26.2006,3.3853 v-12c-7-0.1624-15.6805-1.1862-23.1485-2.9797L143.8053,290.0541z"/>
                <path d="M203.4242,67.9614c7.6203,2.2606,14.8942,5.3322,21.7218,9.117 l5.999-10.3906c-7.727-4.3026-15.9704-7.7828-24.6137-10.3223L203.4242,67.9614z"/>
                <path d="M201.5964,55.0564c-8.5105-2.1194-16.5905-3.3391-26.5905-3.5433 v12c9,0.2,15.911,1.2811,23.4292,3.1376L201.5964,55.0564z"/>
                <path d="M290.0811,144.2678l-11.5944,3.2318 c1.7892,7.4833,2.8044,15.3757,2.9562,23.3757h11.9999C293.2879,160.8752,292.1321,152.7438,290.0811,144.2678z"/>
                <path d="M68.8733,110.03l10.39,5.9987 c4.1064-6.7561,8.9261-13.0329,14.3542-18.7247l-8.4813-8.4813C78.972,95.2559,73.5098,102.3661,68.8733,110.03z"/>
                <path d="M77.1068,225.1933c-3.7802-6.8109-6.8504-14.0663-9.1135-21.6672 l-11.596,3.1071c2.5422,8.6239,6.0209,16.8489,10.3189,24.5592L77.1068,225.1933z"/>
                <path d="M94.0148,248.0493c-5.4285-5.6336-10.2567-11.848-14.3831-18.5403 l-10.3953,6.0018c4.6575,7.5995,10.1318,14.6452,16.2971,21.0198L94.0148,248.0493z"/>
                <path d="M229.463,79.601c6.7103,4.1328,12.9406,8.9712,18.5875,14.4125 l8.4813-8.4813c-6.3879-6.178-13.4495-11.6627-21.0672-16.3265L229.463,79.601z"/>
            </g>
            <g class="ring2" fill="none" stroke="#1B1F77" stroke-miterlimit="10" opacity="0.7">
                <path d="M305.237,134.7804c-2.8665-10.0823-6.8588-19.6941-11.822-28.6992 l-10.3906,5.999c4.4457,8.1055,8.0283,16.7484,10.6177,25.807L305.237,134.7804z"/>
                <path d="M237.9654,64.8744c7.9959,4.8848,15.4037,10.6388,22.1004,17.1239 l8.4812-8.4812c-7.437-7.2224-15.6762-13.6228-24.58-19.0377L237.9654,64.8744z"/>
                <path d="M50.252,203.3535c-2.2334-8.9084-3.519-18.4782-3.7358-27.4782h-12 c0.2202,10,1.6445,20.8095,4.1415,30.7099L50.252,203.3535z"/>
                <path d="M62.3866,233.692c-4.5139-8.0849-8.1627-16.714-10.821-25.7642 l-11.5959,3.1071c2.9364,10.0735,6.994,19.6722,12.0262,28.6561L62.3866,233.692z"/>
                <path d="M263.5936,85.5416c6.4282,6.7349,12.1149,14.1816,16.9385,22.204 l10.3899-5.9986c-5.3527-8.9306-11.6824-17.2107-18.8471-24.6867L263.5936,85.5416z"/>
                <path d="M34.506,170.8752h12c0.1569-10,1.3821-19.0996,3.5615-28.0276 l-11.5942-2.9817C36.0309,149.7863,34.6653,159.8752,34.506,170.8752z"/>
                <path d="M107.6991,280.5024 c-8.0042-4.8174-15.4346-10.4947-22.1562-16.9101l-8.4813,8.4813c7.4627,7.1519,15.7264,13.472,24.6389,18.8187 L107.6991,280.5024z"/>
                <path d="M81.9996,260.0646c-6.4723-6.6832-12.2159-14.0753-17.0945-22.053 l-10.3953,6.0017c5.4088,8.8856,11.799,17.1088,19.0085,24.5326L81.9996,260.0646z"/>
                <path d="M39.7478,134.6561l11.5959,3.1071 c2.61-9.0949,6.2218-17.7695,10.7029-25.9011l-10.3906-5.999C46.657,114.894,42.6349,124.5375,39.7478,134.6561z"/>
                <path d="M305.0161,210.9109l-11.5959-3.1071 c-2.6375,9.014-6.2575,17.6111-10.7359,25.67l10.3906,5.9991C298.0714,230.5149,302.1006,220.9482,305.0161,210.9109z"/>
                <path d="M268.1402,271.8265l-8.4813-8.4813 c-6.6851,6.4163-14.0723,12.1059-22.0366,16.9366l5.9987,10.3899C252.4932,285.3113,260.7142,278.9794,268.1402,271.8265z"/>
                <path d="M105.683,51.7562l5.999,10.3906 c8.1307-4.4981,16.8063-8.1255,25.9039-10.751l-3.1071-11.5959C124.3577,42.7027,114.713,46.7401,105.683,51.7562z"/>
                <path d="M239.2928,293.175l-5.9991-10.3906 c-8.0598,4.4614-16.6559,8.0654-25.6673,10.6876l3.1071,11.5959C220.7684,302.1679,230.3337,298.1544,239.2928,293.175z"/>
                <path d="M290.5673,243.7986l-10.391-5.9993 c-4.845,7.9582-10.5505,15.3361-16.98,22.0122l8.4813,8.4813C278.8439,260.876,285.1924,252.6646,290.5673,243.7986z"/>
                <path d="M137.7854,293.6099c-9.0391-2.5923-17.6637-6.1729-25.7524-10.6141 l-5.999,10.3906c8.9883,4.9587,18.5816,8.95,28.6443,11.8194L137.7854,293.6099z"/>
                <path d="M202.6886,294.7703c-8.8621,2.198-17.6827,3.4586-27.6827,3.6627 v12.0001c11-0.2075,20.8806-1.6072,30.7348-4.0685L202.6886,294.7703z"/>
                <path d="M205.9975,38.6311c-9.9158-2.4927-19.9916-3.909-30.9916-4.1179 v12.0001c10,0.2057,18.9065,1.4831,27.8303,3.7122L205.9975,38.6311z"/>
                <path d="M142.3087,50.1107c8.936-2.1955,18.6972-3.4353,27.6972-3.6038v-12 c-10,0.1711-20.9303,1.551-30.8585,4.0095L142.3087,50.1107z"/>
                <path d="M310.4327,175.8752h-12c-0.2158,9-1.4911,18.4823-3.7051,27.3525 l11.5943,3.2317C308.7994,196.5973,310.2134,185.8752,310.4327,175.8752z"/>
                <path d="M54.1542,101.5319l10.3899,5.9986 c4.8572-8.0422,10.587-15.4998,17.0582-22.2419l-8.4812-8.4812C65.9133,84.2903,59.5408,92.5816,54.1542,101.5319z"/>
                <path d="M306.5064,139.8666l-11.5942,3.2317 c2.1603,8.8896,3.3745,17.7769,3.5307,27.7769h12C310.2842,159.8752,308.9294,149.7487,306.5064,139.8666z"/>
                <path d="M139.4042,306.4794c9.8666,2.4274,20.6017,3.7901,30.6017,3.96v-12 c-9-0.1672-18.6754-1.3898-27.5496-3.5543L139.4042,306.4794z"/>
                <path d="M207.8259,51.5339c9.0696,2.6555,17.717,6.306,25.8187,10.8245 l5.999-10.3906c-9.0006-5.0369-18.6176-9.0963-28.7106-12.0297L207.8259,51.5339z"/>
                <path d="M76.6548,73.2701l8.4812,8.4812 c6.7332-6.4844,14.1811-12.231,22.2171-17.1025l-5.9987-10.3899C92.4104,59.6599,84.1287,66.0488,76.6548,73.2701z"/>
            </g>
            <g class="ring3" fill="none" stroke="#1B1F77" stroke-miterlimit="10" opacity="0.5">
                <path d="M212.2277,35.1063c10.5195,3.0491,20.5405,7.2791,29.9155,12.532 l5.9991-10.3907c-10.2737-5.7717-21.2643-10.4109-32.8075-13.7372L212.2277,35.1063z"/>
                <path d="M97.1844,37.0361l5.9991,10.3907 c9.4046-5.232,19.4531-9.4402,30.0007-12.4585l-3.1071-11.596C118.5055,26.6674,107.4878,31.2856,97.1844,37.0361z"/>
                <path d="M99.201,295.2214c-9.2909-5.5671-17.9019-12.1552-25.6733-19.614 l-8.4813,8.4813c8.5121,8.1957,17.9567,15.4267,28.1561,21.5225L99.201,295.2214z"/>
                <path d="M69.9844,272.0797c-7.5167-7.7322-14.1752-16.3027-19.8047-25.5665 l-10.3899,5.9987c6.159,10.172,13.4591,19.577,21.7133,28.0492L69.9844,272.0797z"/>
                <path d="M135.003,322.9047c11.272,2.8005,23.0029,4.3616,35.0029,4.5347 v-12c-11-0.1709-21.6707-1.592-31.9507-4.129L135.003,322.9047z"/>
                <path d="M64.6396,61.2549l8.4813,8.4813 c7.7823-7.5284,16.4117-14.1848,25.7341-19.8065l-5.9987-10.39C82.6256,45.6905,73.1622,52.9892,64.6396,61.2549z"/>
                <path d="M23.3243,130.2554l11.5919,3.106 c3.0025-10.5452,7.1956-20.5922,12.4103-29.9979l-10.3907-5.9991C31.2028,107.6689,26.6035,118.6865,23.3243,130.2554z"/>
                <path d="M207.0898,311.1956c-10.2676,2.5711-20.0839,4.0287-32.0839,4.2375 v12c13-0.2114,23.8765-1.8082,35.136-4.6431L207.0898,311.1956z"/>
                <path d="M246.4664,50.1503c9.282,5.6356,17.8691,12.3034,25.6145,19.8329 l8.4813-8.4813c-8.4854-8.267-17.9069-15.5765-28.0972-21.7415L246.4664,50.1503z"/>
                <path d="M17.506,170.8752h12c0.1603-12,1.5842-22.095,4.1362-32.4288 l-11.5944-2.9817C19.2323,146.7906,17.6682,157.8752,17.506,170.8752z"/>
                <path d="M33.8267,207.7546c-2.6071-10.3137-4.0892-20.8793-4.3105-31.8793 h-12c0.2241,12,1.845,23.8057,4.7162,35.111L33.8267,207.7546z"/>
                <path d="M308.1351,97.5825l-10.3907,5.9991 c5.179,9.3798,9.3405,19.3959,12.3223,29.9047l11.5916-3.106C318.4,118.8479,313.8321,107.8612,308.1351,97.5825z"/>
                <path d="M275.6086,73.5266c7.4716,7.7847,14.0693,16.412,19.6424,25.7211 l10.39-5.9987c-6.1018-10.2176-13.3425-19.6784-21.551-28.2038L275.6086,73.5266z"/>
                <path d="M137.9075,33.6854c10.3416-2.5684,21.0984-4.0065,32.0984-4.1785 v-12c-12,0.1741-23.9261,1.7521-35.2597,4.5842L137.9075,33.6854z"/>
                <path d="M39.4352,93.0339l10.39,5.9987 c5.607-9.3288,12.2472-17.9675,19.762-25.759l-8.4813-8.4813C52.8538,73.3241,45.571,82.7967,39.4352,93.0339z"/>
                <path d="M305.2864,252.2966l-10.3899-5.9986 c-5.5955,9.2443-12.2116,17.8032-19.6851,25.5287l8.4813,8.4813C291.9034,271.8423,299.1615,262.4492,305.2864,252.2966z"/>
                <path d="M133.3837,310.0372 c-10.4893-2.9849-20.4864-7.1469-29.8494-12.3213l-5.999,10.3907c10.262,5.6924,21.2296,10.2607,32.7425,13.5222 L133.3837,310.0372z"/>
                <path d="M280.1554,283.8417l-8.4813-8.4813 c-7.7346,7.4599-16.3031,14.0594-25.5537,19.6404l5.9987,10.39C262.278,299.2806,271.6804,292.0388,280.1554,283.8417z"/>
                <path d="M322.9318,135.4655l-11.5944,3.2317 c2.5326,10.2954,3.9459,20.178,4.1055,32.178h12C327.2812,157.8752,325.7277,146.7531,322.9318,135.4655z"/>
                <path d="M210.3987,22.2058c-11.3208-2.8666-22.3928-4.48-35.3928-4.6926v12 c12,0.2101,21.9024,1.6843,32.2315,4.2869L210.3987,22.2058z"/>
                <path d="M327.4327,175.8752h-12c-0.2205,11-1.6924,21.4781-4.2798,31.7536 l11.5943,3.2317C325.5986,199.5933,327.2094,187.8752,327.4327,175.8752z"/>
                <path d="M321.4437,215.3126l-11.5959-3.1071 c-3.0312,10.4639-7.2309,20.4343-12.4434,29.767l10.3907,5.9991C313.5261,237.7401,318.1353,226.8001,321.4437,215.3126z"/>
                <path d="M247.7915,307.8951l-5.9991-10.3907 c-9.3337,5.1953-19.3029,9.3795-29.7642,12.395l3.1071,11.596C226.6203,318.2028,237.5588,313.6088,247.7915,307.8951z"/>
                <path d="M47.6666,242.1907c-5.2484-9.3583-9.4764-19.3611-12.5285-29.8611 l-11.5959,3.1071c3.3295,11.5236,7.9667,22.4961,13.7338,32.7531L47.6666,242.1907z"/>
            </g>
            <g class="ring4" fill="none" stroke="#1B1F77" stroke-miterlimit="10" opacity="0.3">
                <path d="M24.7161,84.5358l10.39,5.9987 c6.3561-10.6158,13.9067-20.4358,22.4659-29.2761l-8.4813-8.4813C39.7939,62.3574,31.6008,73.0114,24.7161,84.5358z"/>
                <path d="M57.9692,284.0949c-8.5615-8.7805-16.129-18.5332-22.5085-29.0837 l-10.39,5.9987c6.9086,11.4588,15.118,22.046,24.4172,31.5663L57.9692,284.0949z"/>
                <path d="M52.6244,49.2397l8.4813,8.4813 c8.8309-8.573,18.6419-16.1393,29.2513-22.5104l-5.9986-10.3899C72.8404,31.7203,62.1952,39.9291,52.6244,49.2397z"/>
                <path d="M90.703,309.9405c-10.5779-6.3161-20.3699-13.815-29.1905-22.3178 l-8.4813,8.4813c9.5609,9.2401,20.1865,17.382,31.6732,24.2265L90.703,309.9405z"/>
                <path d="M339.3571,131.0643l-11.5944,3.2317 c2.9058,11.7009,4.5178,23.5792,4.6801,36.5792h12.0001C344.279,156.8752,342.5267,143.7571,339.3571,131.0643z"/>
                <path d="M88.6857,22.316l5.999,10.3906 c10.6779-5.9666,22.1-10.7542,34.098-14.1645l-3.1059-11.5916C112.6551,10.6372,100.2621,15.8306,88.6857,22.316z"/>
                <path d="M95.0356,312.436l-5.9991,10.3907 c11.5352,6.4269,23.8779,11.5705,36.8411,15.2235l3.1059-11.5916C117.0441,323.0819,105.6722,318.3444,95.0356,312.436z"/>
                <path d="M32.9465,250.6893c-5.9833-10.6314-10.7911-22.0078-14.236-33.958 l-11.596,3.1071c3.7217,12.974,8.9389,25.3201,15.4413,36.8499L32.9465,250.6893z"/>
                <path d="M287.6239,61.5113c8.5157,8.8339,16.0242,18.642,22.3463,29.2383 l10.39-5.9987c-6.8505-11.505-15.0021-22.1467-24.2549-31.7209L287.6239,61.5113z"/>
                <path d="M17.4014,212.1557c-2.9813-11.7186-4.6602-24.2805-4.8853-36.2805 h-12c0.2272,13,2.0451,26.8019,5.2909,39.5121L17.4014,212.1557z"/>
                <path d="M133.5064,17.26c11.7469-2.942,24.4995-4.5782,36.4995-4.7532v-12 c-13,0.1765-26.9222,1.9528-39.6608,5.1589L133.5064,17.26z"/>
                <path d="M254.9645,35.4312c10.5687,6.3855,20.3379,13.9625,29.1316,22.5368 l8.4813-8.4813c-9.5334-9.312-20.1371-17.5309-31.6143-24.4454L254.9645,35.4312z"/>
                <path d="M6.9029,125.8553l11.5916,3.106 c3.3943-11.9954,8.1628-23.4175,14.1118-34.0965l-10.3906-5.999C15.748,100.4432,10.5734,112.8361,6.9029,125.8553z"/>
                <path d="M322.8552,89.0839l-10.3906,5.9991 c5.9128,10.6533,10.6501,22.0442,14.0236,34.0032l11.5916-3.106C334.4301,112.9974,329.2866,100.6358,322.8552,89.0839z"/>
                <path d="M0.5059,170.8752H12.506c0.163-13,1.7855-25.0908,4.7109-36.83 l-11.5944-2.9817C2.4331,143.7946,0.6704,156.8752,0.5059,170.8752z"/>
                <path d="M344.4327,175.8752h-12c-0.2243,12-1.8931,24.4742-4.8545,36.1547 l11.5944,3.2317C342.3984,202.5896,344.2062,188.8752,344.4327,175.8752z"/>
                <path d="M250.2911,312.2245 c-10.6071,5.9297-21.9496,10.6945-33.8611,14.1025l3.1071,11.5959c12.9354-3.6847,25.2473-8.8593,36.7531-15.3078 L250.2911,312.2245z"/>
                <path d="M214.7999,5.7805c-12.7257-3.2412-25.7939-5.0517-39.7939-5.2673 v12c13,0.2136,24.8986,1.8849,36.6326,4.8616L214.7999,5.7805z"/>
                <path d="M211.491,327.621c-11.6727,2.9449-23.485,4.5997-36.485,4.8121v12 c14-0.2145,26.8727-2.0087,39.5371-5.2178L211.491,327.621z"/>
                <path d="M292.1706,295.8569l-8.4813-8.4813 c-8.7835,8.5042-18.5334,16.0137-29.0708,22.3443l5.9987,10.39C272.063,313.2505,282.647,305.0985,292.1706,295.8569z"/>
                <path d="M320.0054,260.7947l-10.39-5.9987 c-6.3453,10.5309-13.8709,20.2717-22.3889,29.0458l8.4813,8.4813C304.9634,282.8091,313.1312,272.2342,320.0054,260.7947z"/>
                <path d="M337.8713,219.7144l-11.596-3.1072 c-3.4239,11.914-8.2037,23.258-14.1508,33.8639l10.3907,5.9991C328.9813,244.9658,334.1706,232.6523,337.8713,219.7144z"/>
                <path d="M130.6019,339.3301c12.6772,3.1741,26.404,4.9338,39.404,5.1094 v-12c-12-0.1739-24.6666-1.7935-36.3519-4.7037L130.6019,339.3301z"/>
                <path d="M250.642,32.9182l5.999-10.3907 c-11.5466-6.5069-23.9108-11.7263-36.9044-15.4447l-3.1071,11.5959C228.5992,22.1204,239.9938,26.9303,250.642,32.9182z"/>
            </g>
        </g>
        <defs>
            <filter id="Adobe_OpacityMaskFilter2" width="309.2202" height="238.3593" x="13.8185" y="48.4825" filterUnits="userSpaceOnUse">
                <feColorMatrix type="matrix" values="1 0 0 0 0 0 1 0 0 0 0 0 1 0 0 0 0 0 1 0"/>
            </filter>
        </defs>
        <mask id="hud2-bg_1_" width="309.2202" height="238.3593" x="13.8185" y="48.4825" maskUnits="userSpaceOnUse">
            <g filter="url(#Adobe_OpacityMaskFilter2)">
                <radialGradient id="SVGID_444_" cx="174.5197" cy="170.2404" r="108.0422" gradientUnits="userSpaceOnUse">
                    <stop offset="0.5305" style="stop-color:#FFFFFF"/>
                    <stop offset="0.6829" style="stop-color:#A7A7A7"/>
                    <stop offset="0.9594" style="stop-color:#000000"/>
                </radialGradient>
                <circle cx="174.5197" cy="170.2404" r="108.0422" fill="url(#SVGID_444_)" stroke="#000000" stroke-miterlimit="10"/>
            </g>
        </mask>
        <g id="hud2-bg" mask="url(#hud2-bg_1_)">
            <g fill="none" stroke="#1B1F77" stroke-miterlimit="10" opacity="0.5">
                <path d="M72.0059 72.8752H271.0059V272.8752H72.0059z"/>
                <path d="M71.5059 262.8752L271.5059 262.8752"/>
                <path d="M71.5059 253.8752L271.5059 253.8752"/>
                <path d="M71.5059 243.8752L271.5059 243.8752"/>
                <path d="M71.5059 234.8752L271.5059 234.8752"/>
                <path d="M71.5059 224.8752L271.5059 224.8752"/>
                <path d="M71.5059 215.8752L271.5059 215.8752"/>
                <path d="M71.5059 205.8752L271.5059 205.8752"/>
                <path d="M71.5059 196.8752L271.5059 196.8752"/>
                <path d="M71.5059 186.8752L271.5059 186.8752"/>
                <path d="M71.5059 176.8752L271.5059 176.8752"/>
                <path d="M71.5059 167.8752L271.5059 167.8752"/>
                <path d="M71.5059 157.8752L271.5059 157.8752"/>
                <path d="M71.5059 148.8752L271.5059 148.8752"/>
                <path d="M71.5059 138.8752L271.5059 138.8752"/>
                <path d="M71.5059 129.8752L271.5059 129.8752"/>
                <path d="M71.5059 119.8752L271.5059 119.8752"/>
                <path d="M71.5059 110.8752L271.5059 110.8752"/>
                <path d="M71.5059 100.8752L271.5059 100.8752"/>
                <path d="M71.5059 91.8752L271.5059 91.8752"/>
                <path d="M71.5059 81.8752L271.5059 81.8752"/>
                <path d="M262.0059 72.3752L262.0059 272.3752"/>
                <path d="M252.0059 72.3752L252.0059 272.3752"/>
                <path d="M243.0059 72.3752L243.0059 272.3752"/>
                <path d="M233.0059 72.3752L233.0059 272.3752"/>
                <path d="M224.0059 72.3752L224.0059 272.3752"/>
                <path d="M214.0059 72.3752L214.0059 272.3752"/>
                <path d="M205.0059 72.3752L205.0059 272.3752"/>
                <path d="M195.0059 72.3752L195.0059 272.3752"/>
                <path d="M186.0059 72.3752L186.0059 272.3752"/>
                <path d="M176.0059 72.3752L176.0059 272.3752"/>
                <path d="M167.0059 72.3752L167.0059 272.3752"/>
                <path d="M157.0059 72.3752L157.0059 272.3752"/>
                <path d="M148.0059 72.3752L148.0059 272.3752"/>
                <path d="M138.0059 72.3752L138.0059 272.3752"/>
                <path d="M129.0059 72.3752L129.0059 272.3752"/>
                <path d="M119.0059 72.3752L119.0059 272.3752"/>
                <path d="M110.0059 72.3752L110.0059 272.3752"/>
                <path d="M100.0059 72.3752L100.0059 272.3752"/>
                <path d="M91.0059 72.3752L91.0059 272.3752"/>
                <path d="M81.0059 72.3752L81.0059 272.3752"/>
            </g>
            <g id="hud2-dna" opacity="0.7">
                <g>
                    <path d="M308.0359,212.4552v-0.01c0-0.03,0-0.05-0.01-0.08c0,0-0.22-1.34-1.15-2.86c-0.01-0.02-0.02-0.03-0.03-0.05 c-1.9-3.74-6.43-9.18-15.95-6.26c0.9-0.67,9.49-6.87,14.71-3.53c5.51,3.53,3.91,4.22,6.57,5.52c2.67,1.3,7.88,4.32,9.02,8.14 c1.14,3.82,2.74,14.86-0.96,30.21c0,0-0.34,3.15-2.41,3.37c-2.74,0.28-10.11-0.99-10.11-0.99s-0.11-0.03-0.29-0.11l0.83-1.18 l-1.84-8.27l-0.5,0.73c0.64-5.27,1.54-13.46,1.95-19.02l0.01-0.02c0.02-0.31,0.05-0.61,0.06-0.9 C308.0959,214.8752,308.1459,213.1552,308.0359,212.4552z"/>
                    <path d="M306.4159,236.3552l1.84,8.27l-0.83,1.18c-0.73-0.31-2.57-1.38-2.14-3.94c0.12-0.72,0.35-2.46,0.63-4.78 L306.4159,236.3552z"/>
                    <path d="M308.0359,212.4552c0.11,0.7,0.06,2.42-0.1,4.69c0.16-2.35,0.21-4.1,0.08-4.76c0.01,0.02,0.02,0.04,0.02,0.06V212.4552z"/>
                    <path d="M308.0159,212.3852c0.13,0.66,0.08,2.41-0.08,4.76c-0.02,0.3-0.05,0.6-0.07,0.92l-20.01,28.27l-0.02-0.01l-0.77-3.99 l-4.14,0.7l21.21-29.78c2.38-0.59,3.88-0.89,3.88-0.89C308.0159,212.3752,308.0159,212.3852,308.0159,212.3852z"/>
                    <path d="M308.0259,212.3652c0.01,0.03,0.01,0.05,0.01,0.08c0-0.02-0.01-0.04-0.02-0.06c0,0,0-0.01,0-0.02 c-0.12-0.42-0.46-1.53-1.14-2.86C307.8059,211.0252,308.0259,212.3652,308.0259,212.3652z"/>
                    <path d="M307.9359,217.1452c-0.01,0.29-0.04,0.59-0.06,0.9l-0.01,0.02C307.8859,217.7452,307.9159,217.4452,307.9359,217.1452z"/>
                    <path d="M307.4259,245.8052l-6.54,9.27l-0.07-0.05c-0.28,0.21-0.56,0.36-0.85,0.46s-0.58,0.15-0.87,0.15 c-0.29,0-0.57-0.05-0.84-0.13c-0.28-0.09-0.54-0.22-0.78-0.38c-0.25-0.16-0.48-0.35-0.68-0.59c-0.2-0.22-0.37-0.49-0.51-0.77 c-0.14-0.29-0.24-0.6-0.31-0.93c-0.07-0.33-0.09-0.69-0.07-1.06l10.01-14.69c-0.28,2.32-0.51,4.06-0.63,4.78 C304.8559,244.4252,306.6959,245.4952,307.4259,245.8052z"/>
                    <path d="M306.8759,209.5052c0.68,1.33,1.02,2.44,1.14,2.86c0,0-1.5,0.3-3.88,0.89l2.71-3.8 C306.8559,209.4753,306.8659,209.4852,306.8759,209.5052z"/>
                    <path d="M306.8459,209.4552l-2.71,3.8c-3.36,0.83-8.47,2.26-13.59,4.26l4.73-6.25c0,0-0.42-2.09-1.67-2.93 c-1.26-0.84-3.93,0.09-3.93,0.09l-11.89,15.53c-4.9,2.66-11.39,5.97-17.46,9.01l0.13-0.85l2.33-2.59l6.28-6.95 c0,0,1-2.52-0.26-3.36c-1.25-0.84-3.5-0.53-3.5-0.53l-3.33,3.59l0.96-6.19c5.62-2.7,9.94-4.77,9.94-4.77l17.94-8.06 c0,0,0.02-0.02,0.07-0.05l0.01-0.01C300.4159,200.2752,304.9459,205.7152,306.8459,209.4552z"/>
                    <path d="M300.8859,255.0752l-4.29,6.09c-0.71,0.13-1.36,0.5-1.36,0.5s-4.66,2.73-9.94,5.68l10.61-15.57 c-0.02,0.37,0,0.73,0.07,1.06c0.07,0.33,0.17,0.64,0.31,0.93c0.14,0.28,0.31,0.55,0.51,0.77c0.2,0.24,0.43,0.43,0.68,0.59 c0.24,0.16,0.5,0.29,0.78,0.38c0.27,0.08,0.55,0.13,0.84,0.13c0.29,0,0.58-0.05,0.87-0.15s0.57-0.25,0.85-0.46 L300.8859,255.0752z"/>
                    <path fill="#1B1F77" d="M258.8159,279.7052c-0.3-0.09-5.07-1.66-7.87-3.54c-2.88-1.93-6.16-8.78-6.89-13.93 c-0.39-2.77-0.35-10.22,0.02-17.92c0.06-1.14,0.12-2.29,0.18-3.42h0.01c0.02-0.34,0.04-0.68,0.06-1.02 c0.09-1.39,0.19-2.77,0.3-4.1c0.05-0.57,0.1-1.14,0.15-1.69c0.12-1.28,0.25-2.5,0.39-3.64c0.02-0.23,0.05-0.46,0.08-0.68 c0.02-0.15,0.04-0.29,0.06-0.43c0.04-0.32,0.08-0.63,0.13-0.94c0.02-0.19,0.05-0.39,0.09-0.58c0.06-0.39,0.12-0.77,0.18-1.12 c0.06-0.35,0.13-0.74,0.2-1.17c0.07-0.42,0.15-0.89,0.23-1.38c-0.01,0-0.01,0.01-0.02,0.01c0.27-1.78,0.57-3.96,0.9-6.42 l2.75-4.02l-0.24-9.48l-0.98,1.41c0.85-7.03,1.72-14.38,2.4-20.04c0.28-0.4,0.57-0.8,0.85-1.2c1.16-1.73,0.03-11.24,0.03-11.24 l-0.42,0.62c-1.33-4.41-5.6-11.71-18.92-5.31l4.25-2.12c0,0,8.6-6.06,14.93-2.27c0,0,0.97,0.71,1.86,1.79 c0.88,1.07,4.76,3.67,6.09,4.08c1.33,0.41,4.51,1.9,5.17,4.75c0.66,2.86,2.12,11.72,1.21,18.34c-0.8,5.88-6.91,47.71-8.28,57.12 l-0.82,1.07l0.5,10.1l0.87-1.14c0.63,5.42,1.57,11.88,2.62,13.77c0,0,0,0,0,0.01c0.01,0.01,0.01,0.02,0.01,0.03 c0.02,0.08,0.08,0.3,0.2,0.64c0.07,0.17,0.15,0.38,0.25,0.61c0.03,0.09,0.08,0.19,0.13,0.3c0.26,0.6,0.64,1.32,1.14,2.09 c0.2,0.3,0.42,0.61,0.67,0.93c0.11,0.16,0.24,0.31,0.38,0.47c0.17,0.22,0.37,0.44,0.57,0.65l0.01-0.01l3.36-4.75 c1.35-0.02,2.74-0.19,4.05-0.64c2.39-0.81,8.33-3.99,13.64-6.95l-6.58,9.65c0,0-0.18,1.8,1.15,2.7 c1.33,0.89,3.15,0.74,3.15,0.74l13.58-19.27c0.8-0.15,1.67-0.02,1.86,1.2l0.19,12.67c0,0,0.44,2.69-2.79,4.39 c-3.22,1.69-24.39,10.33-31.71,5.43c-4.76-3.19-5.32-5.14-5.32-5.14S258.8259,279.7152,258.8159,279.7052z"/>
                    <path d="M296.5959,261.1653l-13.58,19.27c0,0-1.82,0.15-3.15-0.74c-1.33-0.9-1.15-2.7-1.15-2.7l6.58-9.65 c5.28-2.95,9.94-5.68,9.94-5.68S295.8859,261.2953,296.5959,261.1653z"/>
                    <path d="M295.2759,211.2652l-4.73,6.25c-2.92,1.15-5.84,2.48-8.43,4.01c-1.21,0.71-2.68,1.53-4.33,2.43l11.89-15.53 c0,0,2.67-0.93,3.93-0.09C294.8559,209.1752,295.2759,211.2652,295.2759,211.2652z"/>
                    <path d="M290.5459,217.5152l-15.38,20.32c-0.38,0.16-0.75,0.25-1.1,0.29s-0.67,0.04-0.98-0.02c-0.32-0.05-0.6-0.15-0.88-0.28 c-0.27-0.13-0.52-0.29-0.75-0.48c-0.23-0.19-0.43-0.41-0.62-0.65c-0.18-0.23-0.34-0.48-0.48-0.74c-0.27-0.53-0.44-1.1-0.5-1.64 l7.93-10.36c1.65-0.9,3.12-1.72,4.33-2.43C284.7059,219.9952,287.6259,218.6652,290.5459,217.5152z"/>
                    <path d="M287.8559,246.3353l-20.25,28.6c-3.56,0.06-6.71-0.96-6.71-0.96s0-0.01-0.01-0.01l22.04-30.93l4.14-0.7l0.77,3.99 L287.8559,246.3353z"/>
                    <path d="M275.1659,237.8353l-16.9,22.36c-0.52-4.42-0.83-8.15-0.83-8.15s0.1-0.67,0.28-1.88l12.14-15.85 c0.06,0.54,0.23,1.11,0.5,1.64c0.14,0.26,0.3,0.51,0.48,0.74c0.19,0.24,0.39,0.46,0.62,0.65c0.23,0.19,0.48,0.35,0.75,0.48 c0.28,0.13,0.56,0.23,0.88,0.28c0.31,0.06,0.63,0.06,0.98,0.02S274.7859,237.9952,275.1659,237.8353z"/>
                    <path d="M268.8059,219.2152c1.26,0.84,0.26,3.36,0.26,3.36l-6.28,6.95l-1.37-3.6l0.56-3.65l3.33-3.59 C265.3059,218.6852,267.5559,218.3752,268.8059,219.2152z"/>
                    <path d="M267.6059,274.9352l-3.36,4.75c-0.21-0.21-0.4-0.43-0.58-0.64c-0.13-0.16-0.26-0.32-0.38-0.47 c-0.25-0.32-0.47-0.63-0.67-0.93c-0.5-0.77-0.88-1.49-1.14-2.09c-0.05-0.1-0.09-0.2-0.13-0.3c-0.1-0.23-0.18-0.44-0.25-0.61 c-0.11-0.33-0.17-0.55-0.2-0.64c0-0.01,0-0.02-0.01-0.03c0-0.01,0-0.01,0-0.01c0.01,0,0.01,0.01,0.01,0.01 S264.0459,274.9952,267.6059,274.9352z"/>
                    <path d="M264.2459,279.6852l-0.01,0.01c-0.2-0.21-0.4-0.43-0.57-0.65C263.8459,279.2552,264.0359,279.4753,264.2459,279.6852z"/>
                    <path d="M263.2859,278.5753c0.12,0.15,0.25,0.31,0.38,0.47C263.5259,278.8853,263.3959,278.7352,263.2859,278.5753z"/>
                    <path d="M263.2859,278.5753c-0.25-0.32-0.47-0.63-0.67-0.93C262.8159,277.9453,263.0359,278.2552,263.2859,278.5753z"/>
                    <path d="M261.4159 225.9252L262.7859 229.5252 260.4559 232.1152z"/>
                    <path d="M261.9759 222.2752L261.4159 225.9252 261.3059 225.6352 261.7559 222.5152z"/>
                    <path d="M261.3459,275.2552c0.04,0.1,0.08,0.2,0.13,0.3C261.4259,275.4453,261.3759,275.3452,261.3459,275.2552z"/>
                    <path d="M261.3059 225.6352L261.4159 225.9252 260.4559 232.1152 260.3459 232.2352z"/>
                    <path d="M260.8959,274.0052c0.03,0.09,0.09,0.31,0.2,0.64C260.9759,274.3052,260.9159,274.0852,260.8959,274.0052z"/>
                    <path d="M258.2659,260.1953l-0.87,1.14l-0.5-10.1l0.82-1.07c-0.18,1.21-0.28,1.88-0.28,1.88 S257.7459,255.7752,258.2659,260.1953z"/>
                    <path d="M252.0759,176.6252c0,0-0.02,0-0.06,0c-0.04-0.49-0.16-1.49-0.58-2.72c0.01-0.01,0-0.01,0-0.01 c-0.01-0.03-0.02-0.07-0.03-0.11l0.42-0.62c0,0,1.13,9.51-0.03,11.24c-0.28,0.4-0.57,0.8-0.85,1.2 C251.4459,181.4052,251.8559,178.1452,252.0759,176.6252z"/>
                    <path d="M252.0159,176.6252c0.04,0,0.06,0,0.06,0c-0.22,1.52-0.63,4.78-1.13,8.98c-5.79,8.18-11.64,16.33-17.45,24.5l-3.96,1.03 l-0.68-4.29l19.84-29.1h0.01l3.32-0.8C252.0259,176.9452,252.0259,176.8353,252.0159,176.6252z"/>
                    <path d="M251.9859,176.6252c0.01-0.01,0.02-0.01,0.03,0c0.01,0.21,0.01,0.32,0.01,0.32l-3.32,0.8l0.61-0.9 C250.8059,176.6152,251.7059,176.6152,251.9859,176.6252z"/>
                    <path d="M252.0159,176.6252c-0.01-0.01-0.02-0.01-0.03,0c-0.02-0.17-0.12-1.28-0.55-2.72 C251.8559,175.1352,251.9759,176.1352,252.0159,176.6252z"/>
                    <path d="M251.9859,176.6252c-0.28-0.01-1.18-0.01-2.67,0.22l2.08-3.06c0.02,0.03,0.03,0.07,0.04,0.11c0,0,0.01,0,0,0.01 C251.8659,175.3452,251.9659,176.4552,251.9859,176.6252z"/>
                    <path d="M251.4059,173.7852c0.01,0.04,0.02,0.08,0.03,0.11c-0.01-0.04-0.02-0.08-0.04-0.11H251.4059z"/>
                    <path fill="#1B1F77" d="M251.4059,173.7852h-0.01c-0.02-0.08-0.05-0.17-0.08-0.25l-2.07,3.32c-2.66,0.41-7.17,1.54-13.46,4.56 l4.67-6.21c0,0-0.18-1.93-1.43-2.77c-1.26-0.85-3.62-0.04-3.62-0.04l-11.93,15.64c-10.15,5.51-17.46,9.16-17.46,9.16 s-0.58,0.33-0.96,0.55c0.02-0.15,0.04-0.3,0.07-0.45l0.17-0.97l3.1-3.18l6.24-6.37c0,0,0.67-2.18-0.51-3.65 c-1.17-1.46-3.19-0.99-3.19-0.99l-3.83,3.9c0.36-1.92,0.7-3.76,1.02-5.51c2.85-1.35,5.7-2.71,5.7-2.71l18.63-9.32 c0.01,0,0.02-0.01,0.03-0.02C245.8059,162.0752,250.0759,169.3752,251.4059,173.7852z"/>
                    <path d="M251.3159,173.5352c0.03,0.08,0.06,0.17,0.08,0.25l-2.08,3.06c-0.02,0-0.05,0-0.07,0.01L251.3159,173.5352z"/>
                    <path fill="#333333" d="M249.5259,204.2352l0.24,9.48l-2.75,4.02c0.48-3.6,1-7.78,1.53-12.09L249.5259,204.2352z"/>
                    <path d="M249.3159,176.8452l-0.61,0.9h-0.01l0.55-0.89C249.2659,176.8452,249.2959,176.8452,249.3159,176.8452z"/>
                    <path d="M241.7659,215.3952l6.78-9.75c-0.53,4.31-1.05,8.49-1.53,12.09l-0.58,0.84c-0.28,0.09-0.56,0.15-0.83,0.16 s-0.54-0.02-0.8-0.08c-0.27-0.06-0.53-0.14-0.78-0.25c-0.24-0.12-0.48-0.26-0.7-0.42c-0.44-0.33-0.81-0.73-1.09-1.18 c-0.13-0.22-0.24-0.45-0.32-0.69C241.8359,215.8752,241.7859,215.6352,241.7659,215.3952z"/>
                    <path d="M246.4359,218.5752l-5.55,8.1c-3.75,1.81-7.35,3.56-10.5,5.09l11.38-16.37c0.02,0.24,0.07,0.48,0.15,0.72 c0.08,0.24,0.19,0.47,0.32,0.69c0.28,0.45,0.65,0.85,1.09,1.18c0.22,0.16,0.46,0.3,0.7,0.42c0.25,0.11,0.51,0.19,0.78,0.25 c0.26,0.06,0.53,0.09,0.8,0.08S246.1559,218.6652,246.4359,218.5752z"/>
                    <path fill="#1B1F77" d="M246.1159,224.1552c0.01,0,0.01-0.01,0.02-0.01c-0.08,0.49-0.16,0.96-0.23,1.38 C245.9659,225.1052,246.0459,224.6452,246.1159,224.1552z"/>
                    <path fill="#1B1F77" d="M197.4159,141.2652c0-0.05-0.01-0.1,0-0.15c-0.09-2.12-1.3-15.13-16.36-10.37 c3.93-1.71,11.75-5.37,15.09-3c4.03,2.86,4.87,4.23,7.65,5.12c2.77,0.9,5.66,2.83,7.17,8.98c1.37,5.63,1.37,15.33-2.84,38.68 c-0.04,0.02-0.09,0.04-0.13,0.06l-0.95,5.51l-1.16,1.18l-0.27,2h0.01l-1.06,7.79l0.71-0.72c-0.06,0.32-0.11,0.64-0.15,0.95 l-0.08,0.46c0,0,0.01,0,0.01-0.01c-0.95,6.31-1.51,11.86-1.72,16.69l-0.57,0.74c-0.5,0.92,0.13,9.98,0.13,9.98l0.49-0.66 c0.42,6.19,1.59,10.6,3.2,13.48c0,0,0.08,0.4,0.31,1.05c0.01,0.02,0.01,0.04,0.02,0.06c0,0,0,0.01,0.01,0.02 c0.01,0.03,0.02,0.07,0.04,0.11c0.14,0.38,0.33,0.82,0.58,1.31c0.03,0.06,0.06,0.13,0.11,0.2c0.1,0.21,0.23,0.44,0.37,0.67 c0.04,0.08,0.1,0.17,0.16,0.26c0,0.01,0.01,0.02,0.02,0.03c0.01,0.02,0.03,0.05,0.05,0.08c0.01,0.02,0.03,0.05,0.05,0.08 c0.05,0.08,0.1,0.15,0.15,0.23c0.02,0.03,0.04,0.06,0.07,0.09c0.02,0.05,0.06,0.1,0.1,0.15c0.02,0.03,0.04,0.06,0.07,0.1 c0.01,0.01,0.02,0.03,0.04,0.05c0.01,0.02,0.03,0.05,0.05,0.08c0.08,0.1,0.16,0.2,0.24,0.3c0.02,0.04,0.05,0.08,0.08,0.11 c0.11,0.13,0.22,0.26,0.33,0.39c0.06,0.07,0.12,0.14,0.19,0.21c0,0.01,0.01,0.02,0.03,0.03v0.01c0.05,0.05,0.1,0.11,0.16,0.16 l-0.13-0.2c1.1-1.53,2.2-3.07,3.3-4.61c2.17-0.24,4.87-0.95,8.08-2.58c1.92-0.97,5.24-2.61,9.32-4.6l-6.19,8.91 c0,0.07,0.01,2.05,1.09,2.78c1.1,0.73,3.45,0.95,3.45,0.95l12.15-17.73c1.72-0.83,3.48-1.67,5.23-2.52 c-0.07,0.49-0.15,0.95-0.21,1.37c-0.07,0.43-0.14,0.82-0.2,1.17c-0.06,0.36-0.13,0.73-0.18,1.12c-0.03,0.19-0.06,0.38-0.09,0.58 c-0.05,0.3-0.09,0.62-0.13,0.94c-0.02,0.14-0.04,0.28-0.06,0.43c-0.03,0.22-0.06,0.45-0.08,0.68c-0.14,1.14-0.27,2.36-0.39,3.64 c-0.05,0.56-0.1,1.12-0.15,1.69c-0.11,1.33-0.21,2.71-0.3,4.1c-0.02,0.34-0.04,0.68-0.07,1.02c-0.4,0.2-1.6,0.78-1.6,0.78 s-24.51,17.98-37.73,2.69c0,0-6.02-2.76-9.28-5.1c-3.25-2.34-6.85-12.79-6.93-24.89c-0.02-2.36,0.11-5.16,0.34-8.13 c0.01,0,0.01-0.01,0.02-0.01c0.49-5.54,1.24-11.36,1.96-17.63c-0.03,0.02-0.07,0.03-0.1,0.05c0.39-2.96,0.75-5.5,1.01-7.27 l3.45-5.23l-1.03-7.63l-0.67,0.98c0.92-6.41,2.11-14.84,2.89-20.82c0.01-0.03,0.01-0.05,0.01-0.08c0.4-2.39,0.63-4.03,0.74-5.28 c0.02-0.22,0.04-0.43,0.05-0.63C197.4259,142.1552,197.4259,141.6952,197.4159,141.2652z"/>
                    <path fill="#1B1F77" d="M245.7059,226.6952c-0.06,0.35-0.12,0.73-0.18,1.12 C245.5759,227.4252,245.6459,227.0552,245.7059,226.6952z"/>
                    <path fill="#1B1F77" d="M245.2459,229.7652c-0.03,0.22-0.06,0.45-0.08,0.68 C245.1859,230.2152,245.2159,229.9852,245.2459,229.7652z"/>
                    <path fill="#1B1F77" d="M244.6259,235.7752c0.05-0.57,0.1-1.13,0.15-1.69 C244.7259,234.6352,244.6759,235.2052,244.6259,235.7752z"/>
                    <path fill="#1B1F77" d="M244.3259,239.8752c-0.02,0.34-0.04,0.68-0.06,1.02h-0.01 C244.2859,240.5552,244.3059,240.2152,244.3259,239.8752z"/>
                    <path d="M240.4559,175.2052l-4.67,6.21c-1.49,0.71-3.09,1.53-4.79,2.48c-2.62,1.47-5.15,2.85-7.52,4.14l11.93-15.64 c0,0,2.36-0.81,3.62,0.04C240.2759,173.2752,240.4559,175.2052,240.4559,175.2052z"/>
                    <path d="M235.7859,181.4152l-15.05,20.02l-0.72-4.11l-4.18,0.72l7.64-10.01c2.37-1.29,4.9-2.67,7.52-4.14 C232.6959,182.9452,234.2959,182.1252,235.7859,181.4152z"/>
                    <path d="M229.5359,211.1352l3.96-1.03c-5.99,8.42-11.95,16.85-17.95,25.26l-3.86-3.36l17.17-25.16L229.5359,211.1352z"/>
                    <path d="M220.0159,197.3252l0.72,4.11l-17.35,23.06c-0.2-2.94-0.22-6.28-0.05-10.06l12.5-16.39L220.0159,197.3252z"/>
                    <path d="M215.5459,235.3652c-0.85,1.2-1.71,2.39-2.56,3.58c-2.83,0.32-4.75-0.18-5.67-0.53l4.37-6.41L215.5459,235.3652z"/>
                    <path d="M214.1259,183.1252c1.18,1.47,0.51,3.65,0.51,3.65l-6.24,6.37c0.04-0.35,0.05-0.67,0.02-0.96 c-0.02-0.28-0.07-0.53-0.14-0.75c-0.15-0.45-0.38-0.79-0.67-1.06c-0.28-0.28-0.61-0.48-0.96-0.65c-0.07-0.03-0.13-0.06-0.2-0.09 l0.21-1.25c0.06-0.35,0.13-0.71,0.2-1.07c0.08-0.43,0.17-0.86,0.25-1.28l3.83-3.9 C210.9359,182.1352,212.9559,181.6652,214.1259,183.1252z"/>
                    <path fill="#1B1F77" d="M212.9859,238.9452c-1.1,1.54-2.2,3.08-3.3,4.61l-2.76-4.45c-0.01-0.01-0.01-0.02-0.01-0.02 c-0.01-0.02-0.01-0.04-0.02-0.06l0.42-0.61C208.2359,238.7652,210.1559,239.2652,212.9859,238.9452z"/>
                    <path fill="#1B1F77" d="M209.8159,243.7552c-0.06-0.05-0.11-0.11-0.16-0.16v-0.01c0.01-0.01,0.02-0.02,0.03-0.03 L209.8159,243.7552z"/>
                    <path fill="#1B1F77" d="M209.6859,243.5552c-0.01,0.01-0.02,0.02-0.03,0.03c-0.02-0.01-0.03-0.02-0.03-0.03 c-0.07-0.07-0.13-0.14-0.19-0.21c-0.11-0.13-0.22-0.26-0.33-0.39c-0.03-0.04-0.05-0.07-0.08-0.11 c-0.07-0.08-0.14-0.17-0.19-0.25c-0.04-0.04-0.07-0.08-0.1-0.13c-0.02-0.02-0.03-0.04-0.04-0.05c-0.02-0.03-0.05-0.07-0.07-0.1 c-0.04-0.05-0.08-0.1-0.1-0.15c-0.05-0.06-0.09-0.12-0.12-0.18c-0.05-0.05-0.08-0.1-0.1-0.14c-0.02-0.03-0.04-0.06-0.05-0.08 c-0.02-0.03-0.04-0.05-0.05-0.08c-0.01-0.01-0.02-0.02-0.02-0.03c-0.06-0.09-0.11-0.18-0.16-0.26 c-0.14-0.23-0.27-0.46-0.37-0.67c-0.04-0.06-0.07-0.13-0.11-0.2c-0.25-0.49-0.44-0.93-0.58-1.31c-0.01-0.04-0.03-0.08-0.04-0.11 L209.6859,243.5552z"/>
                    <path fill="#1B1F77" d="M209.4359,243.3452c0.06,0.07,0.12,0.14,0.19,0.21 C209.5559,243.4852,209.4959,243.4152,209.4359,243.3452z"/>
                    <path fill="#1B1F77" d="M209.0259,242.8452c0.03,0.04,0.05,0.07,0.08,0.11 C209.0759,242.9252,209.0459,242.8852,209.0259,242.8452z"/>
                    <path fill="#1B1F77" d="M209.0259,242.8452c-0.08-0.1-0.16-0.2-0.24-0.3c0.01,0.01,0.03,0.03,0.05,0.05 C208.8859,242.6752,208.9559,242.7652,209.0259,242.8452z"/>
                    <path fill="#1B1F77" d="M208.7359,242.4652c0.03,0.05,0.06,0.09,0.1,0.13c-0.02-0.02-0.04-0.04-0.05-0.05 C208.7659,242.5152,208.7459,242.4852,208.7359,242.4652z"/>
                    <path fill="#1B1F77" d="M208.6259,242.3152c0.02,0.03,0.05,0.07,0.07,0.1 C208.6659,242.3752,208.6459,242.3452,208.6259,242.3152z"/>
                    <path fill="#1B1F77" d="M208.4059,241.9852c0.03,0.06,0.07,0.12,0.12,0.18c-0.03-0.03-0.05-0.06-0.07-0.09 C208.4359,242.0452,208.4059,242.0152,208.4059,241.9852z"/>
                    <path fill="#1B1F77" d="M208.4059,241.9852c0,0.03,0.03,0.06,0.05,0.09c-0.05-0.08-0.1-0.15-0.15-0.23 C208.3259,241.8852,208.3559,241.9352,208.4059,241.9852z"/>
                    <path d="M208.4159,192.1852c0.03,0.29,0.02,0.61-0.02,0.96l-3.1,3.18l1.15-6.69c0.07,0.03,0.13,0.06,0.2,0.09 c0.35,0.17,0.68,0.37,0.96,0.65c0.29,0.27,0.52,0.61,0.67,1.06C208.3459,191.6552,208.3959,191.9052,208.4159,192.1852z"/>
                    <path fill="#1B1F77" d="M208.2059,241.6852c0.01,0.03,0.03,0.05,0.05,0.08 C208.2359,241.7352,208.2159,241.7052,208.2059,241.6852z"/>
                    <path fill="#1B1F77" d="M208.0259,241.3952c0.05,0.08,0.1,0.17,0.16,0.26 C208.1259,241.5652,208.0659,241.4753,208.0259,241.3952z"/>
                    <path fill="#1B1F77" d="M207.9959,180.5853c0.04-0.02,0.09-0.04,0.13-0.06c-0.32,1.75-0.66,3.59-1.02,5.51l-0.06,0.06 L207.9959,180.5853z"/>
                    <path fill="#1B1F77" d="M207.5459,240.5252c0.04,0.07,0.07,0.14,0.11,0.2 C207.6059,240.6552,207.5759,240.5853,207.5459,240.5252z"/>
                    <path fill="#1B1F77" d="M207.3159,238.4152l-0.42,0.61c-0.23-0.65-0.31-1.05-0.31-1.05c0.04,0.06,0.07,0.11,0.1,0.17 C206.6859,238.1452,206.8959,238.2652,207.3159,238.4152z"/>
                    <path fill="#1B1F77" d="M207.1059,186.0352c-0.08,0.42-0.17,0.85-0.25,1.28c-0.07,0.36-0.14,0.72-0.2,1.07l0.39-2.29 L207.1059,186.0352z"/>
                    <path fill="#1B1F77" d="M207.0459,186.0952l-0.39,2.29c-0.08,0.42-0.16,0.83-0.23,1.24c-0.27-0.13-0.55-0.24-0.8-0.35h-0.01 l0.27-2L207.0459,186.0952z"/>
                    <path fill="#1B1F77" d="M206.9259,239.1052c0.01,0.03,0.03,0.07,0.04,0.11 C206.9459,239.1752,206.9359,239.1352,206.9259,239.1052z"/>
                    <path d="M206.4259,189.6252c0.07-0.41,0.15-0.82,0.23-1.24l-0.21,1.25C206.4459,189.6252,206.4359,189.6252,206.4259,189.6252z"/>
                    <path d="M206.4459,189.6352l-1.15,6.69l-0.02,0.02c0.33-2.15,0.71-4.39,1.15-6.72 C206.4359,189.6252,206.4459,189.6252,206.4459,189.6352z"/>
                    <path fill="#1B1F77" d="M205.6259,189.2752c0.25,0.11,0.53,0.22,0.8,0.35c-0.44,2.33-0.82,4.57-1.15,6.72l-0.71,0.72 L205.6259,189.2752z"/>
                    <path fill="#1B1F77" d="M205.0459,197.7552l0.08-0.46c-0.03,0.15-0.05,0.3-0.07,0.45 C205.0559,197.7552,205.0459,197.7552,205.0459,197.7552z"/>
                    <path fill="#1B1F77" d="M203.3859,224.4952l-0.49,0.66c0,0-0.63-9.06-0.13-9.98l0.57-0.74 C203.1659,218.2152,203.1859,221.5552,203.3859,224.4952z"/>
                    <path fill="#1B1F77" d="M197.4159,141.2652c0.01,0.43,0.01,0.89-0.03,1.43c-0.01,0.2-0.03,0.41-0.05,0.63 c-0.11,1.25-0.34,2.89-0.74,5.28c0.53-4.09,0.86-7.02,0.77-7.34c0,0-0.75-0.24-2.43-0.17l2.03-2.9 c0.08,0.38,0.15,0.72,0.21,1.04c0.09,0.49,0.15,0.95,0.2,1.41c0.01,0.16,0.02,0.31,0.04,0.47 C197.4059,141.1652,197.4159,141.2152,197.4159,141.2652z"/>
                    <path fill="#1B1F77" d="M197.4159,141.1152c-0.02-0.16-0.03-0.31-0.04-0.47c-0.05-0.46-0.11-0.92-0.2-1.41 c-0.06-0.32-0.13-0.66-0.21-1.04l-2.03,2.9c-2.41,0.08-6.75,0.79-13.57,3.72l4.54-6.05c0,0-0.44-1.89-1.93-2.89 c-1.49-1-4.25,0.23-4.25,0.23l-11.96,15.83c-5.69,3.32-11.4,6.51-16.92,9.43c0.03-0.2,0.06-0.39,0.08-0.58 c0.03-0.17,0.06-0.33,0.08-0.49l3.11-3.29l6.58-6.96c0,0-0.21-2.75-1.54-3.64c-1.34-0.9-3.01-0.43-3.01-0.43l-3.49,4.93 c0.06-0.3,0.11-0.58,0.16-0.82c0.03-0.15,0.06-0.3,0.08-0.43c0.13-0.62,0.2-0.95,0.2-0.95s0.01-0.07,0.03-0.21 c0.01-0.05,0.01-0.09,0.02-0.15c0.02-0.12,0.04-0.26,0.06-0.43c0.09-0.69,0.24-1.78,0.41-3.14c0.05-0.35,0.09-0.7,0.14-1.08 c13.16-6.58,23.93-11.8,25.43-12.22c0.41-0.11,1.05-0.38,1.87-0.73C196.1159,125.9852,197.3259,138.9952,197.4159,141.1152z"/>
                    <path d="M197.3659,141.2652c0.09,0.32-0.24,3.25-0.77,7.34c0,0.03,0,0.05-0.01,0.08c-0.02,0.1-0.03,0.21-0.05,0.31l-6.37,8.95 l-6.38,8.95l-4.7,6.6l-0.01-0.01l-4.52,1.49l-0.04-4.73l7.19-10.26v-0.02l7.63-10.89l5.6-7.98 C196.6159,141.0252,197.3659,141.2652,197.3659,141.2652z"/>
                    <path fill="#1B1F77" d="M194.3659,168.5252l1.03,7.63l-3.45,5.23c0.25-1.68,0.41-2.67,0.41-2.67s0.58-3.91,1.34-9.21 L194.3659,168.5252z"/>
                    <path d="M187.2459,178.9152l6.45-9.41c-0.76,5.3-1.34,9.21-1.34,9.21s-0.16,0.99-0.41,2.67l-0.33,0.51 C191.3059,180.9252,191.2759,177.6452,187.2459,178.9152z"/>
                    <path d="M191.6159,181.8952l-6.15,9.32c-3.33,1.55-6.64,3.08-9.74,4.49l11.52-16.79c0.02,0.42,0.13,0.9,0.32,1.34 c0.2,0.45,0.48,0.87,0.85,1.2c0.18,0.17,0.39,0.32,0.61,0.44c0.23,0.11,0.48,0.2,0.74,0.24c0.27,0.05,0.55,0.06,0.86,0.02 C190.9359,182.1152,191.2659,182.0352,191.6159,181.8952z"/>
                    <path fill="#1B1F77" d="M190.9359,188.6552c0.03-0.02,0.07-0.03,0.1-0.05c-0.72,6.27-1.47,12.09-1.96,17.63 c-0.01,0-0.01,0.01-0.02,0.01C189.4759,200.4052,190.2459,193.8852,190.9359,188.6552z"/>
                    <path d="M191.6159,181.8952c-0.35,0.14-0.68,0.22-0.99,0.26c-0.31,0.04-0.59,0.03-0.86-0.02c-0.26-0.04-0.51-0.13-0.74-0.24 c-0.22-0.12-0.43-0.27-0.61-0.44c-0.37-0.33-0.65-0.75-0.85-1.2c-0.19-0.44-0.3-0.92-0.32-1.34 C191.2759,177.6452,191.3059,180.9252,191.6159,181.8952z"/>
                    <path fill="#1B1F77" d="M149.7359,207.5352c0,0-6.07-2.94-7.62-3.98c-1.55-1.04-7.11-8.31-7.82-21.64 c-0.17-3.17,0.06-7.66,0.5-12.66c0.02-0.25,0.05-0.51,0.07-0.78c0.02-0.21,0.04-0.4,0.05-0.58c0.03-0.2,0.04-0.4,0.06-0.61 c0.23-2.38,0.51-4.86,0.8-7.34c0.03-0.21,0.06-0.42,0.08-0.63c0.01-0.07,0.02-0.14,0.03-0.21h-0.01 c1.34-10.92,3.1-21.81,3.75-25.74c0.17-0.99,0.26-1.54,0.26-1.54s0.84-6.72,1.57-13.96l2.67-4.15l-0.76-10.4l-0.91,1.45 c0.06-1.78,0.03-3.17-0.12-3.92c0,0-1.33-0.16-5.71,1.44l1.96-2.51c0,0-0.49-1.81-1.82-2.7s-2.86-0.66-2.86-0.66l-8.6,10.93 c-5.01,2.55-11.41,6.07-19.54,10.97l13.14-10.03c0,0,1.92-2.69,0.87-4.19c-1.04-1.49-3.64-0.83-3.64-0.83l-19.83,14.55 l-2.2,1.62l-1.16-3.38l-1.54-4.52c2.01-1.04,4.11-2.14,6.34-3.34l31.51-16.83c0,0,6.29-4.65,11.73-1.23 c5.44,3.42,6.85,5.05,9.57,6.41c2.72,1.37,5.5,4.36,6.37,10.86c0.67,4.95-1.91,26.41-3.17,36.29c-0.05,0.38-0.09,0.73-0.14,1.08 c-0.18,1.39-0.33,2.47-0.41,3.14c-0.02,0.17-0.04,0.31-0.06,0.43c-0.01,0.06-0.02,0.11-0.02,0.15 c-0.02,0.14-0.03,0.21-0.03,0.21s-0.07,0.33-0.2,0.95c-0.02,0.13-0.05,0.27-0.08,0.43c-0.05,0.24-0.1,0.52-0.16,0.82h-0.01 l-0.49,0.7l-0.37,2.54l-0.89,6.27l0.11-0.12c-0.02,0.16-0.05,0.32-0.08,0.49c-0.72,4.7-1.44,10.28-1.84,15.85l-0.43,0.57 c-1.23,2.02-0.13,11.4-0.13,11.4l0.31-0.41c0.22,5.12,1.01,9.56,2.67,12.41c0,0,0.17,0.37,0.59,0.84 c0.03,0.08,0.08,0.26,0.17,0.51l-0.01,0.02c0.19,0.51,0.4,0.99,0.63,1.44c0.06,0.14,0.13,0.28,0.21,0.41 c0.07,0.15,0.15,0.29,0.23,0.43c0.95,1.7,1.9,2.7,1.9,2.7l2.8-3.93c0.44-0.07,0.9-0.18,1.39-0.32c2.02-0.57,8.49-3.42,16.31-7 l-5.97,8.71c0,0,0.43,2.23,1.52,2.96c1.1,0.74,3.28,0.38,3.28,0.38l10.91-16.54c1.83-0.86,3.66-1.71,5.47-2.56 c-0.69,5.23-1.46,11.75-1.88,17.59c-11.42,5.51-25.3,10.91-30.48,7.53C150.0059,208.1852,149.7359,207.5352,149.7359,207.5352z"/>
                    <path d="M185.9059,138.7652l-4.54,6.05c-3.39,1.46-7.39,3.47-12.08,6.23c-0.51,0.3-1.01,0.6-1.52,0.89l11.96-15.83 c0,0,2.76-1.23,4.25-0.23C185.4659,136.8752,185.9059,138.7652,185.9059,138.7652z"/>
                    <path d="M185.4659,191.2152l-10.91,16.54c0,0-2.18,0.36-3.28-0.38c-1.09-0.73-1.52-2.96-1.52-2.96l5.97-8.71 C178.8259,194.2952,182.1359,192.7652,185.4659,191.2152z"/>
                    <path d="M181.3659,144.8152l-14.97,19.97l-0.01-0.01l-0.56-4.98l-5.02,1.35l6.96-9.21c0.51-0.29,1.01-0.59,1.52-0.89 C173.9759,148.2852,177.9759,146.2752,181.3659,144.8152z"/>
                    <path d="M179.0859,173.4952l-8.06,11.3l-0.02-0.01l-6.11,8.58l-6.87,9.66c-2.43,0.42-4.04-0.12-5.04-0.8 c-0.22-0.15-0.41-0.31-0.58-0.46l10.24-14.59l3.81-5.43l6.58-9.38l1.48-2.12l0.04,4.73l4.52-1.49L179.0859,173.4952z"/>
                    <path d="M166.3959,164.7852l-17.56,23.41c-0.16-3.62-0.03-7.58,0.25-11.56l11.72-15.49l5.02-1.35l0.56,4.98L166.3959,164.7852z"/>
                    <path fill="#1B1F77" d="M160.6959,150.0452l-6.58,6.96c0.04-0.23,0.04-0.45,0-0.66c-0.04-0.21-0.11-0.4-0.21-0.59 c-0.2-0.37-0.5-0.7-0.81-0.96c-0.31-0.26-0.64-0.45-0.88-0.57c-0.06-0.03-0.12-0.05-0.17-0.07c0.03-0.17,0.06-0.34,0.09-0.5 c0.03-0.17,0.06-0.32,0.09-0.48c0.05-0.31,0.11-0.6,0.16-0.88c0.03-0.14,0.05-0.28,0.08-0.41c0.06-0.32,0.12-0.62,0.17-0.89 c0-0.03,0.01-0.06,0.02-0.09l3.49-4.93c0,0,1.67-0.47,3.01,0.43C160.4859,147.2952,160.6959,150.0452,160.6959,150.0452z"/>
                    <path d="M158.0259,203.0252l-2.8,3.93c0,0-0.95-1-1.9-2.7c-0.08-0.14-0.16-0.29-0.23-0.43c-0.08-0.13-0.15-0.27-0.21-0.41 c-0.29-0.6-0.49-1.1-0.62-1.46l0.14-0.19c0.17,0.15,0.36,0.31,0.58,0.46C153.9859,202.9052,155.5959,203.4452,158.0259,203.0252 z"/>
                    <path fill="#1B1F77" d="M154.1159,156.3452c0.04,0.21,0.04,0.43,0,0.66l-3.11,3.29c0.09-0.54,0.17-1.06,0.26-1.58 c0.03-0.21,0.07-0.42,0.1-0.62c0.07-0.42,0.13-0.82,0.2-1.22c0.12-0.7,0.24-1.38,0.35-2.01c0.04-0.24,0.09-0.48,0.13-0.71 c0.05,0.02,0.11,0.04,0.17,0.07c0.24,0.12,0.57,0.31,0.88,0.57c0.31,0.26,0.61,0.59,0.81,0.96 C154.0059,155.9452,154.0759,156.1352,154.1159,156.3452z"/>
                    <path d="M153.0959,203.8252c0.07,0.14,0.15,0.29,0.23,0.43C153.2459,204.1152,153.1659,203.9753,153.0959,203.8252z"/>
                    <path fill="#1B1F77" d="M152.8959,149.6552c-0.02,0.13-0.05,0.28-0.08,0.43 C152.8459,149.9252,152.8759,149.7852,152.8959,149.6552z"/>
                    <path fill="#1B1F77" d="M152.6559,150.9052c-0.01,0.03-0.02,0.06-0.02,0.09c0-0.03,0.01-0.06,0.01-0.09H152.6559z"/>
                    <path d="M152.1559,151.6052l0.49-0.7c0,0.03-0.01,0.06-0.01,0.09c-0.05,0.27-0.11,0.57-0.17,0.89 c-0.03,0.13-0.06,0.27-0.08,0.41c-0.05,0.28-0.11,0.57-0.16,0.88c-0.04,0.15-0.06,0.32-0.09,0.48s-0.06,0.33-0.09,0.5 c-0.15-0.05-0.25-0.06-0.26-0.01L152.1559,151.6052z"/>
                    <path d="M152.8859,203.4152c-0.23-0.45-0.44-0.93-0.63-1.44l0.01-0.02C152.3959,202.3152,152.5959,202.8152,152.8859,203.4152z"/>
                    <path d="M152.4659,151.8852c-0.03,0.13-0.05,0.27-0.08,0.41C152.4059,152.1552,152.4359,152.0152,152.4659,151.8852z"/>
                    <path d="M152.4059,201.7652l-0.14,0.19c-0.09-0.25-0.14-0.43-0.17-0.51C152.1859,201.5452,152.2859,201.6552,152.4059,201.7652z"/>
                    <path d="M152.2259,153.1752c-0.03,0.16-0.06,0.31-0.09,0.48C152.1659,153.4952,152.1859,153.3252,152.2259,153.1752z"/>
                    <path d="M152.0459,154.1552c-0.04,0.23-0.09,0.47-0.13,0.71c-0.12,0.63-0.23,1.3-0.35,2.01c-0.07,0.4-0.13,0.8-0.2,1.22 c-0.04,0.2-0.07,0.41-0.1,0.62c-0.09,0.52-0.17,1.04-0.26,1.58l-0.11,0.12l0.89-6.27 C151.7959,154.0952,151.8959,154.1052,152.0459,154.1552z"/>
                    <path d="M151.9159,154.8652c-0.11,0.63-0.23,1.31-0.35,2.01C151.6859,156.1652,151.7959,155.4952,151.9159,154.8652z"/>
                    <path d="M151.3659,158.0952c-0.03,0.2-0.07,0.41-0.1,0.62C151.2959,158.5052,151.3259,158.2952,151.3659,158.0952z"/>
                    <path d="M148.6559,177.2052l0.43-0.57c-0.28,3.98-0.41,7.94-0.25,11.56l-0.31,0.41 C148.5259,188.6052,147.4259,179.2253,148.6559,177.2052z"/>
                    <path fill="#1B1F77" d="M143.3659,103.3152l0.76,10.4l-2.67,4.15c0.47-4.71,0.9-9.65,1-13.1L143.3659,103.3152z"/>
                    <path d="M122.9659,135.8852l19.49-31.12c-0.1,3.45-0.53,8.39-1,13.1l-5.94,9.23l-7.72,11.98c0-0.37-0.05-0.72-0.11-1.04 c-0.07-0.32-0.17-0.6-0.29-0.86c-0.13-0.26-0.29-0.49-0.46-0.69c-0.18-0.2-0.37-0.36-0.58-0.5c-0.22-0.13-0.47-0.24-0.72-0.32 c-0.26-0.07-0.52-0.11-0.81-0.12c-0.29-0.01-0.58,0.02-0.89,0.07C123.6259,135.6752,123.2959,135.7552,122.9659,135.8852z"/>
                    <path d="M139.6259,133.3652l-2.8,15.16c-0.03-0.01-0.07-0.01-0.1-0.02l0.04-0.37c-0.66-0.12-1.14-0.27-1.5-0.46 c-0.36-0.18-0.59-0.4-0.76-0.61c-0.28-0.37-0.33-0.46-0.48-0.69c-0.03-0.05-0.05-0.09-0.08-0.13L139.6259,133.3652z"/>
                    <path d="M138.5859,99.7752l-1.96,2.51c-2.59,0.94-6.24,2.5-11.32,5.06l8.6-10.93c0,0,1.53-0.23,2.86,0.66 S138.5859,99.7752,138.5859,99.7752z"/>
                    <path d="M136.7659,148.1352l-0.04,0.37c-0.61-0.12-1.06-0.26-1.4-0.44c-0.36-0.18-0.59-0.4-0.76-0.61 c-0.29-0.38-0.38-0.77-0.54-1.08c0.15,0.23,0.2,0.32,0.48,0.69c0.17,0.21,0.4,0.43,0.76,0.61 C135.6259,147.8652,136.1059,148.0152,136.7659,148.1352z"/>
                    <path d="M136.7259,148.5052l-0.88,7.99l-1.31,2.61c-1.66-0.8-2.98-4.18-4.82-3.24c-0.2,0.11-0.41,0.21-0.61,0.31l4.84-9.93 c0.03,0.04,0.05,0.08,0.08,0.13c0.16,0.31,0.25,0.7,0.54,1.08c0.17,0.21,0.4,0.43,0.76,0.61 C135.6659,148.2452,136.1159,148.3852,136.7259,148.5052z"/>
                    <path d="M136.6259,102.2852l-21.87,28.02l-4.59,1.52l-0.06-5.14l15.2-19.34 C130.3859,104.7852,134.0359,103.2252,136.6259,102.2852z"/>
                    <path d="M135.8859,159.1052c-0.01,0.07-0.02,0.14-0.03,0.21c0.01-0.07,0.02-0.14,0.02-0.21H135.8859z"/>
                    <path fill="#1B1F77" d="M82.0759,56.1252l-6.02,8.68l-4.68-4.12c0,0-3.02-3.39-0.82-6.56c0.32-0.45,0.74-0.9,1.29-1.33 c4.41-3.47,9.7-4.42,11.15-3.46c1.44,0.97,2.21,3.42,4.73,4.94c2.51,1.53,4.99,1.42,6.32,2.31c1.33,0.9,2.81,3,2.39,7.22 c-0.27,2.8-4.3,23.05-6.8,42.54l-0.73-2.13l-0.63,9.6l-0.27,4.06l-0.94,10.39c0.22-0.1,0.43-0.2,0.65-0.3 c-0.05,1.86-0.05,3.61,0,5.22c0.27,8.02,1.27,14.27,2.41,18.92l-0.1,0.13c-0.35,2.04,1.96,7.22,1.96,7.22l0.32-0.41 c1.06,2.69,1.88,3.94,1.88,3.94s4.19,1.2,11.54,0.45l-2.91,4.64c0,0,0.54,1.74,1.67,2.26c0.56,0.27,1.33,0.3,1.96,0.27 c0.63-0.03,1.13-0.14,1.13-0.14l5.32-8.26c4.69-1.1,10.14-2.97,16.21-6.03l-3.38,6.94c0,0-0.52,2.49,1.23,3.44 c1.75,0.94,3.82,0.05,3.82,0.05l3.76-7.5c0.42,0.21,0.86,0.25,1.34,0c0,0.07-0.01,0.14-0.02,0.21 c-0.02,0.21-0.05,0.42-0.08,0.63c-0.54,3.97-0.53,4.22-0.8,7.34c-0.02,0.21-0.03,0.41-0.06,0.61c-0.02,0.2-0.03,0.39-0.05,0.58 c-0.02,0.27-0.05,0.53-0.07,0.78c-7.32,3.26-13.53,5.45-17.71,5.95c-9.96,1.2-15.3,1.48-23.28-6.28c0,0-5.02-3.53-8.16-5.32 c-3.15-1.78-9.1-7.53-10.56-13.98c-0.79-3.47-1.6-9.87-2.08-16.09c0.01-0.01,0.01-0.01,0.02-0.01c-0.1-1.65-0.22-3.27-0.33-4.93 c0-0.09-0.01-0.17-0.01-0.26c-0.16-3.34-0.18-6.34,0-8.44c0.18-2.15,0.83-7.2,1.64-13.1c0.45-1.06,0.84-2.02,1.17-2.81 c0.53-1.28,1.96-4.73,1.96-4.73l0.9-15.42l-1.13,2.63c0.82-5.55,1.41-9.52,1.41-9.52l1.9-6.8l0.6-0.84c0,0,0.01-0.06,0.02-0.16 c0.03-0.14,0.06-0.37,0.1-0.67c0.03-0.15,0.05-0.32,0.07-0.51c0.02-0.09,0.03-0.19,0.04-0.29c0.04-0.3,0.09-0.64,0.13-1 c0.07-0.49,0.13-1.02,0.19-1.59c0.02-0.15,0.03-0.29,0.05-0.44c0.03-0.29,0.06-0.59,0.09-0.9c0.02-0.15,0.03-0.31,0.04-0.46 c0.05-0.47,0.09-0.95,0.12-1.43c0.03-0.32,0.05-0.65,0.07-0.97c0.02-0.32,0.03-0.65,0.05-0.97c0.01-0.32,0.02-0.64,0.03-0.96 c0.01-0.31,0.01-0.62,0.01-0.93c0-0.59-0.01-1.16-0.05-1.69c0-0.05,0-0.1-0.01-0.14c0-0.03,0-0.05,0-0.08L82.0759,56.1252z"/>
                    <path d="M134.8659,168.4753c0.02-0.19,0.03-0.38,0.05-0.58C134.9059,168.0752,134.8859,168.2652,134.8659,168.4753z"/>
                    <path d="M134.5359,159.1052l-3.76,7.5c0,0-2.07,0.89-3.82-0.05c-1.75-0.95-1.23-3.44-1.23-3.44l3.38-6.94 c0.2-0.1,0.41-0.2,0.61-0.31C131.5559,154.9252,132.8759,158.3052,134.5359,159.1052z"/>
                    <path d="M127.7959,139.0752l-14.9,23.13c-2.64,0.62-5.04,1.01-7.17,1.23l17.24-27.55c0.33-0.13,0.66-0.21,0.97-0.27 c0.31-0.05,0.6-0.08,0.89-0.07c0.29,0.01,0.55,0.05,0.81,0.12c0.25,0.08,0.5,0.19,0.72,0.32c0.21,0.14,0.4,0.3,0.58,0.5 c0.17,0.2,0.33,0.43,0.46,0.69c0.12,0.26,0.22,0.54,0.29,0.86C127.7459,138.3552,127.7959,138.7052,127.7959,139.0752z"/>
                    <path d="M119.7759,104.0952c1.05,1.5-0.87,4.19-0.87,4.19l-13.14,10.03c-0.2,0.11-0.4,0.24-0.61,0.36 c-1.1,0.67-2.19,1.31-3.25,1.92l0.21-3.63l-5.81,0.85l19.83-14.55C116.1359,103.2652,118.7359,102.6052,119.7759,104.0952z"/>
                    <path d="M114.7559,130.3052l-22.45,28.74c-0.69-1.72-1.46-4.01-2.18-6.94l19.98-25.42l0.06,5.14L114.7559,130.3052z"/>
                    <path d="M112.8959,162.2052l-5.32,8.26c0,0-0.5,0.11-1.13,0.14c-0.63,0.03-1.4,0-1.96-0.27c-1.13-0.52-1.67-2.26-1.67-2.26 l2.91-4.64C107.8559,163.2152,110.2559,162.8252,112.8959,162.2052z"/>
                    <path d="M105.7659,118.3152l-3.9,2.97l0.04-0.69c1.06-0.61,2.15-1.25,3.25-1.92 C105.3659,118.5552,105.5659,118.4252,105.7659,118.3152z"/>
                    <path d="M102.1159,116.9652l-0.21,3.63c-5.09,2.95-9.81,5.38-14.17,7.36v-0.77c0.04-1.03,0.09-2.1,0.16-3.2l1.03-0.75l0.35,0.77 l5.12-3.72l-0.29-0.85l2.2-1.62L102.1159,116.9652z"/>
                    <path d="M101.9059,120.5952l-0.04,0.69l-0.01,0.01l-14.11,10.77l-0.01-4.11 C92.0959,125.9752,96.8159,123.5452,101.9059,120.5952z"/>
                    <path d="M94.1059 119.4352L94.3959 120.2852 89.2759 124.0052 88.9259 123.2352z"/>
                    <path fill="#333333" d="M92.9459,116.0552l1.16,3.38l-5.18,3.8l-0.86-1.91c0.17-2.28,0.39-4.65,0.64-7.07 c0.11,0.12,0.23,0.23,0.34,0.33c0.36,0.31,0.72,0.59,1.08,0.83c0.36,0.24,0.72,0.44,1.08,0.58c0.36,0.13,0.71,0.21,1.07,0.21 C92.4959,116.2052,92.7259,116.1152,92.9459,116.0552z"/>
                    <path d="M91.4059,111.5352l1.54,4.52c-0.22,0.06-0.45,0.15-0.67,0.15c-0.36,0-0.71-0.08-1.07-0.21 c-0.36-0.14-0.72-0.34-1.08-0.58c-0.36-0.24-0.72-0.52-1.08-0.83c-0.11-0.1-0.23-0.21-0.34-0.33c0.05-0.48,0.1-0.96,0.16-1.44 C89.6959,112.4052,90.5359,111.9752,91.4059,111.5352z"/>
                    <path d="M92.3059,159.0452l-0.32,0.41c0,0-2.31-5.18-1.96-7.22l0.1-0.13C90.8459,155.0352,91.6159,157.3252,92.3059,159.0452z"/>
                    <path d="M89.6359,106.3452l1.77,5.19c-0.87,0.44-1.71,0.87-2.54,1.28C89.0959,110.6852,89.3559,108.5152,89.6359,106.3452z"/>
                    <path d="M88.9059,104.2152l0.73,2.13c-0.28,2.17-0.54,4.34-0.77,6.47c-0.14,0.07-0.28,0.14-0.42,0.21l-0.08,0.88 c-0.03-0.03-0.06-0.06-0.09-0.09L88.9059,104.2152z"/>
                    <path d="M88.0659,121.3252l0.86,1.91l-1.03,0.75C87.9459,123.1152,88.0059,122.2252,88.0659,121.3252z"/>
                    <path d="M88.4459,113.0252c0.14-0.07,0.28-0.14,0.42-0.21c-0.06,0.48-0.11,0.96-0.16,1.44c-0.12-0.11-0.23-0.24-0.34-0.35 L88.4459,113.0252z"/>
                    <path d="M88.3659,113.9052c0.11,0.11,0.22,0.24,0.34,0.35c-0.25,2.42-0.47,4.79-0.64,7.07l-0.25-0.57l0.19-2.88 L88.3659,113.9052z"/>
                    <path d="M88.3659,113.9052l-0.36,3.97l0.27-4.06C88.3059,113.8452,88.3359,113.8752,88.3659,113.9052z"/>
                    <path d="M87.8159,120.7552l0.25,0.57c-0.06,0.9-0.12,1.79-0.17,2.66l-0.16,0.12v3.08c0,0.27-0.01,0.53-0.02,0.78 c-0.22,0.1-0.43,0.2-0.65,0.3l0.94-10.39L87.8159,120.7552z"/>
                    <path d="M87.7359,124.1052l0.16-0.12c-0.07,1.1-0.12,2.17-0.16,3.2V124.1052z"/>
                    <path d="M87.7359,127.1852v0.77c-0.01,0.01-0.01,0.01-0.02,0.01C87.7259,127.7152,87.7359,127.4552,87.7359,127.1852z"/>
                    <path d="M81.1559,69.1452c-0.01,0.1-0.02,0.16-0.02,0.16l-0.6,0.84l0.32-1.13l-4.8-4.21l6.02-8.68 c0.01,0.03,0.01,0.05,0.01,0.07c0.01,0.04,0.01,0.09,0.01,0.14c0.03,0.54,0.05,1.1,0.05,1.69c0,0.31,0,0.62-0.01,0.93 c-0.01,0.32-0.02,0.64-0.03,0.96c-0.02,0.32-0.03,0.65-0.05,0.97c-0.02,0.32-0.05,0.65-0.07,0.97 c-0.04,0.48-0.08,0.96-0.12,1.43c-0.01,0.15-0.02,0.31-0.04,0.46c-0.03,0.31-0.06,0.61-0.09,0.9c-0.02,0.15-0.03,0.29-0.05,0.44 c-0.07,0.57-0.13,1.1-0.19,1.59c-0.05,0.36-0.09,0.7-0.13,1c-0.01,0.1-0.02,0.2-0.04,0.29c-0.03,0.19-0.05,0.36-0.07,0.51 C81.2059,68.7752,81.1759,69.0052,81.1559,69.1452z"/>
                    <path d="M82.1459,58.0252c0-0.59-0.02-1.15-0.05-1.69C82.1359,56.8652,82.1459,57.4352,82.1459,58.0252z"/>
                    <path d="M82.1359,58.9552c-0.01,0.32-0.02,0.64-0.03,0.96C82.1159,59.5952,82.1259,59.2752,82.1359,58.9552z"/>
                    <path d="M82.0859,56.1152c0,0.03,0,0.05,0,0.08c0-0.02,0-0.04-0.01-0.07L82.0859,56.1152z"/>
                    <path d="M82.0559,60.8852c-0.02,0.32-0.04,0.65-0.07,0.97C82.0059,61.5352,82.0359,61.2052,82.0559,60.8852z"/>
                    <path d="M81.9859,61.8552c-0.03,0.48-0.07,0.96-0.12,1.43C81.9059,62.8152,81.9459,62.3352,81.9859,61.8552z"/>
                    <path d="M81.8259,63.7452c-0.03,0.31-0.06,0.61-0.09,0.9C81.7659,64.3552,81.7959,64.0552,81.8259,63.7452z"/>
                    <path d="M81.6859,65.0852c-0.06,0.57-0.12,1.1-0.19,1.59C81.5559,66.1852,81.6159,65.6552,81.6859,65.0852z"/>
                    <path d="M81.4959,66.6752c-0.04,0.36-0.09,0.7-0.13,1C81.4059,67.3752,81.4459,67.0352,81.4959,66.6752z"/>
                    <path d="M81.3259,67.9652c-0.02,0.19-0.04,0.36-0.07,0.51C81.2759,68.3252,81.2959,68.1552,81.3259,67.9652z"/>
                    <path d="M81.2559,68.4752c-0.04,0.3-0.07,0.53-0.1,0.67C81.1759,69.0052,81.2059,68.7752,81.2559,68.4752z"/>
                    <path d="M80.8559 69.0152L80.5359 70.1452 63.5059 94.1852 58.9359 95.4952 58.1559 90.6152 76.0559 64.8052z"/>
                    <path d="M78.3559,83.8352l-0.9,15.42c0,0-1.43,3.45-1.96,4.73c-0.29,0.07-0.55,0.12-0.8,0.14c0.84-5.99,1.79-12.51,2.53-17.66 L78.3559,83.8352z"/>
                    <path d="M71.0159,100.9752l6.21-14.51c-0.74,5.15-1.69,11.67-2.53,17.66c-0.11,0.02-0.22,0.03-0.33,0.04 c-0.34,0.02-0.65,0.01-0.92-0.04c-0.28-0.04-0.52-0.11-0.73-0.22c-0.22-0.1-0.41-0.23-0.58-0.38c-0.33-0.3-0.57-0.69-0.75-1.13 C71.2159,101.9652,71.0959,101.4752,71.0159,100.9752z"/>
                    <path d="M74.6959,104.1252c0.25-0.02,0.51-0.07,0.8-0.14c-0.33,0.79-0.72,1.75-1.17,2.81 C74.4559,105.9152,74.5759,105.0252,74.6959,104.1252z"/>
                    <path d="M74.3659,104.1652c0.11-0.01,0.22-0.02,0.33-0.04c-0.12,0.9-0.24,1.79-0.37,2.67c-1.77,4.27-4.29,10.32-6.25,14.99 c-2.44,0.8-4.68,1.41-6.78,1.86l9.72-22.67c0.08,0.5,0.2,0.99,0.37,1.42c0.18,0.44,0.42,0.83,0.75,1.13 c0.17,0.15,0.36,0.28,0.58,0.38c0.21,0.11,0.45,0.18,0.73,0.22C73.7159,104.1752,74.0259,104.1852,74.3659,104.1652z"/>
                    <path d="M73.0259,133.5252c-0.01,0-0.01,0-0.02,0.01c-0.13-1.68-0.24-3.35-0.31-4.94 C72.8059,130.2552,72.9259,131.8752,73.0259,133.5252z"/>
                    <path d="M37.0859,130.0252c-1.87-1.12-3.01-1.94-3.01-1.94s-16.27-9.78-19.58-19.23c0,0-0.47-1.43,0.12-2.43 c0.28-0.44,0.77-0.81,1.63-0.9c1.79-0.18,8.74-0.08,10.08-2c0,0,0.88,14.1,9.41,19.41l-0.06,0.09c0,0,1.3,2.63,4.75,3.75 l1.34-1.9c0.29,0.03,0.59,0.04,0.9,0.05c6.63,0.13,12,0.17,18.63-1.28l-1.48,3.45c0,0-0.26,2.73,1.54,2.96 c1.88,0.24,3.38-0.79,3.75-1.34c0.13-0.18,1.35-3.08,2.97-6.93c1.43-0.48,2.94-1.02,4.53-1.63c-0.17,3.01-0.08,5.65,0.08,8.18 c0,0.09,0.01,0.17,0.01,0.26c0.07,1.59,0.18,3.26,0.31,4.94c-11.8,3.43-19.65,2.98-24.13,1.74c-4.6-1.26-8.95-3.56-11.73-5.22 C37.1259,130.0452,37.1059,130.0352,37.0859,130.0252z"/>
                    <path d="M68.0759,121.7852c-1.62,3.85-2.84,6.75-2.97,6.93c-0.37,0.55-1.87,1.58-3.75,1.34c-1.8-0.23-1.54-2.96-1.54-2.96 l1.48-3.45C63.3959,123.1952,65.6359,122.5852,68.0759,121.7852z"/>
                    <path d="M63.5059,94.1852l-21.74,30.69c-2.35-0.18-4.34-0.89-6.03-1.94l22.42-32.32l0.78,4.88L63.5059,94.1852z"/>
                    <path d="M41.7659,124.8752l-1.34,1.9c-3.45-1.12-4.75-3.75-4.75-3.75l0.06-0.09 C37.4259,123.9852,39.4159,124.6952,41.7659,124.8752z"/>
                </g>
                <g fill="none">
                    <path stroke="#663399" d="M134.0259,146.3752c0.16,0.31,0.25,0.7,0.54,1.08 c0.17,0.21,0.4,0.43,0.76,0.61c0.34,0.18,0.79,0.32,1.4,0.44c0.03,0.01,0.07,0.01,0.1,0.02l2.8-15.16l-5.68,12.88" stroke-linecap="round"/>
                    <path stroke="#663399" d="M134.0259,146.3752c-0.03-0.05-0.05-0.09-0.08-0.13l-4.84,9.93 l-3.38,6.94c0,0-0.52,2.49,1.23,3.44c1.75,0.94,3.82,0.05,3.82,0.05l3.76-7.5l1.31-2.61l0.88-7.99" stroke-linecap="round"/>
                    <path stroke="#663399" d="M148.8359 188.1952L166.3959 164.7852" stroke-linecap="round"/>
                    <path stroke="#663399" d="M160.8059 161.1452L149.0859 176.6352" stroke-linecap="round"/>
                    <path stroke="#663399" d="M258.2659 260.1953L275.1659 237.8353" stroke-linecap="round"/>
                    <path stroke="#663399" d="M269.8559 234.3152L257.7159 250.1652" stroke-linecap="round"/>
                    <path stroke="#663399" d="M305.9159 237.0853L295.9059 251.7752" stroke-linecap="round"/>
                    <path stroke="#663399" d="M300.8859 255.0752L307.4259 245.8052" stroke-linecap="round"/>
                    <path stroke="#663399" d="M248.5459 205.6452L241.7659 215.3952" stroke-linecap="round"/>
                    <path stroke="#663399" d="M246.4359 218.5752L247.0159 217.7352" stroke-linecap="round"/>
                    <path stroke="#663399" d="M193.6959 169.5052L187.2459 178.9152" stroke-linecap="round"/>
                    <path stroke="#663399" d="M191.6159 181.8952L191.9459 181.3852" stroke-linecap="round"/>
                    <path stroke="#663399" d="M142.4559 104.7652L122.9659 135.8852" stroke-linecap="round"/>
                    <path stroke="#663399" d="M127.7959 139.0752L135.5159 127.0952 141.4559 117.8652" stroke-linecap="round"/>
                    <path stroke="#663399" d="M77.2259 86.4652L71.0159 100.9752" stroke-linecap="round"/>
                    <path stroke="#663399" d="M248.6959 177.7452L228.8559 206.8452" stroke-linecap="round"/>
                    <path stroke="#663399" d="M233.4959,210.1052c5.81-8.17,11.66-16.32,17.45-24.5" stroke-linecap="round"/>
                    <path stroke="#666666" d="M61.2959,123.6452 c-6.63,1.45-12,1.41-18.63,1.28c-0.31-0.01-0.61-0.02-0.9-0.05" stroke-linecap="round" stroke-linejoin="round"/>
                    <path stroke="#666666" d="M72.6859,128.3353 c-0.16-2.53-0.25-5.17-0.08-8.18c-1.59,0.61-3.1,1.15-4.53,1.63" stroke-linecap="round" stroke-linejoin="round"/>
                    <path stroke="#666666" d="M37.1459,130.0552 c2.78,1.66,7.13,3.96,11.73,5.22c4.48,1.24,12.33,1.69,24.13-1.74" stroke-linecap="round" stroke-linejoin="round"/>
                    <path stroke="#666666" d="M35.7359,122.9352 c-8.53-5.31-9.41-19.41-9.41-19.41c-1.34,1.92-8.29,1.82-10.08,2c-0.86,0.09-1.35,0.46-1.63,0.9c-0.59,1-0.12,2.43-0.12,2.43 c3.31,9.45,19.58,19.23,19.58,19.23s1.14,0.82,3.01,1.94" stroke-linecap="round" stroke-linejoin="round"/>
                    <path stroke="#663399" d="M153.7559,143.6952c1.26-9.88,3.84-31.34,3.17-36.29 c-0.87-6.5-3.65-9.49-6.37-10.86c-2.72-1.36-4.13-2.99-9.57-6.41c-5.44-3.42-11.73,1.23-11.73,1.23l-31.51,16.83 c-2.23,1.2-4.33,2.3-6.34,3.34" stroke-linecap="round"/>
                    <path stroke="#666666" d="M153.2059,147.9152 c0.08-0.67,0.23-1.75,0.41-3.14" stroke-linecap="round" stroke-linejoin="round"/>
                    <path stroke="#666666" d="M153.1259,148.4952 c0-0.04,0.01-0.09,0.02-0.15" stroke-linecap="round" stroke-linejoin="round"/>
                    <path stroke="#666666" d="M152.3859,152.2952 c0.02-0.14,0.05-0.28,0.08-0.41" stroke-linecap="round" stroke-linejoin="round"/>
                    <path stroke="#666666" d="M152.1359,153.6552 c0.03-0.16,0.05-0.33,0.09-0.48" stroke-linecap="round" stroke-linejoin="round"/>
                    <path stroke="#666666" d="M151.5659,156.8752 c0.12-0.71,0.23-1.38,0.35-2.01" stroke-linecap="round" stroke-linejoin="round"/>
                    <path stroke="#666666" d="M151.2659,158.7152 c0.03-0.21,0.06-0.42,0.1-0.62" stroke-linecap="round" stroke-linejoin="round"/>
                    <path stroke="#663399" d="M152.4059,201.7652c-0.12-0.11-0.22-0.22-0.31-0.32 c-0.42-0.47-0.59-0.84-0.59-0.84c-1.66-2.85-2.45-7.29-2.67-12.41c-0.16-3.62-0.03-7.58,0.25-11.56 c0.4-5.57,1.12-11.15,1.84-15.85" stroke-linecap="round"/>
                    <path stroke="#663399" d="M175.7259,195.7052c-7.82,3.58-14.29,6.43-16.31,7 c-0.49,0.14-0.95,0.25-1.39,0.32" stroke-linecap="round"/>
                    <path stroke="#663399" d="M190.9359,188.6552c-1.81,0.85-3.64,1.7-5.47,2.56" stroke-linecap="round"/>
                    <path stroke="#663399" d="M134.7959,169.2552c-0.44,5-0.67,9.49-0.5,12.66 c0.71,13.33,6.27,20.6,7.82,21.64c1.55,1.04,7.62,3.98,7.62,3.98s0.27,0.65,8.84,6.24c5.18,3.38,19.06-2.02,30.48-7.53" stroke-linecap="round"/>
                    <path stroke="#666666" d="M135.7759,159.9452c-0.29,2.48-0.57,4.96-0.8,7.34" stroke-linecap="round"/>
                    <path stroke="#663399" d="M136.6259,102.2852c4.38-1.6,5.71-1.44,5.71-1.44 c0.15,0.75,0.18,2.14,0.12,3.92c-0.1,3.45-0.53,8.39-1,13.1c-0.73,7.24-1.57,13.96-1.57,13.96s-0.09,0.55-0.26,1.54 c-0.65,3.93-2.41,14.82-3.75,25.74" stroke-linecap="round"/>
                    <path stroke="#663399" d="M105.7659,118.3152c8.13-4.9,14.53-8.42,19.54-10.97" stroke-linecap="round"/>
                    <path stroke="#666666" d="M87.7159,127.9652 c0.01,0,0.01,0,0.02-0.01" stroke-linecap="round" stroke-linejoin="round"/>
                    <path stroke="#663399" d="M232.4559,168.4952l-18.63,9.32c0,0-2.85,1.36-5.7,2.71" stroke-linecap="round"/>
                    <path stroke="#663399" d="M260.8859,273.9652c-1.05-1.89-1.99-8.35-2.62-13.77 c-0.52-4.42-0.83-8.15-0.83-8.15s0.1-0.67,0.28-1.88c1.37-9.41,7.48-51.24,8.28-57.12c0.91-6.62-0.55-15.48-1.21-18.34 c-0.66-2.85-3.84-4.34-5.17-4.75c-1.33-0.41-5.21-3.01-6.09-4.08c-0.89-1.08-1.86-1.79-1.86-1.79 c-6.33-3.79-14.93,2.27-14.93,2.27l-4.25,2.12" stroke-linecap="round"/>
                    <path stroke="#666666" d="M285.2959,267.3452 c-5.31,2.96-11.25,6.14-13.64,6.95c-1.31,0.45-2.7,0.62-4.05,0.64" stroke-linecap="round" stroke-linejoin="round"/>
                    <path stroke="#666666" d="M258.8259,279.7152 c0,0,0.56,1.95,5.32,5.14c7.32,4.9,28.49-3.74,31.71-5.43c3.23-1.7,2.79-4.39,2.79-4.39l-0.19-12.67 c-0.19-1.22-1.06-1.35-1.86-1.2" stroke-linecap="round" stroke-linejoin="round"/>
                    <path stroke="#666666" d="M244.2559,240.8952 c-0.06,1.13-0.12,2.28-0.18,3.42c-0.37,7.7-0.41,15.15-0.02,17.92c0.73,5.15,4.01,12,6.89,13.93c2.8,1.88,7.57,3.45,7.87,3.54" stroke-linecap="round" stroke-linejoin="round"/>
                    <path stroke="#666666" d="M245.5259,227.8152 c-0.04,0.19-0.07,0.39-0.09,0.58c-0.05,0.31-0.09,0.62-0.13,0.94" stroke-linecap="round" stroke-linejoin="round"/>
                    <path stroke="#663399" d="M252.0159,176.6252c0.04,0,0.06,0,0.06,0 c-0.22,1.52-0.63,4.78-1.13,8.98c-0.68,5.66-1.55,13.01-2.4,20.04c-0.53,4.31-1.05,8.49-1.53,12.09 c-0.33,2.46-0.63,4.64-0.9,6.42" stroke-linecap="round"/>
                    <path stroke="#663399" d="M235.7859,181.4152c6.29-3.02,10.8-4.15,13.46-4.56" stroke-linecap="round"/>
                    <path stroke="#663399" d="M205.0559,197.7452c0.38-0.22,0.96-0.55,0.96-0.55 s7.31-3.65,17.46-9.16" stroke-linecap="round"/>
                    <path stroke="#666666" d="M205.2959 196.3252L205.1259 197.2952" stroke-linecap="round" stroke-linejoin="round"/>
                    <path stroke="#663399" d="M205.2759 196.3452L205.2959 196.3252 208.3959 193.1452" stroke-linecap="round"/>
                    <path stroke="#663399" d="M94.1059 119.4352L92.9459 116.0552" stroke-linecap="round"/>
                    <path stroke="#663399" d="M88.0659 121.3252L88.9259 123.2352" stroke-linecap="round"/>
                    <path stroke="#663399" d="M88.7059,114.2552c0.11,0.12,0.23,0.23,0.34,0.33 c0.36,0.31,0.72,0.59,1.08,0.83c0.36,0.24,0.72,0.44,1.08,0.58c0.36,0.13,0.71,0.21,1.07,0.21c0.22,0,0.45-0.09,0.67-0.15 l-1.54-4.52l-1.77-5.19" stroke-linecap="round"/>
                    <path stroke="#663399" d="M74.6959,104.1252c-0.11,0.02-0.22,0.03-0.33,0.04 c-0.34,0.02-0.65,0.01-0.92-0.04c-0.28-0.04-0.52-0.11-0.73-0.22c-0.22-0.1-0.41-0.23-0.58-0.38c-0.33-0.3-0.57-0.69-0.75-1.13 c-0.17-0.43-0.29-0.92-0.37-1.42l-9.72,22.67l-1.48,3.45c0,0-0.26,2.73,1.54,2.96c1.88,0.24,3.38-0.79,3.75-1.34 c0.13-0.18,1.35-3.08,2.97-6.93c1.96-4.67,4.48-10.72,6.25-14.99" stroke-linecap="round"/>
                    <path stroke="#663399" d="M206.4259,189.6252c0.01,0,0.02,0,0.02,0.01 c0.07,0.03,0.13,0.06,0.2,0.09c0.35,0.17,0.68,0.37,0.96,0.65c0.29,0.27,0.52,0.61,0.67,1.06c0.07,0.22,0.12,0.47,0.14,0.75 c0.03,0.29,0.02,0.61-0.02,0.96l6.24-6.37c0,0,0.67-2.18-0.51-3.65c-1.17-1.46-3.19-0.99-3.19-0.99l-3.83,3.9" stroke-linecap="round"/>
                    <path stroke="#666666" d="M87.8959,123.9852c0.05-0.87,0.11-1.76,0.17-2.66 c0.17-2.28,0.39-4.65,0.64-7.07c0.05-0.48,0.1-0.96,0.16-1.44c0.23-2.13,0.49-4.3,0.77-6.47c2.5-19.49,6.53-39.74,6.8-42.54 c0.42-4.22-1.06-6.32-2.39-7.22c-1.33-0.89-3.81-0.78-6.32-2.31c-2.52-1.52-3.29-3.97-4.73-4.94 c-1.45-0.96-6.74-0.01-11.15,3.46c-0.55,0.43-0.97,0.88-1.29,1.33c-2.2,3.17,0.82,6.56,0.82,6.56l4.68,4.12" stroke-linecap="round"/>
                    <path stroke="#666666" d="M90.1259,152.1052c-1.14-4.65-2.14-10.9-2.41-18.92 c-0.05-1.61-0.05-3.36,0-5.22c0.01-0.25,0.02-0.51,0.02-0.78" stroke-linecap="round"/>
                    <path stroke="#663399" d="M105.7259,163.4352c-7.35,0.75-11.54-0.45-11.54-0.45 s-0.82-1.25-1.88-3.94" stroke-linecap="round"/>
                    <path stroke="#663399" d="M129.1059,156.1752c-6.07,3.06-11.52,4.93-16.21,6.03" stroke-linecap="round"/>
                    <path stroke="#663399" d="M80.5359,70.1452l-1.9,6.8c0,0-0.59,3.97-1.41,9.52 c-0.74,5.15-1.69,11.67-2.53,17.66c-0.12,0.9-0.24,1.79-0.37,2.67c-0.81,5.9-1.46,10.95-1.64,13.1c-0.18,2.1-0.16,5.1,0,8.44 c0,0.09,0.01,0.17,0.01,0.26c0.07,1.59,0.18,3.26,0.31,4.94c0.48,6.22,1.29,12.62,2.08,16.09c1.46,6.45,7.41,12.2,10.56,13.98 c3.14,1.79,8.16,5.32,8.16,5.32c7.98,7.76,13.32,7.48,23.28,6.28c4.18-0.5,10.39-2.69,17.71-5.95c0.02-0.25,0.05-0.51,0.07-0.78 c0.02-0.21,0.04-0.4,0.05-0.58c0.03-0.2,0.04-0.4,0.06-0.61c0.27-3.12,0.26-3.37,0.8-7.34c0.03-0.21,0.06-0.42,0.08-0.63" stroke-linecap="round"/>
                    <path stroke="#663399" d="M203.3359,214.4352c0.21-4.83,0.77-10.38,1.72-16.69 c0.02-0.15,0.04-0.3,0.07-0.45c0.04-0.31,0.09-0.63,0.15-0.95c0.33-2.15,0.71-4.39,1.15-6.72c0.07-0.41,0.15-0.82,0.23-1.24 c0.06-0.35,0.13-0.71,0.2-1.07c0.08-0.43,0.17-0.86,0.25-1.28c0.36-1.92,0.7-3.76,1.02-5.51c4.21-23.35,4.21-33.05,2.84-38.68 c-1.51-6.15-4.4-8.08-7.17-8.98c-2.78-0.89-3.62-2.26-7.65-5.12c-3.34-2.37-11.16,1.29-15.09,3c-0.82,0.35-1.46,0.62-1.87,0.73 c-1.5,0.42-12.27,5.64-25.43,12.22c-0.05,0.38-0.09,0.73-0.14,1.08c-0.17,1.36-0.32,2.45-0.41,3.14 c-0.02,0.17-0.04,0.31-0.06,0.43c-0.01,0.06-0.01,0.1-0.02,0.15c-0.02,0.14-0.03,0.21-0.03,0.21s-0.07,0.33-0.2,0.95 c-0.02,0.13-0.05,0.27-0.08,0.43c-0.05,0.24-0.1,0.52-0.16,0.82h-0.01c0,0.03-0.01,0.06-0.01,0.09 c-0.05,0.27-0.11,0.57-0.17,0.89c-0.03,0.13-0.05,0.27-0.08,0.41c-0.05,0.28-0.11,0.57-0.16,0.88 c-0.03,0.16-0.06,0.31-0.09,0.48c-0.03,0.16-0.06,0.33-0.09,0.5c-0.04,0.23-0.09,0.47-0.13,0.71c-0.11,0.63-0.23,1.31-0.35,2.01 c-0.07,0.4-0.13,0.8-0.2,1.22c-0.03,0.2-0.07,0.41-0.1,0.62c-0.09,0.52-0.17,1.04-0.26,1.58c-0.02,0.16-0.05,0.32-0.08,0.49 c-0.02,0.19-0.05,0.38-0.08,0.58c5.52-2.92,11.23-6.11,16.92-9.43" stroke-linecap="round"/>
                    <path stroke="#663399" d="M207.3159,238.4152c-0.42-0.15-0.63-0.27-0.63-0.27c-0.03-0.06-0.06-0.11-0.1-0.17 c-1.61-2.88-2.78-7.29-3.2-13.48"/>
                    <path stroke="#663399" d="M230.3859,231.7652c-4.08,1.99-7.4,3.63-9.32,4.6 c-3.21,1.63-5.91,2.34-8.08,2.58" stroke-linecap="round"/>
                    <path stroke="#663399" d="M196.5859,148.6852c-0.78,5.98-1.97,14.41-2.89,20.82 c-0.76,5.3-1.34,9.21-1.34,9.21s-0.16,0.99-0.41,2.67c-0.26,1.77-0.62,4.31-1.01,7.27c-0.69,5.23-1.46,11.75-1.88,17.59 c-0.23,2.97-0.36,5.77-0.34,8.13c0.08,12.1,3.68,22.55,6.93,24.89c3.26,2.34,9.28,5.1,9.28,5.1 c13.22,15.29,37.73-2.69,37.73-2.69s1.2-0.58,1.6-0.78h0.01c0.02-0.34,0.04-0.68,0.06-1.02c0.09-1.39,0.19-2.77,0.3-4.1 c0.05-0.57,0.1-1.14,0.15-1.69c0.12-1.28,0.25-2.5,0.39-3.64c0.02-0.23,0.05-0.46,0.08-0.68c0.02-0.15,0.04-0.29,0.06-0.43 c0.04-0.32,0.08-0.64,0.13-0.94c0.03-0.2,0.06-0.39,0.09-0.58c0.06-0.39,0.12-0.77,0.18-1.12c0.06-0.35,0.13-0.74,0.2-1.17 c0.07-0.42,0.15-0.89,0.23-1.38c-0.01,0-0.01,0.01-0.02,0.01c-1.75,0.85-3.51,1.69-5.23,2.52" stroke-linecap="round"/>
                    <path stroke="#663399" d="M181.3659,144.8152c6.82-2.93,11.16-3.64,13.57-3.72" stroke-linecap="round"/>
                    <path stroke="#666666" d="M307.8659,218.0652c-0.41,5.56-1.31,13.75-1.95,19.02 c-0.28,2.32-0.51,4.06-0.63,4.78c-0.43,2.56,1.41,3.63,2.14,3.94c0.18,0.08,0.29,0.11,0.29,0.11s7.37,1.27,10.11,0.99 c2.07-0.22,2.41-3.37,2.41-3.37c3.7-15.35,2.1-26.39,0.96-30.21c-1.14-3.82-6.35-6.84-9.02-8.14c-2.66-1.3-1.06-1.99-6.57-5.52 c-5.22-3.34-13.81,2.86-14.71,3.53" stroke-linecap="round"/>
                    <path stroke="#666666" d="M290.5459,217.5152c5.12-2,10.23-3.43,13.59-4.26" stroke-linecap="round"/>
                    <path stroke="#666666" d="M260.4559,232.1152l-0.13,0.85c6.07-3.04,12.56-6.35,17.46-9.01" stroke-linecap="round"/>
                    <path stroke="#666666" d="M290.8859,203.2052c-0.05,0.03-0.07,0.05-0.07,0.05l-17.94,8.06 c0,0-4.32,2.07-9.94,4.77l-0.96,6.19" stroke-linecap="round"/>
                    <path stroke="#663399" d="M204.9259,244.3353c0,0-4.16-5.02-5.22-15.68"/>
                    <path stroke="#663399" d="M209.8159,243.7652c3.46,3.65,10.4,6.76,23.96,1.45" stroke-linecap="round"/>
                    <path stroke="#663399" d="M208.7859,242.5452c0.08,0.1,0.16,0.2,0.24,0.3" stroke-linecap="round"/>
                    <path stroke="#663399" d="M208.3059,241.8452c0.05,0.08,0.1,0.15,0.15,0.23" stroke-linecap="round"/>
                    <path stroke="#663399" d="M206.5859,237.9753c0,0,0.08,0.4,0.31,1.05" stroke-linecap="round"/>
                    <path stroke="#663399" d="M306.8459,209.4552c-1.9-3.74-6.43-9.18-15.95-6.26l-0.01,0.01 c-0.01,0-0.01,0-0.02,0" stroke-linecap="round"/>
                    <path stroke="#663399" d="M308.0659,212.5552c0,0-0.01-0.03-0.03-0.1" stroke-linecap="round"/>
                    <path stroke="#663399" d="M258.8159,279.7052c-0.12-0.21-4.05-7.21-4.43-15.37" stroke-linecap="round"/>
                    <path stroke="#666666" d="M258.8259,279.7152c0,0,0,0-0.01-0.01" stroke-linecap="round" stroke-linejoin="round"/>
                    <path stroke="#663399" d="M264.2459,279.6852c3.53,3.72,10.48,6.96,23.61,1.61" stroke-linecap="round"/>
                    <path stroke="#663399" d="M260.8959,274.0052c0.02,0.08,0.08,0.3,0.2,0.64" stroke-linecap="round"/>
                    <path stroke="#663399" d="M145.2659,189.7552c0,0,1.41,14.74,4.47,17.78" stroke-linecap="round"/>
                    <path stroke="#663399" d="M155.2259,206.9552c3.51,4.06,10.61,7.87,24.06,1.58" stroke-linecap="round"/>
                    <path stroke="#666666" d="M152.0859,201.3952c0,0,0,0.02,0.01,0.05 c0.03,0.08,0.08,0.26,0.17,0.51" stroke-linecap="round" stroke-linejoin="round"/>
                    <path stroke="#663399" d="M94.2159,169.1952c0,0-9.05-9.28-7.99-33.16" stroke-linecap="round"/>
                    <path stroke="#663399" d="M94.4459,163.0853c0,0,10.77,19.43,38.57,5.28" stroke-linecap="round"/>
                    <path stroke="#663399" d="M145.3159,104.4452c0,0,2.38-10.5-4.98-14.62" stroke-linecap="round"/>
                    <path stroke="#663399" d="M142.6659,101.2252c0,0-5.11-13.6-15.01-8.66" stroke-linecap="round"/>
                    <path stroke="#663399" d="M37.2359,130.1252c0,0-0.03-0.02-0.09-0.07 c-0.02-0.01-0.04-0.02-0.06-0.03c-1.34-1.01-11.25-8.79-12.56-21.36" stroke-linecap="round"/>
                    <path stroke="#663399" d="M82.0759,56.1252c-0.11-1.68-0.43-2.98-1.06-3.45 c-2.24-1.66-2.84-1.27-2.84-1.27" stroke-linecap="round"/>
                    <path stroke="#663399" d="M82.1459,58.0252c0-0.59-0.01-1.16-0.05-1.69" stroke-linecap="round"/>
                    <path stroke="#663399" d="M275.1659,237.8353l15.38-20.32l4.73-6.25 c0,0-0.42-2.09-1.67-2.93c-1.26-0.84-3.93,0.09-3.93,0.09l-11.89,15.53l-7.93,10.36c0.06,0.54,0.23,1.11,0.5,1.64 c0.14,0.26,0.3,0.51,0.48,0.74c0.19,0.24,0.39,0.46,0.62,0.65c0.23,0.19,0.48,0.35,0.75,0.48c0.28,0.13,0.56,0.23,0.88,0.28 c0.31,0.06,0.63,0.06,0.98,0.02S274.7859,237.9952,275.1659,237.8353z" stroke-linecap="round"/>
                    <path stroke="#663399" d="M127.7959,139.0752c0-0.37-0.05-0.72-0.11-1.04 c-0.07-0.32-0.17-0.6-0.29-0.86c-0.13-0.26-0.29-0.49-0.46-0.69c-0.18-0.2-0.37-0.36-0.58-0.5c-0.22-0.13-0.47-0.24-0.72-0.32 c-0.26-0.07-0.52-0.11-0.81-0.12c-0.29-0.01-0.58,0.02-0.89,0.07c-0.31,0.06-0.64,0.14-0.97,0.27l-17.24,27.55l-2.91,4.64 c0,0,0.54,1.74,1.67,2.26c0.56,0.27,1.33,0.3,1.96,0.27c0.63-0.03,1.13-0.14,1.13-0.14l5.32-8.26L127.7959,139.0752z" stroke-linecap="round"/>
                    <path stroke="#663399" d="M197.4159,141.1152c-0.09-2.12-1.3-15.13-16.36-10.37 c-0.07,0.02-0.15,0.04-0.23,0.07" stroke-linecap="round"/>
                    <path stroke="#666666" d="M197.4259,141.4152c0,0,0-0.05-0.01-0.15" stroke-linecap="round"/>
                    <path stroke="#663399" d="M246.4359,218.5752c-0.28,0.09-0.56,0.15-0.83,0.16 s-0.54-0.02-0.8-0.08c-0.27-0.06-0.53-0.14-0.78-0.25c-0.24-0.12-0.48-0.26-0.7-0.42c-0.44-0.33-0.81-0.73-1.09-1.18 c-0.13-0.22-0.24-0.45-0.32-0.69c-0.08-0.24-0.13-0.48-0.15-0.72l-11.38,16.37l-6.19,8.91c0,0.07,0.01,2.05,1.09,2.78 c1.1,0.73,3.45,0.95,3.45,0.95l12.15-17.73L246.4359,218.5752z" stroke-linecap="round"/>
                    <path stroke="#663399" d="M300.8859,255.0752l-0.07-0.05c-0.28,0.21-0.56,0.36-0.85,0.46 s-0.58,0.15-0.87,0.15c-0.29,0-0.57-0.05-0.84-0.13c-0.28-0.09-0.54-0.22-0.78-0.38c-0.25-0.16-0.48-0.35-0.68-0.59 c-0.2-0.22-0.37-0.49-0.51-0.77c-0.14-0.29-0.24-0.6-0.31-0.93c-0.07-0.33-0.09-0.69-0.07-1.06l-10.61,15.57l-6.58,9.65 c0,0-0.18,1.8,1.15,2.7c1.33,0.89,3.15,0.74,3.15,0.74l13.58-19.27L300.8859,255.0752z" stroke-linecap="round"/>
                    <path stroke="#663399" d="M191.6159,181.8952c-0.31-0.97-0.34-4.25-4.37-2.98l-11.52,16.79 l-5.97,8.71c0,0,0.43,2.23,1.52,2.96c1.1,0.74,3.28,0.38,3.28,0.38l10.91-16.54L191.6159,181.8952z" stroke-linecap="round"/>
                    <path stroke="#663399" d="M251.4359,173.8952c-0.01-0.03-0.02-0.07-0.03-0.11 c-1.33-4.41-5.6-11.71-18.92-5.31c-0.01,0.01-0.02,0.02-0.03,0.02" stroke-linecap="round"/>
                    <path stroke="#663399" d="M251.4359,173.8952c-0.01-0.04-0.02-0.08-0.04-0.11 c-0.02-0.08-0.05-0.17-0.08-0.25l-2.07,3.32l-0.55,0.89" stroke-linecap="round"/>
                    <path stroke="#666666" d="M251.4359,173.9052 c0.01-0.01,0-0.01,0-0.01" stroke-linecap="round" stroke-linejoin="round"/>
                    <path stroke="#663399" d="M252.0259,176.9452c0,0,0-0.11-0.01-0.32 c-0.04-0.49-0.16-1.49-0.58-2.72" stroke-linecap="round"/>
                    <path stroke="#663399" d="M58.1559,90.6152l-22.42,32.32l-0.06,0.09c0,0,1.3,2.63,4.75,3.75 l1.34-1.9l21.74-30.69" stroke-linecap="round"/>
                    <path stroke="#663399" d="M110.1059,126.6852l-19.98,25.42l-0.1,0.13 c-0.35,2.04,1.96,7.22,1.96,7.22l0.32-0.41l22.45-28.74" stroke-linecap="round"/>
                    <path stroke="#663399" d="M215.5459,235.3652c6-8.41,11.96-16.84,17.95-25.26l-3.96,1.03 l-0.68-4.29l-17.17,25.16" stroke-linecap="round"/>
                    <path stroke="#663399" d="M206.9259,239.1052c0.01,0.03,0.02,0.07,0.04,0.11" stroke-linecap="round"/>
                    <path stroke="#663399" d="M209.8159 243.7652L209.8159 243.7552"/>
                    <path stroke="#663399" d="M209.6559,243.5853c0.01-0.01,0.02-0.02,0.03-0.03c1.1-1.53,2.2-3.07,3.3-4.61 c0.85-1.19,1.71-2.38,2.56-3.58"/>
                    <path stroke="#663399" d="M211.6859,232.0052l-4.37,6.41l-0.42,0.61c0.01,0.02,0.01,0.04,0.02,0.06 c0,0,0,0.01,0.01,0.02c0.01,0.03,0.03,0.07,0.04,0.11c0.14,0.38,0.33,0.82,0.58,1.31c0.03,0.06,0.06,0.13,0.11,0.2 c0.1,0.21,0.23,0.44,0.37,0.67c0.04,0.08,0.1,0.17,0.16,0.26c0,0.01,0.01,0.02,0.02,0.03c0.01,0.02,0.03,0.05,0.05,0.08 c0.01,0.02,0.03,0.05,0.05,0.08c0.02,0.04,0.05,0.09,0.1,0.14c0,0.03,0.03,0.06,0.05,0.09c0.02,0.03,0.04,0.06,0.07,0.09 c0.02,0.05,0.06,0.1,0.1,0.15c0.02,0.03,0.04,0.06,0.07,0.1c0.01,0.01,0.02,0.03,0.04,0.05c0.01,0.02,0.03,0.05,0.05,0.08 c0.01,0.01,0.03,0.03,0.05,0.05c0.05,0.08,0.12,0.17,0.19,0.25c0.02,0.04,0.05,0.08,0.08,0.11c0.11,0.13,0.22,0.26,0.33,0.39 c0.06,0.07,0.12,0.14,0.19,0.21c0,0.01,0.01,0.02,0.03,0.03v0.01c0.05,0.05,0.1,0.11,0.16,0.16"/>
                    <path stroke="#663399" d="M262.7859,229.5252l6.28-6.95c0,0,1-2.52-0.26-3.36 c-1.25-0.84-3.5-0.53-3.5-0.53l-3.33,3.59l-0.22,0.24l-0.45,3.12" stroke-linecap="round"/>
                    <path stroke="#663399" d="M287.8559,246.3353l20.01-28.27l0.01-0.02 c0.02-0.31,0.05-0.61,0.06-0.9c0.16-2.27,0.21-3.99,0.1-4.69v-0.01c0-0.03,0-0.05-0.01-0.08c0,0-0.22-1.34-1.15-2.86 c-0.01-0.02-0.02-0.03-0.03-0.05l-2.71,3.8l-21.21,29.78" stroke-linecap="round"/>
                    <path stroke="#663399" d="M174.5159,170.2452l-1.48,2.12l-6.58,9.38l-3.81,5.43 l-10.24,14.59l-0.14,0.19l-0.01,0.02c0.19,0.51,0.4,0.99,0.63,1.44" stroke-linecap="round"/>
                    <path stroke="#663399" d="M155.2259 206.9552L158.0259 203.0252 164.8959 193.3652 171.0059 184.7852 171.0259 184.7952 179.0859 173.4952" stroke-linecap="round"/>
                    <path stroke="#666666" d="M153.3259,204.2552 c0.95,1.7,1.9,2.7,1.9,2.7" stroke-linecap="round" stroke-linejoin="round"/>
                    <path stroke="#663399" d="M153.0959,203.8252c0.07,0.15,0.15,0.29,0.23,0.43" stroke-linecap="round"/>
                    <path stroke="#666666" d="M152.8859,203.4152 c0.06,0.14,0.13,0.28,0.21,0.41" stroke-linecap="round" stroke-linejoin="round"/>
                    <path stroke="#663399" d="M101.8659,121.2852l3.9-2.97l13.14-10.03c0,0,1.92-2.69,0.87-4.19 c-1.04-1.49-3.64-0.83-3.64-0.83l-19.83,14.55" stroke-linecap="round"/>
                    <path stroke="#663399" d="M166.3959,164.7852l14.97-19.97l4.54-6.05 c0,0-0.44-1.89-1.93-2.89c-1.49-1-4.25,0.23-4.25,0.23l-11.96,15.83l-6.96,9.21l5.02-1.35l0.56,4.98L166.3959,164.7852z" stroke-linecap="round"/>
                    <path stroke="#663399" d="M220.7359,201.4352l15.05-20.02l4.67-6.21 c0,0-0.18-1.93-1.43-2.77c-1.26-0.85-3.62-0.04-3.62-0.04l-11.93,15.64l-7.64,10.01" stroke-linecap="round"/>
                    <path stroke="#663399" d="M114.7559,130.3052l21.87-28.02l1.96-2.51c0,0-0.49-1.81-1.82-2.7 s-2.86-0.66-2.86-0.66l-8.6,10.93l-15.2,19.34l0.06,5.14L114.7559,130.3052z" stroke-linecap="round"/>
                    <path stroke="#663399" d="M220.7359,201.4352l-0.72-4.11l-4.18,0.72l-12.5,16.39l-0.57,0.74 c-0.5,0.92,0.13,9.98,0.13,9.98l0.49-0.66L220.7359,201.4352z" stroke-linecap="round"/>
                    <path stroke="#663399" d="M262.7859 229.5252L261.4159 225.9252 261.3059 225.6352 260.3459 232.2352 260.4559 232.1152z" stroke-linecap="round"/>
                    <path stroke="#663399" d="M87.7359 127.9552L87.7459 132.0652 101.8559 121.2952 101.8659 121.2852 101.9059 120.5952 102.1159 116.9652 96.3059 117.8152 94.1059 119.4352 88.9259 123.2352 87.8959 123.9852 87.7359 124.1052 87.7359 127.1852z" stroke-linecap="round"/>
                    <path stroke="#663399" d="M174.5159,170.2452l0.04,4.73l4.52-1.49l0.01,0.01l4.7-6.6 l6.38-8.95l6.37-8.95c0.02-0.1,0.03-0.21,0.05-0.31c0.01-0.03,0.01-0.05,0.01-0.08c0.4-2.39,0.63-4.03,0.74-5.28 c0.02-0.22,0.04-0.43,0.05-0.63c0.04-0.54,0.04-1,0.03-1.43c0-0.05-0.01-0.1,0-0.15c-0.02-0.16-0.03-0.31-0.04-0.47 c-0.05-0.46-0.11-0.92-0.2-1.41c-0.06-0.32-0.13-0.66-0.21-1.04l-2.03,2.9l-5.6,7.98l-7.63,10.89v0.02L174.5159,170.2452z" stroke-linecap="round"/>
                    <path stroke="#663399" d="M287.8559,246.3353l-0.02-0.01l-0.77-3.99l-4.14,0.7l-22.04,30.93 c0,0,0,0,0,0.01c0.01,0.01,0.01,0.02,0.01,0.03c0.03,0.09,0.09,0.31,0.2,0.64c0.07,0.17,0.15,0.38,0.25,0.61 c0.03,0.09,0.08,0.19,0.13,0.3c0.26,0.6,0.64,1.32,1.14,2.09c0.2,0.3,0.42,0.61,0.67,0.93c0.11,0.16,0.24,0.31,0.38,0.47 c0.17,0.22,0.37,0.44,0.57,0.65l0.01-0.01l3.36-4.75L287.8559,246.3353z" stroke-linecap="round"/>
                    <path stroke="#663399" d="M63.5059,94.1852l17.03-24.04l0.6-0.84c0,0,0.01-0.06,0.02-0.16 c0.03-0.14,0.06-0.37,0.1-0.67c0.03-0.15,0.05-0.32,0.07-0.51c0.02-0.09,0.03-0.19,0.04-0.29c0.04-0.3,0.09-0.64,0.13-1 c0.07-0.49,0.13-1.02,0.19-1.59c0.02-0.15,0.03-0.29,0.05-0.44c0.03-0.29,0.06-0.59,0.09-0.9c0.02-0.15,0.03-0.31,0.04-0.46 c0.05-0.47,0.09-0.95,0.12-1.43c0.03-0.32,0.05-0.65,0.07-0.97c0.02-0.32,0.03-0.65,0.05-0.97c0.01-0.32,0.02-0.64,0.03-0.96 c0.01-0.31,0.01-0.62,0.01-0.93c0-0.59-0.02-1.15-0.05-1.69c0-0.05,0-0.1-0.01-0.14c0-0.03,0-0.05,0-0.08l-0.01,0.01l-6.02,8.68 l-17.9,25.81l0.78,4.88L63.5059,94.1852z" stroke-linecap="round"/>
                </g>
            </g>
        </g>
    </g>
</svg>
