<svg xmlns="http://www.w3.org/2000/svg" id="hud1"  class="hud" width="344.9488px" height="344.9463px" x="0px" y="0px" version="1.1" viewBox="0 0 344.9488 344.9463" enable-background="new 0 0 372.4429 344.9463" xml:space="preserve">
    <g class="hud_wrap">
        <g class="rings">
            <g class="center">
	        <circle class="center1" cx="173.3392" cy="172.5419" r="103.5" />
                <circle class="center2" cx="173.3392" cy="172.5419" r="100" />
            </g>
            <g class="ring1">
                    <path d="M116.1972,265.7833c-6.718-4.0668-12.9628-8.839-18.6332-14.212 l-8.4863,8.4863c6.4126,6.1088,13.495,11.5189,21.1208,16.1157L116.1972,265.7833z"/>
                    <path d="M268.3039,120.5792c3.7136,6.8303,6.7146,14.1012,8.9106,21.7098 l11.5959-3.1071c-2.4738-8.6321-5.8853-16.8715-10.1156-24.602L268.3039,120.5792z"/>
                    <path d="M54.8985,144.142c-2.07,8.5146-3.2368,16.7332-3.3925,26.7332 h11.9999c0.1526-9,1.1788-15.9796,2.9869-23.5015L54.8985,144.142z"/>
                    <path d="M76.7667,120.3607l-10.3907-5.999 c-4.2655,7.7568-7.7062,16.0276-10.2007,24.6961l11.596,3.1071C69.9878,134.5199,73.0182,127.2176,76.7667,120.3607z"/>
                    <path d="M142.1872,277.1823c-7.5893-2.1987-14.8419-5.1976-21.6555-8.9066 l-5.9991,10.3907c7.7138,4.2257,15.9348,7.6353,24.5475,10.1119L142.1872,277.1823z"/>
                    <path d="M66.6774,198.9523c-1.8606-7.5027-2.9482-15.077-3.1589-23.077 H51.5162c0.2151,9,1.4432,17.8136,3.5668,26.3087L66.6774,198.9523z"/>
                    <path d="M251.5725,97.5627c5.3858,5.6839,10.1673,11.9451,14.2404,18.6811 l10.39-5.9987c-4.603-7.644-10.0226-14.7427-16.1442-21.1686L251.5725,97.5627z"/>
                    <path d="M259.6624,256.2776c6.1226-6.3674,11.5587-13.3991,16.1826-20.979 l-10.3953-6.0017c-4.0931,6.6724-8.8823,12.8735-14.2686,18.4994L259.6624,256.2776z"/>
                    <path d="M288.5886,206.5091l-11.596-3.1071 c-2.2425,7.5647-5.2832,14.7886-9.0284,21.5732l10.3907,5.999C282.6175,223.29,286.0671,215.0967,288.5886,206.5091z"/>
                    <path d="M278.3022,198.8265l11.5944,3.2317 c2.1044-8.4567,3.322-17.183,3.5361-26.183h-12.0023C281.2208,182.8752,280.1439,191.3623,278.3022,198.8265z"/>
                    <path d="M235.1229,275.9527 c7.5861-4.6099,14.6259-10.0319,21.0022-16.1413l-8.4814-8.4814c-5.6345,5.3735-11.8433,10.1492-18.5219,14.2285 L235.1229,275.9527z"/>
                    <path d="M114.1817,66.4763l5.9991,10.3906 c6.8562-3.7651,14.1591-6.812,21.8069-9.0436l-3.1071-11.5959C130.2095,58.7372,121.9377,62.1939,114.1817,66.4763z"/>
                    <path d="M146.7098,66.5359c7.53-1.8237,15.2961-2.8654,23.2961-3.0292v-12 c-9,0.1672-17.9348,1.3488-26.4574,3.4348L146.7098,66.5359z"/>
                    <path d="M198.2875,278.345c-7.4562,1.826-15.2816,2.8899-23.2816,3.0881 v12c10-0.2026,17.885-1.4053,26.3337-3.4938L198.2875,278.345z"/>
                    <path d="M206.3318,288.6403c8.585-2.5062,16.7773-5.9396,24.4623-10.1854 l-5.999-10.3907c-6.7852,3.7286-14.0085,6.7527-21.5704,8.9802L206.3318,288.6403z"/>
                    <path d="M88.67,85.2852l8.4813,8.4813 c5.6832-5.4411,11.9519-10.2748,18.702-14.3951l-6.0007-10.3935C102.1948,73.6286,95.0944,79.1077,88.67,85.2852z"/>
                    <path d="M143.8053,290.0541c8.4607,2.0553,17.2006,3.2194,26.2006,3.3853 v-12c-7-0.1624-15.6805-1.1862-23.1485-2.9797L143.8053,290.0541z"/>
                    <path d="M203.4242,67.9614c7.6203,2.2606,14.8942,5.3322,21.7218,9.117 l5.999-10.3906c-7.727-4.3026-15.9704-7.7828-24.6137-10.3223L203.4242,67.9614z"/>
                    <path d="M201.5964,55.0564c-8.5105-2.1194-16.5905-3.3391-26.5905-3.5433 v12c9,0.2,15.911,1.2811,23.4292,3.1376L201.5964,55.0564z"/>
                    <path d="M290.0811,144.2678l-11.5944,3.2318 c1.7892,7.4833,2.8044,15.3757,2.9562,23.3757h11.9999C293.2879,160.8752,292.1321,152.7438,290.0811,144.2678z"/>
                    <path d="M68.8733,110.03l10.39,5.9987 c4.1064-6.7561,8.9261-13.0329,14.3542-18.7247l-8.4813-8.4813C78.972,95.2559,73.5098,102.3661,68.8733,110.03z"/>
                    <path d="M77.1068,225.1933c-3.7802-6.8109-6.8504-14.0663-9.1135-21.6672 l-11.596,3.1071c2.5422,8.6239,6.0209,16.8489,10.3189,24.5592L77.1068,225.1933z"/>
                    <path d="M94.0148,248.0493c-5.4285-5.6336-10.2567-11.848-14.3831-18.5403 l-10.3953,6.0018c4.6575,7.5995,10.1318,14.6452,16.2971,21.0198L94.0148,248.0493z"/>
                    <path d="M229.463,79.601c6.7103,4.1328,12.9406,8.9712,18.5875,14.4125 l8.4813-8.4813c-6.3879-6.178-13.4495-11.6627-21.0672-16.3265L229.463,79.601z"/>
            </g>
            <g class="ring2">
                    <path d="M305.237,134.7804c-2.8665-10.0823-6.8588-19.6941-11.822-28.6992 l-10.3906,5.999c4.4457,8.1055,8.0283,16.7484,10.6177,25.807L305.237,134.7804z"/>
                    <path d="M237.9654,64.8744c7.9959,4.8848,15.4037,10.6388,22.1004,17.1239 l8.4812-8.4812c-7.437-7.2224-15.6762-13.6228-24.58-19.0377L237.9654,64.8744z"/>
                    <path d="M50.252,203.3535c-2.2334-8.9084-3.519-18.4782-3.7358-27.4782 h-12c0.2202,10,1.6445,20.8095,4.1415,30.7099L50.252,203.3535z"/>
                    <path d="M62.3866,233.692c-4.5139-8.0849-8.1627-16.714-10.821-25.7642 l-11.5959,3.1071c2.9364,10.0735,6.994,19.6722,12.0262,28.6561L62.3866,233.692z"/>
                    <path d="M263.5936,85.5416c6.4282,6.7349,12.1149,14.1816,16.9385,22.204 l10.3899-5.9986c-5.3527-8.9306-11.6824-17.2107-18.8471-24.6867L263.5936,85.5416z"/>
                    <path d="M34.506,170.8752h12c0.1569-10,1.3821-19.0996,3.5615-28.0276 l-11.5942-2.9817C36.0309,149.7863,34.6653,159.8752,34.506,170.8752z"/>
                    <path d="M107.6991,280.5024 c-8.0042-4.8174-15.4346-10.4947-22.1562-16.9101l-8.4813,8.4813c7.4627,7.1519,15.7264,13.472,24.6389,18.8187 L107.6991,280.5024z"/>
                    <path d="M81.9996,260.0646c-6.4723-6.6832-12.2159-14.0753-17.0945-22.053 l-10.3953,6.0017c5.4088,8.8856,11.799,17.1088,19.0085,24.5326L81.9996,260.0646z"/>
                    <path d="M39.7478,134.6561l11.5959,3.1071 c2.61-9.0949,6.2218-17.7695,10.7029-25.9011l-10.3906-5.999C46.657,114.894,42.6349,124.5375,39.7478,134.6561z"/>
                    <path d="M305.0161,210.9109l-11.5959-3.1071 c-2.6375,9.014-6.2575,17.6111-10.7359,25.67l10.3906,5.9991C298.0714,230.5149,302.1006,220.9482,305.0161,210.9109z"/>
                    <path d="M268.1402,271.8265l-8.4813-8.4813 c-6.6851,6.4163-14.0723,12.1059-22.0366,16.9366l5.9987,10.3899C252.4932,285.3113,260.7142,278.9794,268.1402,271.8265z"/>
                    <path d="M105.683,51.7562l5.999,10.3906 c8.1307-4.4981,16.8063-8.1255,25.9039-10.751l-3.1071-11.5959C124.3577,42.7027,114.713,46.7401,105.683,51.7562z"/>
                    <path d="M239.2928,293.175l-5.9991-10.3906 c-8.0598,4.4614-16.6559,8.0654-25.6673,10.6876l3.1071,11.5959C220.7684,302.1679,230.3337,298.1544,239.2928,293.175z"/>
                    <path d="M290.5673,243.7986l-10.391-5.9993 c-4.845,7.9582-10.5505,15.3361-16.98,22.0122l8.4813,8.4813C278.8439,260.876,285.1924,252.6646,290.5673,243.7986z"/>
                    <path d="M137.7854,293.6099 c-9.0391-2.5923-17.6637-6.1729-25.7524-10.6141l-5.999,10.3906c8.9883,4.9587,18.5816,8.95,28.6443,11.8194L137.7854,293.6099z"/>
                    <path d="M202.6886,294.7703c-8.8621,2.198-17.6827,3.4586-27.6827,3.6627 v12.0001c11-0.2075,20.8806-1.6072,30.7348-4.0685L202.6886,294.7703z"/>
                    <path d="M205.9975,38.6311c-9.9158-2.4927-19.9916-3.909-30.9916-4.1179 v12.0001c10,0.2057,18.9065,1.4831,27.8303,3.7122L205.9975,38.6311z"/>
                    <path d="M142.3087,50.1107c8.936-2.1955,18.6972-3.4353,27.6972-3.6038 v-12c-10,0.1711-20.9303,1.551-30.8585,4.0095L142.3087,50.1107z"/>
                    <path d="M310.4327,175.8752h-12c-0.2158,9-1.4911,18.4823-3.7051,27.3525 l11.5943,3.2317C308.7994,196.5973,310.2134,185.8752,310.4327,175.8752z"/>
                    <path d="M54.1542,101.5319l10.3899,5.9986 c4.8572-8.0422,10.587-15.4998,17.0582-22.2419l-8.4812-8.4812C65.9133,84.2903,59.5408,92.5816,54.1542,101.5319z"/>
                    <path d="M306.5064,139.8666l-11.5942,3.2317 c2.1603,8.8896,3.3745,17.7769,3.5307,27.7769h12C310.2842,159.8752,308.9294,149.7487,306.5064,139.8666z"/>
                    <path d="M139.4042,306.4794c9.8666,2.4274,20.6017,3.7901,30.6017,3.96 v-12c-9-0.1672-18.6754-1.3898-27.5496-3.5543L139.4042,306.4794z"/>
                    <path d="M207.8259,51.5339c9.0696,2.6555,17.717,6.306,25.8187,10.8245 l5.999-10.3906c-9.0006-5.0369-18.6176-9.0963-28.7106-12.0297L207.8259,51.5339z"/>
                    <path d="M76.6548,73.2701l8.4812,8.4812 c6.7332-6.4844,14.1811-12.231,22.2171-17.1025l-5.9987-10.3899C92.4104,59.6599,84.1287,66.0488,76.6548,73.2701z"/>
            </g>
            <g class="ring3">
                    <path d="M212.2277,35.1063c10.5195,3.0491,20.5405,7.2791,29.9155,12.532 l5.9991-10.3907c-10.2737-5.7717-21.2643-10.4109-32.8075-13.7372L212.2277,35.1063z"/>
                    <path d="M97.1844,37.0361l5.9991,10.3907 c9.4046-5.232,19.4531-9.4402,30.0007-12.4585l-3.1071-11.596C118.5055,26.6674,107.4878,31.2856,97.1844,37.0361z"/>
                    <path d="M99.201,295.2214c-9.2909-5.5671-17.9019-12.1552-25.6733-19.614 l-8.4813,8.4813c8.5121,8.1957,17.9567,15.4267,28.1561,21.5225L99.201,295.2214z"/>
                    <path d="M69.9844,272.0797 c-7.5167-7.7322-14.1752-16.3027-19.8047-25.5665l-10.3899,5.9987c6.159,10.172,13.4591,19.577,21.7133,28.0492 L69.9844,272.0797z"/>
                    <path d="M135.003,322.9047c11.272,2.8005,23.0029,4.3616,35.0029,4.5347 v-12c-11-0.1709-21.6707-1.592-31.9507-4.129L135.003,322.9047z"/>
                    <path d="M64.6396,61.2549l8.4813,8.4813 c7.7823-7.5284,16.4117-14.1848,25.7341-19.8065l-5.9987-10.39C82.6256,45.6905,73.1622,52.9892,64.6396,61.2549z"/>
                    <path d="M23.3243,130.2554l11.5919,3.106 c3.0025-10.5452,7.1956-20.5922,12.4103-29.9979l-10.3907-5.9991C31.2028,107.6689,26.6035,118.6865,23.3243,130.2554z"/>
                    <path d="M207.0898,311.1956 c-10.2676,2.5711-20.0839,4.0287-32.0839,4.2375v12c13-0.2114,23.8765-1.8082,35.136-4.6431L207.0898,311.1956z"/>
                    <path d="M246.4664,50.1503c9.282,5.6356,17.8691,12.3034,25.6145,19.8329 l8.4813-8.4813c-8.4854-8.267-17.9069-15.5765-28.0972-21.7415L246.4664,50.1503z"/>
                    <path d="M17.506,170.8752h12c0.1603-12,1.5842-22.095,4.1362-32.4288 l-11.5944-2.9817C19.2323,146.7906,17.6682,157.8752,17.506,170.8752z"/>
                    <path d="M33.8267,207.7546c-2.6071-10.3137-4.0892-20.8793-4.3105-31.8793 h-12c0.2241,12,1.845,23.8057,4.7162,35.111L33.8267,207.7546z"/>
                    <path d="M308.1351,97.5825l-10.3907,5.9991 c5.179,9.3798,9.3405,19.3959,12.3223,29.9047l11.5916-3.106C318.4,118.8479,313.8321,107.8612,308.1351,97.5825z"/>
                    <path d="M275.6086,73.5266c7.4716,7.7847,14.0693,16.412,19.6424,25.7211 l10.39-5.9987c-6.1018-10.2176-13.3425-19.6784-21.551-28.2038L275.6086,73.5266z"/>
                    <path d="M137.9075,33.6854c10.3416-2.5684,21.0984-4.0065,32.0984-4.1785 v-12c-12,0.1741-23.9261,1.7521-35.2597,4.5842L137.9075,33.6854z"/>
                    <path d="M39.4352,93.0339l10.39,5.9987 c5.607-9.3288,12.2472-17.9675,19.762-25.759l-8.4813-8.4813C52.8538,73.3241,45.571,82.7967,39.4352,93.0339z"/>
                    <path d="M305.2864,252.2966l-10.3899-5.9986 c-5.5955,9.2443-12.2116,17.8032-19.6851,25.5287l8.4813,8.4813C291.9034,271.8423,299.1615,262.4492,305.2864,252.2966z"/>
                    <path d="M133.3837,310.0372 c-10.4893-2.9849-20.4864-7.1469-29.8494-12.3213l-5.999,10.3907c10.262,5.6924,21.2296,10.2607,32.7425,13.5222 L133.3837,310.0372z"/>
                    <path d="M280.1554,283.8417l-8.4813-8.4813 c-7.7346,7.4599-16.3031,14.0594-25.5537,19.6404l5.9987,10.39C262.278,299.2806,271.6804,292.0388,280.1554,283.8417z"/>
                    <path d="M322.9318,135.4655l-11.5944,3.2317 c2.5326,10.2954,3.9459,20.178,4.1055,32.178h12C327.2812,157.8752,325.7277,146.7531,322.9318,135.4655z"/>
                    <path d="M210.3987,22.2058c-11.3208-2.8666-22.3928-4.48-35.3928-4.6926 v12c12,0.2101,21.9024,1.6843,32.2315,4.2869L210.3987,22.2058z"/>
                    <path d="M327.4327,175.8752h-12c-0.2205,11-1.6924,21.4781-4.2798,31.7536 l11.5943,3.2317C325.5986,199.5933,327.2094,187.8752,327.4327,175.8752z"/>
                    <path d="M321.4437,215.3126l-11.5959-3.1071 c-3.0312,10.4639-7.2309,20.4343-12.4434,29.767l10.3907,5.9991C313.5261,237.7401,318.1353,226.8001,321.4437,215.3126z"/>
                    <path d="M247.7915,307.8951l-5.9991-10.3907 c-9.3337,5.1953-19.3029,9.3795-29.7642,12.395l3.1071,11.596C226.6203,318.2028,237.5588,313.6088,247.7915,307.8951z"/>
                    <path d="M47.6666,242.1907c-5.2484-9.3583-9.4764-19.3611-12.5285-29.8611 l-11.5959,3.1071c3.3295,11.5236,7.9667,22.4961,13.7338,32.7531L47.6666,242.1907z"/>
            </g>
            <g class="ring4">
                    <path d="M24.7161,84.5358l10.39,5.9987 c6.3561-10.6158,13.9067-20.4358,22.4659-29.2761l-8.4813-8.4813C39.7939,62.3574,31.6008,73.0114,24.7161,84.5358z"/>
                    <path d="M57.9692,284.0949c-8.5615-8.7805-16.129-18.5332-22.5085-29.0837 l-10.39,5.9987c6.9086,11.4588,15.118,22.046,24.4172,31.5663L57.9692,284.0949z"/>
                    <path d="M52.6244,49.2397l8.4813,8.4813 c8.8309-8.573,18.6419-16.1393,29.2513-22.5104l-5.9986-10.3899C72.8404,31.7203,62.1952,39.9291,52.6244,49.2397z"/>
                    <path d="M90.703,309.9405c-10.5779-6.3161-20.3699-13.815-29.1905-22.3178 l-8.4813,8.4813c9.5609,9.2401,20.1865,17.382,31.6732,24.2265L90.703,309.9405z"/>
                    <path d="M339.3571,131.0643l-11.5944,3.2317 c2.9058,11.7009,4.5178,23.5792,4.6801,36.5792h12.0001C344.279,156.8752,342.5267,143.7571,339.3571,131.0643z"/>
                    <path d="M88.6857,22.316l5.999,10.3906 c10.6779-5.9666,22.1-10.7542,34.098-14.1645l-3.1059-11.5916C112.6551,10.6372,100.2621,15.8306,88.6857,22.316z"/>
                    <path d="M95.0356,312.436l-5.9991,10.3907 c11.5352,6.4269,23.8779,11.5705,36.8411,15.2235l3.1059-11.5916C117.0441,323.0819,105.6722,318.3444,95.0356,312.436z"/>
                    <path d="M32.9465,250.6893c-5.9833-10.6314-10.7911-22.0078-14.236-33.958 l-11.596,3.1071c3.7217,12.974,8.9389,25.3201,15.4413,36.8499L32.9465,250.6893z"/>
                    <path d="M287.6239,61.5113c8.5157,8.8339,16.0242,18.642,22.3463,29.2383 l10.39-5.9987c-6.8505-11.505-15.0021-22.1467-24.2549-31.7209L287.6239,61.5113z"/>
                    <path d="M17.4014,212.1557c-2.9813-11.7186-4.6602-24.2805-4.8853-36.2805 h-12c0.2272,13,2.0451,26.8019,5.2909,39.5121L17.4014,212.1557z"/>
                    <path d="M133.5064,17.26c11.7469-2.942,24.4995-4.5782,36.4995-4.7532v-12 c-13,0.1765-26.9222,1.9528-39.6608,5.1589L133.5064,17.26z"/>
                    <path d="M254.9645,35.4312 c10.5687,6.3855,20.3379,13.9625,29.1316,22.5368l8.4813-8.4813c-9.5334-9.312-20.1371-17.5309-31.6143-24.4454 L254.9645,35.4312z"/>
                    <path d="M6.9029,125.8553l11.5916,3.106 c3.3943-11.9954,8.1628-23.4175,14.1118-34.0965l-10.3906-5.999C15.748,100.4432,10.5734,112.8361,6.9029,125.8553z"/>
                    <path d="M322.8552,89.0839l-10.3906,5.9991 c5.9128,10.6533,10.6501,22.0442,14.0236,34.0032l11.5916-3.106C334.4301,112.9974,329.2866,100.6358,322.8552,89.0839z"/>
                    <path d="M0.5059,170.8752H12.506c0.163-13,1.7855-25.0908,4.7109-36.83 l-11.5944-2.9817C2.4331,143.7946,0.6704,156.8752,0.5059,170.8752z"/>
                    <path d="M344.4327,175.8752h-12c-0.2243,12-1.8931,24.4742-4.8545,36.1547 l11.5944,3.2317C342.3984,202.5896,344.2062,188.8752,344.4327,175.8752z"/>
                    <path d="M250.2911,312.2245 c-10.6071,5.9297-21.9496,10.6945-33.8611,14.1025l3.1071,11.5959c12.9354-3.6847,25.2473-8.8593,36.7531-15.3078 L250.2911,312.2245z"/>
                    <path d="M214.7999,5.7805c-12.7257-3.2412-25.7939-5.0517-39.7939-5.2673 v12c13,0.2136,24.8986,1.8849,36.6326,4.8616L214.7999,5.7805z"/>
                    <path d="M211.491,327.621c-11.6727,2.9449-23.485,4.5997-36.485,4.8121v12 c14-0.2145,26.8727-2.0087,39.5371-5.2178L211.491,327.621z"/>
                    <path d="M292.1706,295.8569l-8.4813-8.4813 c-8.7835,8.5042-18.5334,16.0137-29.0708,22.3443l5.9987,10.39C272.063,313.2505,282.647,305.0985,292.1706,295.8569z"/>
                    <path d="M320.0054,260.7947l-10.39-5.9987 c-6.3453,10.5309-13.8709,20.2717-22.3889,29.0458l8.4813,8.4813C304.9634,282.8091,313.1312,272.2342,320.0054,260.7947z"/>
                    <path d="M337.8713,219.7144l-11.596-3.1072 c-3.4239,11.914-8.2037,23.258-14.1508,33.8639l10.3907,5.9991C328.9813,244.9658,334.1706,232.6523,337.8713,219.7144z"/>
                    <path d="M130.6019,339.3301c12.6772,3.1741,26.404,4.9338,39.404,5.1094 v-12c-12-0.1739-24.6666-1.7935-36.3519-4.7037L130.6019,339.3301z"/>
                    <path d="M250.642,32.9182l5.999-10.3907 c-11.5466-6.5069-23.9108-11.7263-36.9044-15.4447l-3.1071,11.5959C228.5992,22.1204,239.9938,26.9303,250.642,32.9182z"/>
            </g>
        </g>
        <g class="bg">
            <g class="sphere" transform="scale(200 -200) translate(1 -1)">
                <g class="sphere-front">
                    <g class="sphere-half" fill="#1B1F77">
                        <g class="meridians">
                            <path d="M-0.1496,0.644c0.0097,0.0003,0.0236-0.2265,0.031-0.5064 s0.0056-0.5071-0.0041-0.5074c0.0015,0,0.003,0.0001,0.0044,0.0001c0.0097,0.0003,0.0115,0.2274,0.0041,0.5074 c-0.0074,0.28-0.0213,0.5067-0.031,0.5064C-0.1466,0.6441-0.1481,0.644-0.1496,0.644z" class="hud1-meridian0"/>
                            <path d="M-0.2039,0.6394c0.0476,0.0066,0.1166-0.2131,0.1541-0.4907 s0.0292-0.5078-0.0184-0.5144c0,0-0.0001,0-0.0001,0c0.0015,0.0002,0.003,0.0004,0.0045,0.0006 c0.0476,0.0066,0.0559,0.2369,0.0184,0.5144c-0.0375,0.2774-0.1064,0.497-0.154,0.4907 C-0.201,0.6398-0.2024,0.6396-0.2039,0.6394z" class="hud1-meridian1"/>
                            <path d="M-0.2601,0.6283c0.0824,0.0211,0.2047-0.182,0.2733-0.4535 s0.0574-0.5087-0.025-0.5298c-0.0001,0-0.0002-0.0001-0.0003-0.0001c0.0015,0.0004,0.003,0.0008,0.0045,0.0011 c0.0824,0.0211,0.0936,0.2583,0.025,0.5298c-0.0685,0.2711-0.1906,0.4741-0.273,0.4536 C-0.2571,0.629-0.2586,0.6286-0.2601,0.6283z" class="hud1-meridian2"/>
                            <path d="M-0.3195,0.609c0.1111,0.0436,0.2835-0.1326,0.3849-0.3936 s0.0936-0.508-0.0175-0.5517C0.0477-0.3364,0.0474-0.3365,0.0472-0.3365c0.0015,0.0006,0.003,0.0012,0.0046,0.0018 c0.1111,0.0436,0.1189,0.2906,0.0175,0.5517C-0.032,0.4772-0.2038,0.6534-0.315,0.6108 C-0.3165,0.6102-0.318,0.6096-0.3195,0.609z" class="hud1-meridian3"/>
                            <path d="M-0.3832,0.5787c0.1307,0.0738,0.3476-0.0645,0.4844-0.3089 s0.1417-0.5023,0.011-0.5761C0.1117-0.3065,0.1113-0.3068,0.1109-0.307c0.0015,0.0008,0.0031,0.0017,0.0046,0.0026 c0.1307,0.0738,0.1258,0.3317-0.011,0.5761c-0.1363,0.2435-0.3521,0.3818-0.4831,0.3096 C-0.3802,0.5804-0.3817,0.5796-0.3832,0.5787z" class="hud1-meridian4"/>
                            <path d="M-0.4513,0.5326c0.1375,0.1103,0.3904,0.0222,0.565-0.1969 s0.2045-0.486,0.067-0.5963C0.1802-0.261,0.1796-0.2615,0.1791-0.2619c0.0015,0.0012,0.003,0.0024,0.0045,0.0035 C0.321-0.1481,0.291,0.1189,0.1165,0.3379c-0.1737,0.218-0.4253,0.3065-0.5633,0.1982 C-0.4483,0.535-0.4498,0.5338-0.4513,0.5326z" class="hud1-meridian5"/>
                            <path d="M-0.5213,0.4643c0.1272,0.1506,0.4033,0.1256,0.6167-0.0558 s0.2833-0.4505,0.1561-0.601C0.2508-0.1933,0.2502-0.194,0.2495-0.1948c0.0014,0.0016,0.0027,0.0031,0.004,0.0047 c0.1272,0.1506,0.0573,0.4196-0.1561,0.601C-0.1147,0.5912-0.389,0.6172-0.5172,0.4691 C-0.5186,0.4675-0.52,0.4659-0.5213,0.4643z" class="hud1-meridian6"/>
                            <path d="M-0.5857,0.3673c0.0962,0.1888,0.3762,0.2382,0.6254,0.1103 s0.3731-0.3846,0.2769-0.5734C0.316-0.0969,0.3154-0.098,0.3148-0.0991c0.0011,0.002,0.0021,0.004,0.0031,0.006 C0.4142,0.0957,0.2902,0.3524,0.041,0.4803c-0.2474,0.127-0.5256,0.0793-0.6236-0.107 C-0.5836,0.3713-0.5847,0.3693-0.5857,0.3673z" class="hud1-meridian7"/>
                            <path d="M-0.6303,0.2408c0.0451,0.2156,0.3037,0.3434,0.5777,0.2854 c0.274-0.058,0.4595-0.2799,0.4145-0.4955C0.3616,0.0293,0.3613,0.0278,0.361,0.0264c0.0005,0.0023,0.001,0.0047,0.0015,0.007 C0.4076,0.2491,0.222,0.4709-0.052,0.5289c-0.2719,0.0576-0.5291-0.0678-0.5768-0.2811 C-0.6293,0.2455-0.6298,0.2431-0.6303,0.2408z" class="hud1-meridian8"/>
                            <path d="M-0.6394,0.0972c-0.0175,0.2213,0.1948,0.4179,0.474,0.4392 c0.2792,0.0213,0.5198-0.1408,0.5372-0.3621c0.0001-0.0015,0.0002-0.003,0.0003-0.0045 C0.372,0.1722,0.3718,0.1746,0.3716,0.177c-0.0175,0.2213-0.258,0.3834-0.5372,0.3621 c-0.277-0.0211-0.4885-0.2149-0.4743-0.4347C-0.6398,0.1021-0.6396,0.0996-0.6394,0.0972z" class="hud1-meridian9"/>
                            <path d="M-0.6092-0.0397C-0.6848,0.1636-0.5331,0.407-0.2703,0.5039 s0.5371,0.0107,0.6127-0.1926C0.3428,0.31,0.3433,0.3087,0.3438,0.3074C0.343,0.3096,0.3422,0.3117,0.3414,0.3139 C0.2658,0.5172-0.0085,0.6035-0.2713,0.5066c-0.2608-0.0962-0.4125-0.3369-0.3403-0.5397 C-0.6108-0.0353-0.61-0.0375-0.6092-0.0397z" class="hud1-meridian10"/>
                            <path d="M-0.5513-0.1508C-0.6678,0.0182-0.575,0.2835-0.344,0.4418 s0.5128,0.1497,0.6293-0.0193c0.0006-0.0009,0.0013-0.0019,0.0019-0.0028C0.286,0.4215,0.2848,0.4233,0.2835,0.4251 C0.167,0.5941-0.1147,0.6027-0.3458,0.4444c-0.2295-0.1573-0.3229-0.4205-0.2092-0.5898 C-0.5537-0.1472-0.5525-0.149-0.5513-0.1508z" class="hud1-meridian11"/>
                            <path d="M-0.4821-0.2316C-0.6183-0.1029-0.5723,0.166-0.3793,0.369 s0.4598,0.2632,0.596,0.1345C0.2173,0.5029,0.218,0.5023,0.2186,0.5017C0.2172,0.5031,0.2157,0.5044,0.2143,0.5058 c-0.1362,0.1287-0.4031,0.0685-0.596-0.1345c-0.1919-0.2019-0.2386-0.4692-0.1046-0.5987 C-0.4849-0.2288-0.4835-0.2302-0.4821-0.2316z" class="hud1-meridian12"/>
                            <path d="M-0.4122-0.2868c-0.1369,0.0899-0.1226,0.3522,0.032,0.5857 s0.3908,0.35,0.5278,0.26C0.148,0.5587,0.1485,0.5583,0.149,0.558C0.1475,0.559,0.146,0.56,0.1445,0.561 C0.0075,0.651-0.2287,0.5345-0.3833,0.301c-0.1539-0.2325-0.1688-0.4938-0.0334-0.5847 C-0.4152-0.2848-0.4137-0.2858-0.4122-0.2868z" class="hud1-meridian13"/>
                            <path d="M-0.3462-0.3234C-0.469-0.2667-0.4727-0.0149-0.3544,0.2389 s0.3137,0.4137,0.4365,0.357C0.0824,0.5958,0.0827,0.5956,0.083,0.5955C0.0815,0.5962,0.08,0.5969,0.0784,0.5976 c-0.1228,0.0567-0.3182-0.1031-0.4365-0.357C-0.476-0.0125-0.4727-0.2636-0.3508-0.3212 C-0.3493-0.322-0.3477-0.3227-0.3462-0.3234z" class="hud1-meridian14"/>
                            <path d="M-0.2848-0.347c-0.0979,0.0306-0.1088,0.2719-0.0243,0.539 s0.2323,0.4586,0.3302,0.428c0.0002,0,0.0003-0.0001,0.0005-0.0001c-0.0015,0.0005-0.003,0.001-0.0045,0.0014 c-0.0979,0.0306-0.2458-0.161-0.3302-0.428c-0.0843-0.2665-0.0736-0.5075,0.0239-0.5388 C-0.2878-0.346-0.2863-0.3465-0.2848-0.347z" class="hud1-meridian15"/>
                            <path d="M-0.2272-0.3613c-0.0657,0.0124-0.0761,0.2454-0.0234,0.5204 s0.1487,0.488,0.2144,0.4756c0.0001,0,0.0001,0,0.0002,0C-0.0375,0.635-0.039,0.6353-0.0405,0.6356 C-0.1062,0.6479-0.2022,0.435-0.2549,0.16c-0.0527-0.2748-0.0423-0.5076,0.0232-0.5204 C-0.2302-0.3607-0.2287-0.361-0.2272-0.3613z" class="hud1-meridian16"/>
                            <path d="M-0.1722-0.3685C-0.2011-0.3662-0.2064-0.138-0.184,0.1411 s0.0639,0.5036,0.0929,0.5013c-0.0015,0.0001-0.003,0.0002-0.0044,0.0004c-0.0289,0.0023-0.0705-0.2221-0.0929-0.5013 s-0.0171-0.5073,0.0118-0.5097C-0.1751-0.3683-0.1737-0.3684-0.1722-0.3685z" class="hud1-meridian17"/>
                        </g>
                        <g class="circles-of-latitude">
                            <path d="M-0.2723-0.3507c0.0877-0.0249,0.1891-0.0249,0.2768,0 C0.0001-0.352-0.0043-0.3532-0.0088-0.3543c-0.08-0.0204-0.1701-0.0204-0.2502,0C-0.2634-0.3532-0.2679-0.352-0.2723-0.3507z" class="hud1-circle-of-latitude4"/>
                            <path d="M-0.434-0.2716c0.1374-0.1009,0.3832-0.1149,0.549-0.0313 C0.1336-0.2934,0.1508-0.283,0.1663-0.2716C0.1643-0.273,0.1624-0.2745,0.1604-0.2759 C0.0215-0.3748-0.2228-0.3865-0.3853-0.3019c-0.0154,0.008-0.0297,0.0167-0.0428,0.0261 C-0.4301-0.2745-0.4321-0.273-0.434-0.2716z" class="hud1-circle-of-latitude5"/>
                            <path d="M-0.5295-0.18c0.1066-0.133,0.3702-0.1882,0.5887-0.1233 C0.1474-0.2772,0.2187-0.2338,0.2618-0.18C0.2605-0.1817,0.2592-0.1833,0.2579-0.1849 C0.1496-0.3166-0.1135-0.3699-0.3299-0.304c-0.0847,0.0258-0.1533,0.0676-0.1957,0.1191 C-0.5269-0.1833-0.5282-0.1817-0.5295-0.18z" class="hud1-circle-of-latitude6"/>
                            <path d="M-0.5927-0.0789c0.0726-0.1543,0.3369-0.2435,0.5903-0.1993 c0.1583,0.0276,0.282,0.1029,0.3273,0.1993C0.3241-0.0806,0.3233-0.0824,0.3224-0.0841 c-0.0744-0.1534-0.339-0.2411-0.591-0.1958c-0.1548,0.0278-0.2759,0.1015-0.3216,0.1958 C-0.591-0.0824-0.5919-0.0806-0.5927-0.0789z" class="hud1-circle-of-latitude7"/>
                            <path d="M-0.6293,0.0289c0.0364-0.1666,0.2877-0.2836,0.5613-0.2615 c0.2237,0.0181,0.3998,0.1253,0.4295,0.2615C0.3611,0.027,0.3607,0.0252,0.3603,0.0234 c-0.0382-0.1661-0.2905-0.282-0.5634-0.2587c-0.2206,0.0188-0.394,0.1244-0.4249,0.2587 C-0.6285,0.0252-0.6289,0.027-0.6293,0.0289z" class="hud1-circle-of-latitude8"/>
                            <path d="M-0.641,0.1399c-0.0009-0.1705,0.2254-0.3091,0.5055-0.3097 S0.3723-0.0325,0.3732,0.138c0,0.0007,0,0.0013,0,0.002c0-0.0019,0-0.0037,0-0.0056 C0.3723-0.0362,0.1446-0.1739-0.1355-0.1734c-0.2788,0.0005-0.5046,0.138-0.5055,0.3077 C-0.641,0.1362-0.641,0.1381-0.641,0.1399z" class="hud1-circle-of-latitude9"/>
                            <path d="M-0.6281,0.2509c-0.0382-0.1661,0.152-0.3197,0.4249-0.343 s0.5252,0.0925,0.5634,0.2587c0.0064,0.028,0.0064,0.0563,0,0.0843C0.3607,0.249,0.3611,0.2472,0.3615,0.2454 C0.3979,0.0788,0.2056-0.0742-0.068-0.0963c-0.2736-0.0222-0.5249,0.0949-0.5613,0.2615 c-0.0058,0.0266-0.0058,0.0536,0,0.0802C-0.6289,0.2472-0.6285,0.249-0.6281,0.2509z" class="hud1-circle-of-latitude10"/>
                            <path d="M-0.5902,0.3584c-0.0744-0.1534,0.0696-0.3145,0.3216-0.3598 S0.248,0.041,0.3224,0.1944c0.0259,0.0535,0.0259,0.1105,0,0.164c0.0008-0.0017,0.0017-0.0035,0.0025-0.0052 C0.3975,0.1989,0.251,0.038-0.0024-0.0062s-0.5177,0.045-0.5903,0.1993c-0.0246,0.0523-0.0246,0.1078,0,0.1601 C-0.5919,0.3549-0.591,0.3566-0.5902,0.3584z" class="hud1-circle-of-latitude11"/>
                            <path d="M-0.5256,0.4591c-0.1083-0.1317-0.0206-0.2919,0.1957-0.3578 s0.4795-0.0126,0.5878,0.1191c0.0617,0.0751,0.0617,0.1635,0,0.2387c0.0013-0.0016,0.0026-0.0032,0.0039-0.0048 c0.1066-0.133,0.0159-0.2935-0.2026-0.3584s-0.4821-0.0097-0.5887,0.1233c-0.0595,0.0742-0.0595,0.1609,0,0.2351 C-0.5282,0.4559-0.5269,0.4575-0.5256,0.4591z" class="hud1-circle-of-latitude12"/>
                            <path d="M-0.4281,0.5501C-0.567,0.4512-0.5478,0.3025-0.3853,0.2179 S0.0215,0.1451,0.1604,0.244c0.1237,0.0881,0.1237,0.218,0,0.3061c0.002-0.0014,0.0039-0.0028,0.0059-0.0043 c0.1374-0.1009,0.1144-0.2505-0.0514-0.3342S-0.2966,0.142-0.434,0.2429c-0.1196,0.0878-0.1196,0.2151,0,0.3029 C-0.4321,0.5473-0.4301,0.5487-0.4281,0.5501z" class="hud1-circle-of-latitude13"/>
                            <path d="M-0.259,0.6286C-0.4242,0.5865-0.5021,0.4709-0.433,0.3703 s0.259-0.148,0.4242-0.106C0.1564,0.3064,0.2344,0.422,0.1653,0.5226c-0.0329,0.0479-0.0954,0.086-0.1741,0.106 c0.0045-0.0011,0.0089-0.0023,0.0133-0.0036c0.164-0.0465,0.235-0.1652,0.1586-0.265s-0.2714-0.1431-0.4354-0.0965 s-0.235,0.1652-0.1586,0.265C-0.3983,0.571-0.3421,0.6051-0.2723,0.625C-0.2679,0.6262-0.2634,0.6274-0.259,0.6286z" class="hud1-circle-of-latitude14"/>
                            <path d="M-0.3855,0.4864c0,0.0846,0.1127,0.1532,0.2516,0.1532 S0.1178,0.571,0.1178,0.4864S0.0051,0.3332-0.1339,0.3332S-0.3855,0.4018-0.3855,0.4864L-0.3855,0.4864z M-0.3893,0.4847 c0-0.0859,0.1143-0.1555,0.2554-0.1555s0.2555,0.0696,0.2555,0.1555c0,0,0,0,0,0c0,0.0859-0.1143,0.1555-0.2554,0.1555 C-0.2749,0.6402-0.3893,0.5706-0.3893,0.4847C-0.3893,0.4847-0.3893,0.4847-0.3893,0.4847z" class="hud1-circle-of-latitude15"/>
                            <path d="M-0.3052,0.5158c0,0.0576,0.0767,0.1043,0.1714,0.1043 s0.1714-0.0467,0.1714-0.1043c0-0.0576-0.0767-0.1043-0.1714-0.1043S-0.3052,0.4582-0.3052,0.5158z M-0.3094,0.5146 c0-0.059,0.0786-0.1068,0.1755-0.1068s0.1755,0.0478,0.1755,0.1068s-0.0786,0.1068-0.1755,0.1068 S-0.3094,0.5736-0.3094,0.5146z" class="hud1-circle-of-latitude16"/>
                            <path d="M-0.2198,0.5336c0,0.0289,0.0384,0.0523,0.0859,0.0523 S-0.048,0.5625-0.048,0.5336s-0.0384-0.0523-0.0859-0.0523S-0.2198,0.5047-0.2198,0.5336z M-0.2241,0.533 c0-0.0303,0.0404-0.0549,0.0902-0.0549s0.0902,0.0246,0.0903,0.0549c0,0,0,0,0,0c0,0.0303-0.0404,0.0549-0.0902,0.0549 C-0.1837,0.588-0.2241,0.5634-0.2241,0.533C-0.2241,0.533-0.2241,0.533-0.2241,0.533z" class="hud1-circle-of-latitude17"/>
                        </g>
                    </g>
                </g>
            </g>
            <defs>
                <filter id="Adobe_OpacityMaskFilter19" width="198.713" height="199.0288" x="73.3909" y="72.4957" filterUnits="userSpaceOnUse">
                    <feColorMatrix type="matrix" values="1 0 0 0 0 0 1 0 0 0 0 0 1 0 0 0 0 0 1 0"/>
                </filter>
            </defs>
            <mask id="hud1-countries_19_" width="181.3432" height="181.3378" x="109.588" y="81.3109" maskUnits="userSpaceOnUse">
                <g filter="url(#Adobe_OpacityMaskFilter19)">
                    <radialGradient id="SVGID_121_" cx="173.3016" cy="172.1376" r="99.4255" gradientUnits="userSpaceOnUse">
                        <stop offset="0.6847" style="stop-color:#FFFFFF"/>
                        <stop offset="0.7516" style="stop-color:#CDCDCD"/>
                        <stop offset="0.9032" style="stop-color:#525252"/>
                        <stop offset="1" style="stop-color:#000000"/>
                    </radialGradient>
                    <circle cx="173.3016" cy="172.1376" r="99.4255" fill="url(#SVGID_121_)"/>
                </g>
            </mask>
            <g id="hud1-countries" opacity="0.5" mask="url(#hud1-countries_19_)">
                <path fill="none" d="M263.2798,131.2966c-0.1916-0.422-0.3904-0.8398-0.5877-1.2587v1.3401L263.2798,131.2966z"/>
                <path fill="none" d="M242.3349,109.7966l0.4369,1.4518l6.9678,0.0637l0.6608-0.9836c-1.1907-1.4884-2.4221-2.9425-3.695-4.3589 l-0.006,1.6106L242.3349,109.7966z"/>
                <path fill="none" d="M143.9256 123.0358L142.3737 122.071 141.4544 123.0358 142.6832 124.0598z"/>
                <path fill="none" d="M137.5059 122.3752L137.5059 118.3752 137.5059 118.3752 137.5059 118.3752 131.8423 118.3752 128.9251 119.5268 128.3562 121.3629 130.6317 122.3752z"/>
                <path fill="none" d="M134.0497 122.3752L130.6954 122.3752 128.3562 124.9106 127.9739 127.4435 129.7488 128.391z"/>
                <path fill="none" d="M126.827 114.4114L127.6553 111.1846 125.2523 110.6112 122.5945 111.8764 124.2329 115.2351z"/>
                <path fill="none" d="M248.5059,229.5052l-4-5.2156v-8.1192l-2.997-2.9446l-0.2742-3.3769l3.745-7.1726l-7.1319-12.5748 l0.8441-8.5288l-6.4138-1.2522l-2.3632-2.9452h-4.3099l-2.1891,3h-7.5913h-0.2549h-4.2235l-9.6985-10.6176l0.082-8.3945 l1.602-1.14l0.5962-3.8479h-2.2756l-0.1512-2.7979l12.0049-7.44v-5.739l4.7115-2.6477l1.4392,0.6246h4.5238l4.2351-2.2994 l12.0904-1.289v5.8255l8.2941,2.3889l1.0715,1.374h1.6343v-3.3852l5.1949-0.3964l4.94,3.7816h6.4209 c-0.8538-2-1.832-5.8482-2.9365-8.6277l-2.8655-0.0052l-2.6533-2.9399l-0.5097-4.6967l-2.717,1.4769l-1.4609,5.722 l-3.9231-4.1797l-0.1593-3.9467l-3.7911-2.8367l-1.4017-0.9662h-4.3964l1.3927,3.4917l5.2884,2.7357l0.9193,0.8673 l-1.1423,0.5201l0.0501,3.0772l-2.576,1.0607l-2.1982-0.4891l-1.3745-1.9512l3.5772,0.1895l0.9649-1.3025l-7.9281-5.348 l-0.6008-2.2758l-3.2222,2.9126l-3.2677-0.6691l-4.9699,6.458l-0.9739,2.5305l-3.1813,0.2867l-4.7059,0.0273l-2.8126-1.3153 l-0.8237-5.5888l1.0103-2.6624l4.7832-1.0468l5.2201,1.0468l0.6372-2.89l-2.2164-0.5234l0.76-4.4965l5.252-0.8238l3.6728-5.1883 l3.7911-0.3878l3.4225,0.7546h1.2607l-0.6918-5.1191l-4.1643,1.5547l-1.4609-3.7033l-2.4166-0.368l-0.4505-2.5141l1.9706-2.1514 l4.6831-1.838l0.0714-0.1297c-17.5241-15.5865-40.6057-25.6106-65.9034-25.6106c-16.7068,0-32.4453,4.8796-46.258,10.8796h5.6343 l2.6988,4.2631l4.4783,0.5295l2.6988-2.4841l2.0298,1.0836l-3.7183,3.6662c0,0-5.1428,0.1036-4.8925,0.1036 c0.2503,0,0.4233,3.5494,0.4233,3.5494l6.2396-0.1687l0.6736-1.6817l4.3008-0.2538l0.5052-2.5299l-2.5304-0.4275l0.8419-2.2754 l1.9388-0.587l6.7493,0.3368l-3.7183,3.3769l0.6008,2.6124l3.8821,0.5916l-0.2549-4.7241l3.7137-1.9433l6.3108-0.76 l9.2644,4.2234v3.6273l3.3104,0.3823l-1.2499,2.4895h-4.3008l-1.2744,3.6683l-9.8395-2.1322l7.7324-4.0243l-2.9492-2.4559 l-6.6674,0.8656l-0.5826,0.6126l-0.0227-0.0032l-0.1047,0.1486l-1.916,1.9949l-3.1721,0.2693l0.2549,1.5842l1.1105,0.4598 l-0.0455,0.5235l-2.5805,0.3687l-0.1911,1.4973l-2.4667,0.1275l-0.446-2.9764l-4.4283,1.3471l-9.0522,5.2975l1.0194,3.7273 l2.6658,1.6475l5.1963,0.7009v5.7526l2.2039-0.3777l1.7847-4.4966l5.0114-1.7067v-6.8995l3.2995-2.2619l7.3887,1.9462 l-0.3573,4.7952h1.9388l5.3157-2.8518l0.2549,5.865l3.8776,2.3021l-0.1639,3.52l-3.7091,1.2502l0.2549,1.1667l4.4692,2.0306 l-0.0865,2.4421l-1.2971,0.1083c-0.0091-0.0455-0.0136-0.0687-0.0136-0.0687l-5.6389-1.8481l-0.2412-1.9163h-0.0045 l1.7129-0.9146v-1.6475l-1.8076-0.446l-0.4578,1.5201l-2.269,0.4778l0.5345-0.1047v0.1547l-1.9262,0.1638l-1.3044-1.7663 l-1.4409-0.4374h-2.2164l-2.112,0.8065v1.8205l2.451,0.6326l2.1471,0.2639l-0.2804,0.1866l-1.6375,1.8933l-0.7209-0.9466 l-1.6302-0.4369l-4.4879,4.2326l0.5914,0.4824l-6.638,3.6773l-6.2431,6.499l-0.4273,2.8945l-6.2621,4.1142l-3.1038,3.1221 l0.3414,6.2442l-4.3053-2.0025l0.0318-3.6545l-11.9786,0.0045l-6.2032,3.1403l-2.6943,4.9653l-1.065,3.9367l1.7431,3.8184 l4.8879,0.5962l7.7688-5.1928l0.6781,2.5714l-2.3711,4.4783l5.9119,1.0103l0.5871,9.1296l8.101,1.3744l5.1474-5.9483 l6.2487,1.2697l2.1936,3.0538l5.9893-0.355l0.1684-1.7749l3.2905,1.6066l3.7046,5.8209l6.4126,0.091l2.3666,4.137l0.3368,5.0563 l7.0907,2.7034l8.943,0.0865l2.6169,4.2963l3.9641,1.2698l-0.7601,3.5453l-4.3463,5.5251l-1.2652,12.2198l-3.9231,3.1039 l-5.8209-0.1775l-1.9433,3.3724l1.4382,6.3352l-6.3306,8.101l-2.0253,3.7137l-6.0348,2.8991l-3.9686,0.6008l-0.1638,1.6839 l2.7853,0.7964l-0.3368,1.8113l-2.494,2.403l1.5155,1.9024l3.0037,0.0865l-0.1684,2.321l-0.7965,2.2756l-0.2549,1.8569 l4.4419,3.741l-0.5916,1.9433l-6.0439-0.1138l-6.0121-5.2475l-4.6831-8.233l0.6553-7.9508l-3.5453-4.7286l1.7722-8.0146 l-1.7686-0.5916v-17.3808c0,0-6.2459-4.4783-6.5827-4.4783c-0.3413,0-3.2959-0.7555-3.2959-0.7555l-0.6717-3.2905l-7.7246-9.6211 l0.7389-3.4589l0.2397-5.6525l5.3059-3.7137l-0.7627-6.3307l-7.761-0.5825l-6.0765-6.9223l-4.3011-1.1742l-2.7855-0.5097 l0.2797-2.5305l-3.6024-0.5052v1.4336l-8.8041-2.1936l-3.5396-5.4568l1.4661-2.6442l-5.6044-7.793l-0.9531-5.5948h-2.2756 l0.76,5.4264l3.8821,5.792l-0.4233,2.268l-3.8763-0.5545l-4.6318-6.9534v-8.0327l-3.4683-1.9505 c-3.8419,10.573-5.6467,21.983-5.6467,33.8836c0,54.7922,44.5643,99.2704,99.3565,99.2704 c30.3999,0,57.7475-14.1492,75.9461-35.1492h-0.1876V229.5052z"/>
                <path fill="none" d="M118.5059 95.9338L118.5059 94.3752 115.6312 94.3752 115.44 95.3752 113.5059 95.3752 113.5059 95.3752 113.5059 95.3752 113.5059 98.3752 118.2162 98.3752z"/>
                <path fill="none" d="M118.5059 99.8569L116.4337 100.2346 113.056 101.245 113.7557 102.3828 118.5059 102.0687z"/>
                <path fill="none" d="M136.084 127.5141L134.5594 127.4048 134.0542 129.3752 137.281 129.3752 139.5059 128.4016 139.5059 126.431 136.7846 126.7541z"/>
                <path fill="none" d="M137.5059,125.7392l1.6866-0.3504l1.3134-0.9785v-2.035h-3 C137.5059,123.3752,137.5059,125.7392,137.5059,125.7392z"/>
                <path fill="none" d="M138.5059 119.1537L138.5059 121.5612 140.5949 121.0561z"/>
                <path fill="none" d="M120.6375,91.369l4.3008,0.9284l0.3322,1.6885l6.8404,0.2549l-0.9285-2.1936l-6.0757-0.1684l1.4245-1.1106 l-0.5006-1.3928h-5.4887l5.7374-4.4993c-3.1137,1.6605-6.1304,3.3719-9.0351,5.3437l1.1132-0.0623L120.6375,91.369z"/>
                <path fill="none" d="M144.5059 127.3752L144.5059 125.7392 140.576 124.3752 140.5059 124.3752 140.5059 126.431 141.2041 127.3752z"/>
                <path fill="#663399" d="M234.0427,100.0662l-1.9706,2.1436l0.4505,2.4986l2.4166,0.3368l1.4609,3.6409l4.1643-1.43l0.6918,5.1191 h-1.2607l-3.4225-0.7546l-3.7911,0.5125l-3.6728,5.1259l-5.252,0.7926l-0.76,4.4809l2.2164,0.5156l-0.6372,2.8861l-5.2201-1.0487 l-4.7832,1.0458l-1.0103,2.6619l0.8237,5.5885l2.8126,1.3152l4.7059-0.0274l3.1813-0.2867l0.9739-2.5305l4.9699-6.4581 l3.2677,0.669l3.2222-2.9127l0.6008,2.2756l7.9281,5.3476l-0.9649,1.3016l-3.5772-0.1912l1.3745,1.9479l2.1982,0.4824 l2.576-1.0741l-0.0501-3.1039l1.1423-0.5734l-0.9193-0.974l-5.2884-2.5222l-1.3927-3.4917h4.3964l1.4017,0.9658l3.7911,3.0497 l0.1593,3.8391l3.9231,4.1246l1.4609-5.752l2.717-1.497l0.5097,4.6765l2.6533,2.9093l2.8655-0.0509 c-0.5819-1.4647-0.7899-2.9135-1.4386-4.3429l-0.1808,0.0806v-1.3401c-3-7.0664-7.8712-13.6755-12.6986-19.7095l-0.8642,0.9836 l-7.0695-0.0637l-0.5911-1.4518l4.2235-2.2164v-1.6106c-2-2.7673-5.0282-5.3924-7.8084-7.8652l-0.0215,0.1278L234.0427,100.0662z"/>
                <path fill="#663399" d="M268.0617,144.3752h-6.4209l-4.94-3.7816l-5.1949,0.3964v3.3852h-1.6343l-1.0715-1.374l-8.2941-2.3889 v-5.8255l-12.0904,1.289l-4.2351,2.2994h-4.5238l-1.4392-0.6246l-4.7115,2.6477v5.739l-12.0049,7.44l0.1512,2.7979h2.2756 l-0.5962,3.9561l-1.602,0.9176l-0.082,8.3435l9.6985,10.7829h4.2235h0.2549h7.5913l2.1891-3h4.3099l2.362,2.9452l6.4126,0.9606 l-0.8465,8.6746l7.1271,12.6477l-3.7547,7.209l0.2936,3.3951l2.997,2.9628v8.1192l4,5.2156v6.8701h0.1876 c14.6022-18,23.4104-39.5598,23.4104-63.952C272.1039,162.6635,270.6879,152.3752,268.0617,144.3752z"/>
                <path fill="#663399" d="M82.5059,148.3538l4.6318,6.9041l3.5834,0.5052l0.5697-2.3666l-3.8089-5.5948l-0.6868-5.4264h2.2756 l0.9603,5.5948l5.6116,7.9902l-1.4518,2.5456l3.5111,5.4075l8.8041,2.1443v-1.4336l3.6023,0.5052l-0.3083,2.5305l2.7995,0.5097 l4.3079,1.1742l6.0794,6.9223l7.7615,0.5825l0.7609,6.3307l-5.3107,3.7137l-0.2501,5.6525l-0.7599,3.4589l7.6824,9.6211 l0.5871,3.2905c0,0,3.1239,0.7555,3.4652,0.7555c0.3368,0,6.5827,4.4783,6.5827,4.4783v17.3808l1.7686,0.5916l-1.6029,8.0146 l3.4607,4.7286l-0.6976,7.9508l4.6619,8.233l6.0015,5.2475l6.0386,0.1138l0.589-1.9433l-4.4433-3.741l0.2542-1.8569 l0.7961-2.2756l0.1682-2.321l-3.0038-0.0865l-1.5156-1.9024l2.494-2.403l0.3368-1.8113l-2.7853-0.7964l0.1638-1.6839 l3.9686-0.6008l6.0348-2.8991l2.0253-3.7137l6.3306-8.101l-1.4382-6.3352l1.9433-3.3724l5.8209,0.1775l3.9231-3.1039 l1.2652-12.2198l4.3463-5.5251l0.7601-3.5453l-3.9641-1.2698l-2.6169-4.2963l-8.943-0.0865l-7.0907-2.7034l-0.3368-5.0563 l-2.3666-4.137l-6.4126-0.091l-3.7046-5.8209l-3.2905-1.6066l-0.1684,1.7749l-5.9893,0.355l-2.1936-3.0538l-6.2487-1.2697 l-5.1474,5.9483l-8.101-1.3744l-0.5871-9.1296l-5.9119-1.0103l2.3711-4.4783l-0.6781-2.5714l-7.7688,5.1928l-4.8879-0.5962 l-1.7431-3.8184l1.065-3.9367l2.6943-4.9653l6.2032-3.1403l11.9786-0.0045l-0.0318,3.6545l4.3054,2.0025l-0.3414-6.2442 l3.1039-3.1221l6.2624-4.1142l0.4278-2.8945l6.2441-6.499l6.6401-3.6773l-0.5871-0.4824l4.4965-4.2326l1.6475,0.4369 l0.7555,0.9466l1.7067-1.8933l0.4187-0.1866l-2.4236-0.2639l-2.451-0.6326v-1.8205l2.112-0.8065h2.2164l1.0149,0.4374 l1.7305,1.7706l1.9262-0.1681v-0.1547l-0.5426,0.1047l2.6869-0.4778l0.2611-1.5201l1.5946,0.446v1.6475l-1.7129,0.9146h0.0045 l0.2412,1.9161l5.6389,1.7932c0,0,0.0045,0.0501,0.0136,0.0956l1.2971-0.0955l0.0865-2.4371l-4.4692-2.031l-0.2549-1.1725 l3.7091-1.2644l0.1639-3.5495l-3.8776-2.3618l-0.2549-5.7451l-5.3157,2.852h-1.9388l0.5097-4.7952l-7.5412-1.8264l-3.2995,2.1421 v6.8995l-5.0791,1.7067l-1.8694,4.4966l-2.0515,0.3777v-5.7526l-5.1963-0.7009l-2.5981-1.6475l-1.0533-3.7273l9.0353-5.2975 l4.4198-1.3471l0.4418,2.9764l2.4646-0.1275l0.1901-1.4973l2.58-0.3686l0.0452-0.5234l-1.1106-0.4596l-0.2549-1.5838 l3.1721-0.2685l1.916-1.9934l0.1046-0.1457l0.0228,0.0091l0.5825-0.6008l6.6674-0.8419l2.9492,2.5031l-7.7324,4.1188 l9.8395,1.9434l1.2744-3.6683h4.3008l1.2499-2.4895l-3.3104-0.3823v-3.6273l-9.2644-4.2234l-6.4459,0.76l-3.6462,1.9433 l0.2886,4.7241l-3.8652-0.5916l-0.5923-2.6124l3.7225-3.3769l-6.7472-0.3368l-1.9377,0.5871l-0.8414,2.2756l2.5307,0.4278 l-0.5051,2.5305l-4.3008,0.2549l-0.6735,1.6839l-6.2396,0.173c0,0-0.1729-3.5408-0.4232-3.5408s4.8925-0.0865,4.8925-0.0865 l3.7183-3.6318l-2.0298-1.0149l-2.6988,2.6214l-4.4783-0.8042l-2.6988-4.2631h-5.6343c-0.1188,0-0.238,0.888-0.3566,0.9513 l-5.7374,5.0487h5.4887l0.5006,1.3928l-1.4245,1.2175l6.0757,0.115l0.9285,2.1669l-6.8404-0.2682l-0.3322-1.6952l-4.3008-0.9318 l-2.2801-1.2669l-1.1132,0.0081c-17.1314,11.629-31.0183,28.4755-38.2065,48.2574l3.4683,1.9501V148.3538z"/>
                <path fill="#663399" d="M139.5059 128.4016L137.281 129.3752 134.0542 129.3752 134.5594 127.4048 136.084 127.3934 136.7846 126.6937 139.5059 126.431z"/>
                <path fill="#663399" d="M140.5059,124.4103l-1.3134,0.9785l-1.6866,0.3504c0,0,0-2.364,0-3.364h3V124.4103z"/>
                <path fill="#663399" d="M142.3737 122.071L143.9256 123.0358 142.6832 124.0598 141.4544 123.0358z"/>
                <path fill="#663399" d="M140.5059 124.3752L140.576 124.3752 144.5059 125.7392 144.5059 127.3752 141.2041 127.3752 140.5059 126.431z"/>
                <path fill="#663399" d="M138.5059 119.1537L140.5949 121.0561 138.5059 121.5612z"/>
                <path fill="#663399" d="M128.9251 119.5268L131.8423 118.3752 137.5059 118.3752 137.5059 118.3752 137.5059 118.3752 137.5059 122.3752 130.6317 122.3752 128.3562 121.3629z"/>
                <path fill="#663399" d="M128.3562 124.9106L130.6954 122.3752 134.0497 122.3752 129.7488 128.3922 127.9739 127.441z"/>
                <path fill="#663399" d="M125.2523 110.6112L127.6553 111.1846 126.827 114.4114 124.2329 115.2351 122.5945 111.8764z"/>
                <path fill="#663399" d="M118.5059 102.0687L113.8395 102.3828 113.056 101.245 116.3498 100.2346 118.5059 99.8569z"/>
                <path fill="#663399" d="M113.5059 95.3752L113.5059 95.3752 113.5059 95.3752 115.44 95.3752 115.6312 94.3752 118.5059 94.3752 118.5059 95.9338 118.2162 98.3752 113.5059 98.3752z"/>
            </g>
        </g>

        <g class="buttons">
            <g class="btn-mail">
                <circle cx="112.6309" cy="176.8752" r="31" />
                <path class="crosshair" d="M142.5059,175.3752h-7.1905c-0.7871-11-9.8095-19.5773-20.8095-20.2478v-8.7522h-3v8.7441 c-11,0.5955-19.6339,9.2559-20.4248,20.2559h-8.5752v3h8.5441c0.4868,11,9.4559,20.4063,20.4559,21.0131v7.9869h3v-7.995 c11-0.6833,20.3559-10.005,20.8404-21.005h7.1596V175.3752z M114.5456,196.8438c-0.4472,0.0306-0.8927,0.0683-1.3475,0.0683 c-0.4014,0-0.7935-0.0364-1.189-0.0602c-10.2853-0.6199-18.4692-9.1596-18.4692-19.598c0-10.4384,8.1839-18.978,18.4692-19.5979 c0.3955-0.0238,0.7876-0.0602,1.189-0.0602c0.4549,0,0.9003,0.0377,1.3475,0.0683c10.2109,0.6974,18.3106,9.205,18.3106,19.5899 C132.8562,187.6387,124.7566,196.1463,114.5456,196.8438z"/>
                <g>
                    <path d="M123.842,167.9362h-21.3184c-0.8406,0-1.5227,0.6822-1.5227,1.5227v2.5567l12.1819,4.8728 l12.1819-4.8728v-2.5567C125.3647,168.6184,124.6826,167.9362,123.842,167.9362z"/>
                    <path d="M101.0009,174.5023v10.1841c0,0.8406,0.6822,1.5228,1.5227,1.5228h21.3184 c0.8406,0,1.5227-0.6822,1.5227-1.5228v-10.1841l-12.1819,4.8728L101.0009,174.5023z"/>
                </g>
            </g>
            <g class="btn-linked">
                <circle cx="119.6309" cy="212.8752" r="22.875" />
                <path class="crosshair" d="M142.5059,211.3752h-5.5585c-0.6006-8-7.4415-14.4236-15.4415-14.9352v-7.0648h-3v7.0586 c-8,0.4544-14.7075,6.9414-15.311,14.9414h-6.689v3h6.6654c0.3715,8,7.3346,15.3746,15.3346,15.8376v6.1624h3v-6.1685 c8-0.5214,15.0955-7.8315,15.4652-15.8315h5.5348V211.3752z M121.0993,228.2712c-0.3412,0.0233-0.6811,0.0521-1.0282,0.0521 c-0.3063,0-0.6055-0.0278-0.9073-0.046c-7.8481-0.473-14.0927-6.9891-14.0927-14.954c0-7.9649,6.2446-14.481,14.0927-14.954 c0.3018-0.0182,0.601-0.0459,0.9073-0.0459c0.3471,0,0.687,0.0288,1.0282,0.0521c7.7914,0.5322,13.9717,7.0238,13.9717,14.9479 S128.8907,227.739,121.0993,228.2712z"/>
                <g>
                    <path d="M113.276,220.0417h2.08c0.287,0,0.5196-0.2326,0.5196-0.5196v-9.0917 c0-0.287-0.2326-0.5196-0.5196-0.5196h-2.08c-0.287,0-0.5196,0.2326-0.5196,0.5196v9.0917 C112.7565,219.8091,112.9891,220.0417,113.276,220.0417z"/>
                    <path d="M113.276,208.3125h2.08c0.287,0,0.5196-0.2326,0.5196-0.5196v-1.8471 c0-0.287-0.2326-0.5196-0.5196-0.5196h-2.08c-0.287,0-0.5196,0.2326-0.5196,0.5196v1.8471 C112.7565,208.0799,112.9891,208.3125,113.276,208.3125z"/>
                    <path d="M127.9738,210.9654c-0.2923-0.3848-0.7233-0.7011-1.2932-0.9491 c-0.5699-0.2478-1.1989-0.3718-1.8871-0.3718c-1.3971,0-2.581,0.5332-3.5516,1.5998c-0.1931,0.2122-0.3336,0.1658-0.3336-0.1212 v-0.6926c0-0.287-0.2326-0.5196-0.5196-0.5196h-1.8581c-0.287,0-0.5196,0.2326-0.5196,0.5196v9.0917 c0,0.287,0.2326,0.5196,0.5196,0.5196h2.08c0.287,0,0.5196-0.2326,0.5196-0.5196v-3.1618c0-1.3172,0.0795-2.2202,0.2386-2.7085 s0.4533-0.8806,0.8825-1.1766s0.9139-0.4441,1.4542-0.4441c0.4218,0,0.7826,0.1036,1.0823,0.3109s0.5162,0.4976,0.6494,0.8714 c0.1332,0.3738,0.1998,1.197,0.1998,2.4699v3.8389c0,0.287,0.2326,0.5196,0.5196,0.5196h2.08 c0.287,0,0.5196-0.2326,0.5196-0.5196v-5.1489c0-0.9102-0.0574-1.6095-0.172-2.0979S128.2663,211.3503,127.9738,210.9654z"/>
                </g>
            </g>
            <g class="btn-gplus">
                <circle cx="144.6309" cy="235.8752" r="22.875" />
                <path class="crosshair" d="M167.5059,234.3752h-5.2753c-0.6006-8-7.7247-14.9123-15.7247-15.4239v-6.5761h-3v6.5699 c-8,0.4544-14.4243,7.4301-15.0278,15.4301h-6.9722v3h6.9485c0.3715,8,7.0515,14.8858,15.0515,15.3489v6.6511h3v-6.6573 c8-0.5214,15.3787-7.3427,15.7484-15.3427h5.2516V234.3752z M146.3825,250.7825c-0.3412,0.0233-0.6812,0.0521-1.0282,0.0521 c-0.3063,0-0.6055-0.0278-0.9073-0.046c-7.8481-0.473-14.0927-6.9891-14.0927-14.954s6.2446-14.481,14.0927-14.954 c0.3018-0.0182,0.601-0.0459,0.9073-0.0459c0.3471,0,0.687,0.0288,1.0282,0.0521c7.7914,0.5322,13.9717,7.0238,13.9717,14.9479 S154.1738,250.2503,146.3825,250.7825z"/>
                <g>
                    <path d="M149.505,226.3763h-4.4154c-1.9676,0-3.3295,0.4314-4.5554,1.444 c-0.9641,0.8318-1.5394,2.0406-1.5394,3.2338c0,1.8383,1.4016,3.7919,3.9988,3.7919c0.2497,0,0.5262-0.0256,0.7702-0.0484 l-0.0359,0.0874c-0.1044,0.2501-0.2033,0.4861-0.2033,0.8543c0,0.717,0.3459,1.1593,0.6803,1.5869l0.0421,0.0541l-0.0748,0.0052 c-1.0725,0.0734-3.0687,0.2101-4.5269,1.1065c-1.7222,1.0241-1.8561,2.5135-1.8561,2.9454c0,1.7188,1.6016,3.4533,5.1799,3.4533 c4.1608,0,6.3379-2.2955,6.3379-4.5629c0.0006-1.6771-0.9828-2.5051-2.0266-3.384l-0.8805-0.6849 c-0.2721-0.2254-0.6109-0.5059-0.6109-1.0258c0-0.5109,0.3388-0.8482,0.6379-1.1457l0.0312-0.0316 c0.9509-0.749,2.0287-1.5981,2.0287-3.4349c0-1.8467-1.1541-2.801-1.7088-3.2598h1.4652c0.018,0,0.0358-0.005,0.0509-0.0147 l1.262-0.7935c0.0359-0.0228,0.0528-0.0665,0.0409-0.1075C149.5851,226.4044,149.5476,226.3763,149.505,226.3763z M144.1505,243.8788c-2.5362,0-4.2403-1.1846-4.2403-2.9477c0-1.1513,0.697-1.9878,2.0697-2.4852 c1.0993-0.37,2.5182-0.3884,2.5324-0.3884c0.2404,0,0.3612,0,0.5532,0.0241c1.7746,1.263,2.6278,1.9261,2.6278,3.189 C147.6931,242.8795,146.3354,243.8788,144.1505,243.8788z M144.1266,234.1693c-2.1286,0-3.0119-2.798-3.0119-4.2961 c0-0.7618,0.1732-1.3465,0.5296-1.788c0.3868-0.484,1.0492-0.7966,1.6874-0.7966c1.9544,0,3.0351,2.6268,3.0351,4.4424 c0,0.2864,0,1.1578-0.6019,1.763C145.3601,233.898,144.7018,234.1693,144.1266,234.1693z"/>
                    <path d="M155.6935,235.0234h-2.3266v-2.3184c0-0.0528-0.0428-0.0956-0.0956-0.0956h-1.001 c-0.0528,0-0.0956,0.0428-0.0956,0.0956v2.3184h-2.3148c-0.0528,0-0.0956,0.0428-0.0956,0.0956v1.0142 c0,0.0528,0.0428,0.0956,0.0956,0.0956h2.3148v2.3333c0,0.0528,0.0428,0.0956,0.0956,0.0956h1.001 c0.0528,0,0.0956-0.0428,0.0956-0.0956v-2.3335h2.3266c0.0528,0,0.0956-0.0428,0.0956-0.0956v-1.014 C155.7891,235.0661,155.7465,235.0234,155.6935,235.0234z"/>
                </g>
            </g>
        </g>
    </g>
</svg>
