<?xml version="1.0" encoding="utf-8"?>
<!-- Generator: Adobe Illustrator 17.0.0, SVG Export Plug-In . SVG Version: 6.00 Build 0)  -->
<!DOCTYPE svg PUBLIC "-//W3C//DTD SVG 1.1//EN" "http://www.w3.org/Graphics/SVG/1.1/DTD/svg11.dtd">
<svg version="1.1" id="loader" xmlns="http://www.w3.org/2000/svg" xmlns:xlink="http://www.w3.org/1999/xlink" x="0px" y="0px"
	 width="367.9279px" height="350.8244px" viewBox="0 0 367.9279 350.8244" enable-background="new 0 0 367.9279 350.8244"
	 xml:space="preserve">
<defs>
	<filter id="Adobe_OpacityMaskFilter" filterUnits="userSpaceOnUse" x="0" y="0" width="367.9279" height="350.8244">
		<feColorMatrix  type="matrix" values="1 0 0 0 0  0 1 0 0 0  0 0 1 0 0  0 0 0 1 0"/>
	</filter>
</defs>
<mask maskUnits="userSpaceOnUse" x="0" y="0" width="367.9279" height="350.8244" id="loader-loader_1_">
	<g filter="url(#Adobe_OpacityMaskFilter)">
		<path id="a1_2_" fill="#FFFFFF" d="M156.3017,262.2634c-9.4242,15.8357-20.3418,33.1752-29.9818,49.4582h234.4984
			C301.646,209.1982,243.3477,108.4237,183.9545,5.4675C124.9981,108.6496,67.1375,209.8563,8.6234,312.3802h59.61
			c38.5799-67.5399,76.384-132.8247,116.4874-203.0081c31.1214,53.9049,58.4699,100.2387,88.9332,152.8224
			C232.0175,262.1894,195.7465,262.2634,156.3017,262.2634z"/>
	</g>
</mask>
<polyline id="loader-loader" mask="url(#loader-loader_1_)" fill="none" stroke="#AAFF00" stroke-width="56" stroke-miterlimit="10" points="
	24.3405,336.9846 184.0074,56.1721 319.3037,288.8723 118.6784,289.1867 "/>
</svg>
