<?xml version="1.0" encoding="utf-8"?>
<!-- Generator: Adobe Illustrator 17.0.0, SVG Export Plug-In . SVG Version: 6.00 Build 0)  -->
<!DOCTYPE svg PUBLIC "-//W3C//DTD SVG 1.1//EN" "http://www.w3.org/Graphics/SVG/1.1/DTD/svg11.dtd">
<svg version="1.1" id="XMLID_1_" xmlns="http://www.w3.org/2000/svg" xmlns:xlink="http://www.w3.org/1999/xlink" x="0px" y="0px"
	 width="1063.9358px" height="1538.8242px" viewBox="0 0 1063.9358 1538.8242" enable-background="new 0 0 1063.9358 1538.8242"
	 xml:space="preserve">
<g id="logo_x5F_aaa">
	<g id="mask">
		<path id="l" display="none" fill="#AAFF00" d="M557.7589,1428.4812c17.4738,30.0762,34.6395,59.8513,51.7319,89.3253
			c6.8228,0,13.1823,0,20.0787,0c-17.4737-30.0762-34.6395-59.8546-51.7318-89.3253
			C571.0181,1428.4812,564.7339,1428.4812,557.7589,1428.4812z"/>
		<path id="e" display="none" fill="#AAFF00" d="M668.875,1481.3711c-5.3621,9.8657-10.7996,18.6709-16.6971,28.7623
			c-3.3677-5.6887-9.1132-15.3287-9.1132-15.3287l-0.0427-0.0685l26.8314-46.9888h-71.0443
			c17.5388,30.3566,35.7564,61.0964,53.3705,91.0768c11.258-19.5056,22.3331-37.7184,33.4371-57.4531H668.875z M634.2424,1480.1892
			l-10.0677-16.6785h19.3638L634.2424,1480.1892z"/>
		<path id="x2" display="none" fill="#AAFF00" d="M745.1669,1426.7297h-19.6664l-62.653,110.343h19.3654L745.1669,1426.7297z"/>
		<path id="x1" display="none" fill="#AAFF00" d="M718.3593,1518.005h13.6698l5.4683,0.0376l-40.248-70.4868h-19.5929
			L718.3593,1518.005z"/>
		<path id="a2" display="none" fill="#AAFF00" d="M767.9874,1517.6902c27.7056,0.0787,54.4874,0.0787,82.2681,0.0787
			c-20.8741-35.8573-41.2863-71.0221-62.0851-106.8025c-18.0414,31.4275-53.5123,93.7535-53.5123,93.7535l7.9279,13.0865
			l4.4523-0.0376c13.5823-23.597,27.1666-47.1941,41.2075-71.6362c10.9005,18.8489,21.1836,36.4698,31.8533,54.8568h-42.1364
			C774.6614,1506.5074,771.4391,1511.8662,767.9874,1517.6902z"/>
		<path id="l2" display="none" fill="#AAFF00" d="M881.7822,1517.8065c-17.549-30.2557-34.7183-59.906-51.7318-89.3253
			c-6.8213,0-13.2576,0-20.0787,0c17.395,30.1017,34.5643,59.752,51.7318,89.3253
			C868.369,1517.8065,874.7318,1517.8065,881.7822,1517.8065z"/>
		<path id="o" display="none" fill="#AAFF00" d="M852.0071,1449.4989c17.5011,29.5459,34.6225,59.3245,52.1252,89.3253
			c17.2736-30.0795,34.0906-59.7794,51.212-89.3253C920.6431,1449.4989,886.78,1449.4989,852.0071,1449.4989z M877.4222,1463.8938
			c18.187,0,34.6242,0,52.7341,0c-8.9796,15.9104-16.704,30.261-25.9094,46.3971
			C894.9627,1494.2301,886.4774,1479.8042,877.4222,1463.8938z"/>
		<g id="i" display="none">
			<path id="i1.2" display="inline" fill="#AAFF00" d="M999.1312,1426.7297h-20.0992c-1.459,2.8206-3.6089,6.8623-5.2203,9.9137
				h19.8735C995.0654,1434.129,997.2907,1430.0103,999.1312,1426.7297z"/>
			<path id="i1.1" display="inline" fill="#AAFF00" d="M987.856,1446.7144h-20.1026
				c-13.5038,23.645-26.8538,47.2179-40.4328,71.0922h20.101C960.6945,1494.3873,974.1195,1470.8177,987.856,1446.7144z"/>
		</g>
		<path id="a3" display="none" fill="#AAFF00" d="M1010.8578,1457.2402c11.8978,20.8774,23.3354,40.7612,34.6994,60.5663
			c5.5658,0,12.2021,0,18.3785,0c-17.3881-30.5105-35.0791-60.9459-52.315-91.0768
			c-17.6158,30.4354-35.3084,60.7953-52.7736,91.0015l17.0837,0.0359l0.0222-0.0359h51.7609
			c-2.9744-4.8951-5.4921-9.1781-8.3878-13.9193l-35.5034,0.1299l2.6237-4.5942
			C994.6602,1485.1443,1002.5692,1471.5104,1010.8578,1457.2402z"/>
	</g>
	<g id="lines">
		<defs>
			<filter id="Adobe_OpacityMaskFilter" filterUnits="userSpaceOnUse" x="0" y="0.128" width="154.798" height="147.7628">
				<feColorMatrix  type="matrix" values="1 0 0 0 0  0 1 0 0 0  0 0 1 0 0  0 0 0 1 0"/>
			</filter>
		</defs>
		<mask maskUnits="userSpaceOnUse" x="0" y="0.128" width="154.798" height="147.7628" id="SVGID_1_">
			<g filter="url(#Adobe_OpacityMaskFilter)">
				<path id="a1_2_" fill="#FFFFFF" d="M63.3234,111.9938c-3.2807,5.5126-7.0812,11.5487-10.4371,17.217h81.6318
					C113.9196,93.5212,93.6252,58.4403,72.9497,22.6c-20.5235,35.919-40.6655,71.1503-61.035,106.8401h20.751
					c13.4302-23.5115,26.5902-46.238,40.5507-70.6697c10.8338,18.765,20.3541,34.8943,30.9588,53.1994
					C89.6811,111.9681,77.0547,111.9938,63.3234,111.9938z"/>
			</g>
		</mask>
		<polyline mask="url(#SVGID_1_)" fill="none" stroke="#AAFF00" stroke-width="40" stroke-miterlimit="10" points="
			17.3861,138.0052 72.9681,40.2509 120.0665,121.2567 50.2263,121.3662 		"/>
		<defs>
			
				<filter id="Adobe_OpacityMaskFilter_1_" filterUnits="userSpaceOnUse" x="82.2859" y="22.2419" width="95.3748" height="125.0149">
				<feColorMatrix  type="matrix" values="1 0 0 0 0  0 1 0 0 0  0 0 1 0 0  0 0 0 1 0"/>
			</filter>
		</defs>
		<mask maskUnits="userSpaceOnUse" x="82.2859" y="22.2419" width="95.3748" height="125.0149" id="SVGID_2_">
			<g filter="url(#Adobe_OpacityMaskFilter_1_)">
				<path id="l_2_" fill="#FFFFFF" d="M94.2342,40.1148c17.4738,30.0762,34.6396,59.8513,51.7319,89.3253
					c6.8228,0,13.1823,0,20.0787,0c-17.4737-30.0762-34.6396-59.8546-51.7318-89.3253
					C107.4934,40.1148,101.2093,40.1148,94.2342,40.1148z"/>
			</g>
		</mask>
		
			<line mask="url(#SVGID_2_)" fill="none" stroke="#AAFF00" stroke-width="40" stroke-miterlimit="10" x1="99.596" y1="32.2598" x2="160.3504" y2="137.239"/>
		<defs>
			
				<filter id="Adobe_OpacityMaskFilter_2_" filterUnits="userSpaceOnUse" x="112.3929" y="46.8764" width="122.4968" height="129.1877">
				<feColorMatrix  type="matrix" values="1 0 0 0 0  0 1 0 0 0  0 0 1 0 0  0 0 0 1 0"/>
			</filter>
		</defs>
		<mask maskUnits="userSpaceOnUse" x="112.3929" y="46.8764" width="122.4968" height="129.1877" id="SVGID_3_">
			<g filter="url(#Adobe_OpacityMaskFilter_2_)">
				<path id="e_2_" fill="#FFFFFF" d="M205.3504,93.0047c-5.3621,9.8657-10.7996,18.6709-16.6972,28.7624
					c-3.3678-5.6888-9.1131-15.3288-9.1131-15.3288l-0.0427-0.0685l26.8314-46.9888h-71.0443
					c17.5388,30.3566,35.7564,61.0964,53.3705,91.0768c11.258-19.5057,22.3331-37.7184,33.4371-57.4532H205.3504z M170.7177,91.8228
					L160.65,75.1443h19.3638L170.7177,91.8228z"/>
			</g>
		</mask>
		<polyline mask="url(#SVGID_3_)" fill="none" stroke="#AAFF00" stroke-width="40" stroke-miterlimit="10" points="
			172.8297,102.5378 192.8622,67.0704 147.4333,66.9609 188.3741,136.4727 217.6018,86.2272 		"/>
		<defs>
			
				<filter id="Adobe_OpacityMaskFilter_3_" filterUnits="userSpaceOnUse" x="200.7149" y="39.3441" width="85.2235" height="107.6685">
				<feColorMatrix  type="matrix" values="1 0 0 0 0  0 1 0 0 0  0 0 1 0 0  0 0 0 1 0"/>
			</filter>
		</defs>
		<mask maskUnits="userSpaceOnUse" x="200.7149" y="39.3441" width="85.2235" height="107.6685" id="SVGID_4_">
			<g filter="url(#Adobe_OpacityMaskFilter_3_)">
				<path id="x1_2_" fill="#FFFFFF" d="M254.8347,129.6386h13.6698l5.4683,0.0377l-40.2481-70.4868h-19.5929L254.8347,129.6386z"/>
			</g>
		</mask>
		
			<line mask="url(#SVGID_4_)" fill="none" stroke="#AAFF00" stroke-width="40" stroke-miterlimit="10" x1="218.0397" y1="49.3367" x2="268.6136" y2="137.02"/>
		<defs>
			
				<filter id="Adobe_OpacityMaskFilter_4_" filterUnits="userSpaceOnUse" x="186.5242" y="20.4182" width="107.0369" height="147.0529">
				<feColorMatrix  type="matrix" values="1 0 0 0 0  0 1 0 0 0  0 0 1 0 0  0 0 0 1 0"/>
			</filter>
		</defs>
		<mask maskUnits="userSpaceOnUse" x="186.5242" y="20.4182" width="107.0369" height="147.0529" id="SVGID_5_">
			<g filter="url(#Adobe_OpacityMaskFilter_4_)">
				<path id="x2_2_" fill="#FCFCFC" d="M281.6423,38.3633h-19.6664l-62.653,110.3431h19.3654L281.6423,38.3633z"/>
			</g>
		</mask>
		
			<line mask="url(#SVGID_5_)" fill="none" stroke="#AAFF00" stroke-width="40" stroke-miterlimit="10" x1="203.9184" y1="157.5999" x2="276.1669" y2="30.2894"/>
		<defs>
			<filter id="Adobe_OpacityMaskFilter_5_" filterUnits="userSpaceOnUse" x="255.1909" y="0" width="152.4165" height="142.0763">
				<feColorMatrix  type="matrix" values="1 0 0 0 0  0 1 0 0 0  0 0 1 0 0  0 0 0 1 0"/>
			</filter>
		</defs>
		<mask maskUnits="userSpaceOnUse" x="255.1909" y="0" width="152.4165" height="142.0763" id="SVGID_6_">
			<g filter="url(#Adobe_OpacityMaskFilter_5_)">
				<path id="a2_2_" fill="#FFFFFF" d="M304.4628,129.3238c27.7056,0.0786,54.4874,0.0786,82.2681,0.0786
					C365.8568,93.5452,345.4446,58.3804,324.6458,22.6c-18.0414,31.4275-53.5124,93.7536-53.5124,93.7536l7.9279,13.0865
					l4.4522-0.0377c13.5824-23.597,27.1667-47.1941,41.2076-71.6361c10.9005,18.8489,21.1836,36.4698,31.8532,54.8568H314.438
					C311.1368,118.141,307.9145,123.4998,304.4628,129.3238z"/>
			</g>
		</mask>
		<polyline mask="url(#SVGID_6_)" fill="none" stroke="#AAFF00" stroke-width="40" stroke-miterlimit="10" points="
			272.5544,130.8899 324.5515,39.9225 372.6076,121.9135 301.8917,121.5851 		"/>
		<defs>
			
				<filter id="Adobe_OpacityMaskFilter_6_" filterUnits="userSpaceOnUse" x="334.7258" y="22.3371" width="95.0298" height="124.2773">
				<feColorMatrix  type="matrix" values="1 0 0 0 0  0 1 0 0 0  0 0 1 0 0  0 0 0 1 0"/>
			</filter>
		</defs>
		<mask maskUnits="userSpaceOnUse" x="334.7258" y="22.3371" width="95.0298" height="124.2773" id="SVGID_7_">
			<g filter="url(#Adobe_OpacityMaskFilter_6_)">
				<path id="l2_2_" fill="#FFFFFF" d="M418.2575,129.4401c-17.549-30.2557-34.7183-59.906-51.7318-89.3253
					c-6.8213,0-13.2576,0-20.0787,0c17.395,30.1018,34.5643,59.752,51.7318,89.3253
					C404.8444,129.4401,411.2071,129.4401,418.2575,129.4401z"/>
			</g>
		</mask>
		
			<line mask="url(#SVGID_7_)" fill="none" stroke="#AAFF00" stroke-width="40" stroke-miterlimit="10" x1="352.0277" y1="32.3692" x2="412.4537" y2="136.5822"/>
		<defs>
			
				<filter id="Adobe_OpacityMaskFilter_7_" filterUnits="userSpaceOnUse" x="372.2878" y="38.951" width="140.8325" height="137.9914">
				<feColorMatrix  type="matrix" values="1 0 0 0 0  0 1 0 0 0  0 0 1 0 0  0 0 0 1 0"/>
			</filter>
		</defs>
		<mask maskUnits="userSpaceOnUse" x="372.2878" y="38.951" width="140.8325" height="137.9914" id="SVGID_8_">
			<g filter="url(#Adobe_OpacityMaskFilter_7_)">
				<path id="o_2_" fill="#FFFFFF" d="M388.4824,61.1325c17.5011,29.5459,34.6225,59.3245,52.1252,89.3254
					c17.2736-30.0795,34.0906-59.7795,51.212-89.3254C457.1184,61.1325,423.2554,61.1325,388.4824,61.1325z M413.8976,75.5274
					c18.187,0,34.6242,0,52.7342,0c-8.9796,15.9104-16.704,30.261-25.9094,46.3972
					C431.4381,105.8637,422.9527,91.4378,413.8976,75.5274z"/>
			</g>
		</mask>
		<polyline mask="url(#SVGID_8_)" fill="none" stroke="#AAFF00" stroke-width="40" stroke-miterlimit="10" points="389.575,49.0083 
			440.5868,136.6916 479.0099,68.4935 405.0099,68.0556 		"/>
		<defs>
			
				<filter id="Adobe_OpacityMaskFilter_8_" filterUnits="userSpaceOnUse" x="452.1104" y="19.9478" width="95.8343" height="126.9758">
				<feColorMatrix  type="matrix" values="1 0 0 0 0  0 1 0 0 0  0 0 1 0 0  0 0 0 1 0"/>
			</filter>
		</defs>
		<mask maskUnits="userSpaceOnUse" x="452.1104" y="19.9478" width="95.8343" height="126.9758" id="SVGID_9_">
			<g filter="url(#Adobe_OpacityMaskFilter_8_)">
				<g id="i_2_">
					<path id="i1.2_2_" fill="#FFFFFF" d="M535.6065,38.3633h-20.0992c-1.459,2.8206-3.6089,6.8623-5.2203,9.9137h19.8735
						C531.5408,45.7626,533.7661,41.6438,535.6065,38.3633z"/>
					<path id="i1.1_2_" fill="#FFFFFF" d="M524.3314,58.348h-20.1026c-13.5039,23.6449-26.8538,47.2179-40.4328,71.0921h20.101
						C497.1698,106.0209,510.5949,82.4513,524.3314,58.348z"/>
				</g>
			</g>
		</mask>
		
			<line mask="url(#SVGID_9_)" fill="none" stroke="#AAFF00" stroke-width="40" stroke-miterlimit="10" x1="469.4862" y1="137.02" x2="530.569" y2="29.8515"/>
		<defs>
			
				<filter id="Adobe_OpacityMaskFilter_9_" filterUnits="userSpaceOnUse" x="471.9146" y="14.9906" width="141.0008" height="134.0649">
				<feColorMatrix  type="matrix" values="1 0 0 0 0  0 1 0 0 0  0 0 1 0 0  0 0 0 1 0"/>
			</filter>
		</defs>
		<mask maskUnits="userSpaceOnUse" x="471.9146" y="14.9906" width="141.0008" height="134.0649" id="SVGID_10_">
			<g filter="url(#Adobe_OpacityMaskFilter_9_)">
				<path id="a3_2_" fill="#FFFFFF" d="M547.3332,68.8739c11.8978,20.8774,23.3354,40.7613,34.6994,60.5663
					c5.5659,0,12.2021,0,18.3786,0c-17.3882-30.5106-35.0792-60.946-52.3151-91.0768
					c-17.6158,30.4354-35.3084,60.7954-52.7736,91.0015l17.0837,0.0359l0.0223-0.0359h51.7609
					c-2.9744-4.8952-5.4921-9.1781-8.3878-13.9193l-35.5033,0.13l2.6237-4.5943C531.1355,96.7779,539.0445,83.144,547.3332,68.8739z
					"/>
			</g>
		</mask>
		<polyline mask="url(#SVGID_10_)" fill="none" stroke="#AAFF00" stroke-width="40" stroke-miterlimit="10" points="
			565.4636,126.8515 506.3767,126.8515 547.3175,55.1992 595.5798,139.0815 		"/>
	</g>
</g>
</svg>
