<?xml version="1.0" standalone="no"?>
<!DOCTYPE svg PUBLIC "-//W3C//DTD SVG 1.1//EN" "http://www.w3.org/Graphics/SVG/1.1/DTD/svg11.dtd" >
<svg xmlns="http://www.w3.org/2000/svg" xmlns:xlink="http://www.w3.org/1999/xlink" version="1.1">
<metadata></metadata>
<defs>
<font id="trenchthin" horiz-adv-x="1077" >
<font-face units-per-em="2048" ascent="1536" descent="-512" />
<missing-glyph horiz-adv-x="454" />
<glyph horiz-adv-x="0" />
<glyph horiz-adv-x="682" />
<glyph unicode=" "  horiz-adv-x="454" />
<glyph unicode="&#x09;" horiz-adv-x="454" />
<glyph unicode="&#xa0;" horiz-adv-x="454" />
<glyph unicode="!" horiz-adv-x="350" d="M0 41q0 17 12 29t29 12t30 -12t13 -29t-13 -29t-30 -12t-29 12t-12 29zM14 264v854q0 12 8 20.5t19 8.5q12 0 20.5 -8.5t8.5 -20.5v-854q0 -12 -8.5 -20t-20.5 -8q-11 0 -19 8t-8 20z" />
<glyph unicode="&#x22;" horiz-adv-x="595" d="M0 1028v31v106v29q0 49 33 49q30 0 30 -49v-29v-106v-31q0 -47 -30 -47q-14 0 -22 7.5t-9.5 16.5t-1.5 23zM147 1028v31v106v29q0 49 31 49q33 0 33 -49v-29v-106v-31q0 -14 -1.5 -23t-9.5 -16.5t-22 -7.5q-31 0 -31 47z" />
<glyph unicode="#" horiz-adv-x="1370" d="M0 412q0 12 8 20t19 8h268l154 267h-422q-11 0 -19 8t-8 20q0 11 8 19t19 8h452l92 158q6 10 43 79t63 108.5t40 39.5q11 0 19.5 -8.5t8.5 -18.5q0 -6 -4 -14l-198 -344h278l90 158q7 13 25 46.5t33 61t33 56.5t33 46t24 17q11 0 18.5 -8.5t7.5 -20.5q0 -8 -2 -12 l-200 -344h235q12 0 20.5 -8t8.5 -19q0 -12 -8.5 -20t-20.5 -8h-266l-154 -267h420q12 0 20.5 -8t8.5 -20q0 -11 -8.5 -19t-20.5 -8h-452l-213 -371q-8 -14 -25 -14q-12 0 -20.5 8.5t-8.5 20.5q0 4 4 12l201 344h-278l-215 -371q-6 -14 -23 -14q-12 0 -20.5 8.5t-8.5 20.5 q0 4 4 12l199 344h-235q-11 0 -19 8.5t-8 18.5zM356 440h279l153 267h-276z" />
<glyph unicode="$" horiz-adv-x="1261" d="M0 266v10q0 10 8 18.5t19 8.5q12 0 20 -8t8 -19q0 -83 56 -145l8 -8q64 -64 153 -64h215v490l-20 2q-84 12 -148.5 27t-123.5 40.5t-97.5 59t-61 82t-22.5 110.5q0 113 80 193l6 6q77 74 185 74h202v88q0 12 8.5 20.5t20.5 8.5q11 0 19 -8.5t8 -20.5v-88h207 q107 0 184 -74l8 -6q77 -80 80 -191v-2q0 -11 -8.5 -18.5t-20.5 -7.5q-11 0 -18.5 8t-7.5 18q0 90 -64 154l-18 18l-2 -2q-56 47 -133 47h-207v-491l22 -2q67 -10 115 -19.5t107 -25.5t98.5 -39t75.5 -55t53.5 -77.5t17.5 -101.5q0 -112 -80.5 -192t-191.5 -80h-217v-88 q0 -10 -8.5 -18.5t-18.5 -8.5q-12 0 -20.5 8t-8.5 19v88h-215q-112 0 -192 80l-6 6q-71 77 -74 176zM68 870q0 -37 9.5 -69t29.5 -55.5t41 -42t55.5 -32.5t60 -23.5t66.5 -17.5t65 -12t64 -10l28 -4v483h-202q-77 0 -133 -47l-2 2l-17 -18q-65 -65 -65 -154zM543 59h217 q89 0 153 64t64 153q0 58 -26 102t-56 68t-93.5 44t-95 25.5t-103.5 16.5q-22 3 -32 5l-28 4v-482z" />
<glyph unicode="%" horiz-adv-x="1284" d="M0 958q0 75 55 131t131 56q75 0 130 -56t55 -131t-55 -130.5t-130 -55.5q-76 0 -131 55.5t-55 130.5zM49 958q0 -54 39.5 -94.5t97.5 -40.5q56 0 96 40t40 95q0 58 -39 97q-41 41 -97 41q-55 0 -96 -41t-41 -97zM59 27q0 7 7 18q124 149 369.5 449t369.5 450 q9 11 53 69.5t76.5 95t46.5 36.5q12 0 19.5 -8t7.5 -19q0 -8 -7 -18q-149 -181 -446 -545t-446 -545q-8 -10 -23 -10q-10 0 -18.5 8t-8.5 19zM694 184q0 75 56 131t131 56t130.5 -56t55.5 -131t-55.5 -130.5t-130.5 -55.5t-131 55.5t-56 130.5zM745 184q0 -58 41 -97.5 t95 -39.5q55 0 96 40.5t41 96.5t-41 97q-38 38 -96 38q-56 0 -96 -40t-40 -95z" />
<glyph unicode="&#x26;" horiz-adv-x="1277" d="M0 369q0 102 56 194t151 137l35 17l-29 26q-73 67 -76 170q0 96 68 164l6 6q68 62 158 62h284q12 0 20.5 -8t8.5 -19q0 -12 -8.5 -20t-20.5 -8h-284q-61 0 -105 -35l-2 2l-18 -19q-51 -51 -51 -125q0 -72 51 -124t123 -52h700q11 0 19 -8t8 -18q0 -12 -8 -20.5t-19 -8.5 h-111v-451q0 -96 -67 -163l-6 -7q-67 -61 -158 -61h-356q-151 0 -260 109t-109 260zM55 369q0 -129 92.5 -221.5t221.5 -92.5h356q59 0 106 35v-2l19 18q51 51 51 125v451h-536q-126 0 -218 -93t-92 -220z" />
<glyph unicode="'" horiz-adv-x="432" d="M-2 1028v31v106v29q0 49 33 49q30 0 30 -49v-29v-106v-31q0 -47 -30 -47q-14 0 -22 7.5t-9.5 16.5t-1.5 23z" />
<glyph unicode="(" horiz-adv-x="567" d="M0 -10v884q0 108 74 185l6 8q81 78 190 78q12 0 20.5 -8t8.5 -19t-8.5 -18.5t-20.5 -7.5q-96 -3 -151 -64l-19 -20q-41 -47 -45 -134v-884q4 -86 45 -133l19 -21q66 -63 151 -63q12 0 20.5 -8t8.5 -19t-8.5 -19t-20.5 -8q-110 0 -190 80l-6 6q-74 77 -74 185z" />
<glyph unicode=")" horiz-adv-x="573" d="M0 -254q0 11 8.5 19t20.5 8q85 0 151 63l19 21q41 47 45 133v884q-4 87 -45 134l-19 20q-55 61 -151 64q-12 0 -20.5 7.5t-8.5 18.5t8.5 19t20.5 8q109 0 190 -78l6 -8q74 -77 74 -185v-884q0 -108 -74 -185l-6 -6q-80 -80 -190 -80q-12 0 -20.5 8t-8.5 19z" />
<glyph unicode="*" horiz-adv-x="677" d="M0 922q0 9 7 15.5t16 6.5h145l-102 105q-7 7 -7 14q0 9 6 16.5t15 7.5t18 -6l103 -104v147q0 9 6.5 16t15.5 7t17 -7t8 -16v-147l102 104q6 6 15 6q11 0 17.5 -6.5t6.5 -17.5q0 -8 -6 -14l-104 -105h147q9 0 16 -6.5t7 -15.5t-7 -16t-16 -7h-147l104 -102q6 -9 6 -19 q0 -9 -7 -15.5t-17 -6.5q-7 0 -15 8l-102 102v-145q0 -9 -8 -16t-17 -7t-15.5 7t-6.5 16v145l-103 -102q-8 -8 -16 -8q-9 0 -16 6.5t-7 15.5q0 8 7 19l102 102h-145q-9 0 -16 7t-7 16z" />
<glyph unicode="+" horiz-adv-x="1140" d="M0 459q0 12 8.5 20t20.5 8h403v404q0 12 8 20.5t19 8.5q12 0 20 -8.5t8 -20.5v-404h404q12 0 20.5 -8t8.5 -20q0 -11 -8.5 -19t-20.5 -8h-404v-403q0 -12 -8 -20.5t-20 -8.5q-11 0 -19 8.5t-8 20.5v403h-403q-12 0 -20.5 8t-8.5 19z" />
<glyph unicode="," horiz-adv-x="362" d="M5 -84.5q-3 13.5 3 25.5q5 7 115 196q6 12 19.5 15.5t23.5 -2.5q12 -8 15.5 -21t-3.5 -25l-112 -196q-7 -12 -21.5 -15t-24.5 3q-12 6 -15 19.5z" />
<glyph unicode="-" horiz-adv-x="1021" d="M0 459q0 12 8.5 20t20.5 8h862q12 0 20.5 -8t8.5 -20q0 -11 -8.5 -19t-20.5 -8h-862q-12 0 -20.5 8t-8.5 19z" />
<glyph unicode="." horiz-adv-x="387" d="M0 55q0 23 16 39.5t39 16.5t39.5 -16.5t16.5 -39.5t-16.5 -39t-39.5 -16t-39 16t-16 39z" />
<glyph unicode="/" horiz-adv-x="911" d="M3 20q-3 12 3 21q602 1044 631 1092q4 10 16 13t21 -3q9 -4 12 -16t-2 -21q-422 -730 -631 -1092q-6 -10 -17 -13t-20 3q-10 4 -13 16z" />
<glyph unicode="0" horiz-adv-x="1204" d="M0 481v183q0 96 38.5 185t103.5 154t154 103.5t185 38.5q130 0 241 -65.5t176 -176.5t65 -239v-183q0 -128 -65 -239t-176 -176.5t-241 -65.5q-96 0 -185 38.5t-154 103.5t-103.5 154t-38.5 185zM55 481q0 -175 125.5 -300.5t300.5 -125.5q179 0 301 125h2 q123 123 123 301v183q0 178 -123 301h-2q-122 125 -301 125q-175 0 -300.5 -125.5t-125.5 -300.5v-183z" />
<glyph unicode="1" horiz-adv-x="399" d="M-106 1118q0 10 4.5 16t15.5 8.5t17.5 3t21.5 0t18 -0.5h27h29h24q3 0 18.5 0.5t22 0t17.5 -3t15.5 -8.5t4.5 -16v-1091q0 -11 -8.5 -19t-18.5 -8t-18 8t-8 19v1063h-156q-11 0 -18.5 8t-7.5 20z" />
<glyph unicode="2" horiz-adv-x="1198" d="M0 27v247q0 41 9.5 77t24.5 62.5t40 49.5t49 39t59 29.5t62.5 21.5t67.5 16t65.5 11.5t64.5 9t58 8.5q190 26 269 51q195 62 202 211v12q0 87 -66 156l-18 16q-60 48 -135 48h-455q-78 0 -135 -48l-21 -16q-63 -66 -63 -156q0 -10 -8 -18t-19 -8q-12 0 -20 7.5t-8 18.5v2 q0 115 79 191l9 8q77 74 186 74h455q106 0 186 -74l6 -8q82 -82 82 -193q0 -73 -28 -127.5t-68 -84t-101 -51t-111.5 -30t-115 -18.5t-96.5 -18q-189 -26 -264 -51q-169 -57 -185 -188q-2 -14 -2 -30v-219h932q11 0 19 -8t8 -20q0 -11 -8 -19t-19 -8h-934h-26q-11 0 -19 8 t-8 19z" />
<glyph unicode="3" horiz-adv-x="1155" d="M0 27q0 24 27 28h534q127 0 220 92t93 222q0 127 -92 220t-217 93h-2h-536q-11 0 -19 8.5t-8 20.5q0 10 8 18t19 8h534h2q71 0 122.5 51.5t51.5 124.5q0 74 -51 125l-18 19l-2 -2q-47 35 -105 35h-534q-11 0 -19 8t-8 20q0 10 8 18.5t19 8.5h534q90 0 158 -62l6 -6 q68 -68 68 -164q0 -92 -68 -163h-2q-6 -6 -8 -7l-27 -26l33 -17q98 -49 153.5 -138t55.5 -193q0 -151 -109 -260t-260 -109h-534q-11 0 -19 8t-8 19z" />
<glyph unicode="4" horiz-adv-x="1024" d="M-63 518q0 26 14 57l323 560q9 12 23 12q10 0 17.5 -8t7.5 -17q0 -2 -5 -12l-323 -561q-8 -16 -8 -31q0 -33 30 -53l7 -4h2q16 -4 24 -4h672v544q0 12 8 20.5t19 8.5q12 0 20 -9t8 -20v-974q0 -11 -8 -19t-20 -8q-10 0 -18.5 8t-8.5 19v381h-672q-29 0 -53 12l-4 2 q-26 15 -40.5 41.5t-14.5 54.5z" />
<glyph unicode="5" horiz-adv-x="1155" d="M0 27q0 12 8 20t19 8h553q127 0 220 92t93 222q0 128 -93 220.5t-220 92.5h-553q-11 0 -19 8.5t-8 20.5v407q0 10 8 18.5t19 8.5h675q10 0 18.5 -8.5t8.5 -18.5q0 -24 -27 -28h-647v-353h529q150 -3 257 -110.5t107 -257.5q0 -151 -108.5 -260t-259.5 -109h-553 q-11 0 -19 8t-8 19z" />
<glyph unicode="6" horiz-adv-x="1124" d="M0 369v192q0 117 44 223.5t126 188.5l2 2q82 82 188.5 126t223.5 44h127q10 0 18 -8t8 -19q0 -12 -7.5 -20t-18.5 -8h-154q-201 -9 -346 -154l-2 -2q-114 -111 -146 -285l-14 -78l60 58q111 108 253 108h213q151 0 260 -108t109 -260t-109 -260.5t-260 -108.5h-206 q-151 0 -260 109t-109 260zM55 369q0 -129 92.5 -221.5t221.5 -92.5h206q128 0 222 92t94 222t-94 221.5t-222 91.5h-180h-26q-129 0 -221.5 -92t-92.5 -221z" />
<glyph unicode="7" horiz-adv-x="876" d="M-127 1122q0 10 7.5 17.5t17.5 7.5h768q30 0 51 -12l6 -2q25 -15 40 -42t15 -55q0 -29 -16 -55l-424 -735l-135 -234q-6 -12 -21 -12q-9 0 -16.5 7t-7.5 16q0 10 4 14l557 969q10 13 10 30q0 14 -9.5 31t-21.5 23l-6 4h-2q-16 4 -24 4h-768q-11 0 -18 7t-7 17z" />
<glyph unicode="8" horiz-adv-x="1234" d="M0 369q0 102 56 194t151 137l35 17l-29 26q-73 67 -76 170q0 96 68 164l6 6q68 62 158 62h299q89 0 157 -62l4 -6q68 -65 68 -164q0 -46 -20 -99t-56 -71l-28 -26l34 -17q97 -46 152 -136.5t57 -194.5q0 -151 -109 -260t-259 -109h-299q-151 0 -260 109t-109 260zM55 369 q0 -129 92.5 -221.5t221.5 -92.5h299q126 0 219.5 92.5t93.5 221.5t-92.5 221t-218.5 92h-305q-126 0 -218 -93t-92 -220zM193 913q0 -72 51 -124t123 -52h2h301q70 0 122 52.5t52 123.5q0 75 -53 125l-17 19l-2 -2q-47 35 -104 35h-299q-61 0 -105 -35l-2 2l-18 -19 q-51 -51 -51 -125z" />
<glyph unicode="9" horiz-adv-x="1187" d="M0 776q0 151 109 260t260 109h206q151 0 260 -108.5t109 -260.5v-192q0 -117 -44 -223.5t-126 -188.5v-2q-83 -82 -190 -126t-224 -44h-124q-12 0 -20.5 8t-8.5 19q0 12 8.5 20t20.5 8h151q200 9 348 154v2q121 121 148 285l12 77l-57 -57q-108 -108 -256 -108h-213 q-151 0 -260 108.5t-109 259.5zM55 776q0 -129 92.5 -221t221.5 -92h182h24q128 0 222 91.5t94 221.5t-94 222t-222 92h-206q-129 0 -221.5 -92.5t-92.5 -221.5z" />
<glyph unicode=":" horiz-adv-x="452" d="M0 55q0 23 16 39.5t39 16.5t39.5 -16.5t16.5 -39.5t-16.5 -39t-39.5 -16t-39 16t-16 39zM0 811q0 23 16 39t39 16t39.5 -16t16.5 -39t-16.5 -39t-39.5 -16t-39 16t-16 39z" />
<glyph unicode=";" horiz-adv-x="475" d="M0 -76q0 5 4 17q4 7 115 196q10 17 26 17q13 0 23 -10.5t10 -22.5q0 -11 -4 -17l-113 -196q-10 -17 -28 -17q-15 0 -24 9.5t-9 23.5zM68 811q0 23 16 39t39 16t39 -16t16 -39t-16 -39t-39 -16t-39 16t-16 39z" />
<glyph unicode="&#x3c;" horiz-adv-x="1071" d="M0 575q0 104 102 154l727 303q2 2 11 2q8 0 15 -6.5t7 -17.5q0 -19 -14 -25l-727 -303q-31 -12 -50.5 -42t-19.5 -65q0 -36 19.5 -65t50.5 -41l727 -303q14 -6 14 -25q0 -11 -7 -17.5t-15 -6.5q-9 0 -11 2l-727 303q-102 48 -102 153z" />
<glyph unicode="=" horiz-adv-x="1124" d="M0 317q0 12 8.5 20.5t20.5 8.5h628q11 0 19 -8.5t8 -20.5t-8 -20t-19 -8h-628q-12 0 -20.5 8t-8.5 20zM0 602q0 11 8.5 20t20.5 9h628q10 0 18.5 -9t8.5 -20q0 -12 -8 -20.5t-19 -8.5h-628q-12 0 -20.5 8.5t-8.5 20.5z" />
<glyph unicode="&#x3e;" horiz-adv-x="1064" d="M0 575q0 104 102 154l727 303q2 2 11 2q8 0 15 -6.5t7 -17.5q0 -19 -14 -25l-727 -303q-31 -12 -50.5 -42t-19.5 -65q0 -36 19.5 -65t50.5 -41l727 -303q14 -6 14 -25q0 -11 -7 -17.5t-15 -6.5q-9 0 -11 2l-727 303q-102 48 -102 153z" />
<glyph unicode="?" horiz-adv-x="1103" d="M-49 872v2q0 114 80 191l6 8q80 74 188 74h369q106 0 186 -74l6 -8q82 -82 82 -193q0 -41 -10 -76.5t-25 -62.5t-41.5 -50.5t-50.5 -39.5t-61 -30t-65 -22.5t-69.5 -17t-67.5 -12.5t-66 -10l-23 -2v-285q0 -10 -8 -18t-19 -8q-12 0 -19.5 8.5t-9 25t-2 31t1 36t1.5 30.5 v26v47v27q0 8 -1.5 29.5t-1 36t2 31t9 25.5t19.5 9h3q48 6 79 11t77 13.5t76.5 19t67.5 25t61 33.5t45.5 43.5t31.5 56.5t10 70q0 88 -65 156l-19 16q-60 48 -135 48h-369q-78 0 -135 -48l-20 -16q-64 -67 -64 -156q0 -11 -8.5 -18.5t-20.5 -7.5q-11 0 -18.5 8t-7.5 18z M319 41q0 17 13 30t30 13t29 -13t12 -30t-12 -29t-29 -12t-30 12t-13 29z" />
<glyph unicode="@" horiz-adv-x="1421" d="M0 481v183q0 96 38.5 185t103.5 154t154 103.5t185 38.5h27h332q142 0 245 -103t103 -247v-154q0 -143 -103 -246.5t-245 -103.5h-228q-112 0 -191 79.5t-79 192.5t79 193t191 80h521l-9 30q-26 99 -105.5 161.5t-178.5 62.5h-359q-175 0 -300.5 -125.5t-125.5 -300.5 v-183q0 -175 125.5 -300.5t300.5 -125.5h631q11 0 19 -8t8 -20q0 -11 -8.5 -19t-18.5 -8h-631q-96 0 -185 38.5t-154 103.5t-103.5 154t-38.5 185zM397 563q0 -91 63 -154t152 -63h123h105q120 0 206.5 87.5t86.5 207.5v139h-521q-89 0 -152 -64t-63 -153z" />
<glyph unicode="A" horiz-adv-x="1341" d="M0 25q0 6 2 10l416 995q22 56 69 84l5 4q47 27 98 27q56 0 104 -31l2 -2h2q44 -30 66 -82l416 -995v-8q0 -11 -7.5 -19t-17.5 -8q-17 0 -20 14l-125 299h-838l-125 -299q-6 -14 -22 -14q-9 0 -17 7.5t-8 17.5zM193 362h796l-272 650q-13 39 -47 59l-2 2q-38 23 -78 23 q-22 0 -51 -11v5l-25 -17q-37 -26 -51 -61z" />
<glyph unicode="B" horiz-adv-x="1187" d="M0 231v682q0 96 68 164l6 6q68 62 157 62h402q90 0 158 -62l4 -6q69 -66 69 -164q0 -45 -21 -98.5t-57 -71.5l-26 -26l33 -17q97 -49 152.5 -138t55.5 -193q0 -151 -108.5 -260t-259.5 -109h-402q-90 0 -157 61l-6 7q-68 68 -68 163zM55 231q0 -74 51 -125l19 -18v2 q47 -35 106 -35h402q126 0 219.5 92.5t93.5 221.5q0 128 -92 220.5t-219 92.5h-580v-451zM55 737h580q71 0 122.5 51.5t51.5 124.5q0 74 -51 125l-19 19l-2 -2q-47 35 -104 35h-402q-59 0 -106 -35v2l-19 -19q-51 -51 -51 -125v-176z" />
<glyph unicode="C" horiz-adv-x="1110" d="M0 481v183q0 96 38.5 185t103.5 154t154 103.5t185 38.5h404q12 0 20 -8t8 -19q0 -12 -8 -20t-20 -8h-404q-175 0 -300.5 -125.5t-125.5 -300.5v-183q0 -175 125.5 -300.5t300.5 -125.5h404q12 0 20 -8t8 -20q0 -11 -8 -19t-20 -8h-404q-97 0 -186 38.5t-153.5 103.5 t-103 153.5t-38.5 185.5z" />
<glyph unicode="D" horiz-adv-x="1173" d="M0 231v682q0 96 68 164l6 6q68 62 157 62h285q129 0 240.5 -65.5t176 -176.5t64.5 -239v-183q0 -97 -38.5 -185.5t-103 -153.5t-153.5 -103.5t-186 -38.5h-285q-90 0 -157 61l-6 7q-68 68 -68 163zM55 231q0 -74 51 -125l19 -18v2q47 -35 106 -35h285q174 0 301 125 t127 301v183q0 176 -127 301t-301 125h-285q-59 0 -106 -35v2l-19 -19q-51 -51 -51 -125v-682z" />
<glyph unicode="E" horiz-adv-x="1110" d="M0 481v183q0 128 64.5 239t176 176.5t240.5 65.5h404q12 0 20 -8t8 -19q0 -12 -8 -20t-20 -8h-404q-175 0 -300.5 -125.5t-125.5 -300.5v-64h758q11 0 19 -8t8 -19q0 -12 -8 -20t-19 -8h-758v-64q0 -175 125.5 -300.5t300.5 -125.5h404q12 0 20 -8t8 -20q0 -11 -8 -19 t-20 -8h-404q-96 0 -185 38.5t-154 103.5t-103.5 154t-38.5 185z" />
<glyph unicode="F" horiz-adv-x="950" d="M0 27v26v617q2 129 68 238.5t176 173t237 63.5h203q10 0 18.5 -8.5t8.5 -18.5q0 -12 -8 -20t-19 -8h-203q-175 0 -300.5 -125.5t-125.5 -300.5v-297h629q11 0 19 -8.5t8 -20.5q0 -10 -8.5 -18.5t-18.5 -8.5h-629v-284q0 -11 -8 -19t-20 -8q-11 0 -19 8t-8 19z" />
<glyph unicode="G" horiz-adv-x="1280" d="M0 481v183q0 96 38.5 185t103.5 154t154 103.5t185 38.5h506q12 0 20.5 -8t8.5 -19q0 -12 -8.5 -20t-20.5 -8h-506q-175 0 -300.5 -125.5t-125.5 -300.5v-183q0 -175 125.5 -300.5t300.5 -125.5h264q127 0 220.5 92.5t93.5 221.5q0 128 -93.5 220.5t-220.5 92.5h-262 q-12 0 -20 8.5t-8 20.5q0 11 8 18.5t20 7.5h25h237q151 0 260 -108.5t109 -259.5t-109 -260t-260 -109h-264q-97 0 -186 38.5t-153.5 103.5t-103 153.5t-38.5 185.5z" />
<glyph unicode="H" horiz-adv-x="1204" d="M0 27v1091q0 10 8 18.5t19 8.5q12 0 20 -8t8 -19v-751h856v751q0 10 8.5 18.5t18.5 8.5t18.5 -8.5t8.5 -18.5v-1091q0 -11 -8.5 -19t-18.5 -8t-18.5 8t-8.5 19v284h-856v-284q0 -11 -8 -19t-20 -8q-11 0 -19 8t-8 19z" />
<glyph unicode="I" horiz-adv-x="337" d="M0 27v1091q0 10 8 18.5t19 8.5q12 0 20 -8t8 -19v-1091q0 -11 -8 -19t-20 -8q-11 0 -19 8t-8 19z" />
<glyph unicode="J" horiz-adv-x="718" d="M0 29q0 10 8 18t19 8h77q122 0 208.5 86.5t86.5 208.5v99v669q0 10 8.5 18.5t18.5 8.5q12 0 20.5 -8t8.5 -19v-768q0 -145 -103 -247.5t-248 -102.5h-77q-11 0 -19 8.5t-8 20.5z" />
<glyph unicode="K" horiz-adv-x="1087" d="M0 27v1091q0 10 8 18.5t19 8.5q12 0 20 -8t8 -19v-518h342q168 9 285 134t117 292v92q0 11 8 19t20 8q11 0 19 -8.5t8 -18.5v-92q0 -134 -71 -251.5t-191 -176.5l-45 -23l47 -22q125 -60 197.5 -179t74.5 -255v-92q0 -11 -8 -19t-18 -8q-12 0 -20.5 8t-8.5 19v92 q0 173 -126.5 299.5t-299.5 126.5h-330v-518q0 -11 -8 -19t-20 -8q-11 0 -19 8t-8 19z" />
<glyph unicode="L" horiz-adv-x="854" d="M0 350v768q0 10 8 18.5t19 8.5q12 0 20 -8t8 -19v-768q0 -122 86.5 -208.5t208.5 -86.5h312h26q11 0 19 -8t8 -20q0 -11 -8.5 -19t-18.5 -8h-338q-145 0 -247.5 102.5t-102.5 247.5z" />
<glyph unicode="M" horiz-adv-x="1642" d="M0 20v5l145 1040q3 34 30 55t61 21q60 0 81 -58l379 -1011q9 -25 39 -25q28 0 37 25l379 1011q9 26 30.5 42t51.5 16q34 0 60.5 -21t29.5 -55l145 -1040v-5q0 -9 -7.5 -15.5t-16.5 -6.5q-22 0 -25 20l-143 1041q-6 26 -37 35q-32 0 -43 -27l-379 -1012 q-9 -26 -31.5 -41.5t-50.5 -15.5q-64 0 -84 57l-379 1012q-11 27 -43 27q-30 -9 -36 -35l-144 -1041q-3 -20 -24 -20q-9 0 -17 6.5t-8 15.5z" />
<glyph unicode="N" horiz-adv-x="1341" d="M0 29v1022q0 41 28.5 67.5t65.5 26.5q51 0 74 -37l807 -1040q11 -19 33 -19q20 0 33.5 13t13.5 32v1022q0 11 7 18t17 7q11 0 18 -7.5t7 -17.5v-1022q0 -38 -28 -66t-66 -28q-51 0 -74 37l-807 1040q-15 19 -33 19q-20 0 -33.5 -13t-13.5 -32v-1022q0 -11 -7 -18t-17 -7 q-11 0 -18 7t-7 18z" />
<glyph unicode="O" horiz-adv-x="1406" d="M0 481v183q0 96 38.5 185t103.5 154t154 103.5t185 38.5h226q96 0 185 -38.5t154 -103.5t103.5 -154t38.5 -185v-183q0 -129 -66 -240.5t-177 -176t-238 -64.5h-226q-97 0 -186 38.5t-153.5 103.5t-103 153.5t-38.5 185.5zM55 481q0 -175 125.5 -300.5t300.5 -125.5h226 q174 0 300 126t126 300v183q0 174 -126 300t-300 126h-226q-175 0 -300.5 -125.5t-125.5 -300.5v-183z" />
<glyph unicode="P" horiz-adv-x="1150" d="M0 27v886q0 96 68 164l6 6q68 62 157 62h402q151 0 259.5 -109t108.5 -260q0 -150 -107 -257.5t-257 -110.5h-582v-381q0 -11 -8 -19t-20 -8q-11 0 -19 8t-8 19zM55 463h551h27q126 0 219.5 92t93.5 221t-93.5 221.5t-219.5 92.5h-402q-59 0 -106 -35v2l-19 -19 q-51 -51 -51 -125v-450z" />
<glyph unicode="Q" horiz-adv-x="1421" d="M0 481v183q0 96 38.5 185t103.5 154t154 103.5t185 38.5h226q96 0 185 -38.5t154 -103.5t103.5 -154t38.5 -185v-183q0 -175 -115 -309l-14 -18l106 -109q9 -9 9 -20q0 -9 -8.5 -18t-18.5 -9q-14 0 -19 8l-110 109l-17 -15q-130 -100 -294 -100h-226q-97 0 -186 38.5 t-153.5 103.5t-103 153.5t-38.5 185.5zM55 481q0 -175 125.5 -300.5t300.5 -125.5h226q137 0 249 80l25 19l-74 71q-50 49 -158 160.5t-169 169.5q-9 6 -9 18q0 11 7.5 20t19.5 9q8 0 20 -8l402 -404l18 23q95 118 95 268v183q0 174 -126 300t-300 126h-226 q-175 0 -300.5 -125.5t-125.5 -300.5v-183z" />
<glyph unicode="R" horiz-adv-x="1208" d="M0 27v886q0 96 68 164l6 6q68 62 157 62h402q151 0 259.5 -109t108.5 -260q0 -137 -93 -243t-230 -123l-51 -7l356 -356q8 -12 8 -20q0 -11 -8 -19t-20 -8q-14 0 -19 8l-399 400h-490v-381q0 -11 -8 -19t-20 -8q-11 0 -19 8t-8 19zM55 463h551h27q126 0 219.5 92 t93.5 221t-93.5 221.5t-219.5 92.5h-402q-59 0 -106 -35v2l-19 -19q-51 -51 -51 -125v-450z" />
<glyph unicode="S" horiz-adv-x="1271" d="M0 264v10q0 10 8 18.5t19 8.5q12 0 20 -8t8 -19q0 -83 58 -147l6 -8q64 -64 153 -64h494q89 0 153 64t64 155q0 62 -25 107.5t-61.5 70t-91 41.5t-101 23.5t-105 14.5t-89.5 16q-92 12 -159.5 25.5t-134.5 38.5t-109 58.5t-67.5 85t-25.5 117.5q0 112 80 195l6 6 q80 74 187 74h469q106 0 186 -74l6 -6q80 -80 80 -193v-2q0 -10 -8 -18t-19 -8q-12 0 -20 7.5t-8 18.5q0 92 -64 156l-20 16q-57 48 -133 48h-469q-75 0 -135 -48l-19 -16q-63 -63 -63 -156q0 -90 53.5 -146.5t139 -81.5t188.5 -39.5t206 -31t188.5 -45t139 -92t53.5 -162.5 q0 -113 -80.5 -193.5t-191.5 -80.5h-494q-112 0 -192 80l-6 8q-71 74 -74 176z" />
<glyph unicode="T" horiz-adv-x="1024" d="M0 1118q0 10 8 18.5t19 8.5h944q10 0 18 -8t8 -19q0 -12 -7.5 -20t-18.5 -8h-445v-1063q0 -11 -8 -19t-18 -8q-12 0 -20.5 8t-8.5 19v1063h-444q-11 0 -19 8t-8 20z" />
<glyph unicode="U" horiz-adv-x="1259" d="M0 481v637q0 10 8 18.5t19 8.5q12 0 20 -8t8 -19v-637q0 -175 125.5 -300.5t300.5 -125.5h99q174 0 300 126t126 300v611v26q0 11 8 19t20 8q10 0 18.5 -8.5t8.5 -18.5v-637q0 -96 -38.5 -185t-103.5 -154t-154 -103.5t-185 -38.5h-99q-97 0 -186 38.5t-153.5 103.5 t-103 153.5t-38.5 185.5z" />
<glyph unicode="V" horiz-adv-x="1388" d="M0 1120q0 10 8 17.5t17 7.5q15 0 22 -15l416 -997q16 -40 51 -61l25 -17v4q27 -10 51 -10q40 0 78 23l2 2q34 20 47 59l418 997q4 15 20 15q10 0 17.5 -8t7.5 -19v-8l-416 -995q-22 -52 -66 -82l-4 -2q-48 -31 -104 -31q-52 0 -98 27l-5 4q-45 27 -69 84l-416 995 q-2 2 -2 10z" />
<glyph unicode="W" horiz-adv-x="1646" d="M0 1114v4q0 22 20 25q11 0 19.5 -6.5t9.5 -16.5l144 -1038q3 -17 15.5 -27t27.5 -10q11 0 21.5 7.5t14.5 19.5l379 1011q9 26 31.5 43t52.5 17q27 0 50 -17.5t32 -42.5l379 -1011q10 -27 37 -27q14 0 27 10t16 27l143 1038q1 10 9.5 16.5t19.5 6.5q8 -2 14 -9t6 -16v-4 l-145 -1040q-3 -30 -29.5 -53t-60.5 -23q-28 0 -50.5 15.5t-31.5 41.5l-379 1012q-5 11 -16 19t-21 8q-12 0 -23 -8t-16 -19l-379 -1012q-9 -26 -31 -42.5t-50 -16.5q-36 0 -62 23t-29 55z" />
<glyph unicode="X" horiz-adv-x="1294" d="M0 27v92q0 135 73.5 254t198.5 180l47 22l-45 23q-120 59 -191 176.5t-71 251.5v92q0 10 8 18.5t19 8.5q12 0 20.5 -8t8.5 -19v-92q0 -174 126 -300t300 -126h86q174 0 300 126t126 300v92q0 11 8 19t20 8q10 0 18.5 -8.5t8.5 -18.5v-92q0 -134 -71 -251.5t-191 -176.5 l-45 -23l47 -22q126 -66 199 -182t73 -252v-92q0 -11 -8 -19t-18 -8q-12 0 -20.5 8t-8.5 19v92q0 173 -126.5 299.5t-299.5 126.5h-135q-110 -7 -203 -67t-146 -155.5t-53 -203.5v-92q0 -11 -8 -19t-20 -8q-11 0 -19 8t-8 19z" />
<glyph unicode="Y" horiz-adv-x="1173" d="M0 807v311q0 10 8 18.5t19 8.5q12 0 20 -8t8 -19v-311q0 -174 125 -301t301 -127h25q176 0 301 127t125 301v311q0 11 8.5 19t20.5 8q10 0 18 -8t8 -19v-311q0 -199 -141 -340v-2q-124 -124 -301 -139l-25 -2v-297q0 -11 -8 -19t-18 -8t-18.5 8t-8.5 19v297l-25 2 q-185 17 -313.5 156.5t-128.5 324.5z" />
<glyph unicode="Z" horiz-adv-x="1280" d="M12 190q0 106 94 164l814 480q67 41 67 112v6q0 61 -40.5 102.5t-98.5 41.5h-785q-11 0 -17.5 7t-6.5 17q0 11 7 18t17 7h785q77 0 133.5 -56.5t56.5 -134.5q0 -51 -25 -94t-69 -69l-813 -480q-70 -45 -70 -116q0 -61 41.5 -103.5t100.5 -42.5h829q11 0 18 -7t7 -17 q0 -11 -7.5 -18t-17.5 -7h-829q-79 0 -135 56t-56 134z" />
<glyph unicode="[" horiz-adv-x="600" d="M0 -254v1372q0 10 8 18.5t19 8.5h266q12 0 20.5 -8t8.5 -19t-8.5 -18.5t-20.5 -7.5h-238v-1319h238q12 0 20.5 -8t8.5 -19t-8.5 -19t-20.5 -8h-266q-11 0 -19 8.5t-8 18.5z" />
<glyph unicode="\" horiz-adv-x="927" d="M2 1127q3 12 12 16q9 6 21 3t16 -13q29 -49 631 -1092q6 -9 3 -21t-13 -16q-9 -6 -20 -3t-17 13q-209 362 -631 1092q-5 9 -2 21z" />
<glyph unicode="]" horiz-adv-x="595" d="M0 -254q0 11 8.5 19t20.5 8h237v1319h-237q-12 0 -20.5 7.5t-8.5 18.5t8.5 19t20.5 8h266q11 0 19 -8.5t8 -18.5v-1372q0 -10 -8 -18.5t-19 -8.5h-266q-12 0 -20.5 8t-8.5 19z" />
<glyph unicode="^" horiz-adv-x="645" d="M0 948q0 14 8 19l189 161q22 19 51 19t51 -19l188 -161q9 -6 9 -19q0 -11 -7.5 -18.5t-19.5 -7.5q-10 0 -16 6l-205 174l-205 -174q-6 -6 -16 -6q-11 0 -19 7t-8 19z" />
<glyph unicode="_" horiz-adv-x="1353" d="M0 27q0 12 8 20t19 8h1099q11 0 19 -8t8 -20q0 -11 -8.5 -19t-18.5 -8h-1099q-11 0 -19 8t-8 19z" />
<glyph unicode="`" horiz-adv-x="937" d="M113 1218q3 13 14 21q12 6 25.5 2.5t19.5 -14.5q113 -195 115 -199q6 -10 2.5 -23.5t-15.5 -19.5q-12 -7 -24.5 -3.5t-20.5 15.5l-112 197q-7 11 -4 24z" />
<glyph unicode="a" horiz-adv-x="1030" d="M-41 276q0 114 81 194.5t196 80.5h526l-8 33q-25 98 -107.5 162.5t-183.5 64.5h-363q-10 0 -18 8t-8 19q0 12 7.5 20t18.5 8h27h336q144 0 250 -104t106 -250v-158q0 -146 -106 -250t-250 -104h-227q-116 0 -196.5 80.5t-80.5 195.5zM14 276q0 -92 65 -156.5t157 -64.5 h122h105q123 0 211 89t88 210v142h-526q-92 0 -157 -64.5t-65 -155.5z" />
<glyph unicode="b" horiz-adv-x="1046" d="M0 350v783q0 12 8 20t19 8q12 0 20 -8t8 -20v-414l47 49q91 99 248 102h154q144 0 247 -103.5t103 -246.5v-170q0 -145 -102.5 -247.5t-247.5 -102.5h-154q-145 0 -247.5 102.5t-102.5 247.5zM55 350q0 -122 86.5 -208.5t208.5 -86.5h154q122 0 208.5 86.5t86.5 208.5 v170q0 122 -86.5 208.5t-208.5 86.5h-154q-119 0 -207 -85.5t-88 -203.5v-57v-119z" />
<glyph unicode="c" horiz-adv-x="897" d="M0 354v158q0 145 104.5 249.5t249.5 104.5h332q11 0 19 -8t8 -20q0 -10 -8.5 -18.5t-18.5 -8.5h-332q-120 0 -209.5 -88t-89.5 -211v-158q0 -122 88.5 -210.5t210.5 -88.5h305h27q11 0 19 -8t8 -18q0 -12 -8 -20.5t-19 -8.5h-332q-145 0 -249.5 104.5t-104.5 249.5z" />
<glyph unicode="d" horiz-adv-x="1097" d="M0 350v170q0 143 103 246.5t247 103.5h154q70 0 135.5 -26.5t112.5 -75.5l47 -49v414q0 12 8 20t20 8q11 0 19 -8t8 -20v-783q0 -145 -102.5 -247.5t-247.5 -102.5h-154q-145 0 -247.5 102.5t-102.5 247.5zM55 350q0 -122 86.5 -208.5t208.5 -86.5h154q122 0 208.5 86.5 t86.5 208.5v119v57q0 118 -88.5 203.5t-206.5 85.5h-154q-122 0 -208.5 -86.5t-86.5 -208.5v-170z" />
<glyph unicode="e" d="M0 371v141q0 145 104.5 249.5t249.5 104.5h158q145 0 249.5 -104.5t104.5 -249.5v-143q0 -22 -14.5 -37t-34.5 -15h-772l37 -84q35 -81 110 -129.5t162 -48.5h381q11 0 19 -8t8 -18q0 -12 -8 -20.5t-19 -8.5h-381q-152 0 -253 110t-101 261zM55 373h756v139 q0 122 -88.5 210.5t-210.5 88.5h-158q-121 0 -210 -88.5t-89 -210.5v-139z" />
<glyph unicode="f" horiz-adv-x="665" d="M0 27v665v103q0 145 102.5 247.5t247.5 102.5h78q10 0 18.5 -8.5t8.5 -18.5q0 -12 -8 -20t-19 -8h-78q-122 0 -208.5 -86t-86.5 -209v-426h353q12 0 20 -8.5t8 -20.5q0 -11 -8 -19t-20 -8h-353v-286q0 -11 -8 -19t-20 -8q-11 0 -19 8t-8 19z" />
<glyph unicode="g" horiz-adv-x="1067" d="M0 518q0 142 103.5 245t244.5 103h154q141 0 243.5 -103t102.5 -245q0 -144 -100 -244q-61 -61 -133 -81.5t-179 -20.5q-61 0 -61 -49q0 -22 14.5 -36.5t34.5 -14.5q112 0 191 -79t79 -190q0 -113 -79 -191.5t-191 -78.5t-191 78.5t-79 191.5q0 11 8 19t20 8 q10 0 18.5 -8t8.5 -19q0 -89 63 -152t152 -63t152 63t63 152t-63 152t-152 63q-43 0 -74 30.5t-31 74.5q0 25 15 47l-33 4q-127 15 -214 115.5t-87 228.5zM55 518q0 -119 87 -205t206 -86h154q118 0 205.5 85.5t87.5 205.5t-87.5 206.5t-205.5 86.5h-154q-119 0 -206 -86 t-87 -207z" />
<glyph unicode="h" horiz-adv-x="1003" d="M0 27v1091q0 10 8 18.5t19 8.5q12 0 20 -8t8 -19v-399l47 49q91 99 248 102h72q141 0 244 -102.5t106 -243.5v-497q0 -11 -8.5 -19t-20.5 -8q-10 0 -18 8t-8 19v493q0 120 -87.5 207.5t-207.5 87.5h-72q-120 0 -206 -85t-89 -204v-499q0 -11 -8 -19t-20 -8q-11 0 -19 8 t-8 19z" />
<glyph unicode="i" horiz-adv-x="331" d="M0 1061q0 15 11 26t26 11t26 -11t11 -26t-11 -26t-26 -11t-26 11t-11 26zM8 27v800q0 12 8.5 20.5t20.5 8.5q11 0 18.5 -8.5t7.5 -20.5v-800q0 -11 -8 -19t-18 -8q-12 0 -20.5 8t-8.5 19z" />
<glyph unicode="j" horiz-adv-x="417" d="M-301 -371q0 12 8 20.5t19 8.5h77q119 0 205 85.5t86 205.5v102v780q0 11 8 19t19 8q12 0 20.5 -8t8.5 -19v-882q0 -141 -104 -243.5t-243 -102.5h-77q-11 0 -19 8t-8 18zM86 1061q0 15 10.5 26t24.5 11q15 0 26 -11t11 -26t-11 -25t-26 -10q-14 0 -24.5 10t-10.5 25z " />
<glyph unicode="k" horiz-adv-x="907" d="M0 27v1091q0 10 8 18.5t19 8.5q12 0 20 -8t8 -19v-663h277q122 0 208.5 86.5t86.5 208.5v92q0 12 8 20t20 8q11 0 19 -8t8 -20v-92q0 -89 -43 -167.5t-119 -127.5l-35 -23l37 -20q84 -47 132 -130t48 -178v-77q0 -11 -8 -19t-18 -8q-12 0 -20.5 8t-8.5 19v77 q0 121 -86.5 208t-208.5 87h-297v-372q0 -11 -8 -19t-20 -8q-11 0 -19 8t-8 19z" />
<glyph unicode="l" horiz-adv-x="327" d="M0 27v1091q0 10 8 18.5t19 8.5q12 0 20 -8t8 -19v-1091q0 -11 -8 -19t-20 -8q-11 0 -19 8t-8 19z" />
<glyph unicode="m" horiz-adv-x="1689" d="M0 29v487q3 143 106.5 246.5t247.5 103.5h74q92 0 174 -45.5t129 -126.5l23 -39l22 39q54 82 133 127t172 45h74q143 0 247 -102.5t107 -247.5v-2v-485q0 -12 -8 -20.5t-20 -8.5q-11 0 -20 8.5t-9 20.5v483q0 123 -88.5 211t-208.5 88h-74q-121 0 -208.5 -87t-90.5 -206 v-489q0 -12 -8 -20.5t-20 -8.5q-11 0 -19 8.5t-8 20.5v483q0 122 -89 210.5t-210 88.5h-74q-119 0 -207.5 -86.5t-91.5 -206.5v-489q0 -12 -7.5 -20.5t-18.5 -8.5q-12 0 -20.5 8.5t-8.5 20.5z" />
<glyph unicode="n" horiz-adv-x="1087" d="M0 29v487q3 143 106.5 246.5t247.5 103.5h158q143 0 248.5 -104.5t105.5 -245.5v-2v-485q0 -12 -8 -20.5t-20 -8.5q-11 0 -19 8.5t-8 20.5v483q0 122 -89 210.5t-210 88.5h-158q-120 0 -208 -87t-91 -206v-489q0 -12 -7.5 -20.5t-18.5 -8.5q-12 0 -20.5 8.5t-8.5 20.5z " />
<glyph unicode="o" d="M0 354v158q0 145 104.5 249.5t249.5 104.5h158q145 0 249.5 -104.5t104.5 -249.5v-158q0 -145 -104.5 -249.5t-249.5 -104.5h-158q-145 0 -249.5 104.5t-104.5 249.5zM55 354q0 -120 89 -209.5t210 -89.5h158q122 0 210.5 88.5t88.5 210.5v158q0 122 -89 210.5t-210 88.5 h-158q-120 0 -209.5 -88t-89.5 -211v-158z" />
<glyph unicode="p" d="M0 -387v905q0 141 103.5 244.5t244.5 103.5h154q141 0 244.5 -103.5t103.5 -244.5v-170q0 -141 -103.5 -244.5t-244.5 -103.5h-154q-144 0 -246 102l-47 48v-537q0 -11 -8 -19t-20 -8q-11 0 -19 8t-8 19zM55 342q0 -117 88 -202t205 -85h154q120 0 206.5 86.5t86.5 206.5 v170q0 120 -86.5 206.5t-206.5 86.5h-154q-120 0 -206.5 -86.5t-86.5 -206.5v-119v-57z" />
<glyph unicode="q" horiz-adv-x="1083" d="M0 348v170q0 141 103.5 244.5t244.5 103.5h154q141 0 244.5 -103.5t103.5 -244.5v-905q0 -11 -8 -19t-19 -8q-12 0 -20 8t-8 19v537l-47 -48q-102 -102 -246 -102h-154q-141 0 -244.5 103.5t-103.5 244.5zM55 348q0 -120 86.5 -206.5t206.5 -86.5h154q117 0 205 85 t88 202v57v119q0 120 -86.5 206.5t-206.5 86.5h-154q-120 0 -206.5 -86.5t-86.5 -206.5v-170z" />
<glyph unicode="r" horiz-adv-x="929" d="M0 29v485v2q3 143 106.5 246.5t247.5 103.5h111q149 0 250 -104q8 -5 8 -19q0 -12 -8 -20t-19 -8q-12 0 -20 8q-91 88 -211 88h-111q-119 0 -207.5 -86.5t-91.5 -206.5v-489q0 -12 -7.5 -20.5t-18.5 -8.5q-12 0 -20.5 8.5t-8.5 20.5z" />
<glyph unicode="s" horiz-adv-x="993" d="M0 188q0 54 29 54q12 0 20 -8.5t8 -20.5v-23q0 -54 48 -93.5t104 -39.5h364q63 0 108.5 45.5t45.5 108.5q0 135 -192 172q-30 6 -84.5 12.5t-98.5 13t-98.5 17.5t-95 28.5t-76.5 43t-55 65.5t-19 92q0 88 62.5 149.5t148.5 61.5h334q86 0 147 -61l7 -6q55 -59 55 -125 q0 -3 -1 -10t-1 -11q0 -11 -8.5 -18.5t-20.5 -7.5q-11 0 -18.5 7.5t-7.5 18.5v19q0 39 -35 84l-8 8q-45 45 -109 45h-334q-63 0 -108 -45.5t-45 -108.5t39.5 -102.5t103 -57t140 -28.5t153 -24t140 -35.5t103 -72t39.5 -124.5q0 -86 -61.5 -148.5t-149.5 -62.5h-364 q-80 0 -144.5 57t-64.5 131z" />
<glyph unicode="t" horiz-adv-x="681" d="M0 350v768q0 10 8 18.5t19 8.5q12 0 20 -8t8 -19v-250h353q12 0 20 -7.5t8 -18.5q0 -12 -8 -20.5t-20 -8.5h-353v-360v-103q0 -122 86.5 -208.5t208.5 -86.5h78q11 0 19 -8t8 -20q0 -11 -8.5 -19t-18.5 -8h-78q-145 0 -247.5 102.5t-102.5 247.5z" />
<glyph unicode="u" horiz-adv-x="960" d="M0 350v2v486q0 12 8.5 20t20.5 8q11 0 18.5 -8t7.5 -20v-488q3 -122 91.5 -208.5t207.5 -86.5h74q122 0 210.5 88.5t88.5 210.5v484q0 12 8 20t19 8q12 0 20 -8t8 -20v-488q-3 -143 -106.5 -246.5t-247.5 -103.5h-74q-144 0 -247.5 103.5t-106.5 246.5z" />
<glyph unicode="v" horiz-adv-x="1044" d="M-63 842q0 10 7.5 17t18.5 7q16 0 23 -14l305 -731q29 -70 106 -70q74 0 107 70l305 731q3 14 20 14q11 0 19 -7t8 -17q0 -9 -2 -11l-305 -729q-20 -49 -61 -75.5t-91 -26.5q-52 0 -92 27.5t-61 74.5l-305 729q-2 2 -2 11z" />
<glyph unicode="w" horiz-adv-x="1705" d="M0 350v2v486q0 12 8.5 20t20.5 8q11 0 18.5 -8t7.5 -20v-488q3 -122 91.5 -208.5t207.5 -86.5h74q122 0 210.5 88.5t88.5 210.5v484q0 12 8 20t19 8q12 0 20 -8t8 -20v-490q3 -119 90.5 -206t208.5 -87h74q121 0 209 88.5t88 210.5v484q0 12 9 20t20 8q12 0 20 -8t8 -20 v-488q-3 -145 -107 -247.5t-247 -102.5h-74q-93 0 -172 45t-133 127l-22 39l-23 -39q-47 -81 -129 -126.5t-174 -45.5h-74q-144 0 -247.5 103.5t-106.5 246.5z" />
<glyph unicode="x" horiz-adv-x="1093" d="M0 29v77q0 95 49 181t133 131l39 20l-37 23q-77 54 -120.5 131.5t-43.5 167.5v78q0 12 8.5 20t20.5 8q11 0 20 -8t9 -20v-78q0 -123 88 -211t211 -88h155q123 0 211 89t88 210v78q0 12 8.5 20t20.5 8q11 0 19 -8t8 -20v-78q0 -91 -43.5 -170t-120.5 -129l-35 -23l37 -20 q83 -46 133.5 -131.5t50.5 -180.5v-77q0 -12 -8 -20.5t-20 -8.5t-20.5 8.5t-8.5 20.5v77q0 122 -88 211t-211 89h-199q-121 0 -210 -89t-89 -211v-77q0 -12 -7.5 -20.5t-18.5 -8.5q-12 0 -20.5 8.5t-8.5 20.5z" />
<glyph unicode="y" horiz-adv-x="950" d="M0 518v322q0 10 8 18t19 8q12 0 20 -7.5t8 -18.5v-322q0 -120 86.5 -206.5t206.5 -86.5t206.5 86.5t86.5 206.5v324l2 2v4l2 4l2 2l2 4l4 4l4 2l5 2h4h4h4h4l2 -2l4 -2l2 -2l2 -2l2 -2l2 -4l2 -2l2 -2v-4v-4v-889q0 -141 -103.5 -244.5t-244.5 -103.5h-78q-10 0 -18 7.5 t-8 18.5q0 12 7.5 20.5t18.5 8.5h78q120 0 206.5 86.5t86.5 206.5v368l-47 -47q-102 -102 -246 -102q-141 0 -244.5 103.5t-103.5 244.5z" />
<glyph unicode="z" horiz-adv-x="993" d="M10 156q0 38 20 71.5t54 53.5l606 356q29 16 41 47l10 25h-4q0 3 1 8t1 8q0 39 -31 67.5t-67 28.5h-588q-10 0 -17 7t-7 18q0 10 6.5 17t17.5 7h588q59 0 103 -42.5t44 -106.5q0 -28 -8 -49l-2 -6q-18 -47 -63 -72l-606 -356q-23 -13 -36.5 -37t-13.5 -49 q0 -42 30.5 -70.5t70.5 -28.5h610q11 0 18 -7t7 -17q0 -11 -7.5 -18t-17.5 -7h-610q-63 0 -106.5 44.5t-43.5 107.5z" />
<glyph unicode="{" horiz-adv-x="747" d="M-55 432q0 11 8 19t18 8q91 0 154 63l18 19l-2 2q47 56 47 133v198q0 108 74 185l6 8q81 78 191 78h2q10 0 18 -8t8 -19t-8 -18.5t-20 -7.5q-88 0 -152 -64l-18 -18l2 -2q-47 -56 -47 -134v-198q0 -107 -74 -184l-6 -7q-14 -15 -39 -32l-29 -21l29 -20q13 -9 39 -31l6 -8 q74 -77 74 -185v-198q0 -77 47 -133l-2 -2l18 -19q60 -63 152 -63q12 0 20 -8t8 -19t-8 -19t-18 -8h-2q-111 0 -191 80l-6 6q-74 77 -74 185v198q0 78 -47 134l2 2l-18 18q-64 64 -154 64q-11 0 -18.5 8t-7.5 18z" />
<glyph unicode="|" horiz-adv-x="344" d="M0 -254v1374q0 10 8 18.5t19 8.5q10 0 18 -8t8 -19v-1374q0 -11 -8 -19t-18 -8q-11 0 -19 8.5t-8 18.5z" />
<glyph unicode="}" horiz-adv-x="786" d="M-16 -254q0 11 8 19t20 8q92 0 152 63l18 19l-2 2q47 56 47 133v198q0 108 74 185l6 8q26 22 39 31l29 20l-29 21q-24 17 -39 32l-6 7q-74 77 -74 184v198q0 78 -47 134l2 2l-18 18q-64 64 -152 64q-12 0 -20 7.5t-8 18.5t8 19t18 8h2q110 0 191 -78l6 -8q74 -77 74 -185 v-198q0 -77 47 -133l-2 -2l18 -19q63 -63 154 -63q10 0 18 -8t8 -19q0 -10 -8 -18t-18 -8q-90 0 -154 -64l-18 -18l2 -2q-47 -56 -47 -134v-198q0 -108 -74 -185l-6 -6q-80 -80 -191 -80h-2q-10 0 -18 8t-8 19z" />
<glyph unicode="~" horiz-adv-x="851" d="M106 1059q0 28 51.5 40.5t102.5 12.5q46 0 133.5 -28.5t134.5 -28.5q21 0 62.5 12t60.5 12q13 0 21 -8.5t8 -19.5q0 -24 -18 -27q-65 -27 -136 -27q-47 0 -134.5 29t-133.5 29q-53 0 -111 -23h-2q-4 -2 -10 -2q-13 0 -21 8.5t-8 20.5z" />
<glyph unicode="&#xa1;" horiz-adv-x="350" d="M0 1106q0 17 12 29t29 12t30 -12t13 -29t-13 -29t-30 -12t-29 12t-12 29zM14 29v854q0 12 8 20t19 8q12 0 20.5 -8t8.5 -20v-854q0 -12 -8.5 -20.5t-20.5 -8.5q-11 0 -19 8.5t-8 20.5z" />
<glyph unicode="&#xa2;" horiz-adv-x="897" d="M0 356v162q0 144 103.5 247t246.5 103h49v113q0 12 9 20.5t20 8.5t19 -8.5t8 -20.5v-113h221q12 0 20.5 -7.5t8.5 -18.5q0 -12 -8.5 -20.5t-20.5 -8.5h-221v-752h196h25q12 0 20.5 -8.5t8.5 -19.5t-8.5 -19t-20.5 -8h-221v-90q0 -10 -8.5 -18.5t-18.5 -8.5q-11 0 -20 8.5 t-9 18.5v90h-49q-143 0 -246.5 103t-103.5 247zM55 356q0 -123 86.5 -209t208.5 -86h49v752h-49q-122 0 -208.5 -86.5t-86.5 -208.5v-162z" />
<glyph unicode="&#xa3;" horiz-adv-x="1044" d="M-43 571q0 12 8 20.5t19 8.5h143v272q0 110 75.5 189t184.5 84h12q11 0 19 -8.5t8 -18.5q0 -12 -8 -20t-19 -8h-26v-3q-80 -9 -135.5 -70.5t-55.5 -144.5v-272h250q12 0 20.5 -8.5t8.5 -20.5q0 -11 -8.5 -18.5t-20.5 -7.5h-250v-490h633q12 0 19.5 -8t7.5 -20 q0 -11 -7.5 -19t-19.5 -8h-688v545h-143q-11 0 -19 8t-8 18z" />
<glyph unicode="&#xa4;" horiz-adv-x="833" d="M0 160q0 12 8 20l103 103l-13 18q-49 70 -49 158q0 89 49 159l13 19l-103 102q-8 5 -8 19q0 12 7.5 21t19.5 9q10 0 22 -8l103 -104l18 12q73 51 158 51q86 0 159 -51l17 -12l104 104q8 8 19 8q13 0 20.5 -9.5t7.5 -20.5q0 -14 -8 -19l-102 -102l12 -19q49 -70 49 -159 q0 -88 -49 -158l-12 -18l102 -103q8 -8 8 -20q0 -11 -7.5 -20t-20.5 -9q-14 0 -19 8l-104 103l-17 -13q-70 -49 -159 -49q-88 0 -158 49l-18 13l-103 -103q-8 -8 -22 -8q-12 0 -19.5 9t-7.5 20zM100 459q0 -91 67.5 -159.5t160.5 -68.5t160 67.5t67 160.5q0 96 -66 162 q-65 65 -161 65q-94 0 -161 -66.5t-67 -160.5z" />
<glyph unicode="&#xa5;" horiz-adv-x="1234" d="M0 1010v108q0 10 8 18.5t19 8.5q12 0 20 -8t8 -19v-108q0 -174 126 -300t300 -126h25q174 0 300 126t126 300v108q0 11 8.5 19t20.5 8q10 0 18 -8t8 -19v-108q0 -119 -57 -226t-159.5 -176t-225.5 -78l-25 -2v-118h199q11 0 18.5 -8.5t7.5 -20.5q0 -11 -8 -19t-18 -8 h-199v-149h199q10 0 18 -8t8 -19q0 -12 -7.5 -19t-18.5 -7l-27 -2h-172v-123q0 -11 -8 -19t-18 -8t-18.5 8t-8.5 19v123h-172l-27 2q-11 0 -18.5 7t-7.5 19q0 11 8 19t18 8h199v149h-172h-27q-10 0 -18 8t-8 19q0 12 7.5 20.5t18.5 8.5h199v118l-25 2q-123 9 -225.5 78 t-159.5 176t-57 226z" />
<glyph unicode="&#xa6;" horiz-adv-x="337" d="M0 -254v555q0 11 8 19t19 8q10 0 18 -8t8 -19v-555q0 -11 -8 -19t-18 -8q-11 0 -19 8.5t-8 18.5zM0 565v553q0 12 8 20.5t19 8.5t18.5 -8.5t7.5 -20.5v-553q0 -12 -7.5 -20t-18.5 -8t-19 8t-8 20z" />
<glyph unicode="&#xa7;" horiz-adv-x="1245" d="M0 78v2q0 10 8 18t19 8q12 0 20 -7.5t8 -18.5q0 -90 64 -154l18 -18v2q59 -47 135 -47h465q74 0 133 47l2 -2l17 18q63 63 63 154q0 45 -15.5 81.5t-37 61.5t-59 45.5t-68 32t-78 21t-74.5 13.5t-71 9l-19 4q-159 21 -255.5 81.5t-118.5 184.5l-2 15l-11 6 q-66 34 -104.5 98.5t-38.5 138.5q0 113 80 193l6 6q80 74 186 74h465q108 0 185 -74l6 -6q80 -80 80 -191v-2q0 -10 -8 -18t-19 -8q-12 0 -20.5 7.5t-8.5 18.5q0 91 -63 154l-17 18l-2 -2q-60 48 -133 48h-465q-75 0 -135 -48v2l-18 -18q-64 -64 -64 -154q0 -58 24.5 -102.5 t59 -69.5t89 -43.5t96.5 -26.5t100 -17q24 -3 35 -5l18 -2q75 -12 133 -29.5t113 -47.5t88.5 -78t40.5 -113l2 -12l12 -7q65 -39 103.5 -102t38.5 -137q0 -113 -80 -193l-6 -6q-77 -74 -185 -74h-465q-106 0 -186 74l-6 6q-80 80 -80 191zM207 604l24 -51q23 -48 67 -79.5 t103 -47.5t115 -25t124 -18.5t108 -20.5l55 -14l-27 51q-24 47 -69 79t-103 48t-112.5 25t-122 19t-107.5 20z" />
<glyph unicode="&#xa8;" horiz-adv-x="796" d="M184 1038q0 25 17.5 42.5t42.5 17.5t42 -17.5t17 -42.5t-17 -42t-42 -17t-42.5 17t-17.5 42zM483 1038q0 25 17.5 42.5t42.5 17.5t42 -17.5t17 -42.5t-17 -42t-42 -17t-42.5 17t-17.5 42z" />
<glyph unicode="&#xa9;" horiz-adv-x="823" d="M0 705v266q0 72 50.5 123t123.5 51h266q72 0 123 -51t51 -123v-266q0 -71 -51 -123t-123 -52h-266q-72 0 -123 52t-51 123zM45 705q0 -51 37.5 -89t91.5 -38h266q52 0 90.5 38t38.5 89v266q0 53 -38.5 91t-90.5 38h-266q-55 0 -92 -38t-37 -91v-266zM129 813v51 q0 63 45.5 108.5t108.5 45.5h116q10 0 17.5 -7t7.5 -16t-7.5 -15.5t-17.5 -6.5h-116q-43 0 -75 -32.5t-32 -76.5v-51q0 -44 32 -76t75 -32h116q10 0 17.5 -7t7.5 -16t-7.5 -17t-17.5 -8h-116q-64 0 -109 45v3q-45 45 -45 108z" />
<glyph unicode="&#xaa;" horiz-adv-x="825" d="M0 713q0 85 60.5 145t146.5 60h364l-24 51q-24 49 -73.5 78.5t-104.5 31.5h-256q-14 0 -23.5 9t-9.5 22q0 18 18 29l6 2h265q107 0 184.5 -77.5t77.5 -184.5v-111q0 -106 -78 -184t-184 -78h-162q-86 0 -146.5 60.5t-60.5 146.5zM63 713q0 -60 42 -102t102 -42h98h64 q82 0 140 60t58 139v88h-360q-60 0 -102 -42t-42 -101z" />
<glyph unicode="&#xab;" horiz-adv-x="804" d="M-6 575q0 30 20 50l222 262q19 19 36 2q8 -6 8.5 -17t-6.5 -20l-235 -277l235 -276q7 -9 6.5 -20t-8.5 -17q-19 -15 -36 2l-222 262q-20 20 -20 49zM250 575q0 28 18 50l224 262q19 19 36 2q8 -6 8.5 -17t-6.5 -20l-235 -277l235 -276q7 -9 6.5 -20t-8.5 -17 q-19 -15 -36 2l-224 262q-18 22 -18 49z" />
<glyph unicode="&#xac;" horiz-adv-x="1300" d="M0 821q0 12 8 20.5t19 8.5h1009q12 0 20.5 -8.5t8.5 -20.5v-268q0 -12 -8.5 -20.5t-20.5 -8.5q-11 0 -18.5 8.5t-7.5 20.5v242h-983q-11 0 -19 8t-8 18z" />
<glyph unicode="&#xad;" horiz-adv-x="1046" d="M0 459q0 12 8.5 20t20.5 8h669q12 0 20.5 -8t8.5 -20q0 -11 -8.5 -19t-20.5 -8h-669q-12 0 -20.5 8t-8.5 19z" />
<glyph unicode="&#xae;" horiz-adv-x="823" d="M0 705v266q0 72 50.5 123t123.5 51h266q72 0 123 -51t51 -123v-266q0 -71 -51 -123t-123 -52h-266q-72 0 -123 52t-51 123zM45 705q0 -51 37.5 -89t91.5 -38h266q52 0 90.5 38t38.5 89v266q0 53 -38.5 91t-90.5 38h-266q-55 0 -92 -38t-37 -91v-266zM147 674v262 q0 28 19 53l2 2l4 4q23 23 57 23h115q51 0 87 -35.5t36 -85.5q0 -34 -19 -64t-51 -47l-20 -8l84 -86q2 -4 2 -12q0 -9 -7 -16t-16 -7q-5 0 -10 5l-117 114h-118v-94q0 -9 -7.5 -17t-17.5 -8q-4 0 -10 3.5t-6 7.5zM195 823h151q32 0 53 22t21 52q0 31 -22.5 53.5t-53.5 22.5 h-115q-14 0 -24 -10l-2 -2q-8 -8 -8 -25v-113z" />
<glyph unicode="&#xb0;" horiz-adv-x="649" d="M0 942q0 81 59 142t144 61q82 0 142.5 -60t60.5 -143t-60.5 -143t-142.5 -60q-86 0 -144.5 61t-58.5 142zM53 942q0 -60 44.5 -103.5t105.5 -43.5t104 42.5t43 104.5q0 65 -43 105q-43 43 -104 43t-105.5 -44t-44.5 -104z" />
<glyph unicode="&#xb1;" horiz-adv-x="1167" d="M0 27q0 12 8 20t19 8h854q12 0 20 -8t8 -20q0 -11 -8 -19t-20 -8h-854q-11 0 -19 8t-8 19zM0 690q0 11 8.5 20t18.5 9h399v399q0 11 8.5 19t20.5 8q10 0 18 -8t8 -19v-399h400q12 0 20 -9t8 -20t-8 -18.5t-20 -7.5h-400v-400q0 -12 -7.5 -20t-18.5 -8q-12 0 -20.5 8 t-8.5 20v400h-399q-11 0 -19 8t-8 18z" />
<glyph unicode="&#xb2;" horiz-adv-x="796" d="M0 530v132q0 45 23.5 82.5t62.5 58.5q31 16 91 26.5t116 18t109.5 20.5t86.5 42t33 75q0 41 -31.5 73t-72.5 32h-246q-40 0 -63.5 -21t-29.5 -46t-15.5 -46t-24.5 -21q-10 0 -18.5 9t-8.5 20q0 64 47 112t113 48h246q64 0 112 -47.5t48 -112.5q0 -44 -24.5 -83t-61.5 -58 q-32 -17 -92 -27.5t-116 -17.5t-109.5 -19.5t-86.5 -41.5t-33 -76v-105h488q12 0 20 -8t8 -19q0 -12 -8 -20t-20 -8h-516q-11 0 -19 8t-8 20z" />
<glyph unicode="&#xb3;" horiz-adv-x="743" d="M0 530q0 10 8 18.5t19 8.5h288q62 0 109 46t47 112q0 62 -45 108.5t-109 46.5h-290q-11 0 -19 8t-8 19q0 12 8 20.5t19 8.5h288q34 0 58 24t24 58q0 33 -23.5 57.5t-58.5 24.5h-288q-11 0 -19 8t-8 20q0 10 8 18.5t19 8.5h288q54 0 96 -40.5t42 -96.5q0 -41 -27 -80 l-16 -23l22 -16q42 -22 68 -73t26 -101q0 -89 -63.5 -151t-147.5 -62h-288q-11 0 -19 8t-8 20z" />
<glyph unicode="&#xb4;" horiz-adv-x="882" d="M351.5 1004.5q-3.5 13.5 2.5 23.5q2 4 115 199q6 11 19.5 14.5t25.5 -2.5q11 -8 14 -21t-4 -24l-112 -197q-8 -12 -20.5 -15.5t-24.5 3.5q-12 6 -15.5 19.5z" />
<glyph unicode="&#xb5;" horiz-adv-x="1021" d="M0 27v800q0 11 8 19t19 8q12 0 20 -8t8 -19v-483q3 -120 89 -204.5t206 -84.5h72q120 0 207.5 87.5t87.5 207.5v477q0 11 8 19t18 8q12 0 20.5 -8t8.5 -19v-1091q0 -11 -8.5 -19t-20.5 -8q-10 0 -18 8t-8 19v416l-49 -50q-102 -102 -246 -102h-72q-71 0 -136 26.5 t-112 75.5l-47 50v-125q0 -11 -8 -19t-20 -8q-11 0 -19 8t-8 19z" />
<glyph unicode="&#xb6;" horiz-adv-x="1179" d="M0 780q0 151 109 259t258 108h532q11 0 19 -8.5t8 -18.5q0 -12 -8 -20t-19 -8h-172v-1268q0 -10 -8.5 -18.5t-18.5 -8.5t-18 8t-8 19v1268h-228v-1242v-26q0 -11 -8 -19t-20 -8q-10 0 -18.5 8.5t-8.5 18.5v590h-24q-149 0 -258 107t-109 259zM53 780q0 -128 92.5 -219.5 t221.5 -91.5h24v623h-24q-130 0 -222 -92.5t-92 -219.5z" />
<glyph unicode="&#xb7;" horiz-adv-x="423" d="M0 457q0 23 16 39t39 16t39.5 -16t16.5 -39t-16.5 -39.5t-39.5 -16.5t-39 16.5t-16 39.5z" />
<glyph unicode="&#xb8;" horiz-adv-x="454" d="M0 31q0 10 7 17t16 7h12q70 -3 118 -55.5t48 -122.5q0 -69 -48.5 -121t-117.5 -55h-12q-9 0 -16 7t-7 16t7 15.5t16 6.5h24v4q45 6 76 43.5t31 83.5q0 45 -30.5 81.5t-76.5 47.5l-24 2q-9 0 -16 7t-7 16z" />
<glyph unicode="&#xb9;" horiz-adv-x="415" d="M0 1118q0 27 43 27h25h16h25q43 0 43 -27v-588q0 -10 -8 -18t-19 -8t-19 8t-8 18v560h-71q-10 0 -18.5 8.5t-8.5 19.5z" />
<glyph unicode="&#xba;" horiz-adv-x="819" d="M0 768v111q0 106 77 184t185 78h111q109 0 185.5 -76.5t76.5 -185.5v-111q0 -108 -78 -185t-184 -77h-111q-106 0 -184 78t-78 184zM63 768q0 -83 58 -141t141 -58h111q82 0 141 59.5t59 139.5v111q0 82 -59 141t-141 59h-111q-83 0 -141 -59t-58 -141v-111z" />
<glyph unicode="&#xbb;" horiz-adv-x="798" d="M-2.5 279q-0.5 11 6.5 20l236 276l-236 277q-7 9 -6.5 20t8.5 17q18 17 37 -2l223 -262q19 -23 19 -50q0 -26 -19 -49l-223 -262q-7 -7 -18.5 -7.5t-18.5 5.5q-8 6 -8.5 17zM253.5 279q-0.5 11 6.5 20l236 276l-236 277q-7 9 -6.5 20t8.5 17q18 17 37 -2l221 -262 q21 -21 21 -50q0 -28 -21 -49l-221 -262q-7 -7 -18.5 -7.5t-18.5 5.5q-8 6 -8.5 17z" />
<glyph unicode="&#xbc;" horiz-adv-x="1251" d="M0 27q0 10 6 16q226 283 739 901q8 10 53 69t77.5 95.5t46.5 36.5q12 0 19 -8t7 -19q0 -9 -6 -18q-148 -181 -446.5 -545t-446.5 -545q-7 -10 -22 -10q-11 0 -19 8t-8 19zM23 1118q0 17 9.5 22t30.5 5h25h14h25q21 0 31 -5.5t10 -21.5v-565q0 -11 -7.5 -19t-19.5 -8 q-10 0 -17 8t-7 19v539h-70q-10 0 -17 7.5t-7 18.5zM573 281q0 16 11 34l168 291q6 12 20 12q11 0 18 -8t7 -16t-2 -12l-187 -322h336v270q0 12 8 19.5t19 7.5t18.5 -7.5t7.5 -19.5v-503q0 -12 -7.5 -19.5t-18.5 -7.5t-19 7.5t-8 19.5v184h-301q-28 0 -49 21t-21 49z" />
<glyph unicode="&#xbd;" horiz-adv-x="1343" d="M0 27q0 10 6 16q226 283 739 901q8 10 53 69t77.5 95.5t46.5 36.5q12 0 19 -8t7 -19q0 -9 -6 -18q-148 -181 -446.5 -545t-446.5 -545q-7 -10 -22 -10q-11 0 -19 8t-8 19zM23 1118q0 17 9.5 22t30.5 5h25h14h25q21 0 31 -5.5t10 -21.5v-565q0 -11 -7.5 -19t-19.5 -8 q-10 0 -17 8t-7 19v539h-70q-10 0 -17 7.5t-7 18.5zM633 27v127q0 134 190 176q10 2 42 7.5t51 9.5t47 14t44 22.5t28 33.5t12 48q0 41 -30 70.5t-71 29.5h-147q-38 0 -60.5 -20t-29 -43.5t-16 -43.5t-23.5 -20q-10 0 -17.5 8t-7.5 19q0 63 45.5 108t108.5 45h147 q63 0 108.5 -45t45.5 -108q0 -40 -17 -72t-45.5 -51.5t-59.5 -30.5t-65 -16q-106 -17 -149 -37q-77 -38 -78 -104v-101h397q11 0 19 -8t8 -18q0 -11 -8 -19t-19 -8h-424q-10 0 -18 8t-8 19z" />
<glyph unicode="&#xbe;" horiz-adv-x="1294" d="M0 553q0 10 8 17.5t19 7.5h202q61 0 106.5 45.5t45.5 105.5t-45 106t-105 46h-204q-11 0 -19 8t-8 18q0 11 8 19t19 8h204q31 0 54.5 22.5t23.5 55.5t-23.5 56.5t-56.5 23.5h-202q-11 0 -19 8t-8 18t8 18.5t19 8.5h202q54 0 93.5 -39.5t39.5 -93.5q0 -41 -26 -78l-14 -21 l22 -14q90 -73 90 -170q0 -81 -60 -142t-145 -61h-202q-11 0 -19 7.5t-8 19.5zM55 27q0 10 6 16q139 173 398.5 487t341.5 414q0 1 51 67.5t81.5 100t43.5 33.5q12 0 19.5 -9t7.5 -20t-5 -16q-107 -130 -895 -1090q-8 -10 -22 -10q-10 0 -18.5 8t-8.5 19zM629 281 q0 17 10 34l168 291q6 12 22 12q10 0 16.5 -8t6.5 -16t-2 -12l-184 -322h333v270q0 12 8 19.5t19 7.5t19 -7.5t8 -19.5v-503q0 -12 -8 -19.5t-19 -7.5t-19 7.5t-8 19.5v184h-301q-26 0 -47.5 21.5t-21.5 48.5z" />
<glyph unicode="&#xbf;" horiz-adv-x="1103" d="M-49 274q0 52 16.5 95.5t40 73.5t64.5 55t75.5 39.5t87.5 27t86.5 18.5t86.5 13l22 2v285q0 10 8 18t19 8q12 0 19.5 -8.5t9 -25t2 -31t-1 -36t-1.5 -30.5v-26v-47v-27q0 -8 1.5 -29.5t1 -36t-2 -31t-9 -25.5t-19.5 -9h-2q-54 -7 -90 -12.5t-88 -17t-86 -24t-72 -33.5 t-60.5 -46t-37.5 -61t-15 -79q0 -86 66 -155l18 -17q59 -47 135 -47h369q79 0 135 47l21 17q63 66 63 155q0 11 8.5 19t20.5 8q10 0 18 -8t8 -19v-2q0 -113 -80 -190l-6 -8q-80 -74 -188 -74h-369q-106 0 -186 74l-6 8q-82 82 -82 192zM416 1106q0 17 12 29t29 12t30 -12 t13 -29t-13 -30t-30 -13t-29 13t-12 30z" />
<glyph unicode="&#xc0;" horiz-adv-x="1341" d="M0 25q0 6 2 10l416 995q22 56 69 84l5 4q47 27 98 27q56 0 104 -31l2 -2h2q44 -30 66 -82l416 -995v-8q0 -11 -7.5 -19t-17.5 -8q-17 0 -20 14l-125 299h-838l-125 -299q-6 -14 -22 -14q-9 0 -17 7.5t-8 17.5zM193 362h796l-272 650q-13 39 -47 59l-2 2q-38 23 -78 23 q-22 0 -51 -11v5l-25 -17q-37 -26 -51 -61zM500 1505q3 13 14 21q12 6 25.5 2t19.5 -15q28 -48 50.5 -86.5t32.5 -56t17.5 -30.5t10 -17t4.5 -8q6 -10 3 -23.5t-15 -19.5q-12 -7 -25 -3.5t-21 15.5l-112 197q-7 11 -4 24z" />
<glyph unicode="&#xc1;" horiz-adv-x="1341" d="M0 25q0 6 2 10l416 995q22 56 69 84l5 4q47 27 98 27q56 0 104 -31l2 -2h2q44 -30 66 -82l416 -995v-8q0 -11 -7.5 -19t-17.5 -8q-17 0 -20 14l-125 299h-838l-125 -299q-6 -14 -22 -14q-9 0 -17 7.5t-8 17.5zM193 362h796l-272 650q-13 39 -47 59l-2 2q-38 23 -78 23 q-22 0 -51 -11v5l-25 -17q-37 -26 -51 -61zM509 1291.5q-3 13.5 3 23.5q2 4 4.5 8t10 17t17.5 30.5t32.5 56t50.5 86.5q6 11 19.5 15t25.5 -2q11 -8 14 -21t-4 -24l-113 -197q-8 -12 -20.5 -15.5t-24.5 3.5q-12 6 -15 19.5z" />
<glyph unicode="&#xc2;" horiz-adv-x="1341" d="M0 25q0 6 2 10l416 995q22 56 69 84l5 4q47 27 98 27q56 0 104 -31l2 -2h2q44 -30 66 -82l416 -995v-8q0 -11 -7.5 -19t-17.5 -8q-17 0 -20 14l-125 299h-838l-125 -299q-6 -14 -22 -14q-9 0 -17 7.5t-8 17.5zM193 362h796l-272 650q-13 39 -47 59l-2 2q-38 23 -78 23 q-22 0 -51 -11v5l-25 -17q-37 -26 -51 -61zM343.5 1277q0.5 11 8.5 17l189 162q22 19 51 19t51 -19l188 -162q8 -6 9 -17t-6 -20q-6 -8 -17.5 -8.5t-19.5 6.5l-205 175l-205 -175q-17 -17 -37 2q-7 9 -6.5 20z" />
<glyph unicode="&#xc3;" horiz-adv-x="1341" d="M0 25q0 6 2 10l416 995q22 56 69 84l5 4q47 27 98 27q56 0 104 -31l2 -2h2q44 -30 66 -82l416 -995v-8q0 -11 -7.5 -19t-17.5 -8q-17 0 -20 14l-125 299h-838l-125 -299q-6 -14 -22 -14q-9 0 -17 7.5t-8 17.5zM193 362h796l-272 650q-13 39 -47 59l-2 2q-38 23 -78 23 q-22 0 -51 -11v5l-25 -17q-37 -26 -51 -61zM303 1366q0 28 51.5 40.5t102.5 12.5q46 0 133.5 -28.5t134.5 -28.5q21 0 62.5 12t60.5 12q13 0 21 -8.5t8 -19.5q0 -24 -19 -27q-62 -26 -135 -26q-47 0 -134.5 28.5t-133.5 28.5q-54 0 -111 -23h-2q-4 -2 -10 -2q-13 0 -21 8.5 t-8 20.5z" />
<glyph unicode="&#xc4;" horiz-adv-x="1341" d="M0 25q0 6 2 10l416 995q22 56 69 84l5 4q47 27 98 27q56 0 104 -31l2 -2h2q44 -30 66 -82l416 -995v-8q0 -11 -7.5 -19t-17.5 -8q-17 0 -20 14l-125 299h-838l-125 -299q-6 -14 -22 -14q-9 0 -17 7.5t-8 17.5zM193 362h796l-272 650q-13 39 -47 59l-2 2q-38 23 -78 23 q-22 0 -51 -11v5l-25 -17q-37 -26 -51 -61zM379 1346q0 25 17 42t42 17t42.5 -17t17.5 -42t-17.5 -42.5t-42.5 -17.5t-42 17.5t-17 42.5zM678 1346q0 25 17 42t42 17t42.5 -17t17.5 -42t-17.5 -42.5t-42.5 -17.5t-42 17.5t-17 42.5z" />
<glyph unicode="&#xc5;" horiz-adv-x="1341" d="M0 25q0 6 2 10l416 995q22 56 69 84l5 4q47 27 98 27q56 0 104 -31l2 -2h2q44 -30 66 -82l416 -995v-8q0 -11 -7.5 -19t-17.5 -8q-17 0 -20 14l-125 299h-838l-125 -299q-6 -14 -22 -14q-9 0 -17 7.5t-8 17.5zM193 362h796l-272 650q-13 39 -47 59l-2 2q-38 23 -78 23 q-22 0 -51 -11v5l-25 -17q-37 -26 -51 -61zM381 1303q0 81 59 141.5t144 60.5q82 0 142 -59.5t60 -142.5t-60 -143t-142 -60q-86 0 -144.5 61t-58.5 142zM434 1303q0 -60 44.5 -104t105.5 -44t104 43t43 105q0 64 -43 104q-43 43 -104 43t-105.5 -43.5t-44.5 -103.5z" />
<glyph unicode="&#xc6;" horiz-adv-x="1802" d="M0 27q0 10 4 14l627 1030q20 34 54.5 54t72.5 20q22 0 43 -6h737q10 0 18.5 -8.5t8.5 -18.5t-8.5 -18.5t-18.5 -8.5h-649l14 -34q12 -27 12 -60v-391h476q11 0 18.5 -8.5t7.5 -20.5q0 -11 -7.5 -18.5t-18.5 -7.5h-476v-62q0 -2 -1 -4.5t-1 -3.5v-6q3 -168 128.5 -289 t293.5 -121h203q11 0 19 -8t8 -18q0 -11 -8.5 -19t-18.5 -8h-203q-96 0 -183 36t-153 103h-2q-66 68 -102.5 155.5t-36.5 182.5v62h-483l-324 -533q-9 -12 -24 -12q-11 0 -19 8t-8 19zM408 600h450v391q0 36 -18 60l-15 20l-4 -2q-2 2 -7 5t-7 5v2l-16 4h-3q-25 5 -28 5 q-52 0 -82 -48z" />
<glyph unicode="&#xc7;" horiz-adv-x="1110" d="M0 481v183q0 96 38.5 185t103.5 154t154 103.5t185 38.5h404q12 0 20 -8t8 -19q0 -12 -8 -20t-20 -8h-404q-175 0 -300.5 -125.5t-125.5 -300.5v-183q0 -175 125.5 -300.5t300.5 -125.5h404q12 0 20 -8t8 -20q0 -11 -8 -19t-20 -8h-404q-97 0 -186 38.5t-153.5 103.5 t-103 153.5t-38.5 185.5zM473 31q0 10 7 17t16 7h12q70 -3 118 -55.5t48 -122.5q0 -69 -48.5 -121t-117.5 -55h-12q-9 0 -16 7t-7 16t7 15.5t16 6.5h24v4q45 6 76 43.5t31 83.5q0 45 -30.5 81.5t-76.5 47.5l-24 2q-9 0 -16 7t-7 16z" />
<glyph unicode="&#xc8;" horiz-adv-x="1110" d="M0 481v183q0 128 64.5 239t176 176.5t240.5 65.5h404q12 0 20 -8t8 -19q0 -12 -8 -20t-20 -8h-404q-175 0 -300.5 -125.5t-125.5 -300.5v-64h758q11 0 19 -8t8 -19q0 -12 -8 -20t-19 -8h-758v-64q0 -175 125.5 -300.5t300.5 -125.5h404q12 0 20 -8t8 -20q0 -11 -8 -19 t-20 -8h-404q-96 0 -185 38.5t-154 103.5t-103.5 154t-38.5 185zM449 1505q3 13 14 21q12 6 25.5 2t19.5 -15q28 -48 50.5 -86.5t32.5 -56t17.5 -30.5t10 -17t4.5 -8q6 -10 2.5 -23.5t-15.5 -19.5q-12 -7 -24.5 -3.5t-20.5 15.5l-112 197q-7 11 -4 24z" />
<glyph unicode="&#xc9;" horiz-adv-x="1110" d="M0 481v183q0 128 64.5 239t176 176.5t240.5 65.5h404q12 0 20 -8t8 -19q0 -12 -8 -20t-20 -8h-404q-175 0 -300.5 -125.5t-125.5 -300.5v-64h758q11 0 19 -8t8 -19q0 -12 -8 -20t-19 -8h-758v-64q0 -175 125.5 -300.5t300.5 -125.5h404q12 0 20 -8t8 -20q0 -11 -8 -19 t-20 -8h-404q-96 0 -185 38.5t-154 103.5t-103.5 154t-38.5 185zM446 1291.5q-3 13.5 3 23.5q5 9 114 198q6 11 19.5 15t25.5 -2q11 -8 14 -21t-4 -24l-112 -197q-8 -12 -20.5 -15.5t-24.5 3.5q-12 6 -15 19.5z" />
<glyph unicode="&#xca;" horiz-adv-x="1110" d="M0 481v183q0 128 64.5 239t176 176.5t240.5 65.5h404q12 0 20 -8t8 -19q0 -12 -8 -20t-20 -8h-404q-175 0 -300.5 -125.5t-125.5 -300.5v-64h758q11 0 19 -8t8 -19q0 -12 -8 -20t-19 -8h-758v-64q0 -175 125.5 -300.5t300.5 -125.5h404q12 0 20 -8t8 -20q0 -11 -8 -19 t-20 -8h-404q-96 0 -185 38.5t-154 103.5t-103.5 154t-38.5 185zM237.5 1277q0.5 11 8.5 17l188 162q22 19 51 19q30 0 52 -19l188 -162q8 -6 8.5 -17t-6.5 -20q-6 -8 -17.5 -8.5t-19.5 6.5l-205 175l-204 -175q-17 -17 -37 2q-7 9 -6.5 20z" />
<glyph unicode="&#xcb;" horiz-adv-x="1110" d="M0 481v183q0 128 64.5 239t176 176.5t240.5 65.5h404q12 0 20 -8t8 -19q0 -12 -8 -20t-20 -8h-404q-175 0 -300.5 -125.5t-125.5 -300.5v-64h758q11 0 19 -8t8 -19q0 -12 -8 -20t-19 -8h-758v-64q0 -175 125.5 -300.5t300.5 -125.5h404q12 0 20 -8t8 -20q0 -11 -8 -19 t-20 -8h-404q-96 0 -185 38.5t-154 103.5t-103.5 154t-38.5 185zM307 1346q0 25 17.5 42t42.5 17t42 -17t17 -42t-17 -42.5t-42 -17.5t-42.5 17.5t-17.5 42.5zM606 1346q0 25 17.5 42t42.5 17t42 -17t17 -42t-17 -42.5t-42 -17.5t-42.5 17.5t-17.5 42.5z" />
<glyph unicode="&#xcc;" horiz-adv-x="548" d="M8.5 1505q3.5 13 14.5 21q12 6 25.5 2t19.5 -15q109 -189 114 -198q6 -10 3 -23.5t-15 -19.5q-12 -7 -24.5 -3.5t-20.5 15.5l-113 197q-7 11 -3.5 24zM119 27v1091q0 11 8 19t18 8q12 0 20.5 -8t8.5 -19v-1091q0 -11 -8.5 -19t-20.5 -8q-10 0 -18 8t-8 19z" />
<glyph unicode="&#xcd;" horiz-adv-x="391" d="M5 1291.5q-3 13.5 3 23.5q2 4 4.5 8t10 17t17.5 30.5t32.5 56t50.5 86.5q6 11 19.5 15t25.5 -2q11 -8 14 -21t-4 -24l-112 -197q-8 -12 -21 -15.5t-25 3.5q-12 6 -15 19.5zM6 27v1091q0 10 8 18.5t19 8.5q12 0 20 -8t8 -19v-1091q0 -11 -8 -19t-20 -8q-11 0 -19 8t-8 19z " />
<glyph unicode="&#xce;" horiz-adv-x="704" d="M3.5 1277q0.5 11 8.5 17l189 162q22 19 51 19t51 -19l189 -162q8 -6 8.5 -17t-6.5 -20q-6 -8 -17.5 -8.5t-19.5 6.5l-205 175l-205 -175q-17 -17 -37 2q-7 9 -6.5 20zM221 27v1091q0 10 8.5 18.5t18.5 8.5q12 0 20 -8t8 -19v-1091q0 -11 -8 -19t-20 -8q-10 0 -18.5 8 t-8.5 19z" />
<glyph unicode="&#xcf;" horiz-adv-x="729" d="M-6 1346q0 25 17 42t42 17t42.5 -17t17.5 -42t-17.5 -42.5t-42.5 -17.5t-42 17.5t-17 42.5zM174 27v1091q0 10 8 18.5t19 8.5q12 0 20 -8t8 -19v-1091q0 -11 -8 -19t-20 -8q-11 0 -19 8t-8 19zM293 1346q0 25 17 42t42 17t42.5 -17t17.5 -42t-17.5 -42.5t-42.5 -17.5 t-42 17.5t-17 42.5z" />
<glyph unicode="&#xd0;" horiz-adv-x="1325" d="M-41 571q0 12 8 20.5t19 8.5h172v313q0 97 67 164l6 6q68 62 158 62h285q129 0 240.5 -65.5t176 -176.5t64.5 -239v-183q0 -97 -38.5 -185.5t-103 -153.5t-153.5 -103.5t-186 -38.5h-285q-91 0 -158 61l-6 7q-67 67 -67 163v314h-172q-11 0 -19 8t-8 18zM213 231 q0 -77 51 -125l19 -18v2q47 -35 106 -35h285q179 0 301 125h2q123 123 123 301v183q0 178 -123 301h-2q-122 125 -301 125h-285q-59 0 -106 -35v2l-19 -19q-54 -54 -51 -125v-313h170q11 0 19 -8.5t8 -20.5q0 -10 -8 -18t-19 -8h-170v-314z" />
<glyph unicode="&#xd1;" horiz-adv-x="1341" d="M0 29v1022q0 41 28.5 67.5t65.5 26.5q51 0 74 -37l807 -1040q11 -19 33 -19q20 0 33.5 13t13.5 32v1022q0 11 7 18t17 7q11 0 18 -7.5t7 -17.5v-1022q0 -38 -28 -66t-66 -28q-51 0 -74 37l-807 1040q-15 19 -33 19q-20 0 -33.5 -13t-13.5 -32v-1022q0 -11 -7 -18t-17 -7 q-11 0 -18 7t-7 18zM274 1366q0 28 51.5 40.5t102.5 12.5q46 0 133.5 -28.5t134.5 -28.5q21 0 62.5 12t60.5 12q13 0 21 -8.5t8 -19.5q0 -24 -19 -27q-62 -26 -135 -26q-47 0 -134.5 28.5t-133.5 28.5q-54 0 -111 -23h-2q-4 -2 -10 -2q-13 0 -21 8.5t-8 20.5z" />
<glyph unicode="&#xd2;" horiz-adv-x="1406" d="M0 481v183q0 96 38.5 185t103.5 154t154 103.5t185 38.5h226q96 0 185 -38.5t154 -103.5t103.5 -154t38.5 -185v-183q0 -129 -66 -240.5t-177 -176t-238 -64.5h-226q-97 0 -186 38.5t-153.5 103.5t-103 153.5t-38.5 185.5zM55 481q0 -175 125.5 -300.5t300.5 -125.5h226 q174 0 300 126t126 300v183q0 174 -126 300t-300 126h-226q-175 0 -300.5 -125.5t-125.5 -300.5v-183zM502 1505q3 13 14 21q12 6 25.5 2t19.5 -15q28 -48 50.5 -86.5t32.5 -56t17.5 -30.5t10 -17t4.5 -8q6 -10 3 -23.5t-15 -19.5q-12 -7 -25 -3.5t-21 15.5l-112 197 q-7 11 -4 24z" />
<glyph unicode="&#xd3;" horiz-adv-x="1406" d="M0 481v183q0 96 38.5 185t103.5 154t154 103.5t185 38.5h226q96 0 185 -38.5t154 -103.5t103.5 -154t38.5 -185v-183q0 -129 -66 -240.5t-177 -176t-238 -64.5h-226q-97 0 -186 38.5t-153.5 103.5t-103 153.5t-38.5 185.5zM55 481q0 -175 125.5 -300.5t300.5 -125.5h226 q174 0 300 126t126 300v183q0 174 -126 300t-300 126h-226q-175 0 -300.5 -125.5t-125.5 -300.5v-183zM501 1291.5q-3 13.5 3 23.5q5 9 114 198q6 11 20 15t26 -2q11 -8 14 -21t-4 -24l-113 -197q-8 -12 -20.5 -15.5t-24.5 3.5q-12 6 -15 19.5z" />
<glyph unicode="&#xd4;" horiz-adv-x="1406" d="M0 481v183q0 96 38.5 185t103.5 154t154 103.5t185 38.5h226q96 0 185 -38.5t154 -103.5t103.5 -154t38.5 -185v-183q0 -129 -66 -240.5t-177 -176t-238 -64.5h-226q-97 0 -186 38.5t-153.5 103.5t-103 153.5t-38.5 185.5zM55 481q0 -175 125.5 -300.5t300.5 -125.5h226 q174 0 300 126t126 300v183q0 174 -126 300t-300 126h-226q-175 0 -300.5 -125.5t-125.5 -300.5v-183zM347.5 1277q0.5 11 8.5 17l189 162q22 19 51 19t51 -19l189 -162q8 -6 8.5 -17t-6.5 -20q-6 -8 -17.5 -8.5t-19.5 6.5l-205 175l-205 -175q-17 -17 -37 2q-7 9 -6.5 20z " />
<glyph unicode="&#xd5;" horiz-adv-x="1406" d="M0 481v183q0 96 38.5 185t103.5 154t154 103.5t185 38.5h226q96 0 185 -38.5t154 -103.5t103.5 -154t38.5 -185v-183q0 -129 -66 -240.5t-177 -176t-238 -64.5h-226q-97 0 -186 38.5t-153.5 103.5t-103 153.5t-38.5 185.5zM55 481q0 -175 125.5 -300.5t300.5 -125.5h226 q174 0 300 126t126 300v183q0 174 -126 300t-300 126h-226q-175 0 -300.5 -125.5t-125.5 -300.5v-183zM305 1366q0 28 51.5 40.5t102.5 12.5q46 0 133.5 -28.5t134.5 -28.5q21 0 62.5 12t60.5 12q13 0 21 -8.5t8 -19.5q0 -24 -19 -27q-62 -26 -135 -26q-47 0 -134.5 28.5 t-133.5 28.5q-53 0 -111 -23h-2q-4 -2 -10 -2q-13 0 -21 8.5t-8 20.5z" />
<glyph unicode="&#xd6;" horiz-adv-x="1406" d="M0 481v183q0 96 38.5 185t103.5 154t154 103.5t185 38.5h226q96 0 185 -38.5t154 -103.5t103.5 -154t38.5 -185v-183q0 -129 -66 -240.5t-177 -176t-238 -64.5h-226q-97 0 -186 38.5t-153.5 103.5t-103 153.5t-38.5 185.5zM55 481q0 -175 125.5 -300.5t300.5 -125.5h226 q174 0 300 126t126 300v183q0 174 -126 300t-300 126h-226q-175 0 -300.5 -125.5t-125.5 -300.5v-183zM377 1346q0 25 17 42t42 17t42.5 -17t17.5 -42t-17.5 -42.5t-42.5 -17.5t-42 17.5t-17 42.5zM676 1346q0 25 17 42t42 17t42.5 -17t17.5 -42t-17.5 -42.5t-42.5 -17.5 t-42 17.5t-17 42.5z" />
<glyph unicode="&#xd7;" horiz-adv-x="819" d="M0 180q0 13 8 21l258 258l-258 258q-8 8 -8 20t9 20.5t20 8.5q12 0 20 -8l258 -258l258 258q5 8 19 8q12 0 21 -9t9 -20q0 -8 -8 -20l-258 -258l258 -258q8 -12 8 -19q0 -11 -9 -20.5t-21 -9.5t-19 10l-258 256l-258 -256q-10 -10 -22 -10q-10 0 -18.5 8.5t-8.5 19.5z " />
<glyph unicode="&#xd8;" horiz-adv-x="1406" d="M0 481v183q0 128 64.5 239t176 176.5t240.5 65.5h226q159 0 290 -98l19 -15l51 51q6 9 18 9q10 0 19.5 -8.5t9.5 -18.5q0 -9 -8 -21l-51 -49l16 -18q117 -135 117 -313v-183q0 -130 -66 -241.5t-177 -175.5t-238 -64h-226q-160 0 -291 98l-18 15l-51 -52q-10 -10 -21 -10 q-9 0 -17.5 9.5t-8.5 19.5q0 12 8 20l49 50l-14 18q-117 135 -117 313zM55 481q4 -170 97 -272l18 -21l807 807l-25 17q-122 81 -245 78h-226q-175 0 -300.5 -125.5t-125.5 -300.5v-183zM211 150l25 -17q122 -81 245 -78h226q174 0 300 126t126 300v183q0 149 -99 272 l-16 20z" />
<glyph unicode="&#xd9;" horiz-adv-x="1259" d="M0 481v637q0 10 8 18.5t19 8.5q12 0 20 -8t8 -19v-637q0 -175 125.5 -300.5t300.5 -125.5h99q174 0 300 126t126 300v611v26q0 11 8 19t20 8q10 0 18.5 -8.5t8.5 -18.5v-637q0 -96 -38.5 -185t-103.5 -154t-154 -103.5t-185 -38.5h-99q-97 0 -186 38.5t-153.5 103.5 t-103 153.5t-38.5 185.5zM438.5 1505q3.5 13 14.5 21q12 6 25.5 2t19.5 -15q109 -189 114 -198q6 -10 3 -23.5t-15 -19.5q-12 -7 -24.5 -3.5t-20.5 15.5l-113 197q-7 11 -3.5 24z" />
<glyph unicode="&#xda;" horiz-adv-x="1259" d="M0 481v637q0 10 8 18.5t19 8.5q12 0 20 -8t8 -19v-637q0 -175 125.5 -300.5t300.5 -125.5h99q174 0 300 126t126 300v611v26q0 11 8 19t20 8q10 0 18.5 -8.5t8.5 -18.5v-637q0 -96 -38.5 -185t-103.5 -154t-154 -103.5t-185 -38.5h-99q-97 0 -186 38.5t-153.5 103.5 t-103 153.5t-38.5 185.5zM454 1291.5q-3 13.5 3 23.5q5 9 114 198q6 11 19.5 15t25.5 -2q11 -8 14.5 -21t-3.5 -24l-113 -197q-8 -12 -20.5 -15.5t-24.5 3.5q-12 6 -15 19.5z" />
<glyph unicode="&#xdb;" horiz-adv-x="1259" d="M0 481v637q0 10 8 18.5t19 8.5q12 0 20 -8t8 -19v-637q0 -175 125.5 -300.5t300.5 -125.5h99q174 0 300 126t126 300v611v26q0 11 8 19t20 8q10 0 18.5 -8.5t8.5 -18.5v-637q0 -96 -38.5 -185t-103.5 -154t-154 -103.5t-185 -38.5h-99q-97 0 -186 38.5t-153.5 103.5 t-103 153.5t-38.5 185.5zM276.5 1277q0.5 11 8.5 17l188 162q22 19 51 19t51 -19l189 -162q8 -6 8.5 -17t-6.5 -20q-6 -8 -17.5 -8.5t-19.5 6.5l-205 175l-205 -175q-17 -17 -36 2q-7 9 -6.5 20z" />
<glyph unicode="&#xdc;" horiz-adv-x="1259" d="M0 481v637q0 10 8 18.5t19 8.5q12 0 20 -8t8 -19v-637q0 -175 125.5 -300.5t300.5 -125.5h99q174 0 300 126t126 300v611v26q0 11 8 19t20 8q10 0 18.5 -8.5t8.5 -18.5v-637q0 -96 -38.5 -185t-103.5 -154t-154 -103.5t-185 -38.5h-99q-97 0 -186 38.5t-153.5 103.5 t-103 153.5t-38.5 185.5zM315 1346q0 25 17.5 42t42.5 17t42 -17t17 -42t-17 -42.5t-42 -17.5t-42.5 17.5t-17.5 42.5zM614 1346q0 25 17.5 42t42.5 17t42 -17t17 -42t-17 -42.5t-42 -17.5t-42.5 17.5t-17.5 42.5z" />
<glyph unicode="&#xdd;" horiz-adv-x="1173" d="M0 807v311q0 10 8 18.5t19 8.5q12 0 20 -8t8 -19v-311q0 -174 125 -301t301 -127h25q176 0 301 127t125 301v311q0 11 8.5 19t20.5 8q10 0 18 -8t8 -19v-311q0 -199 -141 -340v-2q-124 -124 -301 -139l-25 -2v-297q0 -11 -8 -19t-18 -8t-18.5 8t-8.5 19v297l-25 2 q-185 17 -313.5 156.5t-128.5 324.5zM409 1291.5q-3 13.5 3 23.5q5 9 114 198q6 11 19.5 15t25.5 -2q11 -8 14.5 -21t-3.5 -24l-113 -197q-8 -12 -20.5 -15.5t-24.5 3.5q-12 6 -15 19.5z" />
<glyph unicode="&#xde;" horiz-adv-x="1130" d="M0 -150v1446q0 10 8 18.5t19 8.5q10 0 18 -8t8 -19v-370h463q149 -3 255 -110t106 -255q0 -152 -108.5 -258t-256.5 -106h-459v-373q0 -11 -8 -19t-18 -8q-11 0 -19 8.5t-8 18.5v26zM53 250h459q126 0 217.5 91t91.5 220q0 126 -90.5 217.5t-218.5 91.5h-27h-432v-620z " />
<glyph unicode="&#xdf;" horiz-adv-x="1161" d="M0 -176v1091q0 94 68 162l6 6q65 62 155 62h285q91 0 156 -62l6 -6q67 -67 67 -162q0 -48 -23 -94t-79 -102l33 -17q92 -41 149.5 -133.5t57.5 -193.5q0 -150 -107.5 -258.5t-259.5 -108.5h-270h-27q-11 0 -19 8t-8 19q0 10 8 18t19 8h297q126 0 218.5 91.5t92.5 222.5 q0 127 -90.5 217.5t-216.5 93.5h-465v-862q0 -11 -7 -19t-19 -8q-11 0 -19 8.5t-8 18.5zM53 739h463q73 3 123.5 53t50.5 123q0 75 -51 123l-21 19q-34 29 -104 33h-285q-60 0 -104 -33l-21 -19q-47 -42 -51 -123v-176z" />
<glyph unicode="&#xe0;" horiz-adv-x="1085" d="M14 276q0 114 81 194.5t196 80.5h526l-8 33q-25 98 -107.5 162.5t-183.5 64.5h-362q-10 0 -18.5 8.5t-8.5 18.5q0 12 8 20t19 8h26h336q144 0 250 -104t106 -250v-158q0 -146 -106 -250t-250 -104h-227q-116 0 -196.5 80.5t-80.5 195.5zM70 276q0 -92 64.5 -156.5 t156.5 -64.5h123h104q123 0 211 89t88 210v142h-526q-92 0 -156.5 -64.5t-64.5 -155.5zM363 1218q3 13 14 21q12 6 25.5 2.5t19.5 -14.5q113 -195 115 -199q6 -10 2.5 -23.5t-15.5 -19.5q-12 -7 -24.5 -3.5t-20.5 15.5l-112 197q-7 11 -4 24z" />
<glyph unicode="&#xe1;" horiz-adv-x="1067" d="M-4 276q0 114 80.5 194.5t195.5 80.5h527l-8 33q-25 98 -107.5 162.5t-183.5 64.5h-363q-10 0 -18 8t-8 19q0 12 7.5 20t18.5 8h27h336q144 0 250 -104t106 -250v-158q0 -146 -106 -250t-250 -104h-228q-116 0 -196 80t-80 196zM51 276q0 -92 64.5 -156.5t156.5 -64.5 h123h105q123 0 211 89t88 210v142h-527q-92 0 -156.5 -64.5t-64.5 -155.5zM345 1004.5q-3 13.5 3 23.5q2 4 115 199q6 11 19.5 14.5t25.5 -2.5q11 -8 14 -21t-4 -24l-112 -197q-8 -12 -21 -15.5t-25 3.5q-12 6 -15 19.5z" />
<glyph unicode="&#xe2;" horiz-adv-x="1067" d="M-4 276q0 114 80.5 194.5t195.5 80.5h527l-8 33q-25 98 -107.5 162.5t-183.5 64.5h-363q-10 0 -18 8t-8 19q0 12 7.5 20t18.5 8h27h336q144 0 250 -104t106 -250v-158q0 -146 -106 -250t-250 -104h-228q-116 0 -196 80t-80 196zM51 276q0 -92 64.5 -156.5t156.5 -64.5 h123h105q123 0 211 89t88 210v142h-527q-92 0 -156.5 -64.5t-64.5 -155.5zM192.5 950q0.5 11 8.5 17l188 161q22 19 51 19q30 0 52 -19l188 -161q8 -6 8.5 -17t-6.5 -20q-6 -8 -17.5 -8.5t-19.5 6.5l-205 174l-204 -174q-8 -7 -18.5 -6.5t-18.5 8.5q-7 9 -6.5 20z" />
<glyph unicode="&#xe3;" horiz-adv-x="1030" d="M-41 276q0 114 81 194.5t196 80.5h526l-8 33q-25 98 -107.5 162.5t-183.5 64.5h-363q-10 0 -18 8t-8 19q0 12 7.5 20t18.5 8h27h336q144 0 250 -104t106 -250v-158q0 -146 -106 -250t-250 -104h-227q-116 0 -196.5 80.5t-80.5 195.5zM14 276q0 -92 65 -156.5t157 -64.5 h122h105q123 0 211 89t88 210v142h-526q-92 0 -157 -64.5t-65 -155.5zM100 1059q0 28 51.5 40.5t102.5 12.5q46 0 133.5 -28.5t134.5 -28.5q21 0 62.5 12t60.5 12q13 0 21 -8.5t8 -19.5q0 -24 -19 -27q-65 -27 -135 -27q-47 0 -134.5 29t-133.5 29q-54 0 -111 -23h-2 q-4 -2 -10 -2q-13 0 -21 8.5t-8 20.5z" />
<glyph unicode="&#xe4;" horiz-adv-x="1030" d="M-41 276q0 114 81 194.5t196 80.5h526l-8 33q-25 98 -107.5 162.5t-183.5 64.5h-363q-10 0 -18 8t-8 19q0 12 7.5 20t18.5 8h27h336q144 0 250 -104t106 -250v-158q0 -146 -106 -250t-250 -104h-227q-116 0 -196.5 80.5t-80.5 195.5zM14 276q0 -92 65 -156.5t157 -64.5 h122h105q123 0 211 89t88 210v142h-526q-92 0 -157 -64.5t-65 -155.5zM174 1038q0 25 17 42.5t42 17.5t42.5 -17.5t17.5 -42.5t-17.5 -42t-42.5 -17t-42 17t-17 42zM473 1038q0 25 17 42.5t42 17.5t42.5 -17.5t17.5 -42.5t-17.5 -42t-42.5 -17t-42 17t-17 42z" />
<glyph unicode="&#xe5;" horiz-adv-x="1030" d="M-41 276q0 114 81 194.5t196 80.5h526l-8 33q-25 98 -107.5 162.5t-183.5 64.5h-363q-10 0 -18 8t-8 19q0 12 7.5 20t18.5 8h27h336q144 0 250 -104t106 -250v-158q0 -146 -106 -250t-250 -104h-227q-116 0 -196.5 80.5t-80.5 195.5zM14 276q0 -92 65 -156.5t157 -64.5 h122h105q123 0 211 89t88 210v142h-526q-92 0 -157 -64.5t-65 -155.5zM182 1126q0 81 59 142t144 61q82 0 142.5 -60t60.5 -143t-60.5 -142.5t-142.5 -59.5q-86 0 -144.5 60.5t-58.5 141.5zM236 1126q0 -60 44 -103.5t105 -43.5t104 42.5t43 104.5q0 65 -43 105 q-43 43 -104 43t-105 -44t-44 -104z" />
<glyph unicode="&#xe6;" horiz-adv-x="1560" d="M0 276q0 114 80.5 194.5t195.5 80.5h375l-8 33q-25 98 -106.5 162.5t-182.5 64.5h-213q-10 0 -18 8t-8 19q0 12 7.5 20t18.5 8h27h186q93 0 172 -45t133 -127l21 -39l22 39q54 82 133.5 127t172.5 45q145 0 249.5 -104.5t104.5 -249.5v-143q0 -22 -14.5 -37t-34.5 -15 h-617l39 -84q37 -81 111 -130t162 -48h223q11 0 20 -8t9 -18q0 -12 -9 -20.5t-20 -8.5h-223q-93 0 -172.5 45t-133.5 127l-22 39l-21 -39q-54 -82 -133 -127t-172 -45h-78q-116 0 -196 80t-80 196zM55 276q0 -84 56.5 -147t138.5 -72v-2h104q122 0 210.5 88.5t88.5 210.5 v142h-377q-92 0 -156.5 -64.5t-64.5 -155.5zM709 373h598v139q0 121 -88 210t-211 89q-122 0 -210.5 -89t-88.5 -210v-139z" />
<glyph unicode="&#xe7;" horiz-adv-x="897" d="M0 354v158q0 145 104.5 249.5t249.5 104.5h332q11 0 19 -8t8 -20q0 -10 -8.5 -18.5t-18.5 -8.5h-332q-120 0 -209.5 -88t-89.5 -211v-158q0 -122 88.5 -210.5t210.5 -88.5h305h27q11 0 19 -8t8 -18q0 -12 -8 -20.5t-19 -8.5h-332q-145 0 -249.5 104.5t-104.5 249.5z M346 31q0 10 7 17t16 7h12q70 -3 118 -55.5t48 -122.5q0 -69 -48.5 -121t-117.5 -55h-12q-9 0 -16 7t-7 16t7 15.5t16 6.5h24v4q45 6 76 43.5t31 83.5q0 45 -30.5 81.5t-76.5 47.5l-24 2q-9 0 -16 7t-7 16z" />
<glyph unicode="&#xe8;" d="M0 371v141q0 145 104.5 249.5t249.5 104.5h158q145 0 249.5 -104.5t104.5 -249.5v-143q0 -22 -14.5 -37t-34.5 -15h-772l37 -84q35 -81 110 -129.5t162 -48.5h381q11 0 19 -8t8 -18q0 -12 -8 -20.5t-19 -8.5h-381q-152 0 -253 110t-101 261zM55 373h756v139 q0 122 -88.5 210.5t-210.5 88.5h-158q-121 0 -210 -88.5t-89 -210.5v-139zM334 1218q3 13 14 21q12 6 25.5 2.5t19.5 -14.5q113 -195 115 -199q6 -10 3 -23.5t-15 -19.5q-12 -7 -24.5 -3.5t-20.5 15.5l-113 197q-7 11 -4 24z" />
<glyph unicode="&#xe9;" d="M0 371v141q0 145 104.5 249.5t249.5 104.5h158q145 0 249.5 -104.5t104.5 -249.5v-143q0 -22 -14.5 -37t-34.5 -15h-772l37 -84q35 -81 110 -129.5t162 -48.5h381q11 0 19 -8t8 -18q0 -12 -8 -20.5t-19 -8.5h-381q-152 0 -253 110t-101 261zM55 373h756v139 q0 122 -88.5 210.5t-210.5 88.5h-158q-121 0 -210 -88.5t-89 -210.5v-139zM343 1004.5q-3 13.5 3 23.5q2 4 115 199q6 11 19.5 14.5t25.5 -2.5q11 -8 14 -21t-4 -24l-113 -197q-8 -12 -20.5 -15.5t-24.5 3.5q-12 6 -15 19.5z" />
<glyph unicode="&#xea;" d="M14 371v141q0 145 105 249.5t250 104.5h157q145 0 250 -104.5t105 -249.5v-143q0 -22 -15 -37t-35 -15h-772l37 -84q35 -81 110.5 -129.5t162.5 -48.5h381q10 0 18 -7.5t8 -18.5q0 -12 -7.5 -20.5t-18.5 -8.5h-381q-152 0 -253.5 110t-101.5 261zM70 373h755v139 q0 122 -88.5 210.5t-210.5 88.5h-157q-121 0 -210 -88.5t-89 -210.5v-139zM208.5 950q0.5 11 8.5 17l189 161q22 19 51 19t51 -19l188 -161q8 -6 8.5 -17t-6.5 -20q-6 -8 -17 -8.5t-19 6.5l-205 174l-205 -174q-8 -7 -18.5 -6.5t-18.5 8.5q-7 9 -6.5 20z" />
<glyph unicode="&#xeb;" d="M0 371v141q0 145 104.5 249.5t249.5 104.5h158q145 0 249.5 -104.5t104.5 -249.5v-143q0 -22 -14.5 -37t-34.5 -15h-772l37 -84q35 -81 110 -129.5t162 -48.5h381q11 0 19 -8t8 -18q0 -12 -8 -20.5t-19 -8.5h-381q-152 0 -253 110t-101 261zM55 373h756v139 q0 122 -88.5 210.5t-210.5 88.5h-158q-121 0 -210 -88.5t-89 -210.5v-139zM223 1038q0 25 17.5 42.5t42.5 17.5t42 -17.5t17 -42.5t-17 -42t-42 -17t-42.5 17t-17.5 42zM522 1038q0 25 17.5 42.5t42.5 17.5t42 -17.5t17 -42.5t-17 -42t-42 -17t-42.5 17t-17.5 42z" />
<glyph unicode="&#xec;" horiz-adv-x="530" d="M6 1218q3 13 14 21q12 6 26 2.5t20 -14.5q106 -182 114 -199q6 -10 3 -23.5t-15 -19.5q-12 -7 -24.5 -3.5t-20.5 15.5l-113 197q-7 11 -4 24zM123 27v800q0 12 8.5 20.5t20.5 8.5q11 0 18.5 -8.5t7.5 -20.5v-800q0 -11 -8 -19t-18 -8q-12 0 -20.5 8t-8.5 19z" />
<glyph unicode="&#xed;" horiz-adv-x="350" d="M4 27v800q0 12 8.5 20.5t20.5 8.5q11 0 18.5 -8.5t7.5 -20.5v-800q0 -11 -8 -19t-18 -8q-12 0 -20.5 8t-8.5 19zM9.5 1004.5q-3.5 13.5 2.5 23.5q2 4 115 199q6 11 19.5 14.5t25.5 -2.5q11 -8 14 -21t-4 -24l-112 -197q-8 -12 -20.5 -15.5t-24.5 3.5q-12 6 -15.5 19.5z " />
<glyph unicode="&#xee;" horiz-adv-x="729" d="M7.5 950q0.5 11 8.5 17l189 161q22 19 51 19t51 -19l189 -161q8 -6 8.5 -17t-6.5 -20q-6 -8 -17.5 -8.5t-19.5 6.5l-205 174l-205 -174q-8 -7 -18.5 -6.5t-18.5 8.5q-7 9 -6.5 20zM225 27v800q0 12 8.5 20.5t20.5 8.5q11 0 19 -8.5t8 -20.5v-800q0 -11 -8.5 -19t-18.5 -8 q-12 0 -20.5 8t-8.5 19z" />
<glyph unicode="&#xef;" horiz-adv-x="692" d="M2 1038q0 25 17 42.5t42 17.5t42.5 -17.5t17.5 -42.5t-17.5 -42t-42.5 -17t-42 17t-17 42zM182 27v800q0 12 8.5 20.5t20.5 8.5q11 0 19 -8.5t8 -20.5v-800q0 -11 -8 -19t-19 -8q-12 0 -20.5 8t-8.5 19zM301 1038q0 25 17 42.5t42 17.5t42.5 -17.5t17.5 -42.5t-17.5 -42 t-42.5 -17t-42 17t-17 42z" />
<glyph unicode="&#xf0;" horiz-adv-x="1040" d="M0 369q0 151 109 259.5t260 108.5h49q148 0 256 -108l57 -58l-12 78q-27 164 -148 285v2q-148 145 -348 154h-8q-12 0 -20.5 8t-8.5 20q0 11 8.5 19t20.5 8h-18q117 0 223 -44t190 -126v-2q82 -82 126 -188.5t44 -223.5v-192q0 -152 -108.5 -260.5t-259.5 -108.5h-43 q-151 0 -260 109t-109 260zM55 369q0 -129 92.5 -221.5t221.5 -92.5h43q128 0 221.5 92t93.5 222t-93.5 221.5t-221.5 91.5h-25h-18q-129 0 -221.5 -92t-92.5 -221zM357.5 943.5q-3.5 13.5 2.5 23.5q2 4 4.5 8t10 17t17.5 30.5t32.5 56t50.5 86.5q6 11 19.5 15t25.5 -2 q11 -8 14 -21t-4 -24l-112 -197q-8 -12 -20.5 -15.5t-24.5 3.5q-12 6 -15.5 19.5z" />
<glyph unicode="&#xf1;" horiz-adv-x="1087" d="M0 29v487q3 143 106.5 246.5t247.5 103.5h158q143 0 248.5 -104.5t105.5 -245.5v-2v-485q0 -12 -8 -20.5t-20 -8.5q-11 0 -19 8.5t-8 20.5v483q0 122 -89 210.5t-210 88.5h-158q-120 0 -208 -87t-91 -206v-489q0 -12 -7.5 -20.5t-18.5 -8.5q-12 0 -20.5 8.5t-8.5 20.5z M147 1059q0 28 51.5 40.5t102.5 12.5q46 0 133.5 -28.5t134.5 -28.5q21 0 62.5 12t60.5 12q13 0 21 -8.5t8 -19.5q0 -24 -19 -27q-64 -27 -135 -27q-47 0 -134.5 29t-133.5 29q-53 0 -111 -23h-2q-4 -2 -10 -2q-13 0 -21 8.5t-8 20.5z" />
<glyph unicode="&#xf2;" d="M0 354v158q0 145 104.5 249.5t249.5 104.5h158q145 0 249.5 -104.5t104.5 -249.5v-158q0 -145 -104.5 -249.5t-249.5 -104.5h-158q-145 0 -249.5 104.5t-104.5 249.5zM55 354q0 -120 89 -209.5t210 -89.5h158q122 0 210.5 88.5t88.5 210.5v158q0 122 -89 210.5t-210 88.5 h-158q-120 0 -209.5 -88t-89.5 -211v-158zM334 1218q3 13 14 21q12 6 25.5 2.5t19.5 -14.5q113 -195 115 -199q6 -10 3 -23.5t-15 -19.5q-12 -7 -24.5 -3.5t-20.5 15.5l-113 197q-7 11 -4 24z" />
<glyph unicode="&#xf3;" d="M0 354v158q0 145 104.5 249.5t249.5 104.5h158q145 0 249.5 -104.5t104.5 -249.5v-158q0 -145 -104.5 -249.5t-249.5 -104.5h-158q-145 0 -249.5 104.5t-104.5 249.5zM55 354q0 -120 89 -209.5t210 -89.5h158q122 0 210.5 88.5t88.5 210.5v158q0 122 -89 210.5t-210 88.5 h-158q-120 0 -209.5 -88t-89.5 -211v-158zM335 1004.5q-3 13.5 3 23.5q2 4 115 199q6 11 19.5 14.5t25.5 -2.5q11 -8 14 -21t-4 -24l-113 -197q-8 -12 -20.5 -15.5t-24.5 3.5q-12 6 -15 19.5z" />
<glyph unicode="&#xf4;" d="M18 354v158q0 145 105 249.5t250 104.5h157q145 0 250 -104.5t105 -249.5v-158q0 -145 -105 -249.5t-250 -104.5h-157q-145 0 -250 104.5t-105 249.5zM74 354q0 -120 89 -209.5t210 -89.5h157q122 0 210.5 88.5t88.5 210.5v158q0 122 -89 210.5t-210 88.5h-157 q-120 0 -209.5 -88t-89.5 -211v-158zM206.5 950q0.5 11 8.5 17l188 161q22 19 52 19q29 0 51 -19l188 -161q8 -6 8.5 -17t-6.5 -20q-6 -8 -17.5 -8.5t-19.5 6.5l-204 174l-205 -174q-8 -7 -18.5 -6.5t-18.5 8.5q-7 9 -6.5 20z" />
<glyph unicode="&#xf5;" d="M0 354v158q0 145 104.5 249.5t249.5 104.5h158q145 0 249.5 -104.5t104.5 -249.5v-158q0 -145 -104.5 -249.5t-249.5 -104.5h-158q-145 0 -249.5 104.5t-104.5 249.5zM55 354q0 -120 89 -209.5t210 -89.5h158q122 0 210.5 88.5t88.5 210.5v158q0 122 -89 210.5t-210 88.5 h-158q-120 0 -209.5 -88t-89.5 -211v-158zM141 1059q0 28 51.5 40.5t102.5 12.5q46 0 133.5 -28.5t134.5 -28.5q21 0 62.5 12t60.5 12q13 0 21 -8.5t8 -19.5q0 -24 -19 -27q-64 -27 -135 -27q-47 0 -134.5 29t-133.5 29q-54 0 -111 -23h-2q-4 -2 -10 -2q-13 0 -21 8.5 t-8 20.5z" />
<glyph unicode="&#xf6;" d="M0 354v158q0 145 104.5 249.5t249.5 104.5h158q145 0 249.5 -104.5t104.5 -249.5v-158q0 -145 -104.5 -249.5t-249.5 -104.5h-158q-145 0 -249.5 104.5t-104.5 249.5zM55 354q0 -120 89 -209.5t210 -89.5h158q122 0 210.5 88.5t88.5 210.5v158q0 122 -89 210.5t-210 88.5 h-158q-120 0 -209.5 -88t-89.5 -211v-158zM219 1038q0 25 17.5 42.5t42.5 17.5t42 -17.5t17 -42.5t-17 -42t-42 -17t-42.5 17t-17.5 42zM518 1038q0 25 17.5 42.5t42.5 17.5t42 -17.5t17 -42.5t-17 -42t-42 -17t-42.5 17t-17.5 42z" />
<glyph unicode="&#xf7;" horiz-adv-x="1173" d="M0 459q0 12 8.5 20t20.5 8h862q12 0 20.5 -8t8.5 -20q0 -11 -8.5 -19t-20.5 -8h-862q-12 0 -20.5 8t-8.5 19zM403 55q0 23 17 39.5t39 16.5q23 0 39 -16.5t16 -39.5t-16 -39t-39 -16q-22 0 -39 16t-17 39zM403 864q0 23 17 39.5t39 16.5q23 0 39 -16.5t16 -39.5t-16 -39 t-39 -16q-22 0 -39 16t-17 39z" />
<glyph unicode="&#xf8;" d="M0 354v158q0 145 104.5 249.5t249.5 104.5h158q121 0 213 -71l16 -13l50 47q9 9 18 9q12 0 20.5 -8.5t8.5 -20.5q0 -9 -9 -18l-47 -50l13 -16q71 -92 71 -213v-158q0 -145 -104.5 -249.5t-249.5 -104.5h-158q-120 0 -213 72l-16 12l-49 -47q-8 -8 -21 -8q-11 0 -18.5 7.5 t-7.5 18.5q0 13 8 21l47 49l-12 16q-72 93 -72 213zM55 354q0 -88 51 -164l17 -26l579 579l-26 17q-73 51 -164 51h-158q-120 0 -209.5 -88t-89.5 -211v-158zM164 123l26 -17q85 -54 164 -51h158q122 0 210.5 88.5t88.5 210.5v158q0 83 -51 164l-17 26z" />
<glyph unicode="&#xf9;" horiz-adv-x="1019" d="M0 350v2v486q0 12 8.5 20t20.5 8q11 0 18.5 -8t7.5 -20v-488q3 -122 91.5 -208.5t207.5 -86.5h74q122 0 210.5 88.5t88.5 210.5v484q0 12 8 20t19 8q12 0 20 -8t8 -20v-488q-3 -143 -106.5 -246.5t-247.5 -103.5h-74q-144 0 -247.5 103.5t-106.5 246.5zM291 1218 q3 13 14 21q12 6 25.5 2.5t19.5 -14.5q113 -195 115 -199q6 -10 3 -23.5t-15 -19.5q-12 -7 -24.5 -3.5t-20.5 15.5l-113 197q-7 11 -4 24z" />
<glyph unicode="&#xfa;" horiz-adv-x="1019" d="M0 350v2v486q0 12 8.5 20t20.5 8q11 0 18.5 -8t7.5 -20v-488q3 -122 91.5 -208.5t207.5 -86.5h74q122 0 210.5 88.5t88.5 210.5v484q0 12 8 20t19 8q12 0 20 -8t8 -20v-488q-3 -143 -106.5 -246.5t-247.5 -103.5h-74q-144 0 -247.5 103.5t-106.5 246.5zM314.5 1004.5 q-3.5 13.5 2.5 23.5q2 4 115 199q6 11 19.5 14.5t25.5 -2.5q11 -8 14 -21t-4 -24l-112 -197q-8 -12 -20.5 -15.5t-24.5 3.5q-12 6 -15.5 19.5z" />
<glyph unicode="&#xfb;" horiz-adv-x="1019" d="M53 350v2v486q0 12 8.5 20t20.5 8q11 0 19 -8t8 -20v-488q3 -122 91.5 -208.5t207.5 -86.5h73q121 0 210 88.5t89 210.5v484q0 12 8 20t19 8q12 0 20.5 -8t8.5 -20v-488q-3 -143 -107 -246.5t-248 -103.5h-73q-144 0 -248 103.5t-107 246.5zM208.5 950q0.5 11 8.5 17 l189 161q22 19 51 19t51 -19l188 -161q8 -6 8.5 -17t-6.5 -20q-6 -8 -17 -8.5t-19 6.5l-205 174l-205 -174q-8 -7 -18.5 -6.5t-18.5 8.5q-7 9 -6.5 20z" />
<glyph unicode="&#xfc;" horiz-adv-x="1019" d="M0 350v2v486q0 12 8.5 20t20.5 8q11 0 18.5 -8t7.5 -20v-488q3 -122 91.5 -208.5t207.5 -86.5h74q122 0 210.5 88.5t88.5 210.5v484q0 12 8 20t19 8q12 0 20 -8t8 -20v-488q-3 -143 -106.5 -246.5t-247.5 -103.5h-74q-144 0 -247.5 103.5t-106.5 246.5zM203 1038 q0 25 17 42.5t42 17.5t42.5 -17.5t17.5 -42.5t-17.5 -42t-42.5 -17t-42 17t-17 42zM502 1038q0 25 17 42.5t42 17.5t42.5 -17.5t17.5 -42.5t-17.5 -42t-42.5 -17t-42 17t-17 42z" />
<glyph unicode="&#xfd;" horiz-adv-x="950" d="M0 518v322q0 10 8 18t19 8q12 0 20 -7.5t8 -18.5v-322q0 -120 86.5 -206.5t206.5 -86.5t206.5 86.5t86.5 206.5v324l2 2v4l2 4l2 2l2 4l4 4l4 2l5 2h4h4h4h4l2 -2l4 -2l2 -2l2 -2l2 -2l2 -4l2 -2l2 -2v-4v-4v-889q0 -141 -103.5 -244.5t-244.5 -103.5h-78q-10 0 -18 7.5 t-8 18.5q0 12 7.5 20.5t18.5 8.5h78q120 0 206.5 86.5t86.5 206.5v368l-47 -47q-102 -102 -246 -102q-141 0 -244.5 103.5t-103.5 244.5zM261 1004.5q-3 13.5 3 23.5q2 4 115 199q6 11 19.5 14.5t25.5 -2.5q11 -8 14 -21t-4 -24l-112 -197q-8 -12 -21 -15.5t-25 3.5 q-12 6 -15 19.5z" />
<glyph unicode="&#xfe;" horiz-adv-x="1142" d="M0 -268v1403q0 11 8.5 18.5t20.5 7.5q11 0 18.5 -7.5t7.5 -18.5v-422l49 49q104 104 250 104h158q145 0 249.5 -104.5t104.5 -249.5v-158q0 -145 -104.5 -249.5t-249.5 -104.5h-158q-149 0 -250 104l-49 50v-422q0 -11 -8 -19t-18 -8q-12 0 -20.5 8t-8.5 19zM55 350 q3 -121 91 -208t208 -87h158q122 0 210.5 88.5t88.5 210.5v158q0 122 -88.5 210.5t-210.5 88.5h-158q-121 0 -208.5 -87t-90.5 -206v-168z" />
<glyph unicode="&#xff;" horiz-adv-x="950" d="M0 518v322q0 10 8 18t19 8q12 0 20 -7.5t8 -18.5v-322q0 -120 86.5 -206.5t206.5 -86.5t206.5 86.5t86.5 206.5v324l2 2v4l2 4l2 2l2 4l4 4l4 2l5 2h4h4h4h4l2 -2l4 -2l2 -2l2 -2l2 -2l2 -4l2 -2l2 -2v-4v-4v-889q0 -141 -103.5 -244.5t-244.5 -103.5h-78q-10 0 -18 7.5 t-8 18.5q0 12 7.5 20.5t18.5 8.5h78q120 0 206.5 86.5t86.5 206.5v368l-47 -47q-102 -102 -246 -102q-141 0 -244.5 103.5t-103.5 244.5zM141 1038q0 25 17.5 42.5t42.5 17.5t42 -17.5t17 -42.5t-17 -42t-42 -17t-42.5 17t-17.5 42zM440 1038q0 25 17.5 42.5t42.5 17.5 t42 -17.5t17 -42.5t-17 -42t-42 -17t-42.5 17t-17.5 42z" />
<glyph unicode="&#x152;" horiz-adv-x="1777" d="M0 481v183q0 196 141.5 338.5t339.5 142.5q135 0 249.5 -70t180.5 -192l23 -45l22 45q59 120 176.5 191t251.5 71h132q12 0 20 -8t8 -19q0 -12 -8 -20t-20 -8h-132q-159 0 -281 -107.5t-142 -269.5v-6q2 -14 2 -43v-64h454q11 0 19 -8.5t8 -20.5q0 -10 -8 -18t-19 -8 h-454v-64q0 -29 -2 -43v-6q20 -163 141.5 -270t281.5 -107h132q12 0 20 -8t8 -20q0 -11 -8 -19t-20 -8h-132q-134 0 -251.5 71t-176.5 191l-22 45l-23 -45q-66 -123 -180.5 -192.5t-249.5 -69.5q-198 0 -339.5 142.5t-141.5 338.5zM55 481q0 -175 125.5 -300.5t300.5 -125.5 q179 0 301 125h2q106 106 121 252v6q-2 14 -2 43v183q0 29 2 43v6q-15 146 -121 252h-2q-122 125 -301 125q-175 0 -300.5 -125.5t-125.5 -300.5v-183z" />
<glyph unicode="&#x153;" horiz-adv-x="1554" d="M0 354v158q0 145 104.5 249.5t249.5 104.5q92 0 175.5 -46t129.5 -126l23 -39l23 39q47 81 129 126.5t174 45.5q145 0 250.5 -104t105.5 -250v-143q0 -22 -14.5 -37t-36.5 -15h-615l37 -84q41 -84 113.5 -131t159.5 -47h223q12 0 20.5 -7.5t8.5 -18.5q0 -12 -8.5 -20.5 t-20.5 -8.5h-223q-92 0 -174 45.5t-129 126.5l-23 39l-23 -39q-46 -80 -129.5 -126t-175.5 -46q-145 0 -249.5 104.5t-104.5 249.5zM55 354q0 -120 89 -209.5t210 -89.5q123 0 211 89t88 210v158q0 121 -88 210t-211 89q-120 0 -209.5 -88t-89.5 -211v-158zM711 373h596v139 q0 123 -88 211t-211 88q-122 0 -209.5 -88t-87.5 -211v-139z" />
<glyph unicode="&#x178;" horiz-adv-x="1173" d="M0 807v311q0 10 8 18.5t19 8.5q12 0 20 -8t8 -19v-311q0 -174 125 -301t301 -127h25q176 0 301 127t125 301v311q0 11 8.5 19t20.5 8q10 0 18 -8t8 -19v-311q0 -199 -141 -340v-2q-124 -124 -301 -139l-25 -2v-297q0 -11 -8 -19t-18 -8t-18.5 8t-8.5 19v297l-25 2 q-185 17 -313.5 156.5t-128.5 324.5zM285 1346q0 25 17 42t42 17t42 -17t17 -42t-17 -42.5t-42 -17.5t-42 17.5t-17 42.5zM584 1346q0 25 17 42t42 17t42 -17t17 -42t-17 -42.5t-42 -17.5t-42 17.5t-17 42.5z" />
<glyph unicode="&#x2c6;" horiz-adv-x="681" d="M3.5 950q0.5 11 8.5 17l189 161q22 19 51 19t51 -19l189 -161q8 -6 8.5 -17t-6.5 -20q-6 -8 -17.5 -8.5t-19.5 6.5l-205 174l-205 -174q-8 -7 -18.5 -6.5t-18.5 8.5q-7 9 -6.5 20z" />
<glyph unicode="&#x2dc;" horiz-adv-x="851" d="M106 1059q0 28 51.5 40.5t102.5 12.5q46 0 133.5 -28.5t134.5 -28.5q21 0 62.5 12t60.5 12q13 0 21 -8.5t8 -19.5q0 -24 -18 -27q-65 -27 -136 -27q-47 0 -134.5 29t-133.5 29q-53 0 -111 -23h-2q-4 -2 -10 -2q-13 0 -21 8.5t-8 20.5z" />
<glyph unicode="&#x2000;" horiz-adv-x="764" />
<glyph unicode="&#x2001;" horiz-adv-x="1529" />
<glyph unicode="&#x2002;" horiz-adv-x="764" />
<glyph unicode="&#x2003;" horiz-adv-x="1529" />
<glyph unicode="&#x2004;" horiz-adv-x="509" />
<glyph unicode="&#x2005;" horiz-adv-x="382" />
<glyph unicode="&#x2006;" horiz-adv-x="254" />
<glyph unicode="&#x2007;" horiz-adv-x="254" />
<glyph unicode="&#x2008;" horiz-adv-x="191" />
<glyph unicode="&#x2009;" horiz-adv-x="305" />
<glyph unicode="&#x200a;" horiz-adv-x="84" />
<glyph unicode="&#x2010;" horiz-adv-x="1021" d="M0 459q0 12 8.5 20t20.5 8h862q12 0 20.5 -8t8.5 -20q0 -11 -8.5 -19t-20.5 -8h-862q-12 0 -20.5 8t-8.5 19z" />
<glyph unicode="&#x2011;" horiz-adv-x="1021" d="M0 459q0 12 8.5 20t20.5 8h862q12 0 20.5 -8t8.5 -20q0 -11 -8.5 -19t-20.5 -8h-862q-12 0 -20.5 8t-8.5 19z" />
<glyph unicode="&#x2012;" horiz-adv-x="1021" d="M0 459q0 12 8.5 20t20.5 8h862q12 0 20.5 -8t8.5 -20q0 -11 -8.5 -19t-20.5 -8h-862q-12 0 -20.5 8t-8.5 19z" />
<glyph unicode="&#x2013;" horiz-adv-x="927" d="M0 459q0 12 8.5 20t20.5 8h669q12 0 20.5 -8t8.5 -20q0 -11 -8.5 -19t-20.5 -8h-669q-12 0 -20.5 8t-8.5 19z" />
<glyph unicode="&#x2014;" horiz-adv-x="1337" d="M0 459q0 12 8.5 20t20.5 8h1038q12 0 20.5 -8t8.5 -20q0 -11 -8.5 -19t-20.5 -8h-1038q-12 0 -20.5 8t-8.5 19z" />
<glyph unicode="&#x2018;" horiz-adv-x="393" d="M4 1218q3 13 14 21q12 6 25.5 2.5t19.5 -14.5q113 -195 115 -199q6 -10 3 -23.5t-15 -19.5q-12 -7 -24.5 -3.5t-20.5 15.5l-113 197q-7 11 -4 24z" />
<glyph unicode="&#x2019;" horiz-adv-x="415" d="M5 1004.5q-3 13.5 3 23.5q2 4 115 199q6 11 19.5 14.5t25.5 -2.5q11 -8 14 -21t-4 -24l-112 -197q-8 -12 -21 -15.5t-25 3.5q-12 6 -15 19.5z" />
<glyph unicode="&#x201a;" horiz-adv-x="376" d="M5 -84.5q-3 13.5 3 25.5q5 7 115 196q6 12 19.5 15.5t23.5 -2.5q12 -8 15.5 -21t-3.5 -25l-112 -196q-7 -12 -21.5 -15t-24.5 3q-12 6 -15 19.5z" />
<glyph unicode="&#x201c;" horiz-adv-x="628" d="M6 1218q3 13 14 21q12 6 26 2.5t20 -14.5q106 -182 114 -199q6 -10 3 -23.5t-15 -19.5q-12 -7 -24.5 -3.5t-20.5 15.5l-113 197q-7 11 -4 24zM160 1218q3 13 14 21q12 6 25.5 2.5t19.5 -14.5q113 -195 115 -199q6 -10 3 -23.5t-15 -19.5q-12 -7 -25 -3.5t-21 15.5 l-112 197q-7 11 -4 24z" />
<glyph unicode="&#x201d;" horiz-adv-x="612" d="M5 1004.5q-3 13.5 3 23.5q2 4 115 199q6 11 19.5 14.5t25.5 -2.5q11 -8 14 -21t-4 -24l-112 -197q-8 -12 -21 -15.5t-25 3.5q-12 6 -15 19.5zM159 1004.5q-3 13.5 3 23.5q8 17 114 199q6 11 20 14.5t26 -2.5q11 -8 14 -21t-4 -24l-113 -197q-8 -12 -20.5 -15.5t-24.5 3.5 q-12 6 -15 19.5z" />
<glyph unicode="&#x201e;" horiz-adv-x="534" d="M5 -84.5q-3 13.5 3 25.5q5 7 115 196q6 12 19.5 15.5t23.5 -2.5q12 -8 15.5 -21t-3.5 -25l-112 -196q-7 -12 -21.5 -15t-24.5 3q-12 6 -15 19.5zM165 -84.5q-3 13.5 3 25.5q5 7 115 196q6 12 19.5 15.5t23.5 -2.5q12 -8 15.5 -21t-3.5 -25l-113 -196q-7 -12 -21 -15 t-24 3q-12 6 -15 19.5z" />
<glyph unicode="&#x2022;" horiz-adv-x="731" d="M0 631q0 102 71.5 175t170.5 73q103 0 175 -72.5t72 -175.5q0 -99 -72.5 -170.5t-174.5 -71.5q-98 0 -170 72t-72 170z" />
<glyph unicode="&#x2026;" horiz-adv-x="1161" d="M0 55q0 23 16 39.5t39 16.5t39.5 -16.5t16.5 -39.5t-16.5 -39t-39.5 -16t-39 16t-16 39zM291 55q0 23 16 39.5t39 16.5t39 -16.5t16 -39.5t-16 -39t-39 -16t-39 16t-16 39zM582 55q0 23 16 39.5t39 16.5t39 -16.5t16 -39.5t-16 -39t-39 -16t-39 16t-16 39z" />
<glyph unicode="&#x202f;" horiz-adv-x="305" />
<glyph unicode="&#x2039;" horiz-adv-x="534" d="M-6 575q0 28 18 50l224 262q8 8 20 8q10 0 17.5 -8t7.5 -17q0 -8 -7 -18l-235 -277l235 -276q7 -11 7 -18q0 -11 -7.5 -18t-17.5 -7q-12 0 -20 8l-224 262q-18 22 -18 49z" />
<glyph unicode="&#x203a;" horiz-adv-x="530" d="M-6 281q0 9 6 18l236 276l-236 277q-6 9 -6 18t7 17t17 8q13 0 21 -8l223 -262q19 -23 19 -50q0 -26 -19 -49l-223 -262q-8 -8 -21 -8q-10 0 -17 7t-7 18z" />
<glyph unicode="&#x205f;" horiz-adv-x="382" />
<glyph unicode="&#x20ac;" horiz-adv-x="1204" d="M-20 471q0 11 8 19t18 8h129v149h-104h-25q-10 0 -18 8t-8 19q0 12 7.5 20t18.5 8h131l2 23q25 180 161.5 300t315.5 120h281q11 0 19 -8.5t8 -18.5q0 -12 -8 -20t-19 -8h-281q-154 0 -275.5 -102.5t-143.5 -256.5l-7 -29h265q11 0 18.5 -8t7.5 -20q0 -11 -8 -19t-18 -8 h-265v-149h265q10 0 18 -8t8 -19q0 -12 -7.5 -20.5t-18.5 -8.5h-265l7 -28q22 -154 143.5 -256.5t275.5 -102.5h281q11 0 19 -8t8 -20q0 -11 -8 -19t-19 -8h-281q-179 0 -315.5 120t-161.5 300l-2 22h-131q-11 0 -18.5 8.5t-7.5 20.5z" />
<glyph unicode="&#x2122;" horiz-adv-x="1306" d="M0 1120q0 10 8 17.5t17 7.5h415q10 0 17.5 -7.5t7.5 -17.5q0 -11 -7.5 -18.5t-17.5 -7.5h-182v-453q0 -11 -7.5 -19t-17.5 -8t-18 8t-8 19v453h-182q-9 0 -17 8t-8 18zM461 641l65 459q7 34 45 45q44 0 58 -35l170 -455l170 455q11 35 55 35q41 -10 47 -45l64 -459v-4 q0 -8 -8 -15.5t-19 -7.5q-8 0 -15 6t-8 15l-65 473l-172 -459q-14 -35 -49 -35q-39 0 -51 35l-173 459l-65 -473q-4 -21 -25 -21q-10 0 -17 8.5t-7 18.5z" />
<glyph unicode="&#x25fc;" horiz-adv-x="870" d="M0 0v870h870v-870h-870z" />
</font>
</defs>
</svg>
