<?xml version="1.0" encoding="utf-8"?>
<!-- Generator: Adobe Illustrator 16.0.0, SVG Export Plug-In . SVG Version: 6.00 Build 0)  -->
<!DOCTYPE svg PUBLIC "-//W3C//DTD SVG 1.1//EN" "http://www.w3.org/Graphics/SVG/1.1/DTD/svg11.dtd">
<svg version="1.1" xmlns="http://www.w3.org/2000/svg" xmlns:xlink="http://www.w3.org/1999/xlink" x="0px" y="0px"
	 width="48.438px" height="43px" viewBox="0 0 48.438 43" enable-background="new 0 0 48.438 43" xml:space="preserve">
<pattern  width="48.441" height="43.246" patternUnits="userSpaceOnUse" id="New_Tri_Pattern_-_1" viewBox="16.219 -43.246 48.441 43.246" overflow="visible">
	<g>
		<polygon fill="none" points="16.219,-43.246 64.66,-43.246 64.66,0 16.219,0 		"/>
		<g>
			<g id="a_89_">
				<g id="mask_a1_89_">
					<path id="a1_m_89_" d="M69.139-3.878c-0.541,0.909-1.168,1.906-1.72,2.841h13.464c-3.398-5.887-6.746-11.675-10.156-17.586
						C67.342-12.697,64.02-6.888,60.66-1h3.422c2.214-3.878,4.386-7.626,6.689-11.657c1.786,3.096,3.355,5.755,5.105,8.774
						C73.486-3.883,71.404-3.878,69.139-3.878z"/>
				</g>
			</g>
			<g id="a_88_">
				<g id="mask_a1_88_">
					<path id="a1_m_88_" d="M72.404-39.368c0.541-0.909,1.168-1.906,1.72-2.841H60.66c3.398,5.887,6.746,11.675,10.156,17.586
						c3.385-5.926,6.707-11.735,10.066-17.623h-3.422c-2.214,3.878-4.386,7.626-6.689,11.657c-1.786-3.096-3.355-5.755-5.105-8.774
						C68.057-39.363,70.139-39.368,72.404-39.368z"/>
				</g>
			</g>
		</g>
		<g>
			<g id="a_86_">
				<g id="mask_a1_86_">
					<path id="a1_m_86_" d="M48.186-3.877c0.543,0.91,1.169,1.906,1.722,2.84H36.442C39.841-6.923,43.189-12.71,46.6-18.623
						C49.984-12.697,53.307-6.888,56.66-1h-3.416c-2.214-3.877-4.387-7.626-6.688-11.656c-1.788,3.095-3.357,5.755-5.108,8.775
						C43.839-3.881,45.92-3.877,48.186-3.877z"/>
				</g>
			</g>
			<g id="a_85_">
				<g id="mask_a1_85_">
					<path id="a1_m_85_" d="M35.997-17.745c0.543-0.91,1.169-1.905,1.722-2.841H24.253C27.651-14.699,31-8.912,34.409-3
						c3.387-5.925,6.709-11.735,10.062-17.623h-3.416c-2.216,3.878-4.388,7.627-6.69,11.657c-1.786-3.096-3.357-5.756-5.107-8.775
						C31.651-17.741,33.731-17.745,35.997-17.745z"/>
				</g>
			</g>
			<g id="a_83_">
				<g id="mask_a1_83_">
					<path id="a1_m_83_" d="M20.698-3.878c-0.542,0.909-1.168,1.906-1.72,2.841h13.464c-3.398-5.887-6.747-11.675-10.157-17.586
						C18.9-12.697,15.578-6.888,12.219-1h3.422c2.214-3.878,4.386-7.626,6.689-11.657c1.786,3.096,3.356,5.755,5.106,8.774
						C25.044-3.883,22.963-3.878,20.698-3.878z"/>
				</g>
			</g>
			<g id="a_82_">
				<g id="mask_a1_82_">
					<path id="a1_m_82_" d="M44.916-39.369c-0.543-0.91-1.169-1.906-1.722-2.84h13.465c-3.398,5.886-6.747,11.673-10.157,17.586
						c-3.385-5.926-6.707-11.735-10.061-17.623h3.416c2.214,3.877,4.387,7.626,6.688,11.656c1.788-3.095,3.357-5.755,5.108-8.775
						C49.263-39.365,47.182-39.369,44.916-39.369z"/>
				</g>
			</g>
			<g id="a_81_">
				<g id="mask_a1_81_">
					<path id="a1_m_81_" d="M35.997-25.501c0.543,0.91,1.169,1.905,1.722,2.841H24.253C27.651-28.547,31-34.334,34.409-40.246
						c3.387,5.925,6.709,11.735,10.062,17.623h-3.416c-2.216-3.878-4.388-7.627-6.69-11.657c-1.786,3.096-3.357,5.756-5.107,8.775
						C31.651-25.505,33.731-25.501,35.997-25.501z"/>
				</g>
			</g>
			<g id="a_80_">
				<g id="mask_a1_80_">
					<path id="a1_m_80_" d="M23.962-39.368c0.542-0.909,1.168-1.906,1.72-2.841H12.219c3.398,5.887,6.747,11.675,10.157,17.586
						c3.384-5.926,6.707-11.735,10.066-17.623H29.02c-2.214,3.878-4.386,7.626-6.689,11.657c-1.786-3.096-3.356-5.755-5.106-8.774
						C19.616-39.363,21.697-39.368,23.962-39.368z"/>
				</g>
			</g>
			<g id="a_79_">
				<g id="mask_a1_79_">
					<path id="a1_m_79_" d="M56.916-17.745c-0.543-0.91-1.169-1.905-1.722-2.841H68.66C65.262-14.699,61.914-8.912,58.504-3
						c-3.387-5.925-6.709-11.735-10.062-17.623h3.416c2.216,3.878,4.388,7.627,6.69,11.657c1.786-3.096,3.357-5.756,5.107-8.775
						C61.262-17.741,59.182-17.745,56.916-17.745z"/>
				</g>
			</g>
			<g id="a_78_">
				<g id="mask_a1_78_">
					<path id="a1_m_78_" d="M56.916-25.501c-0.543,0.91-1.169,1.905-1.722,2.841H68.66c-3.398-5.887-6.746-11.674-10.156-17.586
						c-3.387,5.925-6.709,11.735-10.062,17.623h3.416c2.216-3.878,4.388-7.627,6.69-11.657c1.786,3.096,3.357,5.756,5.107,8.775
						C61.262-25.505,59.182-25.501,56.916-25.501z"/>
				</g>
			</g>
		</g>
		<g>
			<g id="a_75_">
				<g id="mask_a1_75_">
					<path id="a1_m_75_" d="M8.475-17.745c-0.543-0.91-1.169-1.905-1.722-2.841h13.466C16.82-14.699,13.473-8.912,10.062-3
						C6.676-8.925,3.354-14.735,0-20.623h3.416c2.216,3.878,4.388,7.627,6.69,11.657c1.786-3.096,3.357-5.756,5.107-8.775
						C12.82-17.741,10.74-17.745,8.475-17.745z"/>
				</g>
			</g>
			<g id="a_72_">
				<g id="mask_a1_72_">
					<path id="a1_m_72_" d="M8.475-25.501c-0.543,0.91-1.169,1.905-1.722,2.841h13.466c-3.398-5.887-6.746-11.674-10.156-17.586
						C6.676-34.321,3.354-28.511,0-22.623h3.416c2.216-3.878,4.388-7.627,6.69-11.657c1.786,3.096,3.357,5.756,5.107,8.775
						C12.82-25.505,10.74-25.501,8.475-25.501z"/>
				</g>
			</g>
		</g>
	</g>
</pattern>
<g id="Layer_1" display="none">
	<g id="a" display="inline">
		<g id="mask_a1">
			<path id="a1_m" d="M31.926,51.727c-0.623,1.046-1.342,2.189-1.977,3.262h15.463c-3.902-6.76-7.748-13.397-11.664-20.187
				c-3.888,6.806-7.704,13.469-11.562,20.23h3.931c2.543-4.453,5.038-8.754,7.683-13.377c2.052,3.554,3.855,6.6,5.865,10.068
				C36.917,51.722,34.528,51.727,31.926,51.727z"/>
		</g>
	</g>
	<g id="a_1_" display="inline">
		<g id="mask_a1_1_">
			<path id="a1_m_1_" d="M15.675,38.106c-0.623-1.045-1.342-2.189-1.977-3.263h15.464c-3.902,6.762-7.749,13.399-11.665,20.188
				c-3.888-6.806-7.704-13.468-11.562-20.23h3.93c2.544,4.454,5.039,8.759,7.683,13.377c2.052-3.544,3.856-6.6,5.866-10.068
				C20.667,38.111,18.277,38.106,15.675,38.106z"/>
		</g>
	</g>
	<g id="a_2_" display="inline">
		<g id="mask_a1_2_">
			<path id="a1_m_2_" d="M51.925,38.106c0.623-1.045,1.341-2.189,1.977-3.263H38.437c3.902,6.762,7.748,13.399,11.665,20.188
				c3.888-6.806,7.704-13.468,11.555-20.23h-3.924c-2.543,4.454-5.037,8.759-7.682,13.377c-2.053-3.544-3.856-6.6-5.865-10.068
				C46.932,38.111,49.322,38.106,51.925,38.106z"/>
		</g>
	</g>
	<g id="a_5_" display="inline">
		<g id="mask_a1_5_">
			<path id="a1_m_5_" d="M35.667,13.727c0.623-1.045,1.342-2.189,1.976-3.263H22.18c3.902,6.761,7.748,13.408,11.665,20.197
				c3.888-6.805,7.704-13.478,11.562-20.238h-3.93c-2.544,4.453-5.039,8.759-7.684,13.387c-2.051-3.555-3.855-6.609-5.864-10.078
				c2.703,0,5.062-0.005,7.616-0.005C35.585,13.727,35.626,13.727,35.667,13.727z"/>
		</g>
	</g>
	<g id="a_4_" display="inline">
		<g id="mask_a1_4_">
			<path id="a1_m_4_" d="M51.918,27.357c0.623,1.045,1.341,2.188,1.977,3.262H38.43c3.902-6.761,7.748-13.407,11.665-20.196
				c3.888,6.805,7.704,13.478,11.562,20.238h-3.931c-2.543-4.452-5.037-8.758-7.683-13.386c-2.051,3.554-3.854,6.609-5.864,10.077
				C46.925,27.352,49.315,27.357,51.918,27.357z"/>
		</g>
	</g>
	<g id="a_3_" display="inline">
		<g id="mask_a1_3_">
			<path id="a1_m_3_" d="M15.668,27.357c-0.623,1.045-1.342,2.188-1.977,3.262h15.464c-3.902-6.761-7.748-13.407-11.664-20.196
				C13.603,17.228,9.787,23.9,5.936,30.661h3.923c2.544-4.452,5.039-8.758,7.683-13.386c2.052,3.554,3.855,6.609,5.866,10.077
				C20.66,27.352,18.271,27.357,15.668,27.357z"/>
		</g>
	</g>
	<rect x="88.323" display="inline" fill="#FCFCFC" width="23.17" height="78.918"/>
	<rect x="-23.17" y="-5.416" display="inline" fill="#FCFCFC" width="23.17" height="78.919"/>
</g>
<g id="Layer_2" display="none">
	<g id="a_7_" display="inline">
		<g id="mask_a1_7_">
			<path id="a1_m_7_" d="M-10.738,25.991c0.623,1.045,1.341,2.188,1.977,3.262h-15.464c3.902-6.761,7.748-13.407,11.665-20.196
				C-8.674,15.862-4.857,22.534-1,29.295h-3.931c-2.543-4.452-5.037-8.758-7.683-13.386c-2.051,3.554-3.854,6.609-5.864,10.077
				C-15.731,25.986-13.341,25.991-10.738,25.991z"/>
		</g>
	</g>
	<g id="a_6_" display="inline">
		<g id="mask_a1_6_">
			<path id="a1_m_6_" d="M63.744,67.746c0.543,0.91,1.169,1.906,1.722,2.84H52.001C55.399,64.7,58.748,58.913,62.158,53
				c3.385,5.926,6.707,11.735,10.061,17.623h-3.416c-2.214-3.877-4.387-7.626-6.688-11.656c-1.788,3.095-3.357,5.755-5.108,8.775
				C59.397,67.742,61.479,67.746,63.744,67.746z"/>
		</g>
	</g>
	<g id="a_13_" display="inline">
		<g id="mask_a1_13_">
			<path id="a1_m_13_" d="M-10.738,35.394c0.623-1.045,1.341-2.188,1.977-3.262h-15.464c3.902,6.761,7.748,13.407,11.665,20.196
				C-8.674,45.523-4.857,38.851-1,32.09h-3.931c-2.543,4.452-5.037,8.758-7.683,13.386c-2.051-3.554-3.854-6.609-5.864-10.077
				C-15.731,35.399-13.341,35.394-10.738,35.394z"/>
		</g>
	</g>
	<g id="a_12_" display="inline">
		<g id="mask_a1_12_">
			<path id="a1_m_12_" d="M51.556,53.878c0.543-0.91,1.169-1.905,1.722-2.841H39.812c3.398,5.887,6.747,11.674,10.156,17.586
				C53.354,62.698,56.677,56.888,60.03,51h-3.416c-2.216,3.878-4.388,7.627-6.69,11.657c-1.786-3.096-3.357-5.756-5.107-8.775
				C47.209,53.882,49.29,53.878,51.556,53.878z"/>
		</g>
	</g>
	<g id="a_11_" display="inline">
		<g id="mask_a1_11_">
			<path id="a1_m_11_" d="M36.256,67.745c-0.542,0.909-1.168,1.906-1.72,2.841H48C44.602,64.699,41.253,58.911,37.843,53
				c-3.384,5.926-6.707,11.735-10.066,17.623h3.422c2.214-3.878,4.386-7.626,6.689-11.657c1.786,3.096,3.356,5.755,5.106,8.774
				C40.603,67.74,38.522,67.745,36.256,67.745z"/>
		</g>
	</g>
	<g id="a_10_" display="inline">
		<g id="mask_a1_10_">
			<path id="a1_m_10_" d="M60.475,32.254c-0.543-0.91-1.169-1.906-1.722-2.84h13.465C68.819,35.3,65.471,41.087,62.061,47
				C58.676,41.074,55.354,35.265,52,29.377h3.416c2.214,3.877,4.387,7.626,6.688,11.656c1.788-3.095,3.357-5.755,5.108-8.775
				C64.821,32.258,62.74,32.254,60.475,32.254z"/>
		</g>
	</g>
	<g id="a_9_" display="inline">
		<g id="mask_a1_9_">
			<path id="a1_m_9_" d="M51.556,46.122c0.543,0.91,1.169,1.905,1.722,2.841H39.812c3.398-5.887,6.747-11.674,10.156-17.586
				C53.354,37.302,56.677,43.112,60.03,49h-3.416c-2.216-3.878-4.388-7.627-6.69-11.657c-1.786,3.096-3.357,5.756-5.107,8.775
				C47.209,46.118,49.29,46.122,51.556,46.122z"/>
		</g>
	</g>
	<g id="a_8_" display="inline">
		<g id="mask_a1_8_">
			<path id="a1_m_8_" d="M39.521,32.255c0.542-0.909,1.168-1.906,1.72-2.841H27.777C31.175,35.301,34.524,41.089,37.934,47
				C41.318,41.074,44.641,35.265,48,29.377h-3.422c-2.214,3.878-4.386,7.626-6.689,11.657c-1.786-3.096-3.356-5.755-5.106-8.774
				C35.174,32.26,37.255,32.255,39.521,32.255z"/>
		</g>
	</g>
	<g id="a_15_" display="inline">
		<g id="mask_a1_15_">
			<path id="a1_m_15_" d="M72.475,53.878c-0.543-0.91-1.169-1.905-1.722-2.841h13.466c-3.398,5.887-6.746,11.674-10.156,17.586
				C70.676,62.698,67.354,56.888,64,51h3.416c2.216,3.878,4.388,7.627,6.69,11.657c1.786-3.096,3.357-5.756,5.107-8.775
				C76.82,53.882,74.74,53.878,72.475,53.878z"/>
		</g>
	</g>
	<g id="a_14_" display="inline">
		<g id="mask_a1_14_">
			<path id="a1_m_14_" d="M72.475,46.122c-0.543,0.91-1.169,1.905-1.722,2.841h13.466c-3.398-5.887-6.746-11.674-10.156-17.586
				C70.676,37.302,67.354,43.112,64,49h3.416c2.216-3.878,4.388-7.627,6.69-11.657c1.786,3.096,3.357,5.756,5.107,8.775
				C76.82,46.118,74.74,46.122,72.475,46.122z"/>
		</g>
	</g>
</g>
<g id="Layer_3" display="none">
	<rect display="inline" fill="url(#New_Tri_Pattern_-_1)" width="100" height="100"/>
</g>
<g id="Layer_4">
	<g>
		<defs>
			<rect id="SVGID_1_" width="48.441" height="43.246"/>
		</defs>
		<clipPath id="SVGID_2_">
			<use xlink:href="#SVGID_1_"  overflow="visible"/>
		</clipPath>
		<g clip-path="url(#SVGID_2_)">
			<g id="a_34_">
				<g id="mask_a1_34_">
					<path id="a1_m_34_" d="M52.92,39.368c-0.541,0.909-1.168,1.906-1.72,2.841h13.464c-3.398-5.887-6.746-11.675-10.156-17.586
						c-3.385,5.926-6.707,11.735-10.066,17.623h3.422c2.214-3.878,4.386-7.626,6.689-11.657c1.786,3.096,3.355,5.755,5.105,8.774
						C57.268,39.363,55.186,39.368,52.92,39.368z"/>
				</g>
			</g>
			<g id="a_30_">
				<g id="mask_a1_30_">
					<path id="a1_m_30_" d="M56.186,3.878c0.541-0.909,1.168-1.906,1.72-2.841H44.441c3.398,5.887,6.746,11.675,10.156,17.586
						C57.982,12.697,61.305,6.888,64.664,1h-3.422c-2.214,3.878-4.386,7.626-6.689,11.657c-1.786-3.096-3.355-5.755-5.105-8.774
						C51.838,3.883,53.92,3.878,56.186,3.878z"/>
				</g>
			</g>
		</g>
		<g clip-path="url(#SVGID_2_)">
			<g id="a_27_">
				<g id="mask_a1_27_">
					<path id="a1_m_27_" d="M31.967,39.369c0.543,0.91,1.169,1.906,1.722,2.84H20.224c3.398-5.886,6.747-11.673,10.157-17.586
						c3.385,5.926,6.707,11.735,10.061,17.623h-3.416c-2.214-3.877-4.387-7.626-6.688-11.656c-1.788,3.095-3.357,5.755-5.108,8.775
						C27.62,39.365,29.701,39.369,31.967,39.369z"/>
				</g>
			</g>
			<g id="a_25_">
				<g id="mask_a1_25_">
					<path id="a1_m_25_" d="M19.778,25.501c0.543-0.91,1.169-1.905,1.722-2.841H8.034c3.397,5.887,6.747,11.674,10.156,17.586
						c3.387-5.925,6.709-11.735,10.062-17.623h-3.416c-2.216,3.878-4.388,7.627-6.69,11.657c-1.786-3.096-3.357-5.756-5.107-8.775
						C15.432,25.505,17.512,25.501,19.778,25.501z"/>
				</g>
			</g>
			<g id="a_23_">
				<g id="mask_a1_23_">
					<path id="a1_m_23_" d="M4.479,39.368c-0.541,0.909-1.168,1.906-1.72,2.841h13.464c-3.398-5.887-6.746-11.675-10.156-17.586
						C2.682,30.549-0.641,36.358-4,42.246h3.422c2.214-3.878,4.386-7.626,6.689-11.657c1.786,3.096,3.355,5.755,5.105,8.774
						C8.826,39.363,6.744,39.368,4.479,39.368z"/>
				</g>
			</g>
			<g id="a_22_">
				<g id="mask_a1_22_">
					<path id="a1_m_22_" d="M28.697,3.877c-0.543-0.91-1.169-1.906-1.722-2.84H40.44c-3.398,5.886-6.747,11.673-10.157,17.586
						C26.898,12.697,23.576,6.888,20.223,1h3.416c2.214,3.877,4.387,7.626,6.688,11.656c1.788-3.095,3.357-5.755,5.108-8.775
						C33.044,3.881,30.963,3.877,28.697,3.877z"/>
				</g>
			</g>
			<g id="a_21_">
				<g id="mask_a1_21_">
					<path id="a1_m_21_" d="M19.778,17.745c0.543,0.91,1.169,1.905,1.722,2.841H8.034C11.432,14.699,14.781,8.912,18.19,3
						c3.387,5.925,6.709,11.735,10.062,17.623h-3.416c-2.216-3.878-4.388-7.627-6.69-11.657c-1.786,3.096-3.357,5.756-5.107,8.775
						C15.432,17.741,17.512,17.745,19.778,17.745z"/>
				</g>
			</g>
			<g id="a_20_">
				<g id="mask_a1_20_">
					<path id="a1_m_20_" d="M7.744,3.878c0.541-0.909,1.168-1.906,1.72-2.841H-4c3.398,5.887,6.746,11.675,10.156,17.586
						C9.541,12.697,12.863,6.888,16.223,1h-3.422c-2.214,3.878-4.386,7.626-6.689,11.657C4.325,9.562,2.756,6.902,1.006,3.883
						C3.396,3.883,5.479,3.878,7.744,3.878z"/>
				</g>
			</g>
			<g id="a_19_">
				<g id="mask_a1_19_">
					<path id="a1_m_19_" d="M40.697,25.501c-0.543-0.91-1.169-1.905-1.722-2.841h13.466c-3.398,5.887-6.746,11.674-10.156,17.586
						c-3.387-5.925-6.709-11.735-10.062-17.623h3.416c2.216,3.878,4.388,7.627,6.69,11.657c1.786-3.096,3.357-5.756,5.107-8.775
						C45.043,25.505,42.963,25.501,40.697,25.501z"/>
				</g>
			</g>
			<g id="a_18_">
				<g id="mask_a1_18_">
					<path id="a1_m_18_" d="M40.697,17.745c-0.543,0.91-1.169,1.905-1.722,2.841h13.466C49.043,14.699,45.695,8.912,42.285,3
						c-3.387,5.925-6.709,11.735-10.062,17.623h3.416c2.216-3.878,4.388-7.627,6.69-11.657c1.786,3.096,3.357,5.756,5.107,8.775
						C45.043,17.741,42.963,17.745,40.697,17.745z"/>
				</g>
			</g>
		</g>
		<g clip-path="url(#SVGID_2_)">
			<g id="a_17_">
				<g id="mask_a1_17_">
					<path id="a1_m_17_" d="M-7.744,25.501c-0.543-0.91-1.169-1.905-1.722-2.841H4C0.602,28.547-2.746,34.334-6.156,40.246
						c-3.387-5.925-6.709-11.735-10.062-17.623h3.416c2.216,3.878,4.388,7.627,6.69,11.657c1.786-3.096,3.357-5.756,5.107-8.775
						C-3.398,25.505-5.479,25.501-7.744,25.501z"/>
				</g>
			</g>
			<g id="a_16_">
				<g id="mask_a1_16_">
					<path id="a1_m_16_" d="M-7.744,17.745c-0.543,0.91-1.169,1.905-1.722,2.841H4C0.602,14.699-2.746,8.912-6.156,3
						c-3.387,5.925-6.709,11.735-10.062,17.623h3.416c2.216-3.878,4.388-7.627,6.69-11.657c1.786,3.096,3.357,5.756,5.107,8.775
						C-3.398,17.741-5.479,17.745-7.744,17.745z"/>
				</g>
			</g>
		</g>
	</g>
	<g>
	</g>
	<g>
	</g>
	<g>
	</g>
	<g>
	</g>
	<g>
	</g>
	<g>
	</g>
	<g>
	</g>
	<g>
	</g>
	<g>
	</g>
	<g>
	</g>
	<g>
	</g>
	<g>
	</g>
	<g>
	</g>
	<g>
	</g>
	<g>
	</g>
</g>
</svg>
