<svg xmlns="http://www.w3.org/2000/svg" id="XMLID_1_" width="336px" height="73px" x="0px" y="0px" version="1.1" viewBox="0 0 336 73" enable-background="new 0 0 336 73" xml:space="preserve">
    <g fill="#AAFF00" class="logo_x5F_aaa">
        <path d="M29.3516,51.0391c-1.8731,3.1474-4.043,6.5937-5.959,9.83H70 C58.2393,40.4922,46.6523,20.4629,34.8477,0C23.1299,20.5078,11.6299,40.623,0,61h11.8477 C19.5156,47.5762,27.0293,34.6006,35,20.6514c6.1855,10.7138,11.6211,19.9228,17.6758,30.374 C44.4004,51.0244,37.1914,51.0391,29.3516,51.0391z" class="a1"/>
        <path d="M47,10c9.9766,17.1719,19.7773,34.1719,29.5361,51c3.8955,0,7.5264,0,11.4639,0 c-9.9766-17.1719-19.7773-34.1738-29.5361-51C54.5703,10,50.9824,10,47,10z" class="l"/>
        <path d="M110.4414,40.1973c-3.0615,5.6328-6.166,10.6601-9.5332,16.4218 c-1.9228-3.248-5.2031-8.7519-5.2031-8.7519l-0.0244-0.0391L111,21H70.4375c10.0137,17.332,20.415,34.8828,30.4717,52 c6.4277-11.1367,12.751-21.5352,19.0908-32.8027H110.4414z M90.668,39.5225L84.9199,30h11.0557L90.668,39.5225z" class="e"/>
        <path d="M154,9h-11.2285c-3.9024,6.6016-11.4346,19.9219-11.4346,19.9219s-3.2217-5.4961-4.6953-8.0313 h-11.1865c3.4687,6.1211,10.2451,17.8516,10.2451,17.8516S113.2871,60.8076,107,72h11.0566 c4.335-7.5205,13.2803-23.4346,13.2803-23.4346s5.1475,8.6573,7.3574,12.5479h7.8047l3.1221,0.0215 c-3.3379-5.7286-12.6563-22.3848-12.6563-22.3848S148.1904,19.0996,154,9z" class="x"/>
        <path d="M167.0293,60.9336c15.8184,0.0449,31.1094,0.0449,46.9707,0.0449 C202.082,40.5059,190.4277,20.4287,178.5527,0C168.252,17.9434,148,53.5283,148,53.5283L152.5264,61l2.542-0.0215 c7.7548-13.4726,15.5107-26.9453,23.5273-40.9004c6.2236,10.7617,12.0947,20.8223,18.1865,31.3203h-24.0576 C170.8398,54.5488,169,57.6084,167.0293,60.9336z" class="a2"/>
        <path d="M232,61c-10.0195-17.2744-19.8223-34.2031-29.5361-51c-3.8946,0-7.5694,0-11.4639,0 c9.9316,17.1865,19.7344,34.1152,29.5361,51C224.3418,61,227.9746,61,232,61z" class="l2"/>
        <path d="M215,22c9.9922,16.8691,19.7676,33.8711,29.7607,51C254.623,55.8262,264.2246,38.8691,274,22 C254.1875,22,234.8535,22,215,22z M229.5107,30.2187c10.3838,0,19.7686,0,30.1084,0c-5.1269,9.084-9.5371,17.2774-14.7929,26.4903 C239.5254,47.5391,234.6807,39.3027,229.5107,30.2187z" class="o"/>
        <g class="i">
            <path d="M299,9h-11.4756c-0.833,1.6104-2.0605,3.918-2.9805,5.6602h11.3467 C296.6787,13.2246,297.9492,10.873,299,9z" class="i1.2"/>
            <path d="M292.5625,20.4102H281.085C273.375,33.9102,265.7529,47.3691,258,61h11.4766 C277.0547,47.6289,284.7197,34.1719,292.5625,20.4102z" class="i1.1"/>
        </g>
        <path d="M305.6953,26.4199c6.793,11.9199,13.3233,23.2725,19.8115,34.5801c3.1778,0,6.9668,0,10.4932,0 c-9.9277-17.4199-20.0283-34.7969-29.8691-52C296.0732,26.377,285.9717,43.7109,276,60.957l9.7539,0.0205l0.0127-0.0205h29.5527 c-1.6982-2.7949-3.1357-5.2402-4.789-7.9472l-20.2705,0.0742l1.498-2.6231C296.4473,42.3516,300.9629,34.5674,305.6953,26.4199z" class="a3"/>
    </g>
</svg>
