<svg xmlns="http://www.w3.org/2000/svg" class="port_arw" viewBox="0 0 356.9683 119.0504" xml:space="preserve">
    <defs>
      <mask id="arw_mask" width="356.9683" height="119.0504" x="0" y="0" maskUnits="userSpaceOnUse">
            <path fill="#fff" d="M98.9812,67.4186c0.0043,0.0026,0.0088,0.0053,0.0132,0.0079v-0.0079h182.8694l69.0206,0.0449 l-30.6892-17.7112H98.9944V2.7245C66.7228,21.3504,35.0016,39.7012,2.5938,58.3965 c32.479,18.5579,64.3362,36.7709,96.608,55.1896V94.8225C77.942,82.6786,57.392,70.7789,35.3002,58.1554 c16.9679-9.7962,31.5525-18.4048,48.1044-27.9939c-0.0016,13.1061,0.0217,15.4112,0.0217,27.8274 c4.9646,2.9546,10.3984,6.3749,15.5059,9.4004v0.0293H98.9812z"/>
      </mask>
    </defs>
    <path class="arw" fill="none" stroke="#AAFF00" stroke-width="19" stroke-miterlimit="10" d="M356.9683 58.4938L91.4683 58.4938 91.4683 16.4938 19.0683 58.4938 110.9683 110.7938" mask="url(#arw_mask)"/>

    <path class="arw_rev" fill="none" stroke="#AAFF00" stroke-width="19" stroke-miterlimit="10" d="M112.9693 112.0558L19.0693 58.1558 91.6359 16.4225 91.6359 58.4225 374.9693 58.4225" mask="url(#arw_mask)"/>
</svg>
