<?xml version="1.0" encoding="utf-8"?>
<svg>
     <g id="t3iGrphx">
        <path id="piece1" fill="none" stroke="#033334" stroke-width="3" stroke-linecap="round" stroke-linejoin="bevel" stroke-miterlimit="10" d="
            M175.598,75.445l-23.823,34.672l-22.834,33.08c0,0-0.75,4.98-2.304,11.103c-1.535,6.036-3.849,13.183-7.248,21.916
            c-0.049,0.127-0.095,0.249-0.146,0.38l51.406-74.4c-1.901-12.193,1.25-23.987,10.829-34.342c18.04-19.495,48.46-20.681,67.959-2.646
            c19.496,18.034,20.684,48.461,2.644,67.956c0,0-20.416,27.575-57.518,14.381c-47.018-18.14-45.789-64.929-37.161-88.068
            l-41.581,59.319"/>

        <path id="piece2" fill="none" stroke="#033334" stroke-width="3" stroke-linecap="round" stroke-linejoin="bevel" stroke-miterlimit="10" d="
            M92.403,128.055l23.822-34.674l22.835-33.077c0,0,0.75-4.98,2.305-11.106c1.535-6.034,3.849-13.181,7.246-21.914
            c0.049-0.125,0.096-0.25,0.148-0.379l-51.407,74.4c1.899,12.192-1.248,23.987-10.83,34.343c-18.04,19.495-48.46,20.678-67.957,2.646
            c-19.496-18.036-20.684-48.462-2.646-67.954c0,0,20.415-27.578,57.519-14.383c47.019,18.142,45.789,64.93,37.161,88.07
            l41.581-59.322"/>
    </g>

    <g id="t3iLetterGrp">
        <path id="t1" d="M74.245,147.577v17.399h18.899v10.05H74.245v39.148
            c0,8.999,2.55,14.099,9.899,14.099c3.601,0,5.7-0.3,7.65-0.899l0.6,10.05c-2.55,0.9-6.6,1.8-11.7,1.8
            c-6.149,0-11.099-2.1-14.249-5.55c-3.6-4.05-5.1-10.5-5.1-19.05v-39.598H50.097v-10.05h11.249v-13.499L74.245,147.577z"/>

        <path id="r1" d="M105.495,187.626c0-8.55-0.15-15.899-0.601-22.649h11.55l0.601,14.399
            h0.449c3.3-9.749,11.4-15.898,20.249-15.898c1.351,0,2.4,0.149,3.601,0.3v12.449c-1.351-0.3-2.7-0.3-4.5-0.3
            c-9.3,0-15.899,6.899-17.699,16.799c-0.301,1.8-0.45,4.05-0.45,6.149v38.698h-13.199V187.626z"/>

        <path id="i1" d="M167.343,144.578c0,4.5-3.149,8.1-8.399,8.1c-4.8,0-7.949-3.6-7.949-8.1
            c0-4.501,3.3-8.25,8.25-8.25C164.044,136.328,167.343,139.928,167.343,144.578z M152.645,237.573v-72.597h13.199v72.597H152.645z"
            />

       <path id="p1" d="M178.993,188.676c0-9.3-0.301-16.799-0.601-23.699h11.699l0.75,12.449
            h0.301c5.25-8.85,13.949-13.948,25.799-13.948c17.699,0,30.898,14.849,30.898,36.748c0,26.099-16.049,38.998-33.148,38.998
            c-9.6,0-18-4.199-22.349-11.399h-0.301v39.449h-13.049V188.676z M192.042,208.025c0,1.95,0.15,3.75,0.601,5.4
            c2.399,9.148,10.35,15.449,19.799,15.449c13.949,0,22.049-11.399,22.049-28.05c0-14.399-7.649-26.849-21.599-26.849
            c-9,0-17.55,6.3-19.95,16.199c-0.449,1.649-0.899,3.6-0.899,5.25V208.025z"/>

        <path id="l1" d="M258.091,131.078h13.199v106.495h-13.199V131.078z"/>

        <path id="three" d="M285.863,231.395c3.749,2.399,12.449,6.149,21.599,6.149
            c16.949,0,22.198-10.801,22.049-18.899c-0.149-13.649-12.449-19.498-25.198-19.498h-7.351v-9.9h7.351
            c9.6,0,21.748-4.95,21.748-16.499c0-7.8-4.949-14.699-17.099-14.699c-7.8,0-15.3,3.449-19.499,6.448l-3.45-9.6
            c5.1-3.748,14.999-7.498,25.499-7.498c19.199,0,27.898,11.398,27.898,23.248c0,10.05-6,18.6-17.999,22.949v0.3
            c11.999,2.4,21.749,11.399,21.749,25.05c0,15.598-12.149,29.248-35.549,29.248c-10.949,0-20.549-3.449-25.348-6.6L285.863,231.395
            z"/>

        <path id="i2" d="M372.312,144.578c0,4.5-3.15,8.1-8.4,8.1c-4.8,0-7.949-3.6-7.949-8.1
            c0-4.501,3.3-8.25,8.25-8.25C369.013,136.328,372.312,139.928,372.312,144.578z M357.613,237.573v-72.597h13.199v72.597H357.613z"
            />

        <path id="n1" d="M383.962,184.626c0-7.649-0.15-13.649-0.601-19.649h11.699l0.751,12h0.3
            c3.6-6.75,11.999-13.499,23.998-13.499c10.051,0,25.65,5.999,25.65,30.898v43.197h-13.2v-41.848
            c0-11.7-4.349-21.449-16.799-21.449c-8.55,0-15.3,6.149-17.7,13.499c-0.6,1.65-0.899,3.9-0.899,6.15v43.647h-13.199V184.626z"/>

        <path id="fi1" d="M462.311,237.573v-62.547h-10.05v-10.05h10.05v-4.05
            c0-19.049,11.249-31.499,31.648-31.499c6.75,0,14.699,2.101,18.449,4.8l-3.75,10.051c-3.299-2.251-8.85-4.201-15.299-4.201
            c-13.95,0-17.999,9.75-17.999,21.3v3.6h42.148v72.597h-13.2v-62.547H475.36v62.547H462.311z"/>

        <path id="n2" d="M530.66,184.626c0-7.649-0.15-13.649-0.601-19.649h11.7l0.75,12h0.301
            c3.6-6.75,11.999-13.499,23.998-13.499c10.049,0,25.648,5.999,25.648,30.898v43.197h-13.199v-41.848
            c0-11.7-4.35-21.449-16.799-21.449c-8.549,0-15.3,6.149-17.699,13.499c-0.6,1.65-0.9,3.9-0.9,6.15v43.647H530.66V184.626z"/>

        <path id="i3" d="M619.859,144.578c0,4.5-3.15,8.1-8.399,8.1c-4.8,0-7.95-3.6-7.95-8.1
            c0-4.501,3.301-8.25,8.249-8.25C616.559,136.328,619.859,139.928,619.859,144.578z M605.16,237.573v-72.597h13.199v72.597H605.16z
            "/>

        <path id="t2" d="M653.658,147.577v17.399h18.899v10.05h-18.899v39.148
            c0,8.999,2.549,14.099,9.898,14.099c3.601,0,5.701-0.3,7.65-0.899l0.601,10.05c-2.55,0.9-6.601,1.8-11.7,1.8
            c-6.15,0-11.1-2.1-14.249-5.55c-3.601-4.05-5.101-10.5-5.101-19.05v-39.598H629.51v-10.05h11.248v-13.499L653.658,147.577z"/>

        <path id="y1" d="M696.056,164.977l15.75,42.899c1.799,4.8,3.6,10.498,4.8,14.849h0.3
            c1.349-4.351,2.85-9.9,4.649-15.148l14.4-42.6h13.948l-19.8,51.748c-9.449,24.898-15.898,37.499-24.898,45.448
            c-6.6,5.55-12.899,7.8-16.199,8.398l-3.299-10.948c3.299-1.05,7.648-3.15,11.549-6.449c3.6-2.851,7.949-7.95,11.1-14.699
            c0.6-1.351,1.05-2.4,1.05-3.15s-0.3-1.8-1.05-3.449l-26.699-66.898H696.056z"/>

    </g>

</svg>
