<?xml version="1.0" encoding="UTF-8"?>
<!DOCTYPE svg PUBLIC "-//W3C//DTD SVG 1.1//EN" "http://www.w3.org/Graphics/SVG/1.1/DTD/svg11.dtd">
<svg version="1.1" xmlns="http://www.w3.org/2000/svg" xmlns:xlink="http://www.w3.org/1999/xlink" width="100%" height="100%" xml:space="preserve">
    <g id="t3i_logo">
        <path id="bezier" stroke="rgb(7, 39, 39)" stroke-width="3" stroke-linecap="round" stroke-linejoin="bevel" stroke-miterlimit="10" fill="none" d="M 177.6,52.44 L 153.78,87.12 130.94,120.2 C 130.94,120.2 130.19,125.18 128.64,131.3 127.1,137.34 124.79,144.48 121.39,153.22 121.34,153.34 121.29,153.47 121.24,153.6 L 172.65,79.2 C 170.75,67 173.9,55.21 183.48,44.85 201.52,25.36 231.94,24.17 251.44,42.21 270.93,60.24 272.12,90.67 254.08,110.16 254.08,110.16 233.67,137.74 196.56,124.54 149.55,106.4 150.77,59.62 159.4,36.48 L 117.82,95.8" />
        <path id="bezier2" stroke="rgb(7, 39, 39)" stroke-width="3" stroke-linecap="round" stroke-linejoin="bevel" stroke-miterlimit="10" fill="none" d="M 94.4,105.06 L 118.23,70.38 141.06,37.3 C 141.06,37.3 141.81,32.32 143.37,26.2 144.9,20.16 147.21,13.02 150.61,4.28 150.66,4.16 150.71,4.03 150.76,3.91 L 99.35,78.31 C 101.25,90.5 98.1,102.29 88.52,112.65 70.48,132.14 40.06,133.33 20.57,115.29 1.07,97.26 -0.12,66.83 17.92,47.34 17.92,47.34 38.33,19.76 75.44,32.96 122.46,51.1 121.23,97.89 112.6,121.03 L 154.18,61.71" />
    </g>
</svg>
