<svg xmlns="http://www.w3.org/2000/svg" id="Layer_1" width="345px" height="80.333px" x="0px" y="0px" version="1.1" viewBox="215 44.167 345 80.333" enable-background="new 215 44.167 345 80.333" xml:space="preserve">
    <path d="M524.695,74.921c6.793,11.919,13.324,23.272,19.812,34.579c3.178,0,6.967,0,10.493,0c-9.928-17.42-20.028-34.797-29.869-52 C515.073,74.877,504.972,92.211,495,109.457l9.754,0.021l0.013-0.021h29.552c-1.698-2.795-3.135-5.24-4.789-7.947l-20.27,0.075 l1.498-2.624C515.447,90.852,519.963,83.068,524.695,74.921z"/>
    <g id="o">
        <g id="mask_o1">
            <path id="o_m" d="M434,70.5c9.992,16.869,19.768,33.871,29.761,51c9.862-17.174,19.464-34.131,29.239-51 C473.188,70.5,453.854,70.5,434,70.5z M448.511,78.719c10.384,0,19.768,0,30.108,0c-5.127,9.084-9.537,17.277-14.793,26.49 C458.525,96.039,453.681,87.803,448.511,78.719z"/>
        </g>
    </g>
    <g id="i">
        <g id="mask_i1_1">
            <path id="i_1_m" d="M511.562,68.91h-11.477c-7.71,13.501-15.332,26.959-23.085,40.59h11.477 C496.055,96.129,503.72,82.673,511.562,68.91z"/>
        </g>
        <g id="mask_i1_2">
            <path id="i_1_m2" d="M518,57.5h-11.476c-0.833,1.611-2.06,3.919-2.98,5.661h11.347C515.679,61.725,516.949,59.373,518,57.5z"/>
        </g>
    </g>
    <g id="l2">
        <g id="mask_l2">
            <path id="l2_m" d="M451,109.5c-10.02-17.274-19.822-34.202-29.536-51c-3.895,0-7.569,0-11.464,0 c9.932,17.187,19.734,34.115,29.536,51C443.342,109.5,446.975,109.5,451,109.5z"/>
        </g>
    </g>
    <g id="a2">
        <g id="mask_a2_2">
            <path id="a2_2_m" d="M386.029,109.434c15.819,0.045,31.11,0.045,46.971,0.045c-11.918-20.473-23.572-40.55-35.447-60.979 C387.252,66.444,367,102.029,367,102.029l4.526,7.471l2.542-0.021c7.755-13.473,15.511-26.946,23.528-40.9 c6.223,10.761,12.094,20.822,18.186,31.32h-24.057C389.84,103.049,388,106.109,386.029,109.434z"/>
        </g>
    </g>
    <path d="M373,57.5h-11.229c-3.902,6.602-11.434,19.923-11.434,19.923s-3.222-5.496-4.695-8.032h-11.187 c3.469,6.121,10.245,17.851,10.245,17.851S332.287,109.308,326,120.5h11.057c4.335-7.52,13.28-23.434,13.28-23.434 s5.147,8.657,7.357,12.548h7.805l3.122,0.021c-3.338-5.728-12.656-22.384-12.656-22.384S367.19,67.6,373,57.5z"/>
    <path d="M329.441,88.698c-3.061,5.633-6.166,10.66-9.533,16.422c-1.923-3.249-5.203-8.752-5.203-8.752l-0.024-0.04L330,69.5h-40.562 c10.013,17.332,20.415,34.884,30.471,52c6.428-11.136,12.751-21.535,19.091-32.802H329.441z M309.668,88.023L303.92,78.5h11.056 L309.668,88.023z"/>
    <g id="l">
        <g id="mask_l1">
            <path id="l1_m" d="M266,58.5c9.977,17.173,19.778,34.172,29.536,51c3.895,0,7.526,0,11.464,0 c-9.977-17.172-19.778-34.173-29.536-51C273.57,58.5,269.982,58.5,266,58.5z"/>
        </g>
    </g>
    <g id="a">
        <g id="mask_a1">
            <path id="a1_m" d="M248.351,99.539c-1.873,3.148-4.042,6.594-5.959,9.83H289c-11.761-20.377-23.348-40.405-35.152-60.869 C242.13,69.008,230.63,89.123,219,109.5h11.848c7.667-13.424,15.181-26.399,23.152-40.348 c6.185,10.714,11.621,19.922,17.676,30.374C263.4,99.525,256.191,99.539,248.351,99.539z"/>
        </g>
    </g>
</svg>
