<svg xmlns="http://www.w3.org/2000/svg" id="Layer_1" width="775px" height="170px" x="0px" y="0px" version="1.1" viewBox="0 0 775 170" style="enable-background:new 0 0 775 170;" xml:space="preserve">
    <g id="aloia">
        <g id="a3">
            <g id="mask_a3_1">
                <path id="a3_m" d="M647,123c0,0-7.83,11.779-11.4,17.95H725.9c-3.9-6.4-7.2-12-11-18.2L647,123z"/>
            </g>
            <g id="mask_a3_2">
                <path id="a3_m2" d="M773.4,141.05c-22.801-39.899-46-79.7-68.601-119.1c-23.1,39.8-46.3,79.5-69.2,119 L658,141l13.79-24.09c10.77-18.57,21.14-36.4,32.01-55.06c15.601,27.3,30.601,53.3,45.5,79.2 C756.6,141.05,765.3,141.05,773.4,141.05z"/>
            </g>
            <g id="a3_2">
                <path id="a3_2_1" d="M704,21c0,0-45.6,80.45-68.5,119.95l32.8-18.2C680.3,102.05,716,42,716,42L704,21z"/>
                <path id="a3_2_2" d="M773.4,141.05C750.6,101.15,704.8,21.95,704.8,21.95l-1,39.9 c0,0,30.601,53.3,45.5,79.2C756.6,141.05,765.3,141.05,773.4,141.05z"/>
            </g>
            <g id="a3_1">
                <path id="a3_1_1" d="M635,141l91.9-0.05c-3.9-6.4-7.2-12-11-18.2l-46.71,0.24L646,123L635,141z"/>
            </g>
        </g>
        <g id="o">
            <g id="mask_o1">
                <path id="o_m" d="M494.6,50.4c23,39,45.5,78.3,68.5,117.9C585.8,128.6,607.9,89.4,630.4,50.4 C584.8,50.4,540.3,50.4,494.6,50.4z M528,69.4c23.9,0,45.5,0,69.3,0c-11.8,21-21.95,39.94-34.05,61.241 C551.05,109.439,539.9,90.4,528,69.4z"/>
            </g>
            <g id="o1">
                <g id="o1_1">
                    <path id="o_1" d="M563.1,169.3c-3.56-6.13-7.109-13.26-10.649-19.37l10.75-19.39l0.05,0.101 C575.35,109.34,585.5,90.4,597.3,69.4h-0.2l10.53-19H631.4C608.9,89.4,585.8,129.6,563.1,169.3z"/>
                    <path id="o_2" d="M620,69h-23h-69h-23c-3.73-6.38-7.25-12.64-11-19h138C628.33,56.36,620,69,620,69z"/>
                    <path id="o_3" d="M529.53,72.38c11.479,20.22,22.3,38.729,34.12,59.261l0.109-0.201l10.76,18.551 c-3.659,6.43-7.329,12.859-11.02,19.31C540.5,129.7,518,90.4,495,51.4h22.36L529.53,72.38z"/>
                </g>
            </g>
        </g>
        <g id="i">
            <g id="mask_i1_1">
                <path id="i_1_m" d="M672.4,47.8h-26.2c-17.601,31-35,61.9-52.7,93.2h26.2C637,110.3,654.5,79.4,672.4,47.8 z"/>
            </g>
            <g id="mask_i1_2">
                <path id="i_1_m2" d="M687.1,21.6H660.9c-1.9,3.7-4.7,9-6.801,13H680C681.8,31.3,684.7,25.9,687.1,21.6z"/>
            </g>
            <g id="i_1_2">
                <path id="i_1_2_p" d="M687.1,21.6H660.9c-1.9,3.7-4.7,9-6.801,13H680C681.8,31.3,684.7,25.9,687.1,21.6z"/>
            </g>
            <g id="i_1_1">
                <path id="i_1_1_p" d="M672.4,47.8h-26.2c-17.601,31-35,61.9-52.7,93.2h26.2 C637,110.3,654.5,79.4,672.4,47.8z"/>
            </g>
        </g>
        <g id="l2">
            <g id="mask_l2">
                <path id="l2_m" d="M532.1,140.95c-22.899-40-45.3-79.2-67.5-118.1c-8.899,0-17.3,0-26.199,0 c22.699,39.8,45.1,79,67.5,118.1C514.6,140.95,522.9,140.95,532.1,140.95z"/>
            </g>
            <g id="l2_1">
                <path id="l2_1_p1" d="M532.1,140.95c-22.899-40-45.3-79.2-67.5-118.1c-8.899,0-17.3,0-26.199,0 c22.699,39.8,45.1,79,67.5,118.1C514.6,140.95,522.9,140.95,532.1,140.95z"/>
            </g>
        </g>
        <g id="a2">
            <g id="mask_a2_1">
                <path id="a2_1_m" d="M409,1c0,0-40.52,71-68.6,120.08l-0.91,1.6L350,141h7 c15.18-26.48,43.01-74.71,50.57-87.82L423,26L409,1z"/>
            </g>
            <g id="mask_a2_2">
                <path id="a2_2_m" d="M383.1,140.85c36.1,0.101,71,0.101,107.2,0.101c-27.2-46.8-53.8-92.7-80.899-139.4 c-23.51,41.02-69.73,122.37-69.73,122.37L350,141l5.8-0.05c17.7-30.8,35.4-61.6,53.7-93.5c14.2,24.6,27.6,47.6,41.5,71.6h-54.9 C391.8,126.25,387.6,133.25,383.1,140.85z"/>
            </g>
            <g id="a2_2">
                <path id="a_2_2" d="M490.8,140.9C463.8,94.3,409,1,409,1v46l40.05,68.96L464,141L490.8,140.9z"/>
                <path id="a_2_1" d="M396,119c-4.3,7.2-8.8,14.5-13.2,21.9L491,141l-39-22C452,119,414,119,396,119z"/>
            </g>
            <g id="a2_1">
                <path id="a2_1_p" d="M409,1c0,0-40.52,71-68.6,120.08l-0.91,1.6L350,141h7 c15.18-26.48,43.01-74.71,50.57-87.82L423,26L409,1z"/>
            </g>
        </g>
    </g>
    <g id="alex">
        <g id="x">
            <g id="mask_x1">
                <path id="x1_m" d="M316.81,89.8c0,0,25.89-44.95,39.29-68.05h-25.9c-9,15.1-26.37,45.57-26.37,45.57 l-13,22.459c0,0-28.63,50.471-43.13,76.07h25.5c10-17.199,30.63-53.6,30.63-53.6L316.81,89.8z"/>
            </g>
            <g id="mask_x2">
                <path id="x2_m" d="M316.81,89.8l-12.98-22.48c0,0-7.43-12.57-10.83-18.37h-25.8 c8,14,23.63,40.829,23.63,40.829l13,22.471c0,0,11.87,19.8,16.97,28.7h18L346,141C338.3,127.9,316.81,89.8,316.81,89.8z"/>
            </g>
            <g id="x_1_1">
                <path id="x2_1" d="M316.81,89.8l-12.98-22.48c0,0-7.43-12.57-10.83-18.37h-25.8 c8,14,23.63,40.829,23.63,40.829l13,22.471c0,0,11.87,19.8,16.97,28.7h18L346,141C338.3,127.9,316.81,89.8,316.81,89.8z"/>
            </g>
            <g id="x_1_2">
                <path id="x1_1" d="M316.81,89.8c0,0,25.89-44.95,39.29-68.05h-25.9c-9,15.1-26.37,45.57-26.37,45.57 l-13,22.459c0,0-28.63,50.471-43.13,76.07h25.5c10-17.199,30.63-53.6,30.63-53.6L316.81,89.8z"/>
            </g>
        </g>
        <g id="e">
            <g id="mask_e1_1">
                <path id="e1_m" d="M222.92,105.96c-0.59,1.06-2.32,4.979-2.92,6.04l-12-18c0.44-0.8,2.7-4.061,3.13-4.83 c3.63-6.6,6.82-12.43,10.24-18.57L176,71c0.22,0.37-12-20-12-20l90.07-0.4C243.59,70.07,233.37,87.57,222.92,105.96z"/>
            </g>
            <g id="mask_e1_2">
                <path id="e2_m" d="M255.17,92.6c-7,13-14.1,24.601-21.8,37.9c-4.4-7.5-11.9-20.2-11.9-20.2L186,51 l-21.03-0.4c22.9,40,45.4,78.2,68.4,117.7c14.7-25.7,29.16-49.7,43.66-75.7H255.17z"/>
            </g>
            <g id="e_1_2">
                <path id="e2_2" d="M258.17,87.6c-7,13-25.17,42.4-25.17,42.4v39c0,0,33.5-55,48-81L258.17,87.6z"/>
                <path id="e2_1" d="M233.37,130.5l-11.9-20.2L197,69l-34-20c22.9,40,70.37,119.3,70.37,119.3V130.5z"/>
            </g>
            <g id="e_1_1">
                <path id="e1_1" d="M219,114l36.83-63.83l-23.15,0.13L208,94L219,114z"/>
                <path id="e1_2" d="M221,71c0,0-23.18-0.31-23,0l-35-21h93L221,71z"/>
            </g>
        </g>
        <g id="l">
            <g id="mask_l1">
                <path id="l1_m" d="M109.15,22.75c22.8,39.8,45.2,79.2,67.5,118.2c8.9,0,17.2,0,26.2,0 c-22.8-39.8-45.2-79.2-67.5-118.2C126.45,22.75,118.25,22.75,109.15,22.75z"/>
            </g>
            <g id="l1">
                <path id="l1_1" d="M109.15,22.75c22.8,39.8,45.2,79.2,67.5,118.2c8.9,0,17.2,0,26.2,0 c-22.8-39.8-45.2-79.2-67.5-118.2C126.45,22.75,118.25,22.75,109.15,22.75z"/>
            </g>
        </g>
        <g id="a">
            <g id="mask_a1">
                <path id="a1_m" d="M68.48,118.42c-4.3,7.2-9.28,15.08-13.68,22.48h107C134.8,94.3,108.2,48.5,81.1,1.7 C54.2,48.6,27.8,94.6,1.1,141.2h27.2c17.6-30.7,34.85-60.37,53.15-92.27c14.2,24.5,26.68,45.56,40.58,69.46 C103.03,118.391,86.48,118.42,68.48,118.42z"/>
            </g>
            <g id="a1">
                <path id="a1_1" d="M81.1,1.7c0,0-53.3,92.899-80,139.5h27.2C42.9,115.73,69.86,69,78.62,53.83 C80.42,50.71,95,25,95,25L81.1,1.7z"/>
                <path id="a1_2" d="M161.8,140.9C134.8,94.3,81,1,81,1v47l54,93L161.8,140.9z"/>
                <path id="a1_3" d="M68,118c-4.3,7.2-8.8,15.5-13.2,22.9L163,141l-39-23C124,118,86,118,68,118z"/>
            </g>
        </g>
    </g>
</svg>
