<svg xmlns="http://www.w3.org/2000/svg" id="btn1" width="169.4496px" height="169.4078px" x="0px" y="0px" version="1.1" viewBox="0 0 169.4496 169.4078" enable-background="new 0 0 169.4496 169.4078" xml:space="preserve">
    <g id="btn1-sphere" transform="scale(200 -200) translate(1 -1)" opacity="0.8">
        <g id="btn1-sphere-back" transform="rotate(180)" opacity="0.25">
            <g id="btn1-sphere-half_1_" fill="#333333">
                <g id="btn1-meridians_1_">
                    <path id="btn1-meridian0_1_" d="M0.5633-0.1531C0.5714-0.1528,0.583-0.3423,0.5892-0.5761 C0.5954-0.81,0.5939-0.9998,0.5858-1C0.587-1,0.5882-0.9999,0.5895-0.9999c0.0081,0.0002,0.0096,0.19,0.0034,0.4239 C0.5867-0.3422,0.5751-0.1527,0.567-0.153C0.5657-0.153,0.5645-0.153,0.5633-0.1531z"/>
                    <path id="btn1-meridian1_1_" d="M0.5179-0.1569c0.0398,0.0055,0.0974-0.178,0.1288-0.4099 C0.6779-0.7987,0.671-0.9911,0.6312-0.9965c0,0,0,0-0.0001,0C0.6324-0.9964,0.6337-0.9962,0.6349-0.996 c0.0398,0.0055,0.0467,0.1979,0.0154,0.4297C0.619-0.3346,0.5614-0.1511,0.5216-0.1564 C0.5203-0.1566,0.5191-0.1567,0.5179-0.1569z"/>
                    <path id="btn1-meridian2_1_" d="M0.4709-0.1662c0.0688,0.0176,0.171-0.152,0.2283-0.3789 C0.7565-0.7719,0.7471-0.97,0.6783-0.9877c-0.0001,0-0.0002,0-0.0003-0.0001c0.0013,0.0003,0.0025,0.0006,0.0038,0.0009 C0.7506-0.9692,0.76-0.771,0.7027-0.5442c-0.0572,0.2265-0.1592,0.396-0.228,0.3789C0.4734-0.1656,0.4722-0.1659,0.4709-0.1662z"/>
                    <path id="btn1-meridian3_1_" d="M0.4213-0.1823C0.5141-0.1458,0.6581-0.293,0.7429-0.5111 s0.0782-0.4244-0.0146-0.4608C0.728-0.972,0.7278-0.9721,0.7276-0.9722c0.0013,0.0005,0.0025,0.001,0.0038,0.0015 c0.0928,0.0365,0.0994,0.2428,0.0146,0.4608C0.6615-0.2923,0.518-0.1452,0.4251-0.1808 C0.4238-0.1813,0.4226-0.1818,0.4213-0.1823z"/>
                    <path id="btn1-meridian4_1_" d="M0.3681-0.2076C0.4773-0.146,0.6585-0.2615,0.7727-0.4657 s0.1184-0.4196,0.0092-0.4812C0.7815-0.9471,0.7812-0.9473,0.7808-0.9475c0.0013,0.0007,0.0026,0.0014,0.0038,0.0021 c0.1092,0.0616,0.1051,0.2771-0.0092,0.4812c-0.1138,0.2034-0.2942,0.319-0.4036,0.2587 C0.3706-0.2062,0.3694-0.2069,0.3681-0.2076z"/>
                    <path id="btn1-meridian5_1_" d="M0.3112-0.2461c0.1149,0.0921,0.3262,0.0185,0.472-0.1645 s0.1709-0.406,0.056-0.4981C0.8387-0.9091,0.8383-0.9094,0.8378-0.9098c0.0012,0.001,0.0025,0.002,0.0037,0.003 c0.1149,0.0921,0.0898,0.3152-0.056,0.4981C0.6404-0.2266,0.4303-0.1527,0.315-0.2431 C0.3137-0.2441,0.3125-0.2451,0.3112-0.2461z"/>
                    <path id="btn1-meridian6_1_" d="M0.2527-0.3031C0.359-0.1774,0.5896-0.1983,0.7679-0.3498 s0.2366-0.3763,0.1304-0.5021C0.8977-0.8525,0.8972-0.8531,0.8966-0.8538C0.8978-0.8525,0.8989-0.8511,0.9-0.8498 C1.0063-0.724,0.9479-0.4993,0.7696-0.3477C0.5924-0.1971,0.3632-0.1755,0.2561-0.2992 C0.255-0.3005,0.2539-0.3018,0.2527-0.3031z"/>
                    <path id="btn1-meridian7_1_" d="M0.1989-0.3842c0.0804,0.1577,0.3143,0.199,0.5224,0.0922 s0.3117-0.3213,0.2313-0.479c-0.0005-0.0009-0.001-0.0019-0.0015-0.0028c0.0009,0.0017,0.0017,0.0033,0.0026,0.005 c0.0804,0.1577-0.0232,0.3722-0.2313,0.479c-0.2067,0.1061-0.4391,0.0662-0.521-0.0893 C0.2006-0.3808,0.1998-0.3825,0.1989-0.3842z"/>
                    <path id="btn1-meridian8_1_" d="M0.1617-0.4899C0.1994-0.3097,0.4154-0.203,0.6443-0.2515 s0.3839-0.2338,0.3462-0.4139C0.9903-0.6666,0.99-0.6678,0.9898-0.6689C0.9902-0.667,0.9906-0.6651,0.9911-0.6631 C1.0287-0.483,0.8737-0.2976,0.6448-0.2492C0.4177-0.2011,0.2028-0.3058,0.163-0.484C0.1625-0.486,0.1621-0.4879,0.1617-0.4899z"/>
                    <path id="btn1-meridian9_1_" d="M0.1541-0.6098C0.1395-0.4249,0.3168-0.2607,0.55-0.2429 c0.2333,0.0178,0.4342-0.1177,0.4488-0.3025C0.9989-0.5467,0.999-0.5479,0.9991-0.5492c-0.0001,0.002-0.0003,0.004-0.0004,0.006 C0.9841-0.3583,0.7832-0.2228,0.5499-0.2406C0.3185-0.2583,0.1418-0.4202,0.1536-0.6038 C0.1538-0.6058,0.1539-0.6078,0.1541-0.6098z"/>
                    <path id="btn1-meridian10_1_" d="M0.1793-0.7242C0.1162-0.5543,0.2429-0.351,0.4624-0.2701 S0.911-0.2611,0.9742-0.431C0.9746-0.4321,0.975-0.4332,0.9754-0.4343c-0.0007,0.0018-0.0013,0.0037-0.002,0.0055 C0.9102-0.2589,0.6811-0.1869,0.4616-0.2678C0.2437-0.3482,0.117-0.5493,0.1773-0.7187 C0.178-0.7205,0.1787-0.7224,0.1793-0.7242z"/>
                    <path id="btn1-meridian11_1_" d="M0.2277-0.817C0.1303-0.6759,0.2078-0.4542,0.4008-0.3219 s0.4283,0.125,0.5257-0.0161c0.0005-0.0008,0.0011-0.0016,0.0016-0.0023c-0.001,0.0015-0.002,0.003-0.0031,0.0045 C0.8277-0.1948,0.5924-0.1875,0.3994-0.3198C0.2076-0.4512,0.1297-0.6711,0.2246-0.8125 C0.2256-0.814,0.2266-0.8155,0.2277-0.817z"/>
                    <path id="btn1-meridian12_1_" d="M0.2855-0.8845C0.1717-0.777,0.2101-0.5524,0.3713-0.3828 s0.3841,0.2199,0.4979,0.1124c0.0005-0.0005,0.0011-0.001,0.0016-0.0015C0.8696-0.2708,0.8684-0.2696,0.8672-0.2685 C0.7534-0.161,0.5305-0.2113,0.3693-0.3809C0.209-0.5495,0.17-0.7728,0.2819-0.881C0.2831-0.8822,0.2843-0.8833,0.2855-0.8845z"/>
                    <path id="btn1-meridian13_1_" d="M0.3439-0.9306C0.2295-0.8555,0.2414-0.6364,0.3706-0.4413 s0.3265,0.2924,0.4409,0.2172c0.0004-0.0003,0.0008-0.0005,0.0012-0.0008C0.8114-0.224,0.8102-0.2232,0.8089-0.2224 C0.6945-0.1472,0.4971-0.2445,0.368-0.4396C0.2394-0.6339,0.227-0.8521,0.3401-0.9281 C0.3413-0.9289,0.3426-0.9298,0.3439-0.9306z"/>
                    <path id="btn1-meridian14_1_" d="M0.399-0.9612C0.2964-0.9138,0.2933-0.7035,0.3921-0.4914 s0.2621,0.3456,0.3646,0.2982C0.757-0.1933,0.7573-0.1934,0.7576-0.1936C0.7563-0.193,0.755-0.1924,0.7537-0.1918 C0.6512-0.1444,0.4879-0.2779,0.3891-0.49C0.2906-0.7014,0.2933-0.9113,0.3952-0.9594C0.3965-0.96,0.3977-0.9606,0.399-0.9612z"/>
                    <path id="btn1-meridian15_1_" d="M0.4503-0.9809C0.3685-0.9553,0.3594-0.7537,0.43-0.5307 s0.1941,0.3831,0.2759,0.3575c0.0001,0,0.0003-0.0001,0.0004-0.0001C0.705-0.1728,0.7037-0.1724,0.7025-0.1721 C0.6207-0.1465,0.4971-0.3065,0.4266-0.5296c-0.0704-0.2226-0.0615-0.424,0.0199-0.4501 C0.4478-0.9801,0.449-0.9805,0.4503-0.9809z"/>
                    <path id="btn1-meridian16_1_" d="M0.4984-0.9929c-0.0548,0.0103-0.0636,0.205-0.0195,0.4348 s0.1242,0.4077,0.1791,0.3973c0,0,0.0001,0,0.0001,0C0.6569-0.1606,0.6556-0.1603,0.6544-0.1601 c-0.0548,0.0103-0.135-0.1675-0.1791-0.3973c-0.044-0.2295-0.0353-0.4241,0.0194-0.4347 C0.4959-0.9924,0.4971-0.9926,0.4984-0.9929z"/>
                    <path id="btn1-meridian17_1_" d="M0.5444-0.9989C0.5202-0.997,0.5158-0.8063,0.5345-0.5731 c0.0187,0.2332,0.0534,0.4207,0.0776,0.4188C0.6108-0.1543,0.6096-0.1542,0.6084-0.1541 C0.5842-0.1521,0.5495-0.3396,0.5308-0.5728S0.5165-0.9967,0.5407-0.9986C0.5419-0.9987,0.5432-0.9988,0.5444-0.9989z"/>
                </g>
                <g id="btn1-circles-of-latitude_1_">
                    <path id="btn1-circle-of-latitude4_1_" d="M0.4608-0.984c0.0733-0.0208,0.1579-0.0208,0.2312,0 c-0.0037-0.001-0.0074-0.002-0.0111-0.003c-0.0669-0.017-0.1421-0.017-0.209,0C0.4682-0.9861,0.4645-0.9851,0.4608-0.984z"/>
                    <path id="btn1-circle-of-latitude5_1_" d="M0.3256-0.9179c0.1148-0.0843,0.3201-0.096,0.4586-0.0261 c0.0156,0.0079,0.03,0.0166,0.0429,0.0261C0.8255-0.9191,0.8238-0.9203,0.8222-0.9215 c-0.116-0.0826-0.3201-0.0924-0.4558-0.0218c-0.0128,0.0067-0.0248,0.014-0.0358,0.0218 C0.3289-0.9203,0.3273-0.9191,0.3256-0.9179z"/>
                    <path id="btn1-circle-of-latitude6_1_" d="M0.2458-0.8414c0.0891-0.1111,0.3093-0.1573,0.4918-0.103 c0.0737,0.0219,0.1333,0.0582,0.1692,0.103c-0.0011-0.0014-0.0022-0.0027-0.0033-0.004c-0.0904-0.11-0.3103-0.1546-0.491-0.0995 C0.3419-0.9235,0.2845-0.8885,0.2491-0.8455C0.248-0.8441,0.2469-0.8428,0.2458-0.8414z"/>
                    <path id="btn1-circle-of-latitude7_1_" d="M0.1931-0.7569c0.0607-0.1289,0.2814-0.2034,0.4931-0.1665 c0.1322,0.0231,0.2355,0.086,0.2734,0.1665C0.959-0.7584,0.9583-0.7598,0.9576-0.7613 C0.8954-0.8895,0.6744-0.9627,0.4639-0.9249C0.3345-0.9016,0.2334-0.84,0.1952-0.7613 C0.1945-0.7598,0.1938-0.7584,0.1931-0.7569z"/>
                    <path id="btn1-circle-of-latitude8_1_" d="M0.1625-0.6669c0.0304-0.1391,0.2403-0.2369,0.4689-0.2184 c0.1869,0.0151,0.334,0.1047,0.3588,0.2184C0.9899-0.6684,0.9896-0.67,0.9892-0.6715C0.9573-0.8103,0.7465-0.907,0.5185-0.8876 c-0.1843,0.0157-0.3292,0.1039-0.355,0.2161C0.1632-0.67,0.1629-0.6684,0.1625-0.6669z"/>
                    <path id="btn1-circle-of-latitude9_1_" d="M0.1528-0.5742C0.152-0.7166,0.3411-0.8324,0.575-0.8328 S0.9993-0.7182,1-0.5758c0,0.0005,0,0.0011,0,0.0016c0-0.0016,0-0.0031,0-0.0047C0.9993-0.7212,0.809-0.8363,0.575-0.8359 C0.3421-0.8354,0.1535-0.7206,0.1528-0.5788C0.1527-0.5773,0.1527-0.5757,0.1528-0.5742z"/>
                    <path id="btn1-circle-of-latitude10_1_" d="M0.1635-0.4815c-0.0319-0.1388,0.127-0.2671,0.355-0.2865 s0.4387,0.0773,0.4707,0.2161c0.0054,0.0234,0.0054,0.0471,0,0.0704c0.0004-0.0015,0.0007-0.0031,0.001-0.0046 C1.0206-0.6252,0.86-0.753,0.6314-0.7715C0.4029-0.79,0.1929-0.6922,0.1625-0.5531c-0.0049,0.0222-0.0049,0.0448,0,0.067 C0.1629-0.4845,0.1632-0.483,0.1635-0.4815z"/>
                    <path id="btn1-circle-of-latitude11_1_" d="M0.1952-0.3917C0.1331-0.5198,0.2533-0.6544,0.4639-0.6922 C0.6744-0.73,0.8954-0.6568,0.9576-0.5286c0.0217,0.0447,0.0217,0.0923,0,0.137C0.9583-0.3931,0.959-0.3946,0.9597-0.396 c0.0607-0.1289-0.0618-0.2633-0.2734-0.3002C0.4745-0.7332,0.2538-0.6586,0.1931-0.5298c-0.0206,0.0437-0.0206,0.09,0,0.1337 C0.1938-0.3946,0.1945-0.3931,0.1952-0.3917z"/>
                    <path id="btn1-circle-of-latitude12_1_" d="M0.2491-0.3075c-0.0904-0.11-0.0172-0.2439,0.1635-0.2989 s0.4006-0.0105,0.491,0.0995c0.0516,0.0628,0.0516,0.1366,0,0.1994c0.0011-0.0013,0.0022-0.0027,0.0033-0.004 C0.996-0.4226,0.9202-0.5567,0.7377-0.6109C0.5551-0.6652,0.3349-0.619,0.2458-0.5079c-0.0497,0.062-0.0497,0.1344,0,0.1964 C0.2469-0.3102,0.248-0.3088,0.2491-0.3075z"/>
                    <path id="btn1-circle-of-latitude13_1_" d="M0.3306-0.2315c-0.116-0.0826-0.1-0.2069,0.0358-0.2775 s0.3399-0.0609,0.4558,0.0218c0.1033,0.0736,0.1033,0.1821,0,0.2557C0.8238-0.2327,0.8255-0.2338,0.8271-0.235 c0.1148-0.0843,0.0956-0.2093-0.0429-0.2792S0.4404-0.5724,0.3256-0.4881c-0.0999,0.0734-0.0999,0.1797,0,0.2531 C0.3273-0.2338,0.3289-0.2327,0.3306-0.2315z"/>
                    <path id="btn1-circle-of-latitude14_1_" d="M0.4719-0.1659c-0.138-0.0351-0.2031-0.1317-0.1454-0.2157 c0.0577-0.084,0.2164-0.1237,0.3544-0.0885S0.884-0.3385,0.8263-0.2545c-0.0275,0.04-0.0797,0.0718-0.1454,0.0885 c0.0037-0.0009,0.0074-0.0019,0.0111-0.003c0.137-0.0389,0.1963-0.138,0.1325-0.2214S0.5978-0.5099,0.4608-0.471 S0.2644-0.333,0.3283-0.2496c0.0272,0.0355,0.0741,0.0641,0.1325,0.0806C0.4645-0.1679,0.4682-0.1669,0.4719-0.1659z"/>
                    <path id="btn1-circle-of-latitude15_1_" d="M0.3662-0.2847c0,0.0707,0.0941,0.128,0.2102,0.128 s0.2102-0.0573,0.2102-0.128s-0.0941-0.128-0.2102-0.128S0.3662-0.3554,0.3662-0.2847L0.3662-0.2847z M0.363-0.2862 c0-0.0718,0.0955-0.1299,0.2134-0.1299c0.1179,0,0.2134,0.0582,0.2134,0.1299c0,0,0,0,0,0c0,0.0718-0.0955,0.1299-0.2134,0.1299 C0.4585-0.1562,0.363-0.2144,0.363-0.2862C0.363-0.2861,0.363-0.2862,0.363-0.2862z"/>
                    <path id="btn1-circle-of-latitude16_1_" d="M0.4332-0.2602c0,0.0481,0.0641,0.0871,0.1431,0.0871 s0.1431-0.039,0.1431-0.0871S0.6554-0.3473,0.5764-0.3473S0.4332-0.3083,0.4332-0.2602z M0.4298-0.2612 c0-0.0493,0.0656-0.0893,0.1466-0.0893s0.1466,0.04,0.1466,0.0893S0.6574-0.1719,0.5764-0.1719S0.4298-0.2119,0.4298-0.2612z"/>
                    <path id="btn1-circle-of-latitude17_1_" d="M0.5046-0.2453c0,0.0241,0.0321,0.0437,0.0717,0.0437 s0.0717-0.0196,0.0717-0.0437S0.616-0.2889,0.5764-0.2889S0.5046-0.2694,0.5046-0.2453z M0.501-0.2458 c0-0.0253,0.0337-0.0459,0.0754-0.0459c0.0416,0,0.0754,0.0205,0.0754,0.0459c0,0,0,0,0,0c0,0.0253-0.0337,0.0459-0.0754,0.0459 C0.5348-0.1999,0.501-0.2204,0.501-0.2458C0.501-0.2457,0.501-0.2458,0.501-0.2458z"/>
                </g>
            </g>
        </g>
        <g id="btn1-sphere-front">
            <g id="btn1-sphere-half" fill="#333333">
                <g id="btn1-meridians">
                    <path id="btn1-meridian0" d="M-0.5895,0.9999c0.0081,0.0002,0.0197-0.1892,0.0259-0.4231 S-0.5589,0.1532-0.567,0.153c0.0012,0,0.0025,0.0001,0.0037,0.0001c0.0081,0.0002,0.0096,0.19,0.0034,0.4239 S-0.5777,1.0002-0.5858,1C-0.587,1-0.5882,0.9999-0.5895,0.9999z"/>
                    <path id="btn1-meridian1" d="M-0.6349,0.996c0.0398,0.0055,0.0974-0.178,0.1288-0.4099 s0.0244-0.4242-0.0154-0.4297c0,0,0,0-0.0001,0c0.0012,0.0002,0.0025,0.0003,0.0037,0.0005 c0.0398,0.0055,0.0467,0.1979,0.0154,0.4297c-0.0313,0.2317-0.0889,0.4152-0.1287,0.4099 C-0.6324,0.9964-0.6337,0.9962-0.6349,0.996z"/>
                    <path id="btn1-meridian2" d="M-0.6818,0.9868c0.0688,0.0176,0.171-0.152,0.2283-0.3789 c0.0573-0.2268,0.0479-0.425-0.0209-0.4426c-0.0001,0-0.0002,0-0.0003-0.0001c0.0013,0.0003,0.0025,0.0006,0.0038,0.0009 C-0.4021,0.1838-0.3927,0.382-0.45,0.6088c-0.0572,0.2265-0.1592,0.396-0.228,0.3789 C-0.6793,0.9874-0.6806,0.9871-0.6818,0.9868z"/>
                    <path id="btn1-meridian3" d="M-0.7315,0.9707c0.0928,0.0365,0.2368-0.1108,0.3216-0.3288 s0.0782-0.4244-0.0146-0.4608c-0.0002-0.0001-0.0004-0.0002-0.0006-0.0002c0.0013,0.0005,0.0025,0.001,0.0038,0.0015 c0.0928,0.0365,0.0994,0.2428,0.0146,0.4608c-0.0845,0.2175-0.2281,0.3646-0.321,0.3291 C-0.7289,0.9717-0.7302,0.9712-0.7315,0.9707z"/>
                    <path id="btn1-meridian4" d="M-0.7847,0.9454C-0.6754,1.007-0.4943,0.8915-0.38,0.6873 s0.1184-0.4196,0.0092-0.4812c-0.0003-0.0002-0.0007-0.0004-0.0011-0.0006c0.0013,0.0007,0.0026,0.0014,0.0038,0.0021 c0.1092,0.0616,0.1051,0.2771-0.0092,0.4812c-0.1138,0.2034-0.2942,0.319-0.4036,0.2587 C-0.7821,0.9468-0.7834,0.9461-0.7847,0.9454z"/>
                    <path id="btn1-meridian5" d="M-0.8415,0.9069c0.1149,0.0921,0.3262,0.0185,0.472-0.1645 s0.1709-0.406,0.056-0.4981C-0.314,0.2439-0.3145,0.2435-0.315,0.2431c0.0012,0.001,0.0025,0.002,0.0037,0.003 c0.1149,0.0921,0.0898,0.3152-0.056,0.4981c-0.1451,0.1821-0.3553,0.256-0.4706,0.1656 C-0.839,0.9088-0.8403,0.9079-0.8415,0.9069z"/>
                    <path id="btn1-meridian6" d="M-0.9,0.8498c0.1062,0.1258,0.3369,0.1049,0.5152-0.0466 s0.2366-0.3763,0.1304-0.5021C-0.255,0.3005-0.2556,0.2998-0.2561,0.2992c0.0011,0.0013,0.0023,0.0026,0.0034,0.004 c0.1062,0.1258,0.0479,0.3506-0.1304,0.5021c-0.1772,0.1506-0.4064,0.1723-0.5135,0.0485 C-0.8978,0.8525-0.8989,0.8511-0.9,0.8498z"/>
                    <path id="btn1-meridian7" d="M-0.9538,0.7688c0.0804,0.1577,0.3143,0.199,0.5224,0.0922 s0.3117-0.3213,0.2313-0.479C-0.2005,0.381-0.201,0.3801-0.2015,0.3791c0.0009,0.0017,0.0017,0.0033,0.0026,0.005 c0.0804,0.1577-0.0232,0.3722-0.2313,0.479c-0.2067,0.1061-0.4391,0.0662-0.521-0.0893 C-0.9521,0.7721-0.953,0.7705-0.9538,0.7688z"/>
                    <path id="btn1-meridian8" d="M-0.9911,0.6631C-0.9534,0.8432-0.7373,0.95-0.5084,0.9015 c0.2289-0.0485,0.3839-0.2338,0.3462-0.4139C-0.1624,0.4864-0.1627,0.4852-0.163,0.484 c0.0004,0.0019,0.0009,0.0039,0.0013,0.0059C-0.124,0.67-0.2791,0.8553-0.5079,0.9038C-0.7351,0.9519-0.95,0.8472-0.9898,0.6689 C-0.9902,0.667-0.9906,0.6651-0.9911,0.6631z"/>
                    <path id="btn1-meridian9" d="M-0.9987,0.5432C-1.0133,0.728-0.836,0.8923-0.6027,0.9101 c0.2333,0.0178,0.4342-0.1177,0.4488-0.3025c0.0001-0.0013,0.0002-0.0025,0.0003-0.0038 c-0.0001,0.002-0.0003,0.004-0.0004,0.006c-0.0146,0.1849-0.2155,0.3203-0.4488,0.3025 C-0.8343,0.8947-1.011,0.7328-0.9991,0.5492C-0.999,0.5472-0.9988,0.5452-0.9987,0.5432z"/>
                    <path id="btn1-meridian10" d="M-0.9734,0.4288c-0.0632,0.1698,0.0635,0.3732,0.283,0.4541 s0.4487,0.0089,0.5118-0.1609c0.0004-0.0011,0.0008-0.0022,0.0012-0.0033c-0.0007,0.0018-0.0013,0.0037-0.002,0.0055 C-0.2425,0.894-0.4717,0.9661-0.6912,0.8851C-0.909,0.8048-1.0358,0.6037-0.9754,0.4343 C-0.9748,0.4324-0.9741,0.4306-0.9734,0.4288z"/>
                    <path id="btn1-meridian11" d="M-0.9251,0.3359C-1.0224,0.4771-0.9449,0.6988-0.7519,0.831 s0.4283,0.125,0.5257-0.0161c0.0005-0.0008,0.0011-0.0016,0.0016-0.0023c-0.001,0.0015-0.002,0.003-0.0031,0.0045 C-0.325,0.9582-0.5604,0.9654-0.7534,0.8332c-0.1917-0.1314-0.2697-0.3513-0.1748-0.4927 C-0.9271,0.3389-0.9261,0.3374-0.9251,0.3359z"/>
                    <path id="btn1-meridian12" d="M-0.8672,0.2685C-0.981,0.376-0.9426,0.6006-0.7814,0.7702 S-0.3973,0.99-0.2835,0.8825C-0.283,0.882-0.2824,0.8815-0.2819,0.881c-0.0012,0.0012-0.0024,0.0023-0.0036,0.0034 C-0.3993,0.992-0.6222,0.9417-0.7834,0.7721c-0.1603-0.1686-0.1993-0.392-0.0874-0.5002 C-0.8696,0.2708-0.8684,0.2696-0.8672,0.2685z"/>
                    <path id="btn1-meridian13" d="M-0.8089,0.2224c-0.1144,0.0751-0.1024,0.2942,0.0267,0.4893 s0.3265,0.2924,0.4409,0.2172c0.0004-0.0003,0.0008-0.0005,0.0012-0.0008c-0.0013,0.0008-0.0025,0.0017-0.0038,0.0025 c-0.1144,0.0751-0.3118-0.0221-0.4409-0.2172c-0.1286-0.1943-0.1411-0.4125-0.0279-0.4885 C-0.8114,0.224-0.8102,0.2232-0.8089,0.2224z"/>
                    <path id="btn1-meridian14" d="M-0.7537,0.1918c-0.1026,0.0474-0.1057,0.2577-0.0069,0.4698 s0.2621,0.3456,0.3646,0.2982c0.0003-0.0001,0.0005-0.0002,0.0008-0.0004C-0.3965,0.96-0.3977,0.9606-0.399,0.9612 C-0.5016,1.0086-0.6648,0.875-0.7636,0.663c-0.0985-0.2114-0.0958-0.4213,0.0061-0.4694 C-0.7563,0.193-0.755,0.1924-0.7537,0.1918z"/>
                    <path id="btn1-meridian15" d="M-0.7025,0.1721c-0.0818,0.0256-0.0909,0.2272-0.0203,0.4502 s0.1941,0.3831,0.2759,0.3575c0.0001,0,0.0003-0.0001,0.0004-0.0001C-0.4478,0.9801-0.449,0.9805-0.4503,0.9809 c-0.0818,0.0256-0.2053-0.1345-0.2759-0.3575c-0.0704-0.2226-0.0615-0.424,0.0199-0.4501 C-0.705,0.1728-0.7037,0.1724-0.7025,0.1721z"/>
                    <path id="btn1-meridian16" d="M-0.6544,0.1601c-0.0548,0.0103-0.0636,0.205-0.0195,0.4348 s0.1242,0.4077,0.1791,0.3973c0,0,0.0001,0,0.0001,0c-0.0012,0.0002-0.0025,0.0005-0.0037,0.0007 c-0.0548,0.0103-0.135-0.1675-0.1791-0.3973c-0.044-0.2295-0.0353-0.4241,0.0194-0.4347 C-0.6569,0.1606-0.6556,0.1603-0.6544,0.1601z"/>
                    <path id="btn1-meridian17" d="M-0.6084,0.1541C-0.6325,0.156-0.6369,0.3466-0.6183,0.5798 s0.0534,0.4207,0.0776,0.4188c-0.0012,0.0001-0.0025,0.0002-0.0037,0.0003C-0.5685,1.0008-0.6033,0.8133-0.622,0.5801 c-0.0187-0.2332-0.0143-0.4238,0.0099-0.4258C-0.6108,0.1543-0.6096,0.1542-0.6084,0.1541z"/>
                </g>
                <g id="btn1-circles-of-latitude">
                    <path id="btn1-circle-of-latitude4" d="M-0.692,0.1689c0.0733-0.0208,0.1579-0.0208,0.2312,0 c-0.0037-0.001-0.0074-0.002-0.0111-0.003c-0.0669-0.017-0.1421-0.017-0.209,0C-0.6846,0.1669-0.6883,0.1679-0.692,0.1689z"/>
                    <path id="btn1-circle-of-latitude5" d="M-0.8271,0.235c0.1148-0.0843,0.3201-0.096,0.4586-0.0261 c0.0156,0.0079,0.03,0.0166,0.0429,0.0261c-0.0016-0.0012-0.0033-0.0024-0.0049-0.0036 c-0.116-0.0826-0.3201-0.0924-0.4558-0.0218c-0.0128,0.0067-0.0248,0.014-0.0358,0.0218 C-0.8238,0.2327-0.8255,0.2338-0.8271,0.235z"/>
                    <path id="btn1-circle-of-latitude6" d="M-0.9069,0.3115c0.0891-0.1111,0.3093-0.1573,0.4918-0.103 c0.0737,0.0219,0.1333,0.0582,0.1692,0.103c-0.0011-0.0014-0.0022-0.0027-0.0033-0.004c-0.0904-0.11-0.3103-0.1546-0.491-0.0995 c-0.0707,0.0215-0.1281,0.0565-0.1635,0.0995C-0.9047,0.3088-0.9058,0.3102-0.9069,0.3115z"/>
                    <path id="btn1-circle-of-latitude7" d="M-0.9597,0.396c0.0607-0.1289,0.2814-0.2034,0.4931-0.1665 c0.1322,0.0231,0.2355,0.086,0.2734,0.1665c-0.0007-0.0015-0.0014-0.0029-0.0021-0.0044 c-0.0621-0.1282-0.2832-0.2014-0.4937-0.1636c-0.1293,0.0232-0.2305,0.0848-0.2687,0.1636 C-0.9583,0.3931-0.959,0.3946-0.9597,0.396z"/>
                    <path id="btn1-circle-of-latitude8" d="M-0.9902,0.4861c0.0304-0.1391,0.2403-0.2369,0.4689-0.2184 c0.1869,0.0151,0.334,0.1047,0.3588,0.2184c-0.0003-0.0015-0.0007-0.0031-0.001-0.0046 c-0.0319-0.1388-0.2427-0.2356-0.4707-0.2161c-0.1843,0.0157-0.3292,0.1039-0.355,0.2161 C-0.9896,0.483-0.9899,0.4845-0.9902,0.4861z"/>
                    <path id="btn1-circle-of-latitude9" d="M-1,0.5788c-0.0007-0.1424,0.1883-0.2582,0.4223-0.2587 c0.234-0.0005,0.4242,0.1146,0.425,0.2571c0,0.0005,0,0.0011,0,0.0016c0-0.0016,0-0.0031,0-0.0047 c-0.0007-0.1424-0.191-0.2575-0.425-0.2571C-0.8106,0.3175-0.9993,0.4324-1,0.5742C-1,0.5757-1,0.5773-1,0.5788z"/>
                    <path id="btn1-circle-of-latitude10" d="M-0.9892,0.6715c-0.0319-0.1388,0.127-0.2671,0.355-0.2865 s0.4387,0.0773,0.4707,0.2161c0.0054,0.0234,0.0054,0.0471,0,0.0704c0.0004-0.0015,0.0007-0.0031,0.001-0.0046 C-0.1321,0.5278-0.2928,0.4-0.5213,0.3815s-0.4385,0.0793-0.4689,0.2184c-0.0049,0.0222-0.0049,0.0448,0,0.067 C-0.9899,0.6684-0.9896,0.67-0.9892,0.6715z"/>
                    <path id="btn1-circle-of-latitude11" d="M-0.9576,0.7613c-0.0621-0.1282,0.0582-0.2627,0.2687-0.3005 s0.4316,0.0354,0.4937,0.1636c0.0217,0.0447,0.0217,0.0923,0,0.137c0.0007-0.0015,0.0014-0.0029,0.0021-0.0044 c0.0607-0.1289-0.0618-0.2633-0.2734-0.3002S-0.899,0.4943-0.9597,0.6232c-0.0206,0.0437-0.0206,0.09,0,0.1337 C-0.959,0.7584-0.9583,0.7598-0.9576,0.7613z"/>
                    <path id="btn1-circle-of-latitude12" d="M-0.9036,0.8455c-0.0904-0.11-0.0172-0.2439,0.1635-0.2989 c0.1807-0.0551,0.4006-0.0105,0.491,0.0995c0.0516,0.0628,0.0516,0.1366,0,0.1994c0.0011-0.0013,0.0022-0.0027,0.0033-0.004 c0.0891-0.1111,0.0133-0.2452-0.1692-0.2994s-0.4027-0.0081-0.4918,0.103c-0.0497,0.062-0.0497,0.1344,0,0.1964 C-0.9058,0.8428-0.9047,0.8441-0.9036,0.8455z"/>
                    <path id="btn1-circle-of-latitude13" d="M-0.8222,0.9215c-0.116-0.0826-0.1-0.2069,0.0358-0.2775 s0.3399-0.0609,0.4558,0.0218c0.1033,0.0736,0.1033,0.1821,0,0.2557c0.0017-0.0012,0.0033-0.0024,0.0049-0.0036 C-0.2108,0.8336-0.23,0.7086-0.3685,0.6387s-0.3438-0.0582-0.4586,0.0261c-0.0999,0.0734-0.0999,0.1797,0,0.2531 C-0.8255,0.9191-0.8238,0.9203-0.8222,0.9215z"/>
                    <path id="btn1-circle-of-latitude14" d="M-0.6809,0.987c-0.138-0.0351-0.2031-0.1317-0.1454-0.2157 s0.2164-0.1237,0.3544-0.0885c0.138,0.0351,0.2031,0.1317,0.1454,0.2157c-0.0275,0.04-0.0797,0.0718-0.1454,0.0885 c0.0037-0.0009,0.0074-0.0019,0.0111-0.003c0.137-0.0389,0.1963-0.138,0.1325-0.2214S-0.555,0.6431-0.692,0.682 C-0.829,0.7208-0.8883,0.82-0.8245,0.9034C-0.7973,0.9389-0.7504,0.9675-0.692,0.984C-0.6883,0.9851-0.6846,0.9861-0.6809,0.987 z"/>
                    <path id="btn1-circle-of-latitude15" d="M-0.7866,0.8683c0,0.0707,0.0941,0.128,0.2102,0.128 s0.2102-0.0573,0.2102-0.128s-0.0941-0.128-0.2102-0.128S-0.7866,0.7976-0.7866,0.8683L-0.7866,0.8683z M-0.7898,0.8668 c0-0.0718,0.0955-0.1299,0.2134-0.1299S-0.363,0.795-0.363,0.8668c0,0,0,0,0,0c0,0.0718-0.0955,0.1299-0.2134,0.1299 C-0.6942,0.9967-0.7898,0.9386-0.7898,0.8668C-0.7898,0.8668-0.7898,0.8668-0.7898,0.8668z"/>
                    <path id="btn1-circle-of-latitude16" d="M-0.7195,0.8928c0,0.0481,0.0641,0.0871,0.1431,0.0871 s0.1431-0.039,0.1431-0.0871c0-0.0481-0.0641-0.0871-0.1431-0.0871S-0.7195,0.8447-0.7195,0.8928z M-0.723,0.8918 c0-0.0493,0.0656-0.0893,0.1466-0.0893s0.1466,0.04,0.1466,0.0893c0,0.0493-0.0656,0.0893-0.1466,0.0893 S-0.723,0.9411-0.723,0.8918z"/>
                    <path id="btn1-circle-of-latitude17" d="M-0.6481,0.9077c0,0.0241,0.0321,0.0437,0.0717,0.0437 s0.0717-0.0196,0.0717-0.0437S-0.5368,0.864-0.5764,0.864S-0.6481,0.8836-0.6481,0.9077z M-0.6518,0.9072 c0-0.0253,0.0337-0.0459,0.0754-0.0459S-0.501,0.8818-0.501,0.9072c0,0,0,0,0,0c0,0.0253-0.0337,0.0459-0.0754,0.0459 C-0.618,0.9531-0.6518,0.9326-0.6518,0.9072C-0.6518,0.9072-0.6518,0.9072-0.6518,0.9072z"/>
                </g>
            </g>
        </g>
    </g>
    <defs>
        <filter id="Adobe_OpacityMaskFilter" width="159.9456" height="159.7003" x="5.3005" y="5.0517" filterUnits="userSpaceOnUse">
            <feColorMatrix type="matrix" values="1 0 0 0 0 0 1 0 0 0 0 0 1 0 0 0 0 0 1 0"/>
        </filter>
    </defs>
    <mask id="SVGID_1_" width="159.9456" height="159.7003" x="5.3005" y="5.0517" maskUnits="userSpaceOnUse">
        <g filter="url(#Adobe_OpacityMaskFilter)">
            <radialGradient id="SVGID_2_" cx="84.7248" cy="85.302" r="74.5323" gradientUnits="userSpaceOnUse">
                <stop offset="0.6847" style="stop-color:#FFFFFF"/>
                <stop offset="0.7516" style="stop-color:#CDCDCD"/>
                <stop offset="0.9032" style="stop-color:#525252"/>
                <stop offset="1" style="stop-color:#000000"/>
            </radialGradient>
            <circle cx="84.7248" cy="85.302" r="80.5728" fill="url(#SVGID_2_)"/>
        </g>
    </mask>
    <g opacity="0.5" mask="url(#SVGID_1_)">
        <path fill="none" d="M158.1382,52.0308c-0.1543-0.3399-0.3145-0.6765-0.4734-1.0139v1.0794L158.1382,52.0308z"/>
        <path fill="none" d="M141.2667,34.7121l0.3519,1.1695l5.6127,0.0513l0.5323-0.7923c-0.9591-1.1989-1.9511-2.3702-2.9764-3.5112 l-0.0048,1.2974L141.2667,34.7121z"/>
        <path fill="none" d="M61.9963 45.3766L60.7462 44.5994 60.0057 45.3766 60.9955 46.2014z"/>
        <path fill="none" d="M56.0063 44.2039L56.0063 42.2039 56.0063 42.2039 56.0063 42.2039 52.263 42.2039 49.9131 42.8407 49.4548 43.8541 51.2878 44.2039z"/>
        <path fill="none" d="M54.041 44.2039L51.3392 44.2039 49.4548 46.5664 49.1469 48.7668 50.5767 49.2899z"/>
        <path fill="none" d="M48.223 38.4294L48.8903 35.8302 46.9546 35.3683 44.8137 36.3875 46.1334 39.093z"/>
        <path fill="none" d="M146.0063,131.1395l-3-4.2013v-6.5402l-2.4095-2.3719l-0.2186-2.7202l3.0178-5.7776l-5.7443-10.1292 l0.6802-6.8701l-5.1663-0.4807l-1.9035-1.8444h-3.4717l-1.7634,2h-6.1149h-0.2053h-3.4021l-7.8123-8.8724l0.066-6.9218 l1.2904-0.5123l0.4803-2.6936h-1.833l-0.6409-2.7396l9.151-6.479v-4.6228l4.3143-2.3972l1.6784,0.2387h3.644l3.0179-1.5878 l9.3454-0.7739v4.6925l7.0746,1.7433l1.2567,0.9258h1.6687V59.839l4.0085-0.5003l3.8032,2.8651h5.1721 c-0.6878-2-1.4757-4.5298-2.3654-6.7688l-2.3082,0.0863l-2.1373-2.3229l-0.4106-3.7607l-2.1886,1.2009l-1.1768,4.6148 l-3.1601-3.364l-0.1283-3.1777l-3.0538-2.5074l-1.1291-1.0006h-3.5414l1.1218,3.0357l4.2599,2.3152l0.7405,0.7544l-0.9202,0.4468 l0.0403,2.4927l-2.075,0.8614l-1.7707-0.3905l-1.1071-1.57l2.8815,0.1535l0.7772-1.0487l-6.3862-4.3077l-0.4839-1.8331 l-2.5955,2.3462l-2.6322-0.5389l-4.0033,5.2021l-0.7845,2.0383l-2.5626,0.2309l-3.7907,0.022l-2.2656-1.0595l-0.6635-4.5019 l0.8139-2.1446l3.853-0.8432l4.2049,0.8432l0.5133-2.3279l-1.7854-0.4216l0.6122-3.622l4.2306-0.6636l2.9585-4.1792l3.0538-0.605 l2.7568,0.3151h1.0155l-0.5573-3.8309l-3.3544,1.3987l-1.1768-2.9099l-1.9467-0.2598l-0.3629-2.0069l1.5874-1.7239l3.7723-1.476 l0.0575-0.1022c-14.116-12.5552-32.7086-20.2414-53.0863-20.2414c-13.4576,0-26.1352,3.1521-37.2616,9.1521h4.5385l2.174,3.0467 l3.6073,0.2329l2.174-2.0978l1.635,0.8244l-2.9951,2.9289c0,0-4.1426,0.0714-3.941,0.0714c0.2016,0,0.3409,2.853,0.3409,2.853 l5.0261-0.1389l0.5426-1.3562l3.4644-0.2052l0.4069-2.0383l-2.0383-0.3446l0.6782-1.833l1.5617-0.4729l5.4367,0.2713 l-2.9951,2.7202l0.4839,2.1043l3.1271,0.4766l-0.2053-3.8053l2.9915-1.5654l5.2719-0.6122l7.6512,3.4021v2.9218l2.4781,0.4594 l-1.1953,2.1567h-3.4644l-1.0265,2.8034l-7.9259-1.7933l6.2286-3.2795l-2.3756-1.9972l-5.3707,0.6878l-0.4692,0.4887l-0.0183-0.005 l-0.0843,0.1185l-1.5434,1.6063l-2.5552,0.2166l0.2053,1.2759l0.8945,0.3703l-0.0367,0.4216l-2.0786,0.297l-0.154,1.2061 l-1.987,0.1027l-0.3593-2.3976l-3.567,1.0851l-7.2917,4.2673l0.8212,3.0024l1.9186,1.3271l3.957,0.5646v4.6339l2.004-0.3043 l1.6984-3.6221l4.2976-1.3748v-5.5577l2.5114-1.822l5.8785,1.6916l-0.361,3.9865h1.5617l4.2819-2.4211l0.2053,4.6624l3.1235,1.8235 l-0.132,2.8199l-2.9878,0.9994l0.2053,0.9359l3.6,1.6338l-0.0697,1.9662l-1.0448,0.0867c-0.0073-0.0366-0.011-0.0556-0.011-0.0556 l-4.5422-1.1981l-0.1943-1.253h-0.0037l0.9788-1.3182v-1.3271l-1.2556-0.3593l-0.2685,1.2244l-2.3671,0.3849l-0.1088-0.0843v0.1246 l-0.9622,0.132l-0.756-1.4238l-0.866-0.3533h-1.7853l-0.6305,0.6516v1.4664l1.4389,0.5096l1.4618,0.2126l-0.3597,0.1503 l-1.386,1.5251L74.547,42.957l-1.3299-0.352l-3.6234,3.4094l0.4722,0.3886l-5.3491,2.9621l-5.03,5.2351l-0.3447,2.3316 l-5.0445,3.3141l-2.5003,2.5149l0.275,5.0298l-3.468-1.6131l0.0256-2.9438l-9.649,0.0037l-4.9968,2.5295l-2.1703,3.9996 l-0.8579,3.1711l1.4041,3.0758l3.9373,0.4802l6.2579-4.1829l0.5462,2.0713l-1.91,3.6074l4.7622,0.8139l0.4729,7.354l6.5255,1.1071 l4.1463-4.7915l5.0334,1.0228l1.767,2.4599l4.8245-0.2859l0.1357-1.4297l2.6505,1.2941l2.9841,4.6889l5.1654,0.0733l1.9063,3.3324 l0.2713,4.0729l5.7117,2.1777l7.2037,0.0696l2.108,3.4607l3.1931,1.0228l-0.6123,2.8558l-3.501,4.4505l-1.0192,9.8433 l-3.1601,2.5002l-4.6889-0.143l-1.5654,2.7165l1.1585,5.1031l-5.0994,6.5255l-1.6314,2.9915l-4.8612,2.3353l-3.1968,0.4839 l-0.132,1.3564l2.2436,0.6416l-0.2713,1.4591l-2.009,1.9357l1.2208,1.5324l2.4196,0.0696l-0.1357,1.8697l-0.6416,1.833 l-0.2053,1.4958l3.578,3.0134l-0.4766,1.5654l-4.8685-0.0917l-4.8428-4.2269l-3.7723-6.6319l0.5279-6.4045l-2.8558-3.809 l1.1016-6.4559l-1.7506-0.4766v-14.0005c0,0-4.7053-3.6074-4.9765-3.6074c-0.2749,0-2.4919-0.6086-2.4919-0.6086l-0.4596-2.6505 l-6.1816-7.75l0.6155-2.7862l0.2033-4.5532l4.2791-2.9915l-0.6118-5.0994l-6.2504-0.4693l-4.8941-5.576l-3.4643-0.9458 l-2.2436-0.4106l0.3015-2.0383l-2.8256-0.4069v1.1548l-7.1679-1.767l-2.8893-4.3955l1.1619-2.13l-4.524-6.6528l-0.7773-4.8822 h-1.833l0.6122,4.7465l3.1271,4.8533l-0.3409,1.9208l-2.8801-0.3997l-3.4887-5.5542v-6.4705l-3.0361-1.5712 c-3.0947,8.5167-4.6697,17.7077-4.6697,27.2938c0,44.1361,35.8368,79.7292,79.9728,79.7292 c24.4877,0,46.456-10.5481,61.1153-28.5481h-0.3824V131.1395z"/>
        <path fill="none" d="M42.0063 23.5454L42.0063 22.2039 39.2046 22.2039 39.0506 23.2039 37.0063 23.2039 37.0063 23.2039 37.0063 23.2039 37.0063 25.2039 41.2869 25.2039z"/>
        <path fill="none" d="M42.0063 26.7055L40.0941 27.0098 37.2517 27.8237 37.9976 28.7402 42.0063 28.4872z"/>
        <path fill="none" d="M55.6797 48.9839L54.4516 49.2562 54.0447 51.2039 56.6439 51.2039 58.0063 49.6988 58.0063 48.1114 56.0292 48.3717z"/>
        <path fill="none" d="M56.0063,47.5542l1.6503-0.2823l1.3497-0.7882v-2.2798h-3C56.0063,45.2039,56.0063,47.5542,56.0063,47.5542z"/>
        <path fill="none" d="M56.8873 42.2494L56.8873 44.1888 58.57 43.7818z"/>
        <path fill="none" d="M43.2373,19.8684l3.4644,0.7479l0.2676,1.3601l5.51,0.2053l-0.7479-1.767l-4.8941-0.1357l1.1475-0.9239 l-0.4032-1.1512h-4.4212l4.6216-3.5951c-2.5082,1.3376-4.9382,2.7307-7.278,4.319l0.8967-0.0429L43.2373,19.8684z"/>
        <path fill="none" d="M62.0063 49.2039L62.0063 47.5542 59.2981 46.2039 59.0063 46.2039 59.0063 48.1114 59.804 49.2039z"/>
        <path fill="#663399" d="M134.5872,26.8741l-1.5874,1.7267l0.3629,2.0126l1.9467,0.2713l1.1768,2.9328l3.3544-1.4446l0.5573,3.8309 h-1.0155l-2.7568-0.3151l-3.0538,0.5591l-2.9585,4.2022l-4.2306,0.675l-0.6122,3.6278l1.7854,0.4245l-0.5133,2.3294l-4.2049-0.8425 l-3.853,0.8435l-0.8139,2.1448l0.6635,4.5019l2.2656,1.0595l3.7907-0.022l2.5626-0.2309l0.7845-2.0383l4.0033-5.2021l2.6322,0.5389 l2.5955-2.3463l0.4839,1.833l6.3862,4.3076l-0.7772,1.0485l-2.8815-0.154l1.1071,1.569l1.7707,0.3886l2.075-0.8652l-0.0403-2.5002 l0.9202-0.4619l-0.7405-0.7846l-4.2599-2.2548l-1.1218-3.0357h3.5414l1.1291,1.001l3.0538,2.5681l0.1283,3.1482l3.1601,3.3503 l1.1768-4.6194l2.1886-1.1989l0.4106,3.7705l2.1373,2.3453l2.3082-0.0401c-0.4688-1.1798-0.7933-2.3465-1.3158-3.4979 l-0.3026,0.0654v-1.0794c-3-5.6921-6.1834-11.0159-10.0719-15.8764l-0.6176,0.7923l-5.6554-0.0513l-0.2667-1.1695l3.6116-1.7854 v-1.2974c-2-2.2291-4.2402-4.3437-6.4797-6.3355l-0.1123,0.1029L134.5872,26.8741z"/>
        <path fill="#663399" d="M161.9901,62.2039h-5.1721l-3.8032-2.8651l-4.0085,0.5003v2.3649h-1.6687l-1.2567-0.9258l-7.0746-1.7433 v-4.6925l-9.3454,0.7739l-3.0179,1.5878h-3.644l-1.6784-0.2387l-4.3143,2.3972v4.6228l-9.151,6.479l0.6409,2.7396h1.833 l-0.4803,2.7008l-1.2904,0.4962l-0.066,6.919l7.8123,8.884h3.4021h0.2053h6.1149l1.7634-2h3.4717l1.9026,1.8444l5.1654,0.5098 l-0.6819,6.8556l5.741,10.1219l-3.0245,5.774l0.2319,2.7183l2.4095,2.3701v6.5402l3,4.2013v5.0644h0.3824 c11.7623-14,18.8575-31.8123,18.8575-51.4607C165.2462,76.8816,164.1055,69.2039,161.9901,62.2039z"/>
        <path fill="#663399" d="M13.0063,65.7706l3.4887,5.5614l2.7653,0.4069l0.3984-1.9063l-3.0984-4.8822l-0.5835-4.7465h1.833 l0.7735,4.8822l4.5202,6.624l-1.1695,2.1444l2.9044,4.4027l7.1679,1.7742v-1.1548l2.8256,0.4069l-0.2864,2.0383l2.236,0.4106 l3.4606,0.9458l4.8923,5.576l6.2496,0.4693l0.6118,5.0994l-4.2785,2.9915l-0.2018,4.5532l-0.6123,2.7862l6.1882,7.75l0.4729,2.6505 c0,0,2.1904,0.6086,2.4653,0.6086c0.2713,0,4.9765,3.6074,4.9765,3.6074v14.0005l1.7506,0.4766l-1.1282,6.4559l2.8691,3.809 l-0.5212,6.4045l3.7756,6.6319l4.8445,4.2269l4.8693,0.0917l0.477-1.5654l-3.5779-3.0134l0.2054-1.4958l0.6416-1.833l0.1357-1.8697 l-2.4195-0.0696l-1.2208-1.5324l2.009-1.9357l0.2713-1.4591l-2.2436-0.6416l0.132-1.3564l3.1968-0.4839l4.8612-2.3353 l1.6314-2.9915l5.0994-6.5255l-1.1585-5.1031l1.5654-2.7165l4.6889,0.143l3.1601-2.5002l1.0192-9.8433l3.501-4.4505l0.6123-2.8558 l-3.1931-1.0228l-2.108-3.4607l-7.2037-0.0696l-5.7117-2.1777l-0.2713-4.0729l-1.9063-3.3324l-5.1654-0.0733l-2.9841-4.6889 l-2.6505-1.2941l-0.1357,1.4297l-4.8245,0.2859l-1.767-2.4599l-5.0334-1.0228l-4.1463,4.7915l-6.5255-1.1071l-0.4729-7.354 l-4.7622-0.8139l1.91-3.6074l-0.5462-2.0713l-6.2579,4.1829l-3.9373-0.4802l-1.4041-3.0758l0.8579-3.1711l2.1703-3.9996 l4.9968-2.5295l9.649-0.0037l-0.0256,2.9438l3.468,1.6131l-0.275-5.0298l2.5002-2.5149l5.0444-3.3141l0.3446-2.3316l5.0298-5.2351 l5.3487-2.9621l-0.4729-0.3886l3.622-3.4094l1.3271,0.352l0.6086,0.7625l1.3748-1.5251l0.3372-0.1503l-1.4168-0.2126 l-1.4389-0.5096v-1.4664l0.6305-0.6516h1.7853l0.8175,0.3533l0.8045,1.4268l0.9622-0.1349v-0.1246l0.1523,0.0843l2.4591-0.3849 l0.1572-1.2244l1.2314,0.3593v1.3271l-0.9788,1.3182h0.0037l0.1943,1.2527l4.5422,1.2991c0,0,0.0037-0.0323,0.011,0.0043 l1.0448-0.1133l0.0697-1.9813l-3.6-1.6451l-0.2053-0.949l2.9878-1.0207l0.132-2.8603l-3.1235-1.903l-0.2053-4.5042l-4.2819,2.4209 h-1.5617l0.4106-3.9865l-5.9281-1.5332l-2.5114,1.6636v5.5577l-4.2378,1.3748l-1.8078,3.6221l-1.9544,0.3043v-4.6339l-3.957-0.5646 l-1.9785-1.3271l-0.7913-3.0024l7.3067-4.2673l3.5745-1.0851l0.363,2.3976l1.9889-0.1027l0.1549-1.2061l2.0791-0.2969 l0.0369-0.4216l-0.8944-0.3702l-0.2052-1.2758l2.5552-0.2163l1.5434-1.6057l0.0843-0.1173l0.0183,0.0074l0.4693-0.4839 l5.3707-0.6782l2.3756,2.0163l-6.2286,3.3178l7.9259,1.7169l1.0265-2.8034h3.4644l1.1953-2.1567l-2.4781-0.4594v-2.9218 l-7.6512-3.4021l-5.2865,0.6122l-2.9842,1.5654l0.2089,3.8053l-3.1253-0.4766l-0.483-2.1043l2.9956-2.7202l-5.4365-0.2713 l-1.5616,0.4729l-0.6781,1.833l2.0383,0.3446l-0.4069,2.0383l-3.4644,0.2053l-0.5426,1.3564l-5.0261,0.1393 c0,0-0.1393-2.8522-0.341-2.8522c-0.2016,0,3.941-0.0696,3.941-0.0696l2.9951-2.9255l-1.635-0.8175l-2.174,2.1116l-3.6074-0.2605 l-2.174-3.0467h-4.5385c-0.0957,0-0.1917,0.2988-0.2873,0.3497l-4.6216,3.6503h4.4212l0.4032,1.1512l-1.1475,0.9953l4.8941,0.0999 l0.7479,1.7492l-5.51-0.2142l-0.2676-1.3646l-3.4644-0.7501l-1.8367-1.0203l-0.8967,0.0066 C26.7042,28.2243,15.7604,41.7946,9.9702,57.7292l3.0361,1.5709V65.7706z"/>
        <path fill="#663399" d="M58.0063 49.6988L56.6439 51.2039 54.0447 51.2039 54.4516 49.2562 55.6797 49.0669 56.0292 48.4132 58.0063 48.1114z"/>
        <path fill="#663399" d="M59.0063,46.4837l-1.3497,0.7882l-1.6503,0.2823c0,0,0-2.3503,0-3.3503h3V46.4837z"/>
        <path fill="#663399" d="M60.7462 44.5994L61.9963 45.3766 60.9955 46.2014 60.0057 45.3766z"/>
        <path fill="#663399" d="M59.0063 46.2039L59.2981 46.2039 62.0063 47.5542 62.0063 49.2039 59.804 49.2039 59.0063 48.1114z"/>
        <path fill="#663399" d="M56.8873 42.2494L58.57 43.7818 56.8873 44.1888z"/>
        <path fill="#663399" d="M49.9131 42.8407L52.263 42.2039 56.0063 42.2039 56.0063 42.2039 56.0063 42.2039 56.0063 44.2039 51.2878 44.2039 49.4548 43.8541z"/>
        <path fill="#663399" d="M49.4548 46.5664L51.3392 44.2039 54.041 44.2039 50.5767 49.3709 49.1469 48.6047z"/>
        <path fill="#663399" d="M46.9546 35.3683L48.8903 35.8302 48.223 38.4294 46.1334 39.093 44.8137 36.3875z"/>
        <path fill="#663399" d="M42.0063 28.4872L38.0044 28.7402 37.2517 27.8237 40.0873 27.0098 42.0063 26.7055z"/>
        <path fill="#663399" d="M37.0063 23.2039L37.0063 23.2039 37.0063 23.2039 39.0506 23.2039 39.2046 22.2039 42.0063 22.2039 42.0063 23.5454 41.2869 25.2039 37.0063 25.2039z"/>
    </g>
</svg>
