<svg xmlns="http://www.w3.org/2000/svg" id="btn1" width="183.5038px" height="183.4585px" x="0px" y="0px" version="1.1" viewBox="0 0 183.5038 183.4585" enable-background="new 0 0 183.5038 183.4585" xml:space="preserve">
    <g id="btn1-sphere" transform="scale(200 -200) translate(1 -1)" opacity="0.6">
        <g id="btn1-sphere-front">
            <g id="btn1-sphere-half" fill="#1B1F77">
                <g id="btn1-meridians">
                    <path id="btn1-meridian0" d="M-0.5554,0.9999c0.0088,0.0002,0.0213-0.2049,0.0281-0.4582 s0.0051-0.4588-0.0037-0.459c0.0013,0,0.0027,0.0001,0.004,0.0001c0.0088,0.0002,0.0104,0.2057,0.0037,0.459 C-0.5301,0.7951-0.5427,1.0002-0.5514,1C-0.5528,1-0.5541,0.9999-0.5554,0.9999z"/>
                    <path id="btn1-meridian1" d="M-0.6046,0.9957c0.0431,0.0059,0.1055-0.1928,0.1394-0.4439 s0.0265-0.4594-0.0166-0.4654c0,0,0,0-0.0001,0c0.0013,0.0002,0.0027,0.0004,0.004,0.0005 c0.0431,0.0059,0.0506,0.2143,0.0166,0.4654C-0.4951,0.8033-0.5575,1.002-0.6006,0.9963 C-0.6019,0.9961-0.6033,0.9959-0.6046,0.9957z"/>
                    <path id="btn1-meridian2" d="M-0.6554,0.9857c0.0745,0.0191,0.1852-0.1646,0.2472-0.4103 s0.0519-0.4603-0.0226-0.4793c-0.0001,0-0.0002,0-0.0003-0.0001c0.0014,0.0003,0.0027,0.0007,0.0041,0.001 c0.0745,0.0191,0.0847,0.2337,0.0226,0.4793c-0.0619,0.2453-0.1724,0.4289-0.247,0.4103 C-0.6527,0.9864-0.6541,0.986-0.6554,0.9857z"/>
                    <path id="btn1-meridian3" d="M-0.7092,0.9683c0.1005,0.0395,0.2564-0.12,0.3482-0.3561 s0.0847-0.4596-0.0158-0.4991C-0.377,0.113-0.3772,0.1129-0.3774,0.1128c0.0014,0.0005,0.0028,0.0011,0.0041,0.0016 c0.1005,0.0395,0.1076,0.2629,0.0158,0.4991c-0.0916,0.2355-0.247,0.3949-0.3476,0.3564 C-0.7064,0.9693-0.7078,0.9688-0.7092,0.9683z"/>
                    <path id="btn1-meridian4" d="M-0.7668,0.9408c0.1183,0.0667,0.3145-0.0584,0.4382-0.2795 s0.1282-0.4544,0.0099-0.5212C-0.3191,0.14-0.3194,0.1398-0.3198,0.1396c0.0014,0.0008,0.0028,0.0015,0.0041,0.0023 c0.1183,0.0667,0.1138,0.3001-0.0099,0.5212c-0.1233,0.2203-0.3186,0.3454-0.4371,0.2801 C-0.764,0.9424-0.7654,0.9416-0.7668,0.9408z"/>
                    <path id="btn1-meridian5" d="M-0.8284,0.8991C-0.704,0.9989-0.4751,0.9192-0.3173,0.721 s0.1851-0.4397,0.0607-0.5395c-0.0005-0.0004-0.001-0.0008-0.0015-0.0012c0.0014,0.0011,0.0027,0.0021,0.004,0.0032 c0.1244,0.0998,0.0972,0.3413-0.0607,0.5395c-0.1571,0.1972-0.3847,0.2773-0.5096,0.1793 C-0.8257,0.9013-0.827,0.9002-0.8284,0.8991z"/>
                    <path id="btn1-meridian6" d="M-0.8917,0.8374c0.1151,0.1362,0.3648,0.1136,0.5579-0.0505 s0.2563-0.4075,0.1412-0.5437c-0.0006-0.0007-0.0012-0.0014-0.0018-0.0021c0.0012,0.0014,0.0025,0.0028,0.0037,0.0043 C-0.0757,0.3816-0.1389,0.625-0.332,0.7891c-0.1919,0.1631-0.4401,0.1866-0.5561,0.0526 C-0.8893,0.8402-0.8905,0.8388-0.8917,0.8374z"/>
                    <path id="btn1-meridian7" d="M-0.95,0.7496c0.0871,0.1708,0.3404,0.2155,0.5658,0.0998 s0.3376-0.3479,0.2505-0.5187c-0.0005-0.001-0.001-0.002-0.0016-0.003c0.001,0.0018,0.0019,0.0036,0.0028,0.0054 c0.0871,0.1708-0.0251,0.403-0.2505,0.5187c-0.2238,0.1149-0.4755,0.0717-0.5642-0.0968 C-0.9481,0.7532-0.9491,0.7514-0.95,0.7496z"/>
                    <path id="btn1-meridian8" d="M-0.9903,0.6352c0.0408,0.1951,0.2748,0.3107,0.5226,0.2582 c0.2479-0.0525,0.4157-0.2532,0.375-0.4483C-0.093,0.4438-0.0933,0.4425-0.0935,0.4412 c0.0005,0.0021,0.0009,0.0042,0.0014,0.0063c0.0408,0.1951-0.1271,0.3958-0.375,0.4483 c-0.246,0.0521-0.4787-0.0613-0.5218-0.2543C-0.9894,0.6394-0.9899,0.6373-0.9903,0.6352z"/>
                    <path id="btn1-meridian9" d="M-0.9986,0.5053c-0.0158,0.2002,0.1762,0.3781,0.4288,0.3974 c0.2526,0.0193,0.4702-0.1274,0.486-0.3276c0.0001-0.0014,0.0002-0.0027,0.0003-0.0041 c-0.0001,0.0022-0.0003,0.0044-0.0005,0.0065c-0.0158,0.2002-0.2334,0.3469-0.486,0.3276 C-0.8205,0.886-1.0119,0.7106-0.999,0.5118C-0.9989,0.5096-0.9988,0.5074-0.9986,0.5053z"/>
                    <path id="btn1-meridian10" d="M-0.9712,0.3814c-0.0684,0.1839,0.0688,0.4041,0.3065,0.4918 s0.4859,0.0097,0.5543-0.1743C-0.11,0.6977-0.1095,0.6965-0.1091,0.6954c-0.0007,0.002-0.0014,0.004-0.0022,0.0059 c-0.0684,0.1839-0.3166,0.262-0.5543,0.1743c-0.2359-0.087-0.3732-0.3048-0.3078-0.4882 C-0.9727,0.3854-0.9719,0.3834-0.9712,0.3814z"/>
                    <path id="btn1-meridian11" d="M-0.9189,0.2809C-1.0243,0.4337-0.9403,0.6738-0.7313,0.817 s0.4639,0.1354,0.5693-0.0175c0.0006-0.0008,0.0012-0.0017,0.0017-0.0025c-0.0011,0.0016-0.0022,0.0033-0.0033,0.0049 C-0.269,0.9547-0.5239,0.9626-0.7329,0.8193C-0.9406,0.677-1.025,0.4389-0.9222,0.2857 C-0.9211,0.2841-0.92,0.2825-0.9189,0.2809z"/>
                    <path id="btn1-meridian12" d="M-0.8562,0.2078c-0.1232,0.1164-0.0816,0.3596,0.0929,0.5433 s0.416,0.2381,0.5392,0.1217c0.0006-0.0005,0.0011-0.0011,0.0017-0.0016c-0.0013,0.0012-0.0026,0.0025-0.0039,0.0037 c-0.1232,0.1164-0.3647,0.0619-0.5392-0.1217c-0.1736-0.1826-0.2159-0.4245-0.0946-0.5416 C-0.8588,0.2103-0.8575,0.2091-0.8562,0.2078z"/>
                    <path id="btn1-meridian13" d="M-0.793,0.1579C-0.9169,0.2392-0.904,0.4765-0.7641,0.6878 s0.3536,0.3166,0.4775,0.2352c0.0005-0.0003,0.0009-0.0006,0.0013-0.0009C-0.2867,0.923-0.2881,0.9239-0.2894,0.9248 c-0.1239,0.0814-0.3376-0.0239-0.4775-0.2352c-0.1392-0.2104-0.1527-0.4467-0.0303-0.529 C-0.7958,0.1597-0.7944,0.1588-0.793,0.1579z"/>
                    <path id="btn1-meridian14" d="M-0.7333,0.1247C-0.8444,0.176-0.8477,0.4038-0.7408,0.6335 s0.2838,0.3743,0.3949,0.323C-0.3456,0.9563-0.3453,0.9562-0.345,0.956C-0.3464,0.9567-0.3478,0.9573-0.3492,0.958 C-0.4603,1.0093-0.637,0.8647-0.744,0.635c-0.1067-0.229-0.1037-0.4562,0.0066-0.5083 C-0.7361,0.126-0.7347,0.1254-0.7333,0.1247z"/>
                    <path id="btn1-meridian15" d="M-0.6778,0.1034c-0.0886,0.0277-0.0984,0.246-0.022,0.4876 s0.2102,0.4149,0.2988,0.3872c0.0001,0,0.0003-0.0001,0.0004-0.0001C-0.402,0.9785-0.4033,0.9789-0.4047,0.9793 C-0.4933,1.007-0.627,0.8337-0.7035,0.5921C-0.7797,0.351-0.7701,0.133-0.6819,0.1047 C-0.6805,0.1042-0.6791,0.1038-0.6778,0.1034z"/>
                    <path id="btn1-meridian16" d="M-0.6257,0.0904c-0.0594,0.0112-0.0689,0.222-0.0212,0.4708 c0.0477,0.2488,0.1345,0.4415,0.1939,0.4303c0.0001,0,0.0001,0,0.0002,0c-0.0013,0.0003-0.0027,0.0005-0.004,0.0008 C-0.5162,1.0035-0.603,0.8108-0.6507,0.562c-0.0477-0.2486-0.0383-0.4592,0.021-0.4708 C-0.6284,0.0909-0.627,0.0907-0.6257,0.0904z"/>
                    <path id="btn1-meridian17" d="M-0.5759,0.0839C-0.602,0.086-0.6068,0.2924-0.5866,0.545 s0.0579,0.4556,0.084,0.4535c-0.0013,0.0001-0.0027,0.0002-0.004,0.0003c-0.0262,0.0021-0.0638-0.2009-0.084-0.4535 s-0.0154-0.459,0.0107-0.4611C-0.5786,0.0841-0.5772,0.084-0.5759,0.0839z"/>
                </g>
                <g id="btn1-circles-of-latitude">
                    <path id="btn1-circle-of-latitude4" d="M-0.6665,0.1c0.0794-0.0225,0.171-0.0225,0.2504,0 c-0.004-0.0011-0.008-0.0022-0.0121-0.0032c-0.0724-0.0184-0.1539-0.0184-0.2263,0C-0.6584,0.0978-0.6624,0.0989-0.6665,0.1z"/>
                    <path id="btn1-circle-of-latitude5" d="M-0.8128,0.1716c0.1243-0.0913,0.3467-0.104,0.4966-0.0283 c0.0169,0.0085,0.0324,0.018,0.0465,0.0283C-0.2715,0.1703-0.2732,0.169-0.275,0.1677 c-0.1256-0.0895-0.3466-0.1001-0.4937-0.0236c-0.0139,0.0072-0.0269,0.0151-0.0388,0.0236 C-0.8092,0.169-0.811,0.1703-0.8128,0.1716z"/>
                    <path id="btn1-circle-of-latitude6" d="M-0.8992,0.2544c0.0965-0.1203,0.3349-0.1703,0.5326-0.1116 c0.0798,0.0237,0.1443,0.063,0.1833,0.1116C-0.1845,0.253-0.1856,0.2515-0.1868,0.25c-0.0979-0.1192-0.336-0.1674-0.5317-0.1078 C-0.7952,0.1656-0.8573,0.2034-0.8956,0.25C-0.8968,0.2515-0.898,0.253-0.8992,0.2544z"/>
                    <path id="btn1-circle-of-latitude7" d="M-0.9563,0.346c0.0657-0.1395,0.3048-0.2203,0.534-0.1803 c0.1432,0.025,0.2551,0.0931,0.2961,0.1803c-0.0007-0.0016-0.0015-0.0032-0.0023-0.0047 c-0.0673-0.1388-0.3067-0.2181-0.5346-0.1771c-0.1401,0.0252-0.2496,0.0919-0.291,0.1771 C-0.9548,0.3428-0.9556,0.3444-0.9563,0.346z"/>
                    <path id="btn1-circle-of-latitude8" d="M-0.9894,0.4434c0.0329-0.1507,0.2603-0.2566,0.5078-0.2365 C-0.2792,0.2233-0.12,0.3202-0.0931,0.4434c-0.0004-0.0017-0.0007-0.0033-0.0011-0.005 c-0.0346-0.1503-0.2628-0.2551-0.5097-0.234c-0.1996,0.017-0.3565,0.1125-0.3844,0.234 C-0.9887,0.4401-0.9891,0.4418-0.9894,0.4434z"/>
                    <path id="btn1-circle-of-latitude9" d="M-1,0.5439c-0.0008-0.1542,0.2039-0.2797,0.4573-0.2802 s0.4594,0.1242,0.4602,0.2784c0,0.0006,0,0.0012,0,0.0018c0-0.0017,0-0.0034,0-0.005C-0.0833,0.3846-0.2893,0.26-0.5427,0.2604 C-0.7949,0.2609-0.9992,0.3853-1,0.5388C-1,0.5405-1,0.5422-1,0.5439z"/>
                    <path id="btn1-circle-of-latitude10" d="M-0.9883,0.6443C-1.0229,0.4939-0.8508,0.355-0.6039,0.334 c0.2469-0.0211,0.4751,0.0837,0.5097,0.234c0.0058,0.0253,0.0058,0.051,0,0.0763c0.0004-0.0017,0.0008-0.0033,0.0011-0.005 c0.0329-0.1507-0.141-0.2891-0.3886-0.3091S-0.9565,0.416-0.9894,0.5667c-0.0053,0.0241-0.0053,0.0485,0,0.0726 C-0.9891,0.6409-0.9887,0.6426-0.9883,0.6443z"/>
                    <path id="btn1-circle-of-latitude11" d="M-0.954,0.7415c-0.0673-0.1388,0.063-0.2845,0.291-0.3255 s0.4673,0.0383,0.5346,0.1771c0.0235,0.0484,0.0235,0.0999,0,0.1483c0.0008-0.0016,0.0015-0.0032,0.0023-0.0047 c0.0657-0.1395-0.0669-0.2851-0.2961-0.3251s-0.4683,0.0407-0.534,0.1803c-0.0223,0.0473-0.0223,0.0975,0,0.1448 C-0.9556,0.7383-0.9548,0.7399-0.954,0.7415z"/>
                    <path id="btn1-circle-of-latitude12" d="M-0.8956,0.8327C-0.9936,0.7135-0.9143,0.5686-0.7186,0.509 s0.4338-0.0114,0.5317,0.1078c0.0559,0.068,0.0559,0.148,0,0.2159c0.0012-0.0014,0.0024-0.0029,0.0035-0.0044 c0.0965-0.1203,0.0144-0.2655-0.1833-0.3242c-0.1977-0.0587-0.4362-0.0088-0.5326,0.1116c-0.0538,0.0671-0.0538,0.1456,0,0.2127 C-0.898,0.8298-0.8968,0.8312-0.8956,0.8327z"/>
                    <path id="btn1-circle-of-latitude13" d="M-0.8074,0.915c-0.1256-0.0895-0.1083-0.224,0.0388-0.3005 s0.368-0.0659,0.4937,0.0236c0.1119,0.0797,0.1119,0.1972,0,0.2769c0.0018-0.0013,0.0036-0.0026,0.0053-0.0039 c0.1243-0.0913,0.1035-0.2267-0.0465-0.3023s-0.3723-0.063-0.4966,0.0283c-0.1082,0.0795-0.1082,0.1946,0,0.2741 C-0.811,0.9124-0.8092,0.9137-0.8074,0.915z"/>
                    <path id="btn1-circle-of-latitude14" d="M-0.6544,0.9859c-0.1495-0.038-0.22-0.1426-0.1575-0.2336 s0.2343-0.1339,0.3838-0.0959s0.22,0.1426,0.1575,0.2336c-0.0298,0.0433-0.0863,0.0778-0.1575,0.0959 c0.004-0.001,0.0081-0.0021,0.0121-0.0032c0.1484-0.0421,0.2126-0.1494,0.1435-0.2398s-0.2455-0.1294-0.3939-0.0873 S-0.8791,0.805-0.8099,0.8954c0.0295,0.0385,0.0803,0.0694,0.1435,0.0873C-0.6624,0.9838-0.6584,0.9849-0.6544,0.9859z"/>
                    <path id="btn1-circle-of-latitude15" d="M-0.7689,0.8573c0,0.0765,0.1019,0.1386,0.2276,0.1386 s0.2276-0.062,0.2276-0.1386s-0.1019-0.1386-0.2276-0.1386S-0.7689,0.7808-0.7689,0.8573L-0.7689,0.8573z M-0.7724,0.8558 c0-0.0777,0.1034-0.1407,0.2311-0.1407s0.2311,0.063,0.2311,0.1407c0,0,0,0,0,0c0,0.0777-0.1034,0.1407-0.2311,0.1407 S-0.7723,0.9335-0.7724,0.8558C-0.7724,0.8558-0.7724,0.8558-0.7724,0.8558z"/>
                    <path id="btn1-circle-of-latitude16" d="M-0.6963,0.8839c0,0.0521,0.0694,0.0944,0.155,0.0944 s0.155-0.0423,0.155-0.0944s-0.0694-0.0944-0.155-0.0944S-0.6963,0.8318-0.6963,0.8839z M-0.7,0.8828 c0-0.0534,0.0711-0.0967,0.1588-0.0967s0.1588,0.0433,0.1588,0.0967s-0.0711,0.0967-0.1588,0.0967S-0.7,0.9362-0.7,0.8828z"/>
                    <path id="btn1-circle-of-latitude17" d="M-0.6189,0.9001c0,0.0261,0.0348,0.0473,0.0777,0.0473 s0.0777-0.0212,0.0777-0.0473s-0.0348-0.0473-0.0777-0.0473S-0.6189,0.8739-0.6189,0.9001z M-0.6229,0.8995 c0-0.0274,0.0365-0.0497,0.0816-0.0497c0.0451,0,0.0816,0.0222,0.0816,0.0497c0,0,0,0,0,0c0,0.0274-0.0365,0.0497-0.0816,0.0497 C-0.5863,0.9492-0.6229,0.927-0.6229,0.8995C-0.6229,0.8995-0.6229,0.8995-0.6229,0.8995z"/>
                </g>
            </g>
        </g>
    </g>
    <defs>
        <filter id="Adobe_OpacityMaskFilter" width="181.3432" height="181.3378" x="0.6214" y="1.165" filterUnits="userSpaceOnUse">
            <feColorMatrix type="matrix" values="1 0 0 0 0 0 1 0 0 0 0 0 1 0 0 0 0 0 1 0"/>
        </filter>
    </defs>
    <mask id="SVGID_1_" width="181.3432" height="181.3378" x="0.6214" y="1.165" maskUnits="userSpaceOnUse">
        <g filter="url(#Adobe_OpacityMaskFilter)">
            <radialGradient id="SVGID_2_" cx="91.7834" cy="91.9793" r="90.75" gradientUnits="userSpaceOnUse">
                <stop offset="0.6847" style="stop-color:#FFFFFF"/>
                <stop offset="0.7516" style="stop-color:#CDCDCD"/>
                <stop offset="0.9032" style="stop-color:#525252"/>
                <stop offset="1" style="stop-color:#000000"/>
            </radialGradient>
            <circle cx="91.7834" cy="91.9793" r="90.75" fill="url(#SVGID_2_)"/>
        </g>
    </mask>
    <g opacity="0.5" mask="url(#SVGID_1_)">
        <path fill="none" d="M173.9105,54.7019c-0.1748-0.3852-0.3564-0.7666-0.5364-1.1488v1.2231L173.9105,54.7019z"/>
        <path fill="none" d="M154.7932,35.0779l0.3988,1.3251l6.3598,0.0581l0.6031-0.8978c-1.0868-1.3585-2.2108-2.6857-3.3726-3.9786 l-0.0054,1.4701L154.7932,35.0779z"/>
        <path fill="none" d="M64.9707 47.1619L63.5542 46.2812 62.7151 47.1619 63.8367 48.0966z"/>
        <path fill="none" d="M59.0334 46.2293L59.0334 43.2293 59.0334 43.2293 59.0334 43.2293 53.9418 43.2293 51.2791 44.1197 50.7598 45.5504 52.8368 46.2293z"/>
        <path fill="none" d="M55.9565 46.2293L52.895 46.2293 50.7598 48.7082 50.4109 51.1025 52.031 51.8437z"/>
        <path fill="none" d="M49.364 39.29L50.1201 36.3448 47.9268 35.8214 45.5008 36.9763 46.9963 40.0419z"/>
        <path fill="none" d="M160.0334,144.3411l-3-4.7605v-7.4108l-2.8648-2.6877l-0.315-3.0823l3.3859-6.5467l-6.5258-11.4776 l0.7624-7.7846l-5.8582-0.9082l-2.1611-2.4535h-3.9339l-1.9981,3h-6.9289h-0.2326h-3.855l-8.8522-10.0567l0.0748-7.8448 l1.4622-0.8134l0.5442-3.2851h-2.077l-0.3612-2.8722l10.7342-7.1093v-5.2382l4.5235-2.3835l1.5367,0.6033h4.1291l3.8204-2.132 l10.9902-1.2098v5.3172l7.6156,1.9754l1.0232,1.0491h1.3612v-2.6797l4.8069-0.5668l4.5742,3.2466h5.8606 c-0.7793-2-1.6721-5.1328-2.6802-7.6699l-2.6154,0.0978l-2.4218-2.6321l-0.4652-4.2613l-2.48,1.3608l-1.3334,5.2291l-3.5808-3.8117 l-0.1454-3.6007l-3.4603-2.7096l-1.2794-1.0023h-4.0128l1.2711,3.3082l4.827,2.5576l0.8391,0.8219l-1.0427,0.4898l0.0457,2.8163 l-2.3512,0.972l-2.0064-0.4445l-1.2545-1.78l3.265,0.1734l0.8807-1.1886l-7.2363-4.8812l-0.5483-2.0771l-2.941,2.6585 l-2.9826-0.6107l-4.5362,5.8945l-0.8889,2.3097l-2.9037,0.2617l-4.2953,0.0249l-2.5672-1.2005l-0.7519-5.1011l0.9222-2.4301 l4.3659-0.9554l4.7646,0.9554l0.5816-2.6378l-2.023-0.4777l0.6937-4.1042l4.7937-0.7519l3.3523-4.7355l3.4603-0.4551l3.1238,0.5876 h1.1507l-0.6314-4.5713l-3.8009,1.4696l-1.3334-3.3549l-2.2058-0.3232l-0.4112-2.2884l1.7987-1.9605l4.2745-1.676l0.0652-0.1176 C135.5692,10.1804,114.5016,1.165,91.4113,1.165c-15.249,0-29.6142,4.0643-42.2217,10.0643h5.1427l2.4633,3.7575l4.0875,0.4165 l2.4633-2.3007l1.8527,0.9723l-3.3938,3.3379c0,0-4.6941,0.0904-4.4656,0.0904s0.3863,3.2376,0.3863,3.2376l5.6952-0.155 l0.6148-1.5355l3.9255-0.2319l0.4611-2.3093l-2.3096-0.3903l0.7685-2.0769l1.7696-0.5358l6.1604,0.3074l-3.3938,3.0823 l0.5483,2.3844l3.5434,0.54l-0.2326-4.3119l3.3897-1.7738l5.8355-0.6937l8.5314,3.8549v3.3108l2.9462,0.5498l-1.2162,2.4731 h-3.9255l-1.1631,3.1473l-8.981-2.0466l7.0577-3.7234l-2.6918-2.2667l-6.0856,0.7775l-0.5317,0.5528l-0.0208-0.0061l-0.0955,0.1341 l-1.7489,1.82l-2.8953,0.2454l0.2326,1.4458l1.0136,0.4196l-0.0415,0.4778l-2.3553,0.3365l-0.1745,1.3667l-2.2515,0.1163 l-0.4071-2.7167l-4.0419,1.2296l-8.2623,4.8353l0.9305,3.4021l2.1997,1.5038l4.5094,0.6397v5.2507l2.245-0.3448l1.9049-4.1042 l4.8501-1.5578v-6.2975l2.8524-2.0645l6.6644,1.9135l-0.4057,4.5139h1.7696l4.8519-2.7401l0.2326,5.2847l3.5392,2.067 l-0.1496,3.1957l-3.3855,1.1326l0.2326,1.0606l4.0793,1.8513l-0.0789,2.2279l-1.1839,0.0983 c-0.0083-0.0415-0.0124-0.063-0.0124-0.063l-5.1468-1.5264l-0.2202-1.5886h-0.0042l1.3651-1.1561v-1.5037l-1.5507-0.4071 l-0.3683,1.3874l-2.3199,0.4361l0.239-0.0955v0.1412l-1.4845,0.1495l-1.0538-1.5825l-1.1784-0.3695h-2.023l-1.2604,0.6767v1.6616 l1.9034,0.5774l1.7929,0.2409l-0.3394,0.1703l-1.5364,1.7281l-0.6789-0.864l-1.4984-0.3988l-4.1015,3.8633l0.5372,0.4403 l-6.0601,3.3564l-5.699,5.9319l-0.3903,2.642l-5.7158,3.7553l-2.833,2.8496l0.3116,5.6993l-3.9297-1.8278l0.0291-3.3356 l-10.9334,0.0042l-5.6619,2.8662l-2.4592,4.5321l-0.972,3.5932l1.591,3.4853l4.4614,0.5441l7.0909-4.7397l0.619,2.3471 l-2.1642,4.0875l5.3961,0.9222l0.5359,8.333l7.3942,1.2545l4.6982-5.4293l5.7034,1.159l2.0023,2.7873l5.4667-0.324l0.1537-1.6201 l3.0033,1.4664l3.3814,5.313l5.853,0.0831l2.1601,3.776l0.3074,4.6151l6.472,2.4675l8.1627,0.0789l2.3886,3.9214l3.6182,1.159 l-0.6938,3.236l-3.9671,5.043l-1.1548,11.1536l-3.5808,2.8331l-5.313-0.162l-1.7737,3.0782l1.3127,5.7824l-5.7783,7.3941 l-1.8485,3.3897l-5.5083,2.6461l-3.6223,0.5483l-0.1495,1.537l2.5423,0.727l-0.3074,1.6533l-2.2764,2.1933l1.3833,1.7364 l2.7416,0.0789l-0.1537,2.1185l-0.727,2.077l-0.2326,1.6949l4.0543,3.4146l-0.54,1.7738l-5.5165-0.1039l-5.4875-4.7896 l-4.2745-7.5146l0.5982-7.2571l-3.236-4.316l1.3404-7.3153l-1.8914-0.54v-15.8642c0,0-5.4238-4.0876-5.7312-4.0876 c-0.3115,0-2.8698-0.6896-2.8698-0.6896l-0.5438-3.0033l-7.016-8.7816l0.6917-3.1571l0.2275-5.1593l4.8472-3.3897l-0.694-5.7783 l-7.0827-0.5317l-5.5457-6.3183l-3.9256-1.0717l-2.5423-0.4652l0.364-2.3097l-3.1794-0.4611v1.3085l-8.1445-2.0022l-3.2851-4.9806 l1.311-2.4135l-5.129-7.4053l-0.8836-5.3989h-2.077l0.6937,5.2452l3.5434,5.4328l-0.3863,2.1432l-3.4765-0.4696l-4.1661-6.3102 v-7.3318l-3.2272-1.7803c-3.5067,9.6504-5.1848,20.0649-5.1848,30.927c0,50.0112,40.6604,90.4172,90.6716,90.4172 c27.7473,0,52.6932-12.2735,69.3039-32.2735h-0.5635V144.3411z"/>
        <path fill="none" d="M42.0334 22.4247L42.0334 21.2293 39.1451 21.2293 38.9707 22.2293 37.0334 22.2293 37.0334 22.2293 37.0334 22.2293 37.0334 24.2293 41.5046 24.2293z"/>
        <path fill="none" d="M42.0334 26.0055L40.0098 26.3503 36.8607 27.2725 37.5985 28.311 42.0334 28.0243z"/>
        <path fill="none" d="M57.8133 51.2495L56.4217 51.2902 55.9606 53.2293 58.9058 53.2293 61.0334 52.0595 61.0334 50.2608 58.5012 50.5557z"/>
        <path fill="none" d="M59.0334,49.6294l1.6703-0.3199l1.3297-0.8931v-2.1872h-3C59.0334,47.2293,59.0334,49.6294,59.0334,49.6294z"/>
        <path fill="none" d="M60.0334 43.6185L60.0334 45.816 61.9401 45.3549z"/>
        <path fill="none" d="M43.7146,18.2582l3.9255,0.8474l0.3032,1.5411l6.2435,0.2326l-0.8474-2.0022l-5.5456-0.1537l1.3002-1.1183 l-0.4569-1.3759h-5.0098l5.2368-4.0022c-2.842,1.5156-5.5955,3.13-8.2467,4.9297l1.0161-0.0308L43.7146,18.2582z"/>
        <path fill="none" d="M65.0334 51.2293L65.0334 49.6294 61.9134 48.2293 62.0334 48.2293 62.0334 50.2608 62.4866 51.2293z"/>
        <path fill="#663399" d="M147.2245,26.1965l-1.7987,1.9566l0.4112,2.2805l2.2058,0.3074l1.3334,3.3232l3.8009-1.4063l0.6314,4.5713 h-1.1507l-3.1238-0.5876l-3.4603,0.5183l-3.3523,4.7039L137.9278,42.6l-0.6937,4.0963l2.023,0.4738l-0.5816,2.6358l-4.7646-0.9564 l-4.3659,0.9549l-0.9222,2.4299l0.7519,5.101l2.5672,1.2005l4.2953-0.025l2.9037-0.2617l0.8889-2.3097l4.5362-5.8946l2.9826,0.6107 l2.941-2.6586l0.5483,2.077l7.2363,4.881l-0.8807,1.188l-3.265-0.1745l1.2545,1.7779l2.0064,0.4403l2.3512-0.9803l-0.0457-2.8331 l1.0427-0.5234l-0.8391-0.889l-4.827-2.4234l-1.2711-3.3082h4.0128l1.2794,1.0027l3.4603,2.8442l0.1454,3.5344l3.5808,3.7798 l1.3334-5.2426l2.48-1.3626l0.4652,4.2703l2.4218,2.6564l2.6154-0.046c-0.5312-1.3369-0.7627-2.6591-1.3548-3.9637l-0.2067,0.0738 v-1.2231c-3-6.4498-7.1427-12.4823-11.5489-17.9897l-0.768,0.8978l-6.4422-0.0581l-0.3177-1.3251l4.0768-2.023v-1.4701 c-2-2.5259-4.8061-4.9219-7.3437-7.1789l-0.128,0.1166L147.2245,26.1965z"/>
        <path fill="#663399" d="M178.2751,66.2293h-5.8606l-4.5742-3.2466l-4.8069,0.5668v2.6797h-1.3612l-1.0232-1.0491l-7.6156-1.9754 v-5.3172l-10.9902,1.2098l-3.8204,2.132h-4.1291l-1.5367-0.6033l-4.5235,2.3835v5.2382l-10.7342,7.1093l0.3612,2.8722h2.077 l-0.5442,3.2924l-1.4622,0.6783l-0.0748,7.9014l8.8522,10.128h3.855h0.2326h6.9289l1.9981-3h3.9339l2.1559,2.4535l5.853,0.7594 l-0.7727,7.859l6.5052,11.5148l-3.4271,6.5653l0.3974,3.0915l2.8648,2.697v7.4108l3,4.7605v5.8882h0.5635 c13.328-16,21.3677-36.1217,21.3677-58.3856C181.9646,82.9356,180.6721,74.2293,178.2751,66.2293z"/>
        <path fill="#663399" d="M9.0334,70.2707l4.1661,6.3017l3.2399,0.4611l0.5046-2.1601l-3.4842-5.3989l-0.6346-5.2452h2.077 l0.8765,5.3989l5.1219,7.4392l-1.3251,2.3965l3.3134,4.9722l8.1445,1.9938v-1.3085l3.1794,0.4611l-0.3357,2.3097l2.5281,0.4652 l3.9185,1.0717l5.5421,6.3183l7.0808,0.5317l0.6928,5.7783l-4.8482,3.3897l-0.2287,5.1593l-0.6938,3.1571l7.0119,8.7816 l0.5358,3.0033c0,0,2.5742,0.6896,2.8857,0.6896c0.3074,0,5.7312,4.0876,5.7312,4.0876v15.8642l1.8914,0.54l-1.3245,7.3153 l3.228,4.316l-0.6021,7.2571l4.2725,7.5146l5.4865,4.7896l5.516,0.1039l0.5398-1.7738l-4.0545-3.4146l0.2326-1.6949l0.7269-2.077 l0.1537-2.1185l-2.7416-0.0789l-1.3833-1.7364l2.2764-2.1933l0.3074-1.6533l-2.5423-0.727l0.1495-1.537l3.6223-0.5483 l5.5083-2.6461l1.8485-3.3897l5.7783-7.3941l-1.3127-5.7824l1.7737-3.0782l5.313,0.162l3.5808-2.8331l1.1548-11.1536l3.9671-5.043 l0.6938-3.236l-3.6182-1.159l-2.3886-3.9214l-8.1627-0.0789l-6.472-2.4675l-0.3074-4.6151l-2.1601-3.776l-5.853-0.0831 l-3.3814-5.313l-3.0033-1.4664l-0.1537,1.6201l-5.4667,0.324l-2.0023-2.7873l-5.7034-1.159l-4.6982,5.4293l-7.3942-1.2545 l-0.5359-8.333l-5.3961-0.9222l2.1642-4.0875l-0.619-2.3471l-7.0909,4.7397l-4.4614-0.5441l-1.591-3.4853l0.972-3.5932 l2.4592-4.5321l5.6619-2.8662l10.9334-0.0042l-0.0291,3.3356l3.9297,1.8278l-0.3116-5.6993l2.8331-2.8496l5.7159-3.7553 l0.3905-2.642l5.6993-5.9319l6.0607-3.3564l-0.5359-0.4403l4.1042-3.8633l1.5038,0.3988l0.6896,0.864l1.5578-1.7281l0.3821-0.1703 l-1.8784-0.2409l-1.9034-0.5774v-1.6616l1.2604-0.6767h2.023l0.9263,0.3695L83.5489,42.2l1.4845-0.1683v-0.1412l-0.2216,0.0955 l2.5893-0.4361l0.2076-1.3874l1.4247,0.4071v1.5037l-1.3651,1.1561h0.0042l0.2202,1.5883l5.1468,1.5564 c0,0,0.0041,0.0056,0.0124,0.0471l1.1839-0.1073l0.0789-2.2345l-4.0793-1.8588l-0.2326-1.0727l3.3855-1.1553l0.1496-3.2404 l-3.5392-2.156l-0.2326-5.1069l-4.8519,2.74h-1.7696l0.4652-4.5139l-6.724-1.7356l-2.8524,1.8867v6.2975l-4.7951,1.5578 l-2.0194,4.1042l-2.1855,0.3448V34.92l-4.5094-0.6397l-2.2547-1.5038l-0.903-3.4021l8.2761-4.8353l4.0487-1.2296l0.4105,2.7167 l2.2532-0.1163l0.1753-1.3667l2.3558-0.3365l0.0417-0.4777l-1.0135-0.4195l-0.2326-1.4456l2.8954-0.2451l1.7489-1.8194 l0.0955-0.1329l0.0208,0.0083l0.5317-0.5483l6.0856-0.7685l2.6918,2.2847l-7.0577,3.7594l8.981,1.9746l1.1631-3.1473h3.9255 l1.2162-2.4731l-2.9462-0.5498v-3.3108l-8.5314-3.8549l-5.9211,0.6937l-3.3469,1.7738l0.254,4.3119l-3.5326-0.54l-0.543-2.3844 l3.3965-3.0823l-6.1591-0.3074l-1.769,0.5359l-0.7681,2.077l2.3098,0.3905l-0.461,2.3097l-3.9255,0.2326l-0.6148,1.537 l-5.6952,0.1579c0,0-0.1579-3.2318-0.3863-3.2318c-0.2285,0,4.4656-0.0789,4.4656-0.0789l3.3938-3.3149l-1.8527-0.9263 l-2.4633,2.3927l-4.0875-0.6004l-2.4633-3.7575h-5.1427c-0.1084,0-0.2173,0.5723-0.3255,0.63l-5.2368,4.37h5.0098l0.4569,1.3759 l-1.3002,1.1636l5.5456,0.1311l0.8474,1.9909l-6.2435-0.2383l-0.3032-1.544l-3.9255-0.8488l-2.0812-1.1555l-1.0161,0.0078 C24.9808,27.7262,12.3671,43.103,5.8062,61.1587l3.2272,1.7802V70.2707z"/>
        <path fill="#663399" d="M61.0334 52.0595L58.9058 53.2293 55.9606 53.2293 56.4217 51.2902 57.8133 51.2096 58.5012 50.5358 61.0334 50.2608z"/>
        <path fill="#663399" d="M62.0334,48.4164l-1.3297,0.8931l-1.6703,0.3199c0,0,0-2.4001,0-3.4001h3V48.4164z"/>
        <path fill="#663399" d="M63.5542 46.2812L64.9707 47.1619 63.8367 48.0966 62.7151 47.1619z"/>
        <path fill="#663399" d="M62.0334 48.2293L61.9134 48.2293 65.0334 49.6294 65.0334 51.2293 62.4866 51.2293 62.0334 50.2608z"/>
        <path fill="#663399" d="M60.0334 43.6185L61.9401 45.3549 60.0334 45.816z"/>
        <path fill="#663399" d="M51.2791 44.1197L53.9418 43.2293 59.0334 43.2293 59.0334 43.2293 59.0334 43.2293 59.0334 46.2293 52.8368 46.2293 50.7598 45.5504z"/>
        <path fill="#663399" d="M50.7598 48.7082L52.895 46.2293 55.9565 46.2293 52.031 51.8861 50.4109 51.0179z"/>
        <path fill="#663399" d="M47.9268 35.8214L50.1201 36.3448 49.364 39.29 46.9963 40.0419 45.5008 36.9763z"/>
        <path fill="#663399" d="M42.0334 28.0243L37.642 28.311 36.8607 27.2725 39.9663 26.3503 42.0334 26.0055z"/>
        <path fill="#663399" d="M37.0334 22.2293L37.0334 22.2293 37.0334 22.2293 38.9707 22.2293 39.1451 21.2293 42.0334 21.2293 42.0334 22.4247 41.5046 24.2293 37.0334 24.2293z"/>
    </g>
</svg>
