<svg xmlns="http://www.w3.org/2000/svg" id="btn2" width="309.2202px" height="238.3593px" x="0px" y="0px" version="1.1" viewBox="0 0 309.2202 238.3593" enable-background="new 0 0 309.2202 238.3593" xml:space="preserve">
    <defs>
        <filter id="Adobe_OpacityMaskFilter" width="309.2202" height="238.3593" x="0" y="0" filterUnits="userSpaceOnUse">
            <feColorMatrix type="matrix" values="1 0 0 0 0 0 1 0 0 0 0 0 1 0 0 0 0 0 1 0"/>
        </filter>
    </defs>
    <mask id="SVGID_1_" width="309.2202" height="238.3593" x="0" y="0" maskUnits="userSpaceOnUse">
        <g filter="url(#Adobe_OpacityMaskFilter)">
            <radialGradient id="SVGID_2_" cx="160.7012" cy="121.7579" r="108.0422" gradientUnits="userSpaceOnUse">
                <stop offset="0.5305" style="stop-color:#FFFFFF"/>
                <stop offset="0.6829" style="stop-color:#A7A7A7"/>
                <stop offset="0.9594" style="stop-color:#000000"/>
            </radialGradient>
            <circle cx="160.7011" cy="121.7579" r="108.0422" fill="url(#SVGID_2_)" stroke="#000000" stroke-miterlimit="10"/>
        </g>
    </mask>
    <g opacity="0.9" mask="url(#SVGID_1_)">
        <g fill="none" stroke="#1B1F77" stroke-miterlimit="10" opacity="0.5">
            <path d="M58.1874 24.3927H257.1874V224.3927H58.1874z"/>
            <path d="M57.6874 214.3927L257.6874 214.3927"/>
            <path d="M57.6874 205.3927L257.6874 205.3927"/>
            <path d="M57.6874 195.3927L257.6874 195.3927"/>
            <path d="M57.6874 186.3927L257.6874 186.3927"/>
            <path d="M57.6874 176.3927L257.6874 176.3927"/>
            <path d="M57.6874 167.3927L257.6874 167.3927"/>
            <path d="M57.6874 157.3927L257.6874 157.3927"/>
            <path d="M57.6874 148.3927L257.6874 148.3927"/>
            <path d="M57.6874 138.3927L257.6874 138.3927"/>
            <path d="M57.6874 128.3927L257.6874 128.3927"/>
            <path d="M57.6874 119.3927L257.6874 119.3927"/>
            <path d="M57.6874 109.3927L257.6874 109.3927"/>
            <path d="M57.6874 100.3927L257.6874 100.3927"/>
            <path d="M57.6874 90.3927L257.6874 90.3927"/>
            <path d="M57.6874 81.3927L257.6874 81.3927"/>
            <path d="M57.6874 71.3927L257.6874 71.3927"/>
            <path d="M57.6874 62.3927L257.6874 62.3927"/>
            <path d="M57.6874 52.3927L257.6874 52.3927"/>
            <path d="M57.6874 43.3927L257.6874 43.3927"/>
            <path d="M57.6874 33.3927L257.6874 33.3927"/>
            <path d="M248.1874 23.8927L248.1874 223.8927"/>
            <path d="M238.1874 23.8927L238.1874 223.8927"/>
            <path d="M229.1874 23.8927L229.1874 223.8927"/>
            <path d="M219.1874 23.8927L219.1874 223.8927"/>
            <path d="M210.1874 23.8927L210.1874 223.8927"/>
            <path d="M200.1874 23.8927L200.1874 223.8927"/>
            <path d="M191.1874 23.8927L191.1874 223.8927"/>
            <path d="M181.1874 23.8927L181.1874 223.8927"/>
            <path d="M172.1874 23.8927L172.1874 223.8927"/>
            <path d="M162.1874 23.8927L162.1874 223.8927"/>
            <path d="M153.1874 23.8927L153.1874 223.8927"/>
            <path d="M143.1874 23.8927L143.1874 223.8927"/>
            <path d="M134.1874 23.8927L134.1874 223.8927"/>
            <path d="M124.1874 23.8927L124.1874 223.8927"/>
            <path d="M115.1874 23.8927L115.1874 223.8927"/>
            <path d="M105.1874 23.8927L105.1874 223.8927"/>
            <path d="M96.1874 23.8927L96.1874 223.8927"/>
            <path d="M86.1874 23.8927L86.1874 223.8927"/>
            <path d="M77.1874 23.8927L77.1874 223.8927"/>
            <path d="M67.1874 23.8927L67.1874 223.8927"/>
        </g>
        <g id="XMLID_3_">
            <g opacity="0.6">
                <path d="M294.2174,163.9727v-0.01c0-0.03,0-0.05-0.01-0.08c0,0-0.22-1.34-1.15-2.86c-0.01-0.02-0.02-0.03-0.03-0.05 c-1.9-3.74-6.43-9.18-15.95-6.26c0.9-0.67,9.49-6.87,14.71-3.53c5.51,3.53,3.91,4.22,6.57,5.52c2.67,1.3,7.88,4.32,9.02,8.14 c1.14,3.82,2.74,14.86-0.96,30.21c0,0-0.34,3.15-2.41,3.37c-2.74,0.28-10.11-0.99-10.11-0.99s-0.11-0.03-0.29-0.11l0.83-1.18 l-1.84-8.27l-0.5,0.73c0.64-5.27,1.54-13.46,1.95-19.02l0.01-0.02c0.02-0.31,0.05-0.61,0.06-0.9 C294.2774,166.3927,294.3274,164.6727,294.2174,163.9727z"/>
                <path d="M292.5974,187.8727l1.84,8.27l-0.83,1.18c-0.73-0.31-2.57-1.38-2.14-3.94c0.12-0.72,0.35-2.46,0.63-4.78 L292.5974,187.8727z"/>
                <path d="M294.2174,163.9727c0.11,0.7,0.06,2.42-0.1,4.69c0.16-2.35,0.21-4.1,0.08-4.76c0.01,0.02,0.02,0.04,0.02,0.06V163.9727z"/>
                <path d="M294.1974,163.9027c0.13,0.66,0.08,2.41-0.08,4.76c-0.02,0.3-0.05,0.6-0.07,0.92l-20.01,28.27l-0.02-0.01l-0.77-3.99 l-4.14,0.7l21.21-29.78c2.38-0.59,3.88-0.89,3.88-0.89C294.1974,163.8927,294.1974,163.9027,294.1974,163.9027z"/>
                <path d="M294.2074,163.8827c0.01,0.03,0.01,0.05,0.01,0.08c0-0.02-0.01-0.04-0.02-0.06c0,0,0-0.01,0-0.02 c-0.12-0.42-0.46-1.53-1.14-2.86C293.9874,162.5427,294.2074,163.8827,294.2074,163.8827z"/>
                <path d="M294.1174,168.6628c-0.01,0.29-0.04,0.59-0.06,0.9l-0.01,0.02C294.0674,169.2627,294.0974,168.9627,294.1174,168.6628z"/>
                <path d="M293.6074,197.3227l-6.54,9.27l-0.07-0.05c-0.28,0.21-0.56,0.36-0.85,0.46c-0.29,0.1-0.58,0.15-0.87,0.15 s-0.57-0.05-0.84-0.13c-0.28-0.09-0.54-0.22-0.78-0.38c-0.25-0.16-0.48-0.35-0.68-0.59c-0.2-0.22-0.37-0.49-0.51-0.77 c-0.14-0.29-0.24-0.6-0.31-0.93s-0.09-0.69-0.07-1.06l10.01-14.69c-0.28,2.32-0.51,4.06-0.63,4.78 C291.0374,195.9427,292.8774,197.0127,293.6074,197.3227z"/>
                <path d="M293.0574,161.0227c0.68,1.33,1.02,2.44,1.14,2.86c0,0-1.5,0.3-3.88,0.89l2.71-3.8 C293.0374,160.9927,293.0474,161.0027,293.0574,161.0227z"/>
                <path d="M293.0274,160.9727l-2.71,3.8c-3.36,0.83-8.47,2.26-13.59,4.26l4.73-6.25c0,0-0.42-2.09-1.67-2.93 c-1.26-0.84-3.93,0.09-3.93,0.09l-11.89,15.53c-4.9,2.66-11.39,5.97-17.46,9.01l0.13-0.85l2.33-2.59l6.28-6.95 c0,0,1-2.52-0.26-3.36c-1.25-0.84-3.5-0.53-3.5-0.53l-3.33,3.59l0.96-6.19c5.62-2.7,9.94-4.77,9.94-4.77l17.94-8.06 c0,0,0.02-0.02,0.07-0.05l0.01-0.01C286.5974,151.7927,291.1274,157.2327,293.0274,160.9727z"/>
                <path d="M287.0674,206.5927l-4.29,6.09c-0.71,0.13-1.36,0.5-1.36,0.5s-4.66,2.73-9.94,5.68l10.61-15.57 c-0.02,0.37,0,0.73,0.07,1.06s0.17,0.64,0.31,0.93c0.14,0.28,0.31,0.55,0.51,0.77c0.2,0.24,0.43,0.43,0.68,0.59 c0.24,0.16,0.5,0.29,0.78,0.38c0.27,0.08,0.55,0.13,0.84,0.13s0.58-0.05,0.87-0.15c0.29-0.1,0.57-0.25,0.85-0.46 L287.0674,206.5927z"/>
                <path fill="#1B1F77" d="M244.9974,231.2227c-0.3-0.09-5.07-1.66-7.87-3.54c-2.88-1.93-6.16-8.78-6.89-13.93 c-0.39-2.77-0.35-10.22,0.02-17.92c0.06-1.14,0.12-2.29,0.18-3.42h0.01c0.02-0.34,0.04-0.68,0.06-1.02 c0.09-1.39,0.19-2.77,0.3-4.1c0.05-0.57,0.1-1.14,0.15-1.69c0.12-1.28,0.25-2.5,0.39-3.64c0.02-0.23,0.05-0.46,0.08-0.68 c0.02-0.15,0.04-0.29,0.06-0.43c0.04-0.32,0.08-0.63,0.13-0.94c0.02-0.19,0.05-0.39,0.09-0.58c0.06-0.39,0.12-0.77,0.18-1.12 c0.06-0.35,0.13-0.74,0.2-1.17c0.07-0.42,0.15-0.89,0.23-1.38c-0.01,0-0.01,0.01-0.02,0.01c0.27-1.78,0.57-3.96,0.9-6.42 l2.75-4.02l-0.24-9.48l-0.98,1.41c0.85-7.03,1.72-14.38,2.4-20.04c0.28-0.4,0.57-0.8,0.85-1.2c1.16-1.73,0.03-11.24,0.03-11.24 l-0.42,0.62c-1.33-4.41-5.6-11.71-18.92-5.31l4.25-2.12c0,0,8.6-6.06,14.93-2.27c0,0,0.97,0.71,1.86,1.79 c0.88,1.07,4.76,3.67,6.09,4.08c1.33,0.41,4.51,1.9,5.17,4.75c0.66,2.86,2.12,11.72,1.21,18.34c-0.8,5.88-6.91,47.71-8.28,57.12 l-0.82,1.07l0.5,10.1l0.87-1.14c0.63,5.42,1.57,11.88,2.62,13.77c0,0,0,0,0,0.01c0.01,0.01,0.01,0.02,0.01,0.03 c0.02,0.08,0.08,0.3,0.2,0.64c0.07,0.17,0.15,0.38,0.25,0.61c0.03,0.09,0.08,0.19,0.13,0.3c0.26,0.6,0.64,1.32,1.14,2.09 c0.2,0.3,0.42,0.61,0.67,0.93c0.11,0.16,0.24,0.31,0.38,0.47c0.17,0.22,0.37,0.44,0.57,0.65l0.01-0.01l3.36-4.75 c1.35-0.02,2.74-0.19,4.05-0.64c2.39-0.81,8.33-3.99,13.64-6.95l-6.58,9.65c0,0-0.18,1.8,1.15,2.7c1.33,0.89,3.15,0.74,3.15,0.74 l13.58-19.27c0.8-0.15,1.67-0.02,1.86,1.2l0.19,12.67c0,0,0.44,2.69-2.79,4.39c-3.22,1.69-24.39,10.33-31.71,5.43 c-4.76-3.19-5.32-5.14-5.32-5.14S245.0074,231.2327,244.9974,231.2227z"/>
                <path d="M282.7774,212.6827l-13.58,19.27c0,0-1.82,0.15-3.15-0.74c-1.33-0.9-1.15-2.7-1.15-2.7l6.58-9.65 c5.28-2.95,9.94-5.68,9.94-5.68S282.0674,212.8127,282.7774,212.6827z"/>
                <path d="M281.4574,162.7827l-4.73,6.25c-2.92,1.15-5.84,2.48-8.43,4.01c-1.21,0.71-2.68,1.53-4.33,2.43l11.89-15.53 c0,0,2.67-0.93,3.93-0.09C281.0374,160.6927,281.4574,162.7827,281.4574,162.7827z"/>
                <path d="M276.7274,169.0327l-15.38,20.32c-0.38,0.16-0.75,0.25-1.1,0.29c-0.35,0.04-0.67,0.04-0.98-0.02 c-0.32-0.05-0.6-0.15-0.88-0.28c-0.27-0.13-0.52-0.29-0.75-0.48c-0.23-0.19-0.43-0.41-0.62-0.65c-0.18-0.23-0.34-0.48-0.48-0.74 c-0.27-0.53-0.44-1.1-0.5-1.64l7.93-10.36c1.65-0.9,3.12-1.72,4.33-2.43C270.8874,171.5127,273.8074,170.1827,276.7274,169.0327z"/>
                <path d="M274.0374,197.8527l-20.25,28.6c-3.56,0.06-6.71-0.96-6.71-0.96s0-0.01-0.01-0.01l22.04-30.93l4.14-0.7l0.77,3.99 L274.0374,197.8527z"/>
                <path d="M261.3474,189.3527l-16.9,22.36c-0.52-4.42-0.83-8.15-0.83-8.15s0.1-0.67,0.28-1.88l12.14-15.85 c0.06,0.54,0.23,1.11,0.5,1.64c0.14,0.26,0.3,0.51,0.48,0.74c0.19,0.24,0.39,0.46,0.62,0.65c0.23,0.19,0.48,0.35,0.75,0.48 c0.28,0.13,0.56,0.23,0.88,0.28c0.31,0.06,0.63,0.06,0.98,0.02C260.5974,189.6027,260.9674,189.5127,261.3474,189.3527z"/>
                <path d="M254.9874,170.7327c1.26,0.84,0.26,3.36,0.26,3.36l-6.28,6.95l-1.37-3.6l0.56-3.65l3.33-3.59 C251.4874,170.2027,253.7374,169.8927,254.9874,170.7327z"/>
                <path d="M253.7874,226.4527l-3.36,4.75c-0.21-0.21-0.4-0.43-0.58-0.64c-0.13-0.16-0.26-0.32-0.38-0.47 c-0.25-0.32-0.47-0.63-0.67-0.93c-0.5-0.77-0.88-1.49-1.14-2.09c-0.05-0.1-0.09-0.2-0.13-0.3c-0.1-0.23-0.18-0.44-0.25-0.61 c-0.11-0.33-0.17-0.55-0.2-0.64c0-0.01,0-0.02-0.01-0.03c0-0.01,0-0.01,0-0.01c0.01,0,0.01,0.01,0.01,0.01 S250.2274,226.5127,253.7874,226.4527z"/>
                <path d="M250.4274,231.2027l-0.01,0.01c-0.2-0.21-0.4-0.43-0.57-0.65C250.0274,230.7727,250.2174,230.9927,250.4274,231.2027z"/>
                <path d="M249.4674,230.0927c0.12,0.15,0.25,0.31,0.38,0.47C249.7074,230.4027,249.5774,230.2527,249.4674,230.0927z"/>
                <path d="M249.4674,230.0927c-0.25-0.32-0.47-0.63-0.67-0.93C248.9974,229.4627,249.2174,229.7727,249.4674,230.0927z"/>
                <path d="M247.5974 177.4427L248.9674 181.0427 246.6374 183.6327z"/>
                <path d="M248.1574 173.7927L247.5974 177.4427 247.4874 177.1527 247.9374 174.0327z"/>
                <path d="M247.5274,226.7727c0.04,0.1,0.08,0.2,0.13,0.3C247.6074,226.9627,247.5574,226.8627,247.5274,226.7727z"/>
                <path d="M247.4874 177.1527L247.5974 177.4427 246.6374 183.6327 246.5274 183.7527z"/>
                <path d="M247.0774,225.5227c0.03,0.09,0.09,0.31,0.2,0.64C247.1574,225.8227,247.0974,225.6027,247.0774,225.5227z"/>
                <path d="M244.4474,211.7127l-0.87,1.14l-0.5-10.1l0.82-1.07c-0.18,1.21-0.28,1.88-0.28,1.88S243.9274,207.2927,244.4474,211.7127 z"/>
                <path d="M238.2574,128.1427c0,0-0.02,0-0.06,0c-0.04-0.49-0.16-1.49-0.58-2.72c0.01-0.01,0-0.01,0-0.01 c-0.01-0.03-0.02-0.07-0.03-0.11l0.42-0.62c0,0,1.13,9.51-0.03,11.24c-0.28,0.4-0.57,0.8-0.85,1.2 C237.6274,132.9227,238.0374,129.6628,238.2574,128.1427z"/>
                <path d="M238.1974,128.1427c0.04,0,0.06,0,0.06,0c-0.22,1.52-0.63,4.78-1.13,8.98c-5.79,8.18-11.64,16.33-17.45,24.5l-3.96,1.03 l-0.68-4.29l19.84-29.1h0.01l3.32-0.8C238.2074,128.4627,238.2074,128.3527,238.1974,128.1427z"/>
                <path d="M238.1674,128.1427c0.01-0.01,0.02-0.01,0.03,0c0.01,0.21,0.01,0.32,0.01,0.32l-3.32,0.8l0.61-0.9 C236.9874,128.1327,237.8874,128.1327,238.1674,128.1427z"/>
                <path d="M238.1974,128.1427c-0.01-0.01-0.02-0.01-0.03,0c-0.02-0.17-0.12-1.28-0.55-2.72 C238.0374,126.6527,238.1574,127.6527,238.1974,128.1427z"/>
                <path d="M238.1674,128.1427c-0.28-0.01-1.18-0.01-2.67,0.22l2.08-3.06c0.02,0.03,0.03,0.07,0.04,0.11c0,0,0.01,0,0,0.01 C238.0474,126.8627,238.1474,127.9727,238.1674,128.1427z"/>
                <path d="M237.5874,125.3027c0.01,0.04,0.02,0.08,0.03,0.11c-0.01-0.04-0.02-0.08-0.04-0.11H237.5874z"/>
                <path fill="#1B1F77" d="M237.5874,125.3027h-0.01c-0.02-0.08-0.05-0.17-0.08-0.25l-2.07,3.32c-2.66,0.41-7.17,1.54-13.46,4.56 l4.67-6.21c0,0-0.18-1.93-1.43-2.77c-1.26-0.85-3.62-0.04-3.62-0.04l-11.93,15.64c-10.15,5.51-17.46,9.16-17.46,9.16 s-0.58,0.33-0.96,0.55c0.02-0.15,0.04-0.3,0.07-0.45l0.17-0.97l3.1-3.18l6.24-6.37c0,0,0.67-2.18-0.51-3.65 c-1.17-1.46-3.19-0.99-3.19-0.99l-3.83,3.9c0.36-1.92,0.7-3.76,1.02-5.51c2.85-1.35,5.7-2.71,5.7-2.71l18.63-9.32 c0.01,0,0.02-0.01,0.03-0.02C231.9874,113.5927,236.2574,120.8927,237.5874,125.3027z"/>
                <path d="M237.4974,125.0527c0.03,0.08,0.06,0.17,0.08,0.25l-2.08,3.06c-0.02,0-0.05,0-0.07,0.01L237.4974,125.0527z"/>
                <path fill="#333333" d="M235.7074,155.7527l0.24,9.48l-2.75,4.02c0.48-3.6,1-7.78,1.53-12.09L235.7074,155.7527z"/>
                <path d="M235.4974,128.3627l-0.61,0.9h-0.01l0.55-0.89C235.4474,128.3627,235.4774,128.3627,235.4974,128.3627z"/>
                <path d="M227.9474,166.9128l6.78-9.75c-0.53,4.31-1.05,8.49-1.53,12.09l-0.58,0.84c-0.28,0.09-0.56,0.15-0.83,0.16 c-0.27,0.01-0.54-0.02-0.8-0.08c-0.27-0.06-0.53-0.14-0.78-0.25c-0.24-0.12-0.48-0.26-0.7-0.42c-0.44-0.33-0.81-0.73-1.09-1.18 c-0.13-0.22-0.24-0.45-0.32-0.69C228.0174,167.3927,227.9674,167.1527,227.9474,166.9128z"/>
                <path d="M232.6174,170.0927l-5.55,8.1c-3.75,1.81-7.35,3.56-10.5,5.09l11.38-16.37c0.02,0.24,0.07,0.48,0.15,0.72 c0.08,0.24,0.19,0.47,0.32,0.69c0.28,0.45,0.65,0.85,1.09,1.18c0.22,0.16,0.46,0.3,0.7,0.42c0.25,0.11,0.51,0.19,0.78,0.25 c0.26,0.06,0.53,0.09,0.8,0.08C232.0574,170.2427,232.3374,170.1827,232.6174,170.0927z"/>
                <path fill="#1B1F77" d="M232.2974,175.6727c0.01,0,0.01-0.01,0.02-0.01c-0.08,0.49-0.16,0.96-0.23,1.38 C232.1474,176.6227,232.2274,176.1628,232.2974,175.6727z"/>
                <path fill="#1B1F77" d="M183.5974,92.7827c0-0.05-0.01-0.1,0-0.15c-0.09-2.12-1.3-15.13-16.36-10.37 c3.93-1.71,11.75-5.37,15.09-3c4.03,2.86,4.87,4.23,7.65,5.12c2.77,0.9,5.66,2.83,7.17,8.98c1.37,5.63,1.37,15.33-2.84,38.68 c-0.04,0.02-0.09,0.04-0.13,0.06l-0.95,5.51l-1.16,1.18l-0.27,2h0.01l-1.06,7.79l0.71-0.72c-0.06,0.32-0.11,0.64-0.15,0.95 l-0.08,0.46c0,0,0.01,0,0.01-0.01c-0.95,6.31-1.51,11.86-1.72,16.69l-0.57,0.74c-0.5,0.92,0.13,9.98,0.13,9.98l0.49-0.66 c0.42,6.19,1.59,10.6,3.2,13.48c0,0,0.08,0.4,0.31,1.05c0.01,0.02,0.01,0.04,0.02,0.06c0,0,0,0.01,0.01,0.02 c0.01,0.03,0.02,0.07,0.04,0.11c0.14,0.38,0.33,0.82,0.58,1.31c0.03,0.06,0.06,0.13,0.11,0.2c0.1,0.21,0.23,0.44,0.37,0.67 c0.04,0.08,0.1,0.17,0.16,0.26c0,0.01,0.01,0.02,0.02,0.03c0.01,0.02,0.03,0.05,0.05,0.08c0.01,0.02,0.03,0.05,0.05,0.08 c0.05,0.08,0.1,0.15,0.15,0.23c0.02,0.03,0.04,0.06,0.07,0.09c0.02,0.05,0.06,0.1,0.1,0.15c0.02,0.03,0.04,0.06,0.07,0.1 c0.01,0.01,0.02,0.03,0.04,0.05c0.01,0.02,0.03,0.05,0.05,0.08c0.08,0.1,0.16,0.2,0.24,0.3c0.02,0.04,0.05,0.08,0.08,0.11 c0.11,0.13,0.22,0.26,0.33,0.39c0.06,0.07,0.12,0.14,0.19,0.21c0,0.01,0.01,0.02,0.03,0.03v0.01c0.05,0.05,0.1,0.11,0.16,0.16 l-0.13-0.2c1.1-1.53,2.2-3.07,3.3-4.61c2.17-0.24,4.87-0.95,8.08-2.58c1.92-0.97,5.24-2.61,9.32-4.6l-6.19,8.91 c0,0.07,0.01,2.05,1.09,2.78c1.1,0.73,3.45,0.95,3.45,0.95l12.15-17.73c1.72-0.83,3.48-1.67,5.23-2.52 c-0.07,0.49-0.15,0.95-0.21,1.37c-0.07,0.43-0.14,0.82-0.2,1.17c-0.06,0.36-0.13,0.73-0.18,1.12c-0.03,0.19-0.06,0.38-0.09,0.58 c-0.05,0.3-0.09,0.62-0.13,0.94c-0.02,0.14-0.04,0.28-0.06,0.43c-0.03,0.22-0.06,0.45-0.08,0.68c-0.14,1.14-0.27,2.36-0.39,3.64 c-0.05,0.56-0.1,1.12-0.15,1.69c-0.11,1.33-0.21,2.71-0.3,4.1c-0.02,0.34-0.04,0.68-0.07,1.02c-0.4,0.2-1.6,0.78-1.6,0.78 s-24.51,17.98-37.73,2.69c0,0-6.02-2.76-9.28-5.1c-3.25-2.34-6.85-12.79-6.93-24.89c-0.02-2.36,0.11-5.16,0.34-8.13 c0.01,0,0.01-0.01,0.02-0.01c0.49-5.54,1.24-11.36,1.96-17.63c-0.03,0.02-0.07,0.03-0.1,0.05c0.39-2.96,0.75-5.5,1.01-7.27 l3.45-5.23l-1.03-7.63l-0.67,0.98c0.92-6.41,2.11-14.84,2.89-20.82c0.01-0.03,0.01-0.05,0.01-0.08c0.4-2.39,0.63-4.03,0.74-5.28 c0.02-0.22,0.04-0.43,0.05-0.63C183.6074,93.6727,183.6074,93.2127,183.5974,92.7827z"/>
                <path fill="#1B1F77" d="M231.8874,178.2127c-0.06,0.35-0.12,0.73-0.18,1.12 C231.7574,178.9427,231.8274,178.5727,231.8874,178.2127z"/>
                <path fill="#1B1F77" d="M231.4274,181.2827c-0.03,0.22-0.06,0.45-0.08,0.68 C231.3674,181.7327,231.3974,181.5027,231.4274,181.2827z"/>
                <path fill="#1B1F77" d="M230.8074,187.2927c0.05-0.57,0.1-1.13,0.15-1.69C230.9074,186.1527,230.8574,186.7227,230.8074,187.2927 z"/>
                <path fill="#1B1F77" d="M230.5074,191.3927c-0.02,0.34-0.04,0.68-0.06,1.02h-0.01 C230.4674,192.0727,230.4874,191.7327,230.5074,191.3927z"/>
                <path d="M226.6374,126.7227l-4.67,6.21c-1.49,0.71-3.09,1.53-4.79,2.48c-2.62,1.47-5.15,2.85-7.52,4.14l11.93-15.64 c0,0,2.36-0.81,3.62,0.04C226.4574,124.7927,226.6374,126.7227,226.6374,126.7227z"/>
                <path d="M221.9674,132.9327l-15.05,20.02l-0.72-4.11l-4.18,0.72l7.64-10.01c2.37-1.29,4.9-2.67,7.52-4.14 C218.8774,134.4627,220.4774,133.6427,221.9674,132.9327z"/>
                <path d="M215.7174,162.6527l3.96-1.03c-5.99,8.42-11.95,16.85-17.95,25.26l-3.86-3.36l17.17-25.16L215.7174,162.6527z"/>
                <path d="M206.1974,148.8427l0.72,4.11l-17.35,23.06c-0.2-2.94-0.22-6.28-0.05-10.06l12.5-16.39L206.1974,148.8427z"/>
                <path d="M201.7274,186.8827c-0.85,1.2-1.71,2.39-2.56,3.58c-2.83,0.32-4.75-0.18-5.67-0.53l4.37-6.41L201.7274,186.8827z"/>
                <path d="M200.3074,134.6427c1.18,1.47,0.51,3.65,0.51,3.65l-6.24,6.37c0.04-0.35,0.05-0.67,0.02-0.96 c-0.02-0.28-0.07-0.53-0.14-0.75c-0.15-0.45-0.38-0.79-0.67-1.06c-0.28-0.28-0.61-0.48-0.96-0.65c-0.07-0.03-0.13-0.06-0.2-0.09 l0.21-1.25c0.06-0.35,0.13-0.71,0.2-1.07c0.08-0.43,0.17-0.86,0.25-1.28l3.83-3.9 C197.1174,133.6527,199.1374,133.1827,200.3074,134.6427z"/>
                <path fill="#1B1F77" d="M199.1674,190.4627c-1.1,1.54-2.2,3.08-3.3,4.61l-2.76-4.45c-0.01-0.01-0.01-0.02-0.01-0.02 c-0.01-0.02-0.01-0.04-0.02-0.06l0.42-0.61C194.4174,190.2827,196.3374,190.7827,199.1674,190.4627z"/>
                <path fill="#1B1F77" d="M195.9974,195.2727c-0.06-0.05-0.11-0.11-0.16-0.16v-0.01c0.01-0.01,0.02-0.02,0.03-0.03 L195.9974,195.2727z"/>
                <path fill="#1B1F77" d="M195.8674,195.0727c-0.01,0.01-0.02,0.02-0.03,0.03c-0.02-0.01-0.03-0.02-0.03-0.03 c-0.07-0.07-0.13-0.14-0.19-0.21c-0.11-0.13-0.22-0.26-0.33-0.39c-0.03-0.04-0.05-0.07-0.08-0.11c-0.07-0.08-0.14-0.17-0.19-0.25 c-0.04-0.04-0.07-0.08-0.1-0.13c-0.02-0.02-0.03-0.04-0.04-0.05c-0.02-0.03-0.05-0.07-0.07-0.1c-0.04-0.05-0.08-0.1-0.1-0.15 c-0.05-0.06-0.09-0.12-0.12-0.18c-0.05-0.05-0.08-0.1-0.1-0.14c-0.02-0.03-0.04-0.06-0.05-0.08c-0.02-0.03-0.04-0.05-0.05-0.08 c-0.01-0.01-0.02-0.02-0.02-0.03c-0.06-0.09-0.11-0.18-0.16-0.26c-0.14-0.23-0.27-0.46-0.37-0.67c-0.04-0.06-0.07-0.13-0.11-0.2 c-0.25-0.49-0.44-0.93-0.58-1.31c-0.01-0.04-0.03-0.08-0.04-0.11L195.8674,195.0727z"/>
                <path fill="#1B1F77" d="M195.6174,194.8627c0.06,0.07,0.12,0.14,0.19,0.21 C195.7374,195.0027,195.6774,194.9327,195.6174,194.8627z"/>
                <path fill="#1B1F77" d="M195.2074,194.3627c0.03,0.04,0.05,0.07,0.08,0.11 C195.2574,194.4427,195.2274,194.4027,195.2074,194.3627z"/>
                <path fill="#1B1F77" d="M195.2074,194.3627c-0.08-0.1-0.16-0.2-0.24-0.3c0.01,0.01,0.03,0.03,0.05,0.05 C195.0674,194.1927,195.1374,194.2827,195.2074,194.3627z"/>
                <path fill="#1B1F77" d="M194.9174,193.9827c0.03,0.05,0.06,0.09,0.1,0.13c-0.02-0.02-0.04-0.04-0.05-0.05 C194.9474,194.0327,194.9274,194.0027,194.9174,193.9827z"/>
                <path fill="#1B1F77" d="M194.8074,193.8327c0.02,0.03,0.05,0.07,0.07,0.1C194.8474,193.8927,194.8274,193.8627,194.8074,193.8327 z"/>
                <path fill="#1B1F77" d="M194.5874,193.5027c0.03,0.06,0.07,0.12,0.12,0.18c-0.03-0.03-0.05-0.06-0.07-0.09 S194.5874,193.5327,194.5874,193.5027z"/>
                <path fill="#1B1F77" d="M194.5874,193.5027c0,0.03,0.03,0.06,0.05,0.09c-0.05-0.08-0.1-0.15-0.15-0.23 C194.5074,193.4027,194.5374,193.4527,194.5874,193.5027z"/>
                <path d="M194.5974,143.7027c0.03,0.29,0.02,0.61-0.02,0.96l-3.1,3.18l1.15-6.69c0.07,0.03,0.13,0.06,0.2,0.09 c0.35,0.17,0.68,0.37,0.96,0.65c0.29,0.27,0.52,0.61,0.67,1.06C194.5274,143.1727,194.5774,143.4227,194.5974,143.7027z"/>
                <path fill="#1B1F77" d="M194.3874,193.2027c0.01,0.03,0.03,0.05,0.05,0.08 C194.4174,193.2527,194.3974,193.2227,194.3874,193.2027z"/>
                <path fill="#1B1F77" d="M194.2074,192.9128c0.05,0.08,0.1,0.17,0.16,0.26C194.3074,193.0827,194.2474,192.9927,194.2074,192.9128 z"/>
                <path fill="#1B1F77" d="M194.1774,132.1027c0.04-0.02,0.09-0.04,0.13-0.06c-0.32,1.75-0.66,3.59-1.02,5.51l-0.06,0.06 L194.1774,132.1027z"/>
                <path fill="#1B1F77" d="M193.7274,192.0427c0.04,0.07,0.07,0.14,0.11,0.2C193.7874,192.1727,193.7574,192.1027,193.7274,192.0427 z"/>
                <path fill="#1B1F77" d="M193.4974,189.9327l-0.42,0.61c-0.23-0.65-0.31-1.05-0.31-1.05c0.04,0.06,0.07,0.11,0.1,0.17 C192.8674,189.6628,193.0774,189.7827,193.4974,189.9327z"/>
                <path fill="#1B1F77" d="M193.2874,137.5527c-0.08,0.42-0.17,0.85-0.25,1.28c-0.07,0.36-0.14,0.72-0.2,1.07l0.39-2.29 L193.2874,137.5527z"/>
                <path fill="#1B1F77" d="M193.2274,137.6127l-0.39,2.29c-0.08,0.42-0.16,0.83-0.23,1.24c-0.27-0.13-0.55-0.24-0.8-0.35h-0.01 l0.27-2L193.2274,137.6127z"/>
                <path fill="#1B1F77" d="M193.1074,190.6227c0.01,0.03,0.03,0.07,0.04,0.11 C193.1274,190.6927,193.1174,190.6527,193.1074,190.6227z"/>
                <path d="M192.6074,141.1427c0.07-0.41,0.15-0.82,0.23-1.24l-0.21,1.25C192.6274,141.1427,192.6174,141.1427,192.6074,141.1427z"/>
                <path d="M192.6274,141.1527l-1.15,6.69l-0.02,0.02c0.33-2.15,0.71-4.39,1.15-6.72 C192.6174,141.1427,192.6274,141.1427,192.6274,141.1527z"/>
                <path fill="#1B1F77" d="M191.8074,140.7927c0.25,0.11,0.53,0.22,0.8,0.35c-0.44,2.33-0.82,4.57-1.15,6.72l-0.71,0.72 L191.8074,140.7927z"/>
                <path fill="#1B1F77" d="M191.2274,149.2727l0.08-0.46c-0.03,0.15-0.05,0.3-0.07,0.45 C191.2374,149.2727,191.2274,149.2727,191.2274,149.2727z"/>
                <path fill="#1B1F77" d="M189.5674,176.0127l-0.49,0.66c0,0-0.63-9.06-0.13-9.98l0.57-0.74 C189.3474,169.7327,189.3674,173.0727,189.5674,176.0127z"/>
                <path fill="#1B1F77" d="M183.5974,92.7827c0.01,0.43,0.01,0.89-0.03,1.43c-0.01,0.2-0.03,0.41-0.05,0.63 c-0.11,1.25-0.34,2.89-0.74,5.28c0.53-4.09,0.86-7.02,0.77-7.34c0,0-0.75-0.24-2.43-0.17l2.03-2.9c0.08,0.38,0.15,0.72,0.21,1.04 c0.09,0.49,0.15,0.95,0.2,1.41c0.01,0.16,0.02,0.31,0.04,0.47C183.5874,92.6827,183.5974,92.7327,183.5974,92.7827z"/>
                <path fill="#1B1F77" d="M183.5974,92.6327c-0.02-0.16-0.03-0.31-0.04-0.47c-0.05-0.46-0.11-0.92-0.2-1.41 c-0.06-0.32-0.13-0.66-0.21-1.04l-2.03,2.9c-2.41,0.08-6.75,0.79-13.57,3.72l4.54-6.05c0,0-0.44-1.89-1.93-2.89 c-1.49-1-4.25,0.23-4.25,0.23l-11.96,15.83c-5.69,3.32-11.4,6.51-16.92,9.43c0.03-0.2,0.06-0.39,0.08-0.58 c0.03-0.17,0.06-0.33,0.08-0.49l3.11-3.29l6.58-6.96c0,0-0.21-2.75-1.54-3.64c-1.34-0.9-3.01-0.43-3.01-0.43l-3.49,4.93 c0.06-0.3,0.11-0.58,0.16-0.82c0.03-0.15,0.06-0.3,0.08-0.43c0.13-0.62,0.2-0.95,0.2-0.95s0.01-0.07,0.03-0.21 c0.01-0.05,0.01-0.09,0.02-0.15c0.02-0.12,0.04-0.26,0.06-0.43c0.09-0.69,0.24-1.78,0.41-3.14c0.05-0.35,0.09-0.7,0.14-1.08 c13.16-6.58,23.93-11.8,25.43-12.22c0.41-0.11,1.05-0.38,1.87-0.73C182.2974,77.5027,183.5074,90.5127,183.5974,92.6327z"/>
                <path d="M183.5474,92.7827c0.09,0.32-0.24,3.25-0.77,7.34c0,0.03,0,0.05-0.01,0.08c-0.02,0.1-0.03,0.21-0.05,0.31l-6.37,8.95 l-6.38,8.95l-4.7,6.6l-0.01-0.01l-4.52,1.49l-0.04-4.73l7.19-10.26v-0.02l7.63-10.89l5.6-7.98 C182.7974,92.5427,183.5474,92.7827,183.5474,92.7827z"/>
                <path fill="#1B1F77" d="M180.5474,120.0427l1.03,7.63l-3.45,5.23c0.25-1.68,0.41-2.67,0.41-2.67s0.58-3.91,1.34-9.21 L180.5474,120.0427z"/>
                <path d="M173.4274,130.4327l6.45-9.41c-0.76,5.3-1.34,9.21-1.34,9.21s-0.16,0.99-0.41,2.67l-0.33,0.51 C177.4874,132.4427,177.4574,129.1628,173.4274,130.4327z"/>
                <path d="M177.7974,133.4128l-6.15,9.32c-3.33,1.55-6.64,3.08-9.74,4.49l11.52-16.79c0.02,0.42,0.13,0.9,0.32,1.34 c0.2,0.45,0.48,0.87,0.85,1.2c0.18,0.17,0.39,0.32,0.61,0.44c0.23,0.11,0.48,0.2,0.74,0.24c0.27,0.05,0.55,0.06,0.86,0.02 C177.1174,133.6327,177.4474,133.5527,177.7974,133.4128z"/>
                <path fill="#1B1F77" d="M177.1174,140.1727c0.03-0.02,0.07-0.03,0.1-0.05c-0.72,6.27-1.47,12.09-1.96,17.63 c-0.01,0-0.01,0.01-0.02,0.01C175.6574,151.9227,176.4274,145.4027,177.1174,140.1727z"/>
                <path d="M177.7974,133.4128c-0.35,0.14-0.68,0.22-0.99,0.26c-0.31,0.04-0.59,0.03-0.86-0.02c-0.26-0.04-0.51-0.13-0.74-0.24 c-0.22-0.12-0.43-0.27-0.61-0.44c-0.37-0.33-0.65-0.75-0.85-1.2c-0.19-0.44-0.3-0.92-0.32-1.34 C177.4574,129.1628,177.4874,132.4427,177.7974,133.4128z"/>
                <path fill="#1B1F77" d="M135.9174,159.0527c0,0-6.07-2.94-7.62-3.98c-1.55-1.04-7.11-8.31-7.82-21.64 c-0.17-3.17,0.06-7.66,0.5-12.66c0.02-0.25,0.05-0.51,0.07-0.78c0.02-0.21,0.04-0.4,0.05-0.58c0.03-0.2,0.04-0.4,0.06-0.61 c0.23-2.38,0.51-4.86,0.8-7.34c0.03-0.21,0.06-0.42,0.08-0.63c0.01-0.07,0.02-0.14,0.03-0.21h-0.01 c1.34-10.92,3.1-21.81,3.75-25.74c0.17-0.99,0.26-1.54,0.26-1.54s0.84-6.72,1.57-13.96l2.67-4.15l-0.76-10.4l-0.91,1.45 c0.06-1.78,0.03-3.17-0.12-3.92c0,0-1.33-0.16-5.71,1.44l1.96-2.51c0,0-0.49-1.81-1.82-2.7c-1.33-0.89-2.86-0.66-2.86-0.66 l-8.6,10.93c-5.01,2.55-11.41,6.07-19.54,10.97l13.14-10.03c0,0,1.92-2.69,0.87-4.19c-1.04-1.49-3.64-0.83-3.64-0.83 l-19.83,14.55l-2.2,1.62l-1.16-3.38l-1.54-4.52c2.01-1.04,4.11-2.14,6.34-3.34l31.51-16.83c0,0,6.29-4.65,11.73-1.23 c5.44,3.42,6.85,5.05,9.57,6.41c2.72,1.37,5.5,4.36,6.37,10.86c0.67,4.95-1.91,26.41-3.17,36.29c-0.05,0.38-0.09,0.73-0.14,1.08 c-0.18,1.39-0.33,2.47-0.41,3.14c-0.02,0.17-0.04,0.31-0.06,0.43c-0.01,0.06-0.02,0.11-0.02,0.15c-0.02,0.14-0.03,0.21-0.03,0.21 s-0.07,0.33-0.2,0.95c-0.02,0.13-0.05,0.27-0.08,0.43c-0.05,0.24-0.1,0.52-0.16,0.82h-0.01l-0.49,0.7l-0.37,2.54l-0.89,6.27 l0.11-0.12c-0.02,0.16-0.05,0.32-0.08,0.49c-0.72,4.7-1.44,10.28-1.84,15.85l-0.43,0.57c-1.23,2.02-0.13,11.4-0.13,11.4 l0.31-0.41c0.22,5.12,1.01,9.56,2.67,12.41c0,0,0.17,0.37,0.59,0.84c0.03,0.08,0.08,0.26,0.17,0.51l-0.01,0.02 c0.19,0.51,0.4,0.99,0.63,1.44c0.06,0.14,0.13,0.28,0.21,0.41c0.07,0.15,0.15,0.29,0.23,0.43c0.95,1.7,1.9,2.7,1.9,2.7l2.8-3.93 c0.44-0.07,0.9-0.18,1.39-0.32c2.02-0.57,8.49-3.42,16.31-7l-5.97,8.71c0,0,0.43,2.23,1.52,2.96c1.1,0.74,3.28,0.38,3.28,0.38 l10.91-16.54c1.83-0.86,3.66-1.71,5.47-2.56c-0.69,5.23-1.46,11.75-1.88,17.59c-11.42,5.51-25.3,10.91-30.48,7.53 C136.1874,159.7027,135.9174,159.0527,135.9174,159.0527z"/>
                <path d="M172.0874,90.2827l-4.54,6.05c-3.39,1.46-7.39,3.47-12.08,6.23c-0.51,0.3-1.01,0.6-1.52,0.89l11.96-15.83 c0,0,2.76-1.23,4.25-0.23C171.6474,88.3927,172.0874,90.2827,172.0874,90.2827z"/>
                <path d="M171.6474,142.7327l-10.91,16.54c0,0-2.18,0.36-3.28-0.38c-1.09-0.73-1.52-2.96-1.52-2.96l5.97-8.71 C165.0074,145.8127,168.3174,144.2827,171.6474,142.7327z"/>
                <path d="M167.5474,96.3327l-14.97,19.97l-0.01-0.01l-0.56-4.98l-5.02,1.35l6.96-9.21c0.51-0.29,1.01-0.59,1.52-0.89 C160.1574,99.8027,164.1574,97.7927,167.5474,96.3327z"/>
                <path d="M165.2674,125.0127l-8.06,11.3l-0.02-0.01l-6.11,8.58l-6.87,9.66c-2.43,0.42-4.04-0.12-5.04-0.8 c-0.22-0.15-0.41-0.31-0.58-0.46l10.24-14.59l3.81-5.43l6.58-9.38l1.48-2.12l0.04,4.73l4.52-1.49L165.2674,125.0127z"/>
                <path d="M152.5774,116.3027l-17.56,23.41c-0.16-3.62-0.03-7.58,0.25-11.56l11.72-15.49l5.02-1.35l0.56,4.98L152.5774,116.3027z"/>
                <path fill="#1B1F77" d="M146.8774,101.5627l-6.58,6.96c0.04-0.23,0.04-0.45,0-0.66c-0.04-0.21-0.11-0.4-0.21-0.59 c-0.2-0.37-0.5-0.7-0.81-0.96s-0.64-0.45-0.88-0.57c-0.06-0.03-0.12-0.05-0.17-0.07c0.03-0.17,0.06-0.34,0.09-0.5 c0.03-0.17,0.06-0.32,0.09-0.48c0.05-0.31,0.11-0.6,0.16-0.88c0.03-0.14,0.05-0.28,0.08-0.41c0.06-0.32,0.12-0.62,0.17-0.89 c0-0.03,0.01-0.06,0.02-0.09l3.49-4.93c0,0,1.67-0.47,3.01,0.43C146.6674,98.8127,146.8774,101.5627,146.8774,101.5627z"/>
                <path d="M144.2074,154.5427l-2.8,3.93c0,0-0.95-1-1.9-2.7c-0.08-0.14-0.16-0.29-0.23-0.43c-0.08-0.13-0.15-0.27-0.21-0.41 c-0.29-0.6-0.49-1.1-0.62-1.46l0.14-0.19c0.17,0.15,0.36,0.31,0.58,0.46C140.1674,154.4227,141.7774,154.9627,144.2074,154.5427z"/>
                <path fill="#1B1F77" d="M140.2974,107.8627c0.04,0.21,0.04,0.43,0,0.66l-3.11,3.29c0.09-0.54,0.17-1.06,0.26-1.58 c0.03-0.21,0.07-0.42,0.1-0.62c0.07-0.42,0.13-0.82,0.2-1.22c0.12-0.7,0.24-1.38,0.35-2.01c0.04-0.24,0.09-0.48,0.13-0.71 c0.05,0.02,0.11,0.04,0.17,0.07c0.24,0.12,0.57,0.31,0.88,0.57s0.61,0.59,0.81,0.96 C140.1874,107.4627,140.2574,107.6527,140.2974,107.8627z"/>
                <path d="M139.2774,155.3427c0.07,0.14,0.15,0.29,0.23,0.43C139.4274,155.6327,139.3474,155.4927,139.2774,155.3427z"/>
                <path fill="#1B1F77" d="M139.0774,101.1727c-0.02,0.13-0.05,0.28-0.08,0.43 C139.0274,101.4427,139.0574,101.3027,139.0774,101.1727z"/>
                <path fill="#1B1F77" d="M138.8374,102.4227c-0.01,0.03-0.02,0.06-0.02,0.09c0-0.03,0.01-0.06,0.01-0.09H138.8374z"/>
                <path d="M138.3374,103.1227l0.49-0.7c0,0.03-0.01,0.06-0.01,0.09c-0.05,0.27-0.11,0.57-0.17,0.89c-0.03,0.13-0.06,0.27-0.08,0.41 c-0.05,0.28-0.11,0.57-0.16,0.88c-0.04,0.15-0.06,0.32-0.09,0.48c-0.03,0.16-0.06,0.33-0.09,0.5c-0.15-0.05-0.25-0.06-0.26-0.01 L138.3374,103.1227z"/>
                <path d="M139.0674,154.9327c-0.23-0.45-0.44-0.93-0.63-1.44l0.01-0.02C138.5774,153.8327,138.7774,154.3327,139.0674,154.9327z"/>
                <path d="M138.6474,103.4027c-0.03,0.13-0.05,0.27-0.08,0.41C138.5874,103.6727,138.6174,103.5327,138.6474,103.4027z"/>
                <path d="M138.5874,153.2827l-0.14,0.19c-0.09-0.25-0.14-0.43-0.17-0.51C138.3674,153.0627,138.4674,153.1727,138.5874,153.2827z"/>
                <path d="M138.4074,104.6927c-0.03,0.16-0.06,0.31-0.09,0.48C138.3474,105.0127,138.3674,104.8427,138.4074,104.6927z"/>
                <path d="M138.2274,105.6727c-0.04,0.23-0.09,0.47-0.13,0.71c-0.12,0.63-0.23,1.3-0.35,2.01c-0.07,0.4-0.13,0.8-0.2,1.22 c-0.04,0.2-0.07,0.41-0.1,0.62c-0.09,0.52-0.17,1.04-0.26,1.58l-0.11,0.12l0.89-6.27 C137.9774,105.6127,138.0774,105.6227,138.2274,105.6727z"/>
                <path d="M138.0974,106.3827c-0.11,0.63-0.23,1.31-0.35,2.01C137.8674,107.6827,137.9774,107.0127,138.0974,106.3827z"/>
                <path d="M137.5474,109.6127c-0.03,0.2-0.07,0.41-0.1,0.62C137.4774,110.0227,137.5074,109.8127,137.5474,109.6127z"/>
                <path d="M134.8374,128.7227l0.43-0.57c-0.28,3.98-0.41,7.94-0.25,11.56l-0.31,0.41 C134.7074,140.1227,133.6074,130.7427,134.8374,128.7227z"/>
                <path fill="#1B1F77" d="M129.5474,54.8327l0.76,10.4l-2.67,4.15c0.47-4.71,0.9-9.65,1-13.1L129.5474,54.8327z"/>
                <path d="M109.1474,87.4027l19.49-31.12c-0.1,3.45-0.53,8.39-1,13.1l-5.94,9.23l-7.72,11.98c0-0.37-0.05-0.72-0.11-1.04 c-0.07-0.32-0.17-0.6-0.29-0.86c-0.13-0.26-0.29-0.49-0.46-0.69c-0.18-0.2-0.37-0.36-0.58-0.5c-0.22-0.13-0.47-0.24-0.72-0.32 c-0.26-0.07-0.52-0.11-0.81-0.12s-0.58,0.02-0.89,0.07C109.8074,87.1927,109.4774,87.2727,109.1474,87.4027z"/>
                <path d="M125.8074,84.8827l-2.8,15.16c-0.03-0.01-0.07-0.01-0.1-0.02l0.04-0.37c-0.66-0.12-1.14-0.27-1.5-0.46 c-0.36-0.18-0.59-0.4-0.76-0.61c-0.28-0.37-0.33-0.46-0.48-0.69c-0.03-0.05-0.05-0.09-0.08-0.13L125.8074,84.8827z"/>
                <path d="M124.7674,51.2927l-1.96,2.51c-2.59,0.94-6.24,2.5-11.32,5.06l8.6-10.93c0,0,1.53-0.23,2.86,0.66 C124.2774,49.4827,124.7674,51.2927,124.7674,51.2927z"/>
                <path d="M122.9474,99.6527l-0.04,0.37c-0.61-0.12-1.06-0.26-1.4-0.44c-0.36-0.18-0.59-0.4-0.76-0.61 c-0.29-0.38-0.38-0.77-0.54-1.08c0.15,0.23,0.2,0.32,0.48,0.69c0.17,0.21,0.4,0.43,0.76,0.61 C121.8074,99.3827,122.2874,99.5327,122.9474,99.6527z"/>
                <path d="M122.9074,100.0227l-0.88,7.99l-1.31,2.61c-1.66-0.8-2.98-4.18-4.82-3.24c-0.2,0.11-0.41,0.21-0.61,0.31l4.84-9.93 c0.03,0.04,0.05,0.08,0.08,0.13c0.16,0.31,0.25,0.7,0.54,1.08c0.17,0.21,0.4,0.43,0.76,0.61 C121.8474,99.7627,122.2974,99.9027,122.9074,100.0227z"/>
                <path d="M122.8074,53.8027l-21.87,28.02l-4.59,1.52l-0.06-5.14l15.2-19.34C116.5674,56.3027,120.2174,54.7427,122.8074,53.8027z"/>
                <path d="M122.0674,110.6227c-0.01,0.07-0.02,0.14-0.03,0.21c0.01-0.07,0.02-0.14,0.02-0.21H122.0674z"/>
                <path fill="#1B1F77" d="M68.2574,7.6427l-6.02,8.68l-4.68-4.12c0,0-3.02-3.39-0.82-6.56c0.32-0.45,0.74-0.9,1.29-1.33 c4.41-3.47,9.7-4.42,11.15-3.46c1.44,0.97,2.21,3.42,4.73,4.94c2.51,1.53,4.99,1.42,6.32,2.31c1.33,0.9,2.81,3,2.39,7.22 c-0.27,2.8-4.3,23.05-6.8,42.54l-0.73-2.13l-0.63,9.6l-0.27,4.06l-0.94,10.39c0.22-0.1,0.43-0.2,0.65-0.3 c-0.05,1.86-0.05,3.61,0,5.22c0.27,8.02,1.27,14.27,2.41,18.92l-0.1,0.13c-0.35,2.04,1.96,7.22,1.96,7.22l0.32-0.41 c1.06,2.69,1.88,3.94,1.88,3.94s4.19,1.2,11.54,0.45l-2.91,4.64c0,0,0.54,1.74,1.67,2.26c0.56,0.27,1.33,0.3,1.96,0.27 c0.63-0.03,1.13-0.14,1.13-0.14l5.32-8.26c4.69-1.1,10.14-2.97,16.21-6.03l-3.38,6.94c0,0-0.52,2.49,1.23,3.44 c1.75,0.94,3.82,0.05,3.82,0.05l3.76-7.5c0.42,0.21,0.86,0.25,1.34,0c0,0.07-0.01,0.14-0.02,0.21c-0.02,0.21-0.05,0.42-0.08,0.63 c-0.54,3.97-0.53,4.22-0.8,7.34c-0.02,0.21-0.03,0.41-0.06,0.61c-0.02,0.2-0.03,0.39-0.05,0.58c-0.02,0.27-0.05,0.53-0.07,0.78 c-7.32,3.26-13.53,5.45-17.71,5.95c-9.96,1.2-15.3,1.48-23.28-6.28c0,0-5.02-3.53-8.16-5.32c-3.15-1.78-9.1-7.53-10.56-13.98 c-0.79-3.47-1.6-9.87-2.08-16.09c0.01-0.01,0.01-0.01,0.02-0.01c-0.1-1.65-0.22-3.27-0.33-4.93c0-0.09-0.01-0.17-0.01-0.26 c-0.16-3.34-0.18-6.34,0-8.44c0.18-2.15,0.83-7.2,1.64-13.1c0.45-1.06,0.84-2.02,1.17-2.81c0.53-1.28,1.96-4.73,1.96-4.73 l0.9-15.42l-1.13,2.63c0.82-5.55,1.41-9.52,1.41-9.52l1.9-6.8l0.6-0.84c0,0,0.01-0.06,0.02-0.16c0.03-0.14,0.06-0.37,0.1-0.67 c0.03-0.15,0.05-0.32,0.07-0.51c0.02-0.09,0.03-0.19,0.04-0.29c0.04-0.3,0.09-0.64,0.13-1c0.07-0.49,0.13-1.02,0.19-1.59 c0.02-0.15,0.03-0.29,0.05-0.44c0.03-0.29,0.06-0.59,0.09-0.9c0.02-0.15,0.03-0.31,0.04-0.46c0.05-0.47,0.09-0.95,0.12-1.43 c0.03-0.32,0.05-0.65,0.07-0.97c0.02-0.32,0.03-0.65,0.05-0.97c0.01-0.32,0.02-0.64,0.03-0.96c0.01-0.31,0.01-0.62,0.01-0.93 c0-0.59-0.01-1.16-0.05-1.69c0-0.05,0-0.1-0.01-0.14c0-0.03,0-0.05,0-0.08L68.2574,7.6427z"/>
                <path d="M121.0474,119.9927c0.02-0.19,0.03-0.38,0.05-0.58C121.0874,119.5927,121.0674,119.7827,121.0474,119.9927z"/>
                <path d="M120.7174,110.6227l-3.76,7.5c0,0-2.07,0.89-3.82-0.05c-1.75-0.95-1.23-3.44-1.23-3.44l3.38-6.94 c0.2-0.1,0.41-0.2,0.61-0.31C117.7374,106.4427,119.0574,109.8227,120.7174,110.6227z"/>
                <path d="M113.9774,90.5927l-14.9,23.13c-2.64,0.62-5.04,1.01-7.17,1.23l17.24-27.55c0.33-0.13,0.66-0.21,0.97-0.27 c0.31-0.05,0.6-0.08,0.89-0.07s0.55,0.05,0.81,0.12c0.25,0.08,0.5,0.19,0.72,0.32c0.21,0.14,0.4,0.3,0.58,0.5 c0.17,0.2,0.33,0.43,0.46,0.69c0.12,0.26,0.22,0.54,0.29,0.86C113.9274,89.8727,113.9774,90.2227,113.9774,90.5927z"/>
                <path d="M105.9574,55.6127c1.05,1.5-0.87,4.19-0.87,4.19l-13.14,10.03c-0.2,0.11-0.4,0.24-0.61,0.36 c-1.1,0.67-2.19,1.31-3.25,1.92l0.21-3.63l-5.81,0.85l19.83-14.55C102.3174,54.7827,104.9174,54.1227,105.9574,55.6127z"/>
                <path d="M100.9374,81.8227l-22.45,28.74c-0.69-1.72-1.46-4.01-2.18-6.94l19.98-25.42l0.06,5.14L100.9374,81.8227z"/>
                <path d="M99.0774,113.7227l-5.32,8.26c0,0-0.5,0.11-1.13,0.14c-0.63,0.03-1.4,0-1.96-0.27c-1.13-0.52-1.67-2.26-1.67-2.26 l2.91-4.64C94.0374,114.7327,96.4374,114.3427,99.0774,113.7227z"/>
                <path d="M91.9474,69.8327l-3.9,2.97l0.04-0.69c1.06-0.61,2.15-1.25,3.25-1.92C91.5474,70.0727,91.7474,69.9427,91.9474,69.8327z"/>
                <path d="M88.2974,68.4827l-0.21,3.63c-5.09,2.95-9.81,5.38-14.17,7.36v-0.77c0.04-1.03,0.09-2.1,0.16-3.2l1.03-0.75l0.35,0.77 l5.12-3.72l-0.29-0.85l2.2-1.62L88.2974,68.4827z"/>
                <path d="M88.0874,72.1127l-0.04,0.69l-0.01,0.01l-14.11,10.77l-0.01-4.11C78.2774,77.4927,82.9974,75.0627,88.0874,72.1127z"/>
                <path d="M80.2874 70.9527L80.5774 71.8027 75.4574 75.5227 75.1074 74.7527z"/>
                <path fill="#333333" d="M79.1274,67.5727l1.16,3.38l-5.18,3.8l-0.86-1.91c0.17-2.28,0.39-4.65,0.64-7.07 c0.11,0.12,0.23,0.23,0.34,0.33c0.36,0.31,0.72,0.59,1.08,0.83c0.36,0.24,0.72,0.44,1.08,0.58c0.36,0.13,0.71,0.21,1.07,0.21 C78.6774,67.7227,78.9074,67.6327,79.1274,67.5727z"/>
                <path d="M77.5874,63.0527l1.54,4.52c-0.22,0.06-0.45,0.15-0.67,0.15c-0.36,0-0.71-0.08-1.07-0.21c-0.36-0.14-0.72-0.34-1.08-0.58 c-0.36-0.24-0.72-0.52-1.08-0.83c-0.11-0.1-0.23-0.21-0.34-0.33c0.05-0.48,0.1-0.96,0.16-1.44 C75.8774,63.9227,76.7174,63.4927,77.5874,63.0527z"/>
                <path d="M78.4874,110.5627l-0.32,0.41c0,0-2.31-5.18-1.96-7.22l0.1-0.13C77.0274,106.5527,77.7974,108.8427,78.4874,110.5627z"/>
                <path d="M75.8174,57.8627l1.77,5.19c-0.87,0.44-1.71,0.87-2.54,1.28C75.2774,62.2027,75.5374,60.0327,75.8174,57.8627z"/>
                <path d="M75.0874,55.7327l0.73,2.13c-0.28,2.17-0.54,4.34-0.77,6.47c-0.14,0.07-0.28,0.14-0.42,0.21l-0.08,0.88 c-0.03-0.03-0.06-0.06-0.09-0.09L75.0874,55.7327z"/>
                <path d="M74.2474,72.8427l0.86,1.91l-1.03,0.75C74.1274,74.6327,74.1874,73.7427,74.2474,72.8427z"/>
                <path d="M74.6274,64.5427c0.14-0.07,0.28-0.14,0.42-0.21c-0.06,0.48-0.11,0.96-0.16,1.44c-0.12-0.11-0.23-0.24-0.34-0.35 L74.6274,64.5427z"/>
                <path d="M74.5474,65.4227c0.11,0.11,0.22,0.24,0.34,0.35c-0.25,2.42-0.47,4.79-0.64,7.07l-0.25-0.57l0.19-2.88L74.5474,65.4227z"/>
                <path d="M74.5474,65.4227l-0.36,3.97l0.27-4.06C74.4874,65.3627,74.5174,65.3927,74.5474,65.4227z"/>
                <path d="M73.9974,72.2727l0.25,0.57c-0.06,0.9-0.12,1.79-0.17,2.66l-0.16,0.12v3.08c0,0.27-0.01,0.53-0.02,0.78 c-0.22,0.1-0.43,0.2-0.65,0.3l0.94-10.39L73.9974,72.2727z"/>
                <path d="M73.9174,75.6227l0.16-0.12c-0.07,1.1-0.12,2.17-0.16,3.2V75.6227z"/>
                <path d="M73.9174,78.7027v0.77c-0.01,0.01-0.01,0.01-0.02,0.01C73.9074,79.2327,73.9174,78.9727,73.9174,78.7027z"/>
                <path d="M67.3374,20.6627c-0.01,0.1-0.02,0.16-0.02,0.16l-0.6,0.84l0.32-1.13l-4.8-4.21l6.02-8.68c0.01,0.03,0.01,0.05,0.01,0.07 c0.01,0.04,0.01,0.09,0.01,0.14c0.03,0.54,0.05,1.1,0.05,1.69c0,0.31,0,0.62-0.01,0.93c-0.01,0.32-0.02,0.64-0.03,0.96 c-0.02,0.32-0.03,0.65-0.05,0.97c-0.02,0.32-0.05,0.65-0.07,0.97c-0.04,0.48-0.08,0.96-0.12,1.43c-0.01,0.15-0.02,0.31-0.04,0.46 c-0.03,0.31-0.06,0.61-0.09,0.9c-0.02,0.15-0.03,0.29-0.05,0.44c-0.07,0.57-0.13,1.1-0.19,1.59c-0.05,0.36-0.09,0.7-0.13,1 c-0.01,0.1-0.02,0.2-0.04,0.29c-0.03,0.19-0.05,0.36-0.07,0.51C67.3874,20.2927,67.3574,20.5227,67.3374,20.6627z"/>
                <path d="M68.3274,9.5427c0-0.59-0.02-1.15-0.05-1.69C68.3174,8.3827,68.3274,8.9527,68.3274,9.5427z"/>
                <path d="M68.3174,10.4727c-0.01,0.32-0.02,0.64-0.03,0.96C68.2974,11.1127,68.3074,10.7927,68.3174,10.4727z"/>
                <path d="M68.2674,7.6327c0,0.03,0,0.05,0,0.08c0-0.02,0-0.04-0.01-0.07L68.2674,7.6327z"/>
                <path d="M68.2374,12.4027c-0.02,0.32-0.04,0.65-0.07,0.97C68.1874,13.0527,68.2174,12.7227,68.2374,12.4027z"/>
                <path d="M68.1674,13.3727c-0.03,0.48-0.07,0.96-0.12,1.43C68.0874,14.3327,68.1274,13.8527,68.1674,13.3727z"/>
                <path d="M68.0074,15.2627c-0.03,0.31-0.06,0.61-0.09,0.9C67.9474,15.8727,67.9774,15.5727,68.0074,15.2627z"/>
                <path d="M67.8674,16.6027c-0.06,0.57-0.12,1.1-0.19,1.59C67.7374,17.7027,67.7974,17.1727,67.8674,16.6027z"/>
                <path d="M67.6774,18.1927c-0.04,0.36-0.09,0.7-0.13,1C67.5874,18.8927,67.6274,18.5527,67.6774,18.1927z"/>
                <path d="M67.5074,19.4827c-0.02,0.19-0.04,0.36-0.07,0.51C67.4574,19.8427,67.4774,19.6727,67.5074,19.4827z"/>
                <path d="M67.4374,19.9927c-0.04,0.3-0.07,0.53-0.1,0.67C67.3574,20.5227,67.3874,20.2927,67.4374,19.9927z"/>
                <path d="M67.0374 20.5327L66.7174 21.6627 49.6874 45.7027 45.1174 47.0127 44.3374 42.1327 62.2374 16.3227z"/>
                <path d="M64.5374,35.3527l-0.9,15.42c0,0-1.43,3.45-1.96,4.73c-0.29,0.07-0.55,0.12-0.8,0.14c0.84-5.99,1.79-12.51,2.53-17.66 L64.5374,35.3527z"/>
                <path d="M57.1974,52.4927l6.21-14.51c-0.74,5.15-1.69,11.67-2.53,17.66c-0.11,0.02-0.22,0.03-0.33,0.04 c-0.34,0.02-0.65,0.01-0.92-0.04c-0.28-0.04-0.52-0.11-0.73-0.22c-0.22-0.1-0.41-0.23-0.58-0.38c-0.33-0.3-0.57-0.69-0.75-1.13 C57.3974,53.4827,57.2774,52.9927,57.1974,52.4927z"/>
                <path d="M60.8774,55.6427c0.25-0.02,0.51-0.07,0.8-0.14c-0.33,0.79-0.72,1.75-1.17,2.81 C60.6374,57.4327,60.7574,56.5427,60.8774,55.6427z"/>
                <path d="M60.5474,55.6827c0.11-0.01,0.22-0.02,0.33-0.04c-0.12,0.9-0.24,1.79-0.37,2.67c-1.77,4.27-4.29,10.32-6.25,14.99 c-2.44,0.8-4.68,1.41-6.78,1.86l9.72-22.67c0.08,0.5,0.2,0.99,0.37,1.42c0.18,0.44,0.42,0.83,0.75,1.13 c0.17,0.15,0.36,0.28,0.58,0.38c0.21,0.11,0.45,0.18,0.73,0.22C59.8974,55.6927,60.2074,55.7027,60.5474,55.6827z"/>
                <path d="M59.2074,85.0427c-0.01,0-0.01,0-0.02,0.01c-0.13-1.68-0.24-3.35-0.31-4.94 C58.9874,81.7727,59.1074,83.3927,59.2074,85.0427z"/>
                <path d="M23.2674,81.5427c-1.87-1.12-3.01-1.94-3.01-1.94s-16.27-9.78-19.58-19.23c0,0-0.47-1.43,0.12-2.43 c0.28-0.44,0.77-0.81,1.63-0.9c1.79-0.18,8.74-0.08,10.08-2c0,0,0.88,14.1,9.41,19.41l-0.06,0.09c0,0,1.3,2.63,4.75,3.75 l1.34-1.9c0.29,0.03,0.59,0.04,0.9,0.05c6.63,0.13,12,0.17,18.63-1.28l-1.48,3.45c0,0-0.26,2.73,1.54,2.96 c1.88,0.24,3.38-0.79,3.75-1.34c0.13-0.18,1.35-3.08,2.97-6.93c1.43-0.48,2.94-1.02,4.53-1.63c-0.17,3.01-0.08,5.65,0.08,8.18 c0,0.09,0.01,0.17,0.01,0.26c0.07,1.59,0.18,3.26,0.31,4.94c-11.8,3.43-19.65,2.98-24.13,1.74c-4.6-1.26-8.95-3.56-11.73-5.22 C23.3074,81.5627,23.2874,81.5527,23.2674,81.5427z"/>
                <path d="M54.2574,73.3027c-1.62,3.85-2.84,6.75-2.97,6.93c-0.37,0.55-1.87,1.58-3.75,1.34c-1.8-0.23-1.54-2.96-1.54-2.96 l1.48-3.45C49.5774,74.7127,51.8174,74.1027,54.2574,73.3027z"/>
                <path d="M49.6874,45.7027l-21.74,30.69c-2.35-0.18-4.34-0.89-6.03-1.94l22.42-32.32l0.78,4.88L49.6874,45.7027z"/>
                <path d="M27.9474,76.3927l-1.34,1.9c-3.45-1.12-4.75-3.75-4.75-3.75l0.06-0.09C23.6074,75.5027,25.5974,76.2127,27.9474,76.3927z"/>
            </g>
            <g fill="none" opacity="0.85">
                <path stroke="#663399" d="M120.2074,97.8927c0.16,0.31,0.25,0.7,0.54,1.08 c0.17,0.21,0.4,0.43,0.76,0.61c0.34,0.18,0.79,0.32,1.4,0.44c0.03,0.01,0.07,0.01,0.1,0.02l2.8-15.16l-5.68,12.88" stroke-linecap="round"/>
                <path stroke="#663399" d="M120.2074,97.8927c-0.03-0.05-0.05-0.09-0.08-0.13l-4.84,9.93 l-3.38,6.94c0,0-0.52,2.49,1.23,3.44c1.75,0.94,3.82,0.05,3.82,0.05l3.76-7.5l1.31-2.61l0.88-7.99" stroke-linecap="round"/>
                <path stroke="#663399" d="M135.0174 139.7127L152.5774 116.3027" stroke-linecap="round"/>
                <path stroke="#663399" d="M146.9874 112.6627L135.2674 128.1527" stroke-linecap="round"/>
                <path stroke="#663399" d="M244.4474 211.7127L261.3474 189.3527" stroke-linecap="round"/>
                <path stroke="#663399" d="M256.0374 185.8327L243.8974 201.6827" stroke-linecap="round"/>
                <path stroke="#663399" d="M292.0974 188.6027L282.0874 203.2927" stroke-linecap="round"/>
                <path stroke="#663399" d="M287.0674 206.5927L293.6074 197.3227" stroke-linecap="round"/>
                <path stroke="#663399" d="M234.7274 157.1628L227.9474 166.9128" stroke-linecap="round"/>
                <path stroke="#663399" d="M232.6174 170.0927L233.1974 169.2527" stroke-linecap="round"/>
                <path stroke="#663399" d="M179.8774 121.0227L173.4274 130.4327" stroke-linecap="round"/>
                <path stroke="#663399" d="M177.7974 133.4128L178.1274 132.9027" stroke-linecap="round"/>
                <path stroke="#663399" d="M128.6374 56.2827L109.1474 87.4027" stroke-linecap="round"/>
                <path stroke="#663399" d="M113.9774 90.5927L121.6974 78.6127 127.6374 69.3827" stroke-linecap="round"/>
                <path stroke="#663399" d="M63.4074 37.9827L57.1974 52.4927" stroke-linecap="round"/>
                <path stroke="#663399" d="M234.8774 129.2627L215.0374 158.3627" stroke-linecap="round"/>
                <path stroke="#663399" d="M219.6774,161.6227c5.81-8.17,11.66-16.32,17.45-24.5" stroke-linecap="round"/>
                <path stroke="#666666" d="M47.4774,75.1627 c-6.63,1.45-12,1.41-18.63,1.28c-0.31-0.01-0.61-0.02-0.9-0.05" stroke-linecap="round" stroke-linejoin="round"/>
                <path stroke="#666666" d="M58.8674,79.8527 c-0.16-2.53-0.25-5.17-0.08-8.18c-1.59,0.61-3.1,1.15-4.53,1.63" stroke-linecap="round" stroke-linejoin="round"/>
                <path stroke="#666666" d="M23.3274,81.5727 c2.78,1.66,7.13,3.96,11.73,5.22c4.48,1.24,12.33,1.69,24.13-1.74" stroke-linecap="round" stroke-linejoin="round"/>
                <path stroke="#666666" d="M21.9174,74.4527 c-8.53-5.31-9.41-19.41-9.41-19.41c-1.34,1.92-8.29,1.82-10.08,2c-0.86,0.09-1.35,0.46-1.63,0.9c-0.59,1-0.12,2.43-0.12,2.43 c3.31,9.45,19.58,19.23,19.58,19.23s1.14,0.82,3.01,1.94" stroke-linecap="round" stroke-linejoin="round"/>
                <path stroke="#663399" d="M139.9374,95.2127c1.26-9.88,3.84-31.34,3.17-36.29 c-0.87-6.5-3.65-9.49-6.37-10.86c-2.72-1.36-4.13-2.99-9.57-6.41c-5.44-3.42-11.73,1.23-11.73,1.23l-31.51,16.83 c-2.23,1.2-4.33,2.3-6.34,3.34" stroke-linecap="round"/>
                <path stroke="#666666" d="M139.3874,99.4327 c0.08-0.67,0.23-1.75,0.41-3.14" stroke-linecap="round" stroke-linejoin="round"/>
                <path stroke="#666666" d="M139.3074,100.0127 c0-0.04,0.01-0.09,0.02-0.15" stroke-linecap="round" stroke-linejoin="round"/>
                <path stroke="#666666" d="M138.5674,103.8127 c0.02-0.14,0.05-0.28,0.08-0.41" stroke-linecap="round" stroke-linejoin="round"/>
                <path stroke="#666666" d="M138.3174,105.1727 c0.03-0.16,0.05-0.33,0.09-0.48" stroke-linecap="round" stroke-linejoin="round"/>
                <path stroke="#666666" d="M137.7474,108.3927 c0.12-0.71,0.23-1.38,0.35-2.01" stroke-linecap="round" stroke-linejoin="round"/>
                <path stroke="#666666" d="M137.4474,110.2327 c0.03-0.21,0.06-0.42,0.1-0.62" stroke-linecap="round" stroke-linejoin="round"/>
                <path stroke="#663399" d="M138.5874,153.2827c-0.12-0.11-0.22-0.22-0.31-0.32 c-0.42-0.47-0.59-0.84-0.59-0.84c-1.66-2.85-2.45-7.29-2.67-12.41c-0.16-3.62-0.03-7.58,0.25-11.56 c0.4-5.57,1.12-11.15,1.84-15.85" stroke-linecap="round"/>
                <path stroke="#663399" d="M161.9074,147.2227c-7.82,3.58-14.29,6.43-16.31,7 c-0.49,0.14-0.95,0.25-1.39,0.32" stroke-linecap="round"/>
                <path stroke="#663399" d="M177.1174,140.1727c-1.81,0.85-3.64,1.7-5.47,2.56" stroke-linecap="round"/>
                <path stroke="#663399" d="M120.9774,120.7727c-0.44,5-0.67,9.49-0.5,12.66 c0.71,13.33,6.27,20.6,7.82,21.64c1.55,1.04,7.62,3.98,7.62,3.98s0.27,0.65,8.84,6.24c5.18,3.38,19.06-2.02,30.48-7.53" stroke-linecap="round"/>
                <path stroke="#666666" d="M121.9574,111.4627c-0.29,2.48-0.57,4.96-0.8,7.34" stroke-linecap="round"/>
                <path stroke="#663399" d="M122.8074,53.8027c4.38-1.6,5.71-1.44,5.71-1.44 c0.15,0.75,0.18,2.14,0.12,3.92c-0.1,3.45-0.53,8.39-1,13.1c-0.73,7.24-1.57,13.96-1.57,13.96s-0.09,0.55-0.26,1.54 c-0.65,3.93-2.41,14.82-3.75,25.74" stroke-linecap="round"/>
                <path stroke="#663399" d="M91.9474,69.8327c8.13-4.9,14.53-8.42,19.54-10.97" stroke-linecap="round"/>
                <path stroke="#666666" d="M73.8974,79.4827c0.01,0,0.01,0,0.02-0.01" stroke-linecap="round" stroke-linejoin="round"/>
                <path stroke="#663399" d="M218.6374,120.0127l-18.63,9.32c0,0-2.85,1.36-5.7,2.71" stroke-linecap="round"/>
                <path stroke="#663399" d="M247.0674,225.4827c-1.05-1.89-1.99-8.35-2.62-13.77 c-0.52-4.42-0.83-8.15-0.83-8.15s0.1-0.67,0.28-1.88c1.37-9.41,7.48-51.24,8.28-57.12c0.91-6.62-0.55-15.48-1.21-18.34 c-0.66-2.85-3.84-4.34-5.17-4.75c-1.33-0.41-5.21-3.01-6.09-4.08c-0.89-1.08-1.86-1.79-1.86-1.79 c-6.33-3.79-14.93,2.27-14.93,2.27l-4.25,2.12" stroke-linecap="round"/>
                <path stroke="#666666" d="M271.4774,218.8627 c-5.31,2.96-11.25,6.14-13.64,6.95c-1.31,0.45-2.7,0.62-4.05,0.64" stroke-linecap="round" stroke-linejoin="round"/>
                <path stroke="#666666" d="M245.0074,231.2327 c0,0,0.56,1.95,5.32,5.14c7.32,4.9,28.49-3.74,31.71-5.43c3.23-1.7,2.79-4.39,2.79-4.39l-0.19-12.67 c-0.19-1.22-1.06-1.35-1.86-1.2" stroke-linecap="round" stroke-linejoin="round"/>
                <path stroke="#666666" d="M230.4374,192.4128 c-0.06,1.13-0.12,2.28-0.18,3.42c-0.37,7.7-0.41,15.15-0.02,17.92c0.73,5.15,4.01,12,6.89,13.93c2.8,1.88,7.57,3.45,7.87,3.54" stroke-linecap="round" stroke-linejoin="round"/>
                <path stroke="#666666" d="M231.7074,179.3327 c-0.04,0.19-0.07,0.39-0.09,0.58c-0.05,0.31-0.09,0.62-0.13,0.94" stroke-linecap="round" stroke-linejoin="round"/>
                <path stroke="#663399" d="M238.1974,128.1427c0.04,0,0.06,0,0.06,0 c-0.22,1.52-0.63,4.78-1.13,8.98c-0.68,5.66-1.55,13.01-2.4,20.04c-0.53,4.31-1.05,8.49-1.53,12.09 c-0.33,2.46-0.63,4.64-0.9,6.42" stroke-linecap="round"/>
                <path stroke="#663399" d="M221.9674,132.9327c6.29-3.02,10.8-4.15,13.46-4.56" stroke-linecap="round"/>
                <path stroke="#663399" d="M191.2374,149.2627c0.38-0.22,0.96-0.55,0.96-0.55 s7.31-3.65,17.46-9.16" stroke-linecap="round"/>
                <path stroke="#666666" d="M191.4774 147.8427L191.3074 148.8127" stroke-linecap="round" stroke-linejoin="round"/>
                <path stroke="#663399" d="M191.4574 147.8627L191.4774 147.8427 194.5774 144.6628" stroke-linecap="round"/>
                <path stroke="#663399" d="M80.2874 70.9527L79.1274 67.5727" stroke-linecap="round"/>
                <path stroke="#663399" d="M74.2474 72.8427L75.1074 74.7527" stroke-linecap="round"/>
                <path stroke="#663399" d="M74.8874,65.7727c0.11,0.12,0.23,0.23,0.34,0.33 c0.36,0.31,0.72,0.59,1.08,0.83c0.36,0.24,0.72,0.44,1.08,0.58c0.36,0.13,0.71,0.21,1.07,0.21c0.22,0,0.45-0.09,0.67-0.15 l-1.54-4.52l-1.77-5.19" stroke-linecap="round"/>
                <path stroke="#663399" d="M60.8774,55.6427c-0.11,0.02-0.22,0.03-0.33,0.04 c-0.34,0.02-0.65,0.01-0.92-0.04c-0.28-0.04-0.52-0.11-0.73-0.22c-0.22-0.1-0.41-0.23-0.58-0.38c-0.33-0.3-0.57-0.69-0.75-1.13 c-0.17-0.43-0.29-0.92-0.37-1.42l-9.72,22.67l-1.48,3.45c0,0-0.26,2.73,1.54,2.96c1.88,0.24,3.38-0.79,3.75-1.34 c0.13-0.18,1.35-3.08,2.97-6.93c1.96-4.67,4.48-10.72,6.25-14.99" stroke-linecap="round"/>
                <path stroke="#663399" d="M192.6074,141.1427c0.01,0,0.02,0,0.02,0.01 c0.07,0.03,0.13,0.06,0.2,0.09c0.35,0.17,0.68,0.37,0.96,0.65c0.29,0.27,0.52,0.61,0.67,1.06c0.07,0.22,0.12,0.47,0.14,0.75 c0.03,0.29,0.02,0.61-0.02,0.96l6.24-6.37c0,0,0.67-2.18-0.51-3.65c-1.17-1.46-3.19-0.99-3.19-0.99l-3.83,3.9" stroke-linecap="round"/>
                <path stroke="#666666" d="M74.0774,75.5027c0.05-0.87,0.11-1.76,0.17-2.66 c0.17-2.28,0.39-4.65,0.64-7.07c0.05-0.48,0.1-0.96,0.16-1.44c0.23-2.13,0.49-4.3,0.77-6.47c2.5-19.49,6.53-39.74,6.8-42.54 c0.42-4.22-1.06-6.32-2.39-7.22c-1.33-0.89-3.81-0.78-6.32-2.31c-2.52-1.52-3.29-3.97-4.73-4.94c-1.45-0.96-6.74-0.01-11.15,3.46 c-0.55,0.43-0.97,0.88-1.29,1.33c-2.2,3.17,0.82,6.56,0.82,6.56l4.68,4.12" stroke-linecap="round"/>
                <path stroke="#666666" d="M76.3074,103.6227c-1.14-4.65-2.14-10.9-2.41-18.92 c-0.05-1.61-0.05-3.36,0-5.22c0.01-0.25,0.02-0.51,0.02-0.78" stroke-linecap="round"/>
                <path stroke="#663399" d="M91.9074,114.9527c-7.35,0.75-11.54-0.45-11.54-0.45 s-0.82-1.25-1.88-3.94" stroke-linecap="round"/>
                <path stroke="#663399" d="M115.2874,107.6927c-6.07,3.06-11.52,4.93-16.21,6.03" stroke-linecap="round"/>
                <path stroke="#663399" d="M66.7174,21.6627l-1.9,6.8c0,0-0.59,3.97-1.41,9.52 c-0.74,5.15-1.69,11.67-2.53,17.66c-0.12,0.9-0.24,1.79-0.37,2.67c-0.81,5.9-1.46,10.95-1.64,13.1c-0.18,2.1-0.16,5.1,0,8.44 c0,0.09,0.01,0.17,0.01,0.26c0.07,1.59,0.18,3.26,0.31,4.94c0.48,6.22,1.29,12.62,2.08,16.09c1.46,6.45,7.41,12.2,10.56,13.98 c3.14,1.79,8.16,5.32,8.16,5.32c7.98,7.76,13.32,7.48,23.28,6.28c4.18-0.5,10.39-2.69,17.71-5.95c0.02-0.25,0.05-0.51,0.07-0.78 c0.02-0.21,0.04-0.4,0.05-0.58c0.03-0.2,0.04-0.4,0.06-0.61c0.27-3.12,0.26-3.37,0.8-7.34c0.03-0.21,0.06-0.42,0.08-0.63" stroke-linecap="round"/>
                <path stroke="#663399" d="M189.5174,165.9527c0.21-4.83,0.77-10.38,1.72-16.69 c0.02-0.15,0.04-0.3,0.07-0.45c0.04-0.31,0.09-0.63,0.15-0.95c0.33-2.15,0.71-4.39,1.15-6.72c0.07-0.41,0.15-0.82,0.23-1.24 c0.06-0.35,0.13-0.71,0.2-1.07c0.08-0.43,0.17-0.86,0.25-1.28c0.36-1.92,0.7-3.76,1.02-5.51c4.21-23.35,4.21-33.05,2.84-38.68 c-1.51-6.15-4.4-8.08-7.17-8.98c-2.78-0.89-3.62-2.26-7.65-5.12c-3.34-2.37-11.16,1.29-15.09,3c-0.82,0.35-1.46,0.62-1.87,0.73 c-1.5,0.42-12.27,5.64-25.43,12.22c-0.05,0.38-0.09,0.73-0.14,1.08c-0.17,1.36-0.32,2.45-0.41,3.14 c-0.02,0.17-0.04,0.31-0.06,0.43c-0.01,0.06-0.01,0.1-0.02,0.15c-0.02,0.14-0.03,0.21-0.03,0.21s-0.07,0.33-0.2,0.95 c-0.02,0.13-0.05,0.27-0.08,0.43c-0.05,0.24-0.1,0.52-0.16,0.82h-0.01c0,0.03-0.01,0.06-0.01,0.09 c-0.05,0.27-0.11,0.57-0.17,0.89c-0.03,0.13-0.05,0.27-0.08,0.41c-0.05,0.28-0.11,0.57-0.16,0.88c-0.03,0.16-0.06,0.31-0.09,0.48 c-0.03,0.16-0.06,0.33-0.09,0.5c-0.04,0.23-0.09,0.47-0.13,0.71c-0.11,0.63-0.23,1.31-0.35,2.01c-0.07,0.4-0.13,0.8-0.2,1.22 c-0.03,0.2-0.07,0.41-0.1,0.62c-0.09,0.52-0.17,1.04-0.26,1.58c-0.02,0.16-0.05,0.32-0.08,0.49c-0.02,0.19-0.05,0.38-0.08,0.58 c5.52-2.92,11.23-6.11,16.92-9.43" stroke-linecap="round"/>
                <path stroke="#663399" d="M193.4974,189.9327c-0.42-0.15-0.63-0.27-0.63-0.27c-0.03-0.06-0.06-0.11-0.1-0.17 c-1.61-2.88-2.78-7.29-3.2-13.48"/>
                <path stroke="#663399" d="M216.5674,183.2827c-4.08,1.99-7.4,3.63-9.32,4.6 c-3.21,1.63-5.91,2.34-8.08,2.58" stroke-linecap="round"/>
                <path stroke="#663399" d="M182.7674,100.2027c-0.78,5.98-1.97,14.41-2.89,20.82 c-0.76,5.3-1.34,9.21-1.34,9.21s-0.16,0.99-0.41,2.67c-0.26,1.77-0.62,4.31-1.01,7.27c-0.69,5.23-1.46,11.75-1.88,17.59 c-0.23,2.97-0.36,5.77-0.34,8.13c0.08,12.1,3.68,22.55,6.93,24.89c3.26,2.34,9.28,5.1,9.28,5.1 c13.22,15.29,37.73-2.69,37.73-2.69s1.2-0.58,1.6-0.78h0.01c0.02-0.34,0.04-0.68,0.06-1.02c0.09-1.39,0.19-2.77,0.3-4.1 c0.05-0.57,0.1-1.14,0.15-1.69c0.12-1.28,0.25-2.5,0.39-3.64c0.02-0.23,0.05-0.46,0.08-0.68c0.02-0.15,0.04-0.29,0.06-0.43 c0.04-0.32,0.08-0.64,0.13-0.94c0.03-0.2,0.06-0.39,0.09-0.58c0.06-0.39,0.12-0.77,0.18-1.12c0.06-0.35,0.13-0.74,0.2-1.17 c0.07-0.42,0.15-0.89,0.23-1.38c-0.01,0-0.01,0.01-0.02,0.01c-1.75,0.85-3.51,1.69-5.23,2.52" stroke-linecap="round"/>
                <path stroke="#663399" d="M167.5474,96.3327c6.82-2.93,11.16-3.64,13.57-3.72" stroke-linecap="round"/>
                <path stroke="#666666" d="M294.0474,169.5827c-0.41,5.56-1.31,13.75-1.95,19.02 c-0.28,2.32-0.51,4.06-0.63,4.78c-0.43,2.56,1.41,3.63,2.14,3.94c0.18,0.08,0.29,0.11,0.29,0.11s7.37,1.27,10.11,0.99 c2.07-0.22,2.41-3.37,2.41-3.37c3.7-15.35,2.1-26.39,0.96-30.21c-1.14-3.82-6.35-6.84-9.02-8.14c-2.66-1.3-1.06-1.99-6.57-5.52 c-5.22-3.34-13.81,2.86-14.71,3.53" stroke-linecap="round"/>
                <path stroke="#666666" d="M276.7274,169.0327c5.12-2,10.23-3.43,13.59-4.26" stroke-linecap="round"/>
                <path stroke="#666666" d="M246.6374,183.6327l-0.13,0.85c6.07-3.04,12.56-6.35,17.46-9.01" stroke-linecap="round"/>
                <path stroke="#666666" d="M277.0674,154.7227c-0.05,0.03-0.07,0.05-0.07,0.05l-17.94,8.06 c0,0-4.32,2.07-9.94,4.77l-0.96,6.19" stroke-linecap="round"/>
                <path stroke="#663399" d="M191.1074,195.8527c0,0-4.16-5.02-5.22-15.68"/>
                <path stroke="#663399" d="M195.9974,195.2827c3.46,3.65,10.4,6.76,23.96,1.45" stroke-linecap="round"/>
                <path stroke="#663399" d="M194.9674,194.0627c0.08,0.1,0.16,0.2,0.24,0.3" stroke-linecap="round"/>
                <path stroke="#663399" d="M194.4874,193.3627c0.05,0.08,0.1,0.15,0.15,0.23" stroke-linecap="round"/>
                <path stroke="#663399" d="M192.7674,189.4927c0,0,0.08,0.4,0.31,1.05" stroke-linecap="round"/>
                <path stroke="#663399" d="M293.0274,160.9727c-1.9-3.74-6.43-9.18-15.95-6.26l-0.01,0.01 c-0.01,0-0.01,0-0.02,0" stroke-linecap="round"/>
                <path stroke="#663399" d="M294.2474,164.0727c0,0-0.01-0.03-0.03-0.1" stroke-linecap="round"/>
                <path stroke="#663399" d="M244.9974,231.2227c-0.12-0.21-4.05-7.21-4.43-15.37" stroke-linecap="round"/>
                <path stroke="#666666" d="M245.0074,231.2327c0,0,0,0-0.01-0.01" stroke-linecap="round" stroke-linejoin="round"/>
                <path stroke="#663399" d="M250.4274,231.2027c3.53,3.72,10.48,6.96,23.61,1.61" stroke-linecap="round"/>
                <path stroke="#663399" d="M247.0774,225.5227c0.02,0.08,0.08,0.3,0.2,0.64" stroke-linecap="round"/>
                <path stroke="#663399" d="M131.4474,141.2727c0,0,1.41,14.74,4.47,17.78" stroke-linecap="round"/>
                <path stroke="#663399" d="M141.4074,158.4727c3.51,4.06,10.61,7.87,24.06,1.58" stroke-linecap="round"/>
                <path stroke="#666666" d="M138.2674,152.9128c0,0,0,0.02,0.01,0.05 c0.03,0.08,0.08,0.26,0.17,0.51" stroke-linecap="round" stroke-linejoin="round"/>
                <path stroke="#663399" d="M80.3974,120.7127c0,0-9.05-9.28-7.99-33.16" stroke-linecap="round"/>
                <path stroke="#663399" d="M80.6274,114.6027c0,0,10.77,19.43,38.57,5.28" stroke-linecap="round"/>
                <path stroke="#663399" d="M131.4974,55.9627c0,0,2.38-10.5-4.98-14.62" stroke-linecap="round"/>
                <path stroke="#663399" d="M128.8474,52.7427c0,0-5.11-13.6-15.01-8.66" stroke-linecap="round"/>
                <path stroke="#663399" d="M23.4174,81.6427c0,0-0.03-0.02-0.09-0.07 c-0.02-0.01-0.04-0.02-0.06-0.03c-1.34-1.01-11.25-8.79-12.56-21.36" stroke-linecap="round"/>
                <path stroke="#663399" d="M68.2574,7.6427c-0.11-1.68-0.43-2.98-1.06-3.45 c-2.24-1.66-2.84-1.27-2.84-1.27" stroke-linecap="round"/>
                <path stroke="#663399" d="M68.3274,9.5427c0-0.59-0.01-1.16-0.05-1.69" stroke-linecap="round"/>
                <path stroke="#663399" d="M261.3474,189.3527l15.38-20.32l4.73-6.25c0,0-0.42-2.09-1.67-2.93 c-1.26-0.84-3.93,0.09-3.93,0.09l-11.89,15.53l-7.93,10.36c0.06,0.54,0.23,1.11,0.5,1.64c0.14,0.26,0.3,0.51,0.48,0.74 c0.19,0.24,0.39,0.46,0.62,0.65c0.23,0.19,0.48,0.35,0.75,0.48c0.28,0.13,0.56,0.23,0.88,0.28c0.31,0.06,0.63,0.06,0.98,0.02 C260.5974,189.6027,260.9674,189.5127,261.3474,189.3527z" stroke-linecap="round"/>
                <path stroke="#663399" d="M113.9774,90.5927c0-0.37-0.05-0.72-0.11-1.04 c-0.07-0.32-0.17-0.6-0.29-0.86c-0.13-0.26-0.29-0.49-0.46-0.69c-0.18-0.2-0.37-0.36-0.58-0.5c-0.22-0.13-0.47-0.24-0.72-0.32 c-0.26-0.07-0.52-0.11-0.81-0.12s-0.58,0.02-0.89,0.07c-0.31,0.06-0.64,0.14-0.97,0.27l-17.24,27.55l-2.91,4.64 c0,0,0.54,1.74,1.67,2.26c0.56,0.27,1.33,0.3,1.96,0.27c0.63-0.03,1.13-0.14,1.13-0.14l5.32-8.26L113.9774,90.5927z" stroke-linecap="round"/>
                <path stroke="#663399" d="M183.5974,92.6327c-0.09-2.12-1.3-15.13-16.36-10.37 c-0.07,0.02-0.15,0.04-0.23,0.07" stroke-linecap="round"/>
                <path stroke="#666666" d="M183.6074,92.9327c0,0,0-0.05-0.01-0.15" stroke-linecap="round"/>
                <path stroke="#663399" d="M232.6174,170.0927c-0.28,0.09-0.56,0.15-0.83,0.16 c-0.27,0.01-0.54-0.02-0.8-0.08c-0.27-0.06-0.53-0.14-0.78-0.25c-0.24-0.12-0.48-0.26-0.7-0.42c-0.44-0.33-0.81-0.73-1.09-1.18 c-0.13-0.22-0.24-0.45-0.32-0.69c-0.08-0.24-0.13-0.48-0.15-0.72l-11.38,16.37l-6.19,8.91c0,0.07,0.01,2.05,1.09,2.78 c1.1,0.73,3.45,0.95,3.45,0.95l12.15-17.73L232.6174,170.0927z" stroke-linecap="round"/>
                <path stroke="#663399" d="M287.0674,206.5927l-0.07-0.05c-0.28,0.21-0.56,0.36-0.85,0.46 c-0.29,0.1-0.58,0.15-0.87,0.15s-0.57-0.05-0.84-0.13c-0.28-0.09-0.54-0.22-0.78-0.38c-0.25-0.16-0.48-0.35-0.68-0.59 c-0.2-0.22-0.37-0.49-0.51-0.77c-0.14-0.29-0.24-0.6-0.31-0.93s-0.09-0.69-0.07-1.06l-10.61,15.57l-6.58,9.65 c0,0-0.18,1.8,1.15,2.7c1.33,0.89,3.15,0.74,3.15,0.74l13.58-19.27L287.0674,206.5927z" stroke-linecap="round"/>
                <path stroke="#663399" d="M177.7974,133.4128c-0.31-0.97-0.34-4.25-4.37-2.98l-11.52,16.79 l-5.97,8.71c0,0,0.43,2.23,1.52,2.96c1.1,0.74,3.28,0.38,3.28,0.38l10.91-16.54L177.7974,133.4128z" stroke-linecap="round"/>
                <path stroke="#663399" d="M237.6174,125.4127c-0.01-0.03-0.02-0.07-0.03-0.11 c-1.33-4.41-5.6-11.71-18.92-5.31c-0.01,0.01-0.02,0.02-0.03,0.02" stroke-linecap="round"/>
                <path stroke="#663399" d="M237.6174,125.4127c-0.01-0.04-0.02-0.08-0.04-0.11 c-0.02-0.08-0.05-0.17-0.08-0.25l-2.07,3.32l-0.55,0.89" stroke-linecap="round"/>
                <path stroke="#666666" d="M237.6174,125.4227 c0.01-0.01,0-0.01,0-0.01" stroke-linecap="round" stroke-linejoin="round"/>
                <path stroke="#663399" d="M238.2074,128.4627c0,0,0-0.11-0.01-0.32 c-0.04-0.49-0.16-1.49-0.58-2.72" stroke-linecap="round"/>
                <path stroke="#663399" d="M44.3374,42.1327l-22.42,32.32l-0.06,0.09c0,0,1.3,2.63,4.75,3.75 l1.34-1.9l21.74-30.69" stroke-linecap="round"/>
                <path stroke="#663399" d="M96.2874,78.2027l-19.98,25.42l-0.1,0.13 c-0.35,2.04,1.96,7.22,1.96,7.22l0.32-0.41l22.45-28.74" stroke-linecap="round"/>
                <path stroke="#663399" d="M201.7274,186.8827c6-8.41,11.96-16.84,17.95-25.26l-3.96,1.03 l-0.68-4.29l-17.17,25.16" stroke-linecap="round"/>
                <path stroke="#663399" d="M193.1074,190.6227c0.01,0.03,0.02,0.07,0.04,0.11" stroke-linecap="round"/>
                <path stroke="#663399" d="M195.9974 195.2827L195.9974 195.2727"/>
                <path stroke="#663399" d="M195.8374,195.1027c0.01-0.01,0.02-0.02,0.03-0.03c1.1-1.53,2.2-3.07,3.3-4.61 c0.85-1.19,1.71-2.38,2.56-3.58"/>
                <path stroke="#663399" d="M197.8674,183.5227l-4.37,6.41l-0.42,0.61c0.01,0.02,0.01,0.04,0.02,0.06 c0,0,0,0.01,0.01,0.02c0.01,0.03,0.03,0.07,0.04,0.11c0.14,0.38,0.33,0.82,0.58,1.31c0.03,0.06,0.06,0.13,0.11,0.2 c0.1,0.21,0.23,0.44,0.37,0.67c0.04,0.08,0.1,0.17,0.16,0.26c0,0.01,0.01,0.02,0.02,0.03c0.01,0.02,0.03,0.05,0.05,0.08 c0.01,0.02,0.03,0.05,0.05,0.08c0.02,0.04,0.05,0.09,0.1,0.14c0,0.03,0.03,0.06,0.05,0.09s0.04,0.06,0.07,0.09 c0.02,0.05,0.06,0.1,0.1,0.15c0.02,0.03,0.04,0.06,0.07,0.1c0.01,0.01,0.02,0.03,0.04,0.05c0.01,0.02,0.03,0.05,0.05,0.08 c0.01,0.01,0.03,0.03,0.05,0.05c0.05,0.08,0.12,0.17,0.19,0.25c0.02,0.04,0.05,0.08,0.08,0.11c0.11,0.13,0.22,0.26,0.33,0.39 c0.06,0.07,0.12,0.14,0.19,0.21c0,0.01,0.01,0.02,0.03,0.03v0.01c0.05,0.05,0.1,0.11,0.16,0.16"/>
                <path stroke="#663399" d="M248.9674,181.0427l6.28-6.95c0,0,1-2.52-0.26-3.36 c-1.25-0.84-3.5-0.53-3.5-0.53l-3.33,3.59l-0.22,0.24l-0.45,3.12" stroke-linecap="round"/>
                <path stroke="#663399" d="M274.0374,197.8527l20.01-28.27l0.01-0.02 c0.02-0.31,0.05-0.61,0.06-0.9c0.16-2.27,0.21-3.99,0.1-4.69v-0.01c0-0.03,0-0.05-0.01-0.08c0,0-0.22-1.34-1.15-2.86 c-0.01-0.02-0.02-0.03-0.03-0.05l-2.71,3.8l-21.21,29.78" stroke-linecap="round"/>
                <path stroke="#663399" d="M160.6974,121.7627l-1.48,2.12l-6.58,9.38l-3.81,5.43l-10.24,14.59 l-0.14,0.19l-0.01,0.02c0.19,0.51,0.4,0.99,0.63,1.44" stroke-linecap="round"/>
                <path stroke="#663399" d="M141.4074 158.4727L144.2074 154.5427 151.0774 144.8827 157.1874 136.3027 157.2074 136.3127 165.2674 125.0127" stroke-linecap="round"/>
                <path stroke="#666666" d="M139.5074,155.7727 c0.95,1.7,1.9,2.7,1.9,2.7" stroke-linecap="round" stroke-linejoin="round"/>
                <path stroke="#663399" d="M139.2774,155.3427c0.07,0.15,0.15,0.29,0.23,0.43" stroke-linecap="round"/>
                <path stroke="#666666" d="M139.0674,154.9327 c0.06,0.14,0.13,0.28,0.21,0.41" stroke-linecap="round" stroke-linejoin="round"/>
                <path stroke="#663399" d="M88.0474,72.8027l3.9-2.97l13.14-10.03c0,0,1.92-2.69,0.87-4.19 c-1.04-1.49-3.64-0.83-3.64-0.83l-19.83,14.55" stroke-linecap="round"/>
                <path stroke="#663399" d="M152.5774,116.3027l14.97-19.97l4.54-6.05c0,0-0.44-1.89-1.93-2.89 c-1.49-1-4.25,0.23-4.25,0.23l-11.96,15.83l-6.96,9.21l5.02-1.35l0.56,4.98L152.5774,116.3027z" stroke-linecap="round"/>
                <path stroke="#663399" d="M206.9174,152.9527l15.05-20.02l4.67-6.21c0,0-0.18-1.93-1.43-2.77 c-1.26-0.85-3.62-0.04-3.62-0.04l-11.93,15.64l-7.64,10.01" stroke-linecap="round"/>
                <path stroke="#663399" d="M100.9374,81.8227l21.87-28.02l1.96-2.51c0,0-0.49-1.81-1.82-2.7 c-1.33-0.89-2.86-0.66-2.86-0.66l-8.6,10.93l-15.2,19.34l0.06,5.14L100.9374,81.8227z" stroke-linecap="round"/>
                <path stroke="#663399" d="M206.9174,152.9527l-0.72-4.11l-4.18,0.72l-12.5,16.39l-0.57,0.74 c-0.5,0.92,0.13,9.98,0.13,9.98l0.49-0.66L206.9174,152.9527z" stroke-linecap="round"/>
                <path stroke="#663399" d="M248.9674 181.0427L247.5974 177.4427 247.4874 177.1527 246.5274 183.7527 246.6374 183.6327z" stroke-linecap="round"/>
                <path stroke="#663399" d="M73.9174 79.4727L73.9274 83.5827 88.0374 72.8127 88.0474 72.8027 88.0874 72.1127 88.2974 68.4827 82.4874 69.3327 80.2874 70.9527 75.1074 74.7527 74.0774 75.5027 73.9174 75.6227 73.9174 78.7027z" stroke-linecap="round"/>
                <path stroke="#663399" d="M160.6974,121.7627l0.04,4.73l4.52-1.49l0.01,0.01l4.7-6.6 l6.38-8.95l6.37-8.95c0.02-0.1,0.03-0.21,0.05-0.31c0.01-0.03,0.01-0.05,0.01-0.08c0.4-2.39,0.63-4.03,0.74-5.28 c0.02-0.22,0.04-0.43,0.05-0.63c0.04-0.54,0.04-1,0.03-1.43c0-0.05-0.01-0.1,0-0.15c-0.02-0.16-0.03-0.31-0.04-0.47 c-0.05-0.46-0.11-0.92-0.2-1.41c-0.06-0.32-0.13-0.66-0.21-1.04l-2.03,2.9l-5.6,7.98l-7.63,10.89v0.02L160.6974,121.7627z" stroke-linecap="round"/>
                <path stroke="#663399" d="M274.0374,197.8527l-0.02-0.01l-0.77-3.99l-4.14,0.7l-22.04,30.93 c0,0,0,0,0,0.01c0.01,0.01,0.01,0.02,0.01,0.03c0.03,0.09,0.09,0.31,0.2,0.64c0.07,0.17,0.15,0.38,0.25,0.61 c0.03,0.09,0.08,0.19,0.13,0.3c0.26,0.6,0.64,1.32,1.14,2.09c0.2,0.3,0.42,0.61,0.67,0.93c0.11,0.16,0.24,0.31,0.38,0.47 c0.17,0.22,0.37,0.44,0.57,0.65l0.01-0.01l3.36-4.75L274.0374,197.8527z" stroke-linecap="round"/>
                <path stroke="#663399" d="M49.6874,45.7027l17.03-24.04l0.6-0.84c0,0,0.01-0.06,0.02-0.16 c0.03-0.14,0.06-0.37,0.1-0.67c0.03-0.15,0.05-0.32,0.07-0.51c0.02-0.09,0.03-0.19,0.04-0.29c0.04-0.3,0.09-0.64,0.13-1 c0.07-0.49,0.13-1.02,0.19-1.59c0.02-0.15,0.03-0.29,0.05-0.44c0.03-0.29,0.06-0.59,0.09-0.9c0.02-0.15,0.03-0.31,0.04-0.46 c0.05-0.47,0.09-0.95,0.12-1.43c0.03-0.32,0.05-0.65,0.07-0.97c0.02-0.32,0.03-0.65,0.05-0.97c0.01-0.32,0.02-0.64,0.03-0.96 c0.01-0.31,0.01-0.62,0.01-0.93c0-0.59-0.02-1.15-0.05-1.69c0-0.05,0-0.1-0.01-0.14c0-0.03,0-0.05,0-0.08l-0.01,0.01l-6.02,8.68 l-17.9,25.81l0.78,4.88L49.6874,45.7027z" stroke-linecap="round"/>
            </g>
        </g>
    </g>
</svg>
