<svg xmlns="http://www.w3.org/2000/svg" id="hud1" width="378.4747px" height="325.0326px" x="0px" y="0px" version="1.1" viewBox="0 0 378.4747 325.0326" enable-background="new 0 0 378.4747 325.0326" xml:space="preserve">
    <g class="hud1-wrap">
        <g class="hud1-bg">
            <g fill="none" stroke-miterlimit="10" class="hud1-rings">
                <circle cx="223.8648" cy="155.5424" r="96.5" stroke="#AAFF00" class="hud1-center1"/>
                <circle cx="223.8648" cy="155.5424" r="104.5" stroke="#AAFF00" class="hud1-center2"/>
                <g stroke="#9933FF" opacity="0.9" class="hud1-ring1">
                    <path d="M166.7228,248.7837c-6.718-4.0668-12.9628-8.839-18.6332-14.212 l-8.4863,8.4863c6.4126,6.1088,13.495,11.5189,21.1208,16.1157L166.7228,248.7837z"/>
                    <path d="M318.8295,103.5796c3.7136,6.8303,6.7146,14.1012,8.9106,21.7098 l11.5959-3.1071c-2.4738-8.6321-5.8853-16.8715-10.1156-24.602L318.8295,103.5796z"/>
                    <path d="M105.4241,127.4709c-2.07,8.5146-3.2368,17.0616-3.3925,27.0616 h11.9999c0.1526-9,1.1788-16.1438,2.9869-23.6657L105.4241,127.4709z"/>
                    <path d="M127.2923,103.3612l-10.3907-5.999 c-4.2655,7.7568-7.7062,16.0276-10.2007,24.6961l11.5959,3.1071C120.5134,117.5204,123.5438,110.2181,127.2923,103.3612z"/>
                    <path d="M192.7128,260.1828c-7.5893-2.1987-14.8419-5.1976-21.6555-8.9066 l-5.9991,10.3907c7.7138,4.2257,15.9348,7.6353,24.5475,10.1119L192.7128,260.1828z"/>
                    <path d="M117.2029,182.2812c-1.8606-7.5027-2.9482-14.7486-3.1589-22.7486 h-12.0023c0.2151,9,1.4432,17.6494,3.5668,26.1445L117.2029,182.2812z"/>
                    <path d="M302.0981,80.5632c5.3857,5.6839,10.1672,11.9451,14.2404,18.6811 l10.39-5.9987c-4.603-7.644-10.0226-14.7427-16.1442-21.1686L302.0981,80.5632z"/>
                    <path d="M310.1879,239.2781c6.1226-6.3674,11.5587-13.3991,16.1826-20.979 l-10.3953-6.0017c-4.0931,6.6724-8.8823,12.8735-14.2686,18.4994L310.1879,239.2781z"/>
                    <path d="M339.1141,189.5096l-11.596-3.1071 c-2.2425,7.5647-5.2832,14.7886-9.0284,21.5732l10.3907,5.999C333.1431,206.2905,336.5927,198.0972,339.1141,189.5096z"/>
                    <path d="M328.8278,182.1554l11.5944,3.3959 c2.1044-8.4567,3.322-17.0188,3.5361-26.0188h-12.0023C331.7464,166.5325,330.6694,174.6912,328.8278,182.1554z"/>
                    <path d="M285.6485,258.9532 c7.5861-4.6098,14.6259-10.0318,21.0021-16.1413l-8.4814-8.4814c-5.6345,5.3735-11.8433,10.1492-18.5219,14.2285 L285.6485,258.9532z"/>
                    <path d="M164.7073,49.4768l5.9991,10.3906 c6.8562-3.7651,14.1591-6.812,21.8069-9.0436l-3.1071-11.5959C180.735,41.7377,172.4633,45.1944,164.7073,49.4768z"/>
                    <path d="M197.2197,49.5364c7.53-1.8237,15.2803-2.8654,23.2803-3.0292v-12 c-9,0.1672-17.9269,1.3488-26.4495,3.4348L197.2197,49.5364z"/>
                    <path d="M248.7974,261.3454c-7.4562,1.826-15.2974,2.8899-23.2974,3.0881 v12c10-0.2026,17.8929-1.4053,26.3416-3.4938L248.7974,261.3454z"/>
                    <path d="M256.8574,271.6407c8.585-2.5062,16.7773-5.9396,24.4623-10.1854 l-5.999-10.3907c-6.7852,3.7286-14.0085,6.7527-21.5704,8.9801L256.8574,271.6407z"/>
                    <path d="M139.1956,68.2857l8.4813,8.4813 c5.6832-5.4411,11.9519-10.2748,18.702-14.3951l-6.0007-10.3935C152.7204,56.6291,145.62,62.1082,139.1956,68.2857z"/>
                    <path d="M194.3152,273.0546c8.4607,2.0553,17.1848,3.2194,26.1848,3.3853 v-12c-7-0.1624-15.6727-1.1862-23.1406-2.9797L194.3152,273.0546z"/>
                    <path d="M253.9498,50.9619c7.6203,2.2606,14.8942,5.3322,21.7218,9.117 l5.999-10.3906c-7.727-4.3026-15.9704-7.7828-24.6137-10.3223L253.9498,50.9619z"/>
                    <path d="M252.1063,38.0569c-8.5105-2.1194-16.6063-3.3391-26.6063-3.5433 v12c9,0.2,15.9189,1.2811,23.4371,3.1376L252.1063,38.0569z"/>
                    <path d="M340.6067,127.5966l-11.5944,3.396 c1.7892,7.4833,2.8044,15.5399,2.9562,23.5399h11.9999C343.8135,144.5325,342.6577,136.0727,340.6067,127.5966z"/>
                    <path d="M119.3989,93.0304l10.39,5.9987 c4.1064-6.7561,8.9261-13.0329,14.3542-18.7247l-8.4813-8.4813C129.4976,78.2563,124.0354,85.3666,119.3989,93.0304z"/>
                    <path d="M127.6324,208.1938c-3.7802-6.8109-6.8504-14.0663-9.1135-21.6672 l-11.596,3.1071c2.5422,8.6239,6.0209,16.8489,10.3188,24.5592L127.6324,208.1938z"/>
                    <path d="M144.5404,231.0498 c-5.4285-5.6336-10.2567-11.848-14.3831-18.5403l-10.3953,6.0018c4.6575,7.5995,10.1318,14.6452,16.2971,21.0198 L144.5404,231.0498z"/>
                    <path d="M279.9886,62.6015c6.7103,4.1328,12.9406,8.9712,18.5875,14.4125 l8.4813-8.4813c-6.3879-6.178-13.4495-11.6627-21.0671-16.3265L279.9886,62.6015z"/>
                </g>
                <g stroke="#1B1F77" opacity="0.7" class="hud1-ring2">
                    <path d="M355.7626,117.7809 c-2.8665-10.0823-6.8588-19.6941-11.822-28.6992l-10.3906,5.999c4.4457,8.1055,8.0283,16.7484,10.6177,25.807L355.7626,117.7809 z"/>
                    <path d="M288.491,47.8749c7.9959,4.8848,15.4037,10.6388,22.1003,17.1239 l8.4812-8.4812c-7.437-7.2224-15.6762-13.6228-24.58-19.0377L288.491,47.8749z"/>
                    <path d="M100.7776,186.6823c-2.2334-8.9084-3.519-18.1498-3.7358-27.1498 h-12c0.2202,10,1.6445,20.6453,4.1415,30.5457L100.7776,186.6823z"/>
                    <path d="M112.9122,216.6925c-4.5139-8.0849-8.1627-16.714-10.821-25.7642 l-11.5959,3.1071c2.9364,10.0735,6.994,19.6722,12.0262,28.6561L112.9122,216.6925z"/>
                    <path d="M314.1191,68.5421c6.4282,6.7349,12.1149,14.1816,16.9385,22.204 l10.3899-5.9986c-5.3527-8.9306-11.6824-17.2107-18.8471-24.6867L314.1191,68.5421z"/>
                    <path d="M85.0316,154.5325h12c0.1569-10,1.3821-19.428,3.5615-28.3561 l-11.5942-2.8175C86.5565,133.2794,85.1909,143.5325,85.0316,154.5325z"/>
                    <path d="M158.2247,263.5028 c-8.0042-4.8174-15.4346-10.4947-22.1562-16.9101l-8.4813,8.4813c7.4627,7.1518,15.7264,13.472,24.6389,18.8187 L158.2247,263.5028z"/>
                    <path d="M132.5251,243.065c-6.4723-6.6832-12.2159-14.0753-17.0945-22.053 l-10.3953,6.0017c5.4088,8.8856,11.799,17.1088,19.0085,24.5326L132.5251,243.065z"/>
                    <path d="M90.2734,117.6565l11.5959,3.1071 c2.61-9.0949,6.2218-17.7695,10.7029-25.9011l-10.3906-5.999C97.1826,97.8945,93.1605,107.5379,90.2734,117.6565z"/>
                    <path d="M355.5417,193.9114l-11.5959-3.1071 c-2.6375,9.014-6.2575,17.6111-10.7359,25.67l10.3906,5.9991C348.597,213.5154,352.6262,203.9487,355.5417,193.9114z"/>
                    <path d="M318.6658,254.827l-8.4813-8.4813 c-6.6851,6.4163-14.0723,12.1059-22.0366,16.9366l5.9987,10.3899C303.0188,268.3118,311.2397,261.9799,318.6658,254.827z"/>
                    <path d="M156.2086,34.7567l5.999,10.3906 c8.1307-4.4981,16.8063-8.1255,25.9039-10.751l-3.1071-11.5959C174.8832,25.7032,165.2386,29.7406,156.2086,34.7567z"/>
                    <path d="M289.8184,276.1754l-5.9991-10.3906 c-8.0598,4.4614-16.6559,8.0654-25.6673,10.6876l3.1071,11.5959C271.294,285.1684,280.8593,281.1548,289.8184,276.1754z"/>
                    <path d="M341.0929,226.7991l-10.391-5.9993 c-4.845,7.9582-10.5505,15.3361-16.98,22.0122l8.4813,8.4813C329.3695,243.8764,335.718,235.6651,341.0929,226.7991z"/>
                    <path d="M188.311,276.6104c-9.0391-2.5923-17.6637-6.1729-25.7524-10.6141 l-5.999,10.3906c8.9883,4.9587,18.5816,8.95,28.6443,11.8194L188.311,276.6104z"/>
                    <path d="M253.1985,277.7708c-8.8621,2.198-17.6985,3.4586-27.6985,3.6627 v12.0001c11-0.2075,20.8884-1.6072,30.7427-4.0685L253.1985,277.7708z"/>
                    <path d="M256.5074,21.6316c-9.9158-2.4927-20.0074-3.909-31.0074-4.1179 v12.0001c10,0.2057,18.9144,1.4831,27.8382,3.7122L256.5074,21.6316z"/>
                    <path d="M192.8185,33.1111c8.936-2.1955,18.6815-3.4353,27.6815-3.6038 v-12c-10,0.1711-20.9224,1.551-30.8506,4.0095L192.8185,33.1111z"/>
                    <path d="M360.9583,159.5325h-12c-0.2158,9-1.4911,18.1539-3.7051,27.0241 l11.5943,3.3959C359.325,180.0904,360.739,169.5325,360.9583,159.5325z"/>
                    <path d="M104.6798,84.5324l10.3899,5.9986 c4.8572-8.0422,10.587-15.4998,17.0582-22.2419l-8.4812-8.4812C116.4388,67.2908,110.0664,75.5821,104.6798,84.5324z"/>
                    <path d="M357.032,123.1955l-11.5942,3.3959 c2.1603,8.8896,3.3745,17.9411,3.5307,27.9411h12C360.8098,143.5325,359.455,133.0775,357.032,123.1955z"/>
                    <path d="M189.9141,289.4799c9.8666,2.4274,20.5859,3.7901,30.5859,3.96 v-12c-9-0.1672-18.6675-1.3898-27.5417-3.5543L189.9141,289.4799z"/>
                    <path d="M258.3515,34.5343c9.0696,2.6555,17.717,6.306,25.8187,10.8245 l5.999-10.3906c-9.0006-5.0369-18.6176-9.0963-28.7106-12.0297L258.3515,34.5343z"/>
                    <path d="M127.1804,56.2706l8.4812,8.4812 c6.7332-6.4844,14.1811-12.231,22.2171-17.1025l-5.9987-10.3899C142.936,42.6604,134.6543,49.0492,127.1804,56.2706z"/>
                </g>
                <g stroke="#1B1F77" opacity="0.4" class="hud1-ring3">
                    <path d="M262.7533,18.1068c10.5195,3.0491,20.5405,7.2791,29.9155,12.532 l5.9991-10.3907c-10.2737-5.7717-21.2643-10.4109-32.8075-13.7372L262.7533,18.1068z"/>
                    <path d="M147.71,20.0365l5.9991,10.3907 c9.4046-5.232,19.4531-9.4402,30.0007-12.4585l-3.1071-11.596C169.0311,9.6678,158.0134,14.2861,147.71,20.0365z"/>
                    <path d="M149.7266,278.2219 c-9.2909-5.5671-17.9019-12.1552-25.6733-19.614l-8.4813,8.4813c8.5121,8.1957,17.9567,15.4267,28.1561,21.5225 L149.7266,278.2219z"/>
                    <path d="M120.51,255.0802c-7.5167-7.7322-14.1752-16.3027-19.8047-25.5665 l-10.3899,5.9987c6.159,10.172,13.4591,19.577,21.7133,28.0492L120.51,255.0802z"/>
                    <path d="M185.5129,305.9052c11.272,2.8005,22.9871,4.3616,34.9871,4.5347 v-12c-11-0.1709-21.6628-1.592-31.9429-4.129L185.5129,305.9052z"/>
                    <path d="M115.1652,44.2554l8.4813,8.4813 c7.7823-7.5284,16.4117-14.1848,25.7341-19.8065l-5.9987-10.39C133.1512,28.691,123.6878,35.9897,115.1652,44.2554z"/>
                    <path d="M73.8499,113.2558l11.5919,3.106 c3.0025-10.5452,7.1956-20.5922,12.4103-29.9979l-10.3907-5.9991C81.7284,90.6694,77.1291,101.687,73.8499,113.2558z"/>
                    <path d="M257.5997,294.1961 c-10.2676,2.5711-20.0997,4.0287-32.0997,4.2375v12c13-0.2114,23.8844-1.8082,35.1439-4.6431L257.5997,294.1961z"/>
                    <path d="M296.9919,33.1508c9.282,5.6356,17.8691,12.3034,25.6145,19.8329 l8.4813-8.4813c-8.4854-8.267-17.9069-15.5765-28.0972-21.7415L296.9919,33.1508z"/>
                    <path d="M68.0316,154.5325h12c0.1603-12,1.5842-22.4234,4.1362-32.7572 l-11.5944-2.8175C69.7579,130.2837,68.1938,141.5325,68.0316,154.5325z"/>
                    <path d="M84.3523,191.0835c-2.6071-10.3137-4.0892-20.5509-4.3105-31.5509 h-12c0.2241,12,1.845,23.6415,4.7162,34.9468L84.3523,191.0835z"/>
                    <path d="M358.6607,80.583L348.27,86.5821 c5.179,9.3798,9.3405,19.3959,12.3223,29.9047l11.5916-3.106C368.9256,101.8484,364.3577,90.8617,358.6607,80.583z"/>
                    <path d="M326.1342,56.527c7.4716,7.7847,14.0693,16.412,19.6424,25.7211 l10.39-5.9987c-6.1018-10.2176-13.3425-19.6784-21.551-28.2038L326.1342,56.527z"/>
                    <path d="M188.4174,16.6858C198.759,14.1175,209.5,12.6794,220.5,12.5073 v-12c-12,0.1741-23.9183,1.7521-35.2518,4.5842L188.4174,16.6858z"/>
                    <path d="M89.9608,76.0343l10.39,5.9987 c5.607-9.3288,12.2472-17.9675,19.762-25.759l-8.4813-8.4813C103.3794,56.3246,96.0966,65.7972,89.9608,76.0343z"/>
                    <path d="M355.812,235.2971l-10.3899-5.9986 c-5.5955,9.2443-12.2116,17.8032-19.6851,25.5287l8.4813,8.4813C342.429,254.8428,349.6871,245.4496,355.812,235.2971z"/>
                    <path d="M183.9093,293.0377 c-10.4893-2.9849-20.4865-7.1469-29.8494-12.3213l-5.999,10.3907c10.262,5.6924,21.2296,10.2607,32.7425,13.5222 L183.9093,293.0377z"/>
                    <path d="M330.681,266.8422l-8.4813-8.4813 c-7.7346,7.4599-16.3031,14.0594-25.5537,19.6404l5.9987,10.39C312.8036,282.2811,322.2059,275.0392,330.681,266.8422z"/>
                    <path d="M373.4573,118.7944l-11.5944,3.3959 c2.5326,10.2954,3.9459,20.3422,4.1055,32.3422h12C377.8068,141.5325,376.2533,130.0819,373.4573,118.7944z"/>
                    <path d="M260.9086,5.2063C249.5878,2.3396,238.5,0.7263,225.5,0.5137v12 c12,0.2101,21.9103,1.6843,32.2394,4.2869L260.9086,5.2063z"/>
                    <path d="M377.9583,159.5325h-12c-0.2205,11-1.6924,21.1497-4.2798,31.4252 l11.5943,3.3959C376.1241,183.0864,377.735,171.5325,377.9583,159.5325z"/>
                    <path d="M371.9693,198.3131l-11.5959-3.1071 c-3.0312,10.4639-7.2309,20.4343-12.4434,29.767l10.3907,5.9991C364.0517,220.7406,368.6608,209.8006,371.9693,198.3131z"/>
                    <path d="M298.3171,290.8956l-5.9991-10.3907 c-9.3337,5.1953-19.3029,9.3795-29.7642,12.395l3.1071,11.596C277.1459,301.2033,288.0844,296.6093,298.3171,290.8956z"/>
                    <path d="M98.1921,225.1911c-5.2484-9.3583-9.4764-19.3611-12.5285-29.8611 l-11.5959,3.1071c3.3295,11.5236,7.9667,22.4961,13.7338,32.7531L98.1921,225.1911z"/>
                </g>
            </g>
            <g transform="scale(200 -200) translate(1 -1)" opacity="0.5" class="hud1-sphere">
                <g class="hud1-sphere-front">
                    <g fill="#1B1F77" class="hud1-sphere-half">
                        <g class="hud1-meridians">
                            <path d="M0.1035,0.7156c0.0094,0.0003,0.023-0.2205,0.0302-0.4931 s0.0055-0.4938-0.004-0.494c0.0014,0,0.0029,0.0001,0.0043,0.0001C0.1435-0.2712,0.1452-0.05,0.138,0.2226 S0.1172,0.716,0.1078,0.7158C0.1063,0.7157,0.1049,0.7157,0.1035,0.7156z" class="hud1-meridian0"/>
                            <path d="M0.0505,0.7111c0.0464,0.0064,0.1136-0.2075,0.1501-0.4778 s0.0285-0.4945-0.0179-0.5009c0,0,0,0-0.0001,0C0.1841-0.2673,0.1855-0.2671,0.187-0.2669 C0.2333-0.2605,0.2414-0.0363,0.2049,0.234c-0.0365,0.2701-0.1036,0.4839-0.15,0.4778 C0.0534,0.7115,0.052,0.7114,0.0505,0.7111z" class="hud1-meridian1"/>
                            <path d="M-0.0042,0.7003C0.076,0.7209,0.1952,0.5232,0.2619,0.2588 s0.0559-0.4954-0.0244-0.5159c-0.0001,0-0.0002-0.0001-0.0003-0.0001c0.0015,0.0004,0.0029,0.0007,0.0044,0.0011 C0.3219-0.2356,0.3328-0.0046,0.266,0.2598c-0.0667,0.264-0.1856,0.4616-0.2658,0.4417 C-0.0012,0.7011-0.0027,0.7007-0.0042,0.7003z" class="hud1-meridian2"/>
                            <path d="M-0.062,0.6816c0.1082,0.0425,0.276-0.1291,0.3748-0.3833 s0.0912-0.4947-0.017-0.5371C0.2955-0.2389,0.2953-0.239,0.2951-0.2391c0.0015,0.0006,0.003,0.0011,0.0044,0.0017 c0.1082,0.0425,0.1158,0.283,0.017,0.5371C0.218,0.5533,0.0507,0.7248-0.0576,0.6833 C-0.059,0.6828-0.0605,0.6822-0.062,0.6816z" class="hud1-meridian3"/>
                            <path d="M-0.124,0.6521c0.1273,0.0718,0.3384-0.0628,0.4716-0.3008 s0.138-0.4891,0.0107-0.5609C0.3579-0.2099,0.3575-0.2101,0.3571-0.2103C0.3585-0.2095,0.36-0.2087,0.3615-0.2078 C0.4888-0.136,0.484,0.1151,0.3508,0.3531C0.2182,0.5902,0.008,0.7249-0.1196,0.6546 C-0.121,0.6537-0.1225,0.6529-0.124,0.6521z" class="hud1-meridian4"/>
                            <path d="M-0.1903,0.6072c0.1339,0.1074,0.3802,0.0216,0.5501-0.1917 S0.559-0.0577,0.4251-0.1651C0.4246-0.1655,0.424-0.166,0.4235-0.1664C0.4249-0.1653,0.4264-0.1641,0.4278-0.163 c0.1339,0.1074,0.1047,0.3674-0.0653,0.5806C0.1934,0.6299-0.0516,0.7161-0.186,0.6107 C-0.1874,0.6095-0.1889,0.6084-0.1903,0.6072z" class="hud1-meridian5"/>
                            <path d="M-0.2585,0.5407C-0.1346,0.6873,0.1342,0.663,0.342,0.4864 s0.2758-0.4386,0.152-0.5852C0.4933-0.0996,0.4927-0.1003,0.492-0.1011C0.4934-0.0995,0.4947-0.098,0.496-0.0965 c0.1238,0.1466,0.0558,0.4086-0.152,0.5852C0.1375,0.6643-0.1297,0.6895-0.2545,0.5453 C-0.2559,0.5438-0.2572,0.5423-0.2585,0.5407z" class="hud1-meridian6"/>
                            <path d="M-0.3212,0.4463c0.0937,0.1838,0.3663,0.2319,0.6089,0.1074 s0.3633-0.3745,0.2696-0.5583C0.5568-0.0057,0.5562-0.0068,0.5557-0.0079c0.001,0.0019,0.002,0.0039,0.003,0.0059 c0.0937,0.1838-0.027,0.4338-0.2696,0.5583C0.0482,0.6799-0.2228,0.6334-0.3182,0.4521 C-0.3192,0.4502-0.3202,0.4482-0.3212,0.4463z" class="hud1-meridian7"/>
                            <path d="M-0.3646,0.3231c0.0439,0.21,0.2957,0.3344,0.5625,0.2779 c0.2668-0.0565,0.4475-0.2725,0.4036-0.4825C0.6012,0.1171,0.6009,0.1157,0.6006,0.1143 c0.0005,0.0023,0.001,0.0045,0.0015,0.0068c0.0439,0.21-0.1368,0.426-0.4036,0.4825 c-0.2647,0.0561-0.5152-0.066-0.5616-0.2737C-0.3636,0.3276-0.3641,0.3254-0.3646,0.3231z" class="hud1-meridian8"/>
                            <path d="M-0.3735,0.1833c-0.017,0.2155,0.1896,0.4069,0.4615,0.4277 C0.36,0.6317,0.5942,0.4738,0.6112,0.2583c0.0001-0.0015,0.0002-0.0029,0.0003-0.0044 C0.6113,0.2563,0.6112,0.2586,0.611,0.261C0.594,0.4764,0.3598,0.6343,0.0879,0.6136 C-0.1819,0.593-0.3878,0.4043-0.374,0.1903C-0.3738,0.188-0.3737,0.1856-0.3735,0.1833z" class="hud1-meridian9"/>
                            <path d="M-0.344,0.05C-0.4177,0.2479-0.27,0.4849-0.0141,0.5793 s0.5229,0.0104,0.5966-0.1876c0.0005-0.0013,0.0009-0.0025,0.0014-0.0038C0.5831,0.39,0.5823,0.3921,0.5815,0.3943 c-0.0736,0.198-0.3407,0.2819-0.5966,0.1876c-0.2539-0.0937-0.4017-0.328-0.3313-0.5255 C-0.3456,0.0542-0.3448,0.0521-0.344,0.05z" class="hud1-meridian10"/>
                            <path d="M-0.2877-0.0583c-0.1135,0.1645-0.0231,0.4229,0.2018,0.5771 S0.4134,0.6645,0.5269,0.5c0.0006-0.0009,0.0012-0.0018,0.0019-0.0027C0.5276,0.499,0.5264,0.5008,0.5252,0.5025 C0.4117,0.667,0.1374,0.6755-0.0876,0.5213C-0.311,0.3681-0.4019,0.1119-0.2912-0.053 C-0.2901-0.0548-0.2889-0.0565-0.2877-0.0583z" class="hud1-meridian11"/>
                            <path d="M-0.2203-0.1369c-0.1326,0.1253-0.0879,0.3871,0.1,0.5847 s0.4477,0.2563,0.5804,0.131C0.4607,0.5783,0.4614,0.5777,0.462,0.5771c-0.0014,0.0013-0.0028,0.0027-0.0042,0.004 c-0.1326,0.1253-0.3925,0.0667-0.5804-0.131c-0.1869-0.1966-0.2323-0.4568-0.1019-0.583 C-0.2231-0.1342-0.2217-0.1355-0.2203-0.1369z" class="hud1-meridian12"/>
                            <path d="M-0.1523-0.1906C-0.2856-0.103-0.2716,0.1523-0.1211,0.3797 s0.3806,0.3408,0.5139,0.2532c0.0005-0.0003,0.001-0.0006,0.0015-0.001c-0.0015,0.001-0.0029,0.002-0.0044,0.0029 C0.2564,0.7224,0.0264,0.6091-0.1241,0.3817C-0.274,0.1552-0.2885-0.0991-0.1567-0.1877 C-0.1552-0.1887-0.1537-0.1896-0.1523-0.1906z" class="hud1-meridian13"/>
                            <path d="M-0.088-0.2263c-0.1196,0.0552-0.1232,0.3004-0.008,0.5475 s0.3054,0.4028,0.425,0.3476c0.0003-0.0001,0.0006-0.0003,0.0009-0.0004C0.3285,0.6691,0.327,0.6698,0.3255,0.6705 c-0.1196,0.0552-0.3099-0.1004-0.425-0.3476c-0.1148-0.2464-0.1116-0.491,0.0071-0.5471 C-0.091-0.2249-0.0895-0.2256-0.088-0.2263z" class="hud1-meridian14"/>
                            <path d="M-0.0282-0.2493c-0.0953,0.0298-0.1059,0.2648-0.0237,0.5248 s0.2262,0.4466,0.3216,0.4167c0.0002,0,0.0003-0.0001,0.0005-0.0001C0.2686,0.6926,0.2672,0.693,0.2657,0.6935 C0.1704,0.7233,0.0264,0.5368-0.0559,0.2768C-0.138,0.0173-0.1276-0.2174-0.0326-0.2479 C-0.0311-0.2483-0.0297-0.2488-0.0282-0.2493z" class="hud1-meridian15"/>
                            <path d="M0.0279-0.2632c-0.0639,0.0121-0.0741,0.2389-0.0228,0.5068 s0.1448,0.4751,0.2087,0.4631c0.0001,0,0.0001,0,0.0002,0C0.2126,0.7069,0.2111,0.7072,0.2096,0.7074 C0.1457,0.7195,0.0523,0.5122,0.0009,0.2444c-0.0513-0.2675-0.0412-0.4943,0.0226-0.5067 C0.0249-0.2627,0.0264-0.2629,0.0279-0.2632z" class="hud1-meridian16"/>
                            <path d="M0.0815-0.2702C0.0533-0.268,0.0482-0.0458,0.0699,0.226 s0.0623,0.4904,0.0904,0.4881C0.1589,0.7142,0.1575,0.7144,0.156,0.7145C0.1279,0.7167,0.0874,0.4982,0.0656,0.2264 S0.049-0.2676,0.0771-0.2699C0.0786-0.27,0.08-0.2701,0.0815-0.2702z" class="hud1-meridian17"/>
                        </g>
                        <g class="hud1-circles-of-latitude">
                            <path d="M-0.016-0.2529c0.0854-0.0242,0.1841-0.0242,0.2695,0 c-0.0043-0.0012-0.0086-0.0024-0.013-0.0035c-0.0779-0.0198-0.1657-0.0198-0.2436,0 C-0.0074-0.2553-0.0117-0.2541-0.016-0.2529z" class="hud1-circle-of-latitude4"/>
                            <path d="M-0.1735-0.1758c0.1338-0.0983,0.3731-0.1119,0.5345-0.0304 c0.0182,0.0092,0.0349,0.0194,0.05,0.0304C0.4091-0.1772,0.4072-0.1786,0.4053-0.18 C0.2701-0.2763,0.0322-0.2877-0.1261-0.2054C-0.141-0.1976-0.155-0.1891-0.1678-0.18 C-0.1697-0.1786-0.1716-0.1772-0.1735-0.1758z" class="hud1-circle-of-latitude5"/>
                            <path d="M-0.2665-0.0867C-0.1627-0.2162,0.094-0.27,0.3068-0.2068 C0.3927-0.1813,0.4621-0.139,0.504-0.0867C0.5027-0.0883,0.5015-0.0899,0.5002-0.0914 c-0.1054-0.1282-0.3616-0.1802-0.5723-0.116c-0.0825,0.0251-0.1493,0.0658-0.1906,0.116 C-0.264-0.0899-0.2652-0.0883-0.2665-0.0867z" class="hud1-circle-of-latitude6"/>
                            <path d="M-0.328,0.0118c0.0707-0.1502,0.328-0.2371,0.5748-0.194 c0.1541,0.0269,0.2745,0.1002,0.3187,0.194C0.5647,0.0101,0.5639,0.0084,0.563,0.0067 C0.4906-0.1427,0.233-0.228-0.0124-0.1839C-0.1631-0.1568-0.281-0.0851-0.3255,0.0067 C-0.3264,0.0084-0.3272,0.0101-0.328,0.0118z" class="hud1-circle-of-latitude7"/>
                            <path d="M-0.3636,0.1167c0.0354-0.1622,0.2801-0.2762,0.5465-0.2546 c0.2179,0.0176,0.3892,0.122,0.4182,0.2546C0.6007,0.1149,0.6003,0.1132,0.5999,0.1114 C0.5627-0.0504,0.3171-0.1632,0.0513-0.1405c-0.2148,0.0183-0.3837,0.1211-0.4138,0.2519 C-0.3628,0.1132-0.3632,0.1149-0.3636,0.1167z" class="hud1-circle-of-latitude8"/>
                            <path d="M-0.375,0.2248c-0.0009-0.166,0.2195-0.301,0.4922-0.3015 s0.4945,0.1336,0.4953,0.2996c0,0.0006,0,0.0013,0,0.0019c0-0.0018,0-0.0036,0-0.0054 c-0.0009-0.166-0.2226-0.3002-0.4953-0.2996C-0.1543-0.0797-0.3741,0.0541-0.375,0.2194 C-0.375,0.2212-0.375,0.223-0.375,0.2248z" class="hud1-circle-of-latitude9"/>
                            <path d="M-0.3624,0.3329c-0.0372-0.1618,0.148-0.3113,0.4138-0.334 S0.5627,0.089,0.5999,0.2508c0.0063,0.0272,0.0063,0.0549,0,0.0821c0.0004-0.0018,0.0008-0.0036,0.0012-0.0053 c0.0354-0.1622-0.1518-0.3111-0.4182-0.3327s-0.5111,0.0924-0.5465,0.2546c-0.0057,0.0259-0.0057,0.0522,0,0.0781 C-0.3632,0.3293-0.3628,0.3311-0.3624,0.3329z" class="hud1-circle-of-latitude10"/>
                            <path d="M-0.3255,0.4375C-0.398,0.2882-0.2578,0.1313-0.0124,0.0872 s0.503,0.0413,0.5754,0.1906c0.0253,0.0521,0.0253,0.1076,0,0.1597c0.0008-0.0017,0.0016-0.0034,0.0024-0.0051 c0.0707-0.1502-0.072-0.3068-0.3187-0.3499s-0.5041,0.0438-0.5748,0.194c-0.024,0.0509-0.024,0.1049,0,0.1559 C-0.3272,0.4341-0.3264,0.4358-0.3255,0.4375z" class="hud1-circle-of-latitude11"/>
                            <path d="M-0.2627,0.5357c-0.1054-0.1282-0.0201-0.2842,0.1906-0.3484 s0.4669-0.0122,0.5723,0.116c0.0601,0.0731,0.0601,0.1592,0,0.2324C0.5015,0.5341,0.5027,0.5325,0.504,0.531 c0.1038-0.1295,0.0155-0.2858-0.1973-0.349s-0.4694-0.0094-0.5733,0.1201c-0.0579,0.0722-0.0579,0.1567,0,0.2289 C-0.2652,0.5325-0.264,0.5341-0.2627,0.5357z" class="hud1-circle-of-latitude12"/>
                            <path d="M-0.1678,0.6243C-0.303,0.5279-0.2843,0.3831-0.1261,0.3008 s0.3961-0.0709,0.5313,0.0254c0.1205,0.0858,0.1205,0.2122,0,0.2981C0.4072,0.6229,0.4091,0.6215,0.411,0.6201 c0.1338-0.0983,0.1114-0.244-0.05-0.3254s-0.4007-0.0678-0.5345,0.0304c-0.1165,0.0855-0.1165,0.2094,0,0.295 C-0.1716,0.6215-0.1697,0.6229-0.1678,0.6243z" class="hud1-circle-of-latitude13"/>
                            <path d="M-0.003,0.7006c-0.1609-0.0409-0.2368-0.1535-0.1695-0.2515 S0.0797,0.305,0.2405,0.346S0.4773,0.4995,0.41,0.5974C0.378,0.6441,0.3171,0.6811,0.2405,0.7006 c0.0043-0.0011,0.0087-0.0023,0.013-0.0035c0.1597-0.0453,0.2288-0.1609,0.1544-0.2581S0.1437,0.2998-0.016,0.3451 s-0.2288,0.1609-0.1544,0.2581c0.0317,0.0414,0.0864,0.0747,0.1544,0.094C-0.0117,0.6984-0.0074,0.6995-0.003,0.7006z" class="hud1-circle-of-latitude14"/>
                            <path d="M-0.1263,0.5622c0,0.0824,0.1097,0.1492,0.245,0.1492 s0.245-0.0668,0.245-0.1492s-0.1097-0.1492-0.245-0.1492S-0.1263,0.4798-0.1263,0.5622L-0.1263,0.5622z M-0.13,0.5605 c0-0.0836,0.1113-0.1514,0.2487-0.1514s0.2488,0.0678,0.2488,0.1514c0,0,0,0,0,0c0,0.0836-0.1113,0.1514-0.2487,0.1514 S-0.13,0.6442-0.13,0.5605C-0.13,0.5605-0.13,0.5605-0.13,0.5605z" class="hud1-circle-of-latitude15"/>
                            <path d="M-0.0481,0.5908c0,0.0561,0.0747,0.1016,0.1669,0.1016 s0.1669-0.0455,0.1669-0.1016c0-0.0561-0.0747-0.1016-0.1669-0.1016S-0.0481,0.5347-0.0481,0.5908z M-0.0521,0.5896 c0-0.0575,0.0765-0.104,0.1709-0.104s0.1709,0.0466,0.1709,0.104c0,0.0575-0.0765,0.104-0.1709,0.104 S-0.0521,0.6471-0.0521,0.5896z" class="hud1-circle-of-latitude16"/>
                            <path d="M0.0351,0.6082c0,0.0281,0.0374,0.0509,0.0836,0.0509 s0.0836-0.0228,0.0836-0.0509c0-0.0281-0.0374-0.0509-0.0836-0.0509S0.0351,0.5801,0.0351,0.6082z M0.0309,0.6076 c0-0.0295,0.0393-0.0535,0.0878-0.0535S0.2066,0.578,0.2066,0.6076c0,0,0,0,0,0c0,0.0295-0.0393,0.0535-0.0878,0.0535 C0.0702,0.6611,0.0309,0.6372,0.0309,0.6076C0.0309,0.6076,0.0309,0.6076,0.0309,0.6076z" class="hud1-circle-of-latitude17"/>
                        </g>
                    </g>
                </g>
            </g>
            <defs>
                <filter id="Adobe_OpacityMaskFilter" width="198.7208" height="199.0275" x="123.9086" y="55.8258" filterUnits="userSpaceOnUse">
                    <feColorMatrix type="matrix" values="1 0 0 0 0 0 1 0 0 0 0 0 1 0 0 0 0 0 1 0"/>
                </filter>
            </defs>
            <mask id="hud1-countries_1_" width="198.7208" height="199.0275" x="123.9086" y="55.8258" maskUnits="userSpaceOnUse">
                <g filter="url(#Adobe_OpacityMaskFilter)">
                    <radialGradient id="SVGID_1_" cx="223.8271" cy="155.1381" r="99.4255" gradientUnits="userSpaceOnUse">
                        <stop offset="0.6847" style="stop-color:#FFFFFF"/>
                        <stop offset="0.7516" style="stop-color:#CDCDCD"/>
                        <stop offset="0.9032" style="stop-color:#525252"/>
                        <stop offset="1" style="stop-color:#000000"/>
                    </radialGradient>
                    <circle cx="223.8271" cy="155.1381" r="99.4255" fill="url(#SVGID_1_)"/>
                </g>
            </mask>
            <g opacity="0.4" mask="url(#hud1-countries_1_)" class="hud1-countries">
                <path fill="none" d="M313.8054,114.2971c-0.1916-0.422-0.3904-0.8398-0.5876-1.2586v1.3401L313.8054,114.2971z"/>
                <path fill="none" d="M292.8605,92.797l0.4369,1.4518l6.9678,0.0637l0.6608-0.9836c-1.1907-1.4884-2.4221-2.9425-3.695-4.3589 l-0.006,1.6106L292.8605,92.797z"/>
                <path fill="none" d="M194.4512 106.0363L192.8993 105.0714 191.9799 106.0363 193.2088 107.0603z"/>
                <path fill="none" d="M188 106.0325L188 102.0325 188 102.0325 188 102.0325 182.3679 102.0325 179.4507 102.8557 178.8818 104.856 181.1573 106.0325z"/>
                <path fill="none" d="M184.5752 106.0325L181.221 106.0325 178.8818 108.2395 178.4995 110.6081 180.2744 111.802z"/>
                <path fill="none" d="M177.3526 97.4119L178.1809 94.1851 175.7779 93.6117 173.12 94.8769 174.7584 98.2356z"/>
                <path fill="none" d="M299,212.5057l-4-5.2156v-8.1192l-2.9812-2.9446l-0.2664-3.3769l3.7489-7.1726l-7.13-12.5748l0.8451-8.5288 l-6.4133-0.9238l-2.3628-2.6167h-4.3099l-2.1891,3h-7.5913h-0.2549h-4.2235l-9.6985-10.946l0.082-8.5587l1.602-0.8937 l0.5962-3.6016h-2.2756l-0.167-3.1263L264,129.1379v-5.739l4.7272-2.3193l1.4549,0.953h4.5238l4.2194-2.6278L291,117.7873v5.8255 l8.3099,2.7173l1.0872,1.7025H302v-4.042l5.2106-0.068l4.9558,4.11h6.4209c-0.8538-2-1.832-6.1766-2.9365-8.9562l-2.8655-0.1693 l-2.6533-3.022l-0.5097-4.7378l-2.717,1.4563l-1.4609,5.7117l-3.9231-4.1848l-0.1593-3.9492l-3.7911-2.5096l-1.4018-0.6391 h-4.3964l1.3927,3.1633l5.2884,2.5715l0.9193,0.7852l-1.1423,0.479l0.0501,3.0567l-2.576,1.0505l-2.1982-0.4942l-1.3745-1.9538 l3.5772,0.1882l0.9648-1.3031l-7.9281-5.3483l-0.6007-2.2759l-3.2222,2.9126l-3.2677-0.6691l-4.9698,6.458l-0.9739,2.5304 l-3.1813,0.2867l-4.7059,0.0273l-2.8126-1.3153l-0.8237-5.5888l1.0103-2.6624l4.7833-1.0468l5.2201,1.0468l0.6372-2.89 l-2.2164-0.5234l0.76-4.4965l5.252-0.8238l3.6728-5.1883l3.7911-0.0593l3.4225,1.083h1.2607l-0.6918-5.4476l-4.1643,1.3905 l-1.4609-3.7854l-2.4166-0.409l-0.4506-2.5347l1.9706-2.1617l4.6831-1.8431l0.0714-0.1323 c-17.5241-15.5865-40.6057-25.2835-65.9034-25.2835c-16.7068,0-32.4453,5.2067-46.258,11.2067h5.6343l2.6988,3.9347 l4.4783,0.3653l2.6988-2.5662l2.0298,1.0425l-3.7183,3.6456c0,0-5.1428,0.0934-4.8925,0.0934s0.4233,3.5442,0.4233,3.5442 l6.2396-0.1712l0.6736-1.683l4.3008-0.2544l0.5052-2.5303l-2.5304-0.4277l0.8419-2.2755l1.9388-0.5871l6.7493,0.3368 l-3.7183,3.3769l0.6008,2.6124l3.8821,0.5916l-0.2549-4.7241l3.7137-1.9433l6.295-0.76L225,72.8767v3.6273l3.3261,0.7107 l-1.2342,2.8179h-4.3008l-1.2743,3.3398l-9.8396-2.2964l7.7324-4.1065l-2.9491-2.4969l-6.6674,0.845l-0.5826,0.6023 l-0.0228-0.0084l-0.1047,0.146l-1.916,1.9936l-3.1721,0.2686l0.2549,1.5839l1.1105,0.4597l-0.0455,0.5234l-2.5805,0.3686 l-0.1912,1.4973l-2.4667,0.1274l-0.446-2.9764l-4.4283,1.3471l-9.0522,5.2975l1.0194,3.7273l2.6501,1.6475L195,92.6241v5.7526 l2.2196-0.3777l1.7768-4.4966L204,91.7958v-6.8995l3.3152-2.2619l7.3966,2.2746l-0.3494,5.1236h1.9388l5.3157-3.1803 l0.2549,5.7008l3.8776,2.22l-0.1639,3.4789l-3.7092,1.2297l0.2549,1.1564l4.4692,2.0255l-0.0865,2.4395l-1.2971,0.107 c-0.0091-0.0455-0.0136-0.0694-0.0136-0.0694l-5.6389-1.52l-0.2412-1.5882h-0.0045L221,100.4611v-1.6475l-1.7919-0.446 l-0.4499,1.5201l-2.2809,0.4778L217,100.2609v0.1547l-1.9105,0.1638l-1.2965-1.4379l-1.4331-0.109h-2.2164L208,99.1823v1.8205 l2.4667,0.6326l2.1549,0.2639l-0.2765,0.1866l-1.6356,1.8933l-0.7199-0.9466l-1.6297-0.4369l-4.4876,4.2326l0.5915,0.4824 l-6.6379,3.6773l-6.243,6.499l-0.4273,2.8945l-6.2621,4.1143l-3.1037,3.1221l0.3414,6.2442l-4.3053-2.0025l0.0318-3.6545 l-11.9786,0.0045l-6.2032,3.1403l-2.6943,4.9653l-1.065,3.9367l1.7431,3.8184l4.8879,0.5962l7.7688-5.1928l0.6781,2.5714 l-2.3711,4.4783l5.9119,1.0103l0.5871,9.1296l8.101,1.3744l5.1473-5.9483l6.2487,1.2697l2.1936,3.0538l5.9893-0.355 l0.1684-1.7749l3.2905,1.6066l3.7046,5.8209l6.4126,0.091l2.3666,4.137l0.3368,5.0563l7.0907,2.7034l8.943,0.0864l2.6169,4.2963 l3.9641,1.2698l-0.7601,3.5453l-4.3463,5.5251l-1.2652,12.2198l-3.9231,3.1039l-5.8209-0.1775l-1.9433,3.3724l1.4382,6.3352 l-6.3306,8.101l-2.0253,3.7137l-6.0348,2.8991l-3.9686,0.6008l-0.1638,1.6839l2.7853,0.7964l-0.3368,1.8113l-2.494,2.403 l1.5155,1.9024l3.0037,0.0865l-0.1684,2.3211l-0.7964,2.2756l-0.2549,1.8569l4.4419,3.741l-0.5916,1.9433l-6.0439-0.1138 l-6.0121-5.2475l-4.6831-8.233l0.6553-7.9508l-3.5453-4.7286l1.7564-8.0146L194,214.5309v-17.3808 c0,0-6.2302-4.4783-6.567-4.4783c-0.3413,0-3.288-0.7555-3.288-0.7555l-0.6678-3.2905l-7.7227-9.6211l0.7399-3.4589 l0.2402-5.6525l5.3061-3.7137l-0.7626-6.3307l-7.7609-0.5825l-6.0764-6.9223l-4.3011-1.1742l-2.7854-0.5097l0.2639-2.5305 L157,147.6246v1.4336l-8.7883-2.1936l-3.5317-5.4568l1.47-2.6442l-5.6025-7.4646l-0.9512-5.2664h-2.2756l0.76,5.098 l3.8821,5.6278l-0.4233,2.1859l-3.8921-0.5955L133,131.3543v-8.0328l-3.4525-1.9505c-3.8419,10.573-5.6388,21.983-5.6388,33.8836 c0,54.7922,44.5682,99.5988,99.3604,99.5988c30.3999,0,57.7514-13.8208,75.95-34.8208H299V212.5057z"/>
                <path fill="none" d="M169 78.9343L169 78.0325 166.1568 78.0325 165.9656 79.0325 164 79.0325 164 79.0325 164 79.0325 164 82.0325 168.7418 82.0325z"/>
                <path fill="none" d="M169 82.8574L166.9435 83.2351 163.5737 84.2454 164.2616 85.3833 169 85.0692z"/>
                <path fill="none" d="M186.6096 110.5146L185.085 110.7336 184.5798 113.0325 187.8065 113.0325 190 111.4021 190 109.4315 187.2944 109.7546z"/>
                <path fill="none" d="M188,108.7397l1.6866-0.3504L191,107.4108v-1.3782h-3C188,107.0325,188,108.7397,188,108.7397z"/>
                <path fill="none" d="M189 102.1542L189 104.5617 191.089 104.0565z"/>
                <path fill="none" d="M171.163,74.3695l4.3008,0.9284l0.3322,1.6885l6.8404,0.2549l-0.9284-2.1936l-6.0757-0.1684l1.4245-0.7822 l-0.5006-1.0644h-5.4887l5.7374-4.8278c-3.1137,1.6605-6.1304,3.2077-9.0351,5.1795l1.1132-0.1444L171.163,74.3695z"/>
                <path fill="none" d="M195 111.0325L195 108.7397 191.1016 108.0325 191 108.0325 191 109.4315 191.7296 111.0325z"/>
                <path fill="#663399" d="M284.5683,83.0667l-1.9706,2.1436l0.4506,2.4986l2.4166,0.3368l1.4609,3.6409l4.1643-1.1016 l0.6918,5.4476h-1.2607l-3.4225-1.083l-3.7911,0.3483l-3.6728,5.0438l-5.252,0.7516l-0.76,4.4604l2.2164,0.5053l-0.6372,2.881 l-5.2201-1.0513l-4.7833,1.0445l-1.0103,2.6613l0.8237,5.5882l2.8126,1.315l4.7059-0.0275l3.1813-0.2868l0.9739-2.5305 l4.9698-6.4581l3.2677,0.669l3.2222-2.9127l0.6007,2.2756l7.9281,5.3476l-0.9648,1.3016l-3.5772-0.1912l1.3745,1.9479 l2.1982,0.4824l2.576-1.0741l-0.0501-3.1039l1.1423-0.5734l-0.9193-0.974l-5.2884-2.1938l-1.3927-3.1633h4.3964l1.4018,0.6374 l3.7911,2.8855l0.1593,3.757l3.9231,4.0835l1.4609-5.7726l2.717-1.5073l0.5097,4.6713l2.6533,2.9068l2.8655-0.0522 c-0.5819-1.4647-0.8056-2.9142-1.4543-4.3436L314,114.3785v-1.3401c-3-7.0664-7.8555-13.6755-12.6829-19.7095l-0.8564,0.9836 l-7.0656-0.0637l-0.6049-1.4518L297,90.5806V88.97c-2-2.7673-5.0125-5.3924-7.7926-7.8652l-0.0137,0.1278L284.5683,83.0667z"/>
                <path fill="#663399" d="M318.5873,128.0325h-6.4209l-4.9558-4.11L302,123.9906v4.042h-1.6028l-1.0872-1.7025L291,123.6128 v-5.8255l-12.0746,1.6174l-4.2194,2.6278h-4.5238l-1.4549-0.953L264,123.3989v5.739l-11.9891,7.7684l0.167,3.1263h2.2756 l-0.5962,3.6277l-1.602,0.7534l-0.082,8.5898l9.6985,11.0292h4.2235h0.2549h7.5913l2.1891-3h4.3099l2.362,2.6167l6.4126,0.7964 l-0.8465,8.5925l7.1271,12.6066l-3.7547,7.1885l0.2779,3.3849L295,199.1708v8.1192l4,5.2156v7.5269h0.2191 c14.6022-18,23.4104-39.5598,23.4104-63.952C322.6295,146.3208,321.2134,136.0325,318.5873,128.0325z"/>
                <path fill="#663399" d="M133,131.3543l4.6476,6.9041l3.5913,0.5052l0.5737-2.3666l-3.8069-5.2664l-0.6848-5.098h2.2756 l0.9603,5.2664l5.6116,7.826l-1.4518,2.4635l3.4953,5.3664L157,149.0582v-1.4336l3.6181,0.5052l-0.3004,2.5305l2.8035,0.5097 l4.3099,1.1742l6.0803,6.9223l7.762,0.5825l0.7612,6.3307l-5.3106,3.7137l-0.25,5.6525l-0.7599,3.4589l7.6824,9.6211 l0.5871,3.2905c0,0,3.1082,0.7555,3.4495,0.7555c0.3368,0,6.567,4.4783,6.567,4.4783v17.3808l1.7844,0.5916l-1.595,8.0146 l3.4646,4.7286l-0.6957,7.9508l4.6629,8.233l6.002,5.2475l6.0389,0.1138l0.5891-1.9433l-4.4432-3.741l0.2542-1.8569 l0.7961-2.2756l0.1682-2.3211l-3.0038-0.0865l-1.5156-1.9024l2.494-2.403l0.3368-1.8113l-2.7853-0.7964l0.1638-1.6839 l3.9686-0.6008l6.0348-2.8991l2.0253-3.7137l6.3306-8.101l-1.4382-6.3352l1.9433-3.3724l5.8209,0.1775l3.9231-3.1039 l1.2652-12.2198l4.3463-5.5251l0.7601-3.5453l-3.9641-1.2698l-2.6169-4.2963l-8.943-0.0864l-7.0907-2.7034l-0.3368-5.0563 l-2.3666-4.137l-6.4126-0.091l-3.7046-5.8209l-3.2905-1.6066l-0.1684,1.7749l-5.9893,0.355l-2.1936-3.0538l-6.2487-1.2697 l-5.1473,5.9483l-8.101-1.3744l-0.5871-9.1296l-5.9119-1.0103l2.3711-4.4783l-0.6781-2.5714l-7.7688,5.1928l-4.8879-0.5962 l-1.7431-3.8184l1.065-3.9367l2.6943-4.9653l6.2032-3.1403l11.9786-0.0045l-0.0318,3.6545l4.3054,2.0025l-0.3414-6.2442 l3.1039-3.1221l6.2624-4.1143l0.4278-2.8945l6.2442-6.499l6.6401-3.6773l-0.5871-0.4824l4.4965-4.2326l1.6475,0.4369 l0.7555,0.9466l1.7067-1.8933l0.4187-0.1866l-2.4394-0.2639L208,101.0027v-1.8205l2.1435-0.1497h2.2164l1.0149,0.109 l1.7147,1.6064L217,100.4156v-0.1547l-0.5269,0.1047l2.6948-0.4778l0.2493-1.5201L221,98.8137v1.6475l-1.6814,1.5714h0.0045 l0.2412,1.5877l5.6389,1.629c0,0,0.0045-0.032,0.0136,0.0135l1.2971-0.1366l0.0865-2.4577l-4.4692-2.0412l-0.2549-1.1776 l3.7092-1.2669l0.1639-3.5508l-3.8776-2.3624l-0.2549-5.417l-5.3157,3.18h-1.9388l0.5097-5.1236l-7.5569-1.9906L204,84.8962 v6.8995l-5.0634,1.7067l-1.8773,4.4966L195,98.3767v-5.7526l-5.1805-0.7009l-2.5903-1.6475l-1.0493-3.7273l9.0372-5.2975 l4.4208-1.3471l0.4423,2.9764l2.4649-0.1275l0.1902-1.4973l2.58-0.3686l0.0453-0.5234l-1.1106-0.4596l-0.2549-1.5838 l3.1721-0.2685l1.916-1.9934l0.1047-0.1457l0.0227,0.0091l0.5826-0.6008l6.6674-0.8419l2.9491,2.5031l-7.7324,4.1188 l9.8396,2.2718l1.2743-3.3398h4.3008l1.2342-2.8179L225,76.504v-3.6273l-9.2487-4.2234l-6.438,0.76l-3.6422,1.9433l0.2906,4.7241 l-3.8642-0.5916l-0.5918-2.6124l3.7227-3.3769l-6.7471-0.3368l-1.9377,0.5871l-0.8414,2.2756l2.5307,0.4278l-0.505,2.5305 l-4.3008,0.2549l-0.6736,1.6839l-6.2396,0.173c0,0-0.1729-3.5408-0.4232-3.5408c-0.2503,0,4.8925-0.0865,4.8925-0.0865 l3.7183-3.6318l-2.0298-1.0149l-2.6988,2.6214l-4.4783-0.4758l-2.6988-3.9347h-5.6343c-0.1188,0-0.238,0.888-0.3566,0.9513 l-5.7374,5.0487h5.4887l0.5006,1.0644l-1.4245,1.0533l6.0757,0.0329l0.9284,2.1259l-6.8404-0.2887l-0.3322-1.7054l-4.3008-0.9369 l-2.2801-1.2694l-1.1132,0.0068c-17.1314,11.629-31.0341,28.4749-38.2223,48.2568L133,123.3215V131.3543z"/>
                <path fill="#663399" d="M190 111.4021L187.8065 113.0325 184.5798 113.0325 185.085 110.7336 186.6096 110.5581 187.2944 109.7763 190 109.4315z"/>
                <path fill="#663399" d="M191,107.4108l-1.3134,0.9785L188,108.7397c0,0,0-1.7071,0-2.7071h3V107.4108z"/>
                <path fill="#663399" d="M192.8993 105.0714L194.4512 106.0363 193.2088 107.0603 191.9799 106.0363z"/>
                <path fill="#663399" d="M191 108.0325L191.1016 108.0325 195 108.7397 195 111.0325 191.7296 111.0325 191 109.4315z"/>
                <path fill="#663399" d="M189 102.1542L191.089 104.0565 189 104.5617z"/>
                <path fill="#663399" d="M179.4507 102.8557L182.3679 102.0325 188 102.0325 188 102.0325 188 102.0325 188 106.0325 181.1573 106.0325 178.8818 104.856z"/>
                <path fill="#663399" d="M178.8818 108.2395L181.221 106.0325 184.5752 106.0325 180.2744 111.7211 178.4995 110.7699z"/>
                <path fill="#663399" d="M175.7779 93.6117L178.1809 94.1851 177.3526 97.4119 174.7584 98.2356 173.12 94.8769z"/>
                <path fill="#663399" d="M169 85.0692L164.3493 85.3833 163.5737 84.2454 166.8557 83.2351 169 82.8574z"/>
                <path fill="#663399" d="M164 79.0325L164 79.0325 164 79.0325 165.9656 79.0325 166.1568 78.0325 169 78.0325 169 78.9343 168.7418 82.0325 164 82.0325z"/>
            </g>
        </g>
        <g class="hud1-buttons">
            <g class="hud1-btn-linked">
                <circle cx="103.2648" cy="280.1591" r="38.7" fill="#FFFFFF"/>
                <g fill="#9933FF">
                    <path d="M91.0945,293.7059h4.0702c0.5615,0,1.0167-0.4551,1.0167-1.0167v-17.7907 c0-0.5616-0.4551-1.0167-1.0167-1.0167h-4.0702c-0.5615,0-1.0167,0.4551-1.0167,1.0167v17.7907 C90.0778,293.2508,90.5329,293.7059,91.0945,293.7059z"/>
                    <path d="M91.0945,270.7542h4.0702c0.5615,0,1.0167-0.4551,1.0167-1.0167v-3.6143 c0-0.5616-0.4551-1.0167-1.0167-1.0167h-4.0702c-0.5615,0-1.0167,0.4551-1.0167,1.0167v3.6143 C90.0778,270.2991,90.5329,270.7542,91.0945,270.7542z"/>
                    <path d="M119.8551,275.9454c-0.572-0.7529-1.4153-1.372-2.5304-1.8573c-1.1151-0.485-2.346-0.7276-3.6927-0.7276 c-2.7339,0-5.0505,1.0434-6.9497,3.1305c-0.3778,0.4153-0.6527,0.3245-0.6527-0.2371v-1.3553 c0-0.5616-0.4551-1.0167-1.0167-1.0167h-3.6358c-0.5615,0-1.0167,0.4551-1.0167,1.0167v17.7907 c0,0.5616,0.4551,1.0167,1.0167,1.0167h4.0702c0.5615,0,1.0167-0.4551,1.0167-1.0167v-6.1871c0-2.5776,0.1556-4.3444,0.4669-5.3 c0.3113-0.9557,0.887-1.7231,1.7269-2.3023s1.7883-0.869,2.8455-0.869c0.8253,0,1.5314,0.2028,2.1179,0.6083 c0.5865,0.4056,1.0101,0.9737,1.2708,1.7051c0.2607,0.7314,0.391,2.3422,0.391,4.8331v7.5119 c0,0.5616,0.4551,1.0167,1.0167,1.0167h4.0702c0.5616,0,1.0167-0.4551,1.0167-1.0167V282.614 c0-1.781-0.1123-3.1495-0.3366-4.1052C120.8257,277.5531,120.4274,276.6986,119.8551,275.9454z"/>
                </g>
                <path fill="#1B1F77" d="M145,279.0326h-9.365c-1.1264-16-13.635-29.3205-29.635-30.2801v-12.7199h-4v12.7084 c-16,0.8522-28.5368,14.2916-29.6686,30.2916H60v3h12.287c0.6967,16,13.713,29.1932,29.713,30.0616v12.9384h4v-12.9499 c16-0.9778,28.9859-14.0501,29.6793-30.0501H145V279.0326z M105.9114,308.4526c-0.64,0.0438-1.2775,0.0977-1.9285,0.0977 c-0.5744,0-1.1356-0.0521-1.7016-0.0862c-14.7192-0.8871-26.4312-13.1082-26.4312-28.0466s11.712-27.1595,26.4312-28.0466 c0.566-0.0341,1.1272-0.0862,1.7016-0.0862c0.6509,0,1.2885,0.054,1.9285,0.0977c14.6129,0.9981,26.2043,13.1733,26.2043,28.035 S120.5243,307.4545,105.9114,308.4526z"/>
            </g>
            <g class="hud1-btn-gplus">
                <circle cx="43.6815" cy="190.1757" r="38.45" fill="#FFFFFF"/>
                <g fill="#9933FF">
                    <path d="M52.1248,172.4198h-8.3784c-3.7335,0-6.3179,0.8185-8.644,2.7401 c-1.8294,1.5783-2.9211,3.8721-2.9211,6.1362c0,3.4882,2.6595,7.1953,7.5878,7.1953c0.4739,0,0.9985-0.0486,1.4615-0.0918 l-0.0682,0.1658c-0.1981,0.4746-0.3857,0.9223-0.3857,1.6211c0,1.3606,0.6564,2.1998,1.2909,3.0111l0.0798,0.1027 l-0.1419,0.0098c-2.0351,0.1393-5.823,0.3987-8.59,2.0997c-3.268,1.9433-3.522,4.7694-3.522,5.589 c0,3.2615,3.0391,6.5527,9.829,6.5527c7.8951,0,12.0263-4.3557,12.0263-8.6582c0.0011-3.1824-1.8649-4.7534-3.8456-6.4213 l-1.6708-1.2997c-0.5163-0.4278-1.1592-0.9601-1.1592-1.9466c0-0.9695,0.6429-1.6095,1.2104-2.1741l0.0591-0.0599 c1.8043-1.4212,3.8496-3.0325,3.8496-6.5179c0-3.5042-2.19-5.3151-3.2426-6.1855h2.7804c0.0341,0,0.0678-0.0094,0.0965-0.0279 l2.3947-1.5057c0.0682-0.0432,0.1001-0.1263,0.0776-0.2039C52.2768,172.4732,52.2057,172.4198,52.1248,172.4198z M41.9645,205.6313c-4.8126,0-8.0461-2.2477-8.0461-5.5934c0-2.1846,1.3225-3.772,3.9273-4.7157 c2.0859-0.7021,4.7784-0.7369,4.8053-0.7369c0.4561,0,0.6854,0,1.0497,0.0457c3.3674,2.3965,4.9864,3.6548,4.9864,6.0513 C48.6866,203.7352,46.1105,205.6313,41.9645,205.6313z M41.9191,187.2072c-4.039,0-5.7153-5.3093-5.7153-8.152 c0-1.4455,0.3287-2.555,1.005-3.3928c0.734-0.9183,1.9908-1.5115,3.202-1.5115c3.7085,0,5.7592,4.9845,5.7592,8.4296 c0,0.5435,0,2.1969-1.1422,3.3453C44.2597,186.6924,43.0105,187.2072,41.9191,187.2072z"/>
                    <path d="M63.8677,188.828h-4.4149v-4.3993c0-0.1001-0.0813-0.1814-0.1814-0.1814H57.372 c-0.1001,0-0.1814,0.0813-0.1814,0.1814v4.3993h-4.3924c-0.1001,0-0.1814,0.0813-0.1814,0.1814v1.9244 c0,0.1001,0.0813,0.1814,0.1814,0.1814h4.3924v4.4276c0,0.1001,0.0813,0.1814,0.1814,0.1814h1.8994 c0.1001,0,0.1814-0.0813,0.1814-0.1814v-4.4279h4.4149c0.1001,0,0.1814-0.0813,0.1814-0.1814v-1.9241 C64.0491,188.9089,63.9682,188.828,63.8677,188.828z"/>
                </g>
                <path fill="#1B1F77" d="M85,189.0325h-9.365C74.5086,173.0325,62,159.712,46,158.7525v-12.7199h-4v12.7084 c-16,0.8522-28.5368,14.2916-29.6686,30.2916H0v3h12.287c0.6967,16,13.713,29.1932,29.713,30.0616v12.9384h4v-12.9499 c16-0.9779,28.9859-14.0501,29.6793-30.0501H85V189.0325z M45.9114,218.4526c-0.64,0.0437-1.2775,0.0977-1.9285,0.0977 c-0.5744,0-1.1356-0.0521-1.7016-0.0862c-14.7192-0.8871-26.4312-13.1082-26.4312-28.0466 c0-14.9383,11.712-27.1595,26.4312-28.0466c0.566-0.0341,1.1272-0.0862,1.7016-0.0862c0.6509,0,1.2885,0.054,1.9285,0.0977 c14.6129,0.9981,26.2043,13.1733,26.2043,28.035S60.5243,217.4545,45.9114,218.4526z"/>
            </g>
            <g class="hud1-btn-mail">
                <circle cx="68.7398" cy="70.2924" r="39.25" fill="#FFFFFF"/>
                <g fill="#9933FF">
                    <path d="M85.0352,56.4376h-31.945c-1.2595,0-2.2818,1.0222-2.2818,2.2818v3.8311l18.2543,7.3017l18.2543-7.3017 v-3.8311C87.317,57.4599,86.2948,56.4376,85.0352,56.4376z"/>
                    <path d="M50.8084,66.2767v15.2606c0,1.2596,1.0222,2.2818,2.2818,2.2818h31.945 c1.2595,0,2.2818-1.0222,2.2818-2.2818V66.2767l-18.2543,7.3017L50.8084,66.2767z"/>
                </g>
                <path fill="#1B1F77" d="M110,69.0325h-9.365C99.5086,53.0325,87,39.712,71,38.7524V26.0325h-4v12.7084 c-16,0.8522-28.5368,14.2916-29.6686,30.2916H25v3h12.287c0.6967,16,13.713,29.1932,29.713,30.0616v12.9384h4v-12.9499 c16-0.9779,28.9859-14.0501,29.6793-30.0501H110V69.0325z M70.9114,98.4526c-0.64,0.0438-1.2775,0.0977-1.9285,0.0977 c-0.5744,0-1.1356-0.0521-1.7016-0.0862C52.5622,97.577,40.8502,85.3559,40.8502,70.4175s11.712-27.1595,26.4312-28.0466 c0.566-0.0341,1.1272-0.0862,1.7016-0.0862c0.6509,0,1.2885,0.0539,1.9285,0.0977 c14.6129,0.9981,26.2043,13.1733,26.2043,28.0351S85.5243,97.4545,70.9114,98.4526z"/>
            </g>
        </g>
    </g>
</svg>
