<svg xmlns="http://www.w3.org/2000/svg" id="logo_x5F_tripl3inf" width="309.0741px" height="69.8423px" x="0px" y="0px" version="1.1" viewBox="0 0 309.0741 69.8423" enable-background="new 0 0 309.0741 69.8423" xml:space="preserve">
    <g class="logo-tripl3inf-wrap">
        <g class="logo-tripl3inf-defs">
            <path d="M122.0045,1.9238c-3.887-2.3479-7.5467-1.8872-7.5467-1.8872 c-0.5701,0.0068-2.6116,0.1087-4.9706,1.163c-2.4635,1.1015-5.7471,3.4832-7.4028,8.5687l-0.0518,0.1875 c-0.3207,1.4046-0.4656,2.8066-0.4409,4.2009c0.0036,0.4676,0.1537,1.0745,0.6512,1.4652 c0.4233,0.3256,1.5303,0.4884,2.0187,0.3582c0.6603-0.1833,1.3021-0.3324,1.4222-1.7266c-0.0055-1.1712,0.239-1.9751,0.5372-3.254 c0.5037-1.5095,1.4463-3.1589,2.2828-4.0771c2.8708-3.1534,6.732-2.7809,6.7786-2.7793l0.6388,0.0277 c0.0606,0.0039,7.0003,0.4233,8.5632,7.5213c0.814,3.48,0.2217,6.6962-1.0527,9.6406c-0.9065,2.0942-2.4267,3.8805-3.9527,5.5081 c-1.5329,1.0745,0.8465,3.6141,2.4094,2.0187c5.485-5.7067,7.701-9.973,6.6519-17.2208 c-1.5489-6.7848-6.5334-9.7324-6.5334-9.7324L122.0045,1.9238z" class="logo-tripl3inf-mask-piece-2"/>
            <path fill="#020202" d="M115.1912,34.2901c3.4105,2.333,6.7241,6.3003,8.352,10.6633 c1.1721,3.2234,1.8315,7.1699,0.7788,10.546c-0.4874,1.6293-1.4395,3.4227-2.302,4.431c-2.962,3.4644-7.098,3.1948-7.1482,3.1954 l-0.6834-0.0081c-0.0641-0.0033-6.888-0.0267-9.2476-7.8723c-0.9547-3.6832-0.7893-6.6373,0.4734-9.8249 c0.8987-2.2671,2.6227-4.2096,4.1986-5.9998c1.6526-1.8069-0.5723-3.8012-2.2818-1.8588 c-5.6527,5.5964-7.9762,11.392-6.8613,18.0055c1.8885,7.1957,7.2934,10.1912,7.2934,10.1912 c4.2328,2.3768,8.1074,1.7582,8.1074,1.7582c0.6092-0.026,2.7868-0.2028,5.2708-1.4085c2.5944-1.2581,6.0226-3.9117,7.6212-9.3996 l0.0488-0.2022c1.7446-7.1318-1.7066-13.8267-6.7584-19.402c-3.9767-4.3888-9.77-7.9768-14.9253-9.8418 c-1.3567-0.4341-2.2722-0.309-2.5776,0.703c-0.3487,1.1553,2.4691,2.1188,2.4691,2.1188 C109.6783,31.1698,111.7404,31.9295,115.1912,34.2901z" class="logo-tripl3inf-mask-piece-1"/>
        </g>
        <g class="logo-tripl3inf-content">
            <g fill="none" stroke="#AAFF00" stroke-width="2" class="logo-tripl3inf-letters">
                <path d="M14.2166,51.953c-2.5279,0-4.6818-0.8345-6.0652-2.3505 c-1.461-1.6449-2.1727-4.3327-2.1727-8.2138V23.8605c0-0.1797-0.1459-0.3256-0.3256-0.3256H1v-3.8088h4.6469 c0.1797,0,0.3256-0.1459,0.3256-0.3256v-5.7334l5.0591-1.529v7.2621c0,0.1797,0.1459,0.3256,0.3256,0.3256h8.0383v3.7968h-8.038 c-0.1797,0-0.3256,0.1459-0.3256,0.3256v17.3292c0,5.8972,2.6894,6.5793,4.7127,6.5793c1.3284,0,2.2378-0.0866,3.085-0.3015 l0.2269,3.7968C18.1606,51.5447,16.5004,51.953,14.2166,51.953z"/>
                <path d="M25.5152,51.2087V29.4256c-0.0007-4.0198-0.0765-7.0326-0.2448-9.6992 h4.4525l0.253,6.0616C29.983,25.9626,30.1266,26.1,30.3011,26.1h0.1983c0.1397,0,0.2637-0.0889,0.3083-0.2211 c1.402-4.1406,4.799-6.816,8.6544-6.816c0.4643,0,0.8469,0.042,1.2682,0.0947v4.8341c-0.506-0.0697-1.0334-0.0697-1.6661-0.0697 c-4.1022,0-7.3028,3.0238-8.1539,7.7033c-0.1299,0.7762-0.2041,1.7882-0.2041,2.7809V51.209h-5.191L25.5152,51.2087 L25.5152,51.2087z"/>
                <path d="M46.4956,51.2087V19.7261h5.191V51.209h-5.191V51.2087z M48.9591,13.6319 c-1.85,0-3.1928-1.3708-3.1928-3.2596c0-1.9272,1.3988-3.326,3.326-3.326c1.8793,0,3.2433,1.3988,3.2433,3.326 c0,0.0339,0.0052,0.0664,0.0147,0.097C52.3056,12.3653,50.954,13.6319,48.9591,13.6319z"/>
                <path d="M58.056,64.3618l0.0003-34.4654c0-0.0277-0.0036-0.0547-0.0101-0.0811 c-0.0016-3.8433-0.1179-6.9795-0.251-10.0896h4.5313l0.3132,5.2047c0.0104,0.1719,0.1527,0.3061,0.3249,0.3061h0.1332 c0.1149,0,0.2214-0.0606,0.28-0.1595c2.3342-3.9345,6.1863-6.0144,11.1393-6.0144c3.7252,0,7.1097,1.5583,9.5299,4.3881 c2.47,2.8881,3.8303,6.9932,3.8303,11.5593c0,11.6993-7.2051,16.9362-14.3461,16.9362c-4.1702,0-7.7642-1.8276-9.6136-4.8892 c-0.0589-0.0974-0.1648-0.1569-0.2787-0.1569h-0.1332c-0.1797,0-0.3256,0.1455-0.3256,0.3256v17.1359H58.056L58.056,64.3618 L58.056,64.3618z M63.1822,38.3737c-0.0075,0.0264-0.0114,0.0537-0.0114,0.0817c0,0.9967,0.0882,1.7836,0.2771,2.4758 c1.0927,4.2347,4.7456,7.0827,9.0887,7.0827c6.2209,0,10.0854-4.882,10.0854-12.7409c0-7.1895-4.0651-12.2105-9.8858-12.2105 c-4.3262,0-8.0875,3.0508-9.1467,7.4187c-0.1735,0.6375-0.407,1.5902-0.407,2.4009v5.4915L63.1822,38.3737L63.1822,38.3737z"/>
                <path d="M92.2791,4.7226h5.191v46.4861h-5.191V4.7226z"/>
                <path d="M134.7796,51.2087V19.7261h5.191V51.209h-5.191V51.2087z M137.2428,13.6319c-1.85,0-3.1928-1.3708-3.1928-3.2596c0-1.9272,1.3988-3.326,3.3263-3.326 c1.8793,0,3.2433,1.3988,3.2433,3.326c0,0.0339,0.0052,0.0664,0.0147,0.097C140.5896,12.3653,139.2384,13.6319,137.2428,13.6319z"/>
                <path d="M167.9606,51.21V33.0104c0-6.3322-2.7562-9.8193-7.7609-9.8193 c-4.2269,0-7.1364,3.1137-8.1445,6.1997c-0.2657,0.7303-0.4142,1.7364-0.4142,2.8229v18.994h-5.191 c0,0,0.0003-23.1037,0.0003-23.1096c0-0.0244-0.0026-0.0482-0.0078-0.0713c-0.001-3.4172-0.0736-5.9307-0.2413-8.3008h4.5212 l0.3136,5.0064c0.0107,0.1716,0.153,0.3054,0.3249,0.3054h0.1335c0.1201,0,0.2305-0.0664,0.2872-0.1722 c1.4274-2.6771,4.9904-5.8028,10.3344-5.8028c5.3349,0,11.0355,3.5073,11.0355,13.3511V51.21L167.9606,51.21L167.9606,51.21z"/>
                <path d="M199.6978,51.2087V23.8491c0-0.1797-0.1456-0.3256-0.3256-0.3256 h-12.8139c-0.18,0-0.3256,0.1459-0.3256,0.3256v27.3596h-5.1119V23.8481c0-0.1797-0.1455-0.3256-0.3256-0.3256h-4.1211v-3.7965 h4.1211c0.1801,0,0.3256-0.1459,0.3256-0.3256v-1.7924c0-8.5264,5.1151-13.6168,13.6832-13.6168 c2.7796,0,6.1108,0.8339,7.7593,1.9223l-1.43,3.8326c-1.7432-1.0647-4.1768-1.6921-6.6077-1.6921 c-5.5029,0-8.2933,3.2817-8.2933,9.7536v1.5928c0,0.1797,0.1456,0.3256,0.3256,0.3256h18.3298V51.209h-5.19V51.2087z"/>
                <path d="M232.8923,51.21V33.0104c0-6.3322-2.7568-9.8193-7.7622-9.8193 c-4.2266,0-7.1351,3.1137-8.1425,6.1997c-0.265,0.7267-0.4135,1.7332-0.4135,2.8229v18.994h-5.1916l0.001-23.1096 c0-0.0247-0.0029-0.0492-0.0081-0.0729c-0.001-3.4119-0.0746-5.9246-0.2432-8.2988h4.5238l0.3122,5.0064 c0.0107,0.1716,0.153,0.3054,0.3249,0.3054h0.1335c0.1201,0,0.2305-0.0664,0.2872-0.1722 c1.4284-2.6771,4.9917-5.8028,10.3341-5.8028c5.3349,0,11.0358,3.5073,11.0358,13.3511v18.7961h-5.1913V51.21z"/>
                <path d="M244.3495,51.2087V19.7261h5.1907V51.209h-5.1907V51.2087z M246.8132,13.6319c-1.851,0-3.1944-1.3708-3.1944-3.2596c0-1.9272,1.3984-3.326,3.3253-3.326c1.879,0,3.243,1.3988,3.243,3.326 c0,0.0345,0.0055,0.0677,0.0153,0.099C250.1568,12.3663,248.8065,13.6319,246.8132,13.6319z"/>
                <path d="M268.3524,51.953c-2.5292,0-4.6833-0.8345-6.0659-2.3505 c-1.4616-1.6443-2.1734-4.3321-2.1734-8.2138V23.8605c0-0.1797-0.1455-0.3256-0.3256-0.3256h-4.6531v-3.7958h4.6531 c0.1801,0,0.3256-0.1459,0.3256-0.3256v-5.7338l5.0517-1.5267v7.2475c0,0.1797,0.1455,0.3256,0.3256,0.3256h8.0387v3.7968 h-8.0387c-0.1801,0-0.3256,0.1459-0.3256,0.3256v17.3292c0,5.8972,2.6901,6.5793,4.7133,6.5793 c1.3278,0,2.2375-0.0866,3.086-0.3018l0.227,3.7971C272.2954,51.5447,270.6362,51.953,268.3524,51.953z"/>
                <path d="M280.0821,61.5031c1.7123-0.5913,3.4888-1.6062,4.9185-2.8145 c0.9048-0.7166,3.2202-2.8099,4.9979-6.6187c0.3002-0.6737,0.4952-1.1412,0.4952-1.531c0-0.3995-0.1524-0.9117-0.4942-1.6618 l-11.6333-29.1507l5.6624-0.0003l6.8936,18.7762c0.7645,2.0434,1.5765,4.5509,2.1196,6.5451 c0.0384,0.142,0.1674,0.24,0.3142,0.24h0.1332c0.1426,0,0.2689-0.0931,0.3109-0.2295c0.2009-0.6492,0.4096-1.359,0.6287-2.1034 c0.4217-1.4333,0.8996-3.0583,1.4248-4.5922l6.3-18.6365h5.4671L299.026,42.189c-3.8271,10.0834-6.7024,16.2551-10.9323,19.9897 c-2.4977,2.0998-5.0565,3.2123-6.7275,3.5835L280.0821,61.5031z"/>
            </g>
            <g class="logo-tripl3inf-infsym">
                <g fill="none" class="logo-tripl3inf-infsympaths">
                    <path d="M119.3026,30.4146c0,0,9.3442-6.5365,7.861-16.9139 c0,0,0.1596-8.1523-10.2801-8.5972c-11.7633-0.2966-11.0781,14.9738-11.0781,14.9804" class="logo-tripl3inf-infsympath-1"/>
                    <path d="M104.9649,27.6283c0,0,6.3319,1.4511,12.4589,5.5548 c9.3442,7.6767,10.5308,12.6567,10.5308,18.7378c-0.6315,7.5812-6.7885,10.7878-11.3826,10.9029 c0,0-5.872,1.0842-10.0744-6.3544c-2.7686-5.3395-0.6735-10.6875-0.6996-10.778c0,0,1.7244-5.6675,6.9785-9.2453" class="logo-tripl3inf-infsympath-2"/>
                </g>
                <g fill="#AAFF00" class="logo-tripl3inf-infsymwhole">
                    <path d="M123.0918,4.7581c-3.5413-2.1391-6.8755-1.7193-6.8755-1.7193 c-0.5194,0.0062-2.3794,0.0991-4.5285,1.0596c-2.2444,1.0035-5.236,3.1735-6.7444,7.8067l-0.0472,0.1709 c-0.2922,1.2797-0.4178,2.5569-0.4017,3.8273c0.0054,0.426,0.1382,0.9812,0.5933,1.3349 c0.3841,0.2986,1.3948,0.4472,1.8392,0.3263c0.6024-0.1639,1.244-0.2992,1.2957-1.5731 c0.0433-1.0661,0.2177-1.7994,0.4895-2.9646c0.4589-1.3752,1.3177-2.878,2.0797-3.7145 c2.6155-2.873,6.1333-2.5336,6.1758-2.5321l0.582,0.0252c0.0552,0.0036,6.3778,0.3856,7.8017,6.8524 c0.7416,3.1705,0.202,6.1007-0.959,8.7832c-0.8258,1.908-2.2109,3.5354-3.6012,5.0183 c-1.3966,0.9789,0.7713,3.2927,2.1951,1.8392c4.9972-5.1992,7.0162-9.0861,6.0604-15.6893 c-1.4111-6.1814-5.9524-8.8669-5.9524-8.8669L123.0918,4.7581z"/>
                    <path d="M116.8845,34.246c3.1072,2.1255,6.1261,5.74,7.6093,9.715c1.0679,2.9367,1.6686,6.5323,0.7096,9.6082 c-0.4441,1.4844-1.3114,3.1183-2.0973,4.037c-2.6985,3.1563-6.4668,2.9106-6.5125,2.9113L115.971,60.51 c-0.0584-0.003-6.2754-0.0243-8.4252-7.1722c-0.8698-3.3556-0.7191-6.047,0.4313-8.9511 c0.8187-2.0655,2.3894-3.8353,3.8252-5.4662c1.5057-1.6462-0.5214-3.4632-2.0789-1.6935 c-5.15,5.0987-7.2668,10.3789-6.2511,16.4042c1.7205,6.5558,6.6448,9.2849,6.6448,9.2849 c3.8563,2.1655,7.3864,1.6019,7.3864,1.6019c0.555-0.0237,2.5389-0.1848,4.802-1.2833c2.3636-1.1462,5.487-3.5638,6.9435-8.5637 l0.0445-0.1842c1.5894-6.4975-1.5548-12.597-6.1574-17.6766c-3.6231-3.9985-8.9011-7.2674-13.5979-8.9666 c-1.236-0.3955-2.0701-0.2815-2.3484,0.6405c-0.3177,1.0526,2.2495,1.9304,2.2495,1.9304 C111.8618,31.4032,113.7405,32.0954,116.8845,34.246z"/>
                </g>
            </g>
            <g fill="#666666" class="logo-tripl3inf-desanddev">
                <path d="M134.7474,57.3188c0.7596-0.1146,1.6622-0.2002,2.651-0.2002c1.7908,0,3.0661,0.4151,3.9117,1.2034 c0.8596,0.7879,1.3613,1.9057,1.3613,3.4673c0,1.5762-0.4874,2.8656-1.39,3.7538c-0.9026,0.9025-2.3928,1.39-4.2699,1.39 c-0.8886,0-1.6335-0.043-2.2639-0.1146v-9.4996L134.7474,57.3188L134.7474,57.3188z M135.9938,65.8589 c0.3152,0.0573,0.7736,0.0716,1.261,0.0716c2.6653,0,4.1123-1.4899,4.1123-4.098c0.0143-2.2782-1.2754-3.7252-3.9117-3.7252 c-0.6447,0-1.1321,0.0573-1.4616,0.1289L135.9938,65.8589L135.9938,65.8589z"/>
                <path d="M145.0333,63.6091c0.0287,1.7048,1.1178,2.4071,2.3785,2.4071c0.9026,0,1.4473-0.1573,1.92-0.3582 l0.2149,0.9026c-0.4441,0.2006-1.2037,0.4298-2.3069,0.4298c-2.1349,0-3.4103-1.4043-3.4103-3.4963 c0-2.092,1.2321-3.7395,3.2524-3.7395c2.2639,0,2.8656,1.9917,2.8656,3.2667c0,0.2579-0.0287,0.4584-0.043,0.5877H145.0333z M148.7301,62.7065c0.0143-0.8026-0.3295-2.049-1.7481-2.049c-1.2754,0-1.8341,1.1748-1.9344,2.049H148.7301z"/>
                <path d="M151.3655,65.5577c0.3725,0.2435,1.0315,0.5017,1.6622,0.5017c0.9169,0,1.347-0.4584,1.347-1.0318 c0-0.602-0.3585-0.9312-1.2897-1.2754c-1.2467-0.4438-1.8341-1.1318-1.8341-1.9627c0-1.1178,0.9026-2.0347,2.3931-2.0347 c0.702,0,1.3184,0.2006,1.7048,0.4298l-0.3152,0.9169c-0.2722-0.1719-0.7739-0.4011-1.4186-0.4011 c-0.745,0-1.1604,0.4298-1.1604,0.9455c0,0.5734,0.4155,0.8312,1.3183,1.1748c1.2037,0.4584,1.8198,1.0605,1.8198,2.0923 c0,1.2177-0.9455,2.0776-2.5934,2.0776c-0.7596,0-1.4616-0.1862-1.9487-0.4727L151.3655,65.5577z"/>
                <path d="M158.6436,57.9635c0.0143,0.4298-0.3012,0.7739-0.8026,0.7739c-0.4441,0-0.7593-0.3442-0.7593-0.7739 c0-0.4441,0.3295-0.7879,0.7879-0.7879C158.3424,57.1759,158.6436,57.5194,158.6436,57.9635z M157.2393,66.8474v-6.9349H158.5 v6.9349H157.2393z"/>
                <path d="M166.5953,59.9125c-0.0287,0.5014-0.0576,1.0602-0.0576,1.9057v4.0263 c0,1.5905-0.3152,2.5647-0.9885,3.1664c-0.6733,0.6307-1.6478,0.8313-2.5217,0.8313c-0.8313,0-1.7481-0.2005-2.3069-0.5731 l0.3152-0.9602c0.4585,0.2869,1.1748,0.5447,2.0347,0.5447c1.2897,0,2.2352-0.6733,2.2352-2.4218v-0.7736h-0.0287 c-0.3868,0.6447-1.1321,1.1604-2.2066,1.1604c-1.7191,0-2.9515-1.4613-2.9515-3.3816c0-2.3498,1.5332-3.6825,3.1238-3.6825 c1.2034,0,1.8627,0.6307,2.1636,1.2034h0.029l0.0573-1.0458h1.1028V59.9125z M165.2913,62.6492 c0-0.2149-0.0143-0.4011-0.0716-0.5734c-0.2292-0.7306-0.8456-1.3327-1.7625-1.3327c-1.2034,0-2.0633,1.0175-2.0633,2.6224 c0,1.3613,0.6877,2.4931,2.049,2.4931c0.7736,0,1.4756-0.4871,1.7481-1.2897c0.0716-0.2149,0.1003-0.4584,0.1003-0.6733V62.6492z"/>
                <path d="M168.5714,61.7893c0-0.7163-0.0143-1.304-0.0576-1.8771h1.1178l0.0716,1.1464h0.029 c0.3438-0.659,1.1464-1.304,2.2925-1.304c0.9599,0,2.4498,0.5734,2.4498,2.9515v4.1409h-1.2607v-3.9974 c0-1.1178-0.4155-2.049-1.6049-2.049c-0.8313,0-1.4759,0.5874-1.6908,1.2894c-0.0573,0.1576-0.086,0.3728-0.086,0.5877v4.1696 h-1.2607L168.5714,61.7893L168.5714,61.7893z"/>
                <path d="M186.4955,66.8474c-0.2722-0.2722-0.5301-0.5444-0.9025-0.9455 c-0.8309,0.7736-1.7625,1.1034-2.8226,1.1034c-1.8771,0-2.9659-1.261-2.9659-2.708c0-1.3183,0.7879-2.2209,1.8914-2.8226v-0.0433 c-0.5014-0.6304-0.8023-1.3323-0.8023-2.02c0-1.1751,0.8453-2.3788,2.4498-2.3788c1.2038,0,2.1353,0.8026,2.1353,2.049 c0,1.0175-0.5877,1.8198-2.1209,2.579v0.0433c0.8169,0.9455,1.7338,2.0057,2.3502,2.6934 c0.4441-0.6733,0.745-1.6049,0.9312-2.8226h1.1464c-0.2579,1.5189-0.6733,2.7223-1.39,3.5679 c0.5157,0.5444,1.0172,1.0888,1.5905,1.7048L186.4955,66.8474L186.4955,66.8474z M184.9769,65.1853 c-0.5734-0.6307-1.6482-1.8054-2.7223-3.0375c-0.5161,0.3295-1.2467,0.9455-1.2467,1.9627c0,1.1035,0.8169,1.9487,1.9774,1.9487 C183.8158,66.0595,184.5181,65.6867,184.9769,65.1853z M182.0394,59.2962c0,0.6877,0.3152,1.2177,0.7307,1.7338 c0.9742-0.5591,1.6049-1.0748,1.6049-1.8917c0-0.5874-0.3298-1.2464-1.1178-1.2464 C182.4548,57.8922,182.0394,58.5512,182.0394,59.2962z"/>
                <path d="M192.9999,57.3188c0.7593-0.1146,1.6618-0.2002,2.6507-0.2002c1.7911,0,3.0665,0.4151,3.9117,1.2034 c0.8599,0.7879,1.3613,1.9057,1.3613,3.4673c0,1.5762-0.4871,2.8656-1.39,3.7538c-0.9025,0.9025-2.3928,1.39-4.2695,1.39 c-0.8886,0-1.6335-0.043-2.2639-0.1146v-9.4996L192.9999,57.3188L192.9999,57.3188z M194.2463,65.8589 c0.3155,0.0573,0.774,0.0716,1.261,0.0716c2.665,0,4.1123-1.4899,4.1123-4.098c0.0143-2.2782-1.2754-3.7252-3.9117-3.7252 c-0.6447,0-1.1321,0.0573-1.4616,0.1289V65.8589z"/>
                <path d="M203.2862,63.6091c0.0287,1.7048,1.1178,2.4071,2.3785,2.4071c0.9025,0,1.4469-0.1573,1.9197-0.3582 l0.2149,0.9026c-0.4441,0.2006-1.2034,0.4298-2.3069,0.4298c-2.1349,0-3.4103-1.4043-3.4103-3.4963 c0-2.092,1.2324-3.7395,3.2527-3.7395c2.2636,0,2.8656,1.9917,2.8656,3.2667c0,0.2579-0.0287,0.4584-0.043,0.5877H203.2862z M206.983,62.7065c0.0143-0.8026-0.3298-2.049-1.7481-2.049c-1.2751,0-1.8341,1.1748-1.9341,2.049H206.983z"/>
                <path d="M210.2774,59.9125l1.3613,3.8974c0.2292,0.6307,0.4151,1.2034,0.5587,1.7765h0.043 c0.1576-0.5731,0.3585-1.1461,0.5877-1.7765l1.347-3.8974h1.318l-2.722,6.9349h-1.2037l-2.6364-6.9349H210.2774z"/>
                <path d="M217.2683,63.6091c0.0287,1.7048,1.1178,2.4071,2.3785,2.4071c0.9025,0,1.4469-0.1573,1.9197-0.3582 l0.2149,0.9026c-0.4441,0.2006-1.2034,0.4298-2.3069,0.4298c-2.1349,0-3.4103-1.4043-3.4103-3.4963 c0-2.092,1.2324-3.7395,3.2527-3.7395c2.2636,0,2.8656,1.9917,2.8656,3.2667c0,0.2579-0.0287,0.4584-0.043,0.5877H217.2683z M220.9651,62.7065c0.0143-0.8026-0.3298-2.049-1.7481-2.049c-1.2751,0-1.8341,1.1748-1.9341,2.049H220.9651z"/>
                <path d="M223.7724,56.6745h1.2607v10.1729h-1.2607V56.6745z"/>
                <path d="M233.4573,63.3225c0,2.5647-1.7768,3.6825-3.4529,3.6825c-1.8771,0-3.3244-1.3756-3.3244-3.5679 c0-2.3212,1.5189-3.6825,3.439-3.6825C232.1103,59.7546,233.4573,61.2019,233.4573,63.3225z M227.9553,63.3942 c0,1.5189,0.8742,2.6653,2.1063,2.6653c1.2034,0,2.1063-1.1321,2.1063-2.6937c0-1.1747-0.5874-2.6653-2.0776-2.6653 C228.6,60.7005,227.9553,62.0758,227.9553,63.3942z"/>
                <path d="M235.0755,62.1764c0-0.8886-0.029-1.6049-0.0576-2.2639h1.1321l0.0576,1.1891h0.0287 c0.5157-0.8456,1.3323-1.347,2.4641-1.347c1.6765,0,2.9372,1.4183,2.9372,3.5246c0,2.4931-1.5186,3.7255-3.1524,3.7255 c-0.9169,0-1.7192-0.4011-2.1349-1.0891h-0.0287v3.7681h-1.2464v-7.5073L235.0755,62.1764L235.0755,62.1764z M236.3219,64.0248 c0,0.1859,0.0287,0.3582,0.0573,0.5157c0.2292,0.8742,0.9888,1.4756,1.8914,1.4756c1.3327,0,2.1066-1.0888,2.1066-2.6793 c0-1.39-0.731-2.5794-2.0633-2.5794c-0.8599,0-1.6622,0.6164-1.9061,1.5619c-0.043,0.1576-0.0859,0.3442-0.0859,0.5158 L236.3219,64.0248L236.3219,64.0248L236.3219,64.0248z"/>
                <path d="M243.2554,61.7893c0-0.7163-0.0146-1.304-0.0576-1.8771h1.1034l0.0573,1.1178h0.0433 c0.3868-0.659,1.0315-1.2754,2.1776-1.2754c0.9455,0,1.6618,0.5734,1.963,1.39h0.0287c0.2149-0.3868,0.4871-0.6877,0.7736-0.9025 c0.4155-0.3152,0.8742-0.4871,1.5332-0.4871c0.9169,0,2.2782,0.602,2.2782,3.0089v4.0836h-1.2324v-3.926 c0-1.3327-0.4871-2.1349-1.5043-2.1349c-0.7163,0-1.2754,0.5301-1.4903,1.1464c-0.0573,0.1716-0.1003,0.4008-0.1003,0.6303 v4.2842h-1.2321v-4.1553c0-1.1035-0.4874-1.9057-1.4473-1.9057c-0.7879,0-1.3613,0.6304-1.5619,1.2607 c-0.0716,0.1862-0.1003,0.4011-0.1003,0.6164v4.1839h-1.2321V61.7893z"/>
                <path d="M255.9342,63.6091c0.0287,1.7048,1.1178,2.4071,2.3785,2.4071c0.9025,0,1.4469-0.1573,1.9197-0.3582 l0.2149,0.9026c-0.4441,0.2006-1.2034,0.4298-2.3069,0.4298c-2.1349,0-3.4103-1.4043-3.4103-3.4963 c0-2.092,1.2324-3.7395,3.2527-3.7395c2.2635,0,2.8656,1.9917,2.8656,3.2667c0,0.2579-0.0287,0.4584-0.043,0.5877H255.9342z M259.631,62.7065c0.0143-0.8026-0.3298-2.049-1.7481-2.049c-1.275,0-1.8341,1.1748-1.934,2.049H259.631z"/>
                <path d="M262.4383,61.7893c0-0.7163-0.0146-1.304-0.0576-1.8771h1.1178l0.072,1.1464h0.0287 c0.3438-0.659,1.1464-1.304,2.2925-1.304c0.9599,0,2.4498,0.5734,2.4498,2.9515v4.1409h-1.2607v-3.9974 c0-1.1178-0.4155-2.049-1.6049-2.049c-0.8312,0-1.4759,0.5874-1.6908,1.2894c-0.0573,0.1576-0.0859,0.3728-0.0859,0.5877v4.1696 h-1.2607V61.7893z"/>
                <path d="M271.8793,57.9209v1.9917h1.8055v0.9599h-1.8055v3.7395c0,0.8599,0.2436,1.347,0.9455,1.347 c0.3298,0,0.5734-0.043,0.7307-0.086l0.0576,0.9455c-0.2436,0.1003-0.6307,0.1719-1.1178,0.1719 c-0.5877,0-1.0605-0.1862-1.3613-0.5304c-0.3585-0.3725-0.4871-0.9885-0.4871-1.8054V60.872h-1.0748v-0.9599h1.0748V58.25 L271.8793,57.9209z"/>
            </g>
        </g>
    </g>
</svg>
