<svg xmlns="http://www.w3.org/2000/svg" id="logo_x5F_tripl3inf" width="607px" height="159px" x="0px" y="0px" version="1.1" viewBox="-9.2196 -16.3925 607 159" enable-background="new -9.2196 -16.3925 607 159" xml:space="preserve">
    <g id="logo-tripl3inf-wrap">
        <g id="logo-tripl3inf-defs">
            <path id="logo-tripl3inf-mask-piece-2" d="M237.7265,3.6418c-7.3582-4.4447-14.2863-3.5725-14.2863-3.5725 c-1.0793,0.0129-4.9439,0.2059-9.4095,2.2017c-4.6635,2.0852-10.8796,6.5939-14.0138,16.221l-0.098,0.355 c-0.6071,2.659-0.8814,5.3131-0.8346,7.9524c0.0068,0.8851,0.2909,2.034,1.2327,2.7737c0.8013,0.6164,2.8969,0.9246,3.8215,0.678 c1.25-0.347,2.4649-0.6293,2.6923-3.2686c-0.0105-2.2171,0.4524-3.7389,1.017-6.16c0.9535-2.8575,2.7379-5.98,4.3214-7.7182 c5.4345-5.9696,12.7441-5.2644,12.8322-5.2613l1.2093,0.0524c0.1147,0.0074,13.252,0.8013,16.2106,14.2382 c1.5409,6.5878,0.4198,12.6763-1.9927,18.2501c-1.716,3.9645-4.5938,7.3459-7.4828,10.4271 c-2.9019,2.034,1.6026,6.8417,4.5611,3.8215c10.3834-10.8031,14.5784-18.8794,12.5925-32.5999 c-2.9321-12.8439-12.3681-18.4239-12.3681-18.4239L237.7265,3.6418z"/>
            <path id="logo-tripl3inf-mask-piece-1" fill="#020202" d="M224.8287,64.9128c6.4562,4.4164,12.729,11.9268,15.8108,20.1861 c2.2189,6.1021,3.4671,13.573,1.4743,19.9642c-0.9227,3.0843-2.725,6.4793-4.3577,8.3882 c-5.6071,6.5582-13.4369,6.0478-13.5318,6.0491l-1.2938-0.0154c-0.1214-0.0062-13.0393-0.0505-17.5062-14.9026 c-1.8072-6.9724-1.4941-12.5647,0.8962-18.599c1.7012-4.2918,4.9649-7.969,7.9481-11.3579 c3.1285-3.4206-1.0834-7.1959-4.3195-3.5189c-10.7008,10.5942-15.0993,21.5656-12.9888,34.0853 c3.5749,13.6218,13.8067,19.2924,13.8067,19.2924c8.0128,4.4995,15.3476,3.3284,15.3476,3.3284 c1.1532-0.0493,5.2755-0.384,9.9778-2.6664c4.9112-2.3817,11.401-7.4051,14.4274-17.794l0.0925-0.3828 c3.3026-13.5008-3.2306-26.1746-12.794-36.729c-7.5281-8.3083-18.495-15.1004-28.2543-18.6311 c-2.5682-0.8218-4.3013-0.5849-4.8796,1.3309c-0.6602,2.1871,4.6741,4.011,4.6741,4.011 C214.3924,59.006,218.2961,60.4442,224.8287,64.9128z"/>
        </g>
        <g id="logo-tripl3inf-content">
            <g id="logo-tripl3inf-letters" fill="none" stroke="#AAFF00" stroke-width="2">
                <path d="M26.0197,98.3496c-4.7855,0-8.8628-1.5798-11.4818-4.4496 c-2.7657-3.1139-4.113-8.202-4.113-15.5492V45.1691c0-0.3402-0.2761-0.6164-0.6164-0.6164H1v-7.2103h8.7968 c0.3402,0,0.6164-0.2761,0.6164-0.6164V25.8724l9.5772-2.8945v13.7475c0,0.3402,0.2761,0.6164,0.6164,0.6164h15.217v7.1875 H20.6074c-0.3402,0-0.6164,0.2761-0.6164,0.6164v32.8051c0,11.1637,5.0912,12.455,8.9214,12.455 c2.5148,0,4.2363-0.1639,5.8401-0.5707l0.4296,7.1875C33.4858,97.5767,30.343,98.3496,26.0197,98.3496z"/>
                <path d="M47.4084,96.9406V55.7042c-0.0012-7.6097-0.1448-13.313-0.4635-18.3611 h8.4289l0.4789,11.475c0.0136,0.3304,0.2854,0.5905,0.6158,0.5905h0.3754c0.2644,0,0.4993-0.1683,0.5837-0.4185 c2.6541-7.8384,9.0847-12.9031,16.3831-12.9031c0.8789,0,1.6032,0.0795,2.4008,0.1794v9.1513 c-0.9578-0.1319-1.9564-0.1319-3.154-0.1319c-7.7657,0-13.8246,5.7242-15.4358,14.5827 c-0.2459,1.4694-0.3865,3.3851-0.3865,5.2644v31.8084h-9.8268V96.9406L47.4084,96.9406z"/>
                <path d="M87.1255,96.9406V37.3425h9.8268v59.5988h-9.8268V96.9406z M91.789,25.8059c-3.5022,0-6.0441-2.5949-6.0441-6.1705c0-3.6483,2.6479-6.2962,6.2962-6.2962 c3.5577,0,6.1397,2.6479,6.1397,6.2962c0,0.0641,0.0099,0.1257,0.0277,0.1837C98.124,23.4082,95.5655,25.8059,91.789,25.8059z"/>
                <path d="M109.0098,121.8402l0.0006-65.2448c0-0.0524-0.0068-0.1035-0.0191-0.1535 c-0.0031-7.2756-0.2231-13.2125-0.4752-19.1001h8.578l0.5929,9.8527c0.0197,0.3255,0.2891,0.5794,0.6151,0.5794h0.2521 c0.2176,0,0.4191-0.1146,0.5301-0.302c4.4188-7.4482,11.7111-11.3856,21.0873-11.3856c7.0519,0,13.4591,2.95,18.0406,8.3068 c4.6758,5.4672,7.251,13.2385,7.251,21.8824c0,22.1474-13.6397,32.0611-27.1579,32.0611c-7.8945,0-14.698-3.4597-18.199-9.2554 c-0.1116-0.1843-0.3119-0.2971-0.5276-0.2971h-0.2521c-0.3402,0-0.6164,0.2755-0.6164,0.6164v32.439h-9.7004L109.0098,121.8402 L109.0098,121.8402z M118.7139,72.6433c-0.0142,0.0499-0.0216,0.1017-0.0216,0.1547c0,1.8867,0.167,3.3765,0.5245,4.6869 c2.0685,8.0165,8.9836,13.4079,17.2054,13.4079c11.7764,0,19.0921-9.2419,19.0921-24.1192 c0-13.6101-7.6954-23.1152-18.7142-23.1152c-8.1897,0-15.31,5.7754-17.3151,14.044c-0.3285,1.2069-0.7705,3.0104-0.7705,4.5451 v10.3957L118.7139,72.6433L118.7139,72.6433z"/>
                <path d="M173.7959,8.9401h9.8268v88.0005h-9.8268V8.9401z"/>
                <path d="M261.9105,96.9406V37.3425h9.8268v59.5988h-9.8268V96.9406z M266.5733,25.8059c-3.5022,0-6.0441-2.5949-6.0441-6.1705c0-3.6483,2.6479-6.2962,6.2968-6.2962 c3.5577,0,6.1397,2.6479,6.1397,6.2962c0,0.0641,0.0099,0.1257,0.0277,0.1837C272.909,23.4082,270.351,25.8059,266.5733,25.8059z"/>
                <path d="M324.7236,96.9431V62.4904c0-11.9872-5.2176-18.5885-14.6918-18.5885 c-8.0017,0-13.5096,5.8943-15.4179,11.7363c-0.503,1.3825-0.784,3.2871-0.784,5.3439v35.9566h-9.8268 c0,0,0.0006-43.7365,0.0006-43.7475c0-0.0462-0.0049-0.0912-0.0148-0.135c-0.0018-6.4688-0.1393-11.2272-0.4567-15.7138h8.5589 l0.5936,9.4773c0.0203,0.3248,0.2897,0.5782,0.6151,0.5782h0.2527c0.2274,0,0.4364-0.1257,0.5436-0.3261 c2.7022-5.0678,9.4471-10.985,19.5636-10.985c10.0992,0,20.8907,6.6396,20.8907,25.2743V96.943L324.7236,96.9431 L324.7236,96.9431z"/>
                <path d="M384.8037,96.9406v-51.793c0-0.3402-0.2755-0.6164-0.6164-0.6164H359.93 c-0.3409,0-0.6164,0.2761-0.6164,0.6164v51.793h-9.677V45.1457c0-0.3402-0.2755-0.6164-0.6164-0.6164h-7.8014v-7.1869h7.8014 c0.3408,0,0.6164-0.2761,0.6164-0.6164v-3.393c0-16.1409,9.6832-25.7772,25.903-25.7772c5.2619,0,11.5681,1.5785,14.6887,3.6391 l-2.7071,7.2553c-3.3-2.0155-7.9068-3.2033-12.5086-3.2033c-10.4173,0-15.6996,6.2124-15.6996,18.464v3.0153 c0,0.3402,0.2755,0.6164,0.6164,0.6164h34.6992v59.5988h-9.825v-0.0008H384.8037z"/>
                <path d="M447.6428,96.9431V62.4904c0-11.9872-5.2188-18.5885-14.6943-18.5885 c-8.0011,0-13.5072,5.8943-15.4142,11.7363c-0.5017,1.3757-0.7828,3.2809-0.7828,5.3439v35.9566h-9.828l0.0018-43.7475 c0-0.0468-0.0055-0.0931-0.0154-0.1381c-0.0018-6.459-0.1411-11.2155-0.4604-15.7101h8.5639l0.5911,9.4773 c0.0204,0.3248,0.2897,0.5782,0.6151,0.5782h0.2527c0.2275,0,0.4364-0.1257,0.5437-0.3261 c2.704-5.0678,9.4496-10.985,19.563-10.985c10.0992,0,20.8913,6.6395,20.8913,25.2743v35.5819h-9.8273v-0.0005H447.6428z"/>
                <path d="M469.3316,96.9406V37.3425h9.8262v59.5988h-9.8262V96.9406z M473.9957,25.8059c-3.5041,0-6.0472-2.5949-6.0472-6.1705c0-3.6483,2.6473-6.2962,6.295-6.2962 c3.5571,0,6.1391,2.6479,6.1391,6.2962c0,0.0653,0.0105,0.1282,0.029,0.1874C480.3252,23.41,477.7691,25.8059,473.9957,25.8059z"/>
                <path d="M514.7705,98.3496c-4.788,0-8.8659-1.5798-11.483-4.4496 c-2.7669-3.1127-4.1143-8.2008-4.1143-15.5492V45.1691c0-0.3402-0.2755-0.6164-0.6164-0.6164h-8.8086v-7.1856h8.8086 c0.3409,0,0.6164-0.2761,0.6164-0.6164V25.8965l9.563-2.8902v13.7198c0,0.3402,0.2755,0.6164,0.6164,0.6164h15.2176V44.53 h-15.2176c-0.3408,0-0.6164,0.2761-0.6164,0.6164v32.8051c0,11.1637,5.0925,12.455,8.9226,12.455 c2.5135,0,4.2357-0.164,5.842-0.5714l0.4296,7.1881C522.2347,97.5767,519.0937,98.3496,514.7705,98.3496z"/>
                <path d="M536.9753,116.4284c3.2415-1.1193,6.6044-3.0406,9.3109-5.3279 c1.7129-1.3566,6.0959-5.3193,9.4612-12.5296c0.5683-1.2753,0.9375-2.1604,0.9375-2.8982c0-0.7563-0.2885-1.7258-0.9356-3.146 L533.727,37.3431l10.7193-0.0006l13.0498,35.5443c1.4473,3.8683,2.9844,8.615,4.0126,12.3903 c0.0728,0.2687,0.3168,0.4543,0.5948,0.4543h0.2521c0.27,0,0.5091-0.1763,0.5886-0.4345 c0.3803-1.229,0.7754-2.5727,1.1902-3.9818c0.7982-2.7133,1.703-5.7896,2.6972-8.6933l11.9262-35.2799h10.3495l-16.2703,42.524 c-7.2449,19.0884-12.688,30.7717-20.6953,37.8415c-4.7281,3.9749-9.5723,6.0811-12.7354,6.7838L536.9753,116.4284z"/>
            </g>
            <g id="logo-tripl3inf-infsym">
                <g id="logo-tripl3inf-infsympaths" fill="none">
                    <path id="logo-tripl3inf-infsympath-1" d="M229.853,56.9517c0,0,19.4157-13.5817,16.3338-35.1442 c0,0,0.3316-16.9391-21.3603-17.8637c-24.4422-0.6164-23.0184,31.1132-23.0184,31.1267"/>
                    <path id="logo-tripl3inf-infsympath-2" d="M200.0617,51.1623c0,0,13.1566,3.0152,25.8876,11.5419 c19.4157,15.9508,21.8812,26.2985,21.8812,38.9341c-1.3121,15.7526-14.1054,22.4153-23.6512,22.6544 c0,0-12.2011,2.2528-20.933-13.2034c-5.7528-11.0947-1.3995-22.2069-1.4537-22.3948c0,0,3.5831-11.7761,14.5002-19.2102"/>
                </g>
                <g id="logo-tripl3inf-infsymwhole" fill="#AAFF00">
                    <path d="M237.7265,3.6418c-7.3582-4.4447-14.2863-3.5725-14.2863-3.5725 c-1.0793,0.0129-4.9439,0.2059-9.4095,2.2017c-4.6635,2.0852-10.8796,6.5939-14.0138,16.221l-0.098,0.355 c-0.6071,2.659-0.8681,5.3129-0.8346,7.9524c0.0112,0.8851,0.2872,2.0388,1.2327,2.7737 c0.7982,0.6204,2.8982,0.9293,3.8215,0.678c1.2518-0.3406,2.5847-0.6217,2.6923-3.2686c0.09-2.2153,0.4524-3.7389,1.017-6.16 c0.9535-2.8575,2.7379-5.98,4.3214-7.7182c5.4345-5.9696,12.7441-5.2644,12.8322-5.2613l1.2093,0.0524 c0.1147,0.0074,13.252,0.8013,16.2106,14.2382c1.5409,6.5878,0.4198,12.6763-1.9927,18.2501 c-1.716,3.9645-4.5938,7.3459-7.4828,10.4271c-2.9019,2.034,1.6026,6.8417,4.5611,3.8215 c10.3834-10.8031,14.5784-18.8794,12.5925-32.5999c-2.9321-12.8439-12.3681-18.4239-12.3681-18.4239L237.7265,3.6418z"/>
                    <path d="M224.8287,64.9128c6.4562,4.4164,12.729,11.9268,15.8108,20.1861 c2.2189,6.1021,3.4671,13.573,1.4743,19.9642c-0.9227,3.0843-2.725,6.4793-4.3577,8.3882 c-5.6071,6.5582-13.4369,6.0478-13.5318,6.0491l-1.2938-0.0154c-0.1214-0.0062-13.0393-0.0505-17.5062-14.9026 c-1.8072-6.9724-1.4941-12.5647,0.8962-18.599c1.7012-4.2918,4.9649-7.969,7.9481-11.3579 c3.1285-3.4206-1.0834-7.1959-4.3195-3.5189c-10.7008,10.5942-15.0993,21.5656-12.9888,34.0853 c3.5749,13.6218,13.8067,19.2924,13.8067,19.2924c8.0128,4.4995,15.3476,3.3284,15.3476,3.3284 c1.1532-0.0493,5.2755-0.384,9.9778-2.6664c4.9112-2.3817,11.401-7.4051,14.4274-17.794l0.0925-0.3828 c3.3026-13.5008-3.2306-26.1746-12.794-36.729c-7.5281-8.3083-18.495-15.1004-28.2543-18.6311 c-2.5682-0.8218-4.3013-0.5849-4.8796,1.3309c-0.6602,2.1871,4.6741,4.011,4.6741,4.011 C214.3924,59.006,218.2961,60.4442,224.8287,64.9128z"/>
                </g>
            </g>
            <g id="logo-tripl3inf-desanddev" fill="#666666">
                <path d="M261.8495,108.5074c1.438-0.2169,3.1466-0.3791,5.0185-0.3791c3.39,0,5.8044,0.7859,7.4051,2.2781 c1.6272,1.4916,2.5771,3.6076,2.5771,6.5637c0,2.9839-0.9227,5.4247-2.6313,7.1061c-1.7086,1.7086-4.5297,2.6313-8.0831,2.6313 c-1.6821,0-3.0923-0.0814-4.2856-0.217v-17.9832L261.8495,108.5074L261.8495,108.5074z M264.2089,124.6742 c0.5966,0.1085,1.4645,0.1356,2.3872,0.1356c5.0456,0,7.7848-2.8205,7.7848-7.7576c0.0271-4.3128-2.4143-7.0519-7.4051-7.0519 c-1.2204,0-2.1431,0.1085-2.7669,0.2441V124.6742L264.2089,124.6742z"/>
                <path d="M281.3212,120.4151c0.0542,3.2273,2.116,4.5568,4.5026,4.5568c1.7086,0,2.7397-0.2977,3.6347-0.678 l0.4068,1.7086c-0.8407,0.3797-2.2787,0.8136-4.367,0.8136c-4.0416,0-6.4559-2.6584-6.4559-6.6186s2.3323-7.079,6.1569-7.079 c4.2856,0,5.4247,3.7703,5.4247,6.184c0,0.4882-0.0542,0.8678-0.0814,1.1125L281.3212,120.4151L281.3212,120.4151z M288.3195,118.7065c0.0271-1.5193-0.6238-3.8788-3.3093-3.8788c-2.4143,0-3.472,2.2239-3.6619,3.8788H288.3195z"/>
                <path d="M293.3084,124.1041c0.7051,0.461,1.9527,0.9498,3.1466,0.9498c1.7357,0,2.5499-0.8678,2.5499-1.9533 c0-1.1397-0.6786-1.7628-2.4414-2.4143c-2.3601-0.8401-3.472-2.1425-3.472-3.7155c0-2.116,1.7086-3.8517,4.5303-3.8517 c1.3289,0,2.4957,0.3797,3.2273,0.8136l-0.5966,1.7357c-0.5153-0.3255-1.4651-0.7594-2.6855-0.7594 c-1.4102,0-2.1967,0.8136-2.1967,1.7899c0,1.0854,0.7865,1.5736,2.4957,2.2239c2.2787,0.8678,3.4449,2.0075,3.4449,3.9608 c0,2.3052-1.7899,3.9331-4.9094,3.9331c-1.438,0-2.7669-0.3526-3.689-0.8949L293.3084,124.1041z"/>
                <path d="M307.0862,109.7279c0.0271,0.8136-0.5701,1.4651-1.5193,1.4651c-0.8408,0-1.4374-0.6515-1.4374-1.4651 c0-0.8407,0.6237-1.4916,1.4916-1.4916C306.516,108.2368,307.0862,108.8871,307.0862,109.7279z M304.4277,126.5455v-13.1281 h2.3866v13.1281H304.4277z"/>
                <path d="M322.1391,113.4174c-0.0542,0.9492-0.1091,2.0069-0.1091,3.6076v7.622 c0,3.011-0.5966,4.8552-1.8713,5.9942c-1.2747,1.1939-3.1194,1.5736-4.7738,1.5736c-1.5736,0-3.3093-0.3796-4.367-1.0848 l0.5966-1.8177c0.8678,0.543,2.2239,1.0312,3.8517,1.0312c2.4414,0,4.2314-1.2747,4.2314-4.5846v-1.4645h-0.0543 c-0.7322,1.2204-2.1431,2.1967-4.1771,2.1967c-3.2544,0-5.5874-2.7663-5.5874-6.4016c0-4.4484,2.9025-6.9712,5.9135-6.9712 c2.2781,0,3.5263,1.1939,4.0958,2.2781h0.0549l0.1085-1.9798h2.0876V113.4174z M319.6706,118.598 c0-0.4068-0.0271-0.7594-0.1356-1.0854c-0.4339-1.3831-1.6007-2.5228-3.3364-2.5228c-2.2781,0-3.9059,1.9262-3.9059,4.9642 c0,2.577,1.3018,4.7196,3.8788,4.7196c1.4645,0,2.7934-0.9221,3.3093-2.4414c0.1356-0.4068,0.1898-0.8678,0.1898-1.2747V118.598z"/>
                <path d="M325.8799,116.9702c0-1.356-0.0271-2.4686-0.1091-3.5534h2.116l0.1356,2.1702h0.0548 c0.6509-1.2475,2.1702-2.4686,4.3399-2.4686c1.817,0,4.6376,1.0854,4.6376,5.5874v7.839h-2.3866v-7.5672 c0-2.116-0.7865-3.8788-3.0381-3.8788c-1.5736,0-2.794,1.1119-3.2008,2.4408c-0.1085,0.2983-0.1627,0.7057-0.1627,1.1125v7.8932 h-2.3866L325.8799,116.9702L325.8799,116.9702z"/>
                <path d="M359.8111,126.5455c-0.5153-0.5153-1.0034-1.0306-1.7086-1.7899 c-1.573,1.4645-3.3364,2.0889-5.3433,2.0889c-3.5534,0-5.6145-2.3872-5.6145-5.1264c0-2.4957,1.4916-4.2043,3.5805-5.3433v-0.082 c-0.9492-1.1933-1.5187-2.5222-1.5187-3.824c0-2.2245,1.6001-4.5032,4.6376-4.5032c2.2787,0,4.0421,1.5194,4.0421,3.8788 c0,1.9262-1.1125,3.4449-4.015,4.8823v0.082c1.5464,1.7899,3.2822,3.7969,4.449,5.0987 c0.8407-1.2747,1.4103-3.0381,1.7628-5.3433h2.1702c-0.4882,2.8754-1.2747,5.1535-2.6313,6.7542 c0.9763,1.0306,1.9256,2.0611,3.011,3.2273L359.8111,126.5455L359.8111,126.5455z M356.9364,123.399 c-1.0854-1.1939-3.1201-3.4178-5.1535-5.7501c-0.977,0.6237-2.3601,1.7899-2.3601,3.7155c0,2.0889,1.5465,3.689,3.7432,3.689 C354.7384,125.0539,356.0679,124.3482,356.9364,123.399z M351.3755,112.2507c0,1.3018,0.5966,2.3052,1.3831,3.2822 c1.8442-1.0583,3.0381-2.0346,3.0381-3.5811c0-1.1119-0.6244-2.3595-2.116-2.3595 C352.162,109.5929,351.3755,110.8404,351.3755,112.2507z"/>
                <path d="M372.1244,108.5074c1.4373-0.2169,3.146-0.3791,5.0179-0.3791c3.3906,0,5.805,0.7859,7.4051,2.2781 c1.6278,1.4916,2.5771,3.6076,2.5771,6.5637c0,2.9839-0.9221,5.4247-2.6313,7.1061c-1.7086,1.7086-4.5297,2.6313-8.0825,2.6313 c-1.6821,0-3.0924-0.0814-4.2856-0.217v-17.9832L372.1244,108.5074L372.1244,108.5074z M374.4838,124.6742 c0.5973,0.1085,1.4651,0.1356,2.3872,0.1356c5.045,0,7.7848-2.8205,7.7848-7.7576c0.0271-4.3128-2.4143-7.0519-7.4051-7.0519 c-1.2204,0-2.1431,0.1085-2.7669,0.2441V124.6742z"/>
                <path d="M391.5968,120.4151c0.0543,3.2273,2.116,4.5568,4.5026,4.5568c1.7086,0,2.7391-0.2977,3.6341-0.678 l0.4068,1.7086c-0.8407,0.3797-2.2781,0.8136-4.367,0.8136c-4.0416,0-6.4559-2.6584-6.4559-6.6186s2.3329-7.079,6.1575-7.079 c4.285,0,5.4247,3.7703,5.4247,6.184c0,0.4882-0.0542,0.8678-0.0814,1.1125L391.5968,120.4151L391.5968,120.4151z M398.5951,118.7065c0.0271-1.5193-0.6244-3.8788-3.3093-3.8788c-2.4137,0-3.472,2.2239-3.6612,3.8788H398.5951z"/>
                <path d="M404.8315,113.4174l2.5771,7.378c0.4339,1.1939,0.7859,2.2781,1.0577,3.3629h0.0814 c0.2983-1.0848,0.6786-2.1696,1.1125-3.3629l2.55-7.378h2.4951l-5.1529,13.1281h-2.2787l-4.9907-13.1281H404.8315z"/>
                <path d="M418.0656,120.4151c0.0543,3.2273,2.116,4.5568,4.5026,4.5568c1.7086,0,2.7391-0.2977,3.6341-0.678 l0.4068,1.7086c-0.8408,0.3797-2.2781,0.8136-4.367,0.8136c-4.0416,0-6.4559-2.6584-6.4559-6.6186s2.3329-7.079,6.1575-7.079 c4.285,0,5.4247,3.7703,5.4247,6.184c0,0.4882-0.0543,0.8678-0.0814,1.1125L418.0656,120.4151L418.0656,120.4151z M425.0639,118.7065c0.0271-1.5193-0.6244-3.8788-3.3093-3.8788c-2.4137,0-3.472,2.2239-3.6613,3.8788H425.0639z"/>
                <path d="M430.3782,107.2876h2.3866v19.2579h-2.3866V107.2876z"/>
                <path d="M448.7122,119.8727c0,4.8552-3.3635,6.9712-6.5366,6.9712c-3.5534,0-6.2932-2.6042-6.2932-6.7542 c0-4.3941,2.8754-6.9712,6.5101-6.9712C446.1622,113.1185,448.7122,115.8583,448.7122,119.8727z M438.2968,120.0083 c0,2.8754,1.6549,5.0456,3.9873,5.0456c2.2781,0,3.9873-2.1431,3.9873-5.0992c0-2.2238-1.1119-5.0456-3.933-5.0456 C439.5172,114.9091,438.2968,117.5126,438.2968,120.0083z"/>
                <path d="M451.7755,117.7031c0-1.6821-0.0548-3.0381-0.1091-4.2856h2.1431l0.1091,2.251h0.0543 c0.9763-1.6007,2.5222-2.5499,4.6647-2.5499c3.1737,0,5.5603,2.6849,5.5603,6.6722c0,4.7196-2.8748,7.0525-5.9677,7.0525 c-1.7357,0-3.2545-0.7594-4.0416-2.0618h-0.0542v7.1333h-2.3595V117.703L451.7755,117.7031L451.7755,117.7031z M454.135,121.2022 c0,0.352,0.0542,0.678,0.1085,0.9763c0.4339,1.655,1.8719,2.7934,3.5805,2.7934c2.5228,0,3.9879-2.0611,3.9879-5.0721 c0-2.6313-1.3838-4.8829-3.9059-4.8829c-1.6278,0-3.1465,1.1668-3.6082,2.9567c-0.0814,0.2983-0.1627,0.6515-0.1627,0.9763 L454.135,121.2022L454.135,121.2022L454.135,121.2022z"/>
                <path d="M467.2606,116.9702c0-1.356-0.0277-2.4686-0.1091-3.5534h2.0889l0.1085,2.116h0.082 c0.7322-1.2475,1.9527-2.4143,4.1223-2.4143c1.7899,0,3.146,1.0854,3.7161,2.6313h0.0543 c0.4068-0.7322,0.9221-1.3018,1.4645-1.7085c0.7865-0.5966,1.6549-0.9221,2.9025-0.9221c1.7357,0,4.3128,1.1397,4.3128,5.6959 v7.7305h-2.3329v-7.4322c0-2.5228-0.9221-4.0415-2.8477-4.0415c-1.356,0-2.4143,1.0034-2.8211,2.1702 c-0.1085,0.3248-0.1898,0.7587-0.1898,1.1933v8.1102h-2.3324v-7.8661c0-2.0889-0.9227-3.6076-2.7398-3.6076 c-1.4916,0-2.5771,1.1933-2.9567,2.3866c-0.1356,0.3526-0.1898,0.7594-0.1898,1.1668v7.9204h-2.3323v-9.5755H467.2606z"/>
                <path d="M491.2621,120.4151c0.0543,3.2273,2.116,4.5568,4.5026,4.5568c1.7086,0,2.7391-0.2977,3.6341-0.678 l0.4068,1.7086c-0.8408,0.3797-2.2781,0.8136-4.367,0.8136c-4.0416,0-6.4559-2.6584-6.4559-6.6186s2.3329-7.079,6.1575-7.079 c4.285,0,5.4247,3.7703,5.4247,6.184c0,0.4882-0.0542,0.8678-0.0814,1.1125L491.2621,120.4151L491.2621,120.4151z M498.2604,118.7065c0.0271-1.5193-0.6244-3.8788-3.3093-3.8788c-2.4137,0-3.472,2.2239-3.6613,3.8788H498.2604z"/>
                <path d="M503.5747,116.9702c0-1.356-0.0277-2.4686-0.1091-3.5534h2.116l0.1362,2.1702h0.0543 c0.6509-1.2475,2.1702-2.4686,4.3399-2.4686c1.8171,0,4.6375,1.0854,4.6375,5.5874v7.839h-2.3866v-7.5672 c0-2.116-0.7865-3.8788-3.0381-3.8788c-1.5736,0-2.794,1.1119-3.2008,2.4408c-0.1085,0.2983-0.1627,0.7057-0.1627,1.1125v7.8932 h-2.3866L503.5747,116.9702L503.5747,116.9702z"/>
                <path d="M521.447,109.6471v3.7703h3.4177v1.8171h-3.4177v7.079c0,1.6278,0.461,2.5499,1.7899,2.5499 c0.6244,0,1.0854-0.0814,1.3832-0.1627l0.1091,1.7899c-0.4611,0.1898-1.1939,0.3255-2.116,0.3255 c-1.1125,0-2.0076-0.3526-2.5771-1.0041c-0.6786-0.7051-0.9221-1.8713-0.9221-3.4178v-7.1604h-2.0347v-1.8171h2.0347v-3.1466 L521.447,109.6471z"/>
            </g>
        </g>
    </g>
</svg>
