<svg xmlns="http://www.w3.org/2000/svg" id="logo_x5F_tripl3inf" width="449.967px" height="100.6075px" x="0px" y="0px" version="1.1" viewBox="0 0 449.967 100.6075" enable-background="new 0 0 449.967 100.6075" xml:space="preserve">
    <g id="logo-tripl3inf-wrap">
        <g id="logo-tripl3inf-defs">
            <path id="logo-tripl3inf-mask-piece-2" d="M181.1344,2.7712c-5.5992-3.3821-10.871-2.7184-10.871-2.7184 c-0.8213,0.0098-3.762,0.1567-7.1601,1.6753c-3.5486,1.5867-8.2787,5.0176-10.6636,12.3432l-0.0746,0.2702 c-0.462,2.0234-0.6707,4.043-0.6351,6.0513c0.0052,0.6735,0.2214,1.5478,0.938,2.1106c0.6097,0.469,2.2044,0.7035,2.9079,0.5159 c0.9512-0.2641,1.8756-0.4789,2.0487-2.4872c-0.008-1.6871,0.3443-2.8451,0.7739-4.6874 c0.7256-2.1744,2.0834-4.5504,3.2883-5.8731c4.1353-4.5425,9.6975-4.0059,9.7645-4.0036l0.9202,0.0399 c0.0872,0.0056,10.0839,0.6097,12.3352,10.8344c1.1726,5.0129,0.3194,9.6459-1.5163,13.8872 c-1.3058,3.0167-3.4956,5.5898-5.6939,7.9344c-2.2082,1.5478,1.2195,5.2061,3.4707,2.9079 c7.9011-8.2205,11.0933-14.3661,9.5821-24.8065c-2.2311-9.7734-9.4114-14.0195-9.4114-14.0195L181.1344,2.7712z"/>
            <path id="logo-tripl3inf-mask-piece-1" fill="#020202" d="M171.3199,49.3947c4.9128,3.3606,9.686,9.0755,12.0311,15.3604 c1.6885,4.6433,2.6382,10.3282,1.1219,15.1915c-0.7021,2.347-2.0735,4.9303-3.316,6.3829 c-4.2667,4.9904-10.2246,4.602-10.2969,4.603l-0.9845-0.0117c-0.0924-0.0047-9.9221-0.0384-13.3211-11.34 c-1.3752-5.3056-1.1369-9.561,0.682-14.1527c1.2945-3.2658,3.778-6.064,6.048-8.6426c2.3806-2.6029-0.8244-5.4756-3.2869-2.6776 c-8.1427,8.0615-11.4896,16.4101-9.8837,25.9368c2.7203,10.3654,10.5061,14.6803,10.5061,14.6803 c6.0973,3.4238,11.6786,2.5327,11.6786,2.5327c0.8775-0.0375,4.0143-0.2922,7.5925-2.029 c3.7372-1.8123,8.6755-5.6348,10.9784-13.5402l0.0703-0.2913c2.5131-10.2733-2.4583-19.9172-9.7354-27.9486 c-5.7284-6.3221-14.0736-11.4905-21.4998-14.1771c-1.9543-0.6254-3.2731-0.4451-3.7131,1.0127 c-0.5023,1.6642,3.5567,3.0521,3.5567,3.0521C163.3785,44.8999,166.349,45.9943,171.3199,49.3947z"/>
        </g>
        <g id="logo-tripl3inf-content">
            <g id="logo-tripl3inf-letters" fill="none" stroke="#AAFF00" stroke-width="2">
                <path d="M20.0385,74.8381c-3.6415,0-6.744-1.2021-8.7369-3.3859 c-2.1045-2.3695-3.1298-6.2413-3.1298-11.832V34.371c0-0.2589-0.2101-0.469-0.469-0.469H1v-5.4866h6.6939 c0.2589,0,0.469-0.2101,0.469-0.469v-8.259l7.2876-2.2025v10.461c0,0.2589,0.2101,0.469,0.469,0.469h11.5792v5.4693H15.92 c-0.2589,0-0.469,0.2101-0.469,0.469v24.9627c0,8.4949,3.8741,9.4775,6.7886,9.4775c1.9136,0,3.2236-0.1248,4.444-0.4343 l0.3269,5.4693C25.7197,74.2499,23.3282,74.8381,20.0385,74.8381z"/>
                <path d="M36.314,73.7659V42.3875c-0.0009-5.7905-0.1102-10.1304-0.3527-13.9717 h6.4139l0.3644,8.7318c0.0103,0.2514,0.2172,0.4493,0.4686,0.4493h0.2856c0.2012,0,0.3799-0.128,0.4442-0.3185 c2.0196-5.9645,6.9129-9.8185,12.4666-9.8185c0.6688,0,1.2199,0.0605,1.8268,0.1365V34.56 c-0.7289-0.1004-1.4887-0.1004-2.4-0.1004c-5.9092,0-10.5197,4.3558-11.7457,11.0966c-0.1871,1.1181-0.2941,2.5759-0.2941,4.0059 v24.2043H36.314L36.314,73.7659L36.314,73.7659z"/>
                <path d="M66.5362,73.7659V28.4153h7.4776v45.351h-7.4776V73.7659z M70.0849,19.6367c-2.665,0-4.5992-1.9746-4.5992-4.6954c0-2.7761,2.0149-4.791,4.791-4.791c2.7072,0,4.6719,2.0149,4.6719,4.791 c0,0.0488,0.0075,0.0957,0.0211,0.1398C74.9054,17.8122,72.9585,19.6367,70.0849,19.6367z"/>
                <path d="M83.1888,92.7129l0.0005-49.6473c0-0.0399-0.0052-0.0788-0.0145-0.1168 c-0.0023-5.5363-0.1698-10.0539-0.3616-14.534h6.5274l0.4512,7.4973c0.015,0.2477,0.22,0.4409,0.4681,0.4409h0.1918 c0.1656,0,0.3189-0.0872,0.4034-0.2298c3.3624-5.6677,8.9114-8.6638,16.0461-8.6638c5.3661,0,10.2415,2.2447,13.7278,6.321 c3.558,4.1602,5.5176,10.0737,5.5176,16.6512c0,16.8529-10.379,24.3966-20.6655,24.3966c-6.0072,0-11.1843-2.6326-13.8483-7.0428 c-0.0849-0.1402-0.2373-0.2261-0.4015-0.2261h-0.1918c-0.2589,0-0.469,0.2096-0.469,0.469v24.6841h-7.3814L83.1888,92.7129 L83.1888,92.7129z M90.5731,55.2771c-0.0108,0.038-0.0164,0.0774-0.0164,0.1177c0,1.4357,0.1271,2.5693,0.3991,3.5664 c1.574,6.1001,6.836,10.2026,13.0922,10.2026c8.9611,0,14.5279-7.0325,14.5279-18.3532c0-10.3564-5.8557-17.5892-14.2404-17.5892 c-6.2319,0-11.65,4.3947-13.1757,10.6866c-0.25,0.9183-0.5863,2.2907-0.5863,3.4586v7.9105L90.5731,55.2771L90.5731,55.2771z"/>
                <path d="M132.4871,6.8029h7.4776v66.963h-7.4776V6.8029z"/>
                <path d="M199.5369,73.7659V28.4153h7.4776v45.351h-7.4776V73.7659z M203.085,19.6367c-2.665,0-4.5992-1.9746-4.5992-4.6954c0-2.7761,2.0149-4.791,4.7915-4.791 c2.7072,0,4.6719,2.0149,4.6719,4.791c0,0.0488,0.0075,0.0957,0.0211,0.1398C207.9061,17.8122,205.9597,19.6367,203.085,19.6367z"/>
                <path d="M247.3338,73.7678V47.5514c0-9.1215-3.9703-14.1447-11.1796-14.1447 c-6.0888,0-10.28,4.4852-11.7321,8.9306c-0.3827,1.052-0.5966,2.5013-0.5966,4.0664v27.3608h-7.4776 c0,0,0.0005-33.2808,0.0005-33.2892c0-0.0352-0.0038-0.0694-0.0112-0.1027c-0.0014-4.9224-0.106-8.5432-0.3475-11.9572h6.5128 l0.4517,7.2117c0.0155,0.2472,0.2204,0.4399,0.4681,0.4399h0.1923c0.1731,0,0.3321-0.0957,0.4137-0.2481 c2.0562-3.8563,7.1887-8.3589,14.8867-8.3589c7.6849,0,15.8965,5.0523,15.8965,19.2322v27.0756L247.3338,73.7678 L247.3338,73.7678z"/>
                <path d="M293.0511,73.7659V34.3545c0-0.2589-0.2097-0.469-0.469-0.469h-18.4583 c-0.2594,0-0.469,0.2101-0.469,0.469v39.4113h-7.3636V34.3531c0-0.2589-0.2097-0.469-0.469-0.469h-5.9364v-5.4688h5.9364 c0.2593,0,0.469-0.2101,0.469-0.469v-2.582c0-12.2822,7.3683-19.6149,19.7106-19.6149c4.004,0,8.8026,1.2012,11.1772,2.7691 l-2.06,5.5208c-2.5111-1.5337-6.0166-2.4375-9.5183-2.4375c-7.9269,0-11.9464,4.7273-11.9464,14.05v2.2944 c0,0.2589,0.2097,0.469,0.469,0.469h26.404v45.351h-7.4762V73.7659z"/>
                <path d="M340.8678,73.7678V47.5514c0-9.1215-3.9712-14.1447-11.1815-14.1447 c-6.0883,0-10.2781,4.4852-11.7292,8.9306c-0.3818,1.0468-0.5957,2.4966-0.5957,4.0664v27.3608h-7.4785l0.0014-33.2892 c0-0.0356-0.0042-0.0708-0.0117-0.1051c-0.0014-4.9149-0.1074-8.5343-0.3504-11.9544h6.5166l0.4498,7.2117 c0.0155,0.2472,0.2204,0.4399,0.4681,0.4399h0.1923c0.1731,0,0.3321-0.0957,0.4137-0.2481 c2.0576-3.8563,7.1906-8.3589,14.8863-8.3589c7.6849,0,15.897,5.0523,15.897,19.2322v27.0756h-7.478V73.7678z"/>
                <path d="M357.3717,73.7659V28.4153h7.4771v45.351h-7.4771V73.7659z M360.9207,19.6367c-2.6664,0-4.6015-1.9746-4.6015-4.6954c0-2.7761,2.0144-4.791,4.7901-4.791 c2.7067,0,4.6714,2.0149,4.6714,4.791c0,0.0497,0.008,0.0976,0.0221,0.1426C365.7372,17.8136,363.7921,19.6367,360.9207,19.6367z"/>
                <path d="M391.9479,74.8381c-3.6433,0-6.7464-1.2021-8.7379-3.3859 c-2.1054-2.3686-3.1307-6.2403-3.1307-11.832V34.371c0-0.2589-0.2097-0.469-0.469-0.469h-6.7028v-5.4678h6.7028 c0.2594,0,0.469-0.2101,0.469-0.469v-8.2594l7.2769-2.1992v10.4399c0,0.2589,0.2097,0.469,0.469,0.469h11.5797v5.4693h-11.5797 c-0.2594,0-0.469,0.2101-0.469,0.469v24.9627c0,8.4949,3.8751,9.4775,6.7896,9.4775c1.9127,0,3.2231-0.1248,4.4454-0.4348 l0.3269,5.4697C397.6277,74.2499,395.2376,74.8381,391.9479,74.8381z"/>
                <path d="M408.8444,88.5949c2.4666-0.8517,5.0256-2.3137,7.085-4.0542 c1.3034-1.0323,4.6386-4.0476,7.1995-9.5342c0.4324-0.9704,0.7134-1.6439,0.7134-2.2053c0-0.5755-0.2195-1.3132-0.712-2.3939 l-16.7576-41.9914l8.1567-0.0005l9.9301,27.047c1.1013,2.9436,2.271,6.5555,3.0533,9.4282 c0.0553,0.2045,0.2411,0.3457,0.4526,0.3457h0.1918c0.2054,0,0.3874-0.1341,0.4479-0.3307 c0.2894-0.9352,0.59-1.9577,0.9057-3.0299c0.6074-2.0646,1.2959-4.4055,2.0524-6.6151l9.0751-26.8458h7.8753l-12.3807,32.3582 c-5.5129,14.5251-9.6548,23.4154-15.7478,28.7951c-3.5978,3.0247-7.2839,4.6273-9.6909,5.162L408.8444,88.5949z"/>
            </g>
            <g id="logo-tripl3inf-infsym">
                <g id="logo-tripl3inf-infsympaths" fill="none">
                    <path id="logo-tripl3inf-infsympath-1" d="M175.1431,43.3368c0,0,14.7742-10.3348,12.429-26.7426 c0,0,0.2523-12.8896-16.2539-13.5932c-18.599-0.469-17.5156,23.6752-17.5156,23.6855"/>
                    <path id="logo-tripl3inf-infsympath-2" d="M152.4738,38.9313c0,0,10.0114,2.2944,19.6989,8.7827 c14.7742,12.1376,16.6502,20.0115,16.6502,29.6265c-0.9984,11.9867-10.7334,17.0567-17.9971,17.2386 c0,0-9.2843,1.7142-15.9287-10.047c-4.3775-8.4424-1.0649-16.8981-1.1062-17.0411c0,0,2.7265-8.9609,11.0338-14.6178"/>
                </g>
                <g id="logo-tripl3inf-infsymwhole" fill="#AAFF00">
                    <path d="M181.1344,2.7712c-5.5992-3.3821-10.871-2.7184-10.871-2.7184 c-0.8213,0.0098-3.762,0.1567-7.1601,1.6753c-3.5486,1.5867-8.2787,5.0176-10.6636,12.3432l-0.0746,0.2702 c-0.462,2.0234-0.6606,4.0428-0.6351,6.0513c0.0086,0.6735,0.2186,1.5514,0.938,2.1106 c0.6074,0.4721,2.2054,0.7071,2.9079,0.5159c0.9525-0.2592,1.9668-0.4731,2.0487-2.4872 c0.0685-1.6857,0.3443-2.8451,0.7739-4.6874c0.7256-2.1744,2.0834-4.5504,3.2883-5.8731 c4.1353-4.5425,9.6975-4.0059,9.7645-4.0036l0.9202,0.0399c0.0872,0.0056,10.0839,0.6097,12.3352,10.8344 c1.1726,5.0129,0.3194,9.6459-1.5163,13.8872c-1.3058,3.0167-3.4956,5.5898-5.6939,7.9344 c-2.2082,1.5478,1.2195,5.2061,3.4707,2.9079c7.9011-8.2205,11.0933-14.3661,9.5821-24.8065 c-2.2311-9.7734-9.4114-14.0195-9.4114-14.0195L181.1344,2.7712z"/>
                    <path d="M171.3199,49.3947c4.9128,3.3606,9.686,9.0755,12.0311,15.3604 c1.6885,4.6433,2.6382,10.3282,1.1219,15.1915c-0.7021,2.347-2.0735,4.9303-3.316,6.3829 c-4.2667,4.9904-10.2246,4.602-10.2969,4.603l-0.9845-0.0117c-0.0924-0.0047-9.9221-0.0384-13.3211-11.34 c-1.3752-5.3056-1.1369-9.561,0.682-14.1527c1.2945-3.2658,3.778-6.064,6.048-8.6426c2.3806-2.6029-0.8244-5.4756-3.2869-2.6776 c-8.1427,8.0615-11.4896,16.4101-9.8837,25.9368c2.7203,10.3654,10.5061,14.6803,10.5061,14.6803 c6.0973,3.4238,11.6786,2.5327,11.6786,2.5327c0.8775-0.0375,4.0143-0.2922,7.5925-2.029 c3.7372-1.8123,8.6755-5.6348,10.9784-13.5402l0.0703-0.2913c2.5131-10.2733-2.4583-19.9172-9.7354-27.9486 c-5.7284-6.3221-14.0736-11.4905-21.4998-14.1771c-1.9543-0.6254-3.2731-0.4451-3.7131,1.0127 c-0.5023,1.6642,3.5567,3.0521,3.5567,3.0521C163.3785,44.8999,166.349,45.9943,171.3199,49.3947z"/>
                </g>
            </g>
            <g id="logo-tripl3inf-desanddev" fill="#666666">
                <path d="M199.4904,82.5675c1.0942-0.1651,2.3944-0.2884,3.8188-0.2884c2.5796,0,4.4168,0.598,5.6348,1.7335 c1.2382,1.135,1.961,2.7452,1.961,4.9946c0,2.2705-0.7021,4.1278-2.0023,5.4073c-1.3001,1.3001-3.4468,2.0023-6.1507,2.0023 c-1.28,0-2.3531-0.0619-3.2611-0.1651V82.5675L199.4904,82.5675L199.4904,82.5675z M201.2859,94.8695 c0.454,0.0825,1.1144,0.1032,1.8165,0.1032c3.8394,0,5.9237-2.1462,5.9237-5.9031c0.0206-3.2817-1.8372-5.3661-5.6348-5.3661 c-0.9287,0-1.6308,0.0825-2.1054,0.1857L201.2859,94.8695L201.2859,94.8695z"/>
                <path d="M214.3073,91.6285c0.0413,2.4558,1.6102,3.4675,3.4262,3.4675c1.3001,0,2.0848-0.2265,2.7658-0.5159 l0.3096,1.3001c-0.6397,0.2889-1.734,0.6191-3.323,0.6191c-3.0754,0-4.9125-2.0229-4.9125-5.0363s1.7748-5.3867,4.685-5.3867 c3.2611,0,4.1279,2.869,4.1279,4.7057c0,0.3715-0.0413,0.6604-0.0619,0.8466H214.3073z M219.6325,90.3284 c0.0206-1.1561-0.4746-2.9515-2.5182-2.9515c-1.8372,0-2.642,1.6922-2.7865,2.9515H219.6325z"/>
                <path d="M223.4288,94.4356c0.5366,0.3508,1.4859,0.7228,2.3944,0.7228c1.3208,0,1.9403-0.6604,1.9403-1.4863 c0-0.8672-0.5164-1.3414-1.8578-1.8372c-1.7959-0.6393-2.642-1.6303-2.642-2.8272c0-1.6102,1.3001-2.9309,3.4473-2.9309 c1.0112,0,1.8991,0.2889,2.4558,0.6191l-0.454,1.3208c-0.3921-0.2477-1.1149-0.5778-2.0435-0.5778 c-1.0731,0-1.6716,0.6191-1.6716,1.362c0,0.8259,0.5985,1.1974,1.8991,1.6922c1.734,0.6604,2.6214,1.5276,2.6214,3.0139 c0,1.7541-1.362,2.9928-3.7357,2.9928c-1.0942,0-2.1054-0.2683-2.8071-0.681L223.4288,94.4356z"/>
                <path d="M233.9128,83.4962c0.0206,0.6191-0.4338,1.1149-1.1561,1.1149c-0.6397,0-1.0938-0.4958-1.0938-1.1149 c0-0.6397,0.4746-1.135,1.135-1.135C233.479,82.3616,233.9128,82.8564,233.9128,83.4962z M231.8899,96.2934v-9.9897h1.8161 v9.9897H231.8899z"/>
                <path d="M245.3672,86.3037c-0.0413,0.7223-0.083,1.5271-0.083,2.7452v5.7999c0,2.2912-0.454,3.6945-1.424,4.5612 c-0.9699,0.9085-2.3737,1.1974-3.6326,1.1974c-1.1974,0-2.5182-0.2889-3.323-0.8255l0.454-1.3831 c0.6604,0.4132,1.6922,0.7847,2.9309,0.7847c1.8578,0,3.2198-0.9699,3.2198-3.4886v-1.1144h-0.0413 c-0.5572,0.9287-1.6308,1.6716-3.1785,1.6716c-2.4764,0-4.2517-2.105-4.2517-4.8712c0-3.3849,2.2086-5.3046,4.4998-5.3046 c1.7335,0,2.6833,0.9085,3.1167,1.7335h0.0417l0.0826-1.5065h1.5886V86.3037z M243.4888,90.2458 c0-0.3096-0.0206-0.5778-0.1032-0.8259c-0.3302-1.0525-1.218-1.9197-2.5388-1.9197c-1.7335,0-2.9722,1.4657-2.9722,3.7775 c0,1.9609,0.9906,3.5913,2.9516,3.5913c1.1144,0,2.1256-0.7017,2.5182-1.8578c0.1032-0.3096,0.1445-0.6604,0.1445-0.9699V90.2458 z"/>
                <path d="M248.2137,89.0072c0-1.0319-0.0206-1.8784-0.083-2.7039h1.6101l0.1032,1.6514h0.0417 c0.4953-0.9493,1.6514-1.8784,3.3024-1.8784c1.3827,0,3.5289,0.8259,3.5289,4.2517v5.965h-1.8161v-5.7582 c0-1.6102-0.5985-2.9515-2.3118-2.9515c-1.1974,0-2.1261,0.8461-2.4356,1.8573c-0.0826,0.227-0.1238,0.537-0.1238,0.8466v6.0062 h-1.8161L248.2137,89.0072L248.2137,89.0072z"/>
                <path d="M274.0333,96.2934c-0.3921-0.3921-0.7636-0.7842-1.3001-1.362c-1.197,1.1144-2.5388,1.5895-4.0659,1.5895 c-2.7039,0-4.2723-1.8165-4.2723-3.9008c0-1.8991,1.135-3.1992,2.7245-4.0659v-0.0624c-0.7223-0.908-1.1557-1.9192-1.1557-2.9098 c0-1.6927,1.2176-3.4267,3.5289-3.4267c1.734,0,3.0758,1.1561,3.0758,2.9515c0,1.4657-0.8466,2.6214-3.0552,3.7151v0.0624 c1.1768,1.362,2.4975,2.8892,3.3854,3.8798c0.6398-0.9699,1.0732-2.3118,1.3414-4.0659h1.6514 c-0.3715,2.188-0.9699,3.9215-2.0023,5.1395c0.7429,0.7842,1.4652,1.5684,2.2912,2.4558L274.0333,96.2934L274.0333,96.2934z M271.8458,93.899c-0.8259-0.9085-2.3742-2.6007-3.9215-4.3755c-0.7434,0.4746-1.7959,1.362-1.7959,2.8272 c0,1.5895,1.1768,2.8071,2.8484,2.8071C270.1732,95.1584,271.1849,94.6213,271.8458,93.899z M267.6143,85.4159 c0,0.9906,0.454,1.7541,1.0525,2.4975c1.4033-0.8053,2.3118-1.5482,2.3118-2.725c0-0.8461-0.4751-1.7954-1.6101-1.7954 C268.2128,83.3934,267.6143,84.3428,267.6143,85.4159z"/>
                <path d="M283.4029,82.5675c1.0937-0.1651,2.3939-0.2884,3.8183-0.2884c2.5801,0,4.4173,0.598,5.6348,1.7335 c1.2387,1.135,1.961,2.7452,1.961,4.9946c0,2.2705-0.7016,4.1278-2.0022,5.4073c-1.3001,1.3001-3.4468,2.0023-6.1503,2.0023 c-1.2799,0-2.3531-0.0619-3.2611-0.1651V82.5675L283.4029,82.5675L283.4029,82.5675z M285.1983,94.8695 c0.4545,0.0825,1.1149,0.1032,1.8165,0.1032c3.8389,0,5.9237-2.1462,5.9237-5.9031c0.0206-3.2817-1.8372-5.3661-5.6348-5.3661 c-0.9286,0-1.6308,0.0825-2.1054,0.1857V94.8695z"/>
                <path d="M298.2202,91.6285c0.0413,2.4558,1.6101,3.4675,3.4262,3.4675c1.3001,0,2.0843-0.2265,2.7654-0.5159 l0.3095,1.3001c-0.6398,0.2889-1.7335,0.6191-3.323,0.6191c-3.0754,0-4.9125-2.0229-4.9125-5.0363s1.7752-5.3867,4.6855-5.3867 c3.2607,0,4.1279,2.869,4.1279,4.7057c0,0.3715-0.0413,0.6604-0.0619,0.8466H298.2202z M303.5455,90.3284 c0.0206-1.1561-0.4751-2.9515-2.5182-2.9515c-1.8367,0-2.642,1.6922-2.786,2.9515H303.5455z"/>
                <path d="M308.291,86.3037l1.961,5.6142c0.3302,0.9085,0.598,1.7335,0.8048,2.559h0.0619 c0.227-0.8255,0.5164-1.6509,0.8466-2.559l1.9403-5.6142h1.8986l-3.921,9.9897h-1.734l-3.7976-9.9897H308.291z"/>
                <path d="M318.3614,91.6285c0.0413,2.4558,1.6102,3.4675,3.4262,3.4675c1.3001,0,2.0843-0.2265,2.7654-0.5159 l0.3095,1.3001c-0.6398,0.2889-1.7335,0.6191-3.323,0.6191c-3.0754,0-4.9125-2.0229-4.9125-5.0363s1.7752-5.3867,4.6855-5.3867 c3.2607,0,4.1279,2.869,4.1279,4.7057c0,0.3715-0.0413,0.6604-0.0619,0.8466H318.3614z M323.6866,90.3284 c0.0206-1.1561-0.4751-2.9515-2.5182-2.9515c-1.8367,0-2.642,1.6922-2.786,2.9515H323.6866z"/>
                <path d="M327.7305,81.6393h1.8161v14.6541h-1.8161V81.6393z"/>
                <path d="M341.6815,91.2158c0,3.6945-2.5594,5.3046-4.974,5.3046c-2.7039,0-4.7887-1.9816-4.7887-5.1395 c0-3.3436,2.188-5.3046,4.9538-5.3046C339.7412,86.0762,341.6815,88.161,341.6815,91.2158z M333.756,91.319 c0,2.188,1.2593,3.8394,3.0341,3.8394c1.7335,0,3.0341-1.6308,3.0341-3.8802c0-1.6922-0.8461-3.8394-2.9928-3.8394 C334.6847,87.4388,333.756,89.4199,333.756,91.319z"/>
                <path d="M344.0126,89.5648c0-1.28-0.0417-2.3118-0.083-3.2611h1.6308l0.083,1.7129h0.0413 c0.7429-1.218,1.9192-1.9403,3.5495-1.9403c2.415,0,4.231,2.043,4.231,5.0772c0,3.5913-2.1875,5.3665-4.5411,5.3665 c-1.3207,0-2.4764-0.5778-3.0753-1.5689h-0.0413v5.428h-1.7954V89.5648L344.0126,89.5648L344.0126,89.5648z M345.808,92.2275 c0,0.2678,0.0413,0.5159,0.0826,0.7429c0.3302,1.2593,1.4244,2.1256,2.7245,2.1256c1.9197,0,3.0345-1.5684,3.0345-3.8596 c0-2.0023-1.0529-3.7156-2.9722-3.7156c-1.2387,0-2.3943,0.8879-2.7456,2.2499c-0.0619,0.227-0.1238,0.4958-0.1238,0.7429 L345.808,92.2275L345.808,92.2275L345.808,92.2275z"/>
                <path d="M355.7958,89.0072c0-1.0319-0.0211-1.8784-0.083-2.7039h1.5895l0.0826,1.6102h0.0624 c0.5572-0.9493,1.4859-1.8372,3.1368-1.8372c1.362,0,2.3939,0.8259,2.8277,2.0023h0.0413 c0.3095-0.5572,0.7016-0.9906,1.1144-1.3001c0.5984-0.454,1.2593-0.7017,2.2086-0.7017c1.3208,0,3.2817,0.8672,3.2817,4.3342 v5.8825h-1.7752V90.638c0-1.9197-0.7017-3.0754-2.1669-3.0754c-1.0319,0-1.8372,0.7636-2.1467,1.6514 c-0.0826,0.2472-0.1444,0.5774-0.1444,0.908v6.1714h-1.7748v-5.9856c0-1.5895-0.7021-2.7452-2.0848-2.7452 c-1.135,0-1.961,0.908-2.2499,1.8161c-0.1032,0.2683-0.1445,0.5778-0.1445,0.8879v6.0269h-1.7747V89.0072z"/>
                <path d="M374.0594,91.6285c0.0413,2.4558,1.6101,3.4675,3.4262,3.4675c1.3001,0,2.0843-0.2265,2.7654-0.5159 l0.3095,1.3001c-0.6398,0.2889-1.7335,0.6191-3.323,0.6191c-3.0754,0-4.9125-2.0229-4.9125-5.0363s1.7752-5.3867,4.6855-5.3867 c3.2607,0,4.1279,2.869,4.1279,4.7057c0,0.3715-0.0413,0.6604-0.0619,0.8466H374.0594z M379.3847,90.3284 c0.0207-1.1561-0.4751-2.9515-2.5182-2.9515c-1.8367,0-2.642,1.6922-2.786,2.9515H379.3847z"/>
                <path d="M383.4286,89.0072c0-1.0319-0.0211-1.8784-0.083-2.7039h1.6101l0.1036,1.6514h0.0413 c0.4953-0.9493,1.6514-1.8784,3.3024-1.8784c1.3827,0,3.5289,0.8259,3.5289,4.2517v5.965h-1.8161v-5.7582 c0-1.6102-0.5984-2.9515-2.3118-2.9515c-1.1974,0-2.1261,0.8461-2.4356,1.8573c-0.0826,0.227-0.1238,0.537-0.1238,0.8466v6.0062 h-1.816V89.0072z"/>
                <path d="M397.0283,83.4347v2.869h2.6007v1.3827h-2.6007v5.3867c0,1.2387,0.3508,1.9403,1.362,1.9403 c0.4751,0,0.826-0.0619,1.0525-0.1238l0.083,1.362c-0.3508,0.1445-0.9085,0.2477-1.6101,0.2477 c-0.8466,0-1.5276-0.2683-1.961-0.7641c-0.5164-0.5366-0.7017-1.424-0.7017-2.6007v-5.4486h-1.5482v-1.3827h1.5482v-2.3944 L397.0283,83.4347z"/>
            </g>
        </g>
    </g>
</svg>
