<svg xmlns="http://www.w3.org/2000/svg" id="Layer_2" width="1920px" height="1280px" x="0px" y="0px" version="1.1" viewBox="0 0 1920 1280" enable-background="new 0 0 1920 1280" xml:space="preserve">
    <g id="logo_x5F_tripl3inf.svg">
        <g id="main">
            <g id="infSym">
                <g id="infSymPaths" fill="none">
                    <path id="infSymPaths_1" d="M748,613.001c0,0,63-44.0699,53-114.036c0,0,1.076-54.964-69.31-57.964 c-79.31-2-74.69,100.956-74.69,101"/>
                    <path id="infSymPaths_2" d="M653.176,579.001c0,0,23.4,11.4,80.8,54c63.822,47.4,70,84,70,125 c0.072,48-43.412,72.7321-74.386,73.5081c0,0-44.196,3.946-68.74-41.5081c-23.21-47.704-7.598-73.778-7.774-74.3879 c0,0,13.4-40.49,48.824-64.6121"/>
                </g>
                <g id="infSymWhole">
                    <path d="M773.548,440.021c-23.876-14.422-46.356-11.592-46.356-11.592c-3.502,0.042-16.042,0.668-30.532,7.144 c-15.132,6.766-35.302,21.396-45.472,52.634l-0.318,1.152c-1.97,8.628-2.86,17.24-2.708,25.804c0.022,2.872,0.944,6.6,4,9 c2.6,2,9.4,3,12.4,2.2c4.056-1.126,7.998-2.042,8.736-10.606c-0.034-7.194,1.468-12.132,3.3-19.988 c3.094-9.272,8.884-19.404,14.022-25.044c17.634-19.37,41.352-17.082,41.638-17.072l3.924,0.17c0.372,0.024,43,2.6,52.6,46.2 c5,21.376,1.362,41.132-6.466,59.218c-5.568,12.864-14.906,23.8361-24.28,33.834c-9.416,6.6,5.2,22.2,14.8,12.4 c33.692-35.054,47.304-61.26,40.86-105.78c-9.514-41.676-40.132-59.782-40.132-59.782L773.548,440.021z"/>
                    <path d="M729.784,639.099c21.268,17,41.2,38.6,51.2,65.4c7.2,19.7999,11.6,40.4,6.8,64.614 c-2.994,10.008-8.842,21.024-14.14,27.218c-18.194,21.28-43.6,19.624-43.908,19.6281l-4.198-0.05 c-0.394-0.02-42.31-0.1639-56.804-48.356c-5.864-22.624-4.848-40.77,2.908-60.35c5.52-13.926,16.11-25.858,25.79-36.854 c7.826-12.114-5.788-25.728-14.016-11.418c-34.722,34.376-48.994,69.976-42.146,110.6c11.6,44.2,44.8,62.6,44.8,62.6 c26,14.6,49.8,10.8,49.8,10.8c3.742-0.16,17.118-1.246,32.376-8.652c15.936-7.728,36.994-24.028,46.814-57.738l0.3-1.242 c19.152-78.292-63.634-148.012-122.302-185.226c-5.756-3.65-14.946-3.146-16.906,4.584c-2.14,8.4,8.2,12.4,13.4,16 c12,8,29.2,19.8,40.2,28.5439L729.784,639.099z"/>
                </g>
            </g>
            <g id="letters" stroke="#AAFF00">
                <path d="M86.602,747.329c-15.528,0-28.758-5.126-37.256-14.438C40.372,722.787,36,706.277,36,682.437V574.769 c0-1.104-0.896-2-2-2H5.418v-23.396h28.544c1.104,0,2-0.896,2-2v-35.218l31.076-9.392v44.608c0,1.104,0.896,2,2,2h49.376v23.322 H69.04c-1.104,0-2,0.896-2,2v106.446c0,36.224,16.52,40.4139,28.948,40.4139c8.16,0,13.746-0.532,18.95-1.8519l1.394,23.322 C110.828,744.821,100.63,747.329,86.602,747.329z"/>
                <path d="M156.004,742.757V608.953c-0.004-24.692-0.47-43.198-1.504-59.578h27.35l1.554,37.234 c0.044,1.072,0.926,1.916,1.998,1.916h1.218c0.858,0,1.62-0.546,1.894-1.358c8.612-25.434,29.478-41.868,53.16-41.868 c2.852,0,5.202,0.258,7.79,0.582v29.694c-3.108-0.428-6.348-0.428-10.234-0.428c-25.198,0-44.858,18.574-50.086,47.318 c-0.798,4.768-1.254,10.984-1.254,17.082v103.212h-31.886L156.004,742.757L156.004,742.757z"/>
                <path d="M284.878,742.757V549.373h31.886v193.386h-31.886V742.757z M300.01,511.939 c-11.364,0-19.612-8.42-19.612-20.022c0-11.838,8.592-20.43,20.43-20.43c11.544,0,19.922,8.592,19.922,20.43 c0,0.208,0.032,0.408,0.09,0.596C320.566,504.159,312.264,511.939,300.01,511.939z"/>
                <path d="M355.888,823.551l0.002-211.7061c0-0.17-0.022-0.3359-0.062-0.498 c-0.01-23.608-0.724-42.872-1.542-61.976h27.834l1.924,31.97c0.064,1.056,0.938,1.88,1.996,1.88h0.818 c0.706,0,1.36-0.372,1.72-0.98c14.338-24.168,38-36.944,68.424-36.944c22.882,0,43.672,9.572,58.538,26.954 c15.172,17.7401,23.528,42.9561,23.528,71.004c0,71.864-44.258,104.032-88.122,104.032c-25.616,0-47.692-11.226-59.052-30.032 c-0.362-0.598-1.012-0.964-1.712-0.964h-0.818c-1.104,0-2,0.894-2,2V823.549h-31.476L355.888,823.551L355.888,823.551z M387.376,663.917c-0.046,0.162-0.07,0.33-0.07,0.502c0,6.122,0.542,10.956,1.702,15.208 c6.712,26.012,29.15,43.506,55.828,43.506c38.212,0,61.95-29.988,61.95-78.262c0-44.162-24.97-75.004-60.724-75.004 c-26.574,0-49.678,18.74-56.184,45.5699c-1.066,3.916-2.5,9.7681-2.5,14.748v33.7319h-0.002V663.917z"/>
                <path d="M566.106,457.213h31.886v285.544h-31.886V457.213z"/>
                <path d="M852.02,742.757V549.373h31.886v193.386H852.02V742.757z M867.15,511.939 c-11.364,0-19.612-8.42-19.612-20.022c0-11.838,8.592-20.43,20.432-20.43c11.544,0,19.922,8.592,19.922,20.43 c0,0.208,0.032,0.408,0.09,0.596C887.708,504.159,879.408,511.939,867.15,511.939z"/>
                <path d="M1055.8361,742.765V630.973c0-38.896-16.9301-60.316-47.672-60.316 c-25.964,0-43.836,19.126-50.028,38.082c-1.632,4.486-2.544,10.666-2.544,17.34v116.672h-31.886c0,0,0.002-141.916,0.002-141.952 c0-0.15-0.016-0.296-0.048-0.438c-0.006-20.9901-0.452-36.43-1.482-50.988h27.772l1.926,30.752 c0.066,1.054,0.94,1.876,1.996,1.876h0.82c0.738,0,1.416-0.408,1.764-1.058c8.768-16.444,30.654-35.644,63.48-35.644 c32.77,0,67.786,21.544,67.786,82.01v115.456h-31.886V742.765z"/>
                <path d="M1250.7841,742.757V574.699c0-1.104-0.894-2-2-2h-78.71c-1.106,0-2,0.896-2,2v168.058h-31.4V574.693 c0-1.104-0.894-2-2-2h-25.314v-23.32h25.314c1.106,0,2-0.896,2-2v-11.01c0-52.374,31.42-83.642,84.05-83.642 c17.074,0,37.536,5.122,47.662,11.808l-8.7841,23.542c-10.708-6.54-25.656-10.394-40.588-10.394 c-33.802,0-50.942,20.158-50.942,59.912v9.784c0,1.104,0.894,2,2,2h112.592v193.386h-31.88V742.757z"/>
                <path d="M1454.684,742.765V630.973c0-38.896-16.934-60.316-47.6801-60.316 c-25.962,0-43.828,19.126-50.016,38.082c-1.6281,4.464-2.54,10.646-2.54,17.34v116.672h-31.89l0.006-141.952 c0-0.152-0.0179-0.302-0.05-0.448c-0.006-20.958-0.458-36.392-1.494-50.976h27.788l1.918,30.752 c0.066,1.054,0.9399,1.876,1.996,1.876h0.8199c0.738,0,1.416-0.408,1.764-1.058c8.774-16.444,30.662-35.644,63.478-35.644 c32.77,0,67.788,21.544,67.788,82.01v115.456h-31.8877V742.765z"/>
                <path d="M1525.0601,742.757V549.373h31.884v193.386h-31.884V742.757z M1540.194,511.939 c-11.37,0-19.6219-8.42-19.6219-20.022c0-11.838,8.59-20.43,20.426-20.43c11.542,0,19.92,8.592,19.92,20.43 c0,0.212,0.0341,0.416,0.094,0.608C1560.7321,504.165,1552.438,511.939,1540.194,511.939z"/>
                <path d="M1672.5,747.329c-15.536,0-28.7679-5.126-37.26-14.438c-8.978-10.1-13.35-26.61-13.35-50.454V574.769 c0-1.104-0.894-2-2-2h-28.582v-23.316h28.582c1.106,0,2-0.896,2-2v-35.22l31.03-9.378v44.518c0,1.104,0.894,2,2,2h49.3781v23.322 H1654.92c-1.106,0-2,0.896-2,2v106.446c0,36.224,16.524,40.414,28.952,40.414c8.156,0,13.744-0.532,18.9561-1.854l1.394,23.324 C1696.72,744.821,1686.528,747.329,1672.5,747.329z"/>
                <path d="M1744.55,805.991c10.5179-3.632,21.4301-9.866,30.212-17.288c5.558-4.402,19.78-17.26,30.7-40.656 c1.844-4.138,3.042-7.01,3.042-9.404c0-2.454-0.936-5.6-3.036-10.208l-71.458-179.06l34.782-0.002l42.344,115.334 c4.696,12.552,9.684,27.954,13.02,40.204c0.236,0.872,1.028,1.474,1.9301,1.474h0.818c0.876,0,1.652-0.572,1.91-1.41 c1.234-3.988,2.516-8.348,3.8621-12.92c2.59-8.804,5.526-18.786,8.752-28.208l38.698-114.476h33.582l-52.7939,137.982 c-23.5081,61.938-41.17,99.848-67.152,122.788c-15.342,12.8979-31.0601,19.7319-41.324,22.012L1744.55,805.991z"/>
            </g>
            <g id="desanddev">
                <path d="M851.822,780.289c4.666-0.704,10.21-1.23,16.284-1.23c11,0,18.834,2.55,24.028,7.392 c5.28,4.84,8.362,11.706,8.362,21.298c0,9.682-2.994,17.6019-8.538,23.058c-5.544,5.544-14.698,8.538-26.228,8.538 c-5.458,0-10.034-0.264-13.906-0.704v-58.352L851.822,780.289L851.822,780.289z M859.478,832.747 c1.936,0.352,4.752,0.44,7.746,0.44c16.372,0,25.26-9.152,25.26-25.172c0.088-13.994-7.834-22.882-24.028-22.882 c-3.96,0-6.954,0.3519-8.978,0.792L859.478,832.747L859.478,832.747z"/>
                <path d="M915.004,818.927c0.176,10.472,6.866,14.786,14.61,14.786c5.544,0,8.89-0.966,11.794-2.2l1.32,5.544 c-2.728,1.232-7.394,2.64-14.17,2.64c-13.114,0-20.948-8.626-20.948-21.476s7.568-22.97,19.978-22.97 c13.906,0,17.602,12.234,17.602,20.066c0,1.584-0.176,2.816-0.264,3.61H915.004z M937.712,813.383 c0.088-4.93-2.024-12.586-10.738-12.586c-7.834,0-11.266,7.216-11.882,12.586H937.712z"/>
                <path d="M953.9,830.897c2.288,1.496,6.336,3.082,10.21,3.082c5.632,0,8.274-2.816,8.274-6.338c0-3.698-2.202-5.72-7.922-7.834 c-7.658-2.7261-11.266-6.952-11.266-12.056c0-6.866,5.544-12.498,14.7-12.498c4.312,0,8.098,1.232,10.472,2.64l-1.936,5.632 c-1.672-1.056-4.754-2.464-8.714-2.464c-4.576,0-7.128,2.64-7.128,5.808c0,3.522,2.552,5.106,8.098,7.216 c7.394,2.816,11.178,6.514,11.178,12.852c0,7.48-5.808,12.762-15.93,12.762c-4.666,0-8.978-1.144-11.97-2.9039L953.9,830.897z"/>
                <path d="M998.606,784.249c0.088,2.64-1.85,4.754-4.93,4.754c-2.728,0-4.664-2.114-4.664-4.754c0-2.728,2.024-4.84,4.84-4.84 C996.756,779.411,998.606,781.521,998.606,784.249z M989.98,838.819v-42.598h7.744v42.598H989.98z"/>
                <path d="M1047.45,796.221c-0.176,3.08-0.354,6.512-0.354,11.706v24.732c0,9.77-1.936,15.754-6.072,19.45 c-4.136,3.874-10.1219,5.106-15.49,5.106c-5.106,0-10.738-1.2319-14.17-3.52l1.936-5.898c2.816,1.762,7.216,3.346,12.498,3.346 c7.922,0,13.73-4.136,13.73-14.876v-4.752h-0.176c-2.376,3.96-6.954,7.1279-13.554,7.1279c-10.56,0-18.13-8.976-18.13-20.772 c0-14.434,9.418-22.62,19.188-22.62c7.392,0,11.442,3.874,13.29,7.392h0.178l0.3521-6.424h6.7739V796.221z M1039.4399,813.031 c0-1.32-0.088-2.464-0.4399-3.522c-1.408-4.488-5.194-8.186-10.826-8.186c-7.392,0-12.674,6.25-12.674,16.108 c0,8.3619,4.224,15.314,12.586,15.314c4.752,0,9.064-2.992,10.738-7.922c0.4399-1.32,0.616-2.816,0.616-4.136V813.031z"/>
                <path d="M1059.588,807.749c0-4.4-0.088-8.01-0.354-11.53h6.866l0.4399,7.042h0.178c2.1121-4.048,7.042-8.01,14.082-8.01 c5.896,0,15.048,3.522,15.048,18.13v25.436h-7.744v-24.554c0-6.866-2.552-12.586-9.858-12.586c-5.106,0-9.066,3.608-10.386,7.92 c-0.3521,0.968-0.528,2.29-0.528,3.61v25.6119h-7.744V807.749H1059.588z"/>
                <path d="M1169.688,838.819c-1.672-1.672-3.256-3.344-5.5439-5.808c-5.104,4.752-10.826,6.778-17.338,6.778 c-11.53,0-18.218-7.746-18.218-16.634c0-8.098,4.84-13.642,11.618-17.338v-0.266c-3.08-3.8721-4.928-8.184-4.928-12.408 c0-7.218,5.192-14.612,15.048-14.612c7.394,0,13.116,4.93,13.116,12.586c0,6.25-3.61,11.178-13.028,15.842v0.266 c5.0179,5.808,10.65,12.3201,14.436,16.5441c2.728-4.136,4.576-9.858,5.72-17.338h7.042c-1.584,9.33-4.136,16.722-8.538,21.916 c3.168,3.344,6.248,6.688,9.77,10.472h-9.1561V838.819z M1160.36,828.609c-3.522-3.874-10.124-11.09-16.722-18.658 c-3.17,2.0239-7.658,5.808-7.658,12.056c0,6.778,5.0179,11.97,12.146,11.97C1153.228,833.979,1157.542,831.689,1160.36,828.609z M1142.316,792.435c0,4.224,1.936,7.48,4.488,10.65c5.984-3.434,9.858-6.6019,9.858-11.62c0-3.608-2.026-7.656-6.866-7.656 C1144.868,783.811,1142.316,787.859,1142.316,792.435z"/>
                <path d="M1209.642,780.289c4.6639-0.704,10.208-1.23,16.282-1.23c11.002,0,18.8361,2.55,24.028,7.392 c5.282,4.84,8.3621,11.706,8.3621,21.298c0,9.682-2.9919,17.6019-8.538,23.058c-5.5439,5.544-14.698,8.538-26.226,8.538 c-5.458,0-10.0341-0.264-13.906-0.704v-58.352L1209.642,780.289L1209.642,780.289z M1217.298,832.747 c1.938,0.352,4.754,0.44,7.746,0.44c16.37,0,25.26-9.152,25.26-25.172c0.088-13.994-7.834-22.882-24.028-22.882 c-3.96,0-6.954,0.3519-8.978,0.792V832.747z"/>
                <path d="M1272.826,818.927c0.176,10.472,6.866,14.786,14.61,14.786c5.5439,0,8.8879-0.966,11.792-2.2l1.3199,5.544 c-2.728,1.232-7.392,2.64-14.17,2.64c-13.114,0-20.948-8.626-20.948-21.476s7.5699-22.97,19.98-22.97 c13.9041,0,17.6021,12.234,17.6021,20.066c0,1.584-0.176,2.816-0.264,3.61H1272.826z M1295.5341,813.383 c0.088-4.93-2.026-12.586-10.738-12.586c-7.832,0-11.266,7.216-11.88,12.586H1295.5341z"/>
                <path d="M1315.77,796.221l8.3621,23.94c1.408,3.874,2.55,7.392,3.432,10.912h0.264c0.968-3.52,2.202-7.04,3.61-10.912 l8.274-23.94h8.0959l-16.72,42.598h-7.394l-16.194-42.598H1315.77z"/>
                <path d="M1358.712,818.927c0.176,10.472,6.866,14.786,14.61,14.786c5.5439,0,8.8879-0.966,11.792-2.2l1.3199,5.544 c-2.728,1.232-7.392,2.64-14.17,2.64c-13.114,0-20.948-8.626-20.948-21.476s7.5699-22.97,19.98-22.97 c13.9041,0,17.6021,12.234,17.6021,20.066c0,1.584-0.176,2.816-0.264,3.61H1358.712z M1381.42,813.383 c0.088-4.93-2.026-12.586-10.738-12.586c-7.832,0-11.266,7.216-11.88,12.586H1381.42z"/>
                <path d="M1398.6639,776.331h7.744v62.488h-7.744V776.331z"/>
                <path d="M1458.1541,817.167c0,15.754-10.9139,22.62-21.21,22.62c-11.53,0-20.42-8.45-20.42-21.916 c0-14.258,9.33-22.62,21.124-22.62C1449.88,795.251,1458.1541,804.141,1458.1541,817.167z M1424.358,817.607 c0,9.33,5.37,16.372,12.938,16.372c7.392,0,12.938-6.954,12.938-16.546c0-7.2159-3.608-16.3719-12.762-16.3719 C1428.318,801.061,1424.358,809.509,1424.358,817.607z"/>
                <path d="M1468.094,810.127c0-5.458-0.178-9.858-0.354-13.906h6.954l0.354,7.304h0.176c3.168-5.194,8.184-8.274,15.136-8.274 c10.298,0,18.042,8.712,18.042,21.65c0,15.314-9.328,22.884-19.364,22.884c-5.632,0-10.5601-2.464-13.114-6.6901h-0.176v23.146 h-7.656v-46.114h0.0021V810.127z M1475.75,821.481c0,1.142,0.176,2.2001,0.3521,3.168c1.408,5.37,6.074,9.064,11.618,9.064 c8.186,0,12.9399-6.688,12.9399-16.458c0-8.538-4.49-15.844-12.674-15.844c-5.282,0-10.21,3.786-11.708,9.594 c-0.264,0.968-0.528,2.114-0.528,3.168v7.308L1475.75,821.481L1475.75,821.481z"/>
                <path d="M1518.34,807.749c0-4.4-0.09-8.01-0.354-11.53h6.778l0.3521,6.866h0.266c2.376-4.048,6.3361-7.834,13.376-7.834 c5.808,0,10.208,3.522,12.058,8.538h0.176c1.3199-2.376,2.9919-4.224,4.752-5.5439c2.552-1.936,5.37-2.9921,9.418-2.9921 c5.632,0,13.994,3.698,13.994,18.4821v25.084h-7.5699v-24.116c0-8.186-2.9919-13.114-9.24-13.114 c-4.4,0-7.834,3.256-9.1541,7.042c-0.3521,1.054-0.616,2.462-0.616,3.8719v26.316h-7.568v-25.524 c0-6.778-2.994-11.706-8.89-11.706c-4.84,0-8.3621,3.872-9.594,7.744c-0.4399,1.144-0.616,2.464-0.616,3.786v25.7h-7.568V807.749 z"/>
                <path d="M1596.22,818.927c0.176,10.472,6.866,14.786,14.61,14.786c5.5439,0,8.8879-0.966,11.792-2.2l1.3199,5.544 c-2.728,1.232-7.392,2.64-14.17,2.64c-13.114,0-20.948-8.626-20.948-21.476s7.5699-22.97,19.98-22.97 c13.9041,0,17.6021,12.234,17.6021,20.066c0,1.584-0.176,2.816-0.264,3.61H1596.22z M1618.928,813.383 c0.088-4.93-2.026-12.586-10.738-12.586c-7.832,0-11.266,7.216-11.88,12.586H1618.928z"/>
                <path d="M1636.172,807.749c0-4.4-0.09-8.01-0.354-11.53h6.866l0.442,7.042h0.176c2.1121-4.048,7.042-8.01,14.082-8.01 c5.896,0,15.048,3.522,15.048,18.13v25.436h-7.744v-24.554c0-6.866-2.552-12.586-9.858-12.586c-5.106,0-9.066,3.608-10.386,7.92 c-0.3521,0.968-0.528,2.29-0.528,3.61v25.6119h-7.744V807.749z"/>
                <path d="M1694.1639,783.987v12.234h11.09v5.896h-11.09v22.97c0,5.282,1.496,8.2739,5.808,8.2739c2.026,0,3.522-0.264,4.488-0.528 l0.354,5.808c-1.496,0.616-3.874,1.056-6.866,1.056c-3.61,0-6.514-1.144-8.3621-3.2581c-2.202-2.288-2.9919-6.072-2.9919-11.09 v-23.234h-6.6021v-5.896h6.6021v-10.21L1694.1639,783.987z"/>
            </g>
        </g>
        <g id="defs_1_">
            <path id="infSym1" d="M773.548,440.021c-23.876-14.422-46.356-11.592-46.356-11.592c-3.502,0.042-16.042,0.668-30.532,7.144 c-15.132,6.766-35.302,21.396-45.472,52.634l-0.318,1.152c-1.97,8.628-2.86,17.24-2.708,25.804c0.022,2.872,0.944,6.6,4,9 c2.6,2,9.4,3,12.4,2.2c4.056-1.126,7.998-2.042,8.736-10.606c-0.034-7.194,1.468-12.132,3.3-19.988 c3.094-9.272,8.884-19.404,14.022-25.044c17.634-19.37,41.352-17.082,41.638-17.072l3.924,0.17c0.372,0.024,43,2.6,52.6,46.2 c5,21.376,1.362,41.132-6.466,59.218c-5.568,12.864-14.906,23.8361-24.28,33.834c-9.416,6.6,5.2,22.2,14.8,12.4 c33.692-35.054,47.304-61.26,40.86-105.78c-9.514-41.676-40.132-59.782-40.132-59.782L773.548,440.021z"/>
            <path id="infSym2" d="M729.784,639.099c21.268,17,41.2,38.6,51.2,65.4c7.2,19.7999,11.6,40.4,6.8,64.614 c-2.994,10.008-8.842,21.024-14.14,27.218c-18.194,21.28-43.6,19.624-43.908,19.6281l-4.198-0.05 c-0.394-0.02-42.31-0.1639-56.804-48.356c-5.864-22.624-4.848-40.77,2.908-60.35c5.52-13.926,16.11-25.858,25.79-36.854 c7.826-12.114-5.788-25.728-14.016-11.418c-34.722,34.376-48.994,69.976-42.146,110.6c11.6,44.2,44.8,62.6,44.8,62.6 c26,14.6,49.8,10.8,49.8,10.8c3.742-0.16,17.118-1.246,32.376-8.652c15.936-7.728,36.994-24.028,46.814-57.738l0.3-1.242 c19.152-78.292-63.634-148.012-122.302-185.226c-5.756-3.65-14.946-3.146-16.906,4.584c-2.14,8.4,8.2,12.4,13.4,16 c12,8,29.2,19.8,40.2,28.5439L729.784,639.099z"/>
        </g>
    </g>
</svg>
