<svg xmlns="http://www.w3.org/2000/svg" id="Layer_1" width="960px" height="234px" x="0px" y="0px" version="1.1" viewBox="0 0 960 234" enable-background="new 0 0 960 234" xml:space="preserve">
    <g>
        <path fill="#FFFFFF" d="M363.77,117.683c10.693,8.548,20.715,19.408,25.742,32.882c3.62,9.956,5.833,20.312,3.419,32.486 c-1.505,5.034-4.446,10.57-7.109,13.686c-9.147,10.699-21.921,9.866-22.075,9.87l-2.111-0.025 c-0.198-0.013-21.273-0.086-28.561-24.315c-2.949-11.376-2.437-20.495,1.462-30.343c2.776-7.002,8.101-13,12.967-18.529 c3.936-6.089-2.91-12.933-7.047-5.739c-17.458,17.282-24.633,35.182-21.19,55.606c5.832,22.224,22.524,31.475,22.524,31.475 c13.072,7.341,25.039,5.431,25.039,5.431c1.882-0.079,8.606-0.626,16.278-4.353c8.012-3.884,18.6-12.08,23.537-29.029l0.15-0.622 c9.631-39.365-31.994-74.421-61.49-93.133c-2.895-1.835-7.516-1.581-8.501,2.306c-1.076,4.223,4.123,6.234,6.738,8.044 c6.033,4.022,14.681,9.955,20.212,14.354L363.77,117.683z"/>
        <path fill="#FFFFFF" d="M385.772,17.587c-12.004-7.251-23.307-5.83-23.307-5.83c-1.76,0.022-8.065,0.337-15.351,3.592 c-7.608,3.402-17.749,10.758-22.862,26.464l-0.161,0.58c-0.99,4.337-1.438,8.668-1.36,12.973c0.011,1.444,0.475,3.318,2.011,4.524 c1.308,1.006,4.727,1.509,6.234,1.107c2.04-0.566,4.021-1.026,4.392-5.333c-0.017-3.617,0.738-6.099,1.659-10.049 c1.556-4.662,4.467-9.755,7.051-12.591c8.866-9.738,20.791-8.588,20.936-8.584l1.972,0.085c0.188,0.013,21.62,1.307,26.447,23.229 c2.514,10.749,0.685,20.682-3.251,29.774c-2.8,6.469-7.495,11.985-12.207,17.011c-4.735,3.319,2.614,11.162,7.441,6.235 c16.938-17.624,23.783-30.8,20.544-53.185c-4.785-20.954-20.18-30.057-20.18-30.057L385.772,17.587z"/>
        <g id="letters">
            <g>
                <path fill="#AAFF00" d="M1.692,70.874h15.289V52.522l17.538-5.3v23.651h25.688v13.661H34.52v53.223 c0,12.267,3.419,19.207,13.474,19.207c4.928,0,7.748-0.41,10.399-1.224l0.816,13.66c-3.469,1.229-8.973,2.451-15.908,2.451 c-8.357,0-15.085-2.854-19.367-7.545C19.04,158.798,17,150.031,17,138.406V84.572H1.709V70.914L1.692,70.874z"/>
            </g>
            <g>
                <path fill="#AAFF00" d="M77,101.665c0-11.622-0.203-21.614-0.817-30.79h15.701l0.817,19.576h0.609 c4.487-13.252,15.5-21.613,27.527-21.613c1.811,0,3.262,0.205,4.895,0.408v16.922c-1.835-0.407-3.67-0.407-6.117-0.407 c-12.642,0-21.611,9.38-24.06,22.838c-0.41,2.447-0.611,5.504-0.611,8.361v52.606H77.002v-67.902H77L77,101.665z"/>
            </g>
            <g>
                <path fill="#AAFF00" d="M161.424,43.146c0,6.117-4.285,11.011-11.419,11.011c-6.524,0-10.806-4.895-10.806-11.011 c0-6.12,4.486-11.215,11.215-11.215c6.537,0,10.961,4.927,10.961,11.215H161.424z M141.439,169.566V70.874h17.943v98.693H141.439 z"/>
            </g>
            <g>
                <path fill="#AAFF00" d="M176.914,103.091c0-12.642-0.41-22.835-0.815-32.218h15.902l1.019,16.925h0.409 c7.138-12.031,18.961-18.961,35.072-18.961c24.033,0,42.033,20.212,42.033,49.979c0,35.482-21.816,53.016-45.061,53.016 c-13.052,0-24.468-5.709-30.382-15.498h-0.409v53.629h-17.738l0.001-106.853L176.914,103.091z M194.653,129.397 c0,2.652,0.204,5.101,0.815,7.341c3.218,12.47,14.078,21.017,26.949,21.017c19.005,0,29.975-15.499,29.975-38.131 c0-19.578-10.396-36.502-29.362-36.502c-12.234,0-23.857,8.566-27.12,22.021c-0.609,2.242-1.222,4.894-1.222,7.138v17.133h-0.002 L194.653,129.397z"/>
            </g>
            <g>
                <path fill="#AAFF00" d="M282.053 24.794H299.996V169.566H282.053z"/>
            </g>
            <g>
                <path fill="#AAFF00" d="M444.995,43.146c0,6.117-4.285,11.011-11.42,11.011c-6.523,0-10.806-4.895-10.806-11.011 c0-6.12,4.486-11.215,11.216-11.215c6.536,0,10.961,4.927,10.961,11.215H444.995z M425.01,169.566V70.874h17.943v98.693H425.01z"/>
            </g>
            <g>
                <path fill="#AAFF00" d="M460.83,97.587c0-10.399-0.204-18.556-0.816-26.712h15.901l1.021,16.314h0.41 c4.893-9.176,16.309-18.352,32.622-18.352c13.676,0,34.893,8.145,34.893,42.005v58.728h-17.943v-56.896 c0-15.904-5.911-29.158-22.836-29.158c-11.623,0-20.8,8.361-24.063,18.352c-0.815,2.242-1.223,5.301-1.223,8.36v59.336h-17.943 V97.587h0.003H460.83z"/>
            </g>
            <g>
                <path fill="#AAFF00" d="M567.336,169.566V84.534h-13.657V70.874h13.657v-5.505c0-25.896,15.298-42.821,43.025-42.821 c9.151,0,20.011,2.815,25.039,6.528l-5.097,13.662c-4.484-3.061-12.03-5.711-20.797-5.711c-18.964,0-24.471,13.253-24.471,28.956 v4.892h57.296v98.693h-17.94V84.537h-39.355v85.029h-17.738H567.336z"/>
            </g>
            <g>
                <path fill="#AAFF00" d="M660.257,97.587c0-10.399-0.207-18.556-0.823-26.712h15.909l1.018,16.314h0.41 c4.896-9.176,16.311-18.352,32.621-18.352c13.675,0,34.894,8.145,34.894,42.005v58.728h-17.943v-56.896 c0-15.904-5.914-29.158-22.84-29.158c-11.62,0-20.796,8.361-24.058,18.352c-0.817,2.242-1.22,5.301-1.22,8.36v59.336h-17.945 l0.003-71.976H660.257z"/>
            </g>
            <g>
                <path fill="#AAFF00" d="M781.51,43.146c0,6.117-4.28,11.011-11.413,11.011c-6.526,0-10.811-4.895-10.811-11.011 c0-6.12,4.488-11.215,11.213-11.215c6.536,0,10.96,4.927,10.96,11.215H781.51z M761.53,169.566V70.874h17.942v98.693H761.53z"/>
            </g>
            <g>
                <path fill="#AAFF00" d="M827.46,47.223v23.651h25.689v13.661H827.46v53.223c0,12.267,3.42,19.207,13.476,19.207 c4.928,0,7.746-0.41,10.401-1.224l0.817,13.66c-3.467,1.229-8.972,2.451-15.904,2.451c-8.358,0-15.09-2.854-19.369-7.545 c-4.896-5.509-6.936-14.275-6.936-25.9V84.572h-15.291V70.914h15.291V52.562l17.538-5.301L827.46,47.223z"/>
            </g>
            <g>
                <path fill="#AAFF00" d="M885.096,70.874l21.412,58.323c2.445,6.536,4.928,14.278,6.536,20.184h0.409 c1.828-5.914,3.874-13.46,6.315-20.593l19.577-57.914h18.962l-26.917,70.348c-12.847,33.851-21.607,50.979-33.848,61.786 c-8.972,7.543-17.537,10.6-22.019,11.417l-4.487-14.885c4.487-1.424,10.397-4.284,15.699-8.765 c4.896-3.878,10.807-10.812,15.089-19.987c0.817-1.835,1.428-3.261,1.428-4.279s-0.406-2.447-1.428-4.688l-36.294-90.945 l19.577-0.001H885.096z"/>
            </g>
        </g>
        <g id="infSym">
            <g id="infSymPaths" fill="none">
                <path id="infSymPaths_1" d="M372.929,104.557c0,0,31.675-22.157,26.646-57.334c0,0,0.541-27.636-34.847-29.145 c-39.876-1.005-37.554,50.759-37.554,50.782"/>
                <path id="infSymPaths_2" d="M325.252,87.463c0,0,11.765,5.731,40.625,27.15 c32.089,23.834,35.194,42.237,35.194,62.85c0.036,24.134-21.827,36.571-37.399,36.962c0,0-22.221,1.983-34.562-20.872 c-11.669-23.982-3.82-37.093-3.909-37.401c0,0,6.737-20.355,24.549-32.485"/>
            </g>
            <g id="infSymWhole" fill="#AAFF00">
                <path d="M385.772,17.587c-12.004-7.251-23.307-5.83-23.307-5.83c-1.76,0.022-8.065,0.337-15.351,3.592 c-7.608,3.402-17.749,10.758-22.862,26.464l-0.161,0.58c-0.99,4.337-1.438,8.668-1.36,12.973 c0.011,1.444,0.475,3.318,2.011,4.524c1.308,1.006,4.727,1.509,6.234,1.107c2.04-0.566,4.021-1.026,4.392-5.333 c-0.017-3.617,0.738-6.099,1.659-10.049c1.556-4.662,4.467-9.755,7.051-12.591c8.866-9.738,20.791-8.588,20.936-8.584 l1.972,0.085c0.188,0.013,21.62,1.307,26.447,23.229c2.514,10.749,0.685,20.682-3.251,29.774 c-2.8,6.469-7.495,11.985-12.207,17.011c-4.735,3.319,2.614,11.162,7.441,6.235c16.938-17.624,23.783-30.8,20.544-53.185 c-4.785-20.954-20.18-30.057-20.18-30.057L385.772,17.587z"/>
                <path d="M363.77,117.683c10.693,8.548,20.715,19.408,25.742,32.882c3.62,9.956,5.833,20.312,3.419,32.486 c-1.505,5.034-4.446,10.57-7.109,13.686c-9.147,10.699-21.921,9.866-22.075,9.87l-2.111-0.025 c-0.198-0.013-21.273-0.086-28.561-24.315c-2.949-11.376-2.437-20.495,1.462-30.343c2.776-7.002,8.101-13,12.967-18.529 c3.936-6.089-2.91-12.933-7.047-5.739c-17.458,17.282-24.633,35.182-21.19,55.606c5.832,22.224,22.524,31.475,22.524,31.475 c13.072,7.341,25.039,5.431,25.039,5.431c1.882-0.079,8.606-0.626,16.278-4.353c8.012-3.884,18.6-12.08,23.537-29.029l0.15-0.622 c9.631-39.365-31.994-74.421-61.49-93.133c-2.895-1.835-7.516-1.581-8.501,2.306c-1.076,4.223,4.123,6.234,6.738,8.044 c6.033,4.022,14.681,9.955,20.212,14.354L363.77,117.683z"/>
            </g>
        </g>
        <g fill="#AAFF00">
            <path d="M425.911,187.332c2.333-0.352,5.105-0.615,8.142-0.615c5.5,0,9.417,1.275,12.014,3.696 c2.64,2.42,4.181,5.853,4.181,10.649c0,4.841-1.497,8.801-4.269,11.529c-2.772,2.772-7.349,4.269-13.114,4.269 c-2.729,0-5.017-0.132-6.953-0.352V187.332z M429.739,213.561c0.968,0.176,2.376,0.22,3.873,0.22 c8.186,0,12.63-4.576,12.63-12.586c0.044-6.997-3.917-11.441-12.014-11.441c-1.98,0-3.477,0.176-4.489,0.396V213.561z"/>
            <path d="M457.502,206.651c0.088,5.236,3.433,7.393,7.305,7.393c2.772,0,4.445-0.483,5.897-1.1l0.66,2.772 c-1.364,0.616-3.697,1.32-7.085,1.32c-6.557,0-10.474-4.313-10.474-10.738s3.784-11.485,9.989-11.485 c6.953,0,8.801,6.117,8.801,10.033c0,0.792-0.088,1.408-0.132,1.805H457.502z M468.856,203.879 c0.044-2.465-1.012-6.293-5.369-6.293c-3.917,0-5.633,3.608-5.941,6.293H468.856z"/>
            <path d="M476.95,212.636c1.144,0.748,3.168,1.541,5.105,1.541c2.816,0,4.137-1.408,4.137-3.169 c0-1.849-1.101-2.86-3.961-3.917c-3.829-1.363-5.633-3.476-5.633-6.028c0-3.433,2.772-6.249,7.35-6.249 c2.156,0,4.049,0.616,5.236,1.32l-0.968,2.816c-0.836-0.528-2.377-1.232-4.357-1.232c-2.288,0-3.564,1.32-3.564,2.904 c0,1.761,1.276,2.553,4.049,3.608c3.697,1.408,5.589,3.257,5.589,6.426c0,3.74-2.904,6.381-7.965,6.381 c-2.333,0-4.489-0.572-5.985-1.452L476.95,212.636z"/>
            <path d="M499.303,189.312c0.044,1.32-0.925,2.377-2.465,2.377c-1.364,0-2.332-1.057-2.332-2.377 c0-1.364,1.012-2.42,2.42-2.42C498.378,186.893,499.303,187.948,499.303,189.312z M494.99,216.597v-21.299h3.872v21.299H494.99z"/>
            <path d="M523.725,195.298c-0.088,1.54-0.177,3.256-0.177,5.853v12.366c0,4.885-0.968,7.877-3.036,9.725 c-2.068,1.937-5.061,2.553-7.745,2.553c-2.553,0-5.369-0.616-7.085-1.76l0.968-2.949c1.408,0.881,3.608,1.673,6.249,1.673 c3.961,0,6.865-2.068,6.865-7.438v-2.376h-0.088c-1.188,1.98-3.477,3.564-6.777,3.564c-5.28,0-9.065-4.488-9.065-10.386 c0-7.217,4.709-11.31,9.594-11.31c3.696,0,5.721,1.937,6.645,3.696h0.089l0.176-3.212H523.725z M519.72,203.703 c0-0.66-0.044-1.232-0.22-1.761c-0.704-2.244-2.597-4.093-5.413-4.093c-3.696,0-6.337,3.125-6.337,8.054 c0,4.181,2.112,7.657,6.293,7.657c2.376,0,4.532-1.496,5.369-3.961c0.22-0.66,0.308-1.408,0.308-2.068V203.703z"/>
            <path d="M529.794,201.062c0-2.2-0.044-4.005-0.177-5.765h3.433l0.22,3.521h0.089 c1.056-2.024,3.521-4.005,7.041-4.005c2.948,0,7.524,1.761,7.524,9.065v12.718h-3.872v-12.277c0-3.433-1.276-6.293-4.929-6.293 c-2.553,0-4.533,1.804-5.193,3.96c-0.176,0.484-0.264,1.145-0.264,1.805v12.806h-3.872V201.062z"/>
            <path d="M584.844,216.597c-0.836-0.836-1.628-1.672-2.772-2.904c-2.552,2.376-5.413,3.389-8.669,3.389 c-5.765,0-9.109-3.873-9.109-8.317c0-4.049,2.42-6.821,5.809-8.669v-0.133c-1.54-1.936-2.464-4.092-2.464-6.204 c0-3.609,2.596-7.306,7.524-7.306c3.697,0,6.558,2.465,6.558,6.293c0,3.125-1.805,5.589-6.514,7.921v0.133 c2.509,2.904,5.325,6.16,7.218,8.272c1.364-2.068,2.288-4.929,2.86-8.669h3.521c-0.792,4.665-2.068,8.361-4.269,10.958 c1.584,1.672,3.124,3.344,4.885,5.236H584.844z M580.18,211.492c-1.761-1.937-5.062-5.545-8.361-9.329 c-1.585,1.012-3.829,2.904-3.829,6.028c0,3.389,2.509,5.985,6.073,5.985C576.614,214.177,578.771,213.032,580.18,211.492z M571.158,193.405c0,2.112,0.968,3.74,2.244,5.325c2.992-1.717,4.929-3.301,4.929-5.81c0-1.804-1.013-3.828-3.433-3.828 C572.434,189.093,571.158,191.117,571.158,193.405z"/>
            <path d="M604.821,187.332c2.332-0.352,5.104-0.615,8.141-0.615c5.501,0,9.418,1.275,12.014,3.696 c2.641,2.42,4.181,5.853,4.181,10.649c0,4.841-1.496,8.801-4.269,11.529c-2.772,2.772-7.349,4.269-13.113,4.269 c-2.729,0-5.017-0.132-6.953-0.352V187.332z M608.649,213.561c0.969,0.176,2.377,0.22,3.873,0.22 c8.185,0,12.63-4.576,12.63-12.586c0.044-6.997-3.917-11.441-12.014-11.441c-1.98,0-3.477,0.176-4.489,0.396V213.561z"/>
            <path d="M636.413,206.651c0.088,5.236,3.433,7.393,7.305,7.393c2.772,0,4.444-0.483,5.896-1.1l0.66,2.772 c-1.364,0.616-3.696,1.32-7.085,1.32c-6.557,0-10.474-4.313-10.474-10.738s3.785-11.485,9.99-11.485 c6.952,0,8.801,6.117,8.801,10.033c0,0.792-0.088,1.408-0.132,1.805H636.413z M647.767,203.879 c0.044-2.465-1.013-6.293-5.369-6.293c-3.916,0-5.633,3.608-5.94,6.293H647.767z"/>
            <path d="M657.885,195.298l4.181,11.97c0.704,1.937,1.275,3.696,1.716,5.456h0.132 c0.484-1.76,1.101-3.52,1.805-5.456l4.137-11.97h4.048l-8.36,21.299h-3.697l-8.097-21.299H657.885z"/>
            <path d="M679.356,206.651c0.088,5.236,3.433,7.393,7.305,7.393c2.772,0,4.444-0.483,5.896-1.1l0.66,2.772 c-1.364,0.616-3.696,1.32-7.085,1.32c-6.557,0-10.474-4.313-10.474-10.738s3.785-11.485,9.99-11.485 c6.952,0,8.801,6.117,8.801,10.033c0,0.792-0.088,1.408-0.132,1.805H679.356z M690.71,203.879 c0.044-2.465-1.013-6.293-5.369-6.293c-3.916,0-5.633,3.608-5.94,6.293H690.71z"/>
            <path d="M699.332,185.353h3.872v31.244h-3.872V185.353z"/>
            <path d="M729.077,205.771c0,7.877-5.457,11.31-10.605,11.31c-5.765,0-10.21-4.225-10.21-10.958 c0-7.129,4.665-11.31,10.562-11.31C724.94,194.813,729.077,199.258,729.077,205.771z M712.179,205.991 c0,4.665,2.685,8.186,6.469,8.186c3.696,0,6.469-3.477,6.469-8.273c0-3.608-1.804-8.186-6.381-8.186 C714.159,197.718,712.179,201.942,712.179,205.991z"/>
            <path d="M734.047,202.251c0-2.729-0.089-4.929-0.177-6.953h3.477l0.177,3.652h0.088 c1.584-2.597,4.092-4.137,7.568-4.137c5.149,0,9.021,4.356,9.021,10.825c0,7.657-4.664,11.442-9.682,11.442 c-2.816,0-5.28-1.232-6.557-3.345h-0.088v11.573h-3.828V202.251z M737.875,207.928c0,0.571,0.088,1.1,0.176,1.584 c0.704,2.685,3.037,4.532,5.809,4.532c4.093,0,6.47-3.344,6.47-8.229c0-4.269-2.245-7.922-6.337-7.922 c-2.641,0-5.105,1.893-5.854,4.797c-0.132,0.484-0.264,1.057-0.264,1.584V207.928z"/>
            <path d="M759.17,201.062c0-2.2-0.045-4.005-0.177-5.765h3.389l0.176,3.433h0.133 c1.188-2.024,3.168-3.917,6.688-3.917c2.904,0,5.104,1.761,6.029,4.269h0.088c0.66-1.188,1.496-2.112,2.376-2.772 c1.276-0.968,2.685-1.496,4.709-1.496c2.816,0,6.997,1.849,6.997,9.241v12.542h-3.785v-12.058c0-4.093-1.496-6.557-4.62-6.557 c-2.2,0-3.917,1.628-4.577,3.521c-0.176,0.527-0.308,1.231-0.308,1.936v13.158h-3.784v-12.762c0-3.389-1.497-5.853-4.445-5.853 c-2.42,0-4.181,1.936-4.797,3.872c-0.22,0.572-0.308,1.232-0.308,1.893v12.85h-3.784V201.062z"/>
            <path d="M798.11,206.651c0.088,5.236,3.433,7.393,7.305,7.393c2.772,0,4.444-0.483,5.896-1.1l0.66,2.772 c-1.364,0.616-3.696,1.32-7.085,1.32c-6.557,0-10.474-4.313-10.474-10.738s3.785-11.485,9.99-11.485 c6.952,0,8.801,6.117,8.801,10.033c0,0.792-0.088,1.408-0.132,1.805H798.11z M809.464,203.879 c0.044-2.465-1.013-6.293-5.369-6.293c-3.916,0-5.633,3.608-5.94,6.293H809.464z"/>
            <path d="M818.086,201.062c0-2.2-0.045-4.005-0.177-5.765h3.433l0.221,3.521h0.088 c1.056-2.024,3.521-4.005,7.041-4.005c2.948,0,7.524,1.761,7.524,9.065v12.718h-3.872v-12.277c0-3.433-1.276-6.293-4.929-6.293 c-2.553,0-4.533,1.804-5.193,3.96c-0.176,0.484-0.264,1.145-0.264,1.805v12.806h-3.872V201.062z"/>
            <path d="M847.082,189.181v6.117h5.545v2.948h-5.545v11.485c0,2.641,0.748,4.137,2.904,4.137 c1.013,0,1.761-0.132,2.244-0.264l0.177,2.904c-0.748,0.308-1.937,0.528-3.433,0.528c-1.805,0-3.257-0.572-4.181-1.629 c-1.101-1.144-1.496-3.036-1.496-5.545v-11.617h-3.301v-2.948h3.301v-5.105L847.082,189.181z"/>
        </g>
    </g>
</svg>
