<?xml version="1.0" encoding="UTF-8"?>
<!DOCTYPE svg PUBLIC "-//W3C//DTD SVG 1.1//EN" "http://www.w3.org/Graphics/SVG/1.1/DTD/svg11.dtd">
  <svg id="aaaLogo_sml" viewBox="0 0 770 170" width="100%" height="100%">
    <defs>
      <g id="letterMasks" fill="rgb(255,255,255)">
        <mask id="mask_a3_1">
          <path id="a3_m"
                d="M 647,123 C 647,123 639.17,134.78 635.6,140.95 L 725.9,140.95 C 722,134.55 718.7,128.95 714.9,122.75 L 647,123 Z M 647,123"/>
        </mask>
        <mask id="mask_a3_2">
          <path id="a3_m2"
                d="M 773.4,141.05 C 750.6,101.15 727.4,61.35 704.8,21.95 681.7,61.75 658.5,101.45 635.6,140.95 L 658,141 671.79,116.91 C 682.56,98.34 692.93,80.51 703.8,61.85 719.4,89.15 734.4,115.15 749.3,141.05 756.6,141.05 765.3,141.05 773.4,141.05 Z M 773.4,141.05"/>
        </mask>
        <mask id="mask_o1">
          <path id="o_m"
                d="M 494.6,50.4 C 517.6,89.4 540.1,128.7 563.1,168.3 585.8,128.6 607.9,89.4 630.4,50.4 584.8,50.4 540.3,50.4 494.6,50.4 Z M 528,69.4 C 551.9,69.4 573.5,69.4 597.3,69.4 585.5,90.4 575.35,109.34 563.25,130.64 551.05,109.44 539.9,90.4 528,69.4 Z M 528,69.4"/>
        </mask>
        <mask id="mask_i1_1">
          <path id="i_1_m"
                d="M 672.4,47.8 L 646.2,47.8 C 628.6,78.8 611.2,109.7 593.5,141 L 619.7,141 C 637,110.3 654.5,79.4 672.4,47.8 Z M 672.4,47.8"/>
        </mask>
        <mask id="mask_i1_2">
          <path id="i_1_m2"
                d="M 687.1,21.6 L 660.9,21.6 C 659,25.3 656.2,30.6 654.1,34.6 L 680,34.6 C 681.8,31.3 684.7,25.9 687.1,21.6 Z M 687.1,21.6"/>
        </mask>
        <mask id="mask_l2">
          <path id="l2_m"
                d="M 532.1,140.95 C 509.2,100.95 486.8,61.75 464.6,22.85 455.7,22.85 447.3,22.85 438.4,22.85 461.1,62.65 483.5,101.85 505.9,140.95 514.6,140.95 522.9,140.95 532.1,140.95 Z M 532.1,140.95"/>
        </mask>
        <mask id="mask_a2_1">
          <path id="a2_1_m"
                d="M 409,1 C 409,1 368.48,72 340.4,121.08 L 339.49,122.68 350,141 357,141 C 372.18,114.52 400.01,66.29 407.57,53.18 L 423,26 409,1 Z M 409,1"/>
        </mask>
        <mask id="mask_a2_2">
          <path id="a2_2_m"
                d="M 383.1,140.85 C 419.2,140.95 454.1,140.95 490.3,140.95 463.1,94.15 436.5,48.25 409.4,1.55 385.89,42.57 339.67,123.92 339.67,123.92 L 350,141 355.8,140.95 C 373.5,110.15 391.2,79.35 409.5,47.45 423.7,72.05 437.1,95.05 451,119.05 L 396.1,119.05 C 391.8,126.25 387.6,133.25 383.1,140.85 Z M 383.1,140.85"/>
        </mask>
        <mask id="mask_x2">
          <path id="x1_m"
                d="M 316.81,89.8 C 316.81,89.8 342.7,44.85 356.1,21.75 L 330.2,21.75 C 321.2,36.85 303.83,67.32 303.83,67.32 L 290.83,89.78 C 290.83,89.78 262.2,140.25 247.7,165.85 L 273.2,165.85 C 283.2,148.65 303.83,112.25 303.83,112.25 L 316.81,89.8 Z M 316.81,89.8"/>
        </mask>
        <mask id="mask_e1_1">
          <path id="e1_m"
                d="M 222.92,105.96 C 222.33,107.02 220.6,110.94 220,112 L 208,94 C 208.44,93.2 210.7,89.94 211.13,89.17 214.76,82.57 217.95,76.74 221.37,70.6 L 176,71 C 176.22,71.37 164,51 164,51 L 254.07,50.6 C 243.59,70.07 233.37,87.57 222.92,105.96 Z M 222.92,105.96"/>
        </mask>
        <mask id="mask_e1_2">
          <path id="e2_m"
                d="M 255.17,92.6 C 248.17,105.6 241.07,117.2 233.37,130.5 228.97,123 221.47,110.3 221.47,110.3 L 186,51 164.97,50.6 C 187.87,90.6 210.37,128.8 233.37,168.3 248.07,142.6 262.53,118.6 277.03,92.6 L 255.17,92.6 Z M 255.17,92.6"/>
        </mask>
        <mask id="mask_l1">
          <path id="l1_m"
                d="M 109.15,22.75 C 131.95,62.55 154.35,101.95 176.65,140.95 185.55,140.95 193.85,140.95 202.85,140.95 180.05,101.15 157.65,61.75 135.35,22.75 126.45,22.75 118.25,22.75 109.15,22.75 Z M 109.15,22.75"/>
        </mask>
        <mask id="mask_a1">
          <path id="a1_m"
                d="M 68.48,118.42 C 64.18,125.62 59.2,133.5 54.8,140.9 L 161.8,140.9 C 134.8,94.3 108.2,48.5 81.1,1.7 54.2,48.6 27.8,94.6 1.1,141.2 L 28.3,141.2 C 45.9,110.5 63.15,80.83 81.45,48.93 95.65,73.43 108.13,94.49 122.03,118.39 103.03,118.39 86.48,118.42 68.48,118.42 Z M 68.48,118.42"/>
        </mask>
      </g>
    </defs>
    <g fill="#00e200">
      <g id="aloia">
        <g id="a3">
          <g id="a3_2" mask='url(#mask_a3_2)'>
            <path id="a3_2_1"
                  d="M 704,21 C 704,21 658.4,101.45 635.5,140.95 L 668.3,122.75 C 680.3,102.05 716,42 716,42 L 704,21 Z M 704,21"/>
            <path id="a3_2_2"
                  d="M 773.4,141.05 C 750.6,101.15 704.8,21.95 704.8,21.95 L 703.8,61.85 C 703.8,61.85 734.4,115.15 749.3,141.05 756.6,141.05 765.3,141.05 773.4,141.05 Z M 773.4,141.05"/>
          </g>
          <g id="a3_1" mask='url(#mask_a3_1)'>
            <path id="a3_1_1"
                  d="M 635,141 L 726.9,140.95 C 723,134.55 719.7,128.95 715.9,122.75 L 669.19,122.99 646,123 635,141 Z M 635,141"/>
          </g>
        </g>
        <g id="o">
          <g id="o1" mask='url(#mask_o1)'>
            <path id="o_1"
                  d="M 563.1,169.3 C 559.54,163.17 555.99,156.04 552.45,149.93 L 563.2,130.54 563.25,130.64 C 575.35,109.34 585.5,90.4 597.3,69.4 L 597.1,69.4 607.63,50.4 631.4,50.4 C 608.9,89.4 585.8,129.6 563.1,169.3 Z M 563.1,169.3"/>
            <path id="o_2"
                  d="M 620,69 L 597,69 528,69 505,69 C 501.27,62.62 497.75,56.36 494,50 L 632,50 C 628.33,56.36 620,69 620,69 Z M 620,69"/>
            <path id="o_3"
                  d="M 529.53,72.38 C 541.01,92.6 551.83,111.11 563.65,131.64 L 563.76,131.44 574.52,149.99 C 570.86,156.42 567.19,162.85 563.5,169.3 540.5,129.7 518,90.4 495,51.4 L 517.36,51.4 529.53,72.38 Z M 529.53,72.38"/>
          </g>
        </g>
        <g id="i">
          <g id="i_2" mask='url(#mask_i1_2)'>
            <path id="i_2_1"
                  d="M 687.1,21.6 L 660.9,21.6 C 659,25.3 656.2,30.6 654.1,34.6 L 680,34.6 C 681.8,31.3 684.7,25.9 687.1,21.6 Z M 687.1,21.6"/>
          </g>
          <g id="i_1" mask='url(#mask_i1_1)'>
            <path id="i_1_1"
                  d="M 672.4,47.8 L 646.2,47.8 C 628.6,78.8 611.2,109.7 593.5,141 L 619.7,141 C 637,110.3 654.5,79.4 672.4,47.8 Z M 672.4,47.8"/>
          </g>
        </g>
        <g id="l2">
          <g id="l2_1" mask='url(#mask_l2)'>
            <path id="l2_1_p1"
                  d="M 532.1,140.95 C 509.2,100.95 486.8,61.75 464.6,22.85 455.7,22.85 447.3,22.85 438.4,22.85 461.1,62.65 483.5,101.85 505.9,140.95 514.6,140.95 522.9,140.95 532.1,140.95 Z M 532.1,140.95"/>
          </g>
        </g>
        <g id="a2">
          <g id="a2_2" mask='url(#mask_a2_2)'>
            <path id="a_2_2"
                  d="M 490.8,140.9 C 463.8,94.3 409,1 409,1 L 409,47 449.05,115.96 464,141 490.8,140.9 Z M 490.8,140.9"/>
            <path id="a_2_0"
                  d="M 396,119 C 391.7,126.2 387.2,133.5 382.8,140.9 L 491,141 452,119 C 452,119 414,119 396,119 Z M 396,119"/>
          </g>
          <g id="a2_1" mask='url(#mask_a2_1)'>
            <path id="a_2_1"
                  d="M 409,1 C 409,1 368.48,72 340.4,121.08 L 339.49,122.68 350,141 357,141 C 372.18,114.52 400.01,66.29 407.57,53.18 L 423,26 409,1 Z M 409,1"/>
          </g>
        </g>
      </g>
      <g id="alex">
        <g id="x">
          <clipPath id="mask_x1">
            <path id="x2_m"
                  d="M 316.81,89.8 L 303.83,67.32 C 303.83,67.32 296.4,54.75 293,48.95 L 267.2,48.95 C 275.2,62.95 290.83,89.78 290.83,89.78 L 303.83,112.25 C 303.83,112.25 315.7,132.05 320.8,140.95 L 338.8,140.95 346,141 C 338.3,127.9 316.81,89.8 316.81,89.8 Z M 316.81,89.8"/>
          </clipPath>
          <g id="x_1_1" clip-path="url(#mask_x1)">
            <path id="x2_1"
                  d="M 316.81,89.8 L 303.83,67.32 C 303.83,67.32 296.4,54.75 293,48.95 L 267.2,48.95 C 275.2,62.95 290.83,89.78 290.83,89.78 L 303.83,112.25 C 303.83,112.25 315.7,132.05 320.8,140.95 L 338.8,140.95 346,141 C 338.3,127.9 316.81,89.8 316.81,89.8 Z M 316.81,89.8"/>
          </g>

          <g id="x_1_2" mask='url(#mask_x2)'>
            <path id="x1_1"
                  d="M 316.81,89.8 C 316.81,89.8 342.7,44.85 356.1,21.75 L 330.2,21.75 C 321.2,36.85 303.83,67.32 303.83,67.32 L 290.83,89.78 C 290.83,89.78 262.2,140.25 247.7,165.85 L 273.2,165.85 C 283.2,148.65 303.83,112.25 303.83,112.25 L 316.81,89.8 Z M 316.81,89.8"/>
          </g>
        </g>
        <g id="e">
          <g id="e_1_2" mask='url(#mask_e1_2)'>
            <path id="e2_2"
                  d="M 255.17,92.6 C 248.17,105.6 230,135 230,135 L 230,174 C 230,174 263.5,119 278,93 L 255.17,92.6 Z M 255.17,92.6"/>
            <path id="e2_1"
                  d="M 233.37,130.5 L 221.47,110.3 197,69 163,49 C 185.9,89 233.37,168.3 233.37,168.3 L 233.37,130.5 Z M 233.37,130.5"/>
          </g>
          <g id="e_1_1" mask='url(#mask_e1_1)'>
            <path id="e1_1"
                  d="M 219,114 L 255.83,50.17 232.68,50.3 208,94 219,114 Z M 219,114"/>
            <path id="e1_2"
                  d="M 221,71 C 221,71 197.82,70.69 198,71 L 163,50 256,50 221,71 Z M 221,71"/>
          </g>
        </g>
        <g id="l">
          <g id="l1" mask='url(#mask_l1)'>
            <path id="l1_1"
                  d="M 109.15,22.75 C 131.95,62.55 154.35,101.95 176.65,140.95 185.55,140.95 193.85,140.95 202.85,140.95 180.05,101.15 157.65,61.75 135.35,22.75 126.45,22.75 118.25,22.75 109.15,22.75 Z M 109.15,22.75"/>
          </g>
        </g>
        <g id="a">
          <g id="a1" mask='url(#mask_a1)'>
            <path id="a1_1"
                  d="M 81.1,1.7 C 81.1,1.7 27.8,94.6 1.1,141.2 L 28.3,141.2 C 42.9,115.73 69.86,69 78.62,53.83 80.42,50.71 95,25 95,25 L 81.1,1.7 Z M 81.1,1.7"/>
            <path id="a1_2"
                  d="M 161.8,140.9 C 134.8,94.3 81,1 81,1 L 81,48 135,141 161.8,140.9 Z M 161.8,140.9"/>
            <path id="a1_3"
                  d="M 68,118 C 63.7,125.2 59.2,133.5 54.8,140.9 L 163,141 124,118 C 124,118 86,118 68,118 Z M 68,118"/>
          </g>
        </g>
      </g>
    </g>
  </svg>
