<svg
   width="800"
   height="600"
  <g id="triLoader">
    <g transform="matrix(8.9781421,0,0,8.9781421,-1880.4481,-415.93989)" id="a">
      <g id="mask_a1">
        <path
           d="M 742.46211,445.61503 592.23329,311.96806 442.00448,178.32109 632.86056,115.0426 823.71664,51.764117 783.08937,248.68958 z"
           transform="matrix(0.11138162,0,0,0.11138162,209.44735,46.328058)"
           id="path3839"
           style="fill:none;stroke-width:60;stroke-miterlimit:4;stroke-dasharray:none" />
        <path
           d="M 334.69719,247.62512 638.34552,179.55821 941.99387,111.49129 849.11738,408.49192 756.24088,705.49256 545.46904,476.55885 z"
           transform="matrix(0.11138162,0,0,0.11138162,209.44735,46.328058)"
           id="path3841"
           style="fill:none;stroke-width:60;stroke-miterlimit:4;stroke-dasharray:none" />
        <path
           d="m 254.95371,46.884966 -4.49007,7.772349 -13.96099,24.180254 -13.96099,24.176771 -4.51792,7.83152 18.08211,-10.43854 9.43612,-16.352219 1.51061,-2.610506 7.90113,-13.679056 z"
           id="path4056"
           style="font-size:medium;font-style:normal;font-variant:normal;font-weight:normal;font-stretch:normal;text-indent:0;text-align:start;text-decoration:none;line-height:normal;letter-spacing:normal;word-spacing:normal;text-transform:none;direction:ltr;block-progression:tb;writing-mode:lr-tb;text-anchor:start;baseline-shift:baseline;color:#000000;fill:#000000;fill-opacity:1;stroke:none;stroke-width:140;marker:none;visibility:visible;display:inline;overflow:visible;enable-background:accumulate;font-family:Sans;-inkscape-font-specification:Sans" />
        <path
           d="m 254.89105,46.884966 4.49007,7.772349 13.96099,24.180253 13.96099,24.176772 4.51792,7.83152 -18.08211,-10.43854 -9.43611,-16.352219 -1.51062,-2.610507 -7.90113,-13.679055 z"
           id="path4056-5"
           style="font-size:medium;font-style:normal;font-variant:normal;font-weight:normal;font-stretch:normal;text-indent:0;text-align:start;text-decoration:none;line-height:normal;letter-spacing:normal;word-spacing:normal;text-transform:none;direction:ltr;block-progression:tb;writing-mode:lr-tb;text-anchor:start;baseline-shift:baseline;color:#000000;fill:#000000;fill-opacity:1;stroke:none;stroke-width:140;marker:none;visibility:visible;display:inline;overflow:visible;enable-background:accumulate;font-family:Sans;-inkscape-font-specification:Sans" />
        <path
           d="m 218.01182,110.80411 8.97609,0.002 27.92121,4.4e-4 27.91818,0.002 9.04126,-0.003 -18.08109,-10.4403 -18.8795,0.004 -3.01607,-0.003 -15.79697,-0.003 z"
           id="path4056-2"
           style="font-size:medium;font-style:normal;font-variant:normal;font-weight:normal;font-stretch:normal;text-indent:0;text-align:start;text-decoration:none;line-height:normal;letter-spacing:normal;word-spacing:normal;text-transform:none;direction:ltr;block-progression:tb;writing-mode:lr-tb;text-anchor:start;baseline-shift:baseline;color:#000000;fill:#000000;fill-opacity:1;stroke:none;stroke-width:140;marker:none;visibility:visible;display:inline;overflow:visible;enable-background:accumulate;font-family:Sans;-inkscape-font-specification:Sans" />
      </g>
    </g>
  </g>
</svg>
