<?xml version="1.0" encoding="utf-8"?>
<!-- Generated by IcoMoon.io -->
<!DOCTYPE svg PUBLIC "-//W3C//DTD SVG 1.1//EN" "http://www.w3.org/Graphics/SVG/1.1/DTD/svg11.dtd">

<svg version="1.1" xmlns="http://www.w3.org/2000/svg" xmlns:xlink="http://www.w3.org/1999/xlink" width="752" height="176" viewBox="0 0 752 176">
<g transform="translate(0 0)">
	<path d="M32 18.451l-16-12.42-16 12.42v-5.064l16-12.42 16 12.42zM28 18v12h-8v-8h-8v8h-8v-12l12-9z" fill="#000000"></path>
</g>
<g transform="translate(48 0)">
	<path d="M0 32h16v-32h-16v32zM10 4h4v4h-4v-4zM10 12h4v4h-4v-4zM10 20h4v4h-4v-4zM2 4h4v4h-4v-4zM2 12h4v4h-4v-4zM2 20h4v4h-4v-4zM18 10h14v2h-14zM18 32h4v-8h6v8h4v-18h-14z" fill="#000000"></path>
</g>
<g transform="translate(96 0)">
	<path d="M32 13.414c0-6.279-1.837-11.373-4.109-11.413 0.009-0 0.018-0.001 0.027-0.001h-2.592c0 0-6.088 4.573-14.851 6.367-0.268 1.415-0.438 3.102-0.438 5.047s0.171 3.631 0.438 5.047c8.763 1.794 14.851 6.367 14.851 6.367h2.592c-0.009 0-0.018-0.001-0.027-0.001 2.272-0.040 4.109-5.134 4.109-11.413zM27.026 23.102c-0.293 0-0.61-0.304-0.773-0.486-0.395-0.439-0.775-1.124-1.1-1.979-0.727-1.913-1.127-4.478-1.127-7.223s0.4-5.309 1.127-7.223c0.325-0.855 0.705-1.54 1.1-1.979 0.163-0.182 0.48-0.486 0.773-0.486s0.61 0.304 0.773 0.486c0.395 0.439 0.775 1.124 1.1 1.979 0.727 1.913 1.127 4.479 1.127 7.223s-0.4 5.309-1.127 7.223c-0.325 0.855-0.705 1.54-1.1 1.979-0.163 0.181-0.48 0.486-0.773 0.486zM7.869 13.414c0-1.623 0.119-3.201 0.345-4.659-1.48 0.205-2.779 0.323-4.386 0.323-2.096 0-2.096 0-2.096 0l-1.733 2.959v2.755l1.733 2.959c0 0 0 0 2.096 0 1.606 0 2.905 0.118 4.386 0.323-0.226-1.458-0.345-3.036-0.345-4.659zM11.505 20.068l-4-0.766 2.558 10.048c0.132 0.52 0.648 0.782 1.146 0.583l3.705-1.483c0.498-0.199 0.698-0.749 0.444-1.221l-3.853-7.161zM27.026 17.148c-0.113 0-0.235-0.117-0.298-0.187-0.152-0.169-0.299-0.433-0.424-0.763-0.28-0.738-0.434-1.726-0.434-2.784s0.154-2.046 0.434-2.784c0.125-0.33 0.272-0.593 0.424-0.763 0.063-0.070 0.185-0.187 0.298-0.187s0.235 0.117 0.298 0.187c0.152 0.169 0.299 0.433 0.424 0.763 0.28 0.737 0.434 1.726 0.434 2.784s-0.154 2.046-0.434 2.784c-0.125 0.33-0.272 0.593-0.424 0.763-0.063 0.070-0.185 0.187-0.298 0.187z" fill="#000000"></path>
</g>
<g transform="translate(144 0)">
	<path d="M11.366 22.564l1.291-1.807-1.414-1.414-1.807 1.291c-0.335-0.187-0.694-0.337-1.071-0.444l-0.365-2.19h-2l-0.365 2.19c-0.377 0.107-0.736 0.256-1.071 0.444l-1.807-1.291-1.414 1.414 1.291 1.807c-0.187 0.335-0.337 0.694-0.443 1.071l-2.19 0.365v2l2.19 0.365c0.107 0.377 0.256 0.736 0.444 1.071l-1.291 1.807 1.414 1.414 1.807-1.291c0.335 0.187 0.694 0.337 1.071 0.444l0.365 2.19h2l0.365-2.19c0.377-0.107 0.736-0.256 1.071-0.444l1.807 1.291 1.414-1.414-1.291-1.807c0.187-0.335 0.337-0.694 0.444-1.071l2.19-0.365v-2l-2.19-0.365c-0.107-0.377-0.256-0.736-0.444-1.071zM7 27c-1.105 0-2-0.895-2-2s0.895-2 2-2 2 0.895 2 2-0.895 2-2 2zM32 12v-2l-2.106-0.383c-0.039-0.251-0.088-0.499-0.148-0.743l1.799-1.159-0.765-1.848-2.092 0.452c-0.132-0.216-0.273-0.426-0.422-0.629l1.219-1.761-1.414-1.414-1.761 1.219c-0.203-0.149-0.413-0.29-0.629-0.422l0.452-2.092-1.848-0.765-1.159 1.799c-0.244-0.059-0.492-0.109-0.743-0.148l-0.383-2.106h-2l-0.383 2.106c-0.251 0.039-0.499 0.088-0.743 0.148l-1.159-1.799-1.848 0.765 0.452 2.092c-0.216 0.132-0.426 0.273-0.629 0.422l-1.761-1.219-1.414 1.414 1.219 1.761c-0.149 0.203-0.29 0.413-0.422 0.629l-2.092-0.452-0.765 1.848 1.799 1.159c-0.059 0.244-0.109 0.492-0.148 0.743l-2.106 0.383v2l2.106 0.383c0.039 0.251 0.088 0.499 0.148 0.743l-1.799 1.159 0.765 1.848 2.092-0.452c0.132 0.216 0.273 0.426 0.422 0.629l-1.219 1.761 1.414 1.414 1.761-1.219c0.203 0.149 0.413 0.29 0.629 0.422l-0.452 2.092 1.848 0.765 1.159-1.799c0.244 0.059 0.492 0.109 0.743 0.148l0.383 2.106h2l0.383-2.106c0.251-0.039 0.499-0.088 0.743-0.148l1.159 1.799 1.848-0.765-0.452-2.092c0.216-0.132 0.426-0.273 0.629-0.422l1.761 1.219 1.414-1.414-1.219-1.761c0.149-0.203 0.29-0.413 0.422-0.629l2.092 0.452 0.765-1.848-1.799-1.159c0.059-0.244 0.109-0.492 0.148-0.743l2.106-0.383zM21 15.35c-2.402 0-4.35-1.948-4.35-4.35s1.948-4.35 4.35-4.35 4.35 1.948 4.35 4.35c0 2.402-1.948 4.35-4.35 4.35z" fill="#000000"></path>
</g>
<g transform="translate(192 0)">
	<path d="M32 19.003v-6.006l-4.587-0.764c-0.186-0.567-0.413-1.115-0.678-1.641l2.702-3.782-4.247-4.247-3.776 2.697c-0.528-0.267-1.079-0.497-1.649-0.684l-0.763-4.575h-6.006l-0.763 4.575c-0.57 0.188-1.121 0.417-1.649 0.684l-3.776-2.697-4.247 4.247 2.702 3.782c-0.265 0.526-0.492 1.074-0.678 1.641l-4.587 0.764v6.006l4.597 0.766c0.186 0.561 0.413 1.105 0.676 1.626l-2.711 3.795 4.247 4.247 3.802-2.715c0.519 0.261 1.059 0.485 1.618 0.67l0.768 4.608h6.006l0.768-4.609c0.559-0.185 1.099-0.409 1.618-0.67l3.802 2.715 4.247-4.247-2.711-3.795c0.264-0.521 0.49-1.064 0.676-1.626l4.597-0.766zM16 20c-2.209 0-4-1.791-4-4s1.791-4 4-4c2.209 0 4 1.791 4 4s-1.791 4-4 4z" fill="#000000"></path>
</g>
<g transform="translate(240 0)">
	<path d="M22 2l-10 10h-6l-6 8c0 0 6.357-1.77 10.065-0.94l-10.065 12.94 13.184-10.255c1.839 4.208-1.184 10.255-1.184 10.255l8-6v-6l10-10 2-10-10 2z" fill="#000000"></path>
</g>
<g transform="translate(288 0)">
	<path d="M29.884 25.14l-9.884-16.47v-6.671h1c0.55 0 1-0.45 1-1s-0.45-1-1-1h-10c-0.55 0-1 0.45-1 1s0.45 1 1 1h1v6.671l-9.884 16.47c-2.264 3.773-0.516 6.86 3.884 6.86h20c4.4 0 6.148-3.087 3.884-6.86zM7.532 20l6.468-10.779v-7.221h4v7.221l6.468 10.779h-16.935z" fill="#000000"></path>
</g>
<g transform="translate(336 0)">
	<path d="M15 2c-8.284 0-15 6.716-15 15s6.716 15 15 15c8.284 0 15-6.716 15-15s-6.716-15-15-15zM23.487 22c0.268-1.264 0.437-2.606 0.492-4h3.983c-0.104 1.381-0.426 2.722-0.959 4h-3.516zM6.513 12c-0.268 1.264-0.437 2.606-0.492 4h-3.983c0.104-1.381 0.426-2.722 0.959-4h3.516zM21.439 12c0.3 1.28 0.481 2.62 0.54 4h-5.979v-4h5.439zM16 10v-5.854c0.456 0.133 0.908 0.355 1.351 0.668 0.831 0.586 1.625 1.488 2.298 2.609 0.465 0.775 0.867 1.638 1.203 2.578h-4.852zM10.351 7.422c0.673-1.121 1.467-2.023 2.298-2.609 0.443-0.313 0.895-0.535 1.351-0.668v5.854h-4.852c0.336-0.94 0.738-1.803 1.203-2.578zM14 12v4h-5.979c0.059-1.38 0.24-2.72 0.54-4h5.439zM2.997 22c-0.533-1.278-0.854-2.619-0.959-4h3.983c0.055 1.394 0.224 2.736 0.492 4h-3.516zM8.021 18h5.979v4h-5.439c-0.3-1.28-0.481-2.62-0.54-4zM14 24v5.854c-0.456-0.133-0.908-0.355-1.351-0.668-0.831-0.586-1.625-1.488-2.298-2.609-0.465-0.775-0.867-1.638-1.203-2.578h4.852zM19.649 26.578c-0.673 1.121-1.467 2.023-2.298 2.609-0.443 0.312-0.895 0.535-1.351 0.668v-5.854h4.852c-0.336 0.94-0.738 1.802-1.203 2.578zM16 22v-4h5.979c-0.059 1.38-0.24 2.72-0.54 4h-5.439zM23.98 16c-0.055-1.394-0.224-2.736-0.492-4h3.516c0.533 1.278 0.855 2.619 0.959 4h-3.983zM25.958 10h-2.997c-0.582-1.836-1.387-3.447-2.354-4.732 1.329 0.636 2.533 1.488 3.585 2.54 0.671 0.671 1.261 1.404 1.766 2.192zM5.808 7.808c1.052-1.052 2.256-1.904 3.585-2.54-0.967 1.285-1.771 2.896-2.354 4.732h-2.997c0.504-0.788 1.094-1.521 1.766-2.192zM4.042 24h2.997c0.583 1.836 1.387 3.447 2.354 4.732-1.329-0.636-2.533-1.488-3.585-2.54-0.671-0.671-1.261-1.404-1.766-2.192zM24.192 26.192c-1.052 1.052-2.256 1.904-3.585 2.54 0.967-1.285 1.771-2.896 2.354-4.732h2.997c-0.504 0.788-1.094 1.521-1.766 2.192z" fill="#000000"></path>
</g>
<g transform="translate(384 0)">
	<path d="M27.314 4.686c3.022 3.022 4.686 7.040 4.686 11.314s-1.664 8.292-4.686 11.314c-3.022 3.022-7.040 4.686-11.314 4.686s-8.292-1.664-11.314-4.686c-3.022-3.022-4.686-7.040-4.686-11.314s1.664-8.292 4.686-11.314c3.022-3.022 7.040-4.686 11.314-4.686s8.292 1.664 11.314 4.686zM25.899 25.9c1.971-1.971 3.281-4.425 3.821-7.096-0.421 0.62-0.824 0.85-1.073-0.538-0.257-2.262-2.335-0.817-3.641-1.621-1.375 0.927-4.466-1.802-3.941 1.276 0.81 1.388 4.375-1.858 2.598 1.079-1.134 2.050-4.145 6.592-3.753 8.946 0.049 3.43-3.504 0.715-4.729-0.422-0.824-2.279-0.281-6.262-2.434-7.378-2.338-0.102-4.344-0.314-5.25-2.927-0.545-1.87 0.58-4.653 2.584-5.083 2.933-1.843 3.98 2.158 6.731 2.232 0.854-0.894 3.182-1.178 3.375-2.18-1.805-0.318 2.29-1.517-0.173-2.199-1.358 0.16-2.234 1.409-1.512 2.467-2.632 0.614-2.717-3.809-5.247-2.414-0.064 2.206-4.132 0.715-1.407 0.268 0.936-0.409-1.527-1.594-0.196-1.379 0.654-0.036 2.854-0.807 2.259-1.325 1.225-0.761 2.255 1.822 3.454-0.059 0.866-1.446-0.363-1.713-1.448-0.98-0.612-0.685 1.080-2.165 2.573-2.804 0.497-0.213 0.973-0.329 1.336-0.296 0.752 0.868 2.142 1.019 2.215-0.104-1.862-0.892-3.915-1.363-6.040-1.363-3.051 0-5.952 0.969-8.353 2.762 0.645 0.296 1.012 0.664 0.39 1.134-0.483 1.439-2.443 3.371-4.163 3.098-0.893 1.54-1.482 3.238-1.733 5.017 1.441 0.477 1.773 1.42 1.464 1.736-0.734 0.64-1.185 1.548-1.418 2.541 0.469 2.87 1.818 5.515 3.915 7.612 2.644 2.644 6.16 4.1 9.899 4.1s7.255-1.456 9.899-4.1z" fill="#000000"></path>
</g>
<g transform="translate(432 0)">
	<path d="M26.666 0h-21.332c-2.934 0-5.334 2.4-5.334 5.333v21.333c0 2.934 2.4 5.334 5.334 5.334h21.332c2.936 0 5.334-2.4 5.334-5.334v-21.333c0-2.934-2.398-5.333-5.334-5.333zM8 8h16c0.286 0 0.563 0.061 0.817 0.177l-8.817 10.286-8.817-10.287c0.254-0.116 0.531-0.177 0.817-0.177zM6 22v-12c0-0.042 0.002-0.084 0.004-0.125l5.864 6.842-5.8 5.8c-0.045-0.167-0.069-0.34-0.069-0.517zM24 24h-16c-0.177 0-0.35-0.024-0.517-0.069l5.691-5.691 2.826 3.297 2.826-3.297 5.691 5.691c-0.167 0.045-0.34 0.069-0.517 0.069zM26 22c0 0.177-0.024 0.35-0.069 0.517l-5.8-5.8 5.864-6.842c0.003 0.041 0.004 0.083 0.004 0.125v12z" fill="#000000"></path>
</g>
<g transform="translate(480 0)">
	<path d="M17.471 2c0 0-6.28 0-8.373 0-3.754 0-7.287 2.844-7.287 6.138 0 3.366 2.559 6.083 6.378 6.083 0.266 0 0.524-0.005 0.776-0.024-0.248 0.475-0.425 1.009-0.425 1.564 0 0.936 0.503 1.694 1.14 2.313-0.481 0-0.945 0.014-1.452 0.014-4.649-0-8.228 2.961-8.228 6.032 0 3.024 3.923 4.916 8.573 4.916 5.301 0 8.228-3.008 8.228-6.032 0-2.425-0.715-3.877-2.928-5.442-0.757-0.536-2.204-1.839-2.204-2.604 0-0.897 0.256-1.34 1.607-2.395 1.385-1.082 2.365-2.603 2.365-4.372 0-2.106-0.938-4.159-2.699-4.837h2.655l1.874-1.355zM14.546 22.483c0.066 0.28 0.103 0.569 0.103 0.863 0 2.444-1.575 4.353-6.093 4.353-3.214 0-5.535-2.035-5.535-4.478 0-2.395 2.879-4.389 6.093-4.354 0.75 0.008 1.449 0.129 2.083 0.334 1.745 1.213 2.996 1.899 3.349 3.281zM9.401 13.368c-2.157-0.065-4.207-2.413-4.58-5.246s1.074-5.001 3.231-4.937c2.157 0.065 4.207 2.338 4.58 5.171s-1.075 5.077-3.231 5.012zM26 8v-6h-2v6h-6v2h6v6h2v-6h6v-2z" fill="#000000"></path>
</g>
<g transform="translate(528 0)">
	<path d="M13.656 25.568c0 2.346-1.45 4.2-5.555 4.349-2.406-1.368-4.422-3.342-5.841-5.715 0.74-1.828 3.053-3.22 5.697-3.191 0.751 0.008 1.45 0.129 2.086 0.334 1.747 1.215 3.156 1.974 3.51 3.358 0.066 0.28 0.103 0.569 0.103 0.864zM16 0c-4.623 0-8.787 1.962-11.708 5.097 1.154-0.639 2.517-1.020 3.966-1.020 2.096 0 8.014 0 8.014 0l-1.791 1.879h-2.103c1.484 0.85 2.274 2.601 2.274 4.532 0 1.772-0.982 3.199-2.368 4.283-1.352 1.056-1.609 1.499-1.609 2.398 0 0.767 1.616 1.909 2.359 2.467 2.588 1.941 3.112 3.162 3.112 5.59 0 2.46-2.154 4.91-5.808 5.742 1.761 0.667 3.67 1.033 5.664 1.033 8.837 0 16-7.163 16-16s-7.163-16-16-16zM24 12v4h-2v-4h-4v-2h4v-4h2v4h4v2h-4zM11.43 10.608c0.373 2.837-0.87 4.662-3.029 4.598-2.16-0.065-4.213-2.047-4.586-4.883-0.373-2.837 1.076-5.008 3.235-4.944s4.007 2.392 4.379 5.228zM6.903 20.065c-2.334 0-4.316 0.805-5.714 1.996-0.766-1.869-1.189-3.915-1.189-6.060 0-1.774 0.289-3.48 0.822-5.075 0.23 3.108 2.417 5.506 6.030 5.506 0.266 0 0.524-0.014 0.777-0.032-0.248 0.476-0.426 1.006-0.426 1.562 0 0.937 0.515 1.471 1.152 2.090-0.481 0-0.946 0.013-1.454 0.013z" fill="#000000"></path>
</g>
<g transform="translate(576 0)">
	<path d="M17.996 32h-5.996v-16h-4v-5.514l4-0.002-0.007-3.248c0-4.498 1.22-7.236 6.519-7.236h4.412v5.515h-2.757c-2.064 0-2.163 0.771-2.163 2.209l-0.008 2.76h4.959l-0.584 5.514-4.37 0.002-0.004 16z" fill="#000000"></path>
</g>
<g transform="translate(624 0)">
	<path d="M16 0c8.837 0 16 7.163 16 16 0 8.159-6.107 14.892-14 15.876v-11.876h5.5l0.5-4h-6v-2c0-1.105 0.895-2 2-2h4v-4h-4c-3.314 0-6 2.686-6 6v2h-3v4h3v11.876c-7.893-0.984-14-7.717-14-15.876 0-8.837 7.163-16 16-16z" fill="#000000"></path>
</g>
<g transform="translate(672 0)">
	<path d="M0 17.388c0 1.45 0.136 2.762 0.407 3.935s0.647 2.193 1.127 3.059c0.48 0.866 1.090 1.627 1.831 2.285s1.544 1.195 2.41 1.612c0.866 0.417 1.854 0.756 2.965 1.017s2.245 0.443 3.403 0.548c1.158 0.104 2.431 0.156 3.818 0.156 1.398 0 2.676-0.052 3.834-0.156s2.295-0.287 3.411-0.548c1.116-0.261 2.11-0.6 2.981-1.017s1.68-0.954 2.425-1.612c0.746-0.657 1.361-1.419 1.846-2.285s0.863-1.886 1.134-3.059c0.271-1.174 0.407-2.486 0.407-3.935 0-2.587-0.866-4.825-2.597-6.713 0.094-0.25 0.18-0.535 0.258-0.853s0.151-0.772 0.219-1.361c0.068-0.589 0.042-1.27-0.078-2.042s-0.342-1.56-0.665-2.363l-0.235-0.047c-0.167-0.031-0.441-0.023-0.822 0.024s-0.824 0.141-1.33 0.282c-0.506 0.141-1.158 0.412-1.956 0.814s-1.64 0.905-2.527 1.51c-1.523-0.417-3.615-0.626-6.275-0.626-2.65 0-4.736 0.209-6.259 0.626-0.887-0.605-1.734-1.108-2.543-1.51s-1.453-0.673-1.933-0.814c-0.48-0.141-0.928-0.232-1.346-0.274s-0.681-0.055-0.79-0.039c-0.11 0.016-0.196 0.034-0.258 0.055-0.323 0.803-0.545 1.591-0.665 2.363s-0.146 1.453-0.078 2.042c0.068 0.589 0.141 1.043 0.219 1.361s0.164 0.602 0.258 0.853c-1.732 1.888-2.598 4.126-2.598 6.713zM3.928 21.315c0-1.502 0.683-2.879 2.050-4.131 0.407-0.376 0.881-0.66 1.424-0.853s1.155-0.302 1.839-0.329c0.683-0.026 1.338-0.021 1.964 0.016s1.398 0.086 2.316 0.149c0.918 0.063 1.711 0.094 2.379 0.094s1.46-0.031 2.378-0.094c0.918-0.063 1.69-0.112 2.316-0.149s1.28-0.042 1.964-0.016c0.683 0.026 1.296 0.136 1.839 0.329s1.017 0.477 1.424 0.853c1.367 1.231 2.050 2.608 2.050 4.131 0 0.897-0.112 1.693-0.337 2.386s-0.511 1.275-0.861 1.745c-0.349 0.469-0.834 0.868-1.455 1.197s-1.226 0.582-1.815 0.759c-0.589 0.177-1.346 0.316-2.269 0.415s-1.747 0.159-2.472 0.18c-0.725 0.021-1.646 0.031-2.762 0.031s-2.037-0.010-2.762-0.031c-0.725-0.021-1.549-0.081-2.472-0.18s-1.68-0.237-2.269-0.415c-0.589-0.177-1.194-0.43-1.815-0.759s-1.106-0.728-1.455-1.197c-0.349-0.469-0.636-1.051-0.861-1.745s-0.336-1.489-0.336-2.386zM20 21c0-1.657 0.895-3 2-3s2 1.343 2 3c0 1.657-0.895 3-2 3s-2-1.343-2-3zM8 21c0-1.657 0.895-3 2-3s2 1.343 2 3c0 1.657-0.895 3-2 3s-2-1.343-2-3z" fill="#000000"></path>
</g>
<g transform="translate(720 0)">
	<path d="M16 0c-8.837 0-16 7.163-16 16s7.163 16 16 16 16-7.163 16-16-7.163-16-16-16zM25.502 25.502c-1.235 1.235-2.672 2.204-4.272 2.881-0.406 0.172-0.819 0.323-1.238 0.453v-2.398c0-1.26-0.432-2.188-1.297-2.781 0.542-0.052 1.039-0.125 1.492-0.219s0.932-0.229 1.438-0.406 0.958-0.388 1.359-0.633 0.786-0.563 1.156-0.953 0.68-0.833 0.93-1.328 0.448-1.089 0.594-1.781 0.219-1.456 0.219-2.289c0-1.615-0.526-2.99-1.578-4.125 0.479-1.25 0.427-2.609-0.156-4.078l-0.391-0.047c-0.271-0.031-0.758 0.083-1.461 0.344s-1.492 0.688-2.367 1.281c-1.24-0.344-2.526-0.516-3.859-0.516-1.344 0-2.625 0.172-3.844 0.516-0.552-0.375-1.075-0.685-1.57-0.93s-0.891-0.411-1.188-0.5-0.573-0.143-0.828-0.164-0.419-0.026-0.492-0.016-0.125 0.021-0.156 0.031c-0.583 1.479-0.635 2.839-0.156 4.078-1.052 1.135-1.578 2.51-1.578 4.125 0 0.833 0.073 1.596 0.219 2.289s0.344 1.286 0.594 1.781 0.56 0.938 0.93 1.328 0.755 0.708 1.156 0.953 0.854 0.456 1.359 0.633 0.984 0.313 1.438 0.406 0.95 0.167 1.492 0.219c-0.854 0.583-1.281 1.51-1.281 2.781v2.445c-0.472-0.14-0.937-0.306-1.394-0.5-1.6-0.677-3.037-1.646-4.272-2.881s-2.204-2.672-2.881-4.272c-0.7-1.655-1.055-3.414-1.055-5.23s0.355-3.575 1.055-5.23c0.677-1.6 1.646-3.037 2.881-4.272s2.672-2.204 4.272-2.881c1.655-0.7 3.415-1.055 5.23-1.055s3.575 0.355 5.23 1.055c1.6 0.677 3.037 1.646 4.272 2.881s2.204 2.672 2.881 4.272c0.7 1.655 1.055 3.415 1.055 5.23s-0.355 3.575-1.055 5.23c-0.677 1.6-1.646 3.037-2.881 4.272z" fill="#000000"></path>
</g>
<g transform="translate(0 48)">
	<path d="M4 16c0 4.626 2.76 8.624 6.763 10.518l-5.724-15.274c-0.666 1.453-1.039 3.062-1.039 4.756zM24.101 15.41c0-1.445-0.533-2.445-0.989-3.223-0.608-0.963-1.179-1.778-1.179-2.741 0-1.074 0.836-2.074 2.015-2.074 0.053 0 0.104 0.006 0.155 0.009-2.135-1.905-4.979-3.069-8.103-3.069-4.192 0-7.881 2.095-10.026 5.268 0.282 0.009 0.547 0.014 0.772 0.014 1.255 0 3.198-0.149 3.198-0.149 0.647-0.037 0.723 0.889 0.077 0.963 0 0-0.65 0.074-1.373 0.111l4.37 12.66 2.626-7.671-1.869-4.989c-0.646-0.037-1.259-0.111-1.259-0.111-0.647-0.037-0.571-1 0.076-0.963 0 0 1.981 0.149 3.16 0.149 1.255 0 3.198-0.149 3.198-0.149 0.647-0.037 0.723 0.889 0.076 0.963 0 0-0.651 0.074-1.373 0.111l4.337 12.563 1.197-3.895c0.518-1.617 0.913-2.778 0.913-3.778zM16.211 17.022l-3.601 10.189c1.075 0.308 2.212 0.476 3.39 0.476 1.397 0 2.738-0.235 3.985-0.663-0.032-0.050-0.062-0.103-0.086-0.161l-3.688-9.842zM26.53 10.393c0.052 0.372 0.081 0.771 0.081 1.202 0 1.185-0.228 2.519-0.913 4.186l-3.665 10.321c3.568-2.026 5.967-5.79 5.967-10.102 0-2.032-0.533-3.943-1.47-5.607zM16 0c-8.837 0-16 7.163-16 16s7.163 16 16 16 16-7.163 16-16-7.163-16-16-16zM16 30c-7.732 0-14-6.268-14-14s6.268-14 14-14 14 6.268 14 14-6.268 14-14 14z" fill="#000000"></path>
</g>
<g transform="translate(48 48)">
	<path d="M1.892 0l2.567 28.801 11.524 3.199 11.554-3.204 2.572-28.796h-28.216zM25.336 26.963l-9.288 2.574v0.015l-0.024-0.007-0.024 0.007v-0.015l-9.288-2.574-2.195-24.609h23.015l-2.195 24.609zM20.336 16.569l-0.408 4.58-3.944 1.065-3.933-1.060-0.252-2.82h-3.547l0.495 5.547 7.252 2.006 7.229-2.006 0.97-10.844h-12.874l-0.322-3.617h13.517l0.316-3.532h-17.694l0.953 10.681z" fill="#000000"></path>
</g>
<g transform="translate(96 48)">
	<path d="M4.762 1.516l-1.074 5.373h21.867l-0.684 3.47h-21.881l-1.059 5.372h21.865l-1.219 6.127-8.813 2.919-7.638-2.919 0.523-2.658h-5.372l-1.278 6.448 12.632 4.834 14.563-4.834 4.805-24.133z" fill="#000000"></path>
</g>
<g transform="translate(0 96)">
	<path d="M20.682 3.732c-0.473-0.472-1.1-0.732-1.768-0.732s-1.295 0.26-1.77 0.733l-1.41 1.412c-0.473 0.472-0.734 1.1-0.734 1.769 0 0.471 0.129 0.922 0.371 1.313l-13.577 5.439c-0.908 0.399-1.559 1.218-1.742 2.189-0.185 0.977 0.125 1.979 0.834 2.687l12.72 12.58c0.548 0.548 1.276 0.859 2.045 0.877 0.018 0.001 0.060 0.001 0.078 0.001 0.202 0 0.407-0.021 0.61-0.062 0.994-0.206 1.808-0.893 2.177-1.828l5.342-13.376c0.402 0.265 0.875 0.407 1.367 0.407 0.67 0 1.297-0.261 1.768-0.733l1.407-1.408c0.477-0.474 0.738-1.103 0.738-1.773s-0.262-1.3-0.732-1.768l-7.724-7.727zM16.659 29.367c-0.124 0.313-0.397 0.544-0.727 0.612-0.076 0.016-0.153 0.022-0.229 0.021-0.254-0.006-0.499-0.108-0.682-0.292l-12.728-12.588c-0.234-0.233-0.337-0.567-0.275-0.893 0.061-0.324 0.279-0.598 0.582-0.73l6.217-2.49c4.189 1.393 8.379 0.051 12.57 4.522l-4.728 11.838zM26.992 13.58l-1.414 1.413c-0.195 0.196-0.512 0.196-0.707 0l-1.768-1.767-1.432 3.589 0.119-0.303c-3.010-3.005-6.069-3.384-8.829-3.723-0.887-0.109-1.747-0.223-2.592-0.405l8.491-3.401-1.715-1.715c-0.195-0.195-0.195-0.512 0-0.707l1.414-1.415c0.195-0.195 0.512-0.195 0.707 0l7.725 7.727c0.198 0.195 0.198 0.512 0.001 0.707zM16.5 21c1.378 0 2.5-1.121 2.5-2.5s-1.121-2.5-2.5-2.5c-1.379 0-2.5 1.121-2.5 2.5s1.122 2.5 2.5 2.5zM16.5 17c0.828 0 1.5 0.672 1.5 1.5s-0.672 1.5-1.5 1.5c-0.829 0-1.5-0.672-1.5-1.5s0.671-1.5 1.5-1.5zM29.5 0c-1.379 0-2.5 1.121-2.5 2.5s1.121 2.5 2.5 2.5 2.5-1.121 2.5-2.5-1.121-2.5-2.5-2.5zM29.5 4c-0.828 0-1.5-0.672-1.5-1.5s0.672-1.5 1.5-1.5 1.5 0.672 1.5 1.5-0.672 1.5-1.5 1.5zM8 17c0 1.103 0.897 2 2 2s2-0.897 2-2-0.897-2-2-2-2 0.897-2 2zM10 16c0.552 0 1 0.447 1 1s-0.448 1-1 1-1-0.447-1-1 0.448-1 1-1zM12 23c0-0.552 0.448-1 1-1s1 0.448 1 1c0 0.552-0.448 1-1 1s-1-0.448-1-1zM28 8c0-0.552 0.448-1 1-1s1 0.448 1 1c0 0.552-0.448 1-1 1s-1-0.448-1-1z" fill="#000000"></path>
</g>
<g transform="translate(0 144)">
	<path d="M29.91 4.216c-0.549 0.194-27.714 9.765-28.248 9.954-0.454 0.16-0.557 0.552-0.016 0.766 0.642 0.258 6.074 2.434 6.074 2.434h-0.002l3.602 1.443c0 0 17.339-12.734 17.574-12.906 0.235-0.173 0.509 0.152 0.338 0.338-0.171 0.187-12.594 13.622-12.594 13.622-0.002 0-0.002 0-0.002 0l-0.723 0.806 0.958 0.515c0 0 7.44 4.005 7.97 4.291 0.464 0.25 1.069 0.042 1.203-0.536 0.158-0.682 4.552-19.619 4.65-20.038 0.128-0.549-0.234-0.883-0.784-0.69zM11.288 27.459c0 0.395 0.222 0.504 0.53 0.226 0.4-0.365 4.558-4.096 4.558-4.096l-5.088-2.634v6.504z" fill="#000000"></path>
</g>
<g transform="translate(48 144)">
	<path d="M19.621 20.109c0 0 11.294-8.149 10.042-17.477-0.029-0.205-0.096-0.339-0.179-0.43-0.088-0.085-0.219-0.155-0.421-0.184-9.115-1.278-17.078 10.278-17.078 10.278-6.909-0.829-6.406 0.55-9.558 8.12-0.603 1.443 0.374 1.941 1.446 1.534 1.072-0.403 3.438-1.298 3.438-1.298l4.142 4.238c0 0-0.874 2.421-1.269 3.517-0.395 1.099 0.090 2.099 1.501 1.483 7.398-3.227 8.746-2.714 7.936-9.782zM21.234 10.643c-0.957-0.979-0.957-2.566 0-3.546 0.957-0.978 2.507-0.978 3.464 0 0.958 0.978 0.958 2.566 0 3.546-0.955 0.981-2.507 0.981-3.464 0z" fill="#000000"></path>
</g>
<g transform="translate(96 144)">
	<path d="M25.443 8.96c-3.326 0-6.971 1.853-9.443 4.664-2.472-2.811-6.118-4.664-9.445-4.664-3.17 0-6.555 1.85-6.555 7.040s3.386 7.038 6.555 7.040v0c3.328 0 6.973-1.853 9.445-4.664 2.472 2.811 6.117 4.664 9.443 4.664 3.171 0 6.557-1.85 6.557-7.040s-3.386-7.040-6.557-7.040zM6.555 20.224c-2.419 0-3.646-1.421-3.646-4.224s1.227-4.226 3.646-4.226c2.675 0 5.782 1.738 7.69 4.226-1.907 2.488-5.013 4.224-7.69 4.224zM25.443 20.224c-2.675 0-5.782-1.736-7.69-4.224 1.906-2.488 5.014-4.226 7.69-4.226 2.421 0 3.646 1.422 3.646 4.226s-1.226 4.224-3.646 4.224z" fill="#000000"></path>
</g>

</svg>
